<svg width="211" height="211" viewBox="0 0 211 211" fill="none" xmlns="http://www.w3.org/2000/svg">
<path d="M85.3534 151.94C85.5171 152.362 84.7941 152.715 83.9988 152.979C78.6098 154.763 75.4148 154.162 67.771 154.254C64.2822 154.296 57.673 154.071 55.6846 154.187C47.1342 154.687 33.1256 153.727 30.8477 152.905C22.1105 149.757 57.994 148.091 75.6971 149.686C76.7526 149.78 84.5255 149.809 85.3534 151.94Z" fill="#D8E9FF"/>
<path d="M130.371 114.023C130.315 115.104 129.402 115.242 126.059 116.084C118.08 118.088 101.717 116.836 94.994 117.147C93.1498 117.076 91.3104 116.909 89.4833 116.647C74.9186 115.005 73.6469 115.26 72.6543 113.399C72.7641 113.172 72.9248 112.973 73.1238 112.819C73.3228 112.665 73.5546 112.559 73.8011 112.51C76.3528 111.941 78.9529 111.62 81.5656 111.551C85.0282 116.278 109.527 116.039 116.975 113.712C117.359 113.596 117.716 113.4 118.02 113.137C118.325 112.873 118.571 112.549 118.743 112.184C126.599 112.674 127.498 113.165 130.371 114.023Z" fill="#D8E9FF"/>
<path d="M181.405 180.876C181.405 193.951 181.355 199.038 181.36 201.027C181.36 202.187 181.623 202.581 180.757 202.834C172.324 205.293 149.069 204.374 140.512 204.441C140.125 204.441 139.739 204.313 139.352 204.303C135.374 204.197 128.138 204.197 125.383 201.379C124.914 200.899 125.096 194.995 125.082 194.509C124.909 187.951 124.747 189.445 125.102 187.073C125.437 184.838 124.974 183.17 125.175 180.757C126.972 181.5 128.888 181.905 130.83 181.952C145.685 183.268 151.216 182.646 151.238 182.646C169.867 182.394 172.3 183.603 181.405 180.876Z" fill="#D8E9FF"/>
<path d="M130.608 115.966C129.228 116.539 127.788 116.95 126.314 117.191C115.474 119.261 80.8719 118.729 72.1232 114.901C72.4063 116.868 72.389 118.867 72.0718 120.829C71.6878 125.788 71.9889 122.929 72.1673 127.068C72.2198 128.283 71.7476 126.402 72.2953 138.303C72.33 139.072 72.2953 141.685 72.2953 143.111C72.2953 143.638 72.5052 145.3 72.5052 148.254C75.9572 148.696 83.1226 149.235 83.0208 149.643C87.2178 151.035 86.5075 149.94 86.5075 162.993C86.5969 163.987 86.5836 164.988 86.4676 165.979C86.0658 167.953 86.8265 180.096 86.4519 184.182C86.0626 188.439 86.3952 185.516 86.3218 190.139C86.2351 190.85 86.2123 191.567 86.2536 192.282C86.4319 193.332 86.5683 200.812 86.5683 201.63C91.1851 202.02 86.0437 201.63 94.9624 201.805C109.083 202.085 93.9278 201.442 116.682 201.76C117.757 201.775 117.26 201.668 120.383 201.655C121.612 201.733 122.846 201.651 124.055 201.412C124.055 200.657 123.934 198.247 123.925 196.303C123.925 195.494 124.048 194.686 124.03 193.876C124.009 192.766 123.863 191.668 123.86 190.562C123.86 188.96 124.07 186.342 124.07 183.861C124.07 182.881 123.952 181.899 123.944 180.917C123.982 180.094 124.292 179.308 124.825 178.683C125.358 178.058 126.084 177.63 126.887 177.467C127.896 177.256 128.897 177.023 129.91 176.78C130.588 161.185 129.524 129.938 130.546 119.566C130.617 118.888 130.608 120.122 130.608 115.966Z" fill="#D8E9FF"/>
<path d="M85.5785 153.431C85.6666 154.245 85.6397 155.068 85.4987 155.875C85.3288 157.729 85.7705 158.067 85.5187 160.545C85.398 161.731 85.5785 164.237 85.3928 165.655C85.2402 167.915 85.2052 170.181 85.2878 172.445C85.8009 185.587 84.8272 178.677 85.5218 199.932C85.5743 201.521 85.8366 202.379 84.7244 202.742C76.9515 205.296 73.1133 203.821 63.6616 204.173C56.3284 204.446 39.3913 204.161 39.2853 204.157C37.4208 204.094 29.3016 202.909 29.225 200.794C28.9884 195.602 29.0673 190.4 29.4611 185.217C29.5661 180.461 28.9438 186.859 28.9438 153.039C29.4832 152.839 28.6742 153.74 32.3518 154.259C39.0681 154.995 45.8181 155.376 52.5741 155.401C53.7692 155.384 54.9601 155.19 56.1553 155.16C59.793 155.054 77.6325 155.851 81.9953 154.537C83.1778 154.182 84.3582 153.806 85.5785 153.431Z" fill="#D8E9FF"/>
<path d="M166.175 150.986C167.559 157.567 166.064 162.235 160.561 166.705C158.965 168.012 157.045 168.857 155.008 169.15C134.96 173.212 129.937 146.116 147.075 140.004C149.709 138.926 152.613 138.697 155.382 139.351C158.151 140.005 160.65 141.509 162.531 143.655C164.581 145.58 165.875 148.182 166.175 150.986Z" fill="#FFEB8D"/>
<path d="M161.685 151.972C162.315 155.507 161.493 158.116 160.138 159.822C159.351 161.197 158.19 162.319 156.792 163.054C155.187 164.016 153.357 164.531 151.489 164.547C147.087 164.139 143.792 162.834 142.005 158.078C140.675 154.539 141.601 151.293 143.388 148.346C146.377 143.418 155.691 141.911 159.595 147.619C160.794 148.767 161.537 150.314 161.685 151.972Z" fill="#FFEB8D"/>
<path d="M157.871 157.497C155.936 158.259 153.249 156.199 152.051 157.998C150.155 160.498 150.144 160.853 149.417 160.698C148.568 157.028 148.878 156.844 147.855 156.54C144.207 155.457 144.404 155.295 144.971 154.728C145.657 154.202 146.384 153.734 147.145 153.328C148.719 152.509 147.805 150.879 149.09 148.194C150.073 148.341 150.981 148.809 151.673 149.527C152.975 150.551 152.075 150.371 156.5 148.988C157.786 148.59 156.086 152.392 155.788 153.357C155.55 154.147 157.451 155.948 157.871 157.497Z" fill="#FFEB8D"/>
<path d="M133.509 66.3281C135.533 72.1306 133.036 77.1302 129.715 82.325C125.937 88.2277 119.158 92.069 113.59 87.811C118.151 84.2789 115.679 84.3939 117.638 85.163C123.341 87.4017 132.261 74.4157 129.851 67.6827C128.277 63.2802 122.799 64.2697 123.256 67.8335C123.428 69.1829 125.635 70.3655 126.261 69.1069C126.519 68.5868 126.403 68.3421 125.792 68.1669L125.35 68.4729C123.251 67.958 125.035 65.2024 126.924 66.1825C131.484 68.5499 127.821 74.6932 122.404 71.755C121.711 71.3794 121.958 71.2169 122.5 67.6025C123.379 61.7494 122.41 61.378 124.644 60.5889C125.446 60.3134 126.301 60.2341 127.14 60.3576C127.978 60.4811 128.775 60.8038 129.465 61.2989C131.781 62.9447 132.548 63.5692 133.509 66.3281Z" fill="#FFEB8D"/>
<path d="M119.049 47.6787C125.992 49.067 126.394 51.3648 125.24 55.4551C124.348 58.6201 120.071 57.5936 120.323 58.8311C120.505 59.7204 122.391 59.8608 121.948 61.4971C121.695 62.4307 121.439 72.8436 119.075 78.5765C117.104 82.9034 113.644 86.3681 109.332 88.332C106.32 89.7964 98.5323 89.7668 105.716 91.0687C104.8 107.965 103.586 103.059 115.998 108.165C116.501 108.376 117.53 108.671 117.622 109.009C117.905 111.479 88.9127 112.431 83.274 109.106C82.1031 108.272 86.5677 107.313 87.3903 107.022C95.9491 104.001 95.7696 104.82 96.1631 99.4486C96.8976 89.4398 95.521 91.6416 97.7622 90.4811C98.2962 90.2047 98.1252 89.5917 97.1326 89.3427C80.3445 85.1333 83.6885 65.7593 83.8438 59.6898C83.8742 58.5051 84.4345 58.3257 86.1595 57.0587C86.2508 55.9056 85.8059 56.4626 83.7116 55.7726C83.0256 55.5744 82.4036 55.198 81.9083 54.6813C81.413 54.1646 81.0618 53.5258 80.8901 52.8292C81.1493 49.0217 80.2396 46.2639 95.2838 45.8746C103.25 45.4647 111.235 46.0709 119.049 47.6787Z" fill="#FFEB8D"/>
<path d="M117.78 112.063C116.7 114.564 91.9684 116.116 83.5355 111.981C82.1484 111.3 82.2534 111.206 82.3488 109.73C82.351 109.705 82.3593 109.681 82.3732 109.66C82.387 109.638 82.4059 109.621 82.4281 109.609C82.4503 109.597 82.4751 109.591 82.5003 109.591C82.5255 109.591 82.5503 109.598 82.5723 109.61C88.7839 113.331 110.935 112.816 117.734 110.454C118.184 110.298 117.94 111.609 117.78 112.063Z" fill="#FFEB8D"/>
<path d="M110.469 64.4968C111.787 66.1358 112.533 68.1656 112.59 70.273C112.367 73.919 111.707 76.603 108.529 79.3228C105.498 81.9149 103.38 81.572 101.568 81.7229C86.0231 80.2585 89.8214 60.3982 101.082 60.5575C106.109 60.6229 108.027 62.1094 110.469 64.4968Z" fill="#FFEB8D"/>
<path d="M104.907 64.3544L104.541 77.581H100.239C100.239 69.3815 101.662 68.5375 98.3147 70.407C97.5531 69.6261 96.9444 68.7081 96.5205 67.7009C100.622 64.135 101.004 63.9504 101.919 64.0263C105.172 64.2964 104.165 64.1192 104.907 64.3544Z" fill="#FFEB8D"/>
<path d="M84.0715 82.7925C84.7126 82.552 84.1764 82.1595 87.4081 86.0345C73.8003 94.484 60.1663 60.2925 77.5755 56.9925C78.2977 56.9263 79.0255 57.0203 79.7076 57.2679C81.0255 57.7476 82.113 58.7125 82.7504 59.9676L82.8459 59.8737C82.5448 66.6479 82.8008 68.3137 80.9898 68.9836C80.2878 69.3108 79.5155 69.4558 78.7434 69.4053C77.9714 69.3548 77.2242 69.1104 76.5703 68.6946C76.1534 68.4857 75.7751 68.2067 75.4518 67.8696C73.4131 64.9535 76.6878 62.0407 78.6667 62.7423C79.2963 62.9638 80.6331 64.6993 78.629 65.346L78.0792 64.8185C77.905 64.9493 77.5671 65.0812 77.5545 65.2405C77.3867 67.4634 81.378 66.3514 80.6834 63.7941C80.1682 61.9204 78.9091 61.0754 76.9942 61.7178C71.1184 63.6949 72.9787 73.0064 77.0142 79.1654C78.7234 81.7776 81.1724 83.8792 84.0715 82.7925Z" fill="#FFEB8D"/>
<path d="M63.1782 122.111C64.7017 129.335 62.5381 134.045 57.2824 138.027C55.749 139.223 53.9315 139.996 52.0099 140.268C46.4551 141.435 43.5109 140.114 40.1302 138.264C38.564 137.356 37.2592 136.054 36.3434 134.487C26.0775 118.16 47.262 101.953 59.4858 114.729C61.56 116.662 62.871 119.283 63.1782 122.111Z" fill="#FFEB8D"/>
<path d="M57.1402 130.95C56.3489 132.327 55.1844 133.449 53.7826 134.186C52.1791 135.148 50.349 135.662 48.4818 135.674C33.8268 134.302 36.1688 115.639 48.8721 115.012C57.3322 114.597 61.6373 125.273 57.1402 130.95Z" fill="#FFEB8D"/>
<path d="M54.8718 128.605C54.6585 128.701 54.431 128.762 54.1982 128.785C50.5814 128.44 50.0011 127.924 49.1051 129.063C46.8387 131.949 46.4494 133.582 45.8524 129.09C45.5869 127.091 44.1442 127.929 41.5767 126.386C42.437 124.843 44.8294 124.914 45.1651 122.98C45.7569 119.574 45.567 120.536 46.1325 119.312C48.6382 119.55 48.741 122.088 50.7734 120.994C51.6468 120.61 52.5576 120.319 53.491 120.124C53.6526 120.121 53.8136 120.147 53.9663 120.2C53.901 121.544 53.5329 122.856 52.8897 124.035C52.3735 125.481 54.3755 126.742 54.8718 128.605Z" fill="#FFEB8D"/>
<path d="M173.506 181.479C177.026 181.291 184.123 179.814 180.199 178.439C171.871 175.523 125.723 175.839 125.676 179.419C129.438 182.407 155.069 181.567 159.826 181.603C166.477 181.654 168.686 181.736 173.506 181.479Z" fill="#D8E9FF"/>
<path d="M182.504 179.899C182.522 180.405 182.567 180.909 182.639 181.41C182.601 184.445 182.202 184.72 182.55 186.709C182.76 187.892 182.372 187.909 182.515 190.523C182.648 192.968 182.32 193.207 182.431 197.355C182.679 198.804 182.724 200.28 182.565 201.741C182.555 202.238 182.391 202.719 182.095 203.118C181.8 203.516 181.388 203.812 180.917 203.963C174.499 206.222 139.366 205.799 132.59 205.118C132.018 205.061 131.459 204.849 130.886 204.776C126.653 204.237 125.192 202.377 124.348 202.554C122.344 202.801 120.324 202.887 118.307 202.812C117.803 202.826 117.301 202.927 116.796 202.946C116.767 202.946 118.086 202.681 98.995 203.127C95.4993 202.899 91.9938 202.861 88.4941 203.014C87.5749 203.034 86.5645 202.445 85.7922 203.324C85.277 203.909 84.4838 203.944 83.8039 204.212C78.7433 206.199 67.1207 204.792 61.3865 205.494C61.1274 205.56 43.29 205.665 36.5905 204.987C34.1101 204.736 28.2909 203.454 28.1965 200.946C28.0108 196.14 28.0527 186.711 28.292 185.98C28.5102 185.31 27.675 167.422 28.0443 155.482C28.0926 153.9 27.0496 151.112 30.9676 150.052C40.9754 147.346 64.5081 148.349 71.2002 148.349C71.2516 147.204 70.9201 132.161 70.9043 131.021C70.8519 127.118 71.067 126.25 70.7123 124.422C70.6305 124 70.812 120.914 70.8172 120.892C71.0365 118.183 71.3146 117.65 71.0051 116.004C69.9757 110.538 74.881 111.137 81.5291 110.307C81.5291 106.969 82.8239 107.726 93.6228 103.752C95.3289 103.124 94.9743 100.71 95.2429 94.4201C95.5356 87.5626 94.8704 91.5304 89.4006 86.6732C88.6661 86.0212 89.3398 86.9644 85.1375 88.1565C75.7781 90.8141 68.3809 77.4472 68.2696 67.3878C68.4401 65.2622 69.0098 63.1884 69.9485 61.2762C71.1026 58.7041 72.1362 58.1661 74.9177 56.6258C77.9742 54.9378 81.441 56.1394 82.4105 57.7103L82.8795 57.4392C82.7378 55.4726 78.6657 56.4063 80.0969 49.7609C80.2067 49.2632 80.4232 48.7956 80.7312 48.3907C81.0393 47.9858 81.4316 47.6534 81.8806 47.4167C82.3016 47.1361 82.7365 46.8772 83.1838 46.6412C90.2316 43.7864 122.51 43.7653 126.343 50.3137C126.806 51.2292 126.961 52.2709 126.785 53.2825C126.5 55.9495 125.989 57.6597 123.574 58.6904C123.304 60.505 123.316 59.7021 123.994 59.5281C125.08 59.1566 126.238 59.0453 127.374 59.2031C128.951 59.5373 130.397 60.3237 131.538 61.4671C132.473 62.2004 133.255 63.1129 133.838 64.152C134.421 65.1911 134.792 66.3361 134.932 67.5207C135.946 73.6798 134.104 77.0284 130.922 82.4216C127.921 87.5077 121.913 92.1086 116.127 90.3003C114.674 89.8048 113.307 89.0836 112.075 88.1629C107.74 90.1864 106.953 90.4469 106.761 92.0727C106.697 92.615 106.251 99.0009 106.251 101.416C106.251 104.321 107.195 103.977 113.953 106.452C119.736 108.569 118.874 108.389 119.004 111.094C132.399 112.17 131.586 113.243 131.672 116.122C131.767 119.302 131.097 135.366 131.343 139.473C131.419 140.744 131.245 141.988 131.222 143.25C131.08 150.759 131.441 151.151 131.164 154.881C131.054 156.358 131.61 162.589 131.314 171.082C131.209 174.051 131.094 175.08 131.094 176.636C142.309 175.524 153.588 175.213 164.847 175.707C165.824 175.746 166.807 175.64 167.785 175.692C169.149 175.763 172.364 176.185 172.81 176.185C175.764 176.193 182.876 176.936 182.504 179.899ZM181.361 201.023C181.361 199.039 181.406 193.954 181.406 180.877C172.292 183.603 169.976 182.394 151.239 182.641C151.216 182.641 145.686 183.264 130.83 181.948C128.89 181.9 126.975 181.495 125.18 180.753C124.979 183.17 125.441 184.834 125.107 187.069C124.752 189.442 124.914 187.957 125.087 194.505C125.1 194.991 124.919 200.895 125.388 201.375C128.143 204.192 135.615 204.25 139.357 204.298C139.744 204.298 140.13 204.443 140.517 204.437C146.27 204.343 172.543 205.359 180.761 202.83C181.636 202.561 181.363 202.199 181.361 201.023ZM173.506 181.479C177.026 181.291 184.123 179.814 180.199 178.439C171.871 175.523 125.724 175.839 125.677 179.419C129.438 182.407 155.069 181.567 159.827 181.603C166.477 181.654 168.687 181.736 173.506 181.479ZM129.713 82.3255C133.03 77.1339 135.523 72.1385 133.507 66.3286C132.55 63.5708 131.78 62.9441 129.464 61.3036C128.775 60.8087 127.977 60.4862 127.139 60.3628C126.301 60.2393 125.445 60.3184 124.643 60.5936C122.409 61.3775 123.372 61.7541 122.499 67.6072C121.961 71.2217 121.71 71.3841 122.403 71.7597C123.143 72.2399 123.999 72.508 124.879 72.5354C125.759 72.5627 126.63 72.3481 127.398 71.9148C127.786 71.6974 128.127 71.4043 128.401 71.0529C128.669 70.6476 128.844 70.1878 128.914 69.7064C128.984 69.2251 128.946 68.7342 128.805 68.269C128.664 67.8038 128.422 67.3759 128.096 67.0159C127.771 66.656 127.37 66.373 126.923 66.1872C125.027 65.2029 123.251 67.9638 125.349 68.4776L125.791 68.1717C126.403 68.3468 126.518 68.5937 126.26 69.1117C125.63 70.3692 123.427 69.1876 123.255 67.8383C122.798 64.2766 128.271 63.2817 129.85 67.6874C131.835 73.2251 126.658 81.6134 121.697 84.7236C120.961 85.2043 120.103 85.4603 119.225 85.4603C118.348 85.4603 117.489 85.2043 116.754 84.7236C115.82 85.8729 114.758 86.9104 113.589 87.8158C119.112 92.0358 125.901 88.2916 129.713 82.3255ZM130.606 115.966C129.227 116.54 127.786 116.951 126.312 117.191C115.473 119.261 80.8702 118.729 72.1215 114.902C72.4045 116.869 72.3872 118.868 72.0701 120.83C71.686 125.788 71.9872 122.929 72.1655 127.068C72.218 128.283 71.7458 126.402 72.2935 138.304C72.3282 139.073 72.2935 141.685 72.2935 143.111C72.2935 143.639 72.5034 145.301 72.5034 148.255C80.504 149.279 77.672 148.477 83.2887 149.639C83.3055 149.327 83.3055 149.014 83.2887 148.702C82.6917 143.772 82.7221 147.215 83.1491 140.006C83.3054 137.91 83.3359 135.807 83.2404 133.707C82.8291 129.637 83.273 130.276 83.4608 124.82C83.53 122.821 83.2048 122.316 83.487 120.637L84.1103 120.752C84.4542 124.29 84.4152 127.855 83.9938 131.385C84.0756 133.854 84.3841 131.196 84.1522 139.31C84.0578 142.643 83.6087 143.903 83.8102 146.084C83.9308 147.388 84.5132 148.642 84.1701 150C85.0273 150.277 85.8678 150.539 86.1458 151.465C86.6144 152.862 86.7535 154.349 86.5519 155.809C86.3567 157.02 86.703 165.978 86.32 190.139C86.2333 190.85 86.2105 191.568 86.2518 192.283C86.4302 193.333 86.5666 200.813 86.5666 201.63C91.1833 202.021 86.0419 201.63 94.9606 201.805C109.081 202.086 93.926 201.442 116.68 201.761C117.756 201.776 117.258 201.668 120.381 201.656C121.61 201.734 122.845 201.652 124.053 201.413C124.053 200.658 123.933 198.248 123.923 196.304C123.923 195.494 124.046 194.686 124.028 193.877C124.007 192.766 123.861 191.669 123.858 190.562C123.858 188.961 124.068 186.342 124.068 183.862C124.068 182.882 123.951 181.9 123.942 180.917C123.98 180.095 124.29 179.308 124.823 178.683C125.357 178.058 126.082 177.63 126.885 177.468C127.895 177.257 128.896 177.023 129.908 176.781C129.99 174.89 130.313 168.13 130.109 159.251C129.662 139.607 130.606 120.264 130.606 115.966ZM126.058 116.084C129.401 115.24 130.314 115.104 130.37 114.023C127.497 113.165 126.593 112.693 118.738 112.184C118.566 112.549 118.32 112.874 118.015 113.137C117.711 113.4 117.354 113.597 116.97 113.713C109.52 116.034 85.0231 116.277 81.5606 111.551C78.9478 111.62 76.3478 111.941 73.7961 112.51C73.5496 112.559 73.3177 112.665 73.1188 112.819C72.9198 112.974 72.7591 113.172 72.6492 113.4C73.5757 115.141 75.6522 115.047 78.4453 115.404C82.5374 115.919 82.3591 115.998 83.8815 116.164C83.9865 116.175 94.6889 117.166 94.9889 117.153C101.792 116.834 118.021 118.108 126.058 116.084ZM128.958 72.2092C127.97 73.0598 126.737 73.57 125.44 73.665C124.143 73.7599 122.85 73.4346 121.75 72.7367C119.127 82.1852 120.424 78.057 117.275 83.7519C117.763 84.0979 118.331 84.3105 118.925 84.369C119.519 84.4274 120.118 84.3297 120.663 84.0853C125.425 81.6862 129.078 74.3424 128.958 72.2092ZM125.239 55.4663C126.393 51.3666 125.987 49.073 119.048 47.6899C111.231 46.0884 103.243 45.4914 95.2764 45.9133C91.9052 46.004 85.318 46.3353 82.4608 48.1636C80.9919 49.1004 81.0653 50.2008 80.887 52.8668C81.0589 53.5636 81.4102 54.2025 81.9057 54.7194C82.4012 55.2363 83.0233 55.6129 83.7094 55.8113C85.808 56.5002 86.2476 55.9442 86.1574 57.0973C84.4313 58.3633 83.8721 58.5437 83.8417 59.7275C83.6864 65.7979 80.3487 85.173 97.1305 89.3814C98.1231 89.6304 98.292 90.2402 97.76 90.5187C97.3403 90.7371 96.801 90.9407 96.4674 91.1074C96.0319 100.094 96.5397 103.371 94.393 104.451C87.662 107.839 79.5009 108.103 84.765 109.788C92.1528 112.153 117.907 111.557 117.62 109.041C117.435 108.359 108.807 105.731 107.642 105.22C104.411 103.804 105.073 102.96 105.718 91.0989C98.484 89.815 106.215 89.8635 109.334 88.3612C113.65 86.4036 117.112 82.9369 119.077 78.6056C121.446 72.8706 121.7 62.4588 121.95 61.5273C122.383 59.8963 120.508 59.7675 120.325 58.8613C120.067 57.6312 124.356 58.6313 125.243 55.4663H125.239ZM117.777 112.063C117.936 111.605 118 111.12 117.965 110.636C117.915 109.826 116.198 112.113 103.658 112.232C97.5376 112.288 87.3199 112.477 82.5595 109.626C82.5375 109.614 82.5128 109.607 82.4876 109.607C82.4625 109.607 82.4377 109.613 82.4156 109.625C82.3934 109.637 82.3746 109.654 82.3609 109.675C82.3472 109.697 82.339 109.721 82.337 109.746C82.2531 111.247 82.1272 111.311 83.5227 111.996C92.2598 116.28 116.767 114.411 117.781 112.063H117.777ZM85.4963 155.876C85.6344 155.069 85.6613 154.246 85.5761 153.432C84.3558 153.807 83.1775 154.177 81.9939 154.538C77.6364 155.866 59.7917 155.054 56.1539 155.161C54.9588 155.195 53.7679 155.383 52.5728 155.402C45.8175 155.381 39.068 155 32.3526 154.263C28.6749 153.744 29.4797 152.843 28.9446 153.043C28.9446 187.036 29.5553 180.872 29.4619 185.221C29.0381 190.402 28.9592 195.606 29.2258 200.798C29.3139 202.919 37.5495 204.085 39.2861 204.161C42.9585 204.324 39.3091 203.95 56.6712 204.424C57.9974 204.46 59.3226 204.048 60.6489 204.382C61.0466 204.482 60.5555 204.293 63.6624 204.177C72.4656 203.849 77.0561 205.243 84.7251 202.746C85.83 202.387 85.5761 201.525 85.5226 199.936C85.3033 193.358 85.148 164.066 85.5163 160.549C85.7765 158.06 85.3379 157.731 85.4963 155.876ZM83.998 152.981C84.7933 152.716 85.5163 152.364 85.3526 151.942C83.4713 147.1 19.7216 148.925 30.8469 152.907C33.0661 153.702 46.8543 154.709 55.6838 154.189C57.6774 154.072 64.2814 154.294 67.7702 154.255C75.414 154.162 78.6069 154.769 83.998 152.981ZM87.407 86.0349C84.1774 82.161 84.7115 82.5534 84.0704 82.7929C81.1713 83.8796 78.7265 81.778 77.0246 79.1722C72.9966 73.0046 71.1331 63.7048 77.0047 61.7256C78.9154 61.081 80.1819 61.925 80.6897 63.7976C81.3853 66.3602 77.3761 67.4754 77.5608 65.244C77.5608 65.0868 77.9102 64.955 78.0854 64.822L78.6352 65.3495C80.6393 64.7039 79.2984 62.9663 78.673 62.7458C76.6794 62.0463 73.4194 64.9613 75.4581 67.8742C75.7818 68.2101 76.1596 68.4886 76.5756 68.6981C77.2288 69.1155 77.9761 69.3608 78.7485 69.4113C79.5209 69.4618 80.2935 69.316 80.995 68.9872C82.8071 68.3204 82.5416 66.6567 82.8512 59.8773C82.5269 60.1938 81.8753 57.8021 79.7181 57.2714C79.036 57.0239 78.3082 56.9299 77.586 56.9961C70.6766 58.3074 66.3443 65.32 71.77 77.7964C75.904 87.3051 82.7053 88.9552 87.407 86.0349ZM85.0273 81.0564C83.3483 77.4404 82.4579 73.5051 82.4157 69.5147C81.1584 70.3547 79.6341 70.6917 78.1423 70.4594C76.6505 70.2271 75.299 69.4423 74.3532 68.2592C74.1077 70.2722 74.626 71.459 75.5704 73.9889C76.3422 76.4629 77.6933 78.7144 79.5103 80.5542C79.9961 81.131 80.616 81.5782 81.315 81.8561C81.9518 82.0365 82.6228 82.058 83.2697 81.9186C83.9166 81.7793 84.5199 81.4833 85.0273 81.0564Z" fill="#3D4A56"/>
<path d="M169.828 186.719C170.386 190.939 169.971 194.051 169.881 197.507C169.823 199.729 170.349 200.575 169.6 200.605C168.604 200.645 169.102 196.448 169.117 195.435C169.258 185.729 168.467 185.349 169.117 184.818C169.784 184.75 169.631 185.228 169.828 186.719Z" fill="#3D4A56"/>
<path d="M167.283 150.854C168.445 156.973 167.691 161.433 162.588 166.42C161.014 167.956 157.552 170.161 155.355 170.239C153.367 170.31 146.916 172.204 140.41 166.425C138.721 164.627 137.389 162.522 136.486 160.221C133.524 152.979 137.299 140.615 149.869 138.053C152.824 137.45 159.03 138.329 162.285 141.976C166.117 146.269 166.491 146.675 167.283 150.854ZM160.56 166.706C166.064 162.238 167.564 157.566 166.174 150.987C165.87 148.181 164.573 145.579 162.52 143.655C160.638 141.51 158.139 140.006 155.37 139.352C152.601 138.698 149.698 138.926 147.063 140.004C129.796 146.169 135.151 173.17 154.996 169.149C157.037 168.86 158.961 168.015 160.56 166.706Z" fill="#3D4A56"/>
<path d="M146.354 164.509C137.436 160.76 139.154 145.978 147.961 143.726C151.417 142.839 154.132 141.967 158.311 144.93C159.629 145.865 160.754 147.047 161.625 148.412C166.834 160.332 155.831 168.495 146.354 164.509ZM160.134 159.822C161.488 158.116 162.306 155.507 161.682 151.973C161.533 150.315 160.79 148.768 159.592 147.62C155.701 141.901 146.371 143.419 143.385 148.347C141.601 151.293 140.667 154.538 142.001 158.078C143.794 162.832 147.084 164.139 151.485 164.547C153.354 164.533 155.184 164.017 156.788 163.054C158.186 162.318 159.347 161.197 160.134 159.822Z" fill="#3D4A56"/>
<path d="M158.775 156.818C158.871 157.03 158.911 157.264 158.891 157.496C158.871 157.728 158.793 157.951 158.662 158.144C158.532 158.337 158.355 158.493 158.148 158.597C157.94 158.701 157.71 158.75 157.478 158.739C156.074 158.773 154.672 158.599 153.318 158.222C151.422 160.615 151.231 161.206 150.344 161.704C150.18 161.817 149.991 161.89 149.793 161.914C149.596 161.939 149.395 161.915 149.209 161.845C149.022 161.775 148.855 161.661 148.722 161.512C148.589 161.363 148.493 161.184 148.443 160.991C147.005 156.23 149.27 158.379 144.367 156.319C144.197 156.247 144.045 156.136 143.925 155.995C143.804 155.854 143.717 155.687 143.671 155.507C143.625 155.327 143.621 155.139 143.659 154.957C143.698 154.775 143.777 154.605 143.892 154.459C144.569 153.631 145.416 152.96 146.375 152.493C147.27 152.04 146.982 151.867 147.7 148.938C148.12 147.228 149.178 146.844 149.864 147.185C154.856 149.662 150.541 149.433 156.259 147.982C157.702 147.616 158.404 148.721 158.043 149.987C157.703 151.173 157.258 152.328 156.83 153.583C158.358 155.858 158.412 155.835 158.775 156.818ZM155.794 153.358C156.07 152.477 157.807 148.585 156.506 148.989C152.076 150.367 152.971 150.558 151.679 149.527C150.992 148.803 150.082 148.334 149.096 148.194C147.789 150.929 148.732 152.514 147.152 153.328C146.171 153.782 145.297 154.437 144.584 155.252C145.12 155.586 144.931 155.674 147.861 156.541C148.884 156.844 148.574 157.028 149.423 160.698C150.892 161.015 151.683 156.611 154.011 157.279C154.937 157.446 157.06 157.816 157.877 157.497C157.872 156.528 155.532 154.196 155.794 153.358Z" fill="#3D4A56"/>
<path d="M153.271 185.574C154.086 187.367 153.495 188.881 153.47 192.489C153.433 197.84 153.694 199.756 153.556 200.449C153.535 200.548 153.48 200.637 153.4 200.698C153.32 200.76 153.221 200.792 153.12 200.787C153.02 200.782 152.924 200.742 152.85 200.673C152.776 200.604 152.729 200.511 152.717 200.41C152.476 196.228 152.493 192.035 152.767 187.856C152.81 186.864 152.599 186.852 152.695 185.575L153.271 185.574Z" fill="#3D4A56"/>
<path d="M147.591 46.4948C147.984 46.6506 148.321 46.9239 148.556 47.2779C148.791 47.6319 148.912 48.0497 148.903 48.4751C148.24 49.0026 148.536 48.9636 147.918 48.282C147.708 47.9799 147.45 47.7141 147.155 47.495C146.184 46.9835 145.109 46.7037 144.014 46.6774C141.998 46.6246 141.26 48.0552 139.79 49.8656C138.039 52.023 136.282 50.7096 133.915 50.0481C132.101 49.5385 131.396 50.5123 130.379 50.8921C129.637 51.1685 129.446 50.2243 129.915 49.892C132.37 48.1544 134.31 48.5985 136.956 49.7791C140.045 51.1558 139.307 43.0207 147.591 46.4948Z" fill="#3D4A56"/>
<path d="M140.143 23.2047C140.233 23.4094 140.42 23.6489 140.416 23.8578C140.417 24.8013 140.35 25.7436 140.218 26.6778C139.894 28.0874 139.128 29.3546 138.031 30.2918C136.935 31.2289 135.568 31.7862 134.132 31.881C128.401 32.3589 129.811 32.8928 128.686 35.218C128.29 36.0174 128.127 36.913 128.215 37.8017C128.228 38.2105 128.152 38.6173 127.992 38.9935C127.832 39.3696 127.592 39.706 127.289 39.9789C126.986 40.2519 126.627 40.4549 126.238 40.5736C125.849 40.6923 125.438 40.7238 125.035 40.666C124.062 40.467 123.049 40.6473 122.202 41.1703C122.062 41.1412 121.935 41.0666 121.841 40.9581C121.747 40.8496 121.691 40.713 121.682 40.5694C121.672 40.4258 121.71 40.283 121.789 40.1628C121.867 40.0427 121.983 39.9519 122.118 39.9043C124.019 38.881 125.342 39.6828 126.257 39.2977C127.689 38.6963 126.168 37.8988 127.831 34.2337C128.269 33.2662 128.049 32.6238 128.916 31.9981C130.586 30.7923 132.715 30.9368 134.83 30.6266C136.031 30.4475 137.133 29.8567 137.951 28.9543C138.768 28.0519 139.25 26.8933 139.316 25.6745C139.412 23.9116 139.259 23.3609 140.143 23.2047Z" fill="#3D4A56"/>
<path d="M134.982 185.275L135.589 185.376C135.589 187.404 135.367 188.146 135.408 189.49C135.493 190.484 135.456 191.485 135.296 192.469C135.102 193.358 135.871 193.348 135.459 195.691C135.419 195.914 135.514 198.012 135.518 198.093C135.623 199.847 136.005 200.72 135.268 200.779C134.882 200.81 134.812 200.513 134.789 200.214C134.532 196.829 134.612 197.267 134.568 197.064C134.263 195.965 134.803 194.869 134.601 194.045C134.407 193.2 134.385 192.324 134.535 191.47C134.615 190.976 134.396 186.724 134.982 185.275Z" fill="#3D4A56"/>
<path d="M125.6 6.77413C124.544 5.79403 123.391 6.3152 122.429 6.82793C114.245 11.184 122.504 18.2884 116.998 21.7889C115.893 22.4915 116.639 21.8743 110.945 24.7861C110.802 24.8586 110.679 24.9673 110.59 25.1015C110.501 25.2358 110.447 25.391 110.435 25.5521C110.306 26.3325 110.232 27.1212 110.214 27.9121C110.198 29.3448 112.395 31.784 109.293 33.8201C108.201 34.5386 107.47 34.8097 107.468 36.2287C107.485 36.5144 107.417 36.7987 107.273 37.0455C107.129 37.2924 106.915 37.4906 106.659 37.6149C105.804 37.3354 105.89 37.5242 106.458 35.2359C107.025 32.9476 110.62 32.6195 109.69 30.4431C108.582 27.8499 108.991 28.562 109.166 25.838C109.307 23.69 111.11 23.1583 115.685 21.2055C120.956 18.9552 114.677 13.3921 119.165 8.27328C123.552 3.27047 127.25 5.80247 125.6 6.77413Z" fill="#3D4A56"/>
<path d="M123.227 51.7521C123.251 57.2971 84.5772 55.3844 83.7892 50.139C83.678 49.4005 84.3065 48.9036 84.956 48.5417C85.4156 48.2864 85.6191 48.4172 85.8069 49.0333C85.682 49.1538 85.5472 49.2636 85.404 49.3614C83.6874 50.3616 86.2749 51.4714 89.4416 52.2036C100.644 54.7862 124.771 54.3822 122.014 51.2741C121.804 51.0378 121.023 50.8247 121.3 50.2392C121.486 49.8995 121.788 49.9881 122.223 50.2149C122.528 50.3362 122.787 50.5489 122.967 50.824C123.146 51.0991 123.237 51.4232 123.227 51.7521Z" fill="#3D4A56"/>
<path d="M90.1257 49.0995C101.067 47.9084 119.703 49.6671 119.182 51.487C119.083 51.8319 118.762 51.9512 118.342 51.7697C113.975 49.8517 90.4782 48.7461 87.8782 50.7073C87.0545 51.3329 85.9381 49.5542 90.1257 49.0995Z" fill="#3D4A56"/>
<path d="M117.066 168.815C117.188 187.399 118.075 176.47 117.627 192.543C117.547 195.413 117.587 195.72 116.626 195.636C116.2 193.631 117.228 192.204 116.458 180.559C116.046 174.334 116.179 154.467 116.226 152.149C116.261 150.432 116.646 150.048 116.246 148.013C115.563 144.52 116.246 143.2 116.351 139.467C116.588 131.263 115.931 133.891 116.351 128.107C116.918 120.349 115.867 120.776 117.235 120.951C117.836 127.657 117.387 123.739 117.098 131.229C117.031 132.957 117.495 132.589 117.372 137.348C117.207 143.726 116.507 144.627 117.277 148.387C117.478 149.37 116.938 153.688 117.206 161.52C117.231 162.176 117.048 166.182 117.066 168.815Z" fill="#3D4A56"/>
<path d="M113.569 70.078C113.972 80.5573 102.607 86.8461 93.7484 79.6531C90.7686 77.233 88.3049 70.0664 92.3939 64.2744C95.1345 60.3931 98.1238 59.5048 102.186 59.5048C104.902 59.5216 107.525 60.499 109.596 62.2657C110.844 63.1419 111.858 64.3123 112.55 65.6743C113.243 67.0363 113.593 68.5484 113.569 70.078ZM112.593 70.2721C112.538 68.1636 111.79 66.1328 110.467 64.496C108.113 62.2045 106.238 60.6368 101.081 60.5661C89.82 60.4121 86.0217 80.2714 101.572 81.7347C103.384 81.5838 105.501 81.9267 108.532 79.3356C111.716 76.6126 112.366 73.9182 112.589 70.2721H112.593Z" fill="#3D4A56"/>
<path d="M101.441 63.0283C105.655 63.2593 105.9 63.2941 105.86 64.3808C105.336 78.3965 105.838 78.6971 104.46 78.656C99.1367 78.4946 99.248 78.6222 99.2773 77.6537C99.4001 73.6236 99.4673 75.8761 99.4673 70.8659C98.5838 71.4081 98.2806 71.7552 97.6625 71.1908C96.7763 70.2622 96.0652 69.1794 95.564 67.9952C95.4824 67.8306 95.4648 67.6413 95.5146 67.4643C95.5645 67.2873 95.6783 67.1354 95.8337 67.0383C100.98 62.8711 100.733 62.9892 101.441 63.0283ZM104.539 77.5873L104.906 64.3544C104.164 64.1149 105.162 64.289 101.898 64.021C100.99 63.9472 100.617 64.1265 96.5157 67.6956C96.9396 68.7028 97.5483 69.6209 98.3099 70.4017C99.3109 69.8446 100.342 69.0049 100.533 70.0915C100.533 70.12 100.236 77.5556 100.234 77.582L104.539 77.5873Z" fill="#3D4A56"/>
<path d="M102.267 106.115C100.483 106.364 98.6669 106.212 96.9486 105.669C96.6416 105.545 96.3548 105.375 96.0977 105.165C96.6412 104.146 96.2026 104.5 97.6443 104.775C101.168 105.445 99.9526 105.35 103.511 104.88C104.958 104.485 105.124 106.058 102.267 106.115Z" fill="#3D4A56"/>
<path d="M100.445 121.285C100.759 123.436 100.817 125.618 100.618 127.783C100.49 128.6 100.584 137.336 100.551 139.271C100.411 140.803 100.356 142.342 100.386 143.879C100.64 146.489 100.626 149.118 100.346 151.724C100.218 162.9 100.595 159.158 100.472 196.759C100.472 197.806 100.997 198.334 100.114 198.487C99.2873 198.171 99.5013 198.454 99.5653 187.436C99.7605 154.111 99.1058 153.244 99.4216 151.112C100.051 146.892 99.1362 142.919 99.4688 140.569C99.8056 138.178 99.5307 131.1 99.579 128.682C99.601 127.559 99.8234 126.434 99.8413 125.306C99.8654 123.829 99.6608 123.069 99.6608 121.32L100.445 121.285Z" fill="#3D4A56"/>
<path d="M91.9704 35.5612C93.1865 36.3324 92.7616 38.6112 91.7081 37.5056C91.7543 35.8017 89.3672 36.2923 89.6096 34.4946C89.9496 32.027 90.704 31.6883 88.8006 30.4961C87.7314 29.8252 86.3601 29.6722 86.466 27.7099C86.5416 26.3015 87.3191 25.0439 88.3411 23.0679C88.8919 22.0034 88.5404 22.0129 85.6896 19.5642C83.5848 17.7528 81.8472 17.0185 85.4178 12.2921C85.6948 11.9414 85.8797 11.5264 85.9558 11.0851C86.0319 10.6439 85.9966 10.1905 85.8533 9.76651C85.7099 9.34251 85.4631 8.96145 85.1353 8.65824C84.8076 8.35503 84.4094 8.13936 83.9772 8.03098C83.4253 7.91071 83.3141 7.80837 83.4337 7.18698C85.7494 6.01698 88.4701 10.5377 86.2006 13.1456C85.5135 13.9091 84.9792 14.7985 84.6267 15.7652C84.4595 16.0484 84.4098 16.3864 84.4883 16.7062C84.5668 17.026 84.7673 17.3019 85.0464 17.4743C90.1353 21.784 90.6284 20.9948 88.3222 25.7423C87.3401 27.7648 87.2184 28.4663 88.6852 29.1595C91.7931 30.627 91.2632 32.0481 90.6515 34.7246L91.9704 35.5612Z" fill="#3D4A56"/>
<path d="M78.4062 42.1489C79.1323 42.3969 78.8144 43.4962 78.1061 43.2757C75.8051 42.5593 75.5061 42.4053 75.3634 41.2047C75.1158 39.1148 67.5338 39.3479 67.5653 36.1407C67.6293 29.6725 71.7172 29.2832 62.6622 27.2397C60.5017 26.7512 59.5469 26.3176 58.9373 23.9386C58.5952 22.6051 58.6487 20.1469 59.6949 19.2734C60.0778 18.9569 61.0956 19.4569 60.358 20.1279C59.6791 20.7462 59.3706 22.9142 60.4283 24.8322C61.0652 25.9842 62.0567 25.7901 64.2686 26.4358C68.2883 27.6089 70.4036 27.8663 69.5085 31.6812C68.1214 37.5892 67.9347 36.5089 74.44 38.9259C75.4431 39.2994 76.3392 39.4977 76.3738 40.5327C76.4147 41.767 77.166 41.7259 78.4062 42.1489Z" fill="#3D4A56"/>
<path d="M74.3267 185.997C74.3267 186.825 74.2217 187.654 74.2364 188.482C74.4305 190.406 74.4452 192.344 74.2805 194.27C74.1231 197.78 74.8576 200.027 73.9657 199.958C73.4778 199.92 73.4925 199.546 73.4086 197.882C73.4086 197.793 73.2805 165.145 73.3036 165.058C73.5806 164.103 72.7905 163.353 73.1599 158.878C73.2155 158.202 73.6436 158.132 73.8073 158.878C74.1336 160.36 74.3214 165.912 74.3267 185.997Z" fill="#3D4A56"/>
<path d="M69.6003 51.1505C70.6212 51.3615 70.3914 52.4302 69.4387 52.3933C66.0957 52.2625 65.4788 52.0937 63.2963 52.7467C61.0037 53.4314 59.8338 53.6372 58.7048 52.4302C57.4583 51.0988 57.0113 49.8381 54.6074 50.3202C52.6034 50.7169 51.4838 53.2679 50.6108 51.984C50.2415 51.4417 50.2961 51.14 50.8647 50.718C51.6842 51.2001 51.1292 51.1832 52.8888 49.9309C53.6753 49.2985 54.6684 48.9841 55.6734 49.0495C56.6784 49.1149 57.6229 49.5553 58.3218 50.2844C59.3165 51.3151 59.7698 52.4039 61.2723 52.0399C63.8126 51.4238 64.525 50.9532 66.4472 51.0397C67.4995 50.9931 68.5538 51.0302 69.6003 51.1505Z" fill="#3D4A56"/>
<path d="M64.9172 125.607C64.9308 127.779 64.4966 129.931 63.6421 131.926C62.7875 133.921 61.5311 135.717 59.9521 137.199C58.2114 138.941 54.6807 141.295 52.3513 141.363C50.2475 141.425 43.9184 143.287 37.4078 137.542C35.7164 135.747 34.3854 133.641 33.4878 131.339C30.4575 123.884 34.6147 111.833 46.4534 109.272C50.0671 108.492 56.1139 109.561 59.3026 113.116C64.1156 118.477 63.6644 118.21 64.9172 125.607ZM57.2839 138.028C62.5364 134.042 64.7031 129.336 63.1796 122.112C62.8755 119.283 61.5641 116.66 59.4873 114.727C47.3002 101.998 26.036 118.079 36.3449 134.492C37.26 136.06 38.565 137.361 40.1317 138.269C43.5166 140.115 46.4576 141.446 52.0113 140.273C53.9331 139.999 55.7503 139.225 57.2839 138.028Z" fill="#3D4A56"/>
<path d="M43.2085 135.559C34.4839 131.719 36.2026 117.097 44.9765 114.846C48.4264 113.962 51.1566 113.095 55.3232 116.054C56.6415 116.988 57.7671 118.171 58.6378 119.536C63.8704 131.473 52.7116 139.742 43.2085 135.559ZM57.1405 130.949C61.6617 125.241 57.2853 114.596 48.8744 115.018C36.1711 115.643 33.8292 134.298 48.4841 135.68C50.3527 135.67 52.1842 135.155 53.7871 134.19C55.1877 133.451 56.3507 132.327 57.1405 130.949Z" fill="#3D4A56"/>
<path d="M57.3029 193.159C57.3588 194.205 57.3419 195.253 57.2526 196.296C57.3481 198.141 57.6796 201.165 56.4509 199.73C56.3397 199.602 56.432 192.677 56.2411 189.813C55.942 185.35 56.4006 185.73 56.2799 182.162C56.0291 174.71 56.0596 179.102 56.4509 172.163C56.4509 172.002 56.2998 167.45 56.5328 164.567C56.5831 163.934 56.2589 161.191 56.4278 159.353C56.5254 158.287 57.1413 158.877 57.1749 159.439C57.4992 165.566 57.469 171.707 57.0847 177.831C57.0543 179.633 57.2379 181.437 57.2442 183.241C57.2442 184.52 57.0941 185.802 57.0731 187.084C57.0543 188.279 57.2631 190.226 57.2631 190.298C57.1955 191.251 57.2088 192.208 57.3029 193.159Z" fill="#3D4A56"/>
<path d="M55.301 126.905C56.4489 128.709 55.7428 129.799 54.4407 129.867C48.6918 130.166 51.8773 127.44 48.2207 132.101C47.2407 133.353 45.9301 133.228 45.4496 132.191C45.0407 131.063 44.801 129.879 44.7382 128.68C43.6228 128.302 42.6512 128.011 41.4855 127.494C40.1928 126.92 40.1278 125.287 43.2115 123.696C44.3153 123.125 43.9743 122.958 44.692 120.072C45.1338 118.297 46.1883 117.975 46.844 118.294C51.8805 120.749 47.5334 120.536 53.2393 119.102C54.662 118.743 55.3304 119.751 55.0775 121.032C54.0419 126.268 52.6275 122.701 55.301 126.905ZM54.8719 128.604C54.3735 126.738 52.3673 125.504 52.8919 124.035C53.5343 122.855 53.9024 121.543 53.9685 120.2C53.8158 120.146 53.6548 120.121 53.4932 120.124C52.5598 120.318 51.649 120.609 50.7756 120.993C48.7474 122.086 48.6456 119.549 46.1347 119.312C45.5692 120.535 45.7455 119.571 45.1673 122.98C44.8347 124.938 42.4393 124.827 41.5894 126.379C44.1569 127.934 45.6017 127.081 45.8651 129.083C46.4569 133.575 46.8566 131.956 49.1178 129.056C50.0033 127.919 50.6014 128.362 54.2109 128.778C54.4405 128.761 54.6652 128.702 54.874 128.604H54.8719Z" fill="#3D4A56"/>
<path d="M40.1889 160.711C40.2813 163.234 40.6664 161.311 40.4103 164.864C40.3568 165.608 40.4701 198.096 40.3705 199.379C40.3369 199.809 39.6465 200.188 39.487 199.454C39.1061 197.698 39.5573 167.215 39.5195 167.106C38.9771 165.491 39.9602 164.169 39.3737 162.065C39.2088 160.994 39.2088 159.903 39.3737 158.832C39.3903 158.735 39.4413 158.648 39.5173 158.586C39.5933 158.525 39.6891 158.493 39.7866 158.497C39.8842 158.501 39.9769 158.541 40.0475 158.609C40.1181 158.677 40.1616 158.768 40.1701 158.866C40.2047 159.232 40.1606 159.832 40.1889 160.711Z" fill="#3D4A56"/>
</svg>
