<svg width="211" height="211" viewBox="0 0 211 211" fill="none" xmlns="http://www.w3.org/2000/svg">
<path d="M64.507 30.3697C63.1262 30.3844 61.7464 30.5258 60.8598 30.5553C60.1736 30.5775 34.7428 30.741 22.8064 32.1442C18.0848 32.6907 12.1921 34.2267 10.4336 34.3776C11.1267 36.0336 11.3798 37.8423 11.1681 39.6262C11.1681 39.7317 10.0517 39.5344 25.4516 38.9574C35.8455 38.5586 45.9782 38.5596 56.4707 38.4974C59.1138 38.4826 62.037 38.7084 64.4734 37.9636C65.4196 37.703 66.2952 37.2314 67.0351 36.5837C67.775 35.936 68.3601 35.129 68.747 34.2225C70.2254 30.9193 67.362 30.3549 64.507 30.3697Z" fill="#E2F9FE"/>
<path d="M133.38 62.0192L133.129 61.6035C124.14 58.4388 116.574 52.1433 111.802 43.8563C110.493 44.3506 109.279 45.0687 108.214 45.979C105.468 47.956 103.523 50.8629 102.737 54.1658C102.174 56.7157 102.632 60.0558 102.346 62.8052C101.965 66.5462 100.778 69.6479 102.227 73.4343C103.914 77.8874 106.954 81.6927 110.915 84.3092C111.525 87.5397 111.865 90.0062 110.547 93.089L110.082 93.2525C110.557 94.8269 111.339 96.2906 112.382 97.5584C113.425 98.8262 114.708 99.8729 116.157 100.637L116.472 100.705C121.376 100.705 126.704 94.2357 129.626 91.2627C130.062 90.8256 130.473 90.3649 130.859 89.8828L130.387 89.5663C130.474 87.0997 131.686 77.0319 132.623 74.1728C133.007 73.6527 135.443 73.6158 136.115 73.3193C138.469 72.2949 139.422 69.7713 139.644 67.463C140.221 61.6362 136.251 59.2161 133.38 62.0192Z" fill="#FCE0D1"/>
<path d="M192.927 79.1584C193.676 81.319 195.777 84.0051 196.242 86.1499L196.19 86.3356C196.175 86.3282 196.153 86.3282 196.131 86.3208C194.543 86.164 192.941 86.2036 191.362 86.4389C189.938 86.5139 187.165 86.1573 185.397 86.6616C183.921 83.6632 183.53 79.573 180.256 77.6065C178.33 76.446 175.753 77.2742 173.605 76.9017C171.139 76.4734 170.677 74.6356 169.39 72.9898C168.786 72.2175 167.881 71.4421 167.711 70.4736C167.662 70.1852 167.674 69.8895 167.745 69.6058C167.816 69.322 167.945 69.0563 168.125 68.8257L167.638 68.4037C166.789 67.7025 166.251 66.6911 166.143 65.5917C166.035 64.4923 166.366 63.3947 167.062 62.54C168.029 61.4935 169.491 60.9892 170.634 60.1357C171.47 59.3776 172.391 58.7221 173.38 58.1829C174.002 57.918 174.669 57.7768 175.345 57.7672C175.947 57.936 176.537 58.1502 177.123 58.3686C178.229 58.78 179.326 58.3021 180.474 58.4276C184.881 58.9119 187.11 65.4719 189.183 69.5621C190.002 71.1731 191.097 72.7007 191.76 74.3719C192.375 75.9206 192.386 77.5928 192.927 79.1584Z" fill="#FCE0D1"/>
<path d="M116.568 73.0266C117.906 73.781 117.055 76.5155 116.539 77.5325C114.582 81.3844 110.892 75.1198 110.116 73.1459C111.186 72.9454 115.604 72.4791 116.568 73.0266Z" fill="white"/>
<path d="M122.935 126.852C124.207 121.412 121.642 112.532 121.701 110.695C117.596 110.443 115.921 104.576 116.519 101.254L116.235 101.209C114.871 103.406 112.094 109.597 108.904 108.929C108.107 110.442 107.429 112.015 106.875 113.634C105.638 117.16 104.38 121.269 105.103 124.984C105.633 127.582 107.178 128.197 109.021 128.535C108.814 129.411 108.662 130.3 108.565 131.196C108.337 133.11 108.137 135.968 109.658 137.519C110.917 138.804 113.622 138.135 115.312 138.558C117.077 138.989 118.738 140.6 120.598 140.556C121.284 140.474 121.937 140.216 122.494 139.806C123.051 139.397 123.494 138.85 123.779 138.218C125.285 135.5 123.685 129.794 122.935 126.852Z" fill="#8DE3A7"/>
<path d="M135.091 91.8346C134.606 89.2077 135.652 86.1788 132.595 84.8136C132.032 84.6456 131.449 84.5554 130.861 84.5457C130.61 86.6462 130.418 88.5241 130.381 89.5632L130.854 89.8797C130.467 90.3613 130.056 90.822 129.621 91.2597C127.195 93.7104 121.843 100.286 116.892 100.683C116.723 100.72 116.547 100.723 116.377 100.69C116.206 100.658 116.044 100.592 115.9 100.495C113.098 98.9313 111.011 96.3328 110.08 93.2494L110.545 93.0859C111.325 91.3002 111.615 89.337 111.385 87.4005C110.57 87.3121 109.747 87.4454 109.001 87.7866C107.941 88.2719 108.011 88.3057 108.011 88.3057C106.255 92.9677 104.716 98.9274 104.682 102.639C104.676 103.366 104.704 104.086 104.763 104.798L104.947 104.784C105.693 106.031 107.377 108.582 108.86 108.918C108.875 108.918 108.882 108.926 108.897 108.926C112.087 109.593 114.862 103.403 116.228 101.206L116.516 101.251C115.917 104.576 117.593 110.44 121.698 110.692C122.194 110.721 122.691 110.676 123.174 110.559C127.266 109.576 130.819 105.613 133.686 102.757C134.96 101.491 137.07 99.5087 137.495 97.6065C138.018 95.2761 135.507 94.0923 135.091 91.8346Z" fill="#E2F9FE"/>
<path d="M146.747 82.1264C145.854 77.9697 144.518 73.7919 144.348 69.5149C144.2 65.7897 146.039 62.4464 145.949 58.7381C145.645 45.6962 132.82 34.2114 120.784 34.8381C117.935 35.0755 115.44 36.352 112.687 36.9017C109.859 37.4651 107.441 36.9755 104.706 38.4378C97.9911 42.0374 93.6556 49.7716 92.194 57.0532C90.3263 66.3531 92.046 75.9135 89.9716 85.2291C88.2729 92.9085 85.3864 100.963 88.2194 108.77C88.9257 110.736 90.026 112.535 91.4521 114.055C91.97 114.748 92.7179 115.231 93.5601 115.417C94.9755 115.463 94.4436 112.238 94.623 108.863C94.645 108.507 94.6083 107.408 95.0427 107.223C95.9398 106.829 96.5463 113.394 100.335 115.373C100.965 115.699 102.093 116.063 102.602 115.335C103.457 114.135 101.933 111.087 102.262 110.587C102.351 110.446 102.845 110.904 102.919 110.966C103.392 111.336 104.493 112.175 104.985 111.396C105.478 110.618 105.195 109.318 105.119 108.472C104.871 106.536 104.725 104.589 104.683 102.638C104.709 99.3925 106.047 93.5035 108.007 88.3224C108.988 87.6204 110.186 87.2931 111.386 87.3993C111.375 87.2938 111.041 84.3936 110.936 84.3303C106.967 81.706 103.92 77.8925 102.227 73.43C100.778 69.6436 101.961 66.5725 102.346 62.8009C102.627 60.1148 102.167 56.7388 102.737 54.1615C103.523 50.8586 105.468 47.9517 108.214 45.9747C109.284 45.0711 110.496 44.3537 111.801 43.852C116.575 52.1387 124.14 58.4351 133.128 61.6035L133.378 62.0191C136.263 59.2044 140.217 61.6573 139.638 67.4598C139.417 69.7681 138.464 72.2917 136.11 73.3161C135.438 73.6125 133.002 73.6494 132.618 74.1696C131.803 77.5851 131.217 81.0514 130.861 84.5455C131.449 84.5553 132.032 84.6454 132.596 84.8134C135.652 86.1786 134.611 89.2075 135.091 91.8345C135.51 94.0911 137.999 95.2717 137.498 97.6096L138.288 97.906C140.292 98.4624 142.347 98.8106 144.422 98.9452L144.444 98.6118C148.629 95.1672 147.559 85.8896 146.747 82.1264Z" fill="#FAD353"/>
<path d="M143.965 193.871C143.16 194.61 143.242 196.654 142.776 197.679C141.622 200.211 138.177 201.539 135.838 201.909C132.132 202.497 128.256 201.99 124.528 201.984C119.316 201.974 114.112 202.315 108.894 202.3C104.31 202.29 98.4673 202.655 94.2262 200.378C92.3648 199.379 93.3123 197.067 91.9451 196.029C91.3155 195.553 90.5129 196.466 90.0774 196.867C88.8288 198.017 87.4627 198.674 86.32 196.957C83.0673 192.068 86.8447 186.221 87.7155 181.459C88.513 177.117 87.938 172.589 88.1583 168.202C88.3808 163.771 89.4626 159.445 89.6126 155.014C89.7721 150.293 86.6222 146.879 85.0798 142.678C83.5875 138.448 83.4506 133.853 84.6884 129.54L84.5478 129.496C77.0981 132.124 66.4765 135.24 59.7959 139.709C54.9378 142.96 48.7231 149.241 42.3971 147.918C37.8937 146.977 37.0869 141.767 35.5906 138.032C34.0944 134.297 32.0158 130.781 31.3936 126.706C30.6686 121.985 31.7587 117.546 31.785 112.855C31.7986 110.405 30.4881 106.308 31.5185 103.74C32.105 102.547 33.1973 102.428 34.5088 102.175C37.1823 101.657 39.8831 101.233 42.5776 100.867C43.2376 100.772 43.9049 100.737 44.5712 100.762C45.08 100.782 45.5626 100.994 45.9226 101.356C48.6507 104.161 46.7022 110 48.8312 113.383C49.615 114.629 50.425 115.796 51.2077 116.946C53.081 114.118 55.8047 111.967 58.9806 110.808C61.8661 109.811 65.1712 109.775 67.7944 108.113C72.2443 105.291 73.4761 99.5593 77.841 96.6232C81.2207 94.3497 84.0788 95.0492 87.7103 95.1093C86.8562 99.6659 86.5897 104.266 88.2202 108.771C88.9234 110.738 90.0241 112.537 91.453 114.055C91.9695 114.749 92.7181 115.233 93.561 115.417C94.9879 115.466 94.4339 112.16 94.6238 108.863C94.6438 108.507 94.6092 107.411 95.0436 107.223C95.9585 106.827 96.5125 113.379 100.336 115.373C100.966 115.7 102.09 116.061 102.602 115.335C103.442 114.144 101.938 111.096 102.262 110.587C102.354 110.447 102.846 110.904 102.92 110.966C103.39 111.339 104.494 112.182 104.986 111.396C105.616 110.387 105.034 108.845 104.765 104.797L104.95 104.783C105.696 106.03 107.379 108.581 108.862 108.917C108.877 108.917 108.884 108.925 108.899 108.925L108.884 108.991C108.085 110.479 107.412 112.032 106.87 113.633C105.674 117.034 104.366 121.312 105.098 124.983C105.622 127.627 107.223 128.218 109.106 128.553C108.88 129.422 108.698 130.303 108.56 131.19C108.327 133.105 108.133 135.962 109.652 137.514C110.911 138.798 113.615 138.135 115.307 138.553C117.07 138.989 118.733 140.596 120.593 140.55C121.278 140.468 121.931 140.21 122.488 139.8C123.045 139.391 123.488 138.844 123.774 138.212C125.311 135.432 123.723 130.033 122.992 127.153L122.873 127.123C124.296 121.697 121.639 112.564 121.7 110.69C122.196 110.719 122.693 110.674 123.176 110.557C127.268 109.573 130.821 105.611 133.688 102.755C135.011 101.438 137.045 99.5371 137.497 97.6044C139.159 98.254 140.909 98.6453 142.687 98.7649C150.077 99.7334 155.722 97.8892 162.478 100.992C164.4 101.875 166.066 103.441 168.096 104.087C170.097 104.72 172.34 104.036 174.391 104.124C176.448 104.213 178.453 104.799 180.236 105.834C182.018 106.87 183.526 108.322 184.63 110.069C185.173 108.221 185.568 106.332 185.812 104.421C186.077 102.192 184.698 100.494 184.468 98.3418C184.259 96.3458 185.277 94.7358 184.778 92.6786C184.463 91.3947 183.021 88.2286 184.35 87.1567C185.787 85.9962 189.481 86.5237 191.363 86.4288C192.942 86.1935 194.544 86.1538 196.132 86.3106C196.154 86.318 196.176 86.318 196.191 86.3254C197.711 86.6661 198.106 88.1358 198.289 89.5389C198.665 92.4402 198.204 94.9817 199.507 97.7109C200.634 99.6596 201.595 101.701 202.379 103.812C203.077 106.285 203.046 108.876 203.803 111.346C205.136 115.687 206.797 121.229 203.508 125.174C201.075 128.094 196.539 128.928 192.989 129.271C178.601 130.661 163.476 123.928 149.524 129.234L149.629 129.509L147.569 137.362C146.186 142.653 142.945 149.416 144.218 155.034C144.763 157.44 146.512 159.288 147.009 161.692C147.429 163.719 145.922 165.441 146.226 167.378C146.549 169.441 148.887 171.081 149.57 173.146C150.534 176.061 149.675 179.083 150.293 182.022C150.913 184.992 154.02 189.444 152.131 192.481C151.292 193.824 148.581 195.575 147.127 195.212C146.438 195.036 144.578 193.307 143.965 193.871Z" fill="#7ED6ED"/>
<path d="M67.4031 40.6124C69.3232 40.6989 71.4406 40.6282 72.5633 41.756C73.4384 42.6348 74.5863 45.9053 73.7175 47.0553C73.2894 47.6197 72.3136 47.5374 71.9684 48.1831C71.6347 48.8066 72.5644 49.1188 72.4773 49.6759C72.3493 50.4988 71.3231 50.848 71.3231 51.8281C71.3231 53.0825 72.3063 52.5666 72.8802 53.2903C73.2947 53.8178 73.1593 55.3043 73.1593 55.9352L71.7806 55.7094C67.5924 55.2707 63.3764 55.1649 59.1717 55.3929C43.692 55.721 28.3236 56.4258 12.8869 57.5894C11.1661 57.7192 8.86406 57.7308 7.4612 58.9926L7.30591 58.7109C6.49484 58.3132 5.53792 54.0794 6.48644 52.0085C6.67846 51.6519 7.44442 51.2879 7.42448 50.848C7.40035 50.3363 6.57248 49.8616 6.413 49.3267C5.94923 47.7769 6.28709 43.5242 7.96275 42.7424C9.06342 42.2297 10.9815 42.4618 12.1933 42.3943C18.5781 42.0387 27.7076 40.3296 45.2449 40.0859C53.2917 39.973 59.3773 40.2505 67.4031 40.6124ZM38.5979 52.1467C40.432 52.7227 47.4116 49.3414 49.6046 48.7032V48.6589C43.6333 48.4479 37.643 48.4479 31.6623 48.547V48.5956C33.8335 50.0386 36.1602 51.2299 38.5979 52.1467Z" fill="#E2F9FE"/>
<path d="M60.1843 57.4912C53.4082 57.6126 46.6604 58.3046 39.9064 58.7087C32.9204 59.1307 17.4838 59.6086 11.6992 60.3271C10.0204 60.5381 8.45492 61.0761 8.78334 63.1323C8.83461 63.4787 8.94089 63.8146 9.09812 64.1272L9.30797 64.7359C8.80349 64.8097 8.33131 65.0296 7.94918 65.3689C7.78306 65.5434 7.64595 65.7436 7.54312 65.9618C7.18112 65.8067 6.89678 64.9511 6.77611 64.6557C6.4088 63.8622 6.2308 62.9933 6.25631 62.1184C6.28181 61.2435 6.5101 60.3866 6.92301 59.616C8.16008 57.7603 10.7937 57.7455 12.888 57.5872C28.3289 56.4267 43.6931 55.7188 59.1728 55.3907C63.3775 55.1601 67.5937 55.2659 71.7817 55.7072C72.4113 55.7958 75.1204 56.0121 75.2369 57.0218C75.2736 57.3478 74.6157 57.391 74.4395 57.4005C73.5424 57.4469 72.5508 57.3857 71.7744 57.3699C67.9131 57.2971 64.0455 57.4216 60.1843 57.4912Z" fill="#8DE3A7"/>
<path d="M57.852 81.139C56.6953 80.562 55.61 79.8507 54.6182 79.0195L54.6255 78.7526C57.2025 78.7895 59.7669 78.8707 62.348 78.9298V79.0416C61.4247 79.5132 58.3535 81.1938 57.852 81.139Z" fill="#FFA698"/>
<path d="M56.465 34.193C55.2321 34.7564 51.5125 37.0795 50.7077 36.9466C49.4486 36.7356 48.2756 35.7143 47.2085 35.0761C46.9073 34.8957 46.3449 34.3861 45.983 34.3777L45.9683 34.0369C47.9671 33.9926 51.8441 33.7204 56.4724 33.7921L56.465 34.193Z" fill="#8DE3A7"/>
<path d="M54.6164 79.0196C55.6081 79.8519 56.6934 80.5643 57.8502 81.1423C58.3518 81.1971 61.4229 79.5165 62.3463 79.0417V78.9299C59.7693 78.8708 57.2049 78.7896 54.6237 78.7527L54.6164 79.0196ZM46.3713 83.7998C41.8092 83.9053 9.40921 84.6638 8.81848 84.6681C8.50895 84.6681 7.69053 85.0837 7.68214 84.7736C7.66325 84.1205 7.43451 83.5846 7.75558 82.9801C8.00321 82.518 8.74293 82.0896 8.67893 81.5031C8.60128 80.7983 7.42927 80.7466 7.1722 80.1073C6.80076 79.181 7.31175 77.9477 7.32014 76.9824C7.32644 76.2629 6.92877 75.5423 6.99592 74.8376C7.08301 73.9092 8.55722 73.5315 8.55302 72.6928C8.55302 72.2475 7.60029 71.7053 7.39884 71.2601C6.84174 69.5291 6.89099 67.6586 7.53839 65.9597C7.64122 65.7415 7.77833 65.5413 7.94445 65.3668C8.32816 65.03 8.79958 64.8104 9.30324 64.7338C16.2766 63.6303 63.4553 64.0576 66.3953 64.0428C68.1609 63.9807 69.9284 64.0867 71.6741 64.3593C73.2312 64.7381 72.4023 67.192 72.5073 68.612C72.6969 69.3987 72.7544 70.2117 72.6772 71.0174C72.4779 71.7074 71.3814 72.1231 71.3415 72.8204C71.3069 73.4144 72.6006 73.8385 72.8399 74.3797C73.3393 75.5159 72.7801 77.0731 72.5818 78.2241C72.396 79.3002 72.7192 82.3777 71.7329 83.0929C70.4969 83.9971 69.0479 83.2913 46.3713 83.7966V83.7998ZM27.9674 77.1638C28.3745 77.2198 38.1106 71.0923 41.6612 68.9475V68.7365C34.1727 68.7249 23.2311 68.8061 15.7446 69.4043L15.7593 69.6491C17.2272 70.4804 27.2308 77.0583 27.9674 77.1607V77.1638Z" fill="#E2F9FE"/>
<path d="M31.6655 48.5468C37.6463 48.4413 43.627 48.4508 49.6078 48.6586V48.7029C47.4159 49.3359 40.4352 52.7225 38.6011 52.1464C36.9352 51.5816 35.3421 50.8195 33.8553 49.8761C31.4903 48.4487 31.6781 48.6533 31.6655 48.5468Z" fill="#FAD353"/>
<path d="M57.1637 84.2946C53.8176 84.3305 52.9299 87.1874 50.5639 88.1243C50.3204 88.2213 50.077 88.31 49.8294 88.3922L49.7706 88.2287C47.8369 88.4144 46.8327 86.834 46.4634 85.2072C46.3889 84.8812 46.1759 84.109 46.3752 83.7977C32.6887 84.0868 27.6376 84.1533 23.5718 84.2651L23.5865 84.7472C23.1174 84.684 22.6422 84.8043 22.2589 85.0833C21.8756 85.3623 21.6135 85.7787 21.5268 86.2464C21.3012 87.429 22.554 88.1454 23.3283 88.5104C25.9662 89.7532 28.6397 89.8576 30.1863 92.6523C31.6289 95.7679 32.6522 99.0628 33.2291 102.45C34.5396 102.07 40.3892 101.164 42.5748 100.868C44.7604 100.571 44.5485 100.944 44.5821 100.608C45.0248 100.697 44.7069 99.7841 44.8968 99.4128C46.6082 96.1201 50.0204 96.9314 52.3004 95.4491C54.2698 94.1694 54.7 91.6564 56.1176 89.979C57.1144 88.7995 58.938 88.4503 59.8529 87.2919C60.7364 86.1704 59.4668 84.2693 57.1637 84.2946Z" fill="#FCE0D1"/>
<path d="M41.6623 68.9451C38.1116 71.0899 28.3756 77.2174 27.9685 77.1614C27.234 77.0559 17.2283 70.4812 15.7593 69.6425L15.7446 69.3977C23.2542 68.7985 34.2336 68.7183 41.6612 68.7299L41.6623 68.9451Z" fill="#FFA698"/>
<path d="M68.999 28.6332C68.3485 28.2734 67.6327 28.0488 66.8942 27.9727C62.5314 27.5191 57.8884 28.2186 53.4963 28.2766C43.2943 28.4127 33.1082 28.6015 23.0164 30.222C19.259 30.8244 15.4733 31.4004 11.7506 32.1885C11.079 32.331 8.56081 32.6264 8.49786 33.6655C8.45274 34.3777 9.51669 34.4504 10.4316 34.3777C12.2594 34.2331 17.8341 32.7234 22.8045 32.1442C34.7418 30.7506 60.1716 30.5786 60.8578 30.5554C61.7444 30.5258 63.1242 30.3813 64.505 30.3697C67.3622 30.3476 70.1952 30.9056 68.7419 34.2226C68.3457 35.1229 67.7576 35.9247 67.0191 36.5711C66.2806 37.2176 65.4098 37.693 64.4683 37.9636C60.0929 39.238 39.4761 37.7241 10.7464 39.678C10.2519 39.6433 9.75564 39.711 9.28821 39.8768C8.82078 40.0427 8.39215 40.3032 8.02884 40.6422C7.81899 40.925 7.50421 42.0749 7.99946 42.2902L8.14741 42.6689C9.36559 42.2163 10.9447 42.4642 12.1933 42.3946C20.9924 41.904 35.0524 38.8582 67.4031 40.6127C68.1507 40.0716 68.7937 39.3977 69.3001 38.624C71.8257 35.536 73.0827 30.9014 68.999 28.6332Z" fill="#FFA698"/>
<path d="M39.9058 58.7092C30.6786 59.2547 22.8291 59.2241 13.965 60.1419C13.3354 60.2084 12.5034 60.2232 11.6986 60.3276C10.0198 60.527 8.4543 61.0767 8.78272 63.1329C8.83399 63.4793 8.94027 63.8152 9.0975 64.1277L9.30735 64.7365C14.3301 63.8819 69.3594 63.6403 71.6783 64.3651L71.8399 63.9431C71.1316 62.4134 71.7738 60.3656 72.3571 58.9329C72.6123 58.5169 72.8321 58.08 73.014 57.6268L73.0213 57.4158C57.188 57.1289 49.1969 58.1469 39.9058 58.7092Z" fill="#E2F9FE"/>
<path d="M102.705 54.7551C102.597 54.7496 102.493 54.712 102.406 54.647C102.319 54.5819 102.253 54.4923 102.216 54.3896C102.18 54.2868 102.174 54.1755 102.201 54.0697C102.227 53.9639 102.284 53.8683 102.364 53.795C103.539 52.4795 106.587 51.204 109.913 51.685C110.051 51.7052 110.175 51.7795 110.258 51.8917C110.341 52.0039 110.377 52.1447 110.357 52.2832C110.337 52.4217 110.263 52.5465 110.151 52.6302C110.04 52.7139 109.899 52.7496 109.762 52.7295C108.603 52.5283 107.415 52.5796 106.278 52.8799C105.141 53.1802 104.082 53.7225 103.171 54.4702C103.127 54.5561 103.06 54.6281 102.978 54.6783C102.896 54.7285 102.802 54.7551 102.705 54.7551Z" fill="#3D4A56"/>
<path d="M129.519 59.8572C128.5 51.47 115.935 52.8088 114.41 59.1303C113.834 58.7373 113.157 58.5231 112.461 58.5143C111.765 58.5055 111.083 58.7024 110.497 59.0807C108.561 51.6029 97.177 54.4229 98.0038 61.4376C98.1659 62.5793 98.5908 63.6672 99.2447 64.6147C99.8987 65.5622 100.764 66.343 101.771 66.8951C102.855 67.4733 104.075 67.7436 105.301 67.6769C106.526 67.6101 107.71 67.2089 108.726 66.5164C110.462 65.3327 110.793 62.2552 110.787 61.502C110.793 59.91 110.525 60.4723 110.961 60.0123C111.468 59.663 112.084 59.5111 112.694 59.5848C113.304 59.6586 113.867 59.953 114.277 60.4132C114.378 61.8025 114.859 63.1367 115.666 64.269C116.473 65.4013 117.575 66.2878 118.85 66.8308C120.069 67.3807 121.402 67.625 122.735 67.5425C124.068 67.46 125.361 67.0532 126.503 66.3571C127.454 65.8734 128.25 65.1298 128.8 64.2116C129.349 63.2935 129.631 62.238 129.611 61.1665C129.606 60.7286 129.576 60.2914 129.519 59.8572ZM108.138 65.6428C107.254 66.2489 106.218 66.5913 105.149 66.6303C104.081 66.6693 103.023 66.4034 102.098 65.8633C101.281 65.3852 100.582 64.7276 100.054 63.9396C99.5251 63.1517 99.1806 62.2538 99.0457 61.3131C98.4508 56.2692 105.516 54.0041 108.365 57.1817C109.35 58.3975 109.84 59.9429 109.738 61.5072C109.744 62.3133 109.378 64.7967 108.138 65.6428ZM126.022 65.4202C125.026 66.0471 123.891 66.4169 122.719 66.4968C121.547 66.5767 120.373 66.3641 119.302 65.8781C116.84 64.7018 115.2 62.3417 115.314 60.1357C115.357 59.5014 115.532 58.8832 115.829 58.322C116.126 57.7608 116.538 57.2693 117.038 56.88C120.868 53.8131 127.795 54.3311 128.483 59.9849C128.534 60.3806 128.562 60.779 128.565 61.1781C128.583 62.0545 128.354 62.918 127.904 63.6688C127.453 64.4195 126.801 65.0267 126.022 65.4202Z" fill="#3D4A56"/>
<path d="M181 14.8273C185.422 16.8392 178.213 22.2882 176.674 25.3899C175.68 27.3944 177.504 28.6604 177.605 30.4149C177.718 32.411 175.958 34.5779 174.497 36.2934C173.271 37.7324 169.868 42.8934 167.491 42.4124C165.896 42.0874 165.492 40.5587 166.524 39.1904C168.447 36.6404 171.829 34.1876 172.622 31.2568C173.494 28.0295 168.177 28.5064 176.623 18.9871C177.57 17.9056 178.542 16.8465 179.539 15.8105C179.989 15.4303 180.479 15.1006 181 14.8273Z" fill="#FFA698"/>
<path d="M161.437 31.5452C162.219 33.3862 161.295 36.0279 160.499 38.1358C159.834 39.9019 158.374 45.9238 155.975 46.2783C154.365 46.5167 153.463 45.217 153.974 43.5764C154.924 40.5254 157.281 37.0671 157.038 34.0392C156.897 32.2953 155.391 31.9535 154.882 30.5504C153.965 28.0184 155.562 23.9323 156.665 21.1313C157.185 19.7887 157.739 18.4597 158.326 17.1455C158.629 16.637 158.98 16.1596 159.376 15.7202C164.211 16.1063 159.271 23.7002 158.866 27.1364C158.611 29.354 160.75 29.9247 161.437 31.5452Z" fill="#FFA698"/>
<path d="M141.75 19.7785C142.296 19.7637 143.086 19.6814 143.389 19.1455C144.228 17.6537 141.698 16.4025 140.661 16.1092C140.19 15.9774 139.701 15.9222 139.214 15.9456C138.987 15.9862 138.757 15.9989 138.527 15.9836C138.737 15.1449 140.741 14.2049 141.575 10.8141C141.657 10.5137 141.674 10.1992 141.625 9.89172C141.575 9.58428 141.46 9.29115 141.288 9.03223C140.741 8.39923 139.9 8.74315 139.354 9.18836C138.069 10.2349 137.353 11.8259 135.972 12.8102C133.693 14.4275 130.411 13.4696 128.348 14.3178C127.276 15.4716 126.494 16.8659 126.066 18.3848C125.849 18.9025 125.82 19.4809 125.985 20.0179C126.317 20.7564 127.299 20.7818 127.676 21.4949C128.318 22.705 128.279 23.9742 129.61 24.7159C130.47 25.1722 131.405 25.4665 132.37 25.5841C132.685 25.6305 133.21 25.466 133.493 25.6073C133.795 25.7624 133.98 26.253 134.201 26.5051C134.758 27.1578 135.525 27.5938 136.368 27.7376C137.212 27.8813 138.078 27.7237 138.818 27.2922C138.963 27.215 139.089 27.1065 139.187 26.9746C139.285 26.8426 139.352 26.6904 139.385 26.529C139.417 26.3676 139.414 26.2009 139.375 26.041C139.335 25.881 139.261 25.7319 139.158 25.6042C140.148 25.6601 141.466 25.4385 141.683 24.4605C141.741 24.1884 141.726 23.9054 141.637 23.6415C141.549 23.3775 141.391 23.1425 141.181 22.9614C141.748 22.9759 142.311 22.859 142.826 22.6196C143.695 22.2028 143.742 20.9105 141.424 19.8069V19.7774L141.75 19.7785Z" fill="#FAD353"/>
<path d="M116.586 79.8758C116.106 80.0169 115.604 80.061 115.107 80.0056C115.046 79.9553 114.974 79.9189 114.897 79.899C114.82 79.8792 114.74 79.8763 114.662 79.8905C114.584 79.9047 114.51 79.9358 114.445 79.9815C114.38 80.0272 114.326 80.0865 114.286 80.1554C114.246 80.2246 114.222 80.3021 114.216 80.382C114.21 80.4619 114.223 80.542 114.252 80.6163C114.282 80.6906 114.328 80.7572 114.387 80.8109C114.446 80.8647 114.517 80.9043 114.593 80.9266C115.341 81.1504 116.139 81.1375 116.879 80.8897C117.013 80.8505 117.126 80.7595 117.193 80.6368C117.26 80.514 117.276 80.3695 117.237 80.235C117.198 80.1006 117.107 79.9872 116.985 79.9199C116.863 79.8525 116.719 79.8366 116.586 79.8758Z" fill="#3D4A56"/>
<path d="M110.019 72.6276C109.943 72.642 109.871 72.673 109.809 72.7185C109.746 72.764 109.694 72.8229 109.657 72.891C109.619 72.959 109.597 73.0345 109.592 73.1121C109.587 73.1897 109.6 73.2674 109.628 73.3398C110.001 74.2893 112.425 79.1665 114.897 79.2857C115.359 79.2742 115.806 79.1239 116.182 78.8543C116.557 78.5846 116.844 78.2079 117.004 77.7729C117.529 76.7442 118.616 73.5813 116.822 72.5664C115.55 71.8522 110.546 72.5274 110.019 72.6276ZM116.07 77.2928C115.577 78.2624 115.101 78.2423 114.949 78.2318C113.66 78.1695 111.764 75.4392 110.87 73.5624C112.567 73.3366 115.684 73.1351 116.31 73.4864C117.176 73.9759 116.613 76.2241 116.07 77.2928Z" fill="#3D4A56"/>
<path d="M108.625 70.0387C109.403 70.6664 111.114 70.5039 111.99 70.1537C112.955 69.7623 113.743 69.0596 114.574 68.7674C114.705 68.7212 114.813 68.6245 114.873 68.4984C114.934 68.3724 114.942 68.2274 114.896 68.0953C114.85 67.9633 114.754 67.855 114.628 67.7942C114.503 67.7335 114.359 67.7253 114.227 67.7715C113.215 68.1259 112.472 68.8265 111.604 69.1736C110.862 69.4673 110.039 69.4819 109.286 69.2147C109.243 69.1799 109.163 69.1155 109.2 68.8739C109.323 68.1259 110.385 67.2165 110.87 66.4337C111.456 65.2271 111.957 63.9805 112.369 62.7032C112.401 62.6402 112.42 62.5713 112.425 62.5007C112.43 62.4301 112.421 62.3591 112.398 62.2921C112.376 62.2252 112.34 62.1635 112.293 62.1108C112.246 62.0581 112.188 62.0154 112.125 61.9854C112.061 61.9553 111.992 61.9385 111.921 61.9359C111.851 61.9333 111.781 61.945 111.715 61.9702C111.649 61.9955 111.589 62.0338 111.538 62.0829C111.488 62.1319 111.447 62.1908 111.42 62.2559C111.01 63.4889 110.529 64.6969 109.98 65.8735C109.509 66.6342 108.351 67.57 108.166 68.7041C108.113 68.9475 108.129 69.2008 108.21 69.4361C108.291 69.6715 108.435 69.8799 108.625 70.0387Z" fill="#3D4A56"/>
<path d="M109.182 61.613C109.279 60.7099 108.982 58.7434 108.075 58.7128C107.253 58.7413 106.941 59.7382 106.927 60.0737C106.866 61.2279 106.999 62.6532 107.97 62.8906C108.693 63.071 109.087 62.3652 109.182 61.613Z" fill="#3D4A56"/>
<path d="M122.426 62.5181C122.54 62.545 122.658 62.5471 122.773 62.5241C122.887 62.5012 122.996 62.4538 123.09 62.3852C124.218 61.5739 123.458 58.1842 122.51 58.3297C121.739 58.3698 121.405 59.2697 121.371 59.6896C121.309 60.8417 121.442 62.2649 122.426 62.5181Z" fill="#3D4A56"/>
<path d="M34.003 84.5335C33.7152 84.1756 33.3689 83.8695 32.979 83.6283C32.8993 83.5774 32.8078 83.5483 32.7135 83.5439C32.6193 83.5395 32.5255 83.56 32.4415 83.6033C32.3575 83.6466 32.2862 83.7112 32.2347 83.7907C32.1833 83.8702 32.1533 83.9619 32.1479 84.0566C32.1479 84.5388 32.5677 84.4449 33.2371 85.2509C33.9223 85.8941 34.5688 86.578 35.173 87.2987C35.217 87.3529 35.2713 87.3978 35.3328 87.4307C35.3942 87.4636 35.4616 87.4839 35.5309 87.4904C35.6002 87.4969 35.6702 87.4894 35.7366 87.4684C35.803 87.4474 35.8646 87.4134 35.9179 87.3682C35.9711 87.3231 36.0148 87.2677 36.0465 87.2054C36.0782 87.143 36.0973 87.075 36.1025 87.0052C36.1078 86.9353 36.0992 86.8652 36.0773 86.7987C36.0553 86.7323 36.0204 86.6709 35.9746 86.6182C35.3603 85.8835 34.7019 85.1873 34.003 84.5335Z" fill="#3D4A56"/>
<path d="M38.924 87.2329C38.9495 87.3702 39.0281 87.4917 39.1426 87.5708C39.2571 87.6499 39.3981 87.6802 39.5347 87.6549C41.0354 87.3767 42.5556 87.2183 44.0811 87.1812C44.15 87.1795 44.2179 87.1643 44.281 87.1362C44.344 87.1082 44.4009 87.0679 44.4485 87.0178C44.496 86.9676 44.5333 86.9085 44.5581 86.8439C44.5829 86.7792 44.5948 86.7103 44.5932 86.641C44.588 86.5016 44.5288 86.3697 44.4282 86.2735C44.3277 86.1773 44.1937 86.1244 44.0549 86.1262C43.1973 86.15 42.341 86.2101 41.4884 86.3066C41.3184 85.5106 41.0132 84.75 40.5861 84.0584C40.5103 83.9446 40.3934 83.8649 40.2603 83.8362C40.1271 83.8075 39.9881 83.8319 39.8725 83.9044C39.757 83.9769 39.674 84.0917 39.6411 84.2246C39.6082 84.3575 39.628 84.498 39.6963 84.6165C40.0446 85.1844 40.2967 85.8065 40.4423 86.4574C40.0761 86.5113 39.7078 86.5492 39.3448 86.6168C39.2769 86.6293 39.2121 86.6552 39.1542 86.693C39.0962 86.7308 39.0463 86.7797 39.0072 86.837C38.9681 86.8942 38.9406 86.9586 38.9264 87.0266C38.9121 87.0945 38.9113 87.1646 38.924 87.2329Z" fill="#3D4A56"/>
<path d="M45.9145 83.5427C45.7202 84.0838 45.7247 84.6769 45.9271 85.2149C46.5766 87.9706 48.1714 88.9074 49.8209 88.7534C49.96 88.7394 50.0879 88.6704 50.1765 88.5616C50.265 88.4528 50.307 88.313 50.293 88.1731C50.2791 88.0332 50.2105 87.9046 50.1023 87.8156C49.9941 87.7266 49.8551 87.6844 49.716 87.6984C48.1001 87.864 47.3153 86.5484 46.9417 84.967C46.8515 84.6794 46.8076 84.3792 46.8116 84.0776C46.8468 84.0181 46.87 83.9521 46.8799 83.8835C46.8897 83.8149 46.886 83.7451 46.869 83.6779C46.852 83.6108 46.822 83.5476 46.7808 83.4921C46.7395 83.4366 46.6878 83.3898 46.6285 83.3544C46.5693 83.319 46.5037 83.2957 46.4355 83.2858C46.3672 83.2759 46.2978 83.2796 46.231 83.2967C46.1642 83.3138 46.1014 83.344 46.0462 83.3854C45.991 83.4269 45.9445 83.479 45.9093 83.5385L45.9145 83.5427Z" fill="#3D4A56"/>
<path d="M12.8568 53.372C11.901 53.4564 11.3218 53.4775 11.3218 54.062C11.3218 54.1565 11.347 54.2492 11.3949 54.3305C11.4427 54.4118 11.5114 54.4787 11.5938 54.5242C11.6761 54.5697 11.7691 54.5921 11.863 54.5891C11.9569 54.5861 12.0483 54.5578 12.1276 54.5072C12.2231 54.4893 12.4539 54.4671 13.0237 54.4165C22.1123 53.6052 23.9894 53.8489 31.7225 53.3488C31.7914 53.3444 31.8587 53.3263 31.9207 53.2957C31.9826 53.2651 32.038 53.2225 32.0836 53.1704C32.1292 53.1183 32.1641 53.0577 32.1864 52.992C32.2087 52.9263 32.2179 52.8568 32.2135 52.7875C32.2091 52.7183 32.1912 52.6506 32.1607 52.5882C32.1303 52.5259 32.0879 52.4703 32.0361 52.4244C31.9843 52.3786 31.924 52.3435 31.8586 52.321C31.7933 52.2986 31.7242 52.2894 31.6553 52.2938C23.8373 52.8044 22.4114 52.5291 12.8568 53.372Z" fill="#3D4A56"/>
<path d="M64.1108 52.303C64.1076 52.2336 64.0908 52.1656 64.0613 52.1027C64.0318 52.0399 63.9903 51.9835 63.9391 51.9369C63.8879 51.8902 63.8281 51.8542 63.763 51.8308C63.698 51.8075 63.6289 51.7973 63.5599 51.8009C59.0051 51.9064 42.2978 52.2809 42.7511 52.3716C42.7316 52.3739 42.7123 52.3777 42.6934 52.3832C42.5727 52.3948 42.46 52.4488 42.3751 52.5359C42.2902 52.6229 42.2387 52.7372 42.2295 52.8588C42.2203 52.9803 42.2542 53.1012 42.325 53.2001C42.3959 53.2989 42.4992 53.3695 42.6168 53.3992C42.8686 53.4678 42.6787 53.3992 43.5611 53.3507C43.9242 53.3317 60.4447 52.9909 63.6019 52.8559C63.6716 52.8538 63.7403 52.8379 63.8038 52.8088C63.8673 52.7798 63.9244 52.7384 63.9718 52.6869C64.0192 52.6354 64.0559 52.575 64.0798 52.509C64.1036 52.4431 64.1142 52.3731 64.1108 52.303Z" fill="#3D4A56"/>
<path d="M68.704 53.0166C68.8431 53.0198 68.9778 52.9674 69.0785 52.8707C69.1791 52.7741 69.2375 52.6412 69.2407 52.5013C69.2439 52.3614 69.1917 52.2259 69.0956 52.1247C68.9994 52.0235 68.8673 51.9648 68.7281 51.9616C68.6232 51.9563 65.9654 51.8213 65.7367 51.7886C65.3535 51.682 64.9465 51.7016 64.5752 51.8445C64.4491 51.9136 64.3549 52.0295 64.3126 52.1675C64.2702 52.3054 64.2831 52.4545 64.3485 52.583C64.3782 52.6434 64.4199 52.6971 64.4709 52.7407C64.5219 52.7843 64.5813 52.817 64.6454 52.8368C64.7094 52.8565 64.7768 52.8629 64.8434 52.8556C64.91 52.8482 64.9744 52.8273 65.0326 52.794C65.219 52.7931 65.4051 52.8086 65.5888 52.8404C65.9833 52.8879 68.8572 53.0166 68.704 53.0166Z" fill="#3D4A56"/>
<path d="M10.1674 35.1741C10.6657 36.5742 10.8282 38.0729 10.6416 39.5481C10.6303 39.6172 10.6327 39.6878 10.6487 39.7559C10.6648 39.824 10.6942 39.8883 10.7352 39.9448C10.7762 40.0014 10.828 40.0492 10.8875 40.0855C10.9471 40.1217 11.0132 40.1457 11.0821 40.156C11.1509 40.1663 11.2212 40.1627 11.2886 40.1454C11.3561 40.1282 11.4195 40.0976 11.4751 40.0554C11.5307 40.0133 11.5773 39.9604 11.6124 39.9C11.6475 39.8395 11.6702 39.7726 11.6793 39.7032C11.8508 38.4595 11.7795 37.1942 11.4695 35.978C11.2009 34.8724 11.1547 34.7584 10.9574 34.4883C10.9563 34.4146 10.9398 34.3419 10.909 34.2749C10.8782 34.208 10.8338 34.1483 10.7787 34.0997C10.7235 34.051 10.6588 34.0146 10.5887 33.9927C10.5187 33.9708 10.4448 33.9639 10.372 33.9724C10.2719 33.9876 10.1769 34.0267 10.0951 34.0866C10.0133 34.1465 9.94699 34.2253 9.9019 34.3164C9.82215 34.5115 9.81481 34.7785 10.1674 35.1741Z" fill="#3D4A56"/>
<path d="M64.3551 38.133C64.4372 38.133 64.5182 38.1137 64.5915 38.0765C64.6648 38.0393 64.7284 37.9853 64.7772 37.9189C64.826 37.8525 64.8586 37.7756 64.8724 37.6942C64.8862 37.6128 64.8808 37.5293 64.8567 37.4504C64.393 35.8634 64.3081 34.1888 64.6091 32.5626C64.6793 31.9498 64.8072 31.345 64.991 30.7564C65.0388 30.627 65.0342 30.4839 64.9783 30.3579C64.9223 30.2318 64.8195 30.1328 64.6918 30.0821C64.564 30.0314 64.4217 30.0331 64.2952 30.0868C64.1687 30.1405 64.0682 30.2419 64.0152 30.3692C63.8005 31.0234 63.6529 31.6979 63.5745 32.3822C63.2461 34.1728 63.3417 36.0161 63.8536 37.7627C63.887 37.8701 63.9536 37.964 64.0439 38.0307C64.1341 38.0973 64.2432 38.1332 64.3551 38.133Z" fill="#3D4A56"/>
<path d="M14.5094 37.1028C14.5909 37.1028 14.6712 37.0837 14.744 37.0471C14.8169 37.0105 14.8803 36.9573 14.9291 36.8918C16.1074 36.5542 31.2346 35.571 39.9917 34.7153C40.1308 34.7014 40.2587 34.6324 40.3473 34.5235C40.4358 34.4147 40.4777 34.275 40.4638 34.1351C40.4499 33.9952 40.3813 33.8666 40.2731 33.7775C40.1648 33.6885 40.0259 33.6464 39.8867 33.6603C34.1473 34.0908 15.629 35.7113 15.629 35.7113C14.7759 35.802 14.3311 35.8959 14.1086 36.186C14.0384 36.2647 13.9922 36.362 13.9756 36.4663C13.959 36.5707 13.9727 36.6776 14.015 36.7744C14.0573 36.8711 14.1264 36.9536 14.2141 37.0118C14.3018 37.0701 14.4043 37.1017 14.5094 37.1028Z" fill="#3D4A56"/>
<path d="M42.889 34.6446C46.5698 34.6446 52.4781 34.1318 58.1305 34.3555C58.2672 34.353 58.3983 34.3001 58.4987 34.2067C58.5992 34.1133 58.6619 33.986 58.675 33.8491C58.6778 33.7797 58.667 33.7105 58.6431 33.6453C58.6193 33.5802 58.5828 33.5204 58.536 33.4694C58.4891 33.4185 58.4326 33.3773 58.3699 33.3483C58.3072 33.3193 58.2393 33.3031 58.1703 33.3005C54.9512 33.1813 51.1256 33.2857 47.9327 33.4355C47.2728 33.4651 42.9855 33.5854 42.9414 33.5875C42.8643 33.5675 42.7836 33.5651 42.7054 33.5803C42.6272 33.5956 42.5533 33.6282 42.4892 33.6757C42.425 33.7232 42.3722 33.7844 42.3345 33.855C42.2968 33.9256 42.2751 34.0037 42.2712 34.0837C42.2672 34.1637 42.281 34.2436 42.3115 34.3176C42.342 34.3916 42.3886 34.4579 42.4477 34.5115C42.5068 34.5652 42.5771 34.605 42.6534 34.628C42.7298 34.651 42.8102 34.6567 42.889 34.6446Z" fill="#3D4A56"/>
<path d="M20.5402 62.2683C21.5422 62.5405 37.5088 60.747 54.9327 60.7723C55.0718 60.7723 55.2053 60.7168 55.3037 60.6178C55.4021 60.5189 55.4573 60.3847 55.4573 60.2448C55.4573 60.1049 55.4021 59.9708 55.3037 59.8718C55.2053 59.7729 55.0718 59.7173 54.9327 59.7173C49.5815 59.7005 43.9617 59.8513 37.7102 60.1942C35.98 60.2849 21.176 61.2555 20.8822 61.2323C20.6976 61.2175 20.2086 61.1743 20.1257 61.6543C20.1082 61.7899 20.1407 61.9273 20.2171 62.0404C20.2934 62.1536 20.4084 62.2346 20.5402 62.2683Z" fill="#3D4A56"/>
<path d="M67.3908 60.7503C67.53 60.7559 67.6656 60.7057 67.7679 60.6107C67.8703 60.5158 67.9309 60.3838 67.9364 60.2439C67.942 60.104 67.8921 59.9676 67.7976 59.8647C67.7032 59.7618 67.5719 59.7009 67.4328 59.6953C64.1023 59.4518 60.7601 59.4137 57.425 59.5814C57.3304 59.5673 57.2338 59.5781 57.1446 59.6128C57.0554 59.6474 56.9767 59.7048 56.9161 59.7792C56.8555 59.8536 56.8152 59.9425 56.799 60.0373C56.7828 60.132 56.7913 60.2294 56.8238 60.3199C56.9917 60.7334 57.4156 60.6532 57.6202 60.6142C58.0881 60.5245 60.1384 60.5404 60.6042 60.5382C65.3353 60.5235 67.0677 60.7503 67.3908 60.7503Z" fill="#3D4A56"/>
<path d="M10.9315 42.9266C16.1179 43.0458 25.5077 40.8947 45.2505 40.614C54.8575 40.4779 61.1289 40.9063 68.6007 41.1975C69.9028 41.247 71.3781 41.303 72.1954 42.1322C72.995 42.9287 73.9319 45.9006 73.2992 46.7362C72.9981 47.136 71.9698 47.0675 71.505 47.9357C71.0402 48.804 71.8943 49.4032 71.9572 49.5963C71.8691 50.1776 70.8031 50.627 70.8031 51.8287C70.8031 53.446 72.1062 53.1548 72.4724 53.6222C72.7452 53.9703 72.633 54.9515 72.633 55.4779C72.633 55.6178 72.6882 55.752 72.7866 55.8509C72.885 55.9499 73.0184 56.0054 73.1576 56.0054C73.2967 56.0054 73.4302 55.9499 73.5286 55.8509C73.6269 55.752 73.6822 55.6178 73.6822 55.4779C73.8273 54.6209 73.6915 53.7397 73.295 52.967C73.0227 52.6459 72.6548 52.4214 72.2458 52.3266C71.8712 52.2074 71.8492 52.2022 71.8492 51.834C71.8492 51.1408 72.8428 50.7568 72.9939 49.7651C73.1072 49.0551 72.4315 48.6225 72.4284 48.44C72.6267 48.0718 73.6214 48.055 74.1334 47.385C75.2026 45.9724 73.955 42.4096 72.9362 41.3947C71.8313 40.2659 70.0665 40.1963 68.6416 40.1425C50.8378 39.404 38.8731 39.021 18.9583 41.2428C16.3029 41.5948 13.6309 41.8061 10.9535 41.8758C9.87131 41.7719 8.77958 41.9047 7.75326 42.2651C5.724 43.164 5.41342 47.7933 5.91287 49.4855C6.09544 50.0879 6.82467 50.6334 6.90756 50.8307C6.80732 50.963 6.6898 51.0812 6.55816 51.182C6.33906 51.348 6.15352 51.5547 6.0115 51.7907C5.13852 53.6897 5.67364 58.4984 7.07754 59.1873C7.13955 59.2177 7.20689 59.2354 7.27573 59.2396C7.34456 59.2438 7.41354 59.2343 7.47872 59.2116C7.5439 59.189 7.60401 59.1537 7.65562 59.1077C7.70723 59.0617 7.74932 59.006 7.7795 58.9436C7.80967 58.8813 7.82734 58.8136 7.83149 58.7443C7.83564 58.6751 7.82619 58.6058 7.80369 58.5402C7.78118 58.4747 7.74605 58.4143 7.70032 58.3624C7.65458 58.3105 7.59912 58.2682 7.53712 58.2378C6.98101 57.9656 6.17309 53.9577 6.94954 52.2612C7.09014 52.0165 7.98725 51.5818 7.94948 50.8296C7.91695 50.0521 7.03243 49.5583 6.91701 49.1796C6.49101 47.7363 6.85615 43.6809 8.33141 43.1661C9.17853 42.9398 10.0575 42.8588 10.9315 42.9266Z" fill="#3D4A56"/>
<path d="M13.4682 46.787C17.2309 46.4368 26.7875 45.9219 40.1687 45.9947C40.3078 45.9958 40.4417 45.9413 40.5409 45.8432C40.64 45.7451 40.6964 45.6113 40.6975 45.4714C40.6986 45.3315 40.6444 45.1969 40.5468 45.0972C40.4492 44.9975 40.3162 44.9408 40.1771 44.9397C32.4996 44.8553 16.6496 45.1634 10.8829 46.0042C10.5377 46.0359 10.0645 46.0791 9.89973 46.4674C9.8484 46.5792 9.83529 46.7049 9.86245 46.825C9.8896 46.945 9.95549 47.0527 10.0498 47.1312C10.1442 47.2097 10.2617 47.2546 10.3841 47.259C10.5065 47.2633 10.6269 47.2268 10.7265 47.1552C10.8451 47.0603 10.7402 47.0782 10.9773 47.0497C11.609 46.9927 10.9007 47.0254 13.4682 46.787Z" fill="#3D4A56"/>
<path d="M63.5857 44.1098C59.4694 43.8988 55.2294 43.9315 49.8971 43.922C47.7828 43.8762 45.6676 43.9509 43.5617 44.1456C43.432 44.1677 43.3153 44.2379 43.2347 44.3424C43.154 44.4468 43.1154 44.5779 43.1263 44.7097C43.1373 44.8415 43.1971 44.9643 43.2938 45.0538C43.3906 45.1434 43.5172 45.1932 43.6488 45.1933C44.3133 45.0832 44.9857 45.0285 45.6591 45.0297C48.4313 44.9422 58.8472 44.9179 63.5311 45.1627C63.6004 45.1684 63.6701 45.1599 63.736 45.1376C63.8018 45.1153 63.8625 45.0797 63.9142 45.0329C63.9659 44.9862 64.0075 44.9293 64.0365 44.8658C64.0656 44.8023 64.0814 44.7335 64.083 44.6636C64.0865 44.5944 64.0765 44.5252 64.0534 44.4599C64.0303 44.3946 63.9947 44.3345 63.9485 44.2831C63.9023 44.2317 63.8465 44.1899 63.7842 44.1601C63.722 44.1304 63.6545 44.1133 63.5857 44.1098Z" fill="#3D4A56"/>
<path d="M23.3022 48.3857C21.7441 48.5282 20.1345 48.6738 18.6036 48.6738C18.5642 48.6764 18.5246 48.6764 18.4851 48.6738C18.3459 48.6738 18.2125 48.7293 18.1141 48.8283C18.0157 48.9272 17.9604 49.0614 17.9604 49.2013C17.9674 49.2787 17.9896 49.354 18.0259 49.4226C18.0621 49.4913 18.1117 49.552 18.1716 49.6011C18.2315 49.6503 18.3006 49.6869 18.3748 49.7088C18.449 49.7307 18.5268 49.7375 18.6036 49.7288C21.5583 49.7288 24.5844 49.2213 27.5045 49.1569C36.9918 48.9037 47.5264 48.9291 57.0295 49.5568C57.1677 49.5638 57.3032 49.5164 57.4073 49.4246C57.5113 49.3328 57.5756 49.2039 57.5866 49.0652C57.5912 48.996 57.5822 48.9267 57.5601 48.861C57.538 48.7954 57.5032 48.7348 57.4578 48.6827C57.4124 48.6306 57.3572 48.5879 57.2954 48.5573C57.2336 48.5266 57.1665 48.5085 57.0977 48.5039C45.8444 47.8051 34.5601 47.7657 23.3022 48.3857Z" fill="#3D4A56"/>
<path d="M73.3247 74.1727C73.1084 73.8001 72.7968 73.4926 72.4223 73.2822C72.2246 73.1578 72.0395 73.0143 71.8693 72.8539C71.8777 72.6999 72.1474 72.4551 72.3646 72.2578C72.7333 71.9789 73.0174 71.6023 73.1851 71.1701C73.2925 70.3031 73.2417 69.4235 73.0351 68.5748C72.9228 67.1717 73.6646 65.1672 72.4569 64.1818C72.4686 64.0801 72.4496 63.9771 72.4024 63.8864C71.6616 62.5529 72.2334 60.6212 72.8032 59.2085C73.0741 58.7673 73.3075 58.304 73.5009 57.8233C73.5268 57.759 73.5397 57.6903 73.5392 57.6209C73.5386 57.5516 73.5244 57.4831 73.4974 57.4192C73.4705 57.3554 73.4313 57.2976 73.3821 57.249C73.333 57.2004 73.2747 57.162 73.2108 57.136C73.1469 57.11 73.0785 57.097 73.0095 57.0976C72.9406 57.0982 72.8724 57.1124 72.8089 57.1395C72.7455 57.1666 72.6879 57.206 72.6396 57.2554C72.5912 57.3049 72.5531 57.3634 72.5272 57.4277C72.3434 57.8792 72.1241 58.3152 71.8714 58.7317C71.0184 60.828 70.8022 62.4685 71.202 63.7292C69.6099 63.5495 68.0075 63.479 66.4059 63.5182C60.3202 63.4528 13.8843 63.8347 12.8413 63.8906C12.9271 63.0761 12.858 62.2527 12.6378 61.4641C12.4773 61.0945 12.3372 60.7162 12.2181 60.3311C12.1987 60.2639 12.1662 60.2013 12.1225 60.1469C12.0788 60.0925 12.0248 60.0474 11.9637 60.0141C11.9025 59.9809 11.8353 59.9602 11.7661 59.9533C11.6969 59.9464 11.627 59.9534 11.5606 59.9739C11.4941 59.9944 11.4323 60.0279 11.3788 60.0727C11.3254 60.1174 11.2813 60.1723 11.2491 60.2343C11.217 60.2963 11.1974 60.3641 11.1915 60.4338C11.1857 60.5035 11.1936 60.5736 11.215 60.6402C11.3349 61.0397 11.4789 61.4315 11.6462 61.8133C11.8309 62.5097 11.873 63.2365 11.7701 63.9497C10.6453 64.0309 10.0126 64.0774 9.22666 64.2092C8.7623 64.2635 8.31911 64.4349 7.93828 64.7075C7.55745 64.9801 7.25134 65.3451 7.0484 65.7685C6.35581 67.5989 6.31061 69.613 6.92039 71.4729C7.09033 71.7766 7.31691 72.0446 7.58772 72.2621C7.74205 72.3969 7.88816 72.541 8.02526 72.6935C8.02526 72.8602 7.73462 73.1039 7.47545 73.3192C7.21852 73.4829 6.99707 73.6971 6.82436 73.9489C6.65165 74.2007 6.53121 74.4849 6.47026 74.7846C6.38632 75.6718 6.79868 76.2784 6.79238 76.9747C6.78609 77.9126 6.24048 79.1902 6.68746 80.3022C6.90002 80.7114 7.25089 81.0309 7.67691 81.2032C7.87522 81.3087 8.14697 81.4553 8.15852 81.5598C8.18475 81.7971 7.5426 82.2698 7.29393 82.7298C7.03972 83.382 6.99244 84.0972 7.15857 84.7775C7.17645 84.9715 7.26818 85.151 7.41459 85.2786C7.86367 85.6078 8.5373 85.2122 8.82584 85.189C9.42182 85.1816 68.837 84.096 69.0374 84.0981C70.0737 84.2165 71.1215 84.0164 72.0425 83.5242C73.3226 82.6021 72.9091 79.4434 73.1022 78.3167C73.3121 77.1056 73.907 75.4904 73.3247 74.1727ZM72.2418 77.3102C72.0482 78.0381 71.9616 78.7906 71.9848 79.5437C71.9617 80.5807 71.9218 82.3151 71.4286 82.6717C70.7445 83.1708 70.03 83.0146 63.108 83.0663C4.83133 83.5084 8.81745 84.0665 8.16691 84.2775C8.06198 83.3438 8.12179 83.2942 8.52785 82.8595C8.73775 82.6892 8.90716 82.4739 9.02371 82.2293C9.14025 81.9847 9.20098 81.717 9.20148 81.4458C9.09655 80.4299 7.80072 80.2547 7.66117 79.9098C7.52903 79.3374 7.54311 78.7407 7.70209 78.1753C7.91111 77.4093 7.89728 76.599 7.66222 75.8406C7.39466 74.7856 7.43453 74.7255 8.14907 74.1315C8.4028 73.9779 8.61839 73.7682 8.77947 73.5183C8.94055 73.2684 9.04289 72.9849 9.07871 72.6893C9.07871 72.2061 8.68419 71.8453 8.30331 71.4877C8.16245 71.3642 8.0283 71.2332 7.90145 71.0952C7.38542 69.4857 7.42908 67.7476 8.02526 66.1663C8.0956 66.0187 8.18639 65.882 8.29492 65.7601C8.60431 65.4872 8.98605 65.3109 9.39349 65.2526C15.2232 64.2747 59.7913 64.4983 66.4111 64.57C68.1306 64.5086 69.8521 64.6107 71.5525 64.8749C72.2555 65.0448 72.1379 66.103 72.0404 67.1527C71.9254 67.9241 71.9471 68.7099 72.1044 69.4737C72.2247 69.9281 72.249 70.4029 72.1757 70.8673C72.0351 71.3516 70.8704 71.8168 70.8201 72.7853C70.7697 73.7538 72.1967 74.2265 72.3625 74.5915C72.5853 75.4903 72.5434 76.4349 72.2418 77.3102Z" fill="#3D4A56"/>
<path d="M37.0667 72.6141C38.0268 72.7523 41.5029 72.842 42.7778 72.8568C46.7985 72.9159 50.7112 72.8568 54.7152 72.745C54.8543 72.741 54.9862 72.6817 55.0818 72.58C55.1775 72.4783 55.229 72.3426 55.2251 72.2027C55.2212 72.0628 55.1622 71.9302 55.0611 71.834C54.9599 71.7379 54.8249 71.686 54.6858 71.69C50.3293 71.8123 41.8481 71.9526 37.5116 71.5992C37.3363 71.5855 37.179 71.5665 37.1223 71.5633C36.391 71.2806 35.966 72.592 37.0667 72.6141Z" fill="#3D4A56"/>
<path d="M57.1607 72.8189L66.1969 73.0046C66.336 73.0075 66.4706 72.9547 66.5711 72.8579C66.6715 72.761 66.7296 72.628 66.7325 72.4881C66.7355 72.3482 66.683 72.2129 66.5867 72.1119C66.4903 72.0109 66.3581 71.9525 66.2189 71.9496C64.4247 71.8683 63.4531 71.804 57.1198 71.7618C55.676 71.7533 56.5479 72.8041 57.1607 72.8189Z" fill="#3D4A56"/>
<path d="M34.9926 74.6466C34.9237 74.6522 34.8566 74.6714 34.7951 74.7031C34.7336 74.7348 34.6789 74.7784 34.6341 74.8313C34.5893 74.8843 34.5554 74.9456 34.5342 75.0117C34.513 75.0779 34.5049 75.1476 34.5105 75.2168C34.5161 75.2861 34.5352 75.3536 34.5667 75.4154C34.5982 75.4773 34.6416 75.5323 34.6942 75.5773C34.7469 75.6223 34.8078 75.6565 34.8736 75.6778C34.9394 75.6991 35.0087 75.7072 35.0776 75.7016C36.0597 75.6235 43.4245 75.6742 44.4076 75.6805C59.9733 75.786 61.415 76.2523 62.7476 76.2523C62.8867 76.2565 63.0218 76.205 63.1231 76.109C63.2245 76.013 63.2838 75.8805 63.2879 75.7406C63.2921 75.6007 63.2408 75.4649 63.1454 75.363C63.05 75.2611 62.9182 75.2015 62.779 75.1973C51.7199 74.5084 36.2108 74.5432 34.9926 74.6466Z" fill="#3D4A56"/>
<path d="M13.803 75.2139C13.7335 75.2016 13.6622 75.2035 13.5935 75.2196C13.5248 75.2356 13.46 75.2654 13.403 75.3072C13.346 75.349 13.298 75.4019 13.2618 75.4628C13.2256 75.5237 13.202 75.5913 13.1924 75.6616C13.1828 75.7319 13.1874 75.8034 13.2059 75.8718C13.2244 75.9403 13.2565 76.0043 13.3001 76.06C13.3438 76.1157 13.3982 76.162 13.4601 76.196C13.522 76.2301 13.59 76.2513 13.6603 76.2583C13.947 76.3007 14.238 76.3049 14.5259 76.271C14.5259 76.271 18.0094 76.2288 18.5928 76.2193C20.8881 76.1127 23.1879 76.1599 25.477 76.3606C25.6161 76.3669 25.752 76.3174 25.8549 76.2229C25.9577 76.1285 26.0189 75.9968 26.0252 75.8569C26.0315 75.717 25.9822 75.5803 25.8882 75.4769C25.7943 75.3736 25.6633 75.3119 25.5242 75.3056C21.2422 74.9174 14.7494 75.3384 13.803 75.2139Z" fill="#3D4A56"/>
<path d="M46.1254 79.3064C46.1943 79.3052 46.2623 79.2904 46.3255 79.2628C46.3887 79.2352 46.4459 79.1954 46.4938 79.1456C46.5416 79.0958 46.5793 79.037 46.6046 78.9725C46.6299 78.9081 46.6423 78.8392 46.6411 78.77C46.6399 78.7007 46.6252 78.6323 46.5978 78.5688C46.5703 78.5052 46.5307 78.4477 46.4812 78.3996C46.4316 78.3514 46.3731 78.3136 46.309 78.2881C46.2449 78.2627 46.1765 78.2502 46.1076 78.2514C41.5958 78.3274 14.1462 79.1039 14.1462 79.1039C11.6678 79.0838 12.5482 80.1673 13.6048 80.1441C41.2852 79.5565 37.0525 79.4594 46.1254 79.3064Z" fill="#3D4A56"/>
<path d="M66.6355 79.5368C66.7747 79.5368 66.9081 79.4812 67.0065 79.3823C67.1049 79.2834 67.1601 79.1492 67.1601 79.0093C67.1601 78.8694 67.1049 78.7352 67.0065 78.6363C66.9081 78.5374 66.7747 78.4818 66.6355 78.4818C62.9715 78.4449 47.9157 78.1959 47.3922 78.2708C47.2543 78.2908 47.1299 78.3651 47.0465 78.4773C46.9631 78.5894 46.9274 78.7303 46.9473 78.869C46.9672 79.0076 47.041 79.1326 47.1526 79.2165C47.2642 79.3004 47.4043 79.3363 47.5422 79.3163C49.3406 79.081 66.7415 79.5368 66.6355 79.5368Z" fill="#3D4A56"/>
<path d="M13.9156 70.0525C28.3607 69.0112 39.6728 69.3014 54.931 69.275C55.0702 69.275 55.2036 69.2194 55.302 69.1205C55.4004 69.0216 55.4557 68.8874 55.4557 68.7475C55.4557 68.6076 55.4004 68.4734 55.302 68.3745C55.2036 68.2756 55.0702 68.22 54.931 68.22C36.7149 68.22 26.3073 68.1556 17.1169 68.7633C16.1075 68.8277 12.6817 69.1041 12.4142 69.1083C12.0522 69.1083 11.6419 69.1083 11.5233 69.5303C11.496 69.6361 11.4999 69.7476 11.5348 69.8511C11.5697 69.9546 11.6339 70.0456 11.7195 70.1129C11.8052 70.1801 11.9085 70.2208 12.0168 70.2297C12.1252 70.2387 12.2337 70.2156 12.3292 70.1633C12.7992 70.1675 12.8769 70.1316 13.9156 70.0525Z" fill="#3D4A56"/>
<path d="M115.185 139.073C116.873 139.484 118.512 141.084 120.518 141.084C121.313 141.024 122.077 140.749 122.731 140.29C123.384 139.832 123.903 139.205 124.234 138.475C125.86 135.551 124.334 130.277 123.499 127.028C123.487 126.99 123.469 126.955 123.448 126.922C124.548 122.135 122.879 115.493 122.211 110.852C122.203 110.782 122.182 110.713 122.148 110.651C122.113 110.589 122.067 110.535 122.011 110.492C121.955 110.448 121.892 110.416 121.823 110.398C121.755 110.38 121.684 110.376 121.614 110.386C121.544 110.396 121.477 110.42 121.417 110.457C121.357 110.494 121.304 110.543 121.263 110.6C121.222 110.658 121.193 110.723 121.177 110.793C121.162 110.862 121.16 110.933 121.173 111.003C121.828 115.565 123.551 122.477 122.346 127.072C121.891 128.736 120.484 131.458 118.014 131.121C116.277 130.879 114.849 129.504 113.023 128.822C111.774 128.442 110.494 128.178 109.197 128.036C107.218 127.685 106.06 127.078 105.613 124.885C104.913 121.298 106.171 117.214 107.364 113.807C107.893 112.253 108.545 110.744 109.314 109.295C109.354 109.238 109.382 109.174 109.397 109.107C109.412 109.039 109.413 108.969 109.401 108.901C109.389 108.833 109.364 108.767 109.327 108.709C109.29 108.651 109.241 108.6 109.185 108.56C109.128 108.521 109.065 108.493 108.997 108.478C108.93 108.463 108.861 108.461 108.793 108.473C108.725 108.485 108.66 108.511 108.602 108.548C108.544 108.585 108.494 108.634 108.454 108.691C107.625 110.216 106.929 111.81 106.374 113.456C105.107 117.071 103.837 121.25 104.583 125.086C104.714 126.078 105.169 126.997 105.877 127.699C106.586 128.401 107.506 128.846 108.494 128.964C108.284 129.672 108.132 130.397 108.039 131.13C107.767 133.409 107.662 136.238 109.279 137.882C110.728 139.373 113.549 138.661 115.185 139.073ZM109.083 131.266C109.176 130.552 109.324 129.847 109.524 129.156C110.596 129.293 111.654 129.516 112.69 129.823C114.507 130.502 116.244 132.207 118.433 132.207C120.436 132.207 121.961 130.655 122.85 128.705C123.584 131.568 124.536 135.774 123.317 137.965C123.067 138.51 122.686 138.984 122.209 139.345C121.732 139.706 121.173 139.942 120.582 140.032C119.553 139.957 118.562 139.612 117.706 139.032C116.375 138.164 114.799 137.752 113.216 137.86C111.97 137.841 110.682 137.822 110.028 137.153C108.724 135.821 108.837 133.303 109.081 131.262L109.083 131.266Z" fill="#3D4A56"/>
<path d="M133.627 176.55C133.606 176.484 133.572 176.423 133.528 176.37C133.483 176.317 133.429 176.273 133.367 176.241C133.306 176.209 133.239 176.19 133.17 176.184C133.101 176.178 133.032 176.186 132.967 176.207C127.51 177.964 112.964 182.344 112.964 182.344C112.844 182.381 112.741 182.46 112.674 182.567C112.607 182.673 112.58 182.801 112.598 182.925C112.617 183.05 112.679 183.164 112.773 183.247C112.868 183.329 112.989 183.375 113.115 183.376C113.396 183.376 130.784 178.018 133.287 177.214C133.352 177.193 133.413 177.159 133.466 177.114C133.518 177.069 133.562 177.014 133.593 176.953C133.625 176.891 133.644 176.824 133.65 176.755C133.655 176.686 133.648 176.616 133.627 176.55Z" fill="#3D4A56"/>
<path d="M143.854 173.096C143.254 173.064 142.463 174.098 142.132 174.381C135.65 179.681 128.752 184.444 121.505 188.624C121.385 188.694 121.297 188.809 121.261 188.944C121.225 189.08 121.243 189.224 121.313 189.345C121.382 189.466 121.497 189.555 121.632 189.591C121.766 189.627 121.909 189.608 122.03 189.539C127.684 186.274 133.132 182.66 138.342 178.717C140.31 177.336 142.173 175.808 143.913 174.146C144.044 174.128 144.163 174.061 144.246 173.958C144.33 173.856 144.372 173.726 144.364 173.593C144.357 173.461 144.3 173.337 144.205 173.245C144.111 173.153 143.985 173.1 143.854 173.096Z" fill="#3D4A56"/>
<path d="M109.744 84.1825C110.64 84.8239 110.398 84.4842 110.49 84.8862C110.638 85.5445 110.77 86.7461 110.784 86.8559C109.742 86.8877 108.73 87.2151 107.865 87.8001C107.763 87.8438 107.676 87.9155 107.613 88.0069C107.55 88.0984 107.514 88.2059 107.509 88.317C107.509 88.95 108.377 88.72 108.502 88.6462C109.21 88.1707 110.043 87.9167 110.894 87.9161C110.985 89.3509 110.791 90.7894 110.322 92.1477C110.105 91.3525 109.951 90.5411 109.863 89.7212C109.856 89.652 109.836 89.5847 109.803 89.5234C109.77 89.462 109.726 89.4078 109.672 89.3637C109.618 89.3196 109.557 89.2866 109.49 89.2665C109.424 89.2463 109.355 89.2396 109.286 89.2465C109.217 89.2534 109.15 89.2739 109.089 89.3068C109.028 89.3397 108.974 89.3844 108.93 89.4383C108.886 89.4922 108.853 89.5542 108.833 89.6209C108.813 89.6875 108.807 89.7575 108.814 89.8267C108.95 92.157 109.672 94.4144 110.912 96.3876C112.153 98.3608 113.871 99.9852 115.905 101.109C116.219 101.23 116.558 101.267 116.89 101.214C121.353 100.881 125.993 95.9025 128.797 92.8926C130.569 90.9936 132.379 89.4343 132.816 87.0553C132.914 86.5278 132.994 86.1058 132.558 85.9285C132.46 85.8937 132.354 85.8869 132.251 85.909C132.149 85.9311 132.055 85.9812 131.98 86.0538C131.904 86.1263 131.85 86.2184 131.824 86.32C131.797 86.4215 131.799 86.5285 131.829 86.629C131.739 87.4433 131.431 88.2178 130.939 88.8709C131.131 86.1553 131.779 81.2253 132.254 78.3083C132.394 77.0049 132.666 75.7193 133.065 74.4712C133.535 74.2159 135.72 74.0608 136.311 73.7992C139.249 72.5195 139.984 69.3091 140.154 67.5114C140.763 61.4103 136.603 58.8002 133.488 61.2331C133.206 60.9482 132.311 60.924 129.224 59.4396C121.825 55.8364 115.729 50.0024 111.784 42.7505C111.753 42.6871 111.709 42.6307 111.656 42.5846C111.603 42.5385 111.541 42.5036 111.474 42.482C111.407 42.4605 111.336 42.4527 111.266 42.4591C111.196 42.4655 111.128 42.486 111.066 42.5194C111.004 42.5528 110.949 42.5984 110.905 42.6535C110.861 42.7086 110.828 42.772 110.809 42.84C110.79 42.908 110.784 42.9792 110.793 43.0494C110.802 43.1196 110.824 43.1873 110.86 43.2485C110.916 43.354 110.977 43.4595 111.035 43.565C109.912 44.1058 108.856 44.7763 107.887 45.5632C105.038 47.6088 103.024 50.6253 102.221 54.0517C101.634 56.7314 102.109 60.0114 101.82 62.7523C101.435 66.5503 100.225 69.6794 101.735 73.6251C103.347 77.8413 106.126 81.505 109.744 84.1825ZM102.864 62.862C103.15 60.1369 102.698 56.7567 103.247 54.2732C104.004 51.0881 105.884 48.2874 108.54 46.3913C109.468 45.6338 110.491 45.0015 111.583 44.5103C116.376 52.638 123.844 58.826 132.695 62.0043C131.87 62.921 131.332 64.0619 131.148 65.2843C131.128 65.4228 131.164 65.5635 131.247 65.6755C131.331 65.7875 131.455 65.8615 131.593 65.8814C131.731 65.9013 131.871 65.8653 131.982 65.7814C132.093 65.6975 132.167 65.5726 132.187 65.4341C132.354 64.2755 132.903 63.2066 133.745 62.3978C133.977 62.1132 134.263 61.8785 134.587 61.7076C134.911 61.5366 135.266 61.4329 135.631 61.4027C135.996 61.3725 136.363 61.4164 136.71 61.5317C137.057 61.647 137.378 61.8314 137.653 62.0739C139.309 63.5435 139.227 66.2939 139.122 67.409C138.971 68.9778 138.354 71.7673 135.904 72.8328C135.17 73.1599 132.431 73.0649 132.127 74.0049C131.683 75.3566 131.382 76.7517 131.229 78.1669C130.801 80.8044 129.951 87.0542 129.865 89.5461C129.863 89.6294 129.881 89.712 129.917 89.7867C129.954 89.8615 130.008 89.9263 130.075 89.9755C129.807 90.2867 129.544 90.6022 129.254 90.8933C126.562 93.6363 121.804 99.4325 117.261 100.112C116.317 100.253 116.565 100.274 116.148 100.031C113.631 98.5997 111.715 96.3004 110.754 93.5583C110.877 93.5117 110.978 93.4187 111.035 93.2987C111.823 91.4227 112.127 89.3764 111.916 87.3507C111.849 86.7672 111.757 85.9327 111.651 85.3609C114.37 86.8112 117.533 87.1792 120.51 86.3917C124.005 85.4232 127.429 82.7509 130.687 78.4454C130.772 78.3335 130.808 78.1925 130.789 78.0535C130.77 77.9145 130.696 77.7889 130.585 77.7043C130.474 77.6196 130.334 77.5829 130.195 77.6022C130.057 77.6215 129.932 77.6952 129.848 77.8071C126.732 81.9216 123.495 84.4684 120.233 85.3725C118.541 85.7898 116.778 85.8228 115.072 85.4691C113.366 85.1154 111.759 84.384 110.37 83.3279C106.915 80.7713 104.261 77.2726 102.723 73.2464C101.325 69.6161 102.48 66.6326 102.864 62.862Z" fill="#3D4A56"/>
<path d="M133.628 70.1046C133.717 70.1249 133.809 70.1216 133.896 70.0951C133.983 70.0686 134.062 70.0197 134.125 69.9533C134.188 69.8869 134.232 69.8052 134.254 69.7163C134.275 69.6274 134.274 69.5343 134.249 69.4463C134.399 69.0905 134.574 68.7461 134.774 68.4155C135.43 68.1914 136.139 68.1778 136.803 68.3765C136.87 68.3972 136.94 68.4043 137.01 68.3974C137.079 68.3904 137.147 68.3695 137.208 68.3359C137.27 68.3023 137.324 68.2567 137.367 68.2018C137.411 68.1468 137.443 68.0837 137.462 68.016C137.482 67.9483 137.487 67.8775 137.478 67.8077C137.47 67.7379 137.447 67.6705 137.412 67.6095C137.378 67.5486 137.331 67.4952 137.275 67.4526C137.22 67.4101 137.156 67.3791 137.088 67.3616C136.626 67.2371 136.148 67.1844 135.671 67.2054C136.19 66.6439 136.809 66.1846 137.495 65.8508C137.563 65.8247 137.624 65.7848 137.676 65.7337C137.727 65.6826 137.767 65.6214 137.794 65.5538C137.821 65.4863 137.834 65.4139 137.831 65.3413C137.829 65.2686 137.812 65.1972 137.78 65.1316C137.749 65.0659 137.705 65.0075 137.65 64.9599C137.596 64.9123 137.532 64.8765 137.463 64.8549C137.394 64.8333 137.321 64.8263 137.249 64.8342C137.177 64.8422 137.108 64.8651 137.045 64.9013C135.659 65.5626 134.519 66.6524 133.793 68.0115C133.095 69.2448 133.121 69.5296 133.228 69.7744C133.268 69.8547 133.324 69.9258 133.393 69.9827C133.462 70.0396 133.542 70.0812 133.628 70.1046Z" fill="#3D4A56"/>
<path d="M121.155 44.8642C121.308 45.0046 121.569 45.3284 121.679 45.4434C125.618 49.6395 129.233 54.131 132.493 58.8789C132.571 58.9947 132.692 59.0746 132.828 59.101C132.965 59.1274 133.107 59.0982 133.222 59.0197C133.337 58.9412 133.416 58.8199 133.443 58.6825C133.469 58.5451 133.44 58.4028 133.362 58.287C130.073 53.4554 126.404 48.8972 122.39 44.6564C121.905 44.111 121.55 43.6563 121.083 43.8884C120.989 43.9347 120.912 44.0083 120.86 44.0995C120.807 44.1908 120.784 44.2956 120.791 44.4005C120.799 44.5054 120.838 44.6056 120.903 44.6883C120.967 44.7709 121.055 44.8322 121.155 44.8642Z" fill="#3D4A56"/>
<path d="M131.094 50.3135C132.542 53.3216 133.701 56.4613 134.557 59.6903C134.575 59.7587 134.606 59.8227 134.649 59.8786C134.692 59.9345 134.746 59.9812 134.807 60.0159C134.868 60.0505 134.936 60.0724 135.006 60.0803C135.076 60.0881 135.146 60.0818 135.214 60.0616C135.281 60.0415 135.344 60.0079 135.398 59.9629C135.452 59.9179 135.497 59.8625 135.529 59.7998C135.562 59.7371 135.582 59.6685 135.587 59.598C135.593 59.5276 135.584 59.4567 135.562 59.3896C134.205 54.8162 132.776 50.1879 129.772 46.1968C129.411 45.7442 129.314 45.6229 129.043 45.6229C128.935 45.6228 128.83 45.656 128.741 45.7182C128.653 45.7804 128.586 45.8684 128.549 45.9704C128.512 46.0723 128.508 46.1832 128.536 46.2879C128.564 46.3926 128.623 46.4861 128.706 46.5555C129.615 47.7323 130.414 48.9902 131.094 50.3135Z" fill="#3D4A56"/>
<path d="M98.6756 73.87C98.6074 73.8804 98.542 73.9042 98.483 73.9401C98.424 73.976 98.3726 74.0232 98.3318 74.079C98.291 74.1349 98.2615 74.1983 98.245 74.2656C98.2286 74.3329 98.2255 74.4028 98.2359 74.4713C98.4825 76.1118 97.8162 78.321 97.2213 80.2738C96.3221 83.2373 96.8824 81.7266 95.2718 87.3908C93.7084 92.8885 92.0915 98.5738 92.8679 104.129C92.8756 104.2 92.8971 104.268 92.9314 104.329C92.9656 104.391 93.0118 104.445 93.0671 104.488C93.1225 104.532 93.186 104.563 93.2538 104.582C93.3216 104.6 93.3923 104.604 93.4619 104.594C93.5314 104.585 93.5982 104.561 93.6585 104.525C93.7187 104.489 93.7712 104.441 93.8126 104.384C93.8541 104.327 93.8838 104.262 93.9 104.193C93.9161 104.125 93.9184 104.053 93.9067 103.984C92.9204 96.9238 96.0178 89.4344 97.662 82.5579C98.2202 80.2453 99.6556 76.8609 99.2726 74.3162C99.2627 74.2474 99.2394 74.1813 99.204 74.1216C99.1686 74.0619 99.1218 74.0098 99.0663 73.9683C99.0109 73.9268 98.9478 73.8968 98.8807 73.8799C98.8136 73.863 98.7439 73.8597 98.6756 73.87Z" fill="#3D4A56"/>
<path d="M97.7981 93.809L96.7604 93.6465C96.1959 97.3327 97.0573 102.88 98.1884 106.525C98.2091 106.591 98.2425 106.652 98.2868 106.706C98.3311 106.759 98.3853 106.803 98.4465 106.835C98.5076 106.867 98.5744 106.886 98.6431 106.893C98.7118 106.899 98.781 106.891 98.8468 106.87C98.9126 106.85 98.9737 106.816 99.0266 106.771C99.0795 106.727 99.1231 106.672 99.155 106.611C99.1869 106.549 99.2065 106.482 99.2126 106.413C99.2186 106.344 99.2111 106.275 99.1905 106.208C98.115 102.744 97.2619 97.2198 97.7981 93.809Z" fill="#3D4A56"/>
<path d="M204.301 111.186C203.566 108.789 203.589 106.165 202.88 103.665C202.092 101.527 201.121 99.4618 199.977 97.4932C198.736 94.8884 199.176 92.3976 198.806 89.4752C198.68 88.5257 198.386 86.2828 196.303 85.8165C194.888 85.4472 192.727 85.8344 191.334 85.9093C189.458 85.8047 187.577 85.8551 185.71 86.0602C184.304 82.9564 183.836 79.1394 180.528 77.1507C178.41 75.8773 175.848 76.7424 173.697 76.3774C171.487 75.9913 171.124 74.356 169.804 72.6596C168.92 71.5307 167.442 70.4219 168.65 68.9871C169.174 68.3855 169.897 67.9952 170.685 67.8885C171.473 67.7818 172.273 67.966 172.936 68.4069C173.461 68.8341 173.348 69.1528 173.306 69.273C173.06 69.6765 172.719 70.0116 172.311 70.2478C171.904 70.4839 171.444 70.6134 170.974 70.6245C170.835 70.6255 170.702 70.682 170.604 70.7816C170.506 70.8812 170.452 71.0158 170.453 71.1557C170.454 71.2956 170.51 71.4294 170.609 71.5276C170.708 71.6258 170.842 71.6805 170.981 71.6795C171.555 71.6578 172.117 71.5151 172.632 71.2606C173.147 71.0062 173.603 70.6456 173.971 70.2025C174.763 70.3443 175.579 70.2618 176.327 69.964C176.853 71.1904 177.67 72.2686 178.706 73.1046C179.741 73.9406 180.965 74.509 182.269 74.7601C182.403 74.7829 182.54 74.7527 182.652 74.6759C182.765 74.5991 182.843 74.4817 182.871 74.3482C182.898 74.2147 182.874 74.0756 182.802 73.96C182.73 73.8445 182.616 73.7614 182.484 73.7283C181.35 73.5095 180.286 73.0171 179.383 72.2934C178.479 71.5698 177.764 70.6365 177.299 69.5737C177.287 69.5492 177.273 69.5256 177.258 69.503C177.511 69.3403 177.747 69.1537 177.964 68.946C179.447 67.258 177.952 65.5499 175.794 65.762C175.655 65.7751 175.527 65.8433 175.438 65.9515C175.349 66.0598 175.306 66.1992 175.319 66.3391C175.332 66.479 175.4 66.6079 175.508 66.6975C175.615 66.7872 175.754 66.8301 175.893 66.817C176.922 66.7368 178.059 67.239 177.207 68.2201C176.833 68.5763 176.388 68.848 175.901 69.017C175.415 69.186 174.898 69.2485 174.385 69.2002C174.362 68.7018 174.179 68.2242 173.865 67.8383C173.55 67.4523 173.121 67.1785 172.639 67.0575C172.356 66.959 172.063 66.8907 171.765 66.8539C171.337 65.8316 172.419 64.6975 172.919 64.2481C174.148 63.1266 174.808 63.2922 174.808 62.6919C174.805 62.6015 174.779 62.5134 174.733 62.4357C174.686 62.358 174.622 62.2932 174.544 62.2471C174.467 62.201 174.379 62.1752 174.289 62.172C174.199 62.1688 174.11 62.1883 174.03 62.2288C173.797 62.3554 173.535 62.4894 173.322 62.6276C171.877 63.518 170.303 65.1807 170.662 66.855C170.059 66.9072 169.473 67.0892 168.946 67.3888C168.118 65.7451 169.266 64.3293 170.879 62.6898C172.201 61.331 173.133 60.5102 175.453 60.7592C175.523 60.7687 175.594 60.7642 175.662 60.7457C175.729 60.7272 175.793 60.6953 175.848 60.6517C175.903 60.6081 175.949 60.5538 175.983 60.492C176.017 60.4302 176.039 60.3622 176.046 60.2919C176.054 60.2217 176.047 60.1507 176.026 60.0831C176.006 60.0155 175.972 59.9528 175.927 59.8985C175.882 59.8443 175.827 59.7997 175.764 59.7674C175.702 59.7351 175.634 59.7158 175.564 59.7105C172.835 59.4193 171.586 60.4553 170.13 61.9503C168.727 63.3798 166.646 65.513 168.092 68.0482C167.743 68.3609 167.478 68.7565 167.321 69.1988C167.164 69.6412 167.119 70.1161 167.192 70.5802C167.43 71.4176 167.887 72.1755 168.516 72.7746C168.993 73.3063 169.418 73.8837 169.783 74.4984C170.59 75.7581 171.424 77.06 173.515 77.4261C175.736 77.8038 178.237 77.0136 179.986 78.0591C182.835 79.7724 183.325 83.2486 184.69 86.3556C184.448 86.4624 184.22 86.5981 184.011 86.7596C182.388 88.1079 183.888 91.2719 184.264 92.8153C184.713 94.6563 183.724 96.3844 183.942 98.4068C184.174 100.603 185.496 102.319 185.286 104.359C185.073 105.873 184.773 107.373 184.388 108.852C183.208 107.297 181.702 106.021 179.978 105.115C178.254 104.208 176.353 103.693 174.409 103.606C172.272 103.523 170.107 104.186 168.248 103.593C166.359 102.991 164.569 101.41 162.687 100.519C155.523 97.3276 150.201 99.2192 142.751 98.2507C137.522 97.5544 138.322 97.1113 137.693 97.1113C137.56 97.1202 137.435 97.1782 137.342 97.274C137.249 97.3699 137.195 97.4968 137.189 97.6306C137.183 97.7644 137.227 97.8955 137.312 97.9988C137.396 98.1022 137.516 98.1704 137.648 98.1906C139.822 98.9249 142.087 99.3558 144.379 99.4713C151.514 100.015 155.94 98.6727 162.251 101.476C163.02 101.863 163.763 102.299 164.477 102.782C167.84 104.947 168.791 105.077 172.111 104.771C172.859 104.679 173.613 104.641 174.366 104.659C176.301 104.746 178.187 105.292 179.872 106.252C181.556 107.212 182.992 108.558 184.06 110.182C183.528 112.097 183.249 114.074 183.231 116.062C183.231 116.132 183.244 116.2 183.27 116.264C183.296 116.329 183.334 116.387 183.383 116.436C183.431 116.486 183.489 116.525 183.552 116.552C183.615 116.579 183.684 116.593 183.752 116.593C183.821 116.594 183.89 116.581 183.953 116.555C184.017 116.529 184.075 116.49 184.125 116.442C184.174 116.393 184.213 116.335 184.239 116.271C184.266 116.207 184.28 116.139 184.281 116.07C184.317 111.308 185.564 110.147 186.331 104.483C186.582 102.031 185.216 100.443 184.987 98.2929C184.777 96.3296 185.835 94.8114 185.285 92.5611C185.013 91.4396 183.711 88.3801 184.669 87.5804C185.705 86.7702 188.328 86.9 189.652 86.9474C190.683 87.0123 191.719 86.9802 192.744 86.8514C193.847 86.6777 194.97 86.6777 196.073 86.8514C197.044 87.0688 197.534 87.8706 197.764 89.6166C198.125 92.4556 197.705 94.8336 198.875 97.5818C195.991 98.2156 192.998 98.1564 190.141 97.4088C187.692 96.6935 188.252 97.9099 189.157 98.2085C190.12 98.5238 191.108 98.7547 192.111 98.8985C194.53 99.1757 196.977 99.0732 199.364 98.5946C200.368 100.296 201.207 102.09 201.869 103.953C202.565 106.405 202.518 108.964 203.296 111.498C204.603 115.764 206.227 121.075 203.101 124.831C200.714 127.689 196.155 128.432 192.933 128.742C177.509 130.245 160.913 122.218 145.897 130.303C145.834 130.334 145.778 130.378 145.732 130.431C145.686 130.485 145.651 130.547 145.63 130.615C145.608 130.682 145.601 130.753 145.607 130.823C145.613 130.894 145.634 130.962 145.667 131.025C145.7 131.087 145.746 131.142 145.8 131.186C145.855 131.231 145.918 131.263 145.986 131.283C146.053 131.302 146.124 131.308 146.194 131.299C146.264 131.29 146.331 131.268 146.392 131.232C155.416 126.379 165.131 127.533 175.276 128.834C183.431 129.88 198.628 131.828 203.906 125.509C207.398 121.31 205.608 115.459 204.301 111.186Z" fill="#3D4A56"/>
<path d="M90.1342 120.417C87.449 122.696 85.436 125.671 84.314 129.018C76.6334 131.724 66.2384 134.765 59.5033 139.271C54.6767 142.498 48.5721 148.666 42.5053 147.403C39.1477 146.699 37.9935 143.34 36.8907 140.092C36.2743 138.225 35.5383 136.399 34.6873 134.628C31.6906 128.003 31.2552 125.941 31.9855 117.943C32.1324 116.332 32.2803 114.673 32.3003 112.978C32.8281 113.065 33.3625 113.104 33.8972 113.096C36.8779 113.362 39.8818 113.09 42.7676 112.295C42.9016 112.256 43.015 112.166 43.0829 112.044C43.1508 111.922 43.1676 111.777 43.1296 111.643C43.0916 111.508 43.002 111.394 42.8804 111.326C42.7588 111.257 42.6152 111.24 42.4812 111.279C39.859 112.028 37.123 112.291 34.4072 112.054C33.6865 112.073 32.9658 112.018 32.2562 111.891C32.0012 108.409 30.5123 103.48 33.3726 102.956C34.6432 102.589 40.1928 101.725 42.6554 101.389C43.2805 101.297 43.9126 101.262 44.544 101.284C44.9167 101.297 45.271 101.45 45.5377 101.712C48.0244 104.26 46.1599 110.136 48.3843 113.656C51.0158 117.851 53.0315 119.775 55.1478 125.019C55.2003 125.149 55.3018 125.252 55.4301 125.307C55.5584 125.361 55.7029 125.362 55.8319 125.309C55.9609 125.256 56.0638 125.154 56.1179 125.025C56.172 124.896 56.1729 124.751 56.1205 124.621C55.0203 121.907 53.5931 119.339 51.871 116.975C53.631 114.351 56.1792 112.363 59.1434 111.3C61.989 110.343 65.355 110.275 68.0715 108.551C72.6588 105.646 73.8718 99.9226 78.1307 97.052C81.3435 94.8935 84.102 95.5961 87.7083 95.6267C87.7781 95.6287 87.8476 95.6165 87.9125 95.5908C87.9775 95.5651 88.0366 95.5264 88.0863 95.4771C88.136 95.4278 88.1752 95.3689 88.2017 95.304C88.2282 95.239 88.2413 95.1694 88.2403 95.0992C88.2403 94.9593 88.185 94.8251 88.0866 94.7262C87.9882 94.6273 87.8548 94.5717 87.7157 94.5717C84.0705 94.5147 81.0823 93.7984 77.5463 96.1753C73.0733 99.1884 71.832 104.92 67.5101 107.657C64.9919 109.253 61.7392 109.314 58.8013 110.294C55.7517 111.388 53.1098 113.398 51.233 116.05C50.6528 115.197 49.9676 114.208 49.2667 113.089C47.1881 109.802 49.1912 103.952 46.2826 100.971C45.8311 100.519 45.2261 100.255 44.5891 100.233C43.8954 100.207 43.2007 100.245 42.5137 100.346C40.0039 100.685 36.1332 101.279 33.6548 101.803C33.0194 98.5579 32.0073 95.3994 30.6393 92.3921C28.9458 89.4148 26.1789 89.2777 23.5474 88.0338C22.4121 87.5063 21.9189 86.9514 22.0406 86.3459C22.106 86.0036 22.3018 85.7005 22.5862 85.5013C22.8706 85.3021 23.2211 85.2224 23.5631 85.2792C24.2461 85.3065 24.923 85.4203 25.5777 85.6179C26.6273 85.9717 27.5907 86.5448 28.4044 87.2996C30.9478 89.3326 31.7557 89.3769 33.8605 89.1479C34.3633 89.0772 34.8718 89.0561 35.3788 89.0846C36.9805 89.2574 38.5276 89.7698 39.9179 90.588C39.9775 90.6288 40.0448 90.6568 40.1156 90.6702C40.1865 90.6837 40.2593 90.6823 40.3296 90.6662C40.3999 90.6501 40.4661 90.6196 40.5241 90.5766C40.5822 90.5336 40.6308 90.4791 40.6669 90.4163C40.7031 90.3536 40.726 90.2841 40.7342 90.2121C40.7424 90.1401 40.7358 90.0671 40.7147 89.9978C40.6937 89.9285 40.6586 89.8642 40.6118 89.8091C40.5649 89.754 40.5073 89.7092 40.4425 89.6775C38.9403 88.79 37.2681 88.2327 35.5362 88.0423C34.9376 87.9891 34.3349 88.0083 33.7409 88.0993C31.9141 88.2987 31.3664 88.3198 29.056 86.4746C28.129 85.6377 27.0413 85.0007 25.8599 84.603C25.1424 84.3926 24.4029 84.2672 23.6565 84.2295C23.0545 84.1424 22.4424 84.2936 21.9491 84.6511C21.4557 85.0087 21.1195 85.5447 21.0113 86.1465C20.7857 87.2785 21.4898 88.2354 23.1035 88.995C25.7718 90.261 28.2648 90.3464 29.7233 92.9101C31.0218 95.4723 31.9046 98.2269 32.338 101.069C32.3875 101.413 32.4991 101.744 32.6675 102.046C32.6675 102.056 32.6832 102.061 32.6895 102.071C29.3707 103.247 30.9247 108.253 31.2342 112.26C31.2391 114.128 31.1386 115.995 30.9331 117.851C30.1829 126.08 30.6718 128.32 33.7251 135.07C34.5626 136.811 35.2873 138.604 35.895 140.439C37.4909 145.125 39.0543 148.635 44.1768 148.635C50.0715 148.635 55.6084 143.149 60.0835 140.154C66.5805 135.808 77.1182 132.664 84.3706 130.12C84.4365 130.164 84.5116 130.191 84.59 130.201C84.6683 130.21 84.7478 130.202 84.8222 130.175C84.8966 130.149 84.9639 130.105 85.0188 130.048C85.0737 129.991 85.1148 129.922 85.1387 129.847C86.1666 126.485 88.1359 123.493 90.811 121.227C90.8669 121.184 90.9135 121.129 90.9479 121.067C90.9824 121.005 91.0039 120.936 91.0114 120.866C91.0188 120.795 91.0118 120.723 90.991 120.655C90.9702 120.587 90.9359 120.524 90.8903 120.47C90.8446 120.415 90.7884 120.371 90.7252 120.339C90.6619 120.307 90.5929 120.288 90.5223 120.284C90.4517 120.279 90.3809 120.289 90.3142 120.313C90.2475 120.337 90.1862 120.374 90.1342 120.422V120.417Z" fill="#3D4A56"/>
<path d="M131.133 21.997C132.434 22.0905 133.724 21.7059 134.764 20.9146C135.131 20.6899 135.448 20.3918 135.695 20.039C135.618 20.3235 135.61 20.6222 135.67 20.9107C135.731 21.1992 135.858 21.4692 136.042 21.6985C135.947 21.6843 135.85 21.6967 135.761 21.7343C134.321 22.4064 134.397 23.9235 135.638 24.8993C136.651 25.6768 137.883 26.1085 139.157 26.1316C139.226 26.1326 139.294 26.12 139.358 26.0945C139.422 26.0689 139.48 26.0309 139.53 25.9827C139.579 25.9344 139.619 25.8769 139.646 25.8133C139.673 25.7497 139.688 25.6813 139.689 25.612C139.69 25.5427 139.678 25.4739 139.652 25.4095C139.627 25.3451 139.589 25.2864 139.541 25.2367C139.493 25.187 139.436 25.1472 139.373 25.1198C139.309 25.0923 139.241 25.0776 139.172 25.0766C138.127 25.0572 137.115 24.7032 136.283 24.0659C136.129 23.9681 136 23.8354 135.907 23.6783C135.813 23.5212 135.758 23.3443 135.745 23.1618C135.774 22.936 136.01 22.782 136.203 22.6923C136.306 22.643 136.391 22.5607 136.443 22.4582C136.495 22.3557 136.511 22.2388 136.49 22.1257C137.879 23.0514 139.517 23.5275 141.183 23.4899C141.322 23.4869 141.454 23.4285 141.55 23.3275C141.647 23.2265 141.699 23.0912 141.696 22.9513C141.693 22.8114 141.635 22.6784 141.535 22.5815C141.434 22.4847 141.3 22.4319 141.161 22.4349C139.709 22.4583 138.284 22.0442 137.069 21.2459C136.91 21.139 136.791 20.983 136.729 20.8016C136.666 20.6202 136.665 20.4234 136.724 20.2411C136.784 20.0587 136.901 19.9009 137.058 19.7917C137.214 19.6824 137.403 19.6277 137.593 19.6359C137.64 19.6397 137.688 19.6355 137.734 19.6233C138.905 20.1218 140.171 20.3548 141.442 20.3059C141.581 20.3001 141.712 20.2391 141.806 20.1362C141.9 20.0333 141.95 19.897 141.944 19.7573C141.943 19.6877 141.927 19.6192 141.898 19.5559C141.87 19.4925 141.829 19.4356 141.778 19.3884C141.727 19.3412 141.667 19.3047 141.602 19.2811C141.537 19.2574 141.468 19.2472 141.399 19.2509C140.185 19.3168 138.973 19.0744 137.877 18.5461C137.597 18.4206 137.167 18.0967 137.204 17.8013C137.22 17.6652 137.398 17.5333 137.681 17.4479C137.749 17.4298 137.813 17.3982 137.869 17.3548C137.925 17.3115 137.971 17.2573 138.005 17.1955C138.04 17.1337 138.062 17.0656 138.069 16.9952C138.077 16.9248 138.07 16.8536 138.05 16.7858C138.03 16.718 137.996 16.6549 137.951 16.6005C137.906 16.5461 137.851 16.5013 137.788 16.4688C137.725 16.4364 137.657 16.417 137.587 16.4117C137.516 16.4065 137.446 16.4155 137.379 16.4382C137.117 16.472 136.869 16.5799 136.665 16.7492C136.461 16.9185 136.309 17.1425 136.227 17.3951C136.144 17.6478 136.134 17.9188 136.198 18.1768C136.262 18.4348 136.398 18.6693 136.589 18.8531C136.333 18.9989 136.114 19.2017 135.948 19.446C135.935 19.464 135.929 19.4851 135.918 19.503C135.906 19.3942 135.861 19.2917 135.788 19.2102C135.715 19.1287 135.619 19.0723 135.513 19.0489C135.406 19.0256 135.295 19.0365 135.196 19.0801C135.096 19.1238 135.012 19.1979 134.956 19.292C134.762 19.6041 134.494 19.8629 134.176 20.0453C133.331 20.7081 132.27 21.0297 131.201 20.9473C131.132 20.9426 131.063 20.9516 130.998 20.9737C130.932 20.9959 130.872 21.0308 130.82 21.0764C130.768 21.1221 130.725 21.1776 130.694 21.2398C130.664 21.302 130.646 21.3697 130.641 21.4389C130.636 21.5082 130.645 21.5777 130.667 21.6435C130.689 21.7093 130.724 21.7701 130.769 21.8224C130.815 21.8748 130.87 21.9176 130.932 21.9484C130.994 21.9793 131.061 21.9976 131.13 22.0023L131.133 21.997Z" fill="#3D4A56"/>
</svg>
