<svg width="250" height="250" viewBox="0 0 250 250" fill="none" xmlns="http://www.w3.org/2000/svg">
<g clip-path="url(#clip0_804_3418)">
<path fill-rule="evenodd" clip-rule="evenodd" d="M124.48 141.511C124.48 141.511 129.19 137.933 140.753 134.367L185.672 135.949C185.672 135.949 192.434 139.682 195.057 155.289C197.681 170.895 196.131 184.015 178.692 186.957L124.48 141.511Z" fill="#7ED6ED"/>
<path d="M140.406 133.894C129.003 137.431 124.325 140.929 124.127 141.077C124.011 141.168 123.936 141.301 123.919 141.445C123.902 141.59 123.945 141.734 124.038 141.849C124.131 141.963 124.267 142.037 124.417 142.056C124.566 142.074 124.717 142.035 124.837 141.947C124.884 141.912 129.602 138.403 140.834 134.924C140.834 134.924 140.495 134.055 140.406 133.894Z" fill="#3D4A56"/>
<path d="M208.615 212.601C208.281 212.601 216.118 219.032 39.5356 71.0281C39.4206 70.9317 39.35 70.7952 39.3393 70.6487C39.334 70.5761 39.3436 70.5032 39.3675 70.4342C39.3914 70.3652 39.4292 70.3015 39.4787 70.2465C39.5282 70.1916 39.5884 70.1466 39.6559 70.1142C39.7234 70.0817 39.7969 70.0624 39.8721 70.0573C40.0241 70.047 40.1741 70.0953 40.2891 70.1917L208.992 211.628C209.08 211.702 209.143 211.801 209.172 211.91C209.201 212.02 209.195 212.135 209.154 212.241C209.113 212.347 209.039 212.438 208.943 212.502C208.847 212.567 208.732 212.601 208.615 212.601Z" fill="#3D4A56"/>
<path fill-rule="evenodd" clip-rule="evenodd" d="M42.2539 131.694V137.732L83.8851 180.47C84.9918 181.584 86.4643 182.294 88.0524 182.48C90.5794 182.701 131.396 170.318 131.396 170.318L130.354 165.333L90.7723 177.705C90.7723 177.705 88.0501 180.464 81.821 173.783C77.2529 168.892 42.2539 131.694 42.2539 131.694Z" fill="#E2F9FE"/>
<path fill-rule="evenodd" clip-rule="evenodd" d="M83.6424 120.801L137.453 163.264L92.6776 177.376C92.6776 177.376 87.4777 179.148 84.9897 176.421C82.9222 174.163 44.838 135.335 44.838 135.335C44.838 135.335 40.3744 131.641 43.169 130.571C46.0716 129.455 43.8766 130.08 83.6424 120.801Z" fill="white"/>
<path d="M67.207 138.804C67.207 138.804 67.5677 144.092 71.6672 144.693C75.7667 145.295 82.191 142.021 87.6884 144.092C93.1858 146.162 97.8825 146.591 96.8901 152.566C95.8977 158.541 93.8428 164.663 99.6997 165.243C105.557 165.824 111.95 159.301 110.343 155.938C108.736 152.575 104.777 136.671 92.6275 138.806C80.4784 140.942 72.1301 145.915 67.207 138.804Z" fill="#E2F9FE"/>
<path fill-rule="evenodd" clip-rule="evenodd" d="M142.333 13.1364C142.333 13.1364 148.88 2.25917 164.746 5.6578C180.612 9.05644 184.184 15.096 186.58 25.0903C188.976 35.0846 182.414 36.5258 188.596 43.2245C194.778 49.9232 202.074 49.726 201.354 58.2259C200.634 66.7258 200.821 69.0433 204.154 74.8558C207.488 80.6682 203.483 87.8942 199.71 92.0406L131.632 73.8976C131.632 73.8976 128.32 65.2891 132.266 60.344C132.266 60.344 127.442 62.1297 124.266 59.9961C124.266 59.9961 129.58 59.6372 129.989 55.122C130.398 50.6067 123.427 46.7993 128.452 40.6102C133.478 34.4211 131.256 36.4793 131.333 30.5915C131.41 24.7037 135.629 25.3074 136.41 22.9102L142.333 13.1364Z" fill="#FAD353"/>
<path fill-rule="evenodd" clip-rule="evenodd" d="M117.705 98.4951L113.901 105.289C109.523 104.181 97.1152 110.408 90.2337 111.041C83.3522 111.673 79.6846 108.251 74.286 107.544C68.8874 106.838 64.6846 111.881 63.2132 116.55C62.695 118.021 62.4918 119.579 62.616 121.128C62.7402 122.677 63.1891 124.186 63.9357 125.563C64.657 127.213 63.4417 129.662 65.8401 128.621C68.2384 127.58 65.8401 121.691 67.3333 119.039C68.8266 116.387 75.5024 114.588 77.2461 115.793C78.7267 116.815 77.4172 119.872 75.4082 121.506C74.3056 122.404 70.6184 123.596 68.5911 128.057C67.6377 130.153 69.0919 130.31 70.1463 129.66C74.827 126.771 78.0719 127.367 80.2704 126.406C82.5964 125.388 84.966 123.16 90.2188 120.8C94.5066 118.875 116.234 123.569 123.279 121.694C127.146 120.664 132.069 109.427 132.069 109.427L117.705 98.4951Z" fill="#FCE0D1"/>
<path fill-rule="evenodd" clip-rule="evenodd" d="M148.297 61.1165C148.297 61.1165 133.848 68.6083 127.514 75.9694C121.181 83.3306 114.338 90.7548 114.338 90.7548C114.338 90.7548 116.347 103.452 131.492 109.102C131.492 109.102 134.729 124.216 140.681 134.359C140.681 134.359 153.316 144.719 175.6 137.435V126.19C175.6 126.19 197.762 127.974 210.289 118.538C210.289 118.538 202.248 92.9128 193.042 80.9466C187.463 73.7267 180.277 67.8055 172.011 63.6189L148.297 61.1165Z" fill="#8DE3A7"/>
<g opacity="0.75">
<path d="M185.344 74.0884C185.343 74.5609 185.198 75.0227 184.925 75.4154C184.653 75.808 184.266 76.1139 183.813 76.2944C183.36 76.475 182.862 76.522 182.382 76.4295C181.901 76.3371 181.46 76.1093 181.114 75.7751C180.767 75.4408 180.532 75.015 180.436 74.5516C180.341 74.0881 180.39 73.6078 180.577 73.1713C180.765 72.7348 181.083 72.3618 181.49 72.0993C181.897 71.8369 182.376 71.6968 182.866 71.6968C183.192 71.6969 183.514 71.7589 183.815 71.8792C184.115 71.9994 184.389 72.1756 184.619 72.3977C184.849 72.6198 185.031 72.8834 185.156 73.1735C185.28 73.4636 185.344 73.7745 185.344 74.0884Z" fill="white"/>
<path d="M143.088 90.8112C143.088 91.2838 142.942 91.7456 142.669 92.1383C142.397 92.5309 142.01 92.8368 141.557 93.0173C141.104 93.1978 140.606 93.2447 140.125 93.1522C139.645 93.0597 139.204 92.8318 138.857 92.4974C138.511 92.1631 138.275 91.7372 138.18 91.2737C138.085 90.8102 138.134 90.3298 138.322 89.8933C138.51 89.4569 138.827 89.0839 139.235 88.8216C139.643 88.5592 140.122 88.4193 140.612 88.4196C141.269 88.4201 141.899 88.6724 142.363 89.1209C142.828 89.5694 143.088 90.1774 143.088 90.8112Z" fill="white"/>
<path d="M123.706 83.1905C124.239 83.1882 124.758 83.0204 125.184 82.7119C125.611 82.4034 125.923 81.9706 126.075 81.4776C126.226 80.9846 126.21 80.4576 126.026 79.9746C125.843 79.4917 125.504 79.0784 125.058 78.796C124.002 80.0041 122.94 81.2079 121.873 82.4074C122.105 82.6545 122.388 82.8519 122.703 82.9868C123.019 83.1218 123.361 83.1912 123.706 83.1905Z" fill="white"/>
<path d="M154.716 80.799C154.716 81.2716 154.57 81.7334 154.298 82.1261C154.025 82.5187 153.638 82.8246 153.185 83.0051C152.732 83.1856 152.234 83.2325 151.754 83.14C151.273 83.0475 150.832 82.8196 150.486 82.4852C150.139 82.1509 149.904 81.725 149.809 81.2615C149.713 80.798 149.763 80.3176 149.95 79.8811C150.138 79.4447 150.456 79.0717 150.863 78.8094C151.271 78.547 151.75 78.4071 152.24 78.4073C152.897 78.4079 153.527 78.6602 153.992 79.1087C154.456 79.5572 154.717 80.1652 154.716 80.799Z" fill="white"/>
<path d="M156.806 137.767C156.805 138.24 156.66 138.702 156.387 139.094C156.114 139.487 155.727 139.793 155.274 139.974C154.822 140.154 154.323 140.201 153.843 140.108C153.363 140.016 152.921 139.788 152.575 139.454C152.229 139.119 151.993 138.693 151.898 138.23C151.803 137.766 151.852 137.286 152.04 136.85C152.228 136.413 152.545 136.04 152.953 135.778C153.36 135.515 153.839 135.376 154.329 135.376C154.987 135.376 155.617 135.629 156.081 136.077C156.545 136.526 156.806 137.134 156.806 137.767Z" fill="white"/>
<path d="M136.838 126.4C137.43 127.87 138.071 129.321 138.76 130.751C139.106 130.665 139.428 130.508 139.705 130.291C139.982 130.074 140.207 129.802 140.365 129.493C140.523 129.184 140.61 128.846 140.619 128.502C140.629 128.157 140.562 127.815 140.422 127.498C140.282 127.182 140.073 126.898 139.809 126.666C139.545 126.434 139.232 126.261 138.892 126.156C138.551 126.052 138.192 126.02 137.837 126.062C137.483 126.104 137.142 126.219 136.838 126.4Z" fill="white"/>
<path d="M143.007 64.1016C141.669 64.9011 140.348 65.7262 139.044 66.5763C139.451 66.8956 139.952 67.0824 140.476 67.1098C140.999 67.1372 141.518 67.0039 141.959 66.729C142.399 66.4541 142.737 66.0517 142.926 65.5797C143.114 65.1076 143.142 64.5901 143.007 64.1016Z" fill="white"/>
<path d="M127.468 97.0183C127.468 97.4908 127.322 97.9526 127.05 98.3453C126.777 98.738 126.39 99.0439 125.937 99.2244C125.484 99.4048 124.986 99.4518 124.506 99.3592C124.025 99.2667 123.584 99.0388 123.238 98.7045C122.891 98.3701 122.656 97.9442 122.56 97.4807C122.465 97.0172 122.515 96.5368 122.702 96.1004C122.89 95.6639 123.208 95.2909 123.615 95.0286C124.023 94.7663 124.502 94.6264 124.992 94.6266C125.649 94.6272 126.279 94.8795 126.744 95.3279C127.208 95.7764 127.469 96.3844 127.468 97.0183Z" fill="white"/>
<path d="M201.552 95.888C200.992 94.6694 200.414 93.4509 199.821 92.2611C199.379 92.1965 198.927 92.2484 198.513 92.4115C198.099 92.5745 197.738 92.8426 197.469 93.1872C197.201 93.5318 197.033 93.9402 196.986 94.3689C196.938 94.7977 197.012 95.231 197.199 95.6227C197.386 96.0144 197.679 96.35 198.048 96.594C198.416 96.8379 198.847 96.9811 199.293 97.0083C199.739 97.0355 200.185 96.9457 200.583 96.7485C200.98 96.5512 201.315 96.2539 201.552 95.888Z" fill="white"/>
<path d="M168.149 89.8435C168.149 90.3159 168.003 90.7777 167.73 91.1704C167.458 91.563 167.071 91.8689 166.618 92.0495C166.165 92.23 165.667 92.277 165.187 92.1845C164.706 92.0921 164.265 91.8643 163.919 91.5301C163.572 91.1958 163.337 90.77 163.241 90.3066C163.146 89.8431 163.195 89.3628 163.383 88.9263C163.57 88.4898 163.888 88.1168 164.295 87.8543C164.703 87.5919 165.182 87.4518 165.671 87.4518C165.997 87.4519 166.319 87.5139 166.62 87.6342C166.921 87.7544 167.194 87.9307 167.424 88.1527C167.654 88.3748 167.836 88.6384 167.961 88.9285C168.085 89.2186 168.149 89.5295 168.149 89.8435Z" fill="white"/>
<path d="M175.057 107.437C175.057 107.91 174.911 108.372 174.639 108.765C174.366 109.157 173.979 109.464 173.526 109.644C173.073 109.825 172.575 109.872 172.095 109.78C171.614 109.687 171.173 109.459 170.826 109.125C170.48 108.791 170.244 108.365 170.149 107.901C170.054 107.438 170.103 106.957 170.291 106.521C170.478 106.084 170.796 105.711 171.204 105.449C171.611 105.186 172.09 105.047 172.58 105.047C173.237 105.047 173.867 105.299 174.332 105.748C174.796 106.196 175.057 106.804 175.057 107.437Z" fill="white"/>
<path d="M137.377 108.978C137.377 109.45 137.231 109.912 136.958 110.305C136.686 110.697 136.299 111.003 135.846 111.184C135.393 111.364 134.895 111.411 134.415 111.319C133.934 111.226 133.493 110.999 133.147 110.664C132.8 110.33 132.565 109.904 132.469 109.441C132.374 108.978 132.423 108.497 132.611 108.061C132.798 107.624 133.116 107.251 133.523 106.989C133.931 106.726 134.41 106.586 134.899 106.586C135.225 106.586 135.547 106.648 135.848 106.769C136.149 106.889 136.422 107.065 136.652 107.287C136.882 107.509 137.064 107.773 137.189 108.063C137.313 108.353 137.377 108.664 137.377 108.978Z" fill="white"/>
<path d="M153.002 120.49C153.001 120.963 152.856 121.425 152.583 121.818C152.311 122.21 151.924 122.516 151.471 122.697C151.018 122.878 150.52 122.925 150.04 122.832C149.559 122.74 149.118 122.512 148.771 122.178C148.425 121.844 148.189 121.418 148.094 120.954C147.998 120.491 148.048 120.01 148.235 119.574C148.423 119.137 148.741 118.764 149.148 118.502C149.556 118.239 150.035 118.099 150.525 118.1C151.182 118.1 151.812 118.352 152.276 118.801C152.741 119.249 153.002 119.857 153.002 120.49Z" fill="white"/>
<path d="M155.476 105.047C155.475 105.519 155.329 105.981 155.057 106.373C154.784 106.765 154.397 107.071 153.944 107.251C153.492 107.431 152.994 107.477 152.514 107.385C152.034 107.292 151.593 107.064 151.247 106.73C150.901 106.396 150.666 105.97 150.571 105.507C150.476 105.044 150.525 104.564 150.712 104.128C150.9 103.692 151.217 103.319 151.625 103.057C152.032 102.794 152.51 102.654 153 102.654C153.325 102.655 153.648 102.717 153.948 102.837C154.249 102.957 154.522 103.134 154.752 103.356C154.982 103.578 155.165 103.842 155.289 104.132C155.413 104.422 155.477 104.733 155.476 105.047Z" fill="white"/>
<path d="M189.107 115.708C189.107 116.18 188.961 116.642 188.688 117.035C188.416 117.427 188.029 117.733 187.576 117.914C187.123 118.094 186.625 118.141 186.145 118.049C185.664 117.956 185.223 117.728 184.877 117.394C184.53 117.06 184.295 116.634 184.199 116.171C184.104 115.707 184.153 115.227 184.341 114.79C184.528 114.354 184.846 113.981 185.253 113.718C185.661 113.456 186.14 113.316 186.629 113.316C187.287 113.317 187.917 113.569 188.382 114.017C188.846 114.466 189.107 115.074 189.107 115.708Z" fill="white"/>
<path d="M186.63 93.2026C186.629 93.6751 186.483 94.1369 186.211 94.5296C185.938 94.9223 185.551 95.2282 185.098 95.4087C184.645 95.5892 184.147 95.6361 183.667 95.5436C183.186 95.451 182.745 95.2232 182.399 94.8888C182.053 94.5544 181.817 94.1286 181.722 93.665C181.626 93.2015 181.676 92.7212 181.863 92.2847C182.051 91.8482 182.369 91.4752 182.777 91.2129C183.184 90.9506 183.663 90.8107 184.153 90.8109C184.81 90.8115 185.44 91.0638 185.905 91.5123C186.369 91.9608 186.63 92.5688 186.63 93.2026Z" fill="white"/>
<path d="M205.493 119.741C205.493 120.213 205.348 120.675 205.075 121.068C204.803 121.461 204.416 121.767 203.963 121.948C203.51 122.128 203.012 122.175 202.532 122.083C202.051 121.991 201.61 121.763 201.263 121.429C200.917 121.095 200.681 120.669 200.586 120.205C200.49 119.742 200.539 119.262 200.727 118.825C200.914 118.388 201.232 118.015 201.639 117.753C202.047 117.49 202.526 117.35 203.016 117.35C203.673 117.351 204.303 117.603 204.767 118.051C205.232 118.499 205.493 119.107 205.493 119.741Z" fill="white"/>
<path d="M170.958 122.133C170.957 122.605 170.812 123.067 170.539 123.46C170.266 123.852 169.879 124.158 169.426 124.338C168.973 124.519 168.475 124.565 167.995 124.473C167.514 124.38 167.073 124.152 166.727 123.818C166.381 123.483 166.145 123.057 166.05 122.594C165.955 122.13 166.004 121.65 166.192 121.214C166.38 120.777 166.698 120.404 167.105 120.142C167.513 119.88 167.992 119.74 168.482 119.74C168.807 119.74 169.129 119.803 169.43 119.923C169.731 120.043 170.004 120.22 170.234 120.442C170.464 120.664 170.646 120.928 170.77 121.218C170.895 121.508 170.958 121.819 170.958 122.133Z" fill="white"/>
</g>
<path fill-rule="evenodd" clip-rule="evenodd" d="M151.704 61.1851L156.239 72.4555L166.325 66.0127L162.256 56.4438C164.058 55.0657 165.731 53.5373 167.256 51.8765C172.914 45.714 174.141 31.6996 174.764 25.156C176.215 9.89421 145.999 1.57375 137.916 18.8239C133.225 28.8371 138.116 32.8339 138.325 35.6465C138.579 39.0419 137.998 38.1113 137.001 42.6078C136.004 47.1042 139.203 49.5324 141.585 52.3883C144.304 55.6429 147.674 61.1474 151.704 61.1851Z" fill="#FCE0D1"/>
<path d="M144.03 32.156C143.946 32.1562 143.863 32.1387 143.786 32.1046C143.71 32.0705 143.643 32.0208 143.589 31.9588C142.69 30.9432 141.485 30.2223 140.143 29.8961C139.721 29.7911 139.276 29.8176 138.871 29.9718C138.465 30.126 138.121 30.4001 137.888 30.7546C137.821 30.8869 137.702 30.988 137.558 31.0359C137.414 31.0838 137.256 31.0745 137.119 31.01C136.982 30.9455 136.877 30.8311 136.827 30.692C136.778 30.553 136.787 30.4005 136.854 30.2683C137.192 29.7022 137.708 29.2547 138.328 28.9907C138.948 28.7268 139.638 28.6602 140.3 28.8005C141.928 29.1625 143.39 30.0234 144.468 31.2542C144.536 31.3351 144.579 31.4326 144.592 31.5357C144.605 31.6389 144.587 31.7434 144.541 31.8374C144.496 31.9315 144.423 32.0112 144.333 32.0675C144.242 32.1239 144.137 32.1545 144.03 32.156Z" fill="#3D4A56"/>
<path d="M163.432 35.1729C163.286 35.173 163.145 35.1191 163.038 35.0223C163.003 34.989 159.427 31.7721 156.32 31.638C155.511 31.5543 154.693 31.6455 153.926 31.905C153.158 32.1644 152.46 32.5856 151.883 33.138C151.836 33.1961 151.777 33.2446 151.711 33.2807C151.645 33.3167 151.571 33.3397 151.495 33.3482C151.42 33.3566 151.343 33.3505 151.27 33.33C151.196 33.3095 151.128 33.2752 151.069 33.229C151.009 33.1827 150.96 33.1256 150.924 33.0608C150.888 32.996 150.865 32.9249 150.858 32.8517C150.85 32.7785 150.858 32.7045 150.881 32.6342C150.903 32.5639 150.94 32.4987 150.989 32.4423C151.675 31.7487 152.517 31.2158 153.45 30.8846C154.383 30.5534 155.383 30.4326 156.372 30.5314C159.907 30.6842 163.668 34.0762 163.826 34.2158C163.91 34.2919 163.968 34.3905 163.993 34.4989C164.018 34.6072 164.009 34.7203 163.966 34.8234C163.924 34.9266 163.85 35.015 163.755 35.0774C163.66 35.1397 163.547 35.173 163.432 35.1729Z" fill="#3D4A56"/>
<path d="M144.188 48.807C141.151 47.1875 144.819 40.1343 145.585 38.7363C145.658 38.6097 145.779 38.5157 145.923 38.4745C146.067 38.4332 146.222 38.448 146.355 38.5157C146.488 38.5833 146.588 38.6985 146.634 38.8364C146.68 38.9744 146.668 39.1242 146.6 39.2536C144.915 42.3299 143.224 47.028 144.744 47.8377C146.984 49.0341 148.844 46.9515 148.922 46.8574C148.97 46.8015 149.03 46.7555 149.097 46.7218C149.163 46.6881 149.237 46.6675 149.312 46.6611C149.387 46.6547 149.463 46.6627 149.535 46.6846C149.607 46.7065 149.674 46.7419 149.732 46.7887C150.264 47.243 150.943 47.5063 151.653 47.5342C151.784 47.5102 151.906 47.4568 152.011 47.3782C152.116 47.2996 152.2 47.1982 152.256 47.0823C152.291 47.0138 152.34 46.953 152.4 46.9035C152.459 46.854 152.529 46.817 152.605 46.7948C152.68 46.7726 152.76 46.7656 152.838 46.7743C152.917 46.7829 152.992 46.8071 153.061 46.8453C153.129 46.8834 153.188 46.9348 153.235 46.996C153.282 47.0573 153.315 47.1272 153.333 47.2014C153.35 47.2757 153.352 47.3526 153.337 47.4273C153.322 47.5021 153.292 47.5732 153.247 47.6361C152.407 49.0264 150.835 48.8447 149.431 47.9441C148.777 48.6248 147.909 49.0784 146.961 49.2345C146.013 49.3905 145.039 49.2403 144.188 48.807Z" fill="#3D4A56"/>
<path d="M147.567 53.2302C147.063 53.0737 146.599 52.8148 146.207 52.4708C145.815 52.1268 145.504 51.7058 145.295 51.2362C145.247 51.0986 145.256 50.9482 145.322 50.8173C145.387 50.6864 145.503 50.5855 145.645 50.5364C145.787 50.4872 145.943 50.4938 146.08 50.5547C146.216 50.6156 146.323 50.7259 146.376 50.8618C146.529 51.1794 146.75 51.4622 147.024 51.6913C147.299 51.9205 147.62 52.0908 147.968 52.1911C149.15 52.5711 151.38 52.5157 155.292 50.1041C155.355 50.0629 155.427 50.0343 155.502 50.0201C155.577 50.0059 155.654 50.0063 155.729 50.0213C155.804 50.0363 155.875 50.0656 155.938 50.1075C156.001 50.1493 156.055 50.2029 156.096 50.265C156.137 50.3272 156.165 50.3967 156.178 50.4694C156.191 50.5421 156.189 50.6166 156.172 50.6885C156.155 50.7604 156.123 50.8282 156.078 50.888C156.033 50.9479 155.976 50.9984 155.911 51.0368C153.556 52.4869 150.209 54.1042 147.567 53.2302Z" fill="#3D4A56"/>
<path fill-rule="evenodd" clip-rule="evenodd" d="M121.547 172.759C122.371 171.319 126.379 168.047 123.261 166.616C118.863 164.598 114.339 169.157 110.592 169.147C106.846 169.137 114.339 162.536 119.033 160.474C123.726 158.412 131.135 158.695 138.789 159.588C146.444 160.481 159.521 152.351 163.775 149.166C167.213 146.713 170.786 144.442 174.48 142.363C175.602 138.73 175.596 126.19 175.596 126.19C182.157 126.854 188.788 126.394 195.183 124.833C195.183 124.833 192.744 150.624 187.513 154.964C182.282 159.304 149.443 167.604 142.175 170.623C134.908 173.643 133.125 179.563 130.115 181.147C127.104 182.731 121.748 182.36 121.748 182.36C121.748 182.36 114.344 192.648 112.464 192.72C110.583 192.792 112.464 189.268 114.344 184.14C114.552 183.582 114.79 183.034 115.058 182.5C111.475 182.006 108.167 180.368 105.664 177.847L121.547 172.759Z" fill="#FCE0D1"/>
<path d="M150.634 57.287C149.681 56.9054 148.688 56.6213 147.673 56.4396C147.522 56.422 147.384 56.3471 147.29 56.2315C147.196 56.1159 147.153 55.969 147.172 55.8231C147.19 55.6772 147.268 55.5443 147.387 55.4537C147.507 55.363 147.66 55.3219 147.811 55.3396C148.921 55.5279 150.006 55.8344 151.045 56.2535C151.182 56.3097 151.291 56.4149 151.349 56.5469C151.407 56.679 151.41 56.8275 151.356 56.9614C151.303 57.0953 151.198 57.204 151.063 57.2647C150.929 57.3255 150.775 57.3335 150.634 57.287Z" fill="#3D4A56"/>
<path fill-rule="evenodd" clip-rule="evenodd" d="M140.915 35.547C141.638 35.2147 142.712 35.9104 143.31 37.1101C143.909 38.3098 143.805 39.5527 143.081 39.8884C142.356 40.2241 141.284 39.5251 140.686 38.3253C140.087 37.1256 140.192 35.8816 140.915 35.547Z" fill="#3D4A56"/>
<path fill-rule="evenodd" clip-rule="evenodd" d="M155.378 37.286C156.136 36.8573 157.319 37.4422 158.014 38.5887C158.709 39.7353 158.662 41.0147 157.899 41.4446C157.136 41.8744 155.959 41.2884 155.257 40.1418C154.555 38.9953 154.617 37.7158 155.378 37.286Z" fill="#3D4A56"/>
<path d="M161.918 84.6806C161.71 84.5034 161.608 84.4158 161.756 84.1168C161.526 82.8539 157.292 74.8735 156.128 73.1731C154.749 74.1701 149.819 78.3796 146.737 81.0571C146.658 81.1256 146.561 81.1716 146.456 81.1901C146.352 81.2087 146.244 81.1989 146.145 81.1619C146.046 81.125 145.96 81.0623 145.895 80.9808C145.831 80.8993 145.791 80.8023 145.781 80.7004C144.953 72.6491 151.096 61.5603 151.357 61.0929C151.41 60.9996 151.489 60.9227 151.585 60.8714C151.681 60.82 151.79 60.7964 151.9 60.8033C152.01 60.8102 152.115 60.8473 152.204 60.9102C152.292 60.9731 152.36 61.0592 152.399 61.1582L156.534 71.6122L166.716 65.1052C166.843 65.024 166.998 64.9947 167.148 65.0239C167.297 65.0531 167.428 65.1383 167.512 65.2608C167.597 65.3834 167.627 65.5331 167.597 65.6772C167.567 65.8213 167.478 65.9478 167.351 66.0291L157.047 72.6137C159.128 75.9441 160.972 79.4068 162.567 82.978C164.355 80.6439 170.776 72.5206 172.178 69.5108C172.24 69.3767 172.355 69.272 172.498 69.2197C172.64 69.1675 172.798 69.172 172.937 69.2322C173.077 69.2924 173.185 69.4035 173.239 69.5409C173.293 69.6783 173.289 69.8309 173.226 69.965C171.618 73.4212 163.88 83.0799 162.869 84.4469C162.835 84.5335 162.779 84.6109 162.708 84.6726C162.636 84.7343 162.55 84.7784 162.456 84.8013C162.363 84.8242 162.266 84.8252 162.172 84.8042C162.078 84.7832 161.991 84.7408 161.918 84.6806ZM151.784 62.7235C150.343 65.5616 146.73 73.3193 146.851 79.4619C152.468 74.5877 154.636 72.8552 155.543 72.2381L151.784 62.7235Z" fill="#3D4A56"/>
<path fill-rule="evenodd" clip-rule="evenodd" d="M176.919 17.035C166.775 1.00335 150.19 6.01823 144.287 8.62259C135.84 12.3502 133.266 22.586 134.16 24.4958C136.308 29.0886 161.943 30.4778 166.659 27.8446C166.659 27.8446 164.409 33.2727 166.234 36.9582C168.059 40.6438 169.938 43.092 167.812 45.8725C165.686 48.653 160.103 52.9522 162.488 59.5047C164.874 66.0572 167.932 71.2038 178.696 69.5754C178.696 69.5754 170.211 62.9643 173.237 58.0546C176.264 53.145 181.333 51.3449 179.785 46.3931C178.236 41.4414 174.46 38.374 176.151 33.481C177.843 28.5879 180.114 22.0864 176.919 17.035Z" fill="#FAD353"/>
<path d="M146.172 24.5324C146.021 24.5324 145.876 24.475 145.769 24.3725C145.661 24.2701 145.6 24.1309 145.598 23.9852C145.538 19.3237 148.691 13.3506 148.825 13.1013C148.894 12.9706 149.015 12.8719 149.16 12.8269C149.305 12.7819 149.463 12.7944 149.598 12.8615C149.734 12.9286 149.836 13.0449 149.883 13.1849C149.929 13.3248 149.916 13.4768 149.847 13.6076C149.816 13.6674 146.69 19.5895 146.745 23.9708C146.747 24.044 146.733 24.1168 146.704 24.1848C146.676 24.2529 146.634 24.3148 146.581 24.367C146.527 24.4193 146.464 24.4608 146.394 24.4892C146.324 24.5176 146.248 24.5323 146.172 24.5324Z" fill="#3D4A56"/>
<path d="M161.736 26.5932H161.709C161.634 26.5899 161.56 26.5723 161.492 26.5415C161.423 26.5107 161.362 26.4672 161.311 26.4135C161.26 26.3598 161.221 26.2969 161.195 26.2286C161.169 26.1602 161.158 26.0876 161.161 26.0149C161.474 23.0882 161.998 20.1862 162.73 17.33C162.747 17.2579 162.778 17.1898 162.822 17.1295C162.866 17.0691 162.922 17.0179 162.986 16.9787C163.051 16.9396 163.123 16.9133 163.199 16.9014C163.274 16.8895 163.351 16.8923 163.426 16.9095C163.5 16.9268 163.57 16.9582 163.632 17.0019C163.693 17.0456 163.745 17.1007 163.784 17.164C163.824 17.2273 163.849 17.2975 163.86 17.3706C163.871 17.4436 163.866 17.5179 163.847 17.5892C163.136 20.3776 162.622 23.2093 162.309 26.0648C162.302 26.207 162.239 26.3413 162.132 26.4397C162.025 26.5381 161.883 26.593 161.736 26.5932Z" fill="#3D4A56"/>
<path d="M179.055 69.1473C178.974 69.0841 170.991 62.7809 173.727 58.3421C176.713 53.4934 180.893 50.9721 179.24 45.7135C177.651 40.651 173.596 39.0381 176.771 33.3906C176.809 33.3266 176.834 33.2557 176.843 33.1822C176.853 33.1087 176.847 33.0342 176.826 32.9629C176.805 32.8917 176.77 32.8252 176.722 32.7673C176.674 32.7095 176.615 32.6616 176.547 32.6263C176.479 32.5911 176.405 32.5692 176.329 32.5621C176.252 32.5549 176.175 32.5626 176.102 32.5847C176.029 32.6068 175.961 32.6429 175.902 32.6907C175.844 32.7386 175.796 32.7973 175.761 32.8633C172.244 39.12 176.631 41.2193 178.141 46.0347C179.596 50.6796 175.793 52.8143 172.737 57.7771C170.118 62.0265 175.143 67.2087 177.362 69.1927C167.829 70.2207 165.21 65.3266 163.023 59.3247C161.366 54.7706 163.672 51.4118 166.88 47.8293C167.397 47.2511 167.886 46.706 168.268 46.2053C170.64 43.1036 168.557 40.3818 166.745 36.7217C165.153 33.5092 166.921 28.7303 167.159 28.1188C168.405 26.2777 169.176 24.176 169.408 21.9889C169.64 19.8019 169.327 17.593 168.494 15.5467C168.433 15.412 168.319 15.3061 168.177 15.2524C168.035 15.1987 167.877 15.2016 167.737 15.2603C167.598 15.3191 167.488 15.429 167.432 15.5658C167.376 15.7026 167.379 15.8551 167.44 15.9898C168.176 17.8539 168.453 19.8576 168.248 21.8425C168.042 23.8274 167.361 25.739 166.258 27.4264C161.426 29.8879 136.583 28.368 134.671 24.2737C134.606 24.1443 134.491 24.0445 134.35 23.9954C134.21 23.9463 134.056 23.9517 133.919 24.0106C133.783 24.0695 133.676 24.1772 133.621 24.3109C133.566 24.4445 133.567 24.5937 133.623 24.7268C133.99 25.4401 134.578 26.0255 135.306 26.4017C135.173 31.2837 137.603 33.8858 137.738 35.6882C137.934 36.8315 137.813 38.0046 137.386 39.0879C135.281 45.1385 136.03 47.0639 139.913 51.3587C140.858 52.385 141.748 53.4572 142.579 54.5712C144.876 57.5334 148.024 61.7429 151.743 61.7429C154.259 61.7429 157.795 60.2906 161.433 57.7428C161.536 58.4071 161.705 59.0604 161.937 59.6935C163.935 65.1759 166.628 70.4323 175.032 70.4312C176.287 70.4241 177.54 70.323 178.779 70.1287C178.89 70.1135 178.993 70.0672 179.078 69.9955C179.162 69.9239 179.222 69.8302 179.252 69.7258C179.281 69.6214 179.278 69.511 179.243 69.4082C179.208 69.3054 179.143 69.2147 179.055 69.1473ZM161.332 56.4367C157.235 59.4277 153.159 61.045 150.885 60.5476C147.541 59.8209 144.316 54.7872 142.028 52.04C139.538 49.0556 136.629 46.8988 137.556 42.7225C138.542 38.2815 139.156 39.1378 138.892 35.6062C138.744 33.5989 136.517 31.2205 136.46 26.9578C142.985 29.6508 159.762 30.5714 165.708 28.8178C165.134 30.6799 164.311 34.3721 165.708 37.1992C167.51 40.8415 169.245 43.0571 167.343 45.5462C165.617 47.8127 161.29 51.3421 161.332 56.4367Z" fill="#3D4A56"/>
<path fill-rule="evenodd" clip-rule="evenodd" d="M35.0672 124.997V128.77C35.0672 128.77 33.8359 133.43 23.0456 134.299C12.2553 135.167 9.19417 128.77 9.19417 128.77L7.44824 102.578C7.44824 102.578 7.44824 96.8409 19.1127 95.8959C33.8152 94.704 33.829 101.324 33.829 101.324L33.9381 105.891C35.8747 104.873 39.8031 103.108 42.9997 104.707C47.5414 106.982 45.0179 119.036 35.0672 124.997ZM33.945 111.175L34.5113 120.299C34.5113 120.299 43.11 113.999 41.7672 109.111C40.6668 105.096 33.945 111.175 33.945 111.175Z" fill="#7ED6ED"/>
<path fill-rule="evenodd" clip-rule="evenodd" d="M70.1584 129.661C69.1039 130.311 67.6497 130.154 68.6031 128.058C69.2629 126.671 70.1752 125.41 71.2967 124.334C71.2967 124.334 75.913 102.566 78.1299 91.6618C78.4515 90.0777 79.0959 86.5849 77.049 85.6566C75.9912 85.1769 74.9689 87.1543 74.7518 87.6074C71.0451 95.1646 68.0644 117.35 66.9766 125.354C66.9766 125.354 65.8831 135.7 66.3862 137.887C66.8893 140.074 68.038 137.665 68.865 136.004C69.5505 133.884 70.0628 131.716 70.3973 129.52L70.1584 129.661Z" fill="white"/>
<path d="M201.073 93.526C198.997 88.9912 196.462 84.6651 193.505 80.6105C188.328 74.0859 181.919 68.5635 174.615 64.3341C174.551 64.2968 174.479 64.2723 174.404 64.2618C174.33 64.2513 174.254 64.2551 174.18 64.2729C174.107 64.2908 174.039 64.3223 173.978 64.3658C173.918 64.4093 173.867 64.4638 173.828 64.5263C173.789 64.5888 173.764 64.658 173.753 64.7299C173.742 64.8019 173.746 64.8753 173.765 64.9458C173.783 65.0163 173.816 65.0826 173.861 65.1409C173.906 65.1992 173.963 65.2484 174.027 65.2857C181.201 69.439 187.496 74.8621 192.582 81.2697C195.492 85.2641 197.987 89.5252 200.031 93.9913C200.061 94.0595 200.106 94.1212 200.161 94.1728C200.216 94.2243 200.282 94.2645 200.354 94.2911C200.425 94.3178 200.502 94.3302 200.579 94.3278C200.656 94.3253 200.731 94.308 200.801 94.2768C200.871 94.2456 200.933 94.2012 200.985 94.1463C201.037 94.0914 201.076 94.027 201.102 93.957C201.127 93.8869 201.138 93.8127 201.133 93.7387C201.128 93.6647 201.108 93.5924 201.073 93.526Z" fill="#3D4A56"/>
<path d="M196.811 124.462C196.776 124.319 196.684 124.197 196.554 124.12C196.425 124.043 196.27 124.019 196.122 124.052C189.578 125.458 182.865 126.001 176.169 125.666C176.054 119.462 174.017 101.477 173.927 100.691C173.909 100.546 173.833 100.414 173.714 100.323C173.596 100.232 173.445 100.19 173.294 100.206C173.144 100.222 173.006 100.295 172.91 100.408C172.815 100.521 172.77 100.667 172.785 100.812C175.026 120.478 175.466 126.506 174.647 137.165C153.957 143.831 142.122 134.808 141.133 134.011C137.173 127.22 133.053 114.747 131.889 108.217C130.734 101.737 135.565 93.4431 135.614 93.3567C135.69 93.229 135.709 93.0777 135.669 92.936C135.629 92.7943 135.532 92.6739 135.399 92.6012C135.267 92.5285 135.11 92.5094 134.963 92.5483C134.816 92.5871 134.691 92.6807 134.616 92.8083C134.401 93.1717 129.621 101.377 130.722 108.206C118.079 103.03 115.33 92.6566 114.958 90.9251C116.107 89.6778 122.272 82.9403 127.959 76.3291C134.149 69.1286 149.051 61.2978 149.2 61.2192C149.269 61.1857 149.33 61.1394 149.379 61.0829C149.429 61.0264 149.466 60.9609 149.489 60.8902C149.512 60.8196 149.52 60.7452 149.513 60.6715C149.505 60.5978 149.483 60.5263 149.446 60.4612C149.41 60.396 149.36 60.3387 149.3 60.2924C149.24 60.2462 149.171 60.212 149.097 60.1918C149.023 60.1717 148.946 60.1661 148.87 60.1753C148.794 60.1845 148.72 60.2084 148.654 60.2454C148.033 60.5689 133.407 68.259 127.075 75.6224C120.82 82.8916 113.981 90.3192 113.912 90.3934C113.856 90.4542 113.815 90.5261 113.791 90.604C113.767 90.6819 113.761 90.7639 113.774 90.8442C114.372 93.5714 115.48 96.1709 117.043 98.5156L113.597 104.67C108.697 103.96 96.7972 109.886 90.1788 110.496C83.944 111.067 80.3981 108.179 75.4889 107.185C76.5706 102.05 77.6403 96.9131 78.6981 91.7737C79.9203 85.6488 77.3117 84.3837 75.7978 85.3486C73.6407 86.7289 71.402 94.2108 69.0105 108.086C65.9218 110.018 63.6677 112.968 62.6689 116.386C61.6599 119.212 61.807 122.302 63.0801 125.027C43.5108 129.594 41.565 129.69 41.681 131.792V137.73C41.681 138.07 39.8432 134.692 83.457 180.837C84.6874 182.083 86.3397 182.863 88.1147 183.035C89.7434 183.035 97.5553 180.852 105.197 178.592C105.407 178.757 110.078 182.383 114.251 182.861C113.81 183.829 113.934 183.679 112.643 186.96C111.387 190.155 110.696 191.915 111.36 192.805C111.48 192.96 111.638 193.084 111.82 193.165C112.003 193.247 112.203 193.284 112.404 193.272C114.514 193.272 120.757 184.688 122.032 182.927C123.272 182.983 127.666 183.061 130.385 181.63C133.54 179.969 135.301 174.079 142.4 171.129C149.713 168.089 182.499 159.853 187.886 155.381C192.934 151.189 195.371 128.67 195.712 125.273C195.942 125.223 196.165 125.173 196.39 125.121C196.535 125.086 196.661 124.997 196.74 124.874C196.819 124.751 196.844 124.603 196.811 124.462ZM140.184 134.64C140.214 134.692 140.253 134.738 140.298 134.778C140.39 134.858 147.312 140.712 160.037 140.711C164.971 140.669 169.867 139.877 174.545 138.363C174.454 139.586 174.268 140.801 173.988 141.998C170.343 144.054 166.815 146.298 163.42 148.721C158.455 152.44 145.905 159.861 138.856 159.031C136.661 158.767 134.458 158.571 132.25 158.443L87.2233 122.915C88.2787 122.332 89.3594 121.792 90.4625 121.297C94.4931 119.483 116.307 124.117 123.428 122.222C126.703 121.348 130.143 114.854 131.562 111.892C132.796 116.72 135.752 127.09 140.18 134.64H140.184ZM90.2879 111.598C96.8868 110.992 109.725 104.812 113.755 105.829C116.582 106.651 119.182 108.073 121.364 109.991C121.478 110.088 121.628 110.138 121.78 110.13C121.932 110.121 122.074 110.054 122.175 109.944C122.276 109.835 122.328 109.69 122.319 109.544C122.31 109.397 122.241 109.26 122.127 109.162C119.989 107.29 117.478 105.857 114.747 104.953L117.759 99.5735C121.037 104.095 125.649 107.561 130.997 109.52L131.136 110.118C129.901 112.938 126.082 120.375 123.133 121.162C116.099 123.037 94.5528 118.246 89.9847 120.301C83.179 123.36 81.185 126.185 78.0836 126.425C75.1665 126.781 72.3606 127.729 69.8502 129.205C69.7225 129.308 69.5721 129.38 69.4105 129.418C69.2489 129.455 69.0806 129.456 68.9187 129.42C68.8727 129.381 68.7728 129.078 69.13 128.29C69.7808 126.941 70.6754 125.714 71.7719 124.667C72.584 123.864 73.5342 123.204 74.5803 122.715C78.1962 121 81.4721 113.742 73.8509 115.017C74.2954 112.9 74.779 110.586 75.2649 108.275C80.0891 109.241 83.6959 112.203 90.2844 111.595L90.2879 111.598ZM72.2049 122.831C72.515 121.356 73.009 118.984 73.6005 116.184C74.6809 115.828 75.8571 115.848 76.9235 116.242C78.1973 117.128 76.2653 120.695 74.0427 121.727C73.3923 122.033 72.7754 122.402 72.2015 122.828L72.2049 122.831ZM76.433 86.2747C76.4981 86.2248 76.5751 86.1915 76.657 86.178C76.739 86.1644 76.8231 86.171 76.9017 86.1971C77.7057 86.4098 78.2088 88.3639 77.5702 91.5643C76.9201 94.8211 71.2722 121.696 70.7737 124.064C69.6556 125.164 68.7435 126.442 68.0778 127.842C67.1348 129.919 68.2743 130.878 69.7239 130.467C69.3721 132.017 68.9331 133.548 68.4087 135.052C68.1571 134.899 67.8708 134.806 67.5743 134.783C67.2777 134.759 66.9796 134.805 66.7052 134.916C66.6903 133.318 66.742 131.647 66.8201 130.99C67.4013 126.162 72.1245 89.0264 76.4296 86.2714L76.433 86.2747ZM67.9641 136.094C67.6723 136.769 67.3098 137.414 66.8821 138.018C66.7915 137.381 66.7405 136.74 66.7294 136.098C67.2416 135.849 67.507 135.773 67.9607 136.091L67.9641 136.094ZM63.7682 116.708C64.6121 113.876 66.359 111.372 68.7613 109.55C66.8798 120.767 67.8941 116.908 66.8396 118.772C66.085 120.108 66.2056 122.031 66.3239 123.891C66.4545 125.142 66.377 126.404 66.0942 127.631C65.9946 127.842 65.8219 128.013 65.606 128.114C65.3866 128.222 65.1503 128.295 64.9065 128.329C64.8158 128.016 64.777 127.691 64.7916 127.366C64.8416 126.549 64.6751 125.733 64.308 124.995C63.6514 123.717 63.2651 122.327 63.1719 120.904C63.0786 119.482 63.2801 118.055 63.7647 116.708H63.7682ZM42.832 131.588C42.8469 131.502 42.8859 131.273 43.381 131.083C46.2446 129.984 46.4904 130.04 63.5097 126.069C63.8222 127.228 63.357 128.698 64.2805 129.257C64.5342 129.37 64.8119 129.424 65.0912 129.415C65.3705 129.405 65.6436 129.333 65.8885 129.203C65.8162 129.754 65.7457 130.306 65.6772 130.858C65.668 130.938 65.0351 138.936 66.4514 139.327C67.8745 139.735 69.3643 135.908 69.7997 134.546C70.1144 133.554 70.8575 130.645 71.0758 129.782C73.2705 128.594 75.6823 127.825 78.179 127.518C80.8277 127.313 82.592 125.628 86.1769 123.515L130.337 158.366C126.069 158.255 121.89 158.602 118.79 159.967C115.363 161.471 108.542 166.602 109.027 168.767C109.242 169.735 110.475 169.698 110.6 169.698C114.506 169.698 118.977 165.146 122.996 167.108C123.248 167.229 125.409 166.311 92.4852 176.856C92.437 176.871 87.6185 178.468 85.4188 176.057C83.3742 173.817 46.8085 136.542 45.2165 134.917C44.1391 134.025 42.6964 132.404 42.832 131.588ZM88.102 181.931C86.655 181.754 85.3139 181.106 84.3012 180.094L42.8113 137.512V134.096C42.902 134.207 82.1016 174.099 84.555 176.787C85.1443 177.373 85.8575 177.829 86.646 178.124C87.4345 178.42 88.2798 178.548 89.1243 178.5C90.3915 178.486 91.649 178.285 92.8528 177.903L123.62 168.205C123.518 168.946 123.24 169.654 122.808 170.275C122.714 170.385 121.942 171.309 120.876 172.684C120.702 172.687 90.5797 182.132 88.102 181.931ZM106.542 178.194C112.016 176.566 117.205 174.964 119.74 174.177C117.887 176.594 116.226 179.141 114.769 181.798C111.686 181.62 107.99 179.219 106.542 178.194ZM187.132 154.549C182.036 158.78 149.185 167.109 141.941 170.12C134.601 173.169 132.609 179.203 129.83 180.666C127.698 181.535 125.394 181.939 123.081 181.848C123.665 181.261 124.328 180.753 125.053 180.338C125.124 180.31 125.188 180.27 125.243 180.218C125.297 180.166 125.341 180.105 125.37 180.037C125.4 179.969 125.415 179.896 125.415 179.822C125.414 179.748 125.399 179.675 125.369 179.608C125.34 179.54 125.296 179.478 125.241 179.427C125.187 179.375 125.122 179.335 125.051 179.308C124.98 179.281 124.904 179.268 124.827 179.269C124.751 179.271 124.675 179.287 124.606 179.317C124.128 179.55 123.683 179.842 123.283 180.185C120.552 182.375 114.16 192.051 112.43 192.171C111.611 192.227 113.542 187.961 114.876 184.329C116.333 180.36 121.013 174.258 123.729 170.935C124.916 169.273 125.389 167.031 123.516 166.117C118.88 163.856 114.136 168.591 110.6 168.589C110.448 168.592 110.296 168.573 110.15 168.531C109.877 167.562 115.063 162.821 119.267 160.974C124.214 158.797 132.26 159.38 138.717 160.13C146.735 161.064 160.081 152.623 164.123 149.595C166.155 148.075 173.399 143.274 175.823 142.457C178.05 141.642 180.426 141.278 182.805 141.387C182.88 141.397 182.956 141.392 183.029 141.372C183.102 141.353 183.17 141.319 183.23 141.274C183.289 141.228 183.338 141.172 183.375 141.108C183.411 141.044 183.434 140.974 183.441 140.901C183.459 140.755 183.415 140.609 183.321 140.494C183.226 140.378 183.088 140.304 182.937 140.287C180.327 140.156 177.718 140.558 175.28 141.466C176.052 137.505 176.155 129.1 176.169 126.775C182.318 127.074 188.482 126.654 194.527 125.524C194.08 129.758 191.645 150.802 187.132 154.549Z" fill="#3D4A56"/>
<path d="M202.82 184.981C201.901 174.465 196.617 169.883 196.387 169.694C195.955 169.329 195.283 169.788 195.239 170.181C194.044 179.54 188.757 184.693 178.601 186.411C178.525 186.423 178.453 186.449 178.389 186.487C178.324 186.526 178.268 186.577 178.224 186.637C178.18 186.696 178.148 186.764 178.131 186.836C178.115 186.907 178.113 186.981 178.126 187.053C178.139 187.126 178.167 187.195 178.208 187.257C178.249 187.318 178.302 187.372 178.365 187.414C178.427 187.455 178.498 187.485 178.572 187.5C178.647 187.515 178.723 187.516 178.798 187.502C189.073 185.769 194.793 180.418 196.257 171.157C197.658 172.708 200.987 177.155 201.679 185.074C202.156 192.01 201.853 198.976 200.775 205.849C200.75 205.994 200.785 206.143 200.874 206.263C200.963 206.382 201.097 206.463 201.247 206.487C201.397 206.512 201.552 206.477 201.676 206.392C201.8 206.306 201.884 206.177 201.909 206.032C202.999 199.067 203.304 192.009 202.82 184.981Z" fill="#3D4A56"/>
<path d="M21.3548 105.265C16.3249 105.265 11.2755 103.97 10.1912 102.696C8.63591 100.869 10.0763 99.151 12.4046 98.4398C12.5476 98.4027 12.7 98.4203 12.8298 98.489C12.9597 98.5577 13.057 98.6721 13.1015 98.8083C13.146 98.9446 13.1342 99.0922 13.0685 99.2202C13.0029 99.3482 12.8884 99.4469 12.7492 99.4955C12.2897 99.6351 10.9458 100.204 10.7184 100.946C10.6839 101.056 10.5771 101.407 11.0756 101.992C12.8537 104.083 29.1402 106.37 31.2733 99.9641C31.3207 99.8253 31.4232 99.7102 31.5583 99.6439C31.6934 99.5777 31.8501 99.5656 31.9944 99.6103C32.1387 99.655 32.2588 99.753 32.3285 99.8827C32.3983 100.012 32.412 100.164 32.3668 100.303C31.0447 104.285 25.6817 105.265 21.3548 105.265Z" fill="#3D4A56"/>
<path d="M22.6625 133.744C13.2035 134.519 10.1286 129.386 9.72543 128.624L8.02544 102.54C8.01395 102.394 7.94392 102.259 7.83022 102.162C7.71653 102.065 7.56816 102.015 7.41667 102.022C7.3413 102.026 7.26759 102.045 7.19976 102.077C7.13193 102.109 7.07132 102.154 7.02139 102.208C6.97146 102.263 6.93319 102.327 6.90877 102.396C6.88436 102.464 6.87428 102.537 6.8791 102.61C8.68132 130.434 8.5699 128.854 8.63652 128.995C8.75713 129.253 11.5265 134.933 20.7615 134.933C21.3963 134.933 22.0626 134.904 22.7602 134.848C22.8356 134.842 22.909 134.822 22.9762 134.788C23.0435 134.755 23.1032 134.709 23.152 134.653C23.2008 134.597 23.2377 134.532 23.2606 134.463C23.2836 134.393 23.2921 134.32 23.2857 134.247C23.2793 134.175 23.2581 134.104 23.2233 134.039C23.1885 133.974 23.1408 133.917 23.0829 133.869C23.0251 133.822 22.9582 133.787 22.886 133.765C22.8139 133.743 22.7379 133.734 22.6625 133.741V133.744Z" fill="#3D4A56"/>
<path d="M41.9131 108.156C40.5703 106.052 36.4777 108.634 34.4228 110.115L34.1334 105.714C34.1219 105.568 34.0516 105.432 33.9377 105.335C33.8237 105.239 33.675 105.189 33.5234 105.196C33.4482 105.201 33.3746 105.22 33.3069 105.252C33.2392 105.284 33.1787 105.329 33.1289 105.383C33.0791 105.438 33.0409 105.501 33.0166 105.57C32.9922 105.639 32.9822 105.712 32.987 105.785L33.4212 112.4C33.426 112.473 33.4457 112.544 33.479 112.609C33.5123 112.675 33.5587 112.733 33.6154 112.781C33.6722 112.83 33.7382 112.866 33.8097 112.89C33.8812 112.914 33.9569 112.923 34.0323 112.919C34.1077 112.914 34.1814 112.895 34.2493 112.863C34.3171 112.831 34.3777 112.786 34.4276 112.731C34.4775 112.677 34.5158 112.613 34.5402 112.544C34.5646 112.475 34.5747 112.402 34.5698 112.329L34.5124 111.443C36.2262 110.12 39.1943 108.256 40.5094 108.473C40.5964 108.481 40.6802 108.509 40.7542 108.554C40.8281 108.598 40.8903 108.659 40.9356 108.731C43.4775 112.726 36.4674 117.953 35.0063 118.981L34.95 118.114C34.938 117.968 34.8676 117.833 34.7538 117.736C34.64 117.639 34.4917 117.589 34.3401 117.596C34.2648 117.6 34.1913 117.619 34.1236 117.651C34.0559 117.683 33.9954 117.728 33.9456 117.783C33.8958 117.837 33.8576 117.901 33.8333 117.97C33.8089 118.038 33.7989 118.111 33.8037 118.184L34.3183 126.039C34.3279 126.186 34.3976 126.323 34.5121 126.42C34.6266 126.518 34.7765 126.567 34.9288 126.558C35.0811 126.549 35.2234 126.482 35.3243 126.371C35.4252 126.261 35.4765 126.116 35.4669 125.969L35.0867 120.171C35.1971 120.169 35.3043 120.136 35.3957 120.076C35.7966 119.813 45.2993 113.479 41.9131 108.156Z" fill="#3D4A56"/>
<path d="M11.4455 87.8713L15.0063 87.7605C15.0063 87.7605 16.7051 77.9545 12.6849 74.0242C8.66464 70.0938 5.04413 68.7512 5.04413 62.0503C5.11264 57.8789 6.36351 53.8051 8.66119 50.2703H5.04069C5.04069 50.2703 -0.952902 61.3336 2.04159 66.7173C5.03609 72.1011 14.2298 73.6198 11.4455 87.8713Z" fill="#E2F9FE"/>
<path d="M19.7386 79.3316L22.7354 81.2758C22.7354 81.2758 27.3047 70.1449 25.0189 66.6177C22.7331 63.0906 15.0901 57.6537 20.0545 52.8282C25.0189 48.0028 30.3015 37.6662 25.0189 31.076H22.1829C22.1829 31.076 26.7453 37.5598 22.7354 43.3125C18.7255 49.0651 12.0278 54.3658 15.3588 59.2655C18.6899 64.1651 26.295 65.4767 19.7386 79.3316Z" fill="#E2F9FE"/>
<path fill-rule="evenodd" clip-rule="evenodd" d="M2.31141 179.252C2.31141 179.252 0.862981 179.772 1.00886 180.921C1.16507 182.14 18.4681 208.349 20.7872 206.622L2.31141 179.252Z" fill="#FFA698"/>
<path fill-rule="evenodd" clip-rule="evenodd" d="M2.62451 176.632V180.443L20.7879 206.619C21.2504 206.183 21.5876 205.639 21.7666 205.039C21.9455 204.44 21.9602 203.806 21.809 203.2C21.4759 200.756 2.62451 176.632 2.62451 176.632Z" fill="white"/>
<path fill-rule="evenodd" clip-rule="evenodd" d="M4.99972 173.544L52.0743 164.239C52.0743 164.239 54.8138 163.274 58.038 165.95C61.2623 168.627 81.3037 190.031 81.3037 190.031C81.3037 190.031 80.0402 195.358 79.722 196.027C79.4038 196.696 20.7877 206.62 20.7877 206.62C21.3497 205.995 21.702 205.221 21.7982 204.4C21.8944 203.578 21.7299 202.748 21.3264 202.018L2.92643 177.008C2.92643 177.008 0.62456 174.871 4.99972 173.544Z" fill="#FFA698"/>
<path d="M81.8665 189.916C81.8351 189.772 81.7458 189.647 81.6183 189.566C81.4908 189.486 81.3355 189.458 81.1865 189.488L21.7205 201.597C21.0117 200.635 18.7409 196.325 3.08151 176.299C3.00919 176.206 2.90836 176.137 2.7933 176.103C2.67825 176.068 2.5548 176.069 2.44044 176.106C2.32609 176.143 2.22663 176.213 2.15615 176.308C2.08567 176.402 2.04774 176.515 2.04774 176.632V178.755C1.56346 178.907 1.14403 179.207 0.853608 179.61C0.56319 180.014 0.417788 180.498 0.439649 180.988C0.608499 182.296 15.751 205.45 19.9424 207.132C20.1049 207.21 20.2834 207.251 20.4649 207.254C20.6464 207.257 20.8261 207.22 20.9911 207.147C79.7955 197.191 80.0758 196.608 80.2435 196.259C80.2965 196.148 80.3099 196.023 80.2816 195.904C80.2533 195.785 80.1849 195.678 80.0871 195.6C79.9893 195.522 79.8675 195.478 79.7408 195.474C79.6141 195.47 79.4896 195.506 79.3866 195.578C77.4673 196.304 44.6495 202.011 22.049 205.843C22.4168 204.984 22.5309 204.044 22.3786 203.126C22.3429 202.955 22.2938 202.788 22.2316 202.624L81.422 190.572C81.4959 190.557 81.5659 190.528 81.6283 190.487C81.6906 190.446 81.7439 190.394 81.7852 190.333C81.8264 190.272 81.8549 190.204 81.8688 190.132C81.8828 190.061 81.882 189.987 81.8665 189.916ZM1.5768 180.854C1.57197 180.689 1.61307 180.525 1.69585 180.379C1.77864 180.234 1.90011 180.113 2.04774 180.028V180.449C2.04774 180.711 1.00478 179.114 19.1555 205.268C14.6046 201.043 2.24071 183.073 1.5768 180.854ZM21.2805 204.177C21.2271 204.689 21.0607 205.183 20.7924 205.627L3.19638 180.275V178.334L20.6913 202.111C21.1522 202.703 21.3628 203.442 21.2805 204.177Z" fill="#3D4A56"/>
<path fill-rule="evenodd" clip-rule="evenodd" d="M165.386 191.389L163.685 188.363L165.386 187.374C166.063 187.552 166.666 187.93 167.11 188.454C167.555 188.978 167.82 189.622 167.868 190.298L165.386 191.389Z" fill="#E2F9FE"/>
<path fill-rule="evenodd" clip-rule="evenodd" d="M129.725 200.964L162.931 188.039C162.931 188.039 165.052 188.831 165.557 189.714C166.063 190.597 165.05 191.922 165.05 191.922L132.032 205.616C132.032 205.616 132.309 201.576 129.725 200.964Z" fill="#FAD353"/>
<path fill-rule="evenodd" clip-rule="evenodd" d="M114.895 207.083L129.193 200.965C130.189 201.283 131.065 201.879 131.711 202.676C132.187 203.379 132.36 204.233 132.192 205.057C132.023 205.88 131.527 206.608 130.81 207.083L117.325 212.262C116.677 212.263 116.042 212.093 115.488 211.77C114.934 211.447 114.482 210.982 114.184 210.428C113.934 209.867 113.868 209.246 113.995 208.648C114.122 208.05 114.436 207.504 114.895 207.083Z" fill="#E2F9FE"/>
<path fill-rule="evenodd" clip-rule="evenodd" d="M129.725 210.481C129.01 211.235 128.628 212.229 128.661 213.25C128.661 215.477 131.127 215.477 131.127 215.477L144.518 210.991C144.518 210.991 145.61 208.962 144.968 207.939C144.39 207.189 143.644 206.576 142.785 206.145L129.725 210.481Z" fill="#FFA698"/>
<path fill-rule="evenodd" clip-rule="evenodd" d="M181.88 194.85L179.131 195.569L180.182 198.553L183.154 197.616L181.88 194.85Z" fill="#FFA698"/>
<path fill-rule="evenodd" clip-rule="evenodd" d="M144.61 210.809C144.937 209.949 144.933 209.005 144.598 208.148C144.263 207.291 143.618 206.58 142.783 206.144L178.408 195.242C178.408 195.242 180.935 197.047 179.672 199.249L144.61 210.809Z" fill="#FAD353"/>
<path d="M165.601 186.811C165.526 186.789 165.447 186.783 165.369 186.793C165.291 186.804 165.216 186.83 165.15 186.87L163.656 187.735C163.484 187.66 163.31 187.589 163.134 187.523C162.998 187.471 162.847 187.471 162.711 187.523C128.339 200.719 129.584 200.407 129.46 200.469C129.381 200.432 129.294 200.412 129.206 200.41C129.118 200.408 129.031 200.424 128.949 200.456L115.105 206.382C114.331 206.771 113.747 207.437 113.475 208.237C113.204 209.037 113.268 209.907 113.654 210.662C114.636 212.668 117.116 213.106 117.866 212.644L131.091 207.557C131.706 207.203 132.189 206.67 132.47 206.034C167.631 191.455 165.371 192.435 165.51 192.251C165.617 192.11 165.715 191.962 165.802 191.808L168.166 190.772C168.266 190.728 168.351 190.657 168.411 190.568C168.471 190.479 168.503 190.375 168.503 190.268C168.465 189.469 168.163 188.702 167.641 188.08C167.119 187.457 166.404 187.013 165.601 186.811ZM117.384 211.642L117.214 211.706C114.882 211.611 113.562 209.274 115.207 207.564C115.629 207.404 116.097 207.406 116.518 207.568C116.938 207.73 117.279 208.04 117.471 208.436C117.724 208.938 117.849 209.491 117.833 210.049C117.818 210.607 117.664 211.153 117.384 211.642ZM117.284 206.665L129.211 201.561C129.777 201.772 130.299 202.079 130.751 202.468L118.277 207.564C118.032 207.187 117.69 206.877 117.284 206.665ZM130.592 206.568L118.837 211.083C119.039 210.265 119.014 209.409 118.763 208.603C131.696 203.286 131.335 203.451 131.45 203.373C131.697 203.922 131.747 204.534 131.591 205.113C131.435 205.692 131.084 206.204 130.592 206.568ZM132.81 204.693C132.84 204.24 132.789 203.787 132.659 203.351L163.895 191.112C163.965 191.085 164.029 191.045 164.083 190.994C164.136 190.943 164.179 190.882 164.209 190.815C164.238 190.748 164.253 190.676 164.254 190.603C164.254 190.53 164.24 190.458 164.212 190.391C164.183 190.323 164.142 190.262 164.089 190.21C164.036 190.158 163.973 190.117 163.903 190.089C163.834 190.06 163.759 190.045 163.684 190.045C163.608 190.044 163.533 190.058 163.463 190.085L132.167 202.348C131.804 201.866 131.351 201.453 130.832 201.13L162.931 188.635C163.741 188.912 164.47 189.375 165.056 189.982C165.276 190.367 164.931 191.09 164.671 191.476L132.81 204.693ZM166.273 190.386C166.32 189.433 165.699 188.866 164.842 188.343L165.513 187.952C165.967 188.1 166.373 188.36 166.691 188.706C167.01 189.051 167.23 189.47 167.33 189.923L166.273 190.386Z" fill="#3D4A56"/>
<path d="M183.682 197.393L182.408 194.623C182.352 194.502 182.254 194.405 182.13 194.348C182.006 194.291 181.865 194.279 181.733 194.314L179.032 195.021C178.774 194.799 178.557 194.611 178.228 194.713C139.234 206.646 145.262 204.683 129.538 209.955C129.051 210.36 128.667 210.868 128.416 211.438C128.164 212.009 128.051 212.628 128.086 213.247C128.088 213.646 128.18 214.04 128.355 214.402C128.53 214.763 128.784 215.084 129.1 215.342C129.415 215.601 129.785 215.79 130.184 215.898C130.582 216.005 131 216.028 131.409 215.965C145.923 211.101 144.864 211.521 145.018 211.256L179.856 199.771C180.128 199.682 180.242 199.439 180.388 199.07L183.334 198.14C183.41 198.116 183.48 198.077 183.54 198.026C183.599 197.974 183.647 197.911 183.679 197.841C183.712 197.77 183.729 197.694 183.73 197.617C183.73 197.54 183.714 197.463 183.682 197.393ZM130.935 214.911C130.71 214.91 130.488 214.867 130.28 214.783C130.073 214.699 129.884 214.576 129.726 214.422C129.568 214.267 129.443 214.084 129.359 213.883C129.275 213.682 129.233 213.466 129.235 213.249C129.216 212.442 129.486 211.653 129.998 211.015C132.194 211.038 132.91 212.844 130.935 214.911ZM131.866 210.356L142.729 206.749C143.319 207.072 143.849 207.487 144.298 207.977L133.035 211.61C132.808 211.073 132.395 210.63 131.866 210.356ZM144.106 210.541L132.753 214.345C133.04 213.841 133.205 213.281 133.236 212.706C133.504 212.63 131.265 213.346 144.576 209.056C144.49 209.57 144.332 210.069 144.106 210.541ZM144.121 206.313L178.28 195.862C178.703 196.218 179.041 196.658 179.271 197.152C179.07 197.127 181.454 196.406 145.535 207.787C145.179 207.204 144.698 206.702 144.124 206.313H144.121ZM179.269 198.799L145.571 209.908C145.669 209.575 145.728 209.232 145.746 208.886C179.483 198.196 179.325 198.251 179.441 198.206C179.413 198.411 179.353 198.611 179.263 198.799H179.269ZM180.597 197.842C180.545 197.16 180.299 196.505 179.886 195.948L181.564 195.505L182.379 197.277L180.597 197.842Z" fill="#3D4A56"/>
</g>
<defs>
<clipPath id="clip0_804_3418">
<rect width="248.639" height="250" fill="white" transform="translate(0.4375)"/>
</clipPath>
</defs>
</svg>
