<svg width="211" height="211" viewBox="0 0 211 211" fill="none" xmlns="http://www.w3.org/2000/svg">
<path d="M186.308 61.8354C186.275 61.5234 186.12 61.2372 185.878 61.0394C185.636 60.8417 185.326 60.7485 185.015 60.7804L177.493 61.5253C177.045 61.5684 176.623 61.7574 176.291 62.0635C175.959 62.3697 175.736 62.7763 175.655 63.2217C175.44 64.3759 173.847 73.0332 172.726 79.1068C172.694 79.2873 172.7 79.4725 172.744 79.6504C172.788 79.8284 172.868 79.9952 172.98 80.14C173.091 80.2849 173.232 80.4045 173.393 80.4913C173.553 80.5781 173.73 80.6301 173.912 80.644L180.956 81.1557C181.348 81.1844 181.737 81.0687 182.05 80.8301C182.363 80.5915 182.58 80.2463 182.658 79.8591C186.568 60.9292 186.337 62.0929 186.308 61.8354Z" fill="#E2F9FE"/>
<path d="M190.637 115.708L192.779 119.084L188.504 119.028C188.42 119.027 188.337 119.046 188.261 119.082C188.185 119.119 188.118 119.172 188.066 119.239L185.154 122.769L184.469 118.687C184.458 118.612 184.425 118.541 184.374 118.484C184.323 118.428 184.256 118.388 184.182 118.371L180.242 117.17L184.095 114.704C184.165 114.66 184.225 114.6 184.27 114.53C184.316 114.459 184.345 114.38 184.357 114.297L184.835 110.023L187.9 112.584C187.961 112.634 188.035 112.667 188.113 112.68C188.191 112.692 188.27 112.684 188.345 112.657L192.579 111.216L190.629 115.257C190.592 115.327 190.573 115.405 190.575 115.484C190.576 115.562 190.598 115.64 190.637 115.708Z" fill="#FAD353"/>
<path d="M191.306 79.375C193.121 80.047 193.646 81.3995 192.611 82.6877C191.448 84.1362 189.475 85.7472 189.022 87.6262C188.648 89.1781 190.668 89.6739 190.595 91.0591C190.378 92.0912 189.901 93.0501 189.21 93.8443C187.874 95.7883 186.515 97.7169 185.135 99.6299C184.461 100.569 183.666 101.648 182.373 101.511C180.511 101.313 181.283 99.8304 182.015 98.8134C183.529 96.7097 186.439 94.3971 186.862 91.7312C187.097 90.2542 185.689 89.5051 185.453 88.1864C185.078 86.088 187.413 83.5739 188.601 82.0885C189.402 81.0882 190.309 80.1784 191.306 79.375Z" fill="#8DE3A7"/>
<path d="M183.053 46.0416C179.222 48.6622 179.437 48.485 179.352 48.6422C179.259 48.8152 179.309 48.5261 178.915 53.4603C175.733 50.2257 175.977 50.4399 175.826 50.4008C175.675 50.3618 175.943 50.2953 171.688 51.7059C173.586 47.0881 173.483 47.3909 173.479 47.2158C173.475 47.0407 173.584 47.2928 171.361 43.2068C175.713 43.5655 175.421 43.5697 175.558 43.4864C175.712 43.4146 175.486 43.6837 178.391 39.7095C179.135 44.3747 179.082 44.2017 179.188 44.3673C179.293 44.5139 179.044 44.3831 183.053 46.0416Z" fill="#FAD353"/>
<path d="M177.494 73.9409C178.727 72.1622 175.35 72.5958 175.775 70.6198C175.835 70.3262 175.976 70.0559 176.184 69.8405C176.391 69.6252 176.655 69.4739 176.945 69.4044C177.199 69.3453 178.099 69.6998 178.21 69.3802C178.637 68.1627 178.323 66.2447 180.375 66.3945C181.959 66.5106 181.751 68.188 181.235 69.3C181.026 69.7473 182.581 70.2759 182.923 70.8519C183.027 71.0653 183.058 71.3078 183.01 71.5408C182.868 72.2437 182.495 72.8781 181.951 73.3417C180.91 74.2237 179.914 73.597 179.771 73.8449C179.404 74.4779 181.069 76.0952 180.622 76.5742C180.256 76.9667 176.507 75.7661 176.061 75.6943C176.207 75.6057 177.395 74.0876 177.494 73.9409Z" fill="#FFA698"/>
<path d="M174.152 95.6372C176.063 95.9168 176.85 97.1332 176.103 98.606C175.258 100.27 173.665 102.248 173.603 104.176C173.553 105.777 175.633 105.849 175.84 107.217C175.979 108.134 175.893 108.427 172.242 116.732C171.779 117.787 171.215 119.01 169.927 119.14C168.072 119.329 168.519 117.725 169.026 116.58C170.076 114.212 172.446 111.346 172.322 108.65C172.253 107.153 170.718 106.715 170.213 105.472C169.41 103.498 171.188 100.549 172.043 98.8465C172.627 97.7021 173.334 96.6258 174.152 95.6372Z" fill="#8DE3A7"/>
<path d="M160.663 90.2338L162.279 96.2842L158.427 101.206L156.811 95.1564L160.663 90.2338Z" fill="#FFA698"/>
<path d="M168.317 154.097C168.212 154.124 157.51 159.583 157.405 159.647C158.503 158.598 159.53 157.476 160.479 156.289C160.884 155.8 162.795 153.352 161.385 152.921C160.144 152.552 158.441 153.776 157.494 154.417C154.422 156.49 151.691 159.034 148.619 161.107L148.237 160.791C149.917 158.94 151.347 156.873 152.488 154.645C152.736 154.13 153.283 152.988 152.698 152.501C151.837 151.773 150.238 153.037 149.601 153.517C148.173 154.775 146.859 156.16 145.677 157.654L145.566 157.549C142.924 157.413 138.785 156.636 136.7 154.796L136.436 154.868C134.781 157.049 133.944 159.746 134.072 162.486C135.379 162.935 136.676 163.407 137.972 163.887C141.952 165.376 145.956 167.561 150.334 166.568C153.213 165.83 153.822 164.979 157.107 163.76C158.42 163.319 159.98 163.535 161.199 162.916C162.982 162.003 164.406 160.395 166.189 159.418C167.041 158.954 168.37 158.434 169.492 157.738C170.435 157.268 171.162 156.451 171.521 155.457C171.939 153.737 169.272 153.849 168.317 154.097Z" fill="white"/>
<path d="M154.789 84.1348C154.814 83.9491 154.882 83.772 154.987 83.6176C155.093 83.4633 155.233 83.3362 155.397 83.2466C155.56 83.1569 155.742 83.1074 155.929 83.1018C156.115 83.0963 156.3 83.135 156.468 83.2148C158.637 84.2529 162.645 86.2057 164.757 87.2238C165.161 87.418 165.491 87.7379 165.699 88.1359C165.907 88.534 165.981 88.9889 165.911 89.433C165.074 94.8335 164.244 100.235 163.421 105.638C163.37 105.979 163.187 106.285 162.911 106.49C162.636 106.695 162.291 106.782 161.952 106.731C161.772 106.704 153.641 104.174 153.536 104.142C153.171 104.027 152.858 103.787 152.651 103.463C152.444 103.14 152.357 102.754 152.405 102.373C152.885 98.6273 154.277 88.1891 154.789 84.1348ZM162.28 96.2841L160.664 90.2337L156.811 95.1616L158.427 101.211L162.28 96.2841Z" fill="#E2F9FE"/>
<path d="M163.223 71.7976C162.724 71.8052 162.238 71.9608 161.827 72.2449C161.532 71.1243 161.014 70.076 160.302 69.1643C159.919 68.6664 158.861 67.7475 158.766 67.1081C158.598 66.0194 159.521 64.3303 159.665 63.2099C159.888 61.4818 159.318 59.8793 159.41 58.1923C159.431 57.8515 159.559 57.5261 159.776 57.2639C160.291 56.6526 160.85 56.0803 161.448 55.5516C163.171 53.6379 165.504 50.9023 165.308 48.3776C165.334 48.0503 165.264 47.7225 165.106 47.4352C164.948 47.1479 164.709 46.9139 164.419 46.7626C164.129 46.6113 163.801 46.5494 163.476 46.5847C163.152 46.6199 162.845 46.7508 162.594 46.9608C160.302 48.4737 158.957 51.6661 156.258 55.2193L156.195 55.1877C155.852 53.8352 153.505 54.6918 152.932 53.5788C152.605 52.554 152.417 51.4893 152.374 50.4138C152.023 48.6143 151.42 46.8738 150.584 45.2443C150.098 44.3075 149.358 43.0351 148.244 42.7714C146.755 42.419 146.158 44.26 146.145 45.4089C146.117 48.7933 148.713 52.068 148.39 53.9006C148.223 54.8047 146.727 55.0769 146.186 55.789C145.549 56.6457 145.581 57.7935 144.977 58.6217C144.395 59.4298 143.185 59.4657 142.573 60.3909C140.877 62.9229 142.867 66.4561 145.104 67.8888C145.369 68.055 145.642 68.2075 145.923 68.3456L145.629 69.0841C145.556 69.3205 145.471 69.5529 145.374 69.7804C145.262 70.1592 145.159 70.5411 145.072 70.9335C144.849 71.9094 144.149 74.6545 145.342 75.2791C146.091 75.6705 146.974 74.6461 147.372 74.1344C147.436 74.0542 147.865 73.3421 147.993 73.4139C148.16 73.494 148.049 74.2146 148.049 74.3581C148.049 74.9742 148.065 76.0155 148.678 76.3626C149.689 76.9312 150.672 75.5302 151.647 75.6104C152.435 75.6747 153.221 76.6432 153.939 76.9555C157.045 78.1825 160.428 76.8067 161.504 74.8518C161.722 75.1663 162.024 75.4117 162.376 75.5588C162.727 75.7059 163.114 75.7487 163.489 75.6821C163.978 75.5911 164.412 75.3083 164.694 74.8957C164.977 74.4832 165.085 73.9749 164.994 73.4824C164.917 73.048 164.703 72.65 164.385 72.3467C164.066 72.0435 163.659 71.851 163.223 71.7976Z" fill="#FFA698"/>
<path d="M145.056 104.504C145.448 106.626 143.455 109.69 142.858 111.678C140.749 110.926 138.661 108.577 137.582 106.708C137.162 105.99 136.623 104.809 137.191 104.019C137.977 102.934 139.429 103.731 140.168 104.42C140.342 104.581 140.742 105.244 141.02 105.212C141.298 105.181 141.506 104.396 141.601 104.195C141.726 103.829 141.931 103.496 142.201 103.22C142.471 102.945 142.799 102.734 143.162 102.603C144.243 102.343 144.894 103.632 145.056 104.504Z" fill="#FFA698"/>
<path d="M143.066 23.348C143.464 23.4103 139.297 25.0519 139.341 27.7094C139.341 27.7337 136.937 22.6602 135.306 23.4198C135.91 23.06 138.815 21.2518 139.142 18.9624C139.207 18.9624 140.641 22.9693 143.066 23.348Z" fill="#FFA698"/>
<path d="M140.168 104.424C139.433 103.735 137.977 102.939 137.191 104.023C136.622 104.81 137.165 105.994 137.581 106.712C138.665 108.581 140.749 110.932 142.858 111.682C143.455 109.689 145.448 106.626 145.055 104.508C144.894 103.636 144.243 102.347 143.161 102.609C142.799 102.74 142.471 102.951 142.201 103.226C141.93 103.502 141.726 103.835 141.601 104.201C141.506 104.402 141.299 105.194 141.02 105.218C140.741 105.243 140.342 104.585 140.168 104.424ZM137.271 115.523C136.307 111.9 133.608 101.582 132.52 97.5876C132.471 97.4044 132.467 97.2123 132.507 97.0272C132.547 96.842 132.631 96.6691 132.75 96.5228C132.87 96.3765 133.023 96.261 133.196 96.1858C133.369 96.1106 133.557 96.078 133.745 96.0905C136.473 96.3015 141.863 96.7109 144.49 96.9145C144.929 96.9492 145.345 97.1229 145.68 97.4106C146.015 97.6984 146.25 98.0853 146.352 98.516C147.197 102.061 149.29 110.983 150.165 114.552C150.212 114.738 150.217 114.932 150.18 115.119C150.142 115.307 150.064 115.485 149.951 115.639C149.838 115.792 149.692 115.919 149.524 116.009C149.356 116.1 149.17 116.151 148.979 116.161C146.408 116.303 141.33 116.599 138.927 116.728C138.555 116.748 138.188 116.64 137.886 116.42C137.585 116.201 137.368 115.884 137.271 115.523Z" fill="#E2F9FE"/>
<path d="M137.885 75.3423C138.562 76.6304 139.167 78.4608 136.739 78.3437C135.052 78.2614 134.304 76.8868 133.682 75.6862C132.423 73.2449 131.146 70.8036 129.933 68.3402C129.441 67.339 128.692 66.0667 128.876 64.9146C129.129 63.3216 131.843 63.138 131.756 61.2897C131.651 59.0742 129.547 56.8692 128.43 54.9997C127.438 53.3402 128.446 51.9023 130.937 51.4781C131.996 52.5654 132.93 53.7686 133.722 55.0652C134.839 57.0011 137.221 60.2853 136.198 62.6042C135.555 64.0611 133.559 64.6445 133.484 66.3737C133.348 69.4891 136.477 72.6615 137.885 75.3423Z" fill="#8DE3A7"/>
<path d="M135.655 129.177C133.284 128.617 130.724 127.951 128.851 126.336C126.599 124.392 127.423 121.461 131.923 120.542C137.762 119.35 144.53 121.427 150.89 121.926C159.186 122.578 172.106 122.454 179.324 123.991C181.068 124.363 186.137 125.874 184.22 128.649C183.079 130.3 179.433 131.167 177.486 131.425L177.542 131.785C176.849 136.251 175.578 147.473 174.82 151.928C174.316 154.891 174.048 157.986 169.654 157.986L169.503 157.738C170.446 157.268 171.173 156.452 171.533 155.457C171.952 153.738 169.281 153.85 168.325 154.097C165.262 154.886 161.894 158.323 158.185 159.483L157.532 159.323C158.588 158.384 159.575 157.371 160.486 156.29C160.891 155.8 162.804 153.346 161.393 152.921C160.153 152.546 158.448 153.778 157.501 154.417C154.43 156.491 151.699 159.035 148.626 161.108L148.244 160.791C149.914 158.931 151.342 156.866 152.495 154.646C152.744 154.13 153.289 152.991 152.705 152.501C151.843 151.774 150.245 153.037 149.608 153.517C148.18 154.775 146.867 156.16 145.684 157.655L145.573 157.549C142.931 157.413 138.824 156.6 136.707 154.797C135.008 153.35 135.3 151.562 135.266 149.474C135.214 146.266 135.334 143.064 135.386 139.856C135.561 128.72 135.383 130.365 135.655 129.177Z" fill="#8DE3A7"/>
<path d="M136.443 154.865C134.788 157.046 133.951 159.743 134.079 162.483C129.664 160.869 123.954 156.938 120.207 154.043C112.853 148.373 104.504 141.247 99.6004 133.221L99.4902 132.867C104.566 131.188 109.051 128.071 112.407 123.889L112.63 124.074C115.653 130.298 121.614 137.435 126.016 142.832C128.728 146.184 131.735 149.285 134.999 152.096L135.314 152.057C135.346 152.585 135.486 153.101 135.726 153.572C135.965 154.043 136.3 154.459 136.707 154.793L136.443 154.865Z" fill="#FCE0D1"/>
<path d="M134.157 14.6101C134.556 14.5405 131.062 17.4185 131.968 19.9157C131.968 19.94 127.933 15.6736 126.716 17.1949C126.716 17.1949 129.498 14.2198 129.064 11.6646C129.038 11.5211 131.692 15.0363 134.157 14.6101Z" fill="#FFA698"/>
<path d="M129.215 85.6549L131.754 89.4645L127.662 88.976C127.588 88.9661 127.513 88.9774 127.445 89.0086C127.377 89.0398 127.32 89.0896 127.279 89.1522L125.019 92.6179L123.76 88.208C123.738 88.1268 123.698 88.0515 123.644 87.9878C123.589 87.9241 123.521 87.8735 123.445 87.8398L119.505 86.175L122.816 83.9426C122.879 83.8952 122.929 83.8333 122.962 83.7621C122.995 83.691 123.011 83.6128 123.007 83.5343L122.825 79.0369L126.135 82.0615C126.191 82.1168 126.259 82.1568 126.335 82.1779C126.41 82.1989 126.489 82.2003 126.565 82.1818L130.401 81.0699L129.136 85.1749C129.111 85.2555 129.106 85.3409 129.119 85.4242C129.133 85.5074 129.166 85.5864 129.215 85.6549Z" fill="#FAD353"/>
<path d="M111.45 60.4798C111.451 60.2371 111.397 59.9974 111.291 59.7792C111.185 59.561 111.031 59.3703 110.84 59.2217C110.649 59.0731 110.426 58.9706 110.19 58.9223C109.953 58.8739 109.709 58.8809 109.475 58.9427L109.395 58.8688L115.108 52.004C115.108 52.004 116.891 50.8667 117.576 53.2119C117.579 53.2383 114.956 56.3368 111.45 60.4798Z" fill="white"/>
<path d="M93.6136 81.8058C93.5998 81.8069 93.586 81.804 93.5738 81.7974C92.7666 81.5047 92.0011 81.1067 91.2969 80.6137C110.792 57.1927 109.351 58.8311 109.475 58.9429C109.709 58.8811 109.953 58.8741 110.19 58.9225C110.426 58.9709 110.649 59.0733 110.84 59.2219C111.03 59.3705 111.185 59.5613 111.291 59.7794C111.396 59.9976 111.451 60.2373 111.45 60.4801C91.7953 83.6996 93.835 81.0779 93.6136 81.8058Z" fill="#E2F9FE"/>
<path d="M93.153 87.3848C92.4817 86.4135 91.7532 85.4834 90.9715 84.5996C91.0765 84.3432 91.472 84.8338 91.7197 84.9435C93.217 85.6061 96.1895 87.0535 96.3364 87.1284C97.0709 87.4249 98.2481 89.9664 98.5808 90.5044C100.614 93.7538 102.358 97.3461 104.813 100.3C106.731 102.612 111.066 103.662 112.04 106.582C112.388 108.14 112.278 109.766 111.725 111.264C111.529 112.002 111.007 113.176 111.39 113.929C112.175 115.467 115.224 113.625 115.856 115.993C116.442 118.194 114.65 120.857 113.459 122.534C109.986 127.359 105.105 130.975 99.4926 132.881C99.1608 133.039 98.8016 133.131 98.4349 133.152C97.1926 133.44 96.6512 131.524 96.2692 130.409C96.0598 129.855 95.9624 129.264 95.9828 128.672L93.73 128.552C93.4074 128.586 93.0813 128.544 92.7775 128.43C92.4736 128.315 92.2003 128.132 91.9788 127.894C90.96 126.493 92.4688 124.38 92.0187 122.83C91.77 121.974 89.2172 120.669 88.5163 120.245L88.1574 120.27C87.6549 116.743 89.8048 114.796 90.8855 111.603C92.5843 106.592 92.047 101.031 88.3778 97.0444L86.2373 96.8914C86.2462 96.8519 86.2515 96.8116 86.253 96.7711L86.7945 96.8513C88.6831 96.4989 89.2455 95.138 89.2697 93.5808L89.5246 93.5892C91.5455 93.9057 94.3313 93.0206 94.3795 90.5561C94.3065 89.3969 93.878 88.289 93.153 87.3848Z" fill="#7ED6ED"/>
<path d="M78.3818 101.535C78.9014 100.232 79.541 98.9814 80.2925 97.7989C80.5087 97.5277 81.2306 96.6099 81.6692 96.6858C81.7646 96.7027 81.2495 97.4244 81.2075 97.4782C80.8992 97.9304 80.6429 98.4163 80.4436 98.9267C79.9924 100.069 80.1719 101.236 81.6209 100.92C82.2585 100.782 82.8764 100.564 83.4602 100.272C83.4676 100.399 83.4928 100.577 83.5001 100.664C84.3059 111.228 83.3616 126.588 82.3617 136.941C82.1119 139.522 82.9576 139.751 79.2894 139.902C78.4857 139.936 79.2097 136.773 79.1845 133.092C79.1604 129.294 79.4993 111.228 78.6274 101.673L78.3818 101.535Z" fill="#E2F9FE"/>
<path d="M89.2685 93.5794C89.2444 95.1398 88.6799 96.5007 86.7934 96.8499L86.2519 96.7697C86.2504 96.8102 86.2451 96.8505 86.2362 96.89C85.94 97.9401 85.3453 98.8804 84.5252 99.5956C83.7051 100.311 82.6952 100.77 81.6195 100.916C80.1704 101.232 79.991 100.066 80.4422 98.923C80.6415 98.4126 80.8977 97.9267 81.2061 97.4745C81.2449 97.4186 81.7632 96.6991 81.6677 96.6822C81.2292 96.6062 80.5073 97.5262 80.2911 97.7952C79.1191 99.2638 78.7812 101.343 77.6564 102.628C77.3285 102.991 76.887 103.231 76.4051 103.308C75.9231 103.385 75.4296 103.294 75.006 103.05C74.8224 102.971 73.8833 102.298 73.7165 102.434C73.5496 102.57 73.7448 103.315 73.7564 103.489C73.8057 104.242 73.9263 105.388 73.2705 105.938C72.5098 106.571 71.4637 105.963 70.9234 105.353C69.2939 103.519 67.4063 98.7479 66.2521 97.0377L66.1954 96.7413C66.0768 96.5007 67.5154 95.3075 67.6528 95.1725C71.1154 91.7648 72.9904 90.3364 75.5716 86.7546C78.3248 82.9355 81.715 77.2322 86.1008 77.8641C88.9454 78.2735 90.7239 80.757 93.5757 81.7919C93.588 81.7985 93.6018 81.8014 93.6156 81.8004C96.0352 82.6085 101.357 82.6327 101.669 86.0815C101.796 87.4826 100.724 88.1673 99.4484 88.0343C97.096 87.7875 95.968 86.8179 91.7196 84.9379C91.472 84.8324 91.0754 84.3376 90.9715 84.594C91.7504 85.4802 92.4787 86.41 93.1529 87.3792C93.8767 88.2817 94.3052 89.3872 94.3795 90.5442C94.3312 93.0087 91.5465 93.8885 89.5246 93.5773L89.2685 93.5794Z" fill="white"/>
<path d="M77.6877 67.6599L77.7035 67.6673C77.7832 67.6673 78.1578 67.8361 78.3162 67.8783C83.8038 69.5083 87.5339 72.111 91.7037 78.6024L92.4445 79.2259L91.2987 80.609C89.6272 79.5044 88.067 78.1477 86.1007 77.866C83.0578 77.4282 80.5532 80.0308 78.6677 82.4837L78.5806 82.413C78.2061 80.0519 77.991 77.6835 77.4663 75.3382C77.2565 74.3782 76.6479 71.9453 76.5986 71.6889L76.4863 71.6805C76.5545 69.8944 77.0288 69.2846 77.6877 67.6599Z" fill="#7ED6ED"/>
<path d="M79.4337 46.1969C78.8946 47.7587 77.9848 49.1649 76.7833 50.2935C76.5635 50.5116 76.3022 50.683 76.0149 50.7972C75.7277 50.9114 75.4205 50.9661 75.1118 50.9581C73.7992 50.6775 72.4887 47.2508 73.5683 46.2929C74.989 45.0258 77.6332 45.8287 79.4337 46.1969Z" fill="white"/>
<path d="M75.4537 86.673C75.3806 84.8108 75.0814 82.9646 74.5628 81.1754C74.4945 80.9629 74.4147 80.7544 74.3236 80.5508L74.1421 80.4632C74.6983 78.6578 74.8742 76.7556 74.6583 74.8781C74.8922 74.8703 75.1213 74.8102 75.3291 74.7021C75.537 74.5941 75.7182 74.4408 75.8597 74.2535C76.2763 73.4622 76.4925 72.5799 76.4893 71.6846C76.6907 71.6993 76.5187 71.5738 76.7936 72.4537C77.016 73.4211 77.2542 74.3822 77.4693 75.3423C77.9939 77.6875 78.2038 80.056 78.5836 82.4171L78.6707 82.4878C77.5962 83.8645 76.6173 85.3363 75.5743 86.7605L75.4537 86.673Z" fill="#E2F9FE"/>
<path d="M69.2527 66.1153C69.2488 65.2342 69.0589 64.364 68.6956 63.5622L68.6001 63.5306C68.9149 62.5695 69.364 61.3932 69.8812 60.1852C69.8812 60.2094 71.3061 61.2497 71.3775 61.3214C72.0785 62.1067 72.4539 63.132 72.4267 64.1868C71.3545 64.7925 70.3441 65.5027 69.4101 66.3073L69.2527 66.1153Z" fill="white"/>
<path d="M68.784 72.7573C69.0988 71.6612 68.3643 69.5501 68.2017 68.5373C68.1542 68.2142 68.0257 67.9084 67.8281 67.649L68.1146 67.6248C68.8246 66.7929 69.6353 66.0535 70.5279 65.424C72.6264 63.8595 76.4897 61.7315 77.8905 63.9597C78.9702 65.6815 77.327 68.301 76.8003 69.7939C76.6112 70.4098 76.5053 71.0485 76.4855 71.6929C76.4796 72.587 76.2639 73.4672 75.856 74.2618C74.5864 75.9392 70.7692 73.882 68.9236 72.8059L68.784 72.7573Z" fill="#E2F9FE"/>
<path d="M64.3703 99.5573C65.1164 98.929 65.8949 98.3409 66.7028 97.7954C67.9619 100.02 69.5032 103.758 70.9208 105.359C69.7498 106.473 62.1826 115.459 61.1784 116.707C53.5986 126.132 53.3678 127.618 50.028 131.304C47.472 134.125 44.2917 136.067 40.0233 135.018C38.1672 134.384 36.3782 133.566 34.6826 132.577L34.2524 132.457C35.7969 126.855 38.0203 121.312 41.5196 116.964C42.6336 115.376 44.1208 114.089 45.8488 113.218C45.9286 113.188 47.4962 112.883 47.5916 113.131C48.4751 112.41 62.8205 100.843 64.3703 99.5573Z" fill="#FCE0D1"/>
<path d="M68.0647 73.7263C67.0952 74.4944 66.5044 74.0428 65.9305 73.4858C65.3744 72.9414 64.8403 72.3179 64.0124 72.5901C61.0546 73.5596 57.0213 76.4936 55.0507 75.5262C53.9669 74.9987 54.0015 73.2938 53.8808 72.2778C53.4244 68.3184 50.838 64.3917 53.3709 62.978C57.0958 60.9039 61.0305 65.281 64.1877 67.4839L64.5024 67.3394C64.8469 67.2273 65.2015 67.1496 65.5611 67.1073C66.2535 66.9683 66.9724 67.0805 67.5904 67.4238C67.9289 67.7022 68.1482 68.1005 68.2032 68.5368C68.37 69.6034 69.2136 72.0963 68.6806 73.0184C68.5213 73.2912 68.3123 73.5313 68.0647 73.7263Z" fill="#E2F9FE"/>
<path d="M74.6547 74.8777C72.9759 75.0412 70.2689 73.5979 68.7789 72.7571C68.6389 73.1432 68.3899 73.4798 68.0623 73.7256C66.1642 75.2554 65.7109 72.0292 64.0101 72.5894C61.0721 73.5494 57.0294 76.4929 55.0484 75.5254C53.9655 74.9895 53.9991 73.2931 53.8784 72.2771C53.4315 68.3272 50.8356 64.3857 53.3685 62.9773C54.272 62.4725 55.3258 62.3108 56.3379 62.5215L56.682 62.2451C55.2937 60.4674 54.1999 58.476 53.443 56.3476C53.2919 55.9879 53.0925 55.5036 52.91 54.9761L53.0149 54.9361C54.0138 51.847 53.7494 52.1403 53.9225 52.0633C53.7057 51.6108 53.5477 51.1321 53.4524 50.639C52.6461 50.6971 51.8592 50.9147 51.1367 51.2794C49.7276 52.1118 49.2743 53.5762 48.4548 54.8801C47.499 56.4088 45.0878 55.7495 44.1728 57.5176C43.6597 58.5114 44.0343 60.1551 44.2442 61.1669C45.5704 66.3288 47.6011 71.2813 50.2784 75.8831C51.4089 78.1228 52.7748 80.2343 54.3527 82.1814C59.2569 87.4638 62.8223 74.3649 65.4244 74.0664C66.3509 74.0664 66.8934 74.9958 67.4548 75.8673C68.8398 77.9878 71.7284 85.4467 74.1406 80.4692C74.6955 78.6613 74.8706 76.7572 74.6547 74.8777Z" fill="white"/>
<path d="M92.2243 158.498C91.0618 155.755 88.8415 153.632 87.7031 150.927C87.2341 149.807 87.9895 148.687 87.5845 147.657C86.9718 146.12 84.1136 145.68 83.7474 143.655L82.908 143.575C78.9859 146.05 73.6661 146.802 69.0043 146.336C66.3232 146.175 63.676 145.65 61.1349 144.776L60.9124 144.095C58.5335 144.928 56.1105 145.628 53.6547 146.191C50.804 146.838 47.8838 147.121 44.9627 147.035C43.1044 147.031 41.2826 146.516 39.6933 145.548L39.3282 145.819C38.6357 148.229 36.0094 149.589 35.4764 150.725C32.913 156.239 29.9153 161.169 28.3414 167.018C26.2354 174.659 24.9179 182.498 24.4099 190.411C24.2346 193.348 23.5505 197.245 24.9754 200.053C25.7393 201.575 27.7371 202.023 29.4872 202.535C33.8005 203.826 38.206 204.781 42.6648 205.394C46.0833 205.833 48.4357 206.359 49.7001 203.153C51.6547 203.468 53.6378 203.566 55.6137 203.445C55.6269 203.932 55.772 204.406 56.0334 204.817C56.8927 206.057 60.5148 205.441 61.7162 205.384C67.5343 205.145 73.5035 205.152 79.2818 204.408C79.4486 204.28 80.1023 203.817 80.2051 203.529C80.3909 202.994 80.5217 202.441 80.5954 201.88C80.5954 201.88 83.7264 201.575 86.4608 201.319C86.4282 201.653 86.3821 202.883 86.8039 203.168C87.4953 203.656 89.0157 203.24 89.7638 203.152C92.1918 202.88 94.6198 202.608 97.0551 202.391C97.1107 202.384 97.7707 198.775 97.7896 198.623C99.2008 186.17 97.3625 170.614 92.2243 158.498Z" fill="#FAD353"/>
<path d="M55.4081 39.1695C55.1401 38.3445 54.7602 37.5606 54.2791 36.84C53.1428 35.1584 51.1639 34.6245 49.8376 36.4233C47.2218 39.9649 51.0075 44.6671 54.9716 43.2101L55.1143 43.2502C55.4114 42.0242 55.5611 40.7668 55.5602 39.505H55.513C55.5109 39.4511 55.4249 39.2581 55.4081 39.1695ZM63.1138 56.328C62.5063 56.9735 61.679 57.3649 60.7971 57.4241C59.8467 57.396 58.9291 57.0683 58.1739 56.4873C57.0331 55.8839 56.0261 55.0534 55.2144 54.0465C54.4027 53.0396 53.8032 51.8771 53.4523 50.6299C53.3027 49.7817 53.3162 48.9125 53.4922 48.0694C52.0913 47.8807 50.7166 47.5313 49.3948 47.0282C45.2114 45.146 41.8276 41.021 39.8749 36.8727C35.9434 28.5192 39.7784 26.0221 43.1381 20.7312C45.0079 17.7888 45.5514 15.4868 47.9384 12.785C52.9004 7.1787 62.6983 4.02847 70.0096 5.76711C72.8454 6.42645 75.5066 7.69272 77.8118 9.47965C78.3781 9.91843 78.8494 10.4688 79.1968 11.097C79.4581 11.5728 79.5452 12.2743 80.0006 12.6172C81.1033 13.4465 83.1273 13.4939 84.4337 13.8737C84.9352 14.0193 88.1061 15.394 88.2781 15.5216C90.137 16.9054 91.5356 18.8226 92.29 21.021C93.0444 23.2193 93.1192 25.5958 92.5045 27.8377C91.9107 29.9013 90.511 32.1632 90.7932 34.3682C91.2318 37.761 94.0847 40.043 92.9736 43.7577C91.3189 49.2922 83.6352 52.3401 86.6864 57.4906C86.1745 57.3579 85.6811 57.1615 85.2175 56.9061C84.5257 56.5014 83.9378 55.9397 83.5005 55.2658C83.0633 54.5918 82.7889 53.8244 82.6992 53.0248L82.4516 52.7684C84.7816 50.4649 86.3039 47.4625 86.7892 44.2134C87.2572 40.9661 85.9897 38.2917 85.6351 35.1626C85.1797 31.1472 87.0841 27.6963 85.2773 21.6301C85.0139 20.7471 83.0487 15.9879 75.6063 14.8517C75.4415 14.762 75.6367 14.7103 75.025 15.644C71.7555 20.6363 67.0244 23.1577 63.0635 27.1277C61.7155 28.3037 60.7188 29.8329 60.1843 31.545C59.3785 35.1858 62.7581 37.8676 62.8431 41.3333C62.9481 45.6303 57.1771 47.3753 57.5339 51.9687C57.6839 53.9131 58.943 56.1064 61.1077 56.0832C61.6323 56.0769 63.159 55.3278 63.5829 55.5705C63.7402 55.657 63.1674 56.2636 63.1138 56.328Z" fill="#F5BF42"/>
<path d="M54.8207 139.643C54.8941 141.132 55.02 142.837 53.0936 143.261C53.038 143.269 52.9887 143.284 52.9341 143.293C50.3477 143.715 50.5313 135.53 50.0371 131.313C51.532 129.61 52.9147 127.811 54.1764 125.927C54.1523 131.417 54.5961 135.122 54.8207 139.643Z" fill="#E2F9FE"/>
<path d="M73.5648 46.2922C72.4882 47.2501 73.7956 50.6767 75.1082 50.9574C75.417 50.9654 75.7242 50.9107 76.0114 50.7964C76.2986 50.6822 76.5599 50.5109 76.7797 50.2927C77.9812 49.1642 78.891 47.758 79.4301 46.1962C77.6317 45.828 74.9865 45.0251 73.5648 46.2922ZM56.6822 62.2448C55.2943 60.4669 54.2005 58.4755 53.4432 56.3474C53.2921 55.9876 53.0927 55.5034 52.9102 54.9759L53.0151 54.9358C54.014 51.8467 53.7496 52.14 53.9227 52.063C54.8819 53.9234 56.3588 55.463 58.1732 56.494C58.9283 57.075 59.8459 57.4027 60.7964 57.4309C61.6803 57.3795 62.5103 56.9868 63.1131 56.3347C63.1698 56.2714 63.7427 55.6648 63.5821 55.5741C63.1572 55.3314 61.6326 56.0805 61.1069 56.0868C58.9423 56.111 57.6832 53.9177 57.5332 51.9723C57.1796 47.3788 62.9484 45.6338 62.8424 41.3368C62.7564 37.8712 59.3799 35.1893 60.1836 31.5485C60.7187 29.8363 61.7162 28.307 63.0649 27.1313C67.073 23.1149 71.7737 20.624 75.0264 15.6476C75.6402 14.7107 75.4461 14.7656 75.6077 14.8553C83.05 15.9915 85.0153 20.7506 85.2786 21.6336C85.9423 23.9287 86.1876 26.3256 86.0026 28.7085C85.6837 30.8452 85.5611 33.0068 85.6364 35.1661C85.9911 38.2953 87.2586 40.9686 86.7906 44.217C86.4483 46.5635 85.5549 48.7943 84.1843 50.7245C82.8138 52.6548 81.0057 54.2289 78.9097 55.3166C76.6766 56.1676 74.2441 56.3404 71.9143 55.8135C70.638 58.3105 69.5293 60.8904 68.5955 63.5361L68.691 63.5678C69.0543 64.3696 69.2442 65.2398 69.2481 66.1209L69.4066 66.3129C68.9284 66.702 68.4936 67.1421 68.1097 67.6253L67.8232 67.6496C67.7573 67.5611 67.6763 67.485 67.584 67.4249C66.966 67.0816 66.2471 66.9694 65.5547 67.1084C65.0807 67.1474 64.6181 67.2751 64.1907 67.485C62.1058 66.028 59.2403 63.0677 56.3433 62.5265L56.6822 62.2448Z" fill="#FCE0D1"/>
<path d="M55.5615 39.5046C55.5628 40.7682 55.413 42.0274 55.1155 43.2551L54.9728 43.2151C51.0087 44.672 47.223 39.9699 49.8388 36.4282C51.1651 34.6347 53.1429 35.1622 54.2803 36.845C54.7614 37.5655 55.1414 38.3494 55.4093 39.1744C55.4261 39.263 55.5142 39.454 55.5142 39.5099L55.5615 39.5046Z" fill="#FCE0D1"/>
<path d="M67.6534 95.1787C67.5159 95.3137 66.0795 96.5069 66.1959 96.7475C66.3009 97.294 66.1561 96.7781 66.7059 97.7961C65.8974 98.3408 65.1188 98.9289 64.3734 99.558C62.8236 100.844 55.1231 106.97 52.8725 108.817C51.329 96.5565 49.0689 84.3924 46.4017 72.3242C45.7019 69.1592 45.3913 66.2981 44.6274 63.1531L44.7387 63.1215C45.4683 65.5424 46.3591 67.9113 47.4048 70.2121C48.7185 73.1334 52.158 79.762 54.353 82.1758C59.2551 87.5648 62.9086 74.0523 65.5286 74.0523C66.368 74.0523 67.0784 75.2803 67.4551 75.8627C68.8306 77.9896 71.7287 85.4421 74.1409 80.4646C74.4148 80.5954 74.3077 80.5142 74.4106 80.76C75.0418 82.6701 75.3932 84.6624 75.4535 86.6743L75.5721 86.7619C73.1326 90.2033 70.8809 92.0021 67.6534 95.1787Z" fill="#7ED6ED"/>
<path d="M44.9032 17.1619L45.048 17.2347C44.4425 18.411 43.8539 19.6031 43.1373 20.7309C40.6873 24.5891 37.5059 27.2909 38.3464 32.2874C38.6288 33.8829 39.1436 35.4278 39.8741 36.8724L39.7943 36.9125C38.7986 39.1618 39.66 40.6346 39.5845 42.6834C39.6678 45.2358 39.0773 47.7649 37.8731 50.0135C36.4042 52.4073 33.5712 54.9456 33.3372 57.8564C33.0927 60.9359 35.357 62.8845 35.7012 65.9071C36.252 70.7485 30.5829 71.1568 27.1844 69.9636L27.1686 69.9076C29.4686 69.4603 30.756 67.5476 29.5882 65.3469C27.6628 61.7177 23.6232 60.419 23.6431 55.7348C23.6673 49.9323 28.3071 45.7481 29.519 40.3064C30.5451 35.6887 28.5211 31.1343 29.0332 26.5092C29.7057 20.4345 35.8219 16.0963 41.704 16.282C42.8038 16.4347 43.8792 16.7304 44.9032 17.1619Z" fill="#F5BF42"/>
<path d="M44.1336 57.6031C43.8365 58.7743 43.875 60.0062 44.2448 61.1563C44.7117 63.356 44.8555 63.0838 44.6278 63.1482C45.3916 66.2931 45.7022 69.1501 46.4021 72.3193C49.0693 84.3874 51.3336 96.5516 52.8728 108.812C51.9978 109.524 51.1216 110.245 50.2497 110.958L50.0399 110.694C49.6924 109.698 49.1118 108.801 48.347 108.078C47.5822 107.355 46.6556 106.828 45.6456 106.54L45.654 106.508C44.7062 96.0973 43.0171 85.7687 40.5997 75.6014C39.6453 71.126 38.3717 66.7255 36.7888 62.4339C36.644 62.0584 36.5076 61.687 36.3355 61.3294C36.2579 61.1679 35.9935 60.7533 36.0407 60.7533L35.9609 60.5529C44.6467 57.333 43.7957 57.4691 44.1336 57.6031Z" fill="#E2F9FE"/>
<path d="M88.3782 97.0448L86.2377 96.8918C86.069 97.6337 85.7299 98.3255 85.2474 98.9117C84.7649 99.498 84.1525 99.9625 83.4593 100.268C84.0431 112.502 83.6758 124.763 82.3607 136.94C82.112 139.516 82.9535 139.744 79.2885 139.9C78.4847 139.933 79.2087 136.771 79.1835 133.09C79.1605 129.292 79.4983 111.226 78.6264 101.671L78.3798 101.535C78.1837 101.928 77.9406 102.296 77.6558 102.63C77.3279 102.993 76.8864 103.233 76.4045 103.31C75.9225 103.387 75.4289 103.296 75.0054 103.052C74.8218 102.973 73.8827 102.3 73.7159 102.436C73.549 102.572 73.7442 103.317 73.7557 103.491C73.804 104.244 73.9226 105.39 73.2699 105.94C72.5061 106.573 71.4631 105.964 70.9228 105.355C64.9784 111.906 59.3883 118.774 54.1766 125.928C54.1525 131.414 54.59 135.123 54.8209 139.643C54.908 141.444 54.8618 142.981 52.9322 143.292C50.3458 143.714 50.5284 135.529 50.0352 131.312C47.4415 134.097 44.3052 136.01 40.0232 135.017C39.605 134.909 39.1951 134.77 38.7966 134.602L38.4703 135.446C37.8804 136.385 37.44 137.411 37.165 138.487C37.2082 139.244 37.4684 139.972 37.9142 140.584L37.3801 141.135C37.321 141.548 37.3291 141.967 37.4043 142.376C37.8136 143.649 38.61 144.76 39.6812 145.554C41.2704 146.522 43.0922 147.036 44.9505 147.041C50.3963 146.996 55.7928 146 60.8992 144.097L61.1217 144.777C61.9359 144.988 62.2758 145.206 63.7091 145.537C69.8714 146.949 77.5415 146.957 82.8979 143.577C89.3236 139.515 86.393 134.066 86.6543 128.611C86.8001 125.598 88.6751 124.497 88.1515 120.272C87.6489 116.744 89.8052 114.786 90.8796 111.605C92.5888 106.592 92.0474 101.03 88.3782 97.0448Z" fill="#7ED6ED"/>
<path d="M35.9567 60.5576L36.0365 60.7581C35.9893 60.7581 36.2537 61.1727 36.3313 61.3341C36.5034 61.6917 36.6398 62.0631 36.7846 62.4387C38.366 66.7316 39.6375 71.1336 40.5892 75.6104C43.0068 85.7794 44.6959 96.1098 45.6435 106.522L45.6351 106.555C46.6451 106.842 47.5717 107.369 48.3365 108.092C49.1013 108.815 49.6819 109.712 50.0294 110.708L50.2392 110.972C49.3557 111.7 48.4723 112.423 47.5888 113.141C47.4933 112.893 45.9257 113.198 45.846 113.228C44.118 114.099 42.6308 115.386 41.5167 116.974C38.0175 121.322 35.7941 126.865 34.2496 132.467L34.6798 132.587C35.2768 132.932 36.367 133.508 37.4572 134.019L37.346 134.251C37.4414 134.332 36.558 135.164 36.2789 135.372C33.0744 137.76 31.297 138.009 28.9729 137.157C24.842 135.636 24.7759 132.018 22.9921 128.314C22.0541 126.376 20.3081 125.321 19.5212 123.216C18.7563 121.167 18.7867 118.785 18.6062 116.59C18.0397 109.547 19.1109 102.881 19.474 95.879C19.8192 89.2209 17.6179 82.6662 18.2002 76.0957C18.7563 69.8205 23.2062 65.4433 27.973 63.4061L28.124 63.27C28.6974 63.897 29.1909 64.5934 29.593 65.3431C30.7608 67.5438 29.4734 69.4576 27.1734 69.9039L27.1892 69.9598C30.5877 71.153 36.2568 70.7447 35.706 65.9033C35.3519 64.266 34.7761 62.6853 33.9946 61.2054C34.6694 61.0592 35.3271 60.8421 35.9567 60.5576Z" fill="#7ED6ED"/>
<path d="M185.005 126.658C184.21 124.654 180.535 123.714 179.425 123.474C172.119 121.931 159.521 122.07 150.928 121.399C144.193 120.872 134.926 118.061 129.367 120.872C126.801 122.243 126.307 124.833 128.506 126.731C130.43 128.184 132.669 129.156 135.039 129.567C135.006 129.632 134.988 129.704 134.986 129.778C134.986 129.892 134.661 150.609 134.787 152.082C134.859 153.059 135.244 153.988 135.884 154.728C134.409 156.751 133.591 159.183 133.542 161.691C131.703 160.907 129.923 159.99 128.217 158.948C125.566 157.303 122.999 155.526 120.525 153.624C113.667 148.321 105.181 141.216 100.193 133.18C105.708 131.229 110.489 127.612 113.882 122.825C113.924 122.769 113.955 122.705 113.973 122.636C113.99 122.568 113.994 122.497 113.983 122.427C113.973 122.357 113.948 122.29 113.911 122.23C113.875 122.169 113.826 122.117 113.769 122.076C113.712 122.035 113.647 122.006 113.578 121.991C113.51 121.976 113.439 121.974 113.369 121.987C113.3 122 113.234 122.027 113.176 122.065C113.117 122.104 113.067 122.155 113.028 122.214C109.54 127.131 104.541 130.758 98.7999 132.536C98.5785 132.488 98.4851 132.585 98.3109 132.625C97.6457 132.787 97.2113 131.54 96.758 130.218C96.6363 129.868 96.5519 129.507 96.5062 129.14C96.5062 129.056 96.5062 128.633 96.4989 128.612C99.421 127.723 101.347 125.791 103.963 124.79C104.03 124.767 104.092 124.731 104.145 124.684C104.198 124.637 104.241 124.58 104.271 124.515C104.301 124.451 104.318 124.381 104.321 124.31C104.324 124.239 104.312 124.169 104.287 124.102C104.262 124.036 104.224 123.975 104.175 123.924C104.126 123.873 104.067 123.832 104.002 123.804C103.937 123.776 103.867 123.762 103.796 123.762C103.726 123.762 103.656 123.777 103.591 123.804C100.112 125.135 97.9248 127.9 93.668 128.014C93.4373 128.041 93.2036 128.016 92.9837 127.941C92.7639 127.866 92.5635 127.742 92.3973 127.579C91.964 126.984 92.1612 126.114 92.369 125.192C92.9765 122.499 92.7771 122.053 89.2432 120.053C88.7323 119.764 88.7386 119.75 88.6231 119.725C88.4815 117.758 89.1362 116.579 90.0994 114.652C90.5919 113.721 91.0196 112.757 91.3795 111.767C93.2829 106.169 92.3039 100.53 88.7564 96.6804C88.7153 96.6376 88.6674 96.602 88.6147 96.5749C89.2937 95.9459 89.7018 95.0753 89.7521 94.1484C92.2578 94.3932 94.8505 93.1293 94.8935 90.5203C94.8197 89.2675 94.3603 88.0689 93.5788 87.0905C93.3353 86.7287 93.0806 86.3747 92.8149 86.0291C95.5703 87.2856 97.0592 88.3227 99.3948 88.5664C99.7531 88.6453 100.125 88.6372 100.48 88.5428C100.834 88.4484 101.161 88.2703 101.434 88.0234C101.706 87.7766 101.916 87.4679 102.047 87.1231C102.177 86.7783 102.224 86.4073 102.183 86.0407C101.858 82.4358 96.9511 82.1372 94.3269 81.4662C95.9008 79.6158 111.798 60.8937 111.87 60.7882C118.291 53.206 118.166 53.3959 118.075 53.0646C118.002 52.6854 117.84 52.3292 117.603 52.0255C117.366 51.7218 117.06 51.4795 116.711 51.3186C116.374 51.2067 116.015 51.18 115.665 51.2407C115.315 51.3014 114.986 51.4477 114.706 51.6667L91.198 79.9133C89.6241 78.8351 88.1069 77.6324 86.1731 77.3486C80.525 76.5436 77.0247 84.6798 72.8843 89.2764C71.0009 91.3221 67.2351 94.8447 67.1207 94.9502C65.8438 96.0738 65.486 96.5042 65.7263 96.9885C65.7011 97.2301 65.8155 97.3271 66.0033 97.6331C65.1366 98.2355 66.4031 97.2395 50.3872 110.163C49.9786 109.17 49.3518 108.283 48.5537 107.569C47.7556 106.854 46.8069 106.331 45.7789 106.037C43.4256 105.418 40.9258 105.731 38.795 106.911C38.7288 106.757 38.6303 106.62 38.5065 106.509C38.0659 106.154 37.5694 105.876 37.0375 105.686C35.4506 105.115 33.7798 104.816 32.0945 104.801C31.9553 104.798 31.8207 104.85 31.7201 104.947C31.6196 105.044 31.5614 105.177 31.5583 105.317C31.5553 105.457 31.6076 105.592 31.7038 105.693C31.8 105.794 31.9323 105.853 32.0714 105.856C33.6705 105.889 36.5381 106.294 37.8119 107.294C37.8323 107.327 37.8502 107.363 37.8654 107.399C35.5356 108.818 33.4031 110.542 31.5237 112.524C31.4309 112.624 31.38 112.755 31.3815 112.891C31.3829 113.028 31.4368 113.158 31.5317 113.255C31.6266 113.352 31.7552 113.409 31.8906 113.413C32.026 113.417 32.1577 113.368 32.2582 113.277C35.8697 109.7 40.6102 105.658 45.4924 107.052C46.4196 107.317 47.2702 107.801 47.9729 108.464C48.6756 109.127 49.2099 109.95 49.531 110.864C48.8546 111.421 48.1764 111.975 47.4965 112.528C46.8806 112.501 46.2642 112.568 45.6677 112.724C43.8436 113.614 42.2759 114.957 41.1128 116.627C37.1498 121.546 34.9317 127.753 33.3567 133.791C33.3377 133.859 33.3322 133.929 33.3406 133.999C33.349 134.068 33.3712 134.136 33.4058 134.197C33.4403 134.258 33.4867 134.311 33.542 134.354C33.5974 134.396 33.6606 134.428 33.7281 134.445C33.7956 134.463 33.8659 134.467 33.935 134.457C34.0041 134.448 34.0705 134.424 34.1304 134.388C34.1903 134.352 34.2425 134.304 34.2839 134.248C34.3252 134.191 34.355 134.127 34.3714 134.059C35.9012 128.175 38.0532 122.1 41.926 117.291C42.9696 115.78 44.369 114.553 45.9992 113.719C46.1041 113.691 46.186 113.598 44.9751 114.587C44.9216 114.631 44.8772 114.685 44.8444 114.745C44.8115 114.806 44.791 114.873 44.7839 114.942C44.7768 115.011 44.7832 115.081 44.8029 115.147C44.8226 115.214 44.8551 115.276 44.8986 115.33C44.942 115.383 44.9956 115.428 45.0563 115.461C45.1169 115.494 45.1834 115.515 45.252 115.522C45.3206 115.529 45.3899 115.523 45.456 115.503C45.5221 115.483 45.5837 115.45 45.6372 115.407C45.6372 115.407 47.187 114.141 47.7683 113.66C47.8926 113.619 47.9972 113.534 48.061 113.419C48.9004 112.739 65.8984 98.9898 66.5174 98.552C67.7534 100.865 69.149 104.15 70.5277 105.708C70.8603 106.192 71.3661 106.528 71.9394 106.646C72.5126 106.764 73.1091 106.655 73.6041 106.341C74.4603 105.617 74.3291 104.322 74.2756 103.465C74.2756 103.412 74.2599 103.32 74.241 103.207C74.2672 103.222 74.7163 103.502 74.7457 103.508C75.2759 103.812 75.8939 103.924 76.4962 103.825C77.0984 103.725 77.6484 103.421 78.054 102.962C78.7498 102.025 79.3049 100.991 79.7013 99.8918C79.6772 101.001 80.4201 101.724 81.7306 101.434C82.8421 101.27 83.8881 100.804 84.7559 100.086C85.6237 99.3686 86.2805 98.4268 86.6558 97.3619C87.0722 97.3595 87.4824 97.2598 87.854 97.0708C87.8593 97.1951 87.9088 97.3134 87.9936 97.4041C91.2694 100.962 92.1654 106.206 90.389 111.436C89.2758 114.725 87.1091 116.644 87.6347 120.338C87.8834 121.997 87.6483 123.693 86.958 125.22C86.0997 127.617 85.9087 128.301 86.3452 132.696C86.8279 137.549 86.8384 140.466 82.6224 143.13C82.1198 143.447 81.5999 143.735 81.0653 143.994C81.1273 143.191 81.1703 142.433 81.1902 141.681C81.1505 141.075 81.1614 140.467 81.2227 139.863C81.2227 139.388 80.546 139.112 80.2994 139.519C80.2156 139.608 80.1655 139.724 80.1577 139.847C80.0371 141.831 80.2816 140.909 79.9741 144.46C76.4718 145.715 72.7369 146.176 69.0367 145.811C67.2842 145.678 65.5439 145.415 63.8303 145.023C63.1013 144.858 62.3835 144.647 61.6814 144.39C62.652 144.055 66.6129 142.662 66.6129 142.662C66.6784 142.639 66.739 142.604 66.7909 142.558C66.8429 142.512 66.8854 142.456 66.9158 142.394C66.9463 142.332 66.9641 142.264 66.9684 142.194C66.9726 142.125 66.9631 142.055 66.9405 141.989C66.9179 141.924 66.8825 141.863 66.8365 141.811C66.7905 141.759 66.7347 141.717 66.6724 141.687C66.61 141.656 66.5424 141.639 66.4733 141.635C66.4042 141.631 66.335 141.641 66.2698 141.665C62.2862 143.181 58.223 144.478 54.0984 145.548C54.0777 144.906 53.9485 144.272 53.7165 143.673C53.7423 143.547 53.7249 143.416 53.667 143.301C53.6092 143.186 53.5144 143.094 53.398 143.04C53.2817 142.986 53.1506 142.973 53.0261 143.004C52.9016 143.034 52.791 143.106 52.7124 143.208C52.5308 143.468 52.6179 143.714 52.7764 144.164C52.9659 144.685 53.0653 145.234 53.0702 145.789C50.4055 146.384 47.6753 146.629 44.9479 146.518C43.1991 146.542 41.4802 146.061 39.9954 145.131C39.0277 144.421 38.3036 143.425 37.9231 142.283C37.8737 142.012 37.8582 141.736 37.8769 141.461C37.8899 141.437 37.9008 141.412 37.9095 141.386C38.6703 142.214 39.5935 142.875 40.6207 143.326C40.7483 143.382 40.8928 143.385 41.0224 143.334C41.152 143.283 41.256 143.182 41.3117 143.053C41.3673 142.925 41.37 142.78 41.3192 142.65C41.2683 142.519 41.168 142.415 41.0404 142.359C39.9794 141.905 39.0505 141.188 38.3407 140.274C37.9657 139.769 37.7428 139.167 37.6986 138.539C37.9578 137.557 38.3628 136.62 38.9 135.76C38.9854 135.696 39.0497 135.608 39.0843 135.507C39.1189 135.406 39.1222 135.297 39.0938 135.194C39.0654 135.091 39.0065 134.999 38.9251 134.931C38.8436 134.862 38.7434 134.82 38.6376 134.81C38.513 134.802 38.3887 134.831 38.2806 134.893C38.1724 134.956 38.0852 135.05 38.0301 135.163C37.4126 136.149 36.9524 137.226 36.6661 138.355C36.6539 139.155 36.8789 139.941 37.3124 140.613C37.2009 140.629 37.0977 140.682 37.0181 140.762C36.9385 140.843 36.8868 140.947 36.8707 141.059C36.8004 141.55 36.815 142.05 36.9137 142.536C37.2864 143.701 37.9624 144.745 38.8716 145.559C38.8496 145.595 38.8327 145.635 38.8213 145.677C38.1728 147.932 35.6105 149.2 34.9967 150.504C32.4229 156.047 29.4262 160.949 27.8272 166.881C25.7136 174.558 24.3902 182.433 23.8778 190.382C23.6952 193.461 23.0016 197.345 24.4989 200.299C25.2995 201.894 27.2008 202.436 28.8764 202.918C33.3676 204.274 37.9564 205.278 42.6017 205.922C46.0055 206.39 48.4545 206.847 49.9654 203.857C50.714 203.986 51.4751 204.025 52.2329 203.974C53.4479 203.982 54.2988 204.008 55.1603 203.988C55.2399 204.389 55.3883 204.773 55.5989 205.124C56.5075 206.435 59.3458 206.133 60.9501 205.983C62.9573 205.792 71.4961 205.795 79.312 204.941C79.892 204.691 80.3757 204.259 80.6908 203.709C80.8289 203.309 80.9387 202.9 81.0192 202.484C82.001 202.265 83.0012 202.14 84.0064 202.11C84.636 202.06 85.2823 202.009 85.9245 201.911C85.878 202.219 85.9052 202.533 86.004 202.828C86.1027 203.123 86.2701 203.39 86.4921 203.607C87.3793 203.997 88.3764 204.052 89.301 203.763C90.3502 203.584 95.6395 203.052 97.0906 202.919C97.2298 202.907 97.3584 202.839 97.4481 202.732C97.5378 202.624 97.5813 202.485 97.5691 202.345C97.5569 202.205 97.4898 202.076 97.3828 201.986C97.2757 201.895 97.1374 201.852 96.9983 201.864C95.7528 201.975 90.2558 202.521 89.1289 202.714C88.5088 202.82 87.4721 202.997 87.0954 202.732C86.6684 202.31 87.7103 193.861 85.2802 176.178C83.933 165.706 83.1303 162.357 82.8092 159.422C82.7746 159.096 82.7274 158.646 82.2479 158.649C82.1591 158.655 82.0729 158.681 81.9962 158.726C81.9195 158.771 81.8545 158.834 81.8063 158.909C81.7582 158.985 81.7284 159.07 81.7192 159.159C81.7101 159.248 81.7219 159.338 81.7537 159.421C82.1062 162.864 85.9916 182.873 85.914 198.699C85.914 199.426 85.9066 200.151 85.9213 200.836C84.6013 201.055 82.5721 201.092 81.1913 201.364C81.5284 198.258 81.7035 195.137 81.7159 192.013C81.8712 182.326 81.9142 173.611 80.8597 165.034C80.8391 164.898 80.7666 164.776 80.6577 164.693C80.5488 164.61 80.4121 164.573 80.2765 164.59C80.141 164.607 80.0174 164.676 79.9319 164.783C79.8465 164.891 79.8059 165.027 79.8188 165.164C80.8681 173.672 80.8219 182.35 80.6666 191.995C80.6278 194.364 80.4883 201.077 79.7108 203.331C79.5273 203.555 79.3099 203.748 79.0665 203.903C72.1698 204.776 63.8743 204.642 60.8493 204.926C59.6952 205.031 56.9902 205.289 56.475 204.546C55.8454 203.491 56.2368 202.265 56.453 200.048V161.473C56.453 161.335 56.6355 161.199 56.6628 161.035L56.6974 160.69C56.7415 160.268 56.7866 159.826 56.2956 159.741C56.2058 159.736 56.1159 159.75 56.0326 159.785C55.9493 159.819 55.8747 159.871 55.8143 159.938C55.7539 160.005 55.7092 160.085 55.6835 160.172C55.6579 160.259 55.6519 160.35 55.666 160.439C55.2988 163.887 55.4079 151.676 55.4079 199.989C55.3114 200.961 55.0931 201.948 55.0931 202.928C54.3922 202.945 50.4565 202.904 50.3515 202.903C50.7169 201.649 50.9422 200.358 51.0231 199.054C51.3169 196.033 51.5361 196.13 52.2329 185.604C52.7659 177.6 53.492 168.74 54.4992 160.716C54.5007 160.573 54.4469 160.434 54.349 160.331C54.2511 160.227 54.1168 160.165 53.9746 160.159C53.9072 160.155 53.8398 160.166 53.7765 160.189C53.7132 160.213 53.6552 160.249 53.6062 160.295C53.5572 160.342 53.518 160.398 53.4912 160.46C53.4643 160.523 53.4503 160.59 53.45 160.658C52.4417 168.628 51.7124 177.538 51.1825 185.534C50.49 195.957 50.2749 195.886 49.9749 198.951C49.7828 200.919 49.5803 202.96 48.3496 204.38C47.2122 205.665 44.5334 205.119 42.7308 204.873C38.1369 204.233 33.5988 203.239 29.1566 201.899C27.6163 201.456 26.0224 201.002 25.4265 199.818C24.3195 197.634 24.5703 194.681 24.7969 192.078C25.2617 183.651 26.6158 175.298 28.8365 167.16C30.3999 161.357 33.3578 156.517 35.9442 150.954C36.4017 149.978 38.9199 148.64 39.752 146.206C41.7486 147.272 44.0023 147.754 46.2573 147.597C48.5893 147.597 50.9143 147.343 53.1919 146.839C53.386 148.618 53.5266 150.228 53.6221 151.749C53.6308 151.889 53.6945 152.02 53.7991 152.113C53.9037 152.205 54.0406 152.252 54.1797 152.244C54.3189 152.235 54.4488 152.171 54.541 152.066C54.6332 151.96 54.6801 151.823 54.6713 151.683C54.5617 149.986 54.4124 148.291 54.2233 146.601C56.3771 146.09 58.5054 145.476 60.6007 144.761C60.5978 144.883 60.6371 145.002 60.7119 145.099C60.7867 145.195 60.8924 145.262 61.0109 145.288C63.5763 146.16 66.2449 146.688 68.9475 146.858C72.6383 147.223 76.3639 146.796 79.8786 145.606C79.8409 146.042 79.6919 147.621 79.6919 147.621C79.6789 147.761 79.7218 147.9 79.811 148.008C79.9003 148.117 80.0286 148.185 80.1677 148.198C80.3069 148.211 80.4454 148.168 80.553 148.078C80.6605 147.988 80.7282 147.859 80.7411 147.719C80.7411 147.719 80.9216 145.799 80.9699 145.198C82.6009 144.512 84.0889 143.523 85.3558 142.283C88.0838 139.549 87.7355 136.011 87.3955 132.588C86.9611 128.197 87.1783 127.735 87.9516 125.575C88.5948 124.136 88.87 122.559 88.7522 120.987C90.4898 121.971 91.4205 122.641 91.518 122.979C91.9262 124.375 90.3334 126.527 91.5999 128.254C91.8431 128.513 92.1357 128.72 92.4602 128.862C92.7847 129.005 93.1345 129.079 93.4885 129.083C94.1506 129.07 94.8103 129 95.4601 128.872C95.4739 129.448 95.5802 130.018 95.7749 130.56C96.331 132.187 96.9784 134.084 98.6372 133.631C98.8233 133.641 99.009 133.605 99.1776 133.525C104.238 141.793 112.905 149.056 119.894 154.462C122.397 156.386 124.995 158.184 127.676 159.847C129.57 161.039 131.567 162.053 133.645 162.878C137.25 164.259 137.864 164.378 139.835 165.174C143.351 166.593 146.732 167.917 150.476 167.073C153.358 166.335 154.148 165.418 157.285 164.253C158.545 163.831 160.11 164.059 161.449 163.383C163.321 162.424 164.702 160.838 166.451 159.879C167.29 159.424 168.639 158.892 169.737 158.208C170.819 157.669 171.648 156.724 172.045 155.578C172.127 155.316 172.136 155.036 172.07 154.77C172.005 154.503 171.868 154.26 171.675 154.066C170.768 153.169 168.811 153.423 168.199 153.583C165.333 154.315 162.295 157.206 159.07 158.59C160.233 157.429 162.858 154.777 162.375 153.198C162.316 153.006 162.208 152.833 162.063 152.695C161.918 152.557 161.74 152.459 161.546 152.411C160.124 151.989 158.425 153.156 157.213 153.975C154.695 155.678 152.426 157.668 149.995 159.486C151.171 158.042 152.181 156.469 153.004 154.796C153.313 154.163 153.918 152.817 153.053 152.09C151.904 151.116 150.199 152.407 149.304 153.087C147.93 154.269 146.675 155.584 145.557 157.013C142.619 156.853 138.894 155.951 137.048 154.382C135.789 153.308 135.779 151.943 135.799 150.298C135.837 147.631 135.68 157.111 136.046 129.8C138.609 130.39 141.362 130.616 143.826 131.396C143.958 131.438 144.102 131.425 144.226 131.361C144.349 131.296 144.442 131.185 144.483 131.051C144.525 130.918 144.512 130.773 144.448 130.649C144.384 130.525 144.273 130.432 144.14 130.39C139.971 129.069 132.693 128.95 129.201 125.931C126.91 123.955 128.662 121.735 132.034 121.055C135.898 120.255 140.393 120.965 144.561 121.622C149.861 122.458 151.314 122.602 160.969 122.965C165.813 123.146 174.219 123.449 179.216 124.503C180.766 124.837 183.526 125.75 184.042 127.044C184.116 127.263 184.132 127.498 184.089 127.725C184.046 127.953 183.945 128.165 183.796 128.341C182.738 129.85 179.218 130.662 177.426 130.898C174.714 131.215 171.982 131.321 169.254 131.215C169.116 131.212 168.983 131.263 168.881 131.356C168.779 131.45 168.716 131.579 168.706 131.717C168.699 131.857 168.748 131.993 168.841 132.096C168.935 132.2 169.065 132.262 169.204 132.269C173.23 132.465 180.371 132.251 183.66 129.93C184.216 129.615 184.651 129.122 184.895 128.528C185.139 127.935 185.178 127.276 185.005 126.658ZM115.452 52.42C116.199 52.0412 116.688 52.3145 116.989 53.1068C116.277 53.9635 113.501 57.2445 111.679 59.3956C111.403 58.9292 110.959 58.5874 110.439 58.4409L115.452 52.42ZM109.593 59.4579C109.735 59.4178 109.883 59.4083 110.029 59.4299C110.175 59.4516 110.315 59.5039 110.44 59.5836C110.564 59.6632 110.67 59.7684 110.752 59.8921C110.833 60.0159 110.887 60.1555 110.911 60.3019C104.316 68.092 93.2629 81.1086 93.2629 81.1086C92.8555 80.9331 92.4611 80.7286 92.0825 80.4967L109.593 59.4579ZM86.8426 96.3038C86.8727 95.0272 86.7269 93.7526 86.4092 92.5163C85.9801 90.7893 85.66 90.823 85.382 90.8536C85.2738 90.8715 85.1729 90.92 85.0912 90.9935C85.0095 91.067 84.9504 91.1625 84.9207 91.2686C84.8911 91.3747 84.8922 91.4872 84.9239 91.5927C84.9556 91.6982 85.0166 91.7924 85.0997 91.8643C85.6684 93.4347 85.8834 95.1124 85.7293 96.7764C85.3274 98.7809 83.4902 99.9762 81.5113 100.403C81.3581 100.437 80.9867 100.498 80.8545 100.342C80.7222 100.186 80.6929 99.7399 80.9331 99.1227C81.5889 97.4843 82.4095 97.0845 82.1671 96.4916C82.1318 96.4086 82.0768 96.3355 82.0069 96.2789C81.937 96.2222 81.8544 96.1837 81.7663 96.1666C81.1094 96.0463 80.4473 96.7564 79.8881 97.4653C78.673 98.9708 78.395 100.923 77.2754 102.273C77.0168 102.546 76.6745 102.725 76.3033 102.78C75.9321 102.834 75.5532 102.763 75.2273 102.576C74.6586 102.274 73.9136 101.604 73.3911 102.028C72.9368 102.397 73.2043 103.154 73.239 103.559C73.2935 104.2 73.3764 105.169 72.942 105.537C72.4573 105.937 71.6892 105.425 71.3188 105.01C69.7984 103.291 67.979 98.6965 66.7252 96.8028C66.9466 96.4958 67.2498 96.2943 69.2738 94.3605C71.7573 92.1698 74.0103 89.7284 75.9974 87.0746C78.5943 83.5235 81.9079 77.8075 86.0294 78.393C87.8698 78.6631 89.3723 79.9755 91.0029 81.0485C91.7671 81.5837 92.6015 82.0098 93.4822 82.3145C95.9302 83.1205 100.883 83.1521 101.15 86.1346C101.243 87.1464 100.503 87.6063 99.5165 87.5156C97.0308 87.2118 95.5461 86.0143 91.944 84.4635C91.7636 84.3696 91.3858 83.8959 90.9126 84.0172C90.7292 84.0857 90.5789 84.2224 90.4929 84.3991C90.2568 84.9868 91.0501 85.1862 92.7509 87.714C93.402 88.5188 93.7898 89.5063 93.861 90.5414C93.8232 92.4847 91.6272 93.2991 89.7763 93.086C89.687 91.8519 89.4886 90.6282 89.1834 89.4294C89.088 89.0369 89.1834 88.1338 89.0785 87.7076C89.0614 87.6405 89.0314 87.5774 88.99 87.522C88.9487 87.4665 88.8969 87.4198 88.8376 87.3845C88.7783 87.3492 88.7127 87.326 88.6445 87.3161C88.5763 87.3063 88.5068 87.3101 88.44 87.3273C88.3733 87.3445 88.3105 87.3747 88.2554 87.4163C88.2003 87.4578 88.1538 87.5099 88.1187 87.5695C88.0836 87.6291 88.0605 87.6951 88.0507 87.7637C88.0409 87.8323 88.0447 87.9021 88.0618 87.9693C88.0829 88.1697 88.0913 88.3712 88.087 88.5727C88.0739 88.9438 88.1006 89.3152 88.1667 89.6805C88.509 90.9496 88.7057 92.254 88.7533 93.5681C88.8529 94.1847 88.7088 94.8159 88.3518 95.3271C87.9948 95.8382 87.4531 96.1887 86.8426 96.3038ZM144.636 158.005C144.081 158.55 143.465 159.029 142.8 159.431C142.686 159.505 142.605 159.621 142.574 159.755C142.544 159.888 142.566 160.029 142.636 160.146C142.706 160.263 142.819 160.349 142.951 160.384C143.083 160.419 143.223 160.401 143.342 160.334C146.331 158.526 147.356 155.866 149.996 153.877C151.231 152.942 152.027 152.611 152.365 152.901C152.48 152.996 152.535 153.336 152.02 154.4C150.595 157.076 148.811 159.542 146.718 161.729C146.673 161.781 146.638 161.841 146.617 161.907C146.595 161.973 146.586 162.042 146.59 162.111C146.595 162.18 146.613 162.248 146.644 162.31C146.675 162.372 146.717 162.427 146.769 162.473C146.821 162.518 146.882 162.553 146.947 162.575C147.012 162.597 147.081 162.606 147.15 162.601C147.219 162.597 147.286 162.578 147.347 162.548C147.409 162.517 147.464 162.474 147.509 162.422L148.294 161.521C148.381 161.59 148.488 161.629 148.599 161.634C148.71 161.638 148.819 161.607 148.911 161.545C153.31 158.578 159.228 152.839 161.232 153.421C161.344 153.456 161.354 153.489 161.36 153.507C161.449 153.8 161.104 154.708 160.081 155.942C157.783 158.515 155.225 160.84 152.448 162.881C152.334 162.961 152.257 163.083 152.233 163.221C152.209 163.359 152.24 163.501 152.32 163.615C152.4 163.73 152.522 163.808 152.659 163.832C152.796 163.856 152.937 163.825 153.051 163.745C154.728 162.565 156.307 161.25 157.772 159.814C157.838 159.895 157.927 159.955 158.027 159.985C158.127 160.015 158.234 160.015 158.334 159.984C160.285 159.261 162.131 158.277 163.821 157.058C165.232 156.01 166.792 155.183 168.448 154.604C169.272 154.357 170.158 154.432 170.929 154.815C170.988 154.873 171.03 154.946 171.049 155.027C171.067 155.108 171.062 155.193 171.034 155.271C170.712 156.153 170.062 156.874 169.221 157.283C168.067 157.998 166.901 158.426 165.943 158.949C164.139 159.936 162.667 161.568 160.967 162.437C159.883 162.986 158.307 162.792 156.931 163.255C153.595 164.495 153.023 165.328 150.224 166.043C146.036 166.993 142.09 164.852 138.157 163.383C136.973 162.942 135.784 162.513 134.59 162.097C134.555 159.711 135.283 157.377 136.666 155.439C138.646 156.975 141.975 157.756 144.636 158.005Z" fill="#3D4A56"/>
<path d="M175.881 128.006C175.95 127.994 176.017 127.969 176.076 127.932C176.135 127.894 176.187 127.845 176.227 127.787C176.267 127.73 176.295 127.664 176.31 127.596C176.325 127.527 176.325 127.456 176.312 127.386C176.299 127.317 176.272 127.251 176.234 127.193C176.195 127.134 176.145 127.084 176.086 127.045C176.028 127.006 175.962 126.979 175.893 126.966C175.824 126.954 175.754 126.955 175.685 126.97C172.723 127.534 169.903 127.226 164.458 127.044C159.259 126.871 153.884 126.72 148.614 126.273C145.904 126.111 143.214 125.699 140.579 125.04C139.44 124.761 138.345 124.324 137.326 123.741C137.268 123.677 137.214 123.608 137.165 123.537C137.081 123.419 136.959 123.333 136.82 123.295C136.68 123.256 136.532 123.267 136.4 123.326C136.332 123.374 136.276 123.436 136.236 123.509C136.195 123.581 136.171 123.662 136.165 123.745C136.16 123.828 136.173 123.912 136.203 123.989C136.233 124.066 136.281 124.136 136.341 124.193C136.638 124.606 137.058 124.913 137.539 125.072C140.517 126.443 145.321 127.136 148.539 127.327C155.763 127.94 163.823 128.035 167.838 128.233C170.519 128.473 173.218 128.396 175.881 128.006Z" fill="#3D4A56"/>
<path d="M54.5573 41.0486C54.0049 40.2057 53.3019 39.4732 52.484 38.8879C52.0043 38.5967 51.4958 38.3563 50.9668 38.1705C50.8444 38.1706 50.726 38.2136 50.6318 38.2922C50.5377 38.3708 50.4739 38.48 50.4514 38.6009C50.4288 38.7218 50.449 38.8468 50.5085 38.9543C50.5679 39.0618 50.6628 39.1451 50.7769 39.1897C50.8818 39.2392 51.7936 39.6887 51.9415 39.7963C51.3193 40.2816 51.1388 40.5074 51.1242 40.7933C51.1226 40.8754 51.1375 40.957 51.1682 41.0332C51.1989 41.1093 51.2446 41.1785 51.3025 41.2364C51.369 41.2987 51.4504 41.3426 51.5389 41.3638C51.6273 41.3849 51.7196 41.3826 51.8069 41.3571C51.8942 41.3316 51.9734 41.2837 52.0367 41.2181C52.1 41.1526 52.1453 41.0716 52.1682 40.9832C52.3555 40.8093 52.5528 40.6466 52.7589 40.4958C53.7347 41.4695 53.635 41.8672 54.1229 41.8672C54.2175 41.8667 54.3101 41.8405 54.3911 41.7913C54.472 41.7422 54.5382 41.6719 54.5827 41.5881C54.6273 41.5042 54.6484 41.4098 54.6439 41.3148C54.6394 41.2198 54.6095 41.1278 54.5573 41.0486Z" fill="#3D4A56"/>
<path d="M161.512 71.9106C161.41 72.0011 161.346 72.128 161.336 72.2645C161.325 72.401 161.367 72.5364 161.454 72.642C161.541 72.7476 161.665 72.8152 161.8 72.8305C161.935 72.8458 162.071 72.8076 162.179 72.724C162.457 72.4917 162.8 72.351 163.16 72.321C163.485 72.3593 163.789 72.5018 164.027 72.7274C164.265 72.9529 164.425 73.2495 164.482 73.5732C164.539 73.8865 164.486 74.21 164.33 74.4875C164.175 74.7649 163.927 74.9787 163.631 75.0917C163.335 75.2046 163.009 75.2095 162.709 75.1056C162.41 75.0016 162.156 74.7954 161.992 74.5228C161.958 74.4616 161.911 74.4081 161.855 74.3654C161.8 74.3226 161.736 74.2915 161.668 74.2738C161.601 74.2562 161.53 74.2523 161.461 74.2626C161.391 74.2728 161.325 74.2968 161.265 74.3333C161.205 74.3698 161.153 74.418 161.112 74.475C161.071 74.532 161.042 74.5967 161.026 74.6653C161.01 74.7339 161.008 74.8049 161.02 74.8743C161.032 74.9437 161.057 75.01 161.095 75.0692C161.386 75.5526 161.837 75.9179 162.368 76.1019C162.9 76.2858 163.478 76.2766 164.004 76.0759C164.529 75.8752 164.968 75.4957 165.244 75.0033C165.52 74.511 165.615 73.937 165.514 73.3812C165.411 72.8244 165.129 72.3167 164.713 71.9357C164.296 71.5547 163.766 71.3214 163.205 71.2712C162.586 71.2913 161.991 71.516 161.512 71.9106Z" fill="#3D4A56"/>
<path d="M152.541 69.3839C152.402 69.3979 152.275 69.4666 152.187 69.5749C152.099 69.6832 152.057 69.8223 152.071 69.9615C152.085 70.1007 152.153 70.2286 152.261 70.3172C152.369 70.4057 152.507 70.4476 152.645 70.4336C154.24 70.2943 155.79 69.8275 157.198 69.0621C157.261 69.0302 157.317 68.9859 157.363 68.9319C157.408 68.8778 157.442 68.815 157.463 68.7474C157.484 68.6797 157.491 68.6085 157.484 68.538C157.477 68.4675 157.456 68.3992 157.422 68.3371C157.388 68.275 157.342 68.2204 157.287 68.1765C157.231 68.1327 157.168 68.1005 157.1 68.082C157.032 68.0634 156.961 68.0587 156.891 68.0684C156.821 68.078 156.754 68.1016 156.693 68.1379C155.408 68.8336 153.995 69.2577 152.541 69.3839Z" fill="#3D4A56"/>
<path d="M147.287 61.5583C147.324 61.6166 147.372 61.667 147.429 61.7066C147.485 61.7462 147.549 61.7742 147.616 61.789C147.684 61.8037 147.753 61.8051 147.821 61.7928C147.889 61.7806 147.954 61.755 148.012 61.7176C148.07 61.6802 148.12 61.6317 148.159 61.5748C148.198 61.5179 148.226 61.4538 148.241 61.3861C148.256 61.3184 148.257 61.2485 148.245 61.1803C148.233 61.1121 148.207 61.0469 148.17 60.9886C147.885 60.5435 147.448 60.2178 146.942 60.072C146.436 59.9263 145.894 59.9704 145.418 60.1963C145.35 60.2221 145.288 60.2617 145.236 60.3128C145.184 60.3638 145.144 60.4251 145.117 60.4927C145.089 60.5604 145.077 60.633 145.079 60.7059C145.081 60.7788 145.098 60.8504 145.129 60.9163C145.161 60.9822 145.205 61.0408 145.26 61.0886C145.315 61.1363 145.379 61.1721 145.448 61.1937C145.517 61.2152 145.59 61.2221 145.663 61.2139C145.735 61.2057 145.804 61.1825 145.867 61.1458C146.113 61.0295 146.393 61.0072 146.654 61.0831C146.915 61.159 147.14 61.3279 147.287 61.5583Z" fill="#3D4A56"/>
<path d="M153.402 63.5507C153.525 63.5243 153.478 63.5021 153.651 63.4884C153.942 63.4614 154.234 63.527 154.486 63.676C154.738 63.825 154.936 64.0498 155.054 64.3187C155.082 64.3836 155.122 64.4423 155.172 64.4913C155.223 64.5403 155.282 64.5786 155.348 64.604C155.413 64.6294 155.483 64.6413 155.553 64.6391C155.623 64.6369 155.692 64.6205 155.756 64.591C155.82 64.5615 155.877 64.5195 155.924 64.4674C155.972 64.4153 156.008 64.3542 156.031 64.2876C156.055 64.2211 156.065 64.1506 156.06 64.0802C156.056 64.0098 156.038 63.9409 156.007 63.8777C155.777 63.3591 155.375 62.9371 154.87 62.6841C154.365 62.4311 153.788 62.363 153.238 62.4915C153.129 62.5109 153.028 62.5608 152.946 62.6354C152.863 62.71 152.804 62.8064 152.774 62.9135C152.75 63.0012 152.749 63.0939 152.772 63.182C152.795 63.2702 152.841 63.3507 152.904 63.4153C152.968 63.48 153.048 63.5266 153.135 63.5504C153.223 63.5741 153.315 63.5742 153.402 63.5507Z" fill="#3D4A56"/>
<path d="M158.687 56.919C158.818 56.9197 158.946 56.8705 159.043 56.7812C159.14 56.6919 159.201 56.569 159.212 56.437C159.223 56.305 159.185 56.1735 159.104 56.0687C159.024 55.9639 158.907 55.8935 158.777 55.8714C158.752 55.8419 158.723 55.7997 158.725 55.8397C158.712 55.4084 158.859 54.9875 159.139 54.6603C160.294 52.9187 161.682 51.3448 163.262 49.9824C163.316 49.9375 163.359 49.8826 163.391 49.8206C163.423 49.7586 163.442 49.6909 163.448 49.6214C163.454 49.5519 163.446 49.4819 163.424 49.4156C163.403 49.3492 163.369 49.2878 163.323 49.2349C163.278 49.1819 163.223 49.1385 163.161 49.1071C163.099 49.0758 163.032 49.0571 162.962 49.0521C162.893 49.0472 162.824 49.0561 162.758 49.0783C162.692 49.1005 162.632 49.1357 162.579 49.1816C160.938 50.5946 159.498 52.2275 158.298 54.0346C157.852 54.5832 157.634 55.2842 157.691 55.9906C157.736 56.2322 157.857 56.4527 158.037 56.6199C158.216 56.787 158.444 56.8919 158.687 56.919Z" fill="#3D4A56"/>
<path d="M151.707 53.5594C151.213 50.2066 150.778 47.7083 148.803 44.8313C148.724 44.7161 148.602 44.6371 148.465 44.6119C148.328 44.5867 148.187 44.6172 148.072 44.6968C147.957 44.7764 147.879 44.8986 147.854 45.0364C147.829 45.1742 147.859 45.3164 147.938 45.4316C149.74 48.0523 150.184 50.4956 150.666 53.6606C150.666 53.776 150.692 53.8898 150.742 53.9937C150.792 54.0976 150.864 54.1889 150.954 54.2609C151.052 54.331 151.171 54.3649 151.291 54.357C151.412 54.3491 151.525 54.2999 151.614 54.2176C151.702 54.1353 151.76 54.025 151.777 53.9052C151.794 53.7853 151.769 53.6632 151.707 53.5594Z" fill="#3D4A56"/>
<path d="M147.28 67.1169C147.719 67.293 148.208 67.2979 148.651 67.1306C148.789 67.4459 149.003 67.7215 149.273 67.9328C149.544 68.1441 149.863 68.2843 150.2 68.3407C150.425 68.3434 150.647 68.2985 150.853 68.2091C151.059 68.1197 151.244 67.9877 151.396 67.8217C151.448 67.7743 151.491 67.7167 151.521 67.6525C151.55 67.5882 151.567 67.5185 151.57 67.4476C151.572 67.3766 151.56 67.306 151.535 67.2397C151.51 67.1735 151.471 67.113 151.422 67.0621C151.373 67.0111 151.314 66.9706 151.249 66.943C151.184 66.9154 151.114 66.9012 151.044 66.9014C150.973 66.9016 150.903 66.9161 150.839 66.9441C150.774 66.9721 150.715 67.0129 150.666 67.0642C150.352 67.367 150.15 67.4028 149.744 66.9101C149.643 66.7892 149.571 66.6467 149.534 66.4934C149.523 66.3549 149.47 66.2231 149.383 66.1149C149.297 66.0068 149.18 65.9273 149.047 65.8868C148.857 65.8435 148.652 65.8752 148.273 66.1463C147.902 66.2814 147.337 66.1358 147.312 65.6927C147.304 65.5531 147.241 65.4223 147.138 65.3291C147.034 65.236 146.898 65.188 146.759 65.1958C145.91 65.2422 146.217 66.7572 147.28 67.1169Z" fill="#3D4A56"/>
<path d="M144.833 68.3321C145.96 68.9873 147.176 69.4748 148.442 69.7795C148.577 69.8132 148.719 69.792 148.838 69.7205C148.957 69.649 149.043 69.5331 149.077 69.398C149.111 69.2629 149.091 69.1197 149.021 68.9996C148.95 68.8795 148.835 68.7924 148.701 68.7572C147.541 68.479 146.427 68.0349 145.392 67.4385C143.278 66.0849 141.553 62.8598 143.014 60.6791C143.298 60.3315 143.666 60.0639 144.083 59.9026C144.61 59.7019 145.073 59.362 145.424 58.9188C145.775 58.4756 146.001 57.9455 146.077 57.3843C146.464 56.073 146.602 55.9917 147.458 55.5085C148.894 54.6962 149.564 54.1054 148.271 50.9984C147.382 49.2574 146.842 47.3575 146.682 45.4069C146.657 44.6739 146.921 43.9607 147.417 43.4225C147.516 43.343 147.634 43.289 147.758 43.2649C147.883 43.2409 148.012 43.2475 148.134 43.2843C148.995 43.4879 149.652 44.5682 150.127 45.485C150.94 47.0699 151.526 48.7623 151.868 50.5121C151.908 51.6375 152.113 52.7508 152.475 53.8163C153.184 55.1942 155.485 54.482 155.696 55.3123C155.711 55.3808 155.74 55.4455 155.781 55.5025C155.822 55.5596 155.874 55.6078 155.933 55.6444C155.993 55.6811 156.059 55.7053 156.129 55.7158C156.198 55.7263 156.268 55.7228 156.336 55.7055C156.404 55.6882 156.467 55.6575 156.523 55.6151C156.579 55.5728 156.626 55.5196 156.661 55.4588C156.696 55.398 156.718 55.3307 156.727 55.261C156.736 55.1913 156.731 55.1205 156.712 55.0528C156.275 53.3205 153.774 54.0484 153.406 53.33C153.118 52.3478 152.947 51.3345 152.898 50.3116C152.537 48.4625 151.918 46.674 151.058 44.9997C150.442 43.8118 149.641 42.5574 148.373 42.2567C146.65 41.8495 145.645 43.6419 145.635 45.3995C145.607 48.8948 148.169 52.199 147.888 53.7973C147.836 54.0843 147.382 54.3396 146.944 54.5875C146.444 54.8058 146.009 55.1503 145.681 55.5878C145.353 56.0252 145.143 56.5405 145.072 57.0837C144.684 58.3982 144.502 58.5174 143.623 58.9563C143.04 59.1933 142.532 59.5849 142.154 60.0894C140.337 62.7859 142.198 66.6451 144.833 68.3321Z" fill="#3D4A56"/>
<path d="M142.68 112.18C142.746 112.203 142.818 112.213 142.888 112.209C142.959 112.204 143.029 112.185 143.092 112.153C143.155 112.121 143.212 112.076 143.257 112.021C143.303 111.966 143.337 111.903 143.357 111.835C143.949 109.86 146.005 106.729 145.568 104.408C145.438 103.581 145 102.835 144.343 102.32C143.073 101.491 141.541 102.728 141.126 103.971C141.087 104.05 140.973 104.369 140.916 104.509C140.791 104.359 140.619 104.127 140.524 104.04C139.386 102.958 137.683 102.428 136.764 103.711C136.2 104.482 136.322 105.582 137.125 106.982C138.31 109.004 140.487 111.397 142.68 112.18ZM137.619 104.332C137.684 104.232 137.774 104.149 137.88 104.094C137.986 104.038 138.105 104.012 138.224 104.016C138.903 104.107 139.523 104.454 139.957 104.987C140.24 105.347 140.593 105.805 141.082 105.741C141.711 105.669 141.9 104.837 142.099 104.369C142.193 104.086 142.348 103.827 142.554 103.61C142.759 103.394 143.01 103.227 143.287 103.119C143.95 102.955 144.42 103.94 144.546 104.596C144.872 106.336 143.27 109.036 142.553 110.974C140.676 109.892 139.119 108.329 138.041 106.444C137.467 105.463 137.321 104.733 137.619 104.332Z" fill="#3D4A56"/>
<path d="M160.249 89.9089L156.403 94.8305C156.352 94.895 156.318 94.9705 156.301 95.0509C156.285 95.1313 156.287 95.2144 156.308 95.2937L157.924 101.344C157.95 101.439 158.001 101.524 158.072 101.591C158.142 101.658 158.231 101.704 158.326 101.724C158.421 101.743 158.52 101.736 158.612 101.702C158.703 101.669 158.783 101.61 158.843 101.533L162.695 96.6113C162.746 96.5469 162.781 96.4714 162.797 96.391C162.813 96.3106 162.811 96.2275 162.79 96.1482L161.174 90.0988C161.149 90.003 161.099 89.916 161.027 89.8479C160.956 89.7797 160.867 89.733 160.771 89.7132C160.674 89.6934 160.574 89.7012 160.482 89.7359C160.39 89.7705 160.309 89.8304 160.249 89.9089ZM158.661 100.054L157.384 95.2757L160.427 91.3891L161.703 96.1672L158.661 100.054Z" fill="#3D4A56"/>
<path d="M177.229 73.2334C177.225 73.3807 177.169 73.5217 177.072 73.6322C176.944 73.8158 175.908 75.125 175.79 75.2442C175.698 75.3005 175.626 75.3836 175.583 75.4823C175.54 75.5811 175.528 75.6906 175.549 75.7964C175.57 75.9021 175.622 75.9989 175.7 76.0737C175.777 76.1485 175.875 76.1977 175.981 76.2148C177.389 76.6446 178.827 76.9672 180.283 77.1801C180.414 77.1946 180.547 77.1801 180.673 77.1376C180.798 77.0952 180.913 77.0258 181.009 76.9343C181.631 76.2634 180.799 75.3054 180.319 74.3464C180.672 74.3892 181.029 74.3578 181.369 74.2543C181.709 74.1508 182.023 73.9774 182.293 73.7451C182.927 73.2044 183.362 72.4649 183.527 71.6456C183.599 71.2842 183.546 70.9088 183.376 70.5822C183.054 70.0399 182.209 69.6696 181.802 69.332C182.488 67.663 182.182 66.0024 180.42 65.8684C178.048 65.7112 178.089 67.8508 177.797 68.9796C177.484 68.9002 177.16 68.87 176.838 68.89C176.452 68.9819 176.101 69.1823 175.824 69.4678C175.548 69.7532 175.358 70.112 175.277 70.502C174.82 72.4358 177.123 72.785 177.229 73.2334ZM176.291 70.7246C176.327 70.5374 176.414 70.3638 176.542 70.2227C176.669 70.0817 176.833 69.9787 177.015 69.9249C177.066 69.9249 177.189 69.9492 177.303 69.9692C178.624 70.215 178.714 69.8405 178.953 68.5102C179.163 67.356 179.293 66.8422 180.338 66.9213C180.814 66.9572 180.935 67.1671 180.975 67.2378C181.069 67.5429 181.099 67.8643 181.063 68.1815C181.026 68.4988 180.925 68.805 180.765 69.0809C180.3 70.0884 182.202 70.6634 182.459 71.0854C182.511 71.1931 182.526 71.3151 182.503 71.4325C182.383 72.0184 182.073 72.5474 181.62 72.9359C181.432 73.0943 181.21 73.2072 180.971 73.2661C180.733 73.325 180.484 73.3282 180.244 73.2756C180.078 73.2243 179.901 73.2259 179.736 73.2801C179.571 73.3344 179.427 73.4385 179.324 73.5784C178.88 74.3454 179.728 75.3255 180.098 76.1178C179.061 75.9406 178.035 75.7004 177.027 75.3983C177.459 74.8708 177.923 74.2525 177.935 74.2378C178.073 74.0644 178.172 73.8635 178.227 73.6484C178.281 73.4334 178.289 73.2091 178.25 72.9907C178.113 72.4147 177.586 72.1183 177.121 71.8566C176.421 71.4599 176.167 71.2627 176.291 70.7246Z" fill="#3D4A56"/>
<path d="M54.2615 19.3901C54.3995 19.3715 54.5245 19.2985 54.609 19.1872C54.6935 19.0759 54.7306 18.9355 54.7121 18.7967C54.6936 18.6579 54.621 18.5322 54.5104 18.4472C54.3997 18.3622 54.2599 18.3249 54.1219 18.3436C51.6674 18.9034 49.1834 19.3229 46.6816 19.6001C46.6119 19.6074 46.5443 19.6287 46.4829 19.6627C46.4215 19.6967 46.3675 19.7427 46.3241 19.7981C46.2807 19.8534 46.2488 19.917 46.2302 19.9849C46.2116 20.0529 46.2068 20.124 46.216 20.1938C46.2251 20.2637 46.2482 20.3311 46.2837 20.3918C46.3192 20.4526 46.3664 20.5056 46.4227 20.5478C46.4789 20.5899 46.5429 20.6202 46.611 20.637C46.6791 20.6538 46.7499 20.6567 46.8191 20.6456C49.321 20.3656 51.8056 19.9465 54.2615 19.3901Z" fill="#3D4A56"/>
<path d="M49.8191 24.0148C48.6649 24.0148 47.0543 22.676 46.089 21.8731L45.8907 21.7086C45.8374 21.6646 45.7761 21.6316 45.7101 21.6114C45.6442 21.5913 45.5749 21.5844 45.5063 21.5911C45.4378 21.5979 45.3712 21.6182 45.3104 21.6508C45.2496 21.6835 45.1957 21.7278 45.152 21.7814C45.1083 21.8349 45.0754 21.8966 45.0554 21.9629C45.0353 22.0292 45.0285 22.0988 45.0352 22.1678C45.0419 22.2368 45.0621 22.3037 45.0946 22.3649C45.127 22.426 45.1711 22.4801 45.2244 22.5241C46.4447 23.5337 48.2242 25.0698 49.8212 25.0698C49.8901 25.0697 49.9583 25.0559 50.0219 25.0292C50.0855 25.0026 50.1432 24.9636 50.1919 24.9145C50.2405 24.8655 50.279 24.8072 50.3052 24.7432C50.3315 24.6791 50.3449 24.6105 50.3448 24.5412C50.3446 24.472 50.3309 24.4034 50.3044 24.3395C50.2779 24.2755 50.2392 24.2174 50.1904 24.1685C50.1416 24.1197 50.0836 24.0809 50.0199 24.0545C49.9562 24.0282 49.888 24.0147 49.8191 24.0148Z" fill="#3D4A56"/>
<path d="M81.4482 40.7383C82.6601 38.9374 81.124 36.6945 79.1619 36.1237C79.0128 36.0909 78.8599 36.0792 78.7076 36.0889C78.6508 36.0467 78.5863 36.0165 78.5177 36C78.4491 35.9836 78.3779 35.9812 78.3083 35.993C78.2388 36.0048 78.1723 36.0306 78.1129 36.0688C78.0535 36.107 78.0024 36.1569 77.9626 36.2155C77.9061 36.3056 77.8728 36.4083 77.8654 36.5145C77.8581 36.6208 77.8771 36.7272 77.9206 36.8242C77.9943 36.9384 78.099 37.0289 78.2223 37.085C78.3456 37.1411 78.4824 37.1604 78.6163 37.1407C78.7212 37.1407 78.8461 37.1344 78.867 37.1312C80.2374 37.5659 81.3339 39.0207 80.5805 40.1411C80.1062 40.8427 79.7327 40.7456 78.9867 40.5515C78.5294 40.4048 78.0495 40.3426 77.5702 40.368C76.8514 40.4313 76.3415 41.001 75.9092 41.1676C75.7522 41.2275 75.5834 41.2495 75.4164 41.232C75.2494 41.2146 75.0888 41.1581 74.9473 41.067C74.8059 40.976 74.6877 40.853 74.602 40.7078C74.5163 40.5626 74.4656 40.3992 74.4539 40.2308C74.4437 40.0913 74.3788 39.9617 74.2736 39.8703C74.1683 39.7789 74.0312 39.7332 73.8925 39.7434C72.817 39.8204 73.604 42.2923 75.5315 42.2923C76.0595 42.2838 76.5695 42.0981 76.9805 41.7648C77.5544 41.3808 77.6594 41.3006 78.7233 41.578C79.2013 41.796 79.7419 41.831 80.2437 41.6764C80.7455 41.5217 81.1739 41.1881 81.4482 40.7383Z" fill="#3D4A56"/>
<path d="M79.9534 26.6253C79.9703 26.7075 80.0033 26.7855 80.0505 26.8547C80.0977 26.924 80.1581 26.9831 80.2282 27.0287C80.2983 27.0742 80.3767 27.1053 80.4589 27.1201C80.541 27.1349 80.6253 27.1331 80.7068 27.1149C82.4215 26.8962 84.1582 27.2906 85.6131 28.2289C85.729 28.3034 85.8694 28.3292 86.004 28.3006C86.1386 28.272 86.2566 28.1915 86.3327 28.0762C86.4088 27.961 86.4368 27.8203 86.4107 27.6845C86.3847 27.5487 86.3066 27.4286 86.1933 27.3501C84.9818 26.5414 83.5704 26.0873 82.117 26.0388C81.5064 25.9947 80.8929 26.0237 80.2892 26.1253C80.2342 26.1354 80.1818 26.1564 80.135 26.1871C80.0882 26.2179 80.0479 26.2577 80.0167 26.3043C79.9854 26.3509 79.9637 26.4033 79.9528 26.4584C79.942 26.5135 79.9422 26.5703 79.9534 26.6253Z" fill="#3D4A56"/>
<path d="M65.7561 32.6263C65.0847 32.9452 64.4701 33.3729 63.9367 33.8923C63.3659 34.4672 63.1414 34.9146 63.2683 35.2247C63.3082 35.3271 63.379 35.4143 63.4706 35.4743C63.5622 35.5342 63.6702 35.5639 63.7794 35.5591C63.8887 35.5543 63.9937 35.5154 64.0798 35.4477C64.166 35.38 64.2289 35.2869 64.2599 35.1815C64.3648 35.0348 64.624 34.7015 64.6733 34.6445C65.1235 34.2068 65.6425 33.8467 66.2094 33.5789C67.6783 32.8573 69.2774 33.1327 70.9499 34.3913C71.005 34.4329 71.0677 34.4631 71.1345 34.4803C71.2012 34.4975 71.2707 34.5013 71.3389 34.4915C71.4071 34.4817 71.4727 34.4585 71.532 34.4232C71.5913 34.3879 71.6431 34.3412 71.6844 34.2858C71.7257 34.2304 71.7558 34.1673 71.7729 34.1002C71.79 34.0331 71.7938 33.9633 71.784 33.8947C71.7743 33.8261 71.7512 33.7601 71.7161 33.7005C71.681 33.6409 71.6346 33.5889 71.5795 33.5473C69.5659 32.0302 67.6049 31.7211 65.7561 32.6263Z" fill="#3D4A56"/>
<path d="M85.2784 34.8523C85.3977 34.9246 85.5406 34.9464 85.6758 34.9127C85.811 34.8791 85.9273 34.7929 85.9993 34.673C86.0712 34.5531 86.0928 34.4093 86.0594 34.2734C86.0259 34.1375 85.9401 34.0205 85.8209 33.9482C85.2397 33.5917 84.5856 33.3728 83.908 33.3079C83.2303 33.243 82.5468 33.3339 81.9093 33.5737C81.8946 33.5737 80.4046 34.0178 80.2472 34.5232C80.2027 34.6418 80.2021 34.7725 80.2456 34.8915C80.2891 35.0105 80.3737 35.1098 80.4841 35.1712C80.5944 35.2325 80.723 35.2519 80.8464 35.2257C80.9698 35.1995 81.0796 35.1295 81.1559 35.0285C81.3909 34.9008 82.0698 34.6308 82.2408 34.5706C82.7361 34.3875 83.2658 34.3177 83.7913 34.3664C84.3168 34.4152 84.8248 34.5812 85.2784 34.8523Z" fill="#3D4A56"/>
<path d="M77.1003 50.7122C78.3739 49.5333 79.3389 48.0571 79.9102 46.4141C79.9435 46.3417 79.96 46.2627 79.9585 46.183C79.957 46.1032 79.9376 46.0249 79.9016 45.9538C79.8656 45.8827 79.8141 45.8207 79.7509 45.7726C79.6877 45.7244 79.6145 45.6912 79.5367 45.6756C77.5148 45.261 74.8402 44.455 73.2181 45.894C71.8068 47.16 73.237 51.0983 75.0963 51.4855C75.4646 51.4962 75.8313 51.4334 76.1753 51.3006C76.5193 51.1679 76.8337 50.9679 77.1003 50.7122ZM73.8193 48.3268C73.621 47.5725 73.6588 46.9142 73.9127 46.6884C75.0081 45.7136 77.2577 46.2516 78.6847 46.5755C78.2084 47.8587 77.4283 49.0058 76.412 49.9178C76.0944 50.2374 75.669 50.4256 75.2201 50.4453C74.7983 50.3524 74.1183 49.461 73.8193 48.3268Z" fill="#3D4A56"/>
<path d="M74.4886 51.9546C74.1132 52.0368 73.7262 52.0507 73.346 51.9958C73.2777 51.9851 73.208 51.9882 73.141 52.0049C73.074 52.0216 73.0109 52.0517 72.9556 52.0932C72.9003 52.1348 72.8538 52.1871 72.8188 52.247C72.7839 52.3069 72.7612 52.3732 72.7521 52.442C72.7421 52.5106 72.7457 52.5805 72.7626 52.6477C72.7796 52.7149 72.8095 52.7781 72.8507 52.8336C72.8919 52.8892 72.9436 52.936 73.0029 52.9715C73.0621 53.0069 73.1277 53.0303 73.1959 53.0402C73.7001 53.1137 74.2134 53.0951 74.711 52.9854C74.8443 52.9531 74.9596 52.8696 75.0325 52.7529C75.1053 52.6361 75.1298 52.4954 75.1007 52.3607C75.0717 52.226 74.9914 52.1082 74.877 52.0323C74.7626 51.9564 74.6232 51.9285 74.4886 51.9546Z" fill="#3D4A56"/>
<path d="M62.0932 68.6131C62.4247 69.1153 62.3104 68.8326 62.7301 70.3497C62.7481 70.4173 62.7794 70.4807 62.8221 70.536C62.8648 70.5914 62.918 70.6377 62.9786 70.6721C63.0393 70.7066 63.1061 70.7286 63.1753 70.7368C63.2445 70.745 63.3146 70.7392 63.3816 70.7199C63.4485 70.7006 63.511 70.668 63.5653 70.6241C63.6196 70.5803 63.6647 70.526 63.6979 70.4644C63.7311 70.4028 63.7518 70.3352 63.7588 70.2655C63.7657 70.1958 63.7588 70.1255 63.7384 70.0585C63.6322 69.3234 63.3629 68.6217 62.9504 68.0054C62.9025 67.9295 62.8363 67.867 62.758 67.8235C62.6797 67.78 62.5918 67.7569 62.5024 67.7565C62.4037 67.7566 62.307 67.7848 62.2235 67.8377C62.14 67.8906 62.073 67.9661 62.0302 68.0556C61.9875 68.1451 61.9707 68.2449 61.9819 68.3435C61.993 68.4421 62.0316 68.5356 62.0932 68.6131Z" fill="#3D4A56"/>
<path d="M57.3922 70.068C57.5622 70.068 57.6273 70.0205 57.8717 69.9952C59.1029 70.0548 60.3269 70.2193 61.5305 70.4869C61.6639 70.5106 61.8013 70.4816 61.9138 70.4059C62.0264 70.3301 62.1055 70.2135 62.1345 70.0804C62.1635 69.9474 62.1402 69.8082 62.0695 69.692C61.9988 69.5758 61.8861 69.4917 61.755 69.4572C60.3181 69.1015 58.8383 68.9523 57.3597 69.0141C57.2908 69.0162 57.223 69.032 57.1602 69.0605C57.0973 69.089 57.0407 69.1296 56.9935 69.1801C56.8981 69.2821 56.847 69.418 56.8513 69.5579C56.8535 69.6272 56.8691 69.6954 56.8975 69.7585C56.9258 69.8217 56.9663 69.8787 57.0165 69.9261C57.1179 70.022 57.2531 70.0724 57.3922 70.068Z" fill="#3D4A56"/>
<path d="M69.5599 69.9713C69.8002 69.9713 70.6553 69.5968 72.8724 69.178C73.0041 69.1472 73.119 69.0665 73.193 68.9527C73.267 68.8388 73.2944 68.7006 73.2695 68.567C73.2446 68.4333 73.1693 68.3144 73.0593 68.2352C72.9493 68.1561 72.8132 68.1226 72.6793 68.1419C71.5764 68.3498 70.4851 68.6157 69.4098 68.9385C69.2892 68.9748 69.1856 69.0535 69.1179 69.1603C69.0502 69.2671 69.023 69.3948 69.0412 69.5201C69.0594 69.6454 69.1218 69.7599 69.217 69.8427C69.3122 69.9256 69.4339 69.9712 69.5599 69.9713Z" fill="#3D4A56"/>
<path d="M81.53 83.3206C81.4715 83.2839 81.4064 83.2592 81.3384 83.2479C81.2704 83.2365 81.2009 83.2387 81.1337 83.2544C81.0666 83.2701 81.0032 83.2989 80.9471 83.3392C80.8911 83.3795 80.8435 83.4306 80.807 83.4894C78.5994 86.7211 76.0886 89.7325 73.3091 92.4822C73.2596 92.5322 73.2206 92.5917 73.1943 92.6571C73.1681 92.7225 73.1552 92.7925 73.1563 92.863C73.1575 92.9335 73.1727 93.0031 73.201 93.0676C73.2294 93.1321 73.2703 93.1902 73.3214 93.2385C73.3724 93.2869 73.4326 93.3244 73.4984 93.3489C73.5642 93.3735 73.6341 93.3845 73.7042 93.3813C73.7743 93.3782 73.843 93.361 73.9063 93.3307C73.9697 93.3004 74.0263 93.2576 74.0729 93.2049C76.8997 90.4044 79.453 87.3379 81.6979 84.0475C81.7343 83.9887 81.7589 83.9232 81.7702 83.8549C81.7815 83.7865 81.7793 83.7166 81.7637 83.6491C81.7481 83.5816 81.7195 83.5178 81.6793 83.4615C81.6392 83.4051 81.5885 83.3572 81.53 83.3206Z" fill="#3D4A56"/>
<path d="M80.7272 87.9037C80.1942 87.9332 80.0148 88.5852 79.8626 88.7604C79.0998 89.6371 76.8124 91.9813 74.8619 93.7568C74.7832 93.8283 74.7279 93.922 74.7033 94.0257C74.6787 94.1294 74.6859 94.2381 74.7239 94.3376C74.762 94.4371 74.8291 94.5226 74.9165 94.583C75.0039 94.6434 75.1074 94.6757 75.2134 94.6757C75.3435 94.676 75.469 94.627 75.5649 94.5386C77.1293 93.1164 79.2247 91.0423 80.637 89.4746C80.7569 89.3283 80.8597 89.1686 80.9434 88.9988C81.0258 88.9791 81.1023 88.9397 81.1663 88.8838C81.2303 88.828 81.2799 88.7574 81.3108 88.6781C81.3418 88.5988 81.3531 88.5131 81.344 88.4284C81.3348 88.3437 81.3053 88.2625 81.2581 88.1917C81.195 88.1086 81.115 88.04 81.0235 87.9904C80.9319 87.9407 80.831 87.9112 80.7272 87.9037Z" fill="#3D4A56"/>
<path d="M28.798 137.642C31.7863 138.743 33.8397 137.836 36.5982 135.786C36.6097 135.777 37.8678 134.814 37.8835 134.276C37.8838 134.132 37.8299 133.994 37.7327 133.889C37.6355 133.784 37.5023 133.72 37.36 133.71C37.2178 133.7 37.0771 133.745 36.9664 133.836C36.8558 133.926 36.7834 134.055 36.764 134.197C36.5168 134.461 36.2525 134.708 35.9728 134.936C32.76 137.323 31.1578 137.387 29.159 136.649C26.326 135.608 25.581 133.554 24.6325 130.952C23.4006 127.57 23.0533 127.179 21.769 125.67C21.0296 124.9 20.4352 124.001 20.0147 123.018C19.5057 121.366 19.2389 119.649 19.2225 117.92C18.9403 113.15 18.6979 112.093 19.5373 102.239C20.2036 94.3586 20.2718 93.3943 19.3274 86.292C18.7587 82.9367 18.5574 79.5287 18.7273 76.1292C19.2026 70.7888 22.7375 66.2122 28.1831 63.8912C28.3113 63.8367 28.4126 63.7332 28.4649 63.6035C28.5171 63.4738 28.516 63.3285 28.4617 63.1997C28.4075 63.0708 28.3045 62.9689 28.1755 62.9164C28.0465 62.8639 27.9021 62.865 27.7739 62.9196C21.9653 65.3957 18.1921 70.2993 17.6822 76.0343C17.5039 79.5111 17.7069 82.9971 18.2876 86.4292C19.2141 93.447 19.148 94.3554 18.4901 102.149C17.6665 111.907 17.9004 113.357 18.1753 117.982C18.1941 119.816 18.483 121.638 19.0326 123.387C19.4942 124.487 20.1513 125.493 20.9716 126.356C22.2055 127.803 22.4951 128.149 23.6472 131.314C24.6062 133.949 25.5117 136.432 28.798 137.642Z" fill="#3D4A56"/>
<path d="M43.4222 58.2996C43.3675 59.3018 43.4738 60.3064 43.737 61.2747C44.8523 66.5222 47.4807 71.9217 50.0598 76.5595C51.1457 78.6884 52.4579 80.6926 53.9735 82.5371C54.3319 82.9911 54.7918 83.3535 55.3158 83.595C55.8398 83.8364 56.4131 83.95 56.9891 83.9266C59.927 83.628 62.057 78.9248 63.5815 76.7325C63.9435 76.2124 64.8616 74.6573 65.5321 74.5814C65.9686 74.5814 66.4859 75.3199 67.0189 76.1512C68.1469 77.9004 70.024 82.6722 72.3365 82.6722C73.4257 82.6722 74.136 81.6847 74.6155 80.694C75.1743 78.9595 75.3819 77.1301 75.2262 75.3135C75.6695 75.1681 76.0551 74.8843 76.3269 74.5033C76.7696 73.6383 77.0053 72.6814 77.0152 71.7086C77.0299 71.1177 77.1224 70.5313 77.2901 69.9647C77.7811 68.57 79.5837 65.6635 78.3299 63.6737C77.3992 62.1809 75.4832 62.0733 72.8958 63.3435C72.7615 62.4478 72.3618 61.6136 71.749 60.9497C71.6776 60.8738 71.5213 60.7672 70.5224 60.0192C71.0495 58.8093 71.6451 57.6307 72.3061 56.4892C72.4205 56.2908 72.5233 55.3951 71.9536 55.2823C70.0089 54.8956 68.0899 54.3879 66.2078 53.762C66.0764 53.7201 65.9337 53.7319 65.8108 53.7949C65.6879 53.8579 65.5947 53.967 65.5512 54.0986C65.5078 54.2303 65.5176 54.3738 65.5787 54.4982C65.6397 54.6226 65.747 54.7178 65.8773 54.7632C67.6397 55.3499 69.4341 55.8346 71.2516 56.2149C69.8272 58.7742 68.6731 61.4764 67.8079 64.2772C67.778 64.3797 67.7797 64.4888 67.8128 64.5903C67.8459 64.6918 67.9089 64.7808 67.9934 64.8455C68.0779 64.9102 68.1799 64.9476 68.286 64.9528C68.3921 64.9579 68.4972 64.9305 68.5875 64.8743C68.7211 65.2524 68.7695 65.6557 68.7292 66.0549C68.7019 66.2901 68.8278 66.0876 68.512 66.4083C67.7891 67.0539 68.0105 67.0666 67.8394 66.9569C67.1261 66.5601 66.2968 66.4279 65.4964 66.5834C65.0695 66.6312 64.6497 66.7297 64.2457 66.8767C62.3497 65.4894 59.8672 63.046 57.2367 62.2062C57.1695 61.6291 55.6408 60.917 53.5118 55.0913C53.6776 54.5817 53.8717 53.9688 54.0564 53.3273C55.021 54.8068 56.3224 56.0339 57.8526 56.907C58.71 57.5651 59.754 57.9307 60.8325 57.9504C61.8625 57.8794 62.8267 57.4156 63.528 56.6538C64.0264 56.102 64.1786 55.8161 64.1293 55.5175C64.112 55.4342 64.0785 55.3552 64.0306 55.2851C63.9826 55.215 63.9213 55.1552 63.8502 55.1092C63.421 54.8571 62.8303 55.0227 61.909 55.3202C61.648 55.4168 61.3796 55.4916 61.1063 55.5439C59.2953 55.5439 58.1968 53.686 58.0635 51.9179C57.7361 47.6303 63.484 45.8833 63.3738 41.3098C63.2825 37.707 59.9543 35.0421 60.7024 31.6503C61.2576 29.863 62.3784 28.307 63.8942 27.2193C65.9997 26.3833 68.2804 26.0931 70.5266 26.3753C70.6649 26.3921 70.8041 26.3529 70.9137 26.2665C71.0234 26.18 71.0943 26.0533 71.111 25.9142C71.1277 25.7752 71.0888 25.6351 71.0028 25.5249C70.9168 25.4147 70.7908 25.3434 70.6525 25.3266C68.923 25.1149 67.1698 25.2131 65.4744 25.6167C68.9149 22.6627 72.5737 20.2721 75.4717 15.9265C76.0856 15.0503 76.5141 14.0568 76.7308 13.0074C76.735 12.9381 76.7255 12.8687 76.7029 12.8031C76.6804 12.7375 76.6452 12.677 76.5994 12.6251C76.5536 12.5732 76.4981 12.5308 76.436 12.5005C76.374 12.4701 76.3066 12.4524 76.2377 12.4482C76.1688 12.4441 76.0997 12.4536 76.0345 12.4763C75.9693 12.4989 75.9091 12.5343 75.8575 12.5803C75.8058 12.6264 75.7637 12.6822 75.7335 12.7446C75.7034 12.807 75.6857 12.8748 75.6816 12.9441C75.5599 13.5115 75.3473 14.0552 75.052 14.554C71.5559 21.2385 60.9385 25.7423 59.6741 31.4287C58.8179 35.3101 62.2374 38.0309 62.3203 41.3457C62.4169 45.3357 56.6418 47.1408 57.0132 52.0097C57.1926 54.3085 58.7078 56.6263 61.1179 56.6084C61.5534 56.5538 61.9803 56.4443 62.3885 56.2824C61.9357 56.6392 61.3882 56.8535 60.8147 56.8985C59.9492 56.8697 59.1151 56.5661 58.4318 56.0313C57.3627 55.4582 56.4176 54.6771 55.6513 53.7335C54.8851 52.7899 54.313 51.7026 53.9683 50.5348C53.8177 49.7652 53.8288 48.9725 54.0008 48.2074C54.5107 46.0626 55.3837 44.3894 55.6261 43.3808C56.5211 39.6883 56.1287 33.2338 54.1823 30.341C54.1026 30.2295 53.9828 30.1537 53.8484 30.1296C53.714 30.1055 53.5755 30.135 53.4624 30.2119C53.3493 30.2889 53.2705 30.4071 53.2427 30.5415C53.2149 30.6759 53.2403 30.8159 53.3135 30.9318C54.306 32.7745 54.8663 34.8209 54.9514 36.9147C53.2904 34.1981 50.8048 34.2435 49.4197 36.114C46.7221 39.778 50.1248 44.689 54.3418 43.9305C53.8547 45.089 53.4425 46.278 53.1079 47.49C51.9143 47.2922 50.7427 46.978 49.6097 46.5521C44.0192 44.036 39.6805 37.0434 38.8674 32.2136C38.2378 28.4884 39.9995 26.1115 41.9637 23.3727C43.249 21.6726 44.3625 19.848 45.2878 17.9258C46.0718 16.1945 47.0963 14.584 48.3306 13.1424C53.3272 7.49077 62.8901 4.56103 69.8928 6.28068C72.6559 6.92069 75.2487 8.15366 77.4936 9.89511C77.9992 10.2923 78.4227 10.7851 78.7401 11.3457C78.9867 11.8089 79.0854 12.578 79.6908 13.0337C79.7459 13.0753 79.8086 13.1055 79.8753 13.1227C79.9421 13.1399 80.0115 13.1437 80.0797 13.1339C80.1479 13.1241 80.2136 13.1009 80.2728 13.0656C80.3321 13.0303 80.3839 12.9837 80.4252 12.9282C80.4666 12.8728 80.4967 12.8098 80.5138 12.7427C80.5309 12.6755 80.5346 12.6057 80.5249 12.5371C80.5152 12.4686 80.4921 12.4026 80.457 12.343C80.4219 12.2834 80.3754 12.2313 80.3203 12.1897C80.0423 11.9787 79.909 11.3046 79.6572 10.8298C79.2708 10.1467 78.755 9.54635 78.1389 9.06272C75.7746 7.22843 73.044 5.92929 70.1341 5.25417C62.8009 3.45434 52.7868 6.52017 47.5416 12.4408C46.2485 13.9483 45.1749 15.6327 44.3529 17.4436C43.4517 19.3168 42.3662 21.0945 41.1128 22.7503C39.0972 25.5555 37.2012 28.2046 37.8381 32.3888C38.8695 37.9454 43.3918 44.9063 49.2172 47.527C50.4074 47.9738 51.637 48.3062 52.8896 48.5197C52.8153 49.0684 52.8057 49.624 52.8613 50.175C52.1693 50.2766 51.4993 50.4946 50.8792 50.8196C49.866 51.5041 49.0702 52.4673 48.5866 53.5943C47.8522 54.9658 47.8354 55.1008 46.2783 55.5513C45.3095 55.7081 44.4395 56.2378 43.8524 57.0283C43.8188 57.0357 34.4427 60.5625 34.2769 60.6153C34.1949 60.6285 34.1171 60.661 34.05 60.7103C33.983 60.7596 33.9285 60.8241 33.8911 60.8987C33.8537 60.9733 33.8345 61.0557 33.835 61.1392C33.8355 61.2228 33.8556 61.305 33.8939 61.3791C34.1982 61.9783 33.8016 61.9203 43.4222 58.2996ZM50.3032 41.2961C48.4618 38.82 50.1605 35.8281 51.8488 35.8323C53.2632 35.8629 54.1571 37.4496 54.7101 38.762C54.9199 39.2621 54.8853 39.3074 54.9619 39.4562C54.9492 39.5721 54.975 39.689 55.0354 39.7885C55.0175 40.7842 54.9029 41.7756 54.6933 42.7489C53.9031 43.0094 53.0508 43.0089 52.2609 42.7475C51.4711 42.4861 50.7851 41.9775 50.3032 41.2961ZM73.7111 80.1275C73.5589 80.444 73.0217 81.6172 72.3313 81.6172C70.7133 81.6172 68.7009 76.5236 67.277 74.6594C67.6323 74.5857 67.9694 74.4417 68.2687 74.2357C68.5681 74.0298 68.8238 73.7661 69.0209 73.4599C70.5783 74.4807 72.3381 75.1482 74.178 75.4159C74.2967 77.0018 74.1387 78.5963 73.7111 80.1275ZM70.9882 61.6735C71.5346 62.2833 71.8564 63.063 71.9 63.8826C71.157 64.3165 70.4449 64.8019 69.769 65.3354C69.7015 64.8892 69.5789 64.4533 69.4039 64.0377C69.3146 63.8337 69.2443 63.6218 69.194 63.4047C69.4469 62.6662 69.7585 61.8433 70.0995 61.0162C70.1782 61.0753 70.961 61.6566 70.9882 61.6735ZM77.4443 64.236C77.9952 65.1096 77.63 66.3598 77.203 67.4601C76.4804 68.7579 76.0566 70.2021 75.9628 71.6864C75.9568 72.4655 75.7775 73.2333 75.4381 73.9336C74.4508 75.2355 70.7543 73.2426 69.3671 72.445C69.3164 71.0937 69.0982 69.7541 68.7177 68.4571C68.6925 68.279 68.6478 68.1042 68.5844 67.9359C68.6331 67.8778 68.6689 67.8098 68.6893 67.7365C70.3293 65.7647 76.0247 61.9615 77.4443 64.236ZM63.8911 67.9169C63.9871 67.984 64.1026 68.0169 64.2193 68.0104C64.336 68.0039 64.4473 67.9584 64.5353 67.8811C64.6639 67.8933 64.7923 67.8555 64.8942 67.7756C65.1467 67.7084 65.4038 67.6594 65.6633 67.6289C66.2212 67.5134 66.8017 67.5978 67.3043 67.8674C67.5169 68.0666 67.652 68.3356 67.6852 68.6259C67.8489 69.5754 68.5319 71.6559 68.2728 72.6349C68.1583 72.9053 67.9739 73.1398 67.7387 73.3143C67.1207 73.8123 66.8531 73.6519 66.2991 73.1086C65.7451 72.5653 64.9907 71.7128 63.8523 72.0884C61.0193 73.0168 56.9272 75.8621 55.2851 75.054C54.4971 74.6637 54.5128 73.1381 54.4037 72.2182C53.9651 68.3284 51.5634 64.5852 53.6294 63.4395C57.0825 61.5068 61.1074 65.9736 63.8911 67.9169ZM46.5595 56.562C48.5006 56.0007 48.6811 55.6125 49.4974 54.0922C49.8933 53.1478 50.5429 52.3328 51.3735 51.7385C51.8971 51.4676 52.4632 51.2892 53.047 51.211C53.1219 51.4838 53.2148 51.7513 53.3251 52.0118C53.2201 52.4148 53.1152 52.8209 52.9946 53.2134C52.9883 53.167 52.9799 53.1206 52.9746 53.0741C52.956 52.9354 52.8833 52.8097 52.7725 52.7248C52.6617 52.64 52.5219 52.6028 52.3839 52.6215C52.2459 52.6403 52.1209 52.7134 52.0365 52.8248C51.9521 52.9362 51.9151 53.0767 51.9338 53.2155C52.1175 54.3599 52.4587 55.473 52.9473 56.5229C53.6305 58.4475 54.5845 60.2637 55.7803 61.9161C54.8519 61.8545 53.9255 62.0632 53.1121 62.5174C50.1301 64.1727 52.9106 68.4255 53.3534 72.3416C53.4929 73.5369 53.472 75.3368 54.815 76.0025C57.1108 77.126 61.1494 74.0824 64.1691 73.0917C64.5374 72.9736 64.7987 73.136 65.2446 73.558C64.2772 73.7511 63.4714 74.9823 62.9268 75.8041C62.4179 76.5722 62.4473 76.4962 61.6771 77.7622C60.4107 79.8437 58.6773 82.6954 56.8705 82.88C56.4568 82.8875 56.0473 82.7957 55.676 82.6122C55.3046 82.4287 54.9821 82.1589 54.7353 81.825C53.276 80.0393 52.0114 78.1015 50.9632 76.0447C48.445 71.5082 45.8502 66.2057 44.7505 61.0542C44.4057 59.9834 44.3657 58.837 44.6351 57.7446C45.0024 57.0114 45.7232 56.8025 46.5595 56.562Z" fill="#3D4A56"/>
<path d="M107.349 111.738C105.594 114.977 103.482 118.008 101.054 120.773C100.175 121.841 99.6699 122.173 100.049 122.638C100.111 122.709 100.191 122.762 100.279 122.793C100.368 122.825 100.463 122.833 100.556 122.817C100.648 122.802 100.736 122.763 100.809 122.704C100.883 122.646 100.941 122.569 100.977 122.482C101.156 122.283 101.766 121.562 101.859 121.449C104.333 118.629 106.485 115.538 108.273 112.234C108.338 112.11 108.352 111.966 108.311 111.832C108.291 111.766 108.258 111.704 108.215 111.651C108.171 111.597 108.117 111.553 108.056 111.52C107.933 111.454 107.789 111.441 107.656 111.481C107.523 111.522 107.412 111.615 107.346 111.738H107.349Z" fill="#3D4A56"/>
<path d="M27.2858 126.86C27.4198 126.897 27.563 126.879 27.684 126.81C27.805 126.741 27.8938 126.627 27.9311 126.492C28.82 123.182 29.9644 119.946 31.3537 116.815C31.4802 116.629 31.6205 116.452 31.7734 116.287C32.1606 115.84 32.4397 115.517 32.1774 115.132C32.0904 115.034 31.9767 114.963 31.8503 114.929C31.724 114.895 31.5904 114.898 31.466 114.939C31.3652 114.976 31.2781 115.044 31.2166 115.132C31.155 115.221 31.122 115.326 31.1219 115.434C30.8591 115.711 30.6236 116.012 30.4189 116.335C28.998 119.529 27.8298 122.831 26.9248 126.21C26.8873 126.344 26.9042 126.488 26.9719 126.61C27.0395 126.731 27.1524 126.821 27.2858 126.86Z" fill="#3D4A56"/>
<path d="M62.6948 124.582C62.8052 124.582 62.9128 124.547 63.0022 124.482C66.6106 121.86 70.1372 119.03 73.4759 116.071C74.7592 114.932 76.6562 113.656 77.6467 112.084C77.6867 112.026 77.7146 111.96 77.7287 111.89C77.7427 111.821 77.7427 111.749 77.7286 111.68C77.7145 111.61 77.6865 111.544 77.6465 111.486C77.6064 111.427 77.5551 111.378 77.4955 111.34C77.4358 111.302 77.3692 111.276 77.2996 111.265C77.23 111.253 77.1587 111.256 77.0902 111.273C77.0216 111.29 76.9571 111.32 76.9006 111.363C76.8441 111.405 76.7966 111.459 76.7611 111.52C75.8735 112.925 74.0719 114.133 72.7824 115.28C69.4522 118.228 65.9832 121.014 62.3874 123.627C62.2976 123.692 62.2307 123.785 62.1963 123.891C62.1619 123.997 62.1618 124.111 62.1959 124.217C62.2301 124.323 62.2967 124.415 62.3864 124.481C62.476 124.546 62.584 124.582 62.6948 124.582Z" fill="#3D4A56"/>
<path d="M61.9897 131.736C62.0866 131.837 62.2191 131.894 62.3582 131.896C62.4974 131.899 62.6316 131.845 62.7315 131.748C65.405 129.143 68.0492 126.324 70.8171 123.128C71.9944 121.765 73.2063 119.476 74.5818 118.546C74.6973 118.468 74.7772 118.347 74.804 118.21C74.8308 118.073 74.8022 117.93 74.7245 117.814C74.6861 117.757 74.6368 117.707 74.5794 117.669C74.522 117.631 74.4576 117.604 74.39 117.591C74.2534 117.564 74.1118 117.593 73.9964 117.671C72.3983 118.751 71.1906 121.088 70.026 122.436C67.278 125.609 64.6527 128.406 62.0013 130.99C61.9014 131.088 61.844 131.221 61.8419 131.361C61.8397 131.501 61.8929 131.636 61.9897 131.736Z" fill="#3D4A56"/>
</svg>
