<svg width="275" height="275" viewBox="0 0 275 275" fill="none" xmlns="http://www.w3.org/2000/svg">
<path d="M243.236 80.5915C243.193 80.1848 242.991 79.8118 242.674 79.554C242.356 79.2963 241.949 79.1749 241.542 79.2165L231.685 80.1873C231.098 80.2434 230.545 80.4897 230.11 80.8888C229.675 81.2878 229.382 81.8178 229.276 82.3983C228.994 83.9025 226.907 95.1858 225.438 103.102C225.397 103.337 225.405 103.578 225.462 103.81C225.519 104.042 225.624 104.259 225.771 104.448C225.917 104.637 226.101 104.793 226.312 104.906C226.522 105.019 226.754 105.087 226.992 105.105L236.223 105.772C236.736 105.809 237.246 105.659 237.657 105.348C238.068 105.037 238.351 104.587 238.454 104.082C243.577 79.4104 243.275 80.927 243.236 80.5915Z" fill="#E2F9FE"/>
<path d="M248.91 150.804L251.717 155.204L246.115 155.131C246.005 155.13 245.896 155.154 245.796 155.202C245.697 155.249 245.61 155.319 245.541 155.406L241.724 160.007L240.827 154.687C240.813 154.588 240.769 154.496 240.703 154.423C240.636 154.349 240.548 154.298 240.451 154.275L235.288 152.71L240.337 149.496C240.429 149.438 240.508 149.36 240.567 149.269C240.626 149.177 240.665 149.074 240.681 148.966L241.306 143.396L245.323 146.733C245.403 146.798 245.5 146.841 245.602 146.857C245.704 146.874 245.809 146.864 245.906 146.828L251.455 144.949L248.899 150.217C248.851 150.308 248.827 150.409 248.829 150.512C248.831 150.615 248.859 150.715 248.91 150.804Z" fill="#FAD353"/>
<path d="M249.786 103.451C252.164 104.327 252.852 106.09 251.496 107.769C249.973 109.657 247.386 111.756 246.792 114.205C246.303 116.228 248.95 116.874 248.855 118.679C248.569 120.024 247.945 121.274 247.04 122.309C245.288 124.843 243.508 127.357 241.699 129.85C240.816 131.074 239.774 132.48 238.08 132.301C235.64 132.043 236.652 130.111 237.61 128.786C239.594 126.044 243.408 123.03 243.962 119.555C244.27 117.63 242.425 116.654 242.116 114.935C241.625 112.2 244.684 108.924 246.241 106.988C247.291 105.684 248.479 104.498 249.786 103.451Z" fill="#8DE3A7"/>
<path d="M238.971 60.0067C233.951 63.4222 234.233 63.1912 234.121 63.396C233.999 63.6215 234.065 63.2448 233.548 69.6757C229.378 65.4599 229.698 65.739 229.5 65.6882C229.302 65.6373 229.654 65.5507 224.077 67.389C226.564 61.3707 226.43 61.7653 226.424 61.537C226.419 61.3088 226.562 61.6374 223.649 56.312C229.352 56.7795 228.969 56.785 229.149 56.6764C229.35 56.5829 229.055 56.9335 232.862 51.7539C233.837 57.8342 233.767 57.6087 233.906 57.8245C234.043 58.0157 233.717 57.8452 238.971 60.0067Z" fill="#FAD353"/>
<path d="M231.687 96.3686C233.302 94.0504 228.878 94.6155 229.435 92.0401C229.513 91.6575 229.698 91.3051 229.97 91.0245C230.242 90.7439 230.588 90.5467 230.968 90.4561C231.3 90.3791 232.48 90.8411 232.626 90.4245C233.186 88.8378 232.773 86.338 235.463 86.5332C237.539 86.6845 237.265 88.8707 236.59 90.32C236.315 90.903 238.353 91.5919 238.801 92.3426C238.938 92.6207 238.979 92.9369 238.915 93.2405C238.73 94.1566 238.241 94.9834 237.528 95.5876C236.164 96.7371 234.859 95.9204 234.671 96.2435C234.191 97.0685 236.371 99.1764 235.786 99.8006C235.307 100.312 230.394 98.7474 229.81 98.6539C230.001 98.5384 231.558 96.5597 231.687 96.3686Z" fill="#FFA698"/>
<path d="M227.307 124.646C229.811 125.01 230.842 126.596 229.863 128.515C228.756 130.684 226.669 133.262 226.588 135.775C226.522 137.861 229.247 137.955 229.519 139.738C229.701 140.933 229.588 141.315 224.805 152.139C224.197 153.514 223.458 155.108 221.77 155.278C219.339 155.524 219.925 153.433 220.59 151.941C221.965 148.854 225.071 145.12 224.909 141.605C224.818 139.654 222.807 139.083 222.145 137.464C221.093 134.891 223.423 131.048 224.543 128.829C225.308 127.337 226.235 125.934 227.307 124.646Z" fill="#8DE3A7"/>
<path d="M209.63 117.604L211.747 125.489L206.7 131.904L204.582 124.019L209.63 117.604Z" fill="#FFA698"/>
<path d="M219.66 200.837C219.523 200.873 205.498 207.987 205.36 208.071C206.799 206.704 208.145 205.241 209.389 203.694C209.92 203.056 212.424 199.866 210.577 199.304C208.95 198.824 206.719 200.419 205.477 201.254C201.451 203.956 197.873 207.272 193.847 209.974L193.347 209.561C195.548 207.149 197.421 204.456 198.917 201.552C199.243 200.88 199.959 199.392 199.192 198.757C198.064 197.808 195.969 199.455 195.134 200.081C193.262 201.721 191.541 203.525 189.992 205.474L189.846 205.336C186.384 205.159 180.959 204.147 178.227 201.749L177.882 201.842C175.714 204.684 174.617 208.2 174.784 211.771C176.496 212.355 178.196 212.971 179.895 213.597C185.111 215.537 190.358 218.385 196.094 217.091C199.867 216.128 200.666 215.02 204.97 213.431C206.691 212.856 208.734 213.138 210.332 212.331C212.67 211.141 214.536 209.046 216.872 207.773C217.988 207.168 219.73 206.49 221.2 205.582C222.436 204.97 223.388 203.905 223.859 202.609C224.407 200.368 220.911 200.514 219.66 200.837Z" fill="white"/>
<path d="M201.933 109.655C201.965 109.413 202.054 109.182 202.192 108.981C202.331 108.779 202.514 108.614 202.729 108.497C202.943 108.38 203.182 108.315 203.426 108.308C203.67 108.301 203.912 108.352 204.133 108.456C206.975 109.809 212.227 112.354 214.995 113.681C215.524 113.934 215.957 114.351 216.229 114.869C216.502 115.388 216.599 115.981 216.508 116.56C215.411 123.598 214.323 130.638 213.244 137.68C213.177 138.124 212.937 138.523 212.576 138.79C212.215 139.058 211.763 139.17 211.319 139.104C211.083 139.07 200.429 135.773 200.29 135.73C199.812 135.58 199.401 135.267 199.131 134.846C198.86 134.424 198.746 133.921 198.809 133.424C199.437 128.543 201.262 114.939 201.933 109.655ZM211.749 125.489L209.631 117.603L204.582 124.026L206.7 131.91L211.749 125.489Z" fill="#E2F9FE"/>
<path d="M212.985 93.5753C212.331 93.5852 211.694 93.788 211.155 94.1583C210.77 92.6978 210.09 91.3315 209.157 90.1433C208.655 89.4943 207.269 88.2967 207.144 87.4635C206.924 86.0445 208.134 83.8431 208.323 82.3828C208.614 80.1306 207.868 78.042 207.989 75.8433C208.015 75.3991 208.183 74.9751 208.468 74.6333C209.143 73.8367 209.875 73.0908 210.659 72.4017C212.917 69.9075 215.975 66.3421 215.717 63.0517C215.752 62.6251 215.66 62.1978 215.453 61.8234C215.245 61.4489 214.932 61.144 214.552 60.9468C214.172 60.7496 213.743 60.669 213.317 60.7149C212.892 60.7608 212.489 60.9314 212.16 61.2051C209.157 63.1768 207.395 67.3376 203.858 71.9686L203.776 71.9273C203.326 70.1646 200.25 71.2811 199.499 69.8305C199.07 68.4948 198.824 67.1072 198.768 65.7055C198.308 63.3601 197.518 61.0917 196.422 58.968C195.785 57.747 194.816 56.0887 193.356 55.745C191.405 55.2857 190.622 57.6851 190.606 59.1825C190.569 63.5935 193.97 67.8615 193.547 70.2498C193.328 71.4282 191.368 71.783 190.659 72.7111C189.825 73.8276 189.866 75.3236 189.074 76.403C188.312 77.4562 186.727 77.503 185.924 78.7088C183.702 82.0088 186.309 86.6137 189.24 88.481C189.588 88.6976 189.946 88.8963 190.314 89.0763L189.929 90.0388C189.834 90.3469 189.722 90.6498 189.595 90.9463C189.448 91.44 189.313 91.9377 189.199 92.4492C188.906 93.7211 187.989 97.2988 189.553 98.1128C190.534 98.623 191.692 97.2878 192.213 96.621C192.297 96.5165 192.859 95.5883 193.027 95.6818C193.246 95.7863 193.1 96.7255 193.1 96.9125C193.1 97.7155 193.121 99.0726 193.925 99.525C195.249 100.266 196.538 98.4401 197.815 98.5446C198.848 98.6285 199.877 99.8907 200.819 100.298C204.889 101.897 209.322 100.104 210.733 97.556C211.018 97.9659 211.414 98.2856 211.875 98.4774C212.336 98.6692 212.842 98.7249 213.333 98.6381C213.975 98.5195 214.543 98.1508 214.913 97.6132C215.283 97.0756 215.425 96.413 215.306 95.7712C215.205 95.2051 214.925 94.6863 214.507 94.291C214.09 93.8958 213.556 93.6449 212.985 93.5753Z" fill="#FFA698"/>
<path d="M189.177 136.202C189.691 138.968 187.08 142.961 186.298 145.552C183.534 144.572 180.798 141.51 179.383 139.075C178.833 138.138 178.126 136.6 178.871 135.57C179.901 134.156 181.804 135.195 182.772 136.092C183 136.303 183.524 137.166 183.889 137.125C184.253 137.084 184.525 136.061 184.65 135.8C184.813 135.322 185.082 134.888 185.436 134.529C185.79 134.17 186.22 133.895 186.695 133.725C188.113 133.385 188.965 135.065 189.177 136.202Z" fill="#FFA698"/>
<path d="M186.57 30.4297C187.091 30.5109 181.631 32.6504 181.689 36.114C181.689 36.1456 178.539 29.5332 176.4 30.5232C177.192 30.0544 181 27.6976 181.427 24.7139C181.513 24.7139 183.392 29.9361 186.57 30.4297Z" fill="#FFA698"/>
<path d="M182.773 136.098C181.81 135.2 179.902 134.162 178.872 135.575C178.127 136.601 178.838 138.144 179.383 139.08C180.804 141.515 183.535 144.58 186.298 145.558C187.081 142.961 189.692 138.968 189.178 136.208C188.966 135.071 188.113 133.391 186.696 133.733C186.221 133.903 185.791 134.178 185.437 134.537C185.083 134.896 184.814 135.331 184.651 135.808C184.526 136.069 184.255 137.102 183.889 137.133C183.524 137.165 183.001 136.308 182.773 136.098ZM178.976 150.563C177.713 145.841 174.176 132.394 172.75 127.188C172.687 126.949 172.681 126.699 172.734 126.458C172.786 126.216 172.896 125.991 173.053 125.8C173.21 125.61 173.41 125.459 173.636 125.361C173.863 125.263 174.11 125.22 174.356 125.237C177.931 125.512 184.995 126.045 188.436 126.311C189.012 126.356 189.558 126.582 189.996 126.957C190.435 127.332 190.743 127.837 190.877 128.398C191.984 133.018 194.727 144.646 195.874 149.298C195.935 149.54 195.941 149.793 195.893 150.038C195.844 150.282 195.742 150.514 195.593 150.714C195.445 150.915 195.253 151.08 195.033 151.198C194.813 151.315 194.569 151.383 194.32 151.395C190.95 151.58 184.296 151.965 181.146 152.135C180.659 152.161 180.178 152.019 179.783 151.733C179.388 151.447 179.104 151.034 178.976 150.563Z" fill="#E2F9FE"/>
<path d="M179.78 98.1953C180.667 99.8742 181.46 102.26 178.278 102.107C176.067 102 175.087 100.208 174.273 98.6435C172.623 95.4618 170.95 92.28 169.36 89.0694C168.715 87.7645 167.734 86.1063 167.974 84.6048C168.306 82.5285 171.863 82.2893 171.749 79.8803C171.611 76.9928 168.854 74.119 167.39 71.6825C166.09 69.5197 167.41 67.6455 170.675 67.0928C172.062 68.5098 173.287 70.0779 174.325 71.7678C175.788 74.2909 178.91 78.5713 177.569 81.5935C176.727 83.4924 174.111 84.2528 174.013 86.5064C173.834 90.5668 177.935 94.7014 179.78 98.1953Z" fill="#8DE3A7"/>
<path d="M176.859 168.359C173.751 167.629 170.396 166.761 167.942 164.656C164.991 162.122 166.071 158.302 171.968 157.104C179.62 155.551 188.489 158.258 196.823 158.908C207.695 159.758 224.625 159.596 234.085 161.599C236.37 162.085 243.013 164.054 240.501 167.67C239.005 169.822 234.227 170.952 231.676 171.289L231.749 171.758C230.841 177.578 229.175 192.204 228.182 198.011C227.522 201.872 227.17 205.906 221.413 205.906L221.215 205.583C222.451 204.971 223.403 203.906 223.874 202.61C224.424 200.369 220.924 200.516 219.671 200.838C215.657 201.866 211.244 206.345 206.383 207.857L205.528 207.648C206.911 206.425 208.205 205.104 209.398 203.695C209.929 203.057 212.436 199.859 210.586 199.305C208.962 198.816 206.728 200.421 205.486 201.254C201.462 203.958 197.883 207.273 193.857 209.975L193.356 209.562C195.543 207.138 197.415 204.447 198.926 201.553C199.252 200.88 199.967 199.395 199.201 198.757C198.072 197.81 195.978 199.456 195.144 200.081C193.272 201.722 191.551 203.526 190.001 205.474L189.855 205.337C186.393 205.159 181.011 204.099 178.237 201.749C176.011 199.864 176.393 197.534 176.349 194.812C176.28 190.631 176.438 186.458 176.506 182.277C176.735 167.763 176.501 169.907 176.859 168.359Z" fill="#8DE3A7"/>
<path d="M177.891 201.839C175.722 204.681 174.625 208.197 174.793 211.768C169.007 209.664 161.524 204.541 156.614 200.768C146.976 193.377 136.036 184.09 129.61 173.629L129.466 173.169C136.117 170.98 141.995 166.917 146.392 161.467L146.685 161.708C150.646 169.82 158.458 179.122 164.227 186.155C167.781 190.525 171.721 194.566 175.999 198.229L176.411 198.178C176.453 198.867 176.636 199.539 176.95 200.153C177.265 200.767 177.703 201.309 178.237 201.745L177.891 201.839Z" fill="#FCE0D1"/>
<path d="M174.895 19.0418C175.418 18.9511 170.839 22.7021 172.027 25.9567C172.027 25.9883 166.739 20.4278 165.144 22.4106C165.144 22.4106 168.79 18.5331 168.221 15.2028C168.186 15.0158 171.665 19.5973 174.895 19.0418Z" fill="#FFA698"/>
<path d="M168.418 111.636L171.745 116.601L166.383 115.965C166.286 115.952 166.187 115.966 166.099 116.007C166.01 116.048 165.934 116.113 165.881 116.194L162.919 120.711L161.269 114.964C161.241 114.858 161.189 114.76 161.117 114.677C161.046 114.594 160.957 114.528 160.856 114.484L155.693 112.314L160.033 109.404C160.115 109.343 160.18 109.262 160.224 109.169C160.267 109.077 160.288 108.975 160.283 108.872L160.044 103.011L164.382 106.953C164.455 107.025 164.545 107.077 164.643 107.105C164.742 107.132 164.846 107.134 164.946 107.11L169.973 105.66L168.314 111.01C168.282 111.116 168.275 111.227 168.293 111.335C168.31 111.444 168.353 111.547 168.418 111.636Z" fill="#FAD353"/>
<path d="M145.139 78.825C145.14 78.5086 145.069 78.1962 144.93 77.9119C144.791 77.6275 144.589 77.3789 144.339 77.1852C144.089 76.9916 143.798 76.8581 143.488 76.795C143.177 76.7319 142.857 76.7411 142.551 76.8216L142.445 76.7254L149.932 67.7783C149.932 67.7783 152.27 66.296 153.166 69.3526C153.17 69.387 149.733 73.4254 145.139 78.825Z" fill="white"/>
<path d="M121.765 106.619C121.746 106.621 121.728 106.617 121.712 106.608C120.654 106.227 119.651 105.708 118.729 105.065C144.276 74.5404 142.388 76.6758 142.55 76.8216C142.856 76.741 143.177 76.7319 143.487 76.7949C143.797 76.858 144.088 76.9915 144.338 77.1852C144.588 77.3788 144.791 77.6274 144.929 77.9118C145.068 78.1961 145.14 78.5086 145.138 78.8249C119.382 109.087 122.055 105.67 121.765 106.619Z" fill="#E2F9FE"/>
<path d="M121.161 113.89C120.282 112.624 119.327 111.412 118.303 110.26C118.44 109.926 118.959 110.565 119.283 110.708C121.245 111.572 125.141 113.458 125.333 113.556C126.296 113.942 127.838 117.255 128.274 117.956C130.939 122.191 133.224 126.873 136.442 130.723C138.955 133.735 144.635 135.105 145.911 138.909C146.367 140.941 146.224 143.06 145.499 145.012C145.242 145.974 144.558 147.505 145.06 148.485C146.089 150.49 150.084 148.089 150.912 151.176C151.681 154.044 149.332 157.515 147.772 159.701C143.221 165.989 136.823 170.702 129.469 173.185C129.034 173.392 128.564 173.512 128.083 173.539C126.455 173.914 125.746 171.417 125.245 169.964C124.971 169.242 124.843 168.472 124.87 167.701L121.918 167.544C121.495 167.588 121.067 167.533 120.669 167.385C120.271 167.236 119.913 166.997 119.623 166.686C118.288 164.86 120.265 162.107 119.675 160.086C119.349 158.971 116.004 157.27 115.085 156.717L114.615 156.75C113.956 152.153 116.774 149.615 118.19 145.454C120.416 138.923 119.712 131.676 114.904 126.479L112.099 126.28C112.11 126.229 112.117 126.176 112.119 126.123L112.829 126.228C115.304 125.769 116.041 123.995 116.072 121.965L116.407 121.976C119.055 122.389 122.705 121.235 122.769 118.023C122.673 116.512 122.111 115.068 121.161 113.89Z" fill="#7ED6ED"/>
<path d="M101.805 132.332C102.485 130.635 103.324 129.004 104.309 127.463C104.592 127.11 105.538 125.914 106.113 126.013C106.238 126.035 105.563 126.975 105.508 127.045C105.104 127.635 104.768 128.268 104.507 128.933C103.915 130.422 104.15 131.943 106.049 131.531C106.885 131.351 107.695 131.067 108.46 130.686C108.469 130.853 108.502 131.084 108.512 131.198C109.568 144.966 108.33 164.984 107.02 178.479C106.693 181.842 107.801 182.14 102.994 182.337C101.941 182.381 102.89 178.259 102.857 173.461C102.825 168.511 103.269 144.966 102.126 132.512L101.805 132.332Z" fill="#E2F9FE"/>
<path d="M116.072 121.964C116.04 123.998 115.3 125.771 112.828 126.226L112.118 126.122C112.116 126.175 112.109 126.227 112.098 126.279C111.71 127.647 110.93 128.873 109.856 129.805C108.781 130.737 107.458 131.335 106.048 131.526C104.149 131.938 103.914 130.417 104.505 128.928C104.766 128.263 105.102 127.63 105.506 127.04C105.557 126.968 106.236 126.03 106.111 126.008C105.536 125.909 104.59 127.108 104.307 127.458C102.771 129.372 102.328 132.083 100.854 133.757C100.425 134.231 99.8461 134.543 99.2145 134.643C98.583 134.743 97.9362 134.625 97.3811 134.307C97.1405 134.204 95.9099 133.327 95.6913 133.504C95.4726 133.682 95.7284 134.652 95.7435 134.879C95.8081 135.861 95.9663 137.354 95.1069 138.071C94.11 138.896 92.7391 138.104 92.031 137.309C89.8956 134.918 87.422 128.7 85.9095 126.471L85.8353 126.085C85.6799 125.771 87.565 124.216 87.7451 124.04C92.2826 119.599 94.7398 117.737 98.1223 113.069C101.73 108.092 106.173 100.658 111.92 101.482C115.648 102.015 117.979 105.252 121.716 106.601C121.732 106.61 121.75 106.614 121.768 106.612C124.939 107.665 131.913 107.697 132.321 112.192C132.488 114.018 131.084 114.91 129.412 114.737C126.329 114.415 124.851 113.152 119.284 110.701C118.959 110.564 118.439 109.919 118.303 110.253C119.324 111.408 120.278 112.62 121.162 113.883C122.11 115.059 122.672 116.5 122.769 118.008C122.706 121.22 119.057 122.367 116.407 121.961L116.072 121.964Z" fill="white"/>
<path d="M100.895 88.1826L100.915 88.1922C101.02 88.1922 101.511 88.4122 101.718 88.4672C108.91 90.5916 113.798 93.9837 119.262 102.444L120.233 103.257L118.731 105.059C116.541 103.62 114.496 101.851 111.919 101.484C107.932 100.914 104.65 104.306 102.179 107.503L102.065 107.411C101.574 104.333 101.292 101.246 100.605 98.1899C100.33 96.9386 99.5321 93.7679 99.4674 93.4337L99.3203 93.4227C99.4097 91.0949 100.031 90.3001 100.895 88.1826Z" fill="#7ED6ED"/>
<path d="M103.183 60.2096C102.477 62.2452 101.285 64.0779 99.71 65.5487C99.422 65.8331 99.0796 66.0564 98.7032 66.2052C98.3268 66.3541 97.9242 66.4254 97.5196 66.415C95.7995 66.0492 94.0821 61.5832 95.497 60.3347C97.3588 58.6834 100.824 59.7297 103.183 60.2096Z" fill="white"/>
<path d="M97.9678 112.962C97.872 110.535 97.48 108.129 96.8004 105.797C96.7109 105.52 96.6062 105.249 96.4869 104.983L96.249 104.869C96.978 102.516 97.2084 100.037 96.9255 97.5899C97.2319 97.5797 97.5323 97.5014 97.8046 97.3606C98.0769 97.2198 98.3145 97.02 98.4999 96.7759C99.0458 95.7446 99.3292 94.5946 99.3249 93.4277C99.5889 93.447 99.3634 93.2834 99.7236 94.4301C100.015 95.691 100.327 96.9436 100.609 98.1949C101.297 101.251 101.572 104.338 102.069 107.416L102.184 107.508C100.776 109.302 99.4926 111.22 98.1259 113.076L97.9678 112.962Z" fill="#E2F9FE"/>
<path d="M89.8416 86.1693C89.8364 85.021 89.5876 83.8868 89.1114 82.8418L88.9863 82.8006C89.3988 81.5479 89.9873 80.0148 90.6652 78.4404C90.6652 78.4721 92.5324 79.8278 92.6259 79.9213C93.5446 80.9447 94.0366 82.281 94.0009 83.6558C92.5958 84.4452 91.2717 85.3709 90.0478 86.4196L89.8416 86.1693Z" fill="white"/>
<path d="M89.2272 94.8265C89.6397 93.3979 88.6772 90.6465 88.4641 89.3265C88.4019 88.9053 88.2335 88.5069 87.9746 88.1688L88.35 88.1372C89.2804 87.0529 90.3428 86.0893 91.5125 85.2689C94.2625 83.2298 99.3252 80.4564 101.161 83.3604C102.576 85.6044 100.422 89.0185 99.7322 90.9642C99.4844 91.7669 99.3457 92.5994 99.3197 93.4392C99.312 94.6046 99.0294 95.7517 98.4947 96.7873C96.831 98.9735 91.8287 96.2923 89.4101 94.8898L89.2272 94.8265Z" fill="#E2F9FE"/>
<path d="M83.4426 129.755C84.4203 128.936 85.4406 128.17 86.4992 127.459C88.1492 130.359 90.1691 135.23 92.0267 137.316C90.4922 138.768 80.5757 150.481 79.2599 152.107C69.3269 164.39 69.0244 166.327 64.6477 171.132C61.2982 174.808 57.1306 177.338 51.5371 175.972C49.1047 175.145 46.7604 174.079 44.5384 172.79L43.9746 172.635C45.9986 165.333 48.9122 158.109 53.4979 152.441C54.9577 150.372 56.9066 148.695 59.1711 147.56C59.2756 147.52 61.3299 147.123 61.455 147.446C62.6127 146.507 81.4117 131.431 83.4426 129.755Z" fill="#FCE0D1"/>
<path d="M88.2852 96.0888C87.0147 97.0898 86.2405 96.5013 85.4884 95.7753C84.7597 95.0658 84.0598 94.2532 82.9749 94.6079C79.0988 95.8716 73.8133 99.6954 71.231 98.4346C69.8107 97.7471 69.856 95.5251 69.6979 94.2009C69.0998 89.0406 65.7104 83.9228 69.0297 82.0803C73.9109 79.3771 79.0672 85.0819 83.2045 87.9529L83.617 87.7646C84.0685 87.6185 84.5332 87.5172 85.0044 87.4621C85.9117 87.281 86.8538 87.4271 87.6637 87.8746C88.1072 88.2374 88.3947 88.7566 88.4667 89.3252C88.6853 90.7153 89.7908 93.9644 89.0923 95.1662C88.8835 95.5217 88.6097 95.8347 88.2852 96.0888Z" fill="#E2F9FE"/>
<path d="M96.9213 97.5896C94.7213 97.8028 91.1738 95.9218 89.2213 94.8259C89.0378 95.3291 88.7114 95.7678 88.2821 96.0882C85.7948 98.0819 85.2008 93.8771 82.9719 94.6073C79.1219 95.8585 73.824 99.6948 71.228 98.4339C69.809 97.7354 69.853 95.5244 69.6949 94.2003C69.1091 89.0523 65.7074 83.9153 69.0266 82.0796C70.2107 81.4218 71.5915 81.211 72.9179 81.4856L73.3689 81.1254C71.5495 78.8085 70.1162 76.213 69.1243 73.4391C68.9263 72.9703 68.665 72.3391 68.4258 71.6516L68.5633 71.5994C69.8723 67.5734 69.5258 67.9556 69.7526 67.8553C69.4685 67.2655 69.2615 66.6416 69.1366 65.999C68.08 66.0747 67.0487 66.3583 66.102 66.8336C64.2554 67.9185 63.6614 69.827 62.5875 71.5265C61.3349 73.5189 58.1751 72.6595 56.9761 74.964C56.3038 76.2593 56.7946 78.4015 57.0696 79.7201C58.8075 86.4478 61.4687 92.9024 64.9773 98.9C66.4587 101.819 68.2486 104.571 70.3164 107.109C76.7431 113.993 81.4154 96.9214 84.8254 96.5323C86.0395 96.5323 86.7504 97.7437 87.486 98.8794C89.301 101.643 93.0864 111.364 96.2475 104.877C96.9747 102.521 97.2041 100.039 96.9213 97.5896Z" fill="white"/>
<path d="M119.945 206.573C118.421 202.998 115.512 200.232 114.02 196.706C113.405 195.246 114.395 193.786 113.864 192.444C113.061 190.441 109.316 189.867 108.836 187.229L107.736 187.124C102.596 190.35 95.625 191.33 89.5159 190.722C86.0023 190.513 82.5334 189.829 79.2034 188.689L78.9119 187.802C75.7943 188.887 72.6192 189.799 69.401 190.534C65.6652 191.376 61.8384 191.746 58.0105 191.634C55.5753 191.628 53.1879 190.957 51.1052 189.695L50.6267 190.049C49.7192 193.189 46.2776 194.962 45.5791 196.442C42.22 203.63 38.2916 210.055 36.2291 217.678C33.4693 227.637 31.7428 237.853 31.077 248.166C30.8474 251.994 29.9509 257.073 31.8181 260.733C32.8191 262.716 35.4371 263.3 37.7306 263.967C43.3829 265.65 49.1561 266.895 54.9992 267.694C59.479 268.266 62.5617 268.952 64.2186 264.773C66.7801 265.183 69.3788 265.311 71.9681 265.154C71.9855 265.789 72.1756 266.407 72.5181 266.941C73.6442 268.558 78.3907 267.755 79.9651 267.681C87.5895 267.369 95.4119 267.379 102.984 266.409C103.203 266.242 104.059 265.638 104.194 265.263C104.438 264.566 104.609 263.845 104.705 263.113C104.705 263.113 108.808 262.716 112.392 262.383C112.349 262.818 112.289 264.421 112.841 264.792C113.747 265.429 115.74 264.886 116.72 264.772C119.902 264.417 123.084 264.062 126.275 263.78C126.348 263.771 127.213 259.067 127.238 258.869C129.087 242.638 126.678 222.364 119.945 206.573Z" fill="#FAD353"/>
<path d="M71.6992 51.0505C71.348 49.9752 70.8501 48.9536 70.2197 48.0145C68.7305 45.8227 66.1373 45.127 64.3993 47.4713C60.9714 52.0872 65.9324 58.2156 71.1272 56.3167L71.3142 56.369C71.7035 54.7711 71.8997 53.1323 71.8985 51.4877H71.8367C71.8339 51.4176 71.7212 51.166 71.6992 51.0505ZM81.7972 73.4135C81.001 74.2548 79.9169 74.7649 78.7612 74.8421C77.5157 74.8054 76.3132 74.3783 75.3237 73.6211C73.8286 72.8346 72.5091 71.7523 71.4454 70.44C70.3817 69.1276 69.596 67.6126 69.1362 65.9871C68.9401 64.8816 68.9579 63.7488 69.1884 62.65C67.3527 62.4039 65.5512 61.9486 63.819 61.2928C58.3369 58.8398 53.9025 53.4636 51.3437 48.0571C46.1915 37.1698 51.2172 33.9152 55.6199 27.0196C58.0702 23.1847 58.7824 20.1845 61.9105 16.6631C68.4129 9.35634 81.2527 5.25059 90.8337 7.51659C94.55 8.37591 98.0373 10.0263 101.058 12.3552C101.8 12.9271 102.418 13.6443 102.873 14.4631C103.216 15.0832 103.33 15.9976 103.926 16.4445C105.372 17.5252 108.024 17.5871 109.736 18.0821C110.393 18.2718 114.548 20.0635 114.774 20.2298C117.21 22.0334 119.043 24.5321 120.031 27.3972C121.02 30.2624 121.118 33.3597 120.312 36.2816C119.534 38.9711 117.7 41.9191 118.07 44.7928C118.644 49.2148 122.383 52.189 120.927 57.0303C118.759 64.2436 108.689 68.216 112.688 74.9287C112.017 74.7557 111.37 74.4998 110.763 74.167C109.856 73.6395 109.086 72.9074 108.513 72.029C107.94 71.1507 107.58 70.1505 107.463 69.1083L107.138 68.7742C110.192 65.772 112.187 61.8589 112.823 57.6243C113.436 53.3921 111.775 49.9065 111.31 45.8282C110.713 40.595 113.209 36.0973 110.841 28.1911C110.496 27.0402 107.921 20.8376 98.1679 19.3567C97.952 19.2398 98.2078 19.1725 97.4062 20.3893C93.1217 26.8958 86.9218 30.1821 81.7312 35.3562C79.9648 36.8889 78.6586 38.882 77.9582 41.1133C76.9022 45.8585 81.331 49.3537 81.4424 53.8706C81.5799 59.471 74.0174 61.7452 74.4849 67.732C74.6815 70.2661 76.3315 73.1247 79.1682 73.0945C79.8557 73.0862 81.8563 72.11 82.4118 72.4262C82.618 72.539 81.8673 73.3296 81.7972 73.4135Z" fill="#F5BF42"/>
<path d="M70.9288 182C71.025 183.94 71.19 186.162 68.6655 186.715C68.5927 186.726 68.528 186.745 68.4565 186.756C65.0672 187.306 65.3078 176.639 64.6602 171.143C66.6191 168.924 68.4311 166.579 70.0845 164.124C70.0529 171.279 70.6345 176.107 70.9288 182Z" fill="#E2F9FE"/>
<path d="M95.4917 60.3332C94.0809 61.5817 95.7942 66.0477 97.5143 66.4135C97.9189 66.4239 98.3215 66.3526 98.6978 66.2037C99.0742 66.0549 99.4167 65.8316 99.7047 65.5472C101.279 64.0764 102.471 62.2437 103.178 60.2081C100.821 59.7282 97.3548 58.6819 95.4917 60.3332ZM73.3679 81.1246C71.549 78.8074 70.1158 76.212 69.1233 73.4384C68.9253 72.9695 68.6641 72.3384 68.4248 71.6509L68.5623 71.5986C69.8713 67.5726 69.5248 67.9549 69.7517 67.8545C71.0087 70.2792 72.9441 72.2858 75.3218 73.6295C76.3113 74.3867 77.5138 74.8138 78.7593 74.8505C79.9177 74.7836 81.0054 74.2717 81.7953 73.4219C81.8696 73.3394 82.6203 72.5487 82.4099 72.4305C81.8531 72.1142 79.8552 73.0905 79.1663 73.0987C76.3297 73.1304 74.6797 70.2717 74.4831 67.7362C74.0197 61.7495 81.5794 59.4752 81.4406 53.8749C81.3278 49.358 76.9031 45.8627 77.9563 41.1176C78.6575 38.886 79.9646 36.8929 81.7321 35.3605C86.9846 30.1259 93.1446 26.8795 97.4071 20.3936C98.2114 19.1726 97.9571 19.2441 98.1688 19.361C107.922 20.8419 110.497 27.0445 110.842 28.1954C111.712 31.1866 112.033 34.3105 111.791 37.4161C111.373 40.2009 111.212 43.0182 111.311 45.8325C111.776 49.9107 113.437 53.395 112.824 57.6286C112.375 60.6869 111.204 63.5943 109.408 66.11C107.612 68.6257 105.243 70.6773 102.496 72.095C99.5696 73.204 96.382 73.4292 93.3288 72.7426C91.6563 75.9969 90.2034 79.3594 88.9797 82.8076L89.1048 82.8489C89.5809 83.8939 89.8298 85.028 89.8349 86.1764L90.0426 86.4266C89.416 86.9338 88.8462 87.5073 88.3431 88.1371L87.9677 88.1687C87.8813 88.0534 87.7751 87.9542 87.6542 87.8759C86.8444 87.4284 85.9022 87.2823 84.9949 87.4634C84.3737 87.5142 83.7675 87.6807 83.2074 87.9542C80.4753 86.0554 76.7202 82.1971 72.9238 81.4917L73.3679 81.1246Z" fill="#FCE0D1"/>
<path d="M71.9 51.4873C71.9017 53.1342 71.7055 54.7754 71.3156 56.3755L71.1286 56.3232C65.9338 58.2221 60.9728 52.0937 64.4007 47.4778C66.1387 45.1403 68.7306 45.8278 70.2211 48.021C70.8516 48.9601 71.3494 49.9817 71.7006 51.057C71.7226 51.1725 71.8381 51.4213 71.8381 51.4942L71.9 51.4873Z" fill="#FCE0D1"/>
<path d="M87.7447 124.048C87.5646 124.224 85.6822 125.779 85.8348 126.093C85.9723 126.805 85.7826 126.133 86.5031 127.46C85.4436 128.17 84.4233 128.936 83.4464 129.756C81.4156 131.432 71.3244 139.417 68.3751 141.823C66.3524 125.844 63.3907 109.99 59.8954 94.2617C58.9783 90.1367 58.5713 86.4077 57.5703 82.3088L57.7161 82.2676C58.6722 85.4229 59.8395 88.5103 61.2099 91.509C62.9314 95.3163 67.4387 103.955 70.3152 107.101C76.7392 114.125 81.5269 96.514 84.9603 96.514C86.0603 96.514 86.9912 98.1144 87.4848 98.8734C89.2874 101.645 93.0852 111.358 96.2463 104.871C96.6052 105.042 96.4649 104.936 96.5997 105.256C97.4269 107.746 97.8873 110.342 97.9664 112.964L98.1218 113.079C94.9249 117.564 91.9742 119.908 87.7447 124.048Z" fill="#7ED6ED"/>
<path d="M57.9326 22.3676L58.1224 22.4625C57.329 23.9956 56.5576 25.5494 55.6185 27.0192C52.4079 32.0476 48.2389 35.569 49.3402 42.081C49.7104 44.1604 50.385 46.174 51.3422 48.0567L51.2377 48.109C49.9329 51.0405 51.0617 52.96 50.9627 55.6302C51.0719 58.9569 50.2981 62.2531 48.7201 65.1837C46.7951 68.3036 43.0826 71.6119 42.776 75.4055C42.4556 79.4191 45.4229 81.9587 45.8739 85.8981C46.5957 92.208 39.1666 92.7401 34.713 91.185L34.6924 91.1121C37.7064 90.5291 39.3935 88.0362 37.8631 85.168C35.34 80.438 30.0462 78.7454 30.0724 72.6404C30.104 65.0779 36.1842 59.6246 37.7724 52.5324C39.1171 46.514 36.4647 40.5781 37.1357 34.5501C38.0171 26.6329 46.032 20.9789 53.7402 21.2209C55.1815 21.4199 56.5907 21.8053 57.9326 22.3676Z" fill="#F5BF42"/>
<path d="M56.9237 75.0755C56.5344 76.602 56.5849 78.2075 57.0695 79.7065C57.6814 82.5733 57.8697 82.2186 57.5714 82.3025C58.5724 86.4013 58.9794 90.1248 59.8965 94.2553C63.3917 109.984 66.359 125.838 68.3761 141.817C67.2294 142.745 66.0812 143.685 64.9386 144.613L64.6636 144.27C64.2083 142.972 63.4474 141.802 62.4452 140.86C61.4429 139.918 60.2288 139.231 58.9051 138.856L58.9161 138.814C57.6741 125.246 55.4606 111.784 52.2927 98.533C51.042 92.7001 49.3731 86.9648 47.2987 81.3716C47.109 80.8821 46.9302 80.3981 46.7047 79.932C46.603 79.7216 46.2565 79.1812 46.3184 79.1812L46.2139 78.92C57.5961 74.7235 56.481 74.9008 56.9237 75.0755Z" fill="#E2F9FE"/>
<path d="M114.904 126.481L112.099 126.281C111.878 127.248 111.434 128.15 110.802 128.914C110.169 129.678 109.367 130.283 108.458 130.681C109.223 146.626 108.742 162.606 107.019 178.476C106.693 181.834 107.796 182.131 102.993 182.335C101.939 182.377 102.888 178.256 102.855 173.459C102.825 168.509 103.268 144.963 102.125 132.51L101.802 132.333C101.545 132.845 101.226 133.325 100.853 133.76C100.423 134.233 99.845 134.546 99.2134 134.646C98.5818 134.746 97.935 134.627 97.38 134.31C97.1394 134.207 95.9087 133.33 95.6901 133.507C95.4715 133.684 95.7272 134.655 95.7424 134.882C95.8056 135.864 95.961 137.357 95.1057 138.073C94.1047 138.898 92.738 138.105 92.0299 137.312C84.24 145.85 76.9145 154.8 70.0849 164.124C70.0532 171.274 70.6266 176.109 70.9291 181.999C71.0432 184.347 70.9827 186.349 68.4541 186.755C65.0647 187.305 65.304 176.638 64.6577 171.142C61.2587 174.772 57.1489 177.265 51.5375 175.971C50.9894 175.829 50.4522 175.648 49.9301 175.429L49.5025 176.529C48.7294 177.754 48.1523 179.091 47.792 180.493C47.8486 181.48 48.1896 182.429 48.7737 183.225L48.0739 183.945C47.9963 184.482 48.007 185.028 48.1055 185.562C48.6419 187.22 49.6856 188.669 51.0892 189.703C53.1719 190.965 55.5593 191.636 57.9945 191.642C65.1309 191.583 72.2028 190.285 78.8945 187.804L79.186 188.691C80.253 188.966 80.6985 189.249 82.5767 189.681C90.6521 191.522 100.703 191.532 107.723 187.126C116.143 181.833 112.303 174.731 112.645 167.622C112.836 163.695 115.293 162.26 114.607 156.753C113.949 152.155 116.774 149.603 118.182 145.457C120.422 138.923 119.713 131.674 114.904 126.481Z" fill="#7ED6ED"/>
<path d="M46.2079 78.9258L46.3124 79.187C46.2506 79.187 46.5971 79.7274 46.6988 79.9378C46.9243 80.4039 47.1031 80.8879 47.2928 81.3774C49.3651 86.9724 51.0314 92.7096 52.2786 98.5443C55.4468 111.798 57.6602 125.262 58.9019 138.832L58.8909 138.874C60.2146 139.249 61.4287 139.936 62.431 140.878C63.4332 141.82 64.1941 142.99 64.6494 144.288L64.9244 144.632C63.7667 145.58 62.6089 146.523 61.4512 147.459C61.3261 147.135 59.2718 147.533 59.1673 147.573C56.9028 148.707 54.9539 150.384 53.4941 152.454C48.9084 158.122 45.9948 165.346 43.9708 172.647L44.5346 172.803C45.3169 173.252 46.7456 174.003 48.1742 174.67L48.0284 174.972C48.1536 175.077 46.9958 176.162 46.6301 176.433C42.4308 179.546 40.1016 179.87 37.0559 178.759C31.6426 176.776 31.5559 172.061 29.2184 167.234C27.9892 164.708 25.7012 163.333 24.6699 160.59C23.6676 157.92 23.7074 154.815 23.4709 151.953C22.7284 142.774 24.1323 134.087 24.6081 124.961C25.0604 116.283 22.1757 107.74 22.9388 99.1768C23.6676 90.9983 29.4989 85.2934 35.7456 82.6383L35.9436 82.4609C36.695 83.2781 37.3416 84.1857 37.8686 85.1628C39.3989 88.031 37.7118 90.5253 34.6978 91.1069L34.7184 91.1798C39.1721 92.7349 46.6012 92.2028 45.8793 85.8929C45.4153 83.759 44.6608 81.6988 43.6367 79.77C44.521 79.5795 45.3828 79.2965 46.2079 78.9258Z" fill="#7ED6ED"/>
<path d="M241.528 165.076C240.487 162.464 235.67 161.238 234.216 160.926C224.642 158.915 208.133 159.096 196.872 158.222C188.046 157.534 175.902 153.871 168.617 157.534C165.255 159.322 164.608 162.697 167.49 165.171C170.01 167.064 172.944 168.331 176.05 168.867C176.007 168.952 175.983 169.046 175.98 169.142C175.98 169.29 175.555 196.291 175.72 198.211C175.815 199.485 176.319 200.695 177.157 201.659C175.225 204.297 174.153 207.466 174.088 210.734C171.679 209.713 169.347 208.518 167.11 207.159C163.637 205.015 160.273 202.7 157.03 200.221C148.043 193.309 136.923 184.05 130.387 173.576C137.614 171.033 143.879 166.32 148.325 160.081C148.381 160.007 148.421 159.924 148.444 159.834C148.467 159.745 148.472 159.652 148.458 159.561C148.444 159.47 148.412 159.383 148.364 159.304C148.315 159.226 148.252 159.158 148.177 159.104C148.102 159.051 148.017 159.013 147.927 158.993C147.837 158.973 147.744 158.971 147.653 158.988C147.563 159.005 147.477 159.039 147.4 159.09C147.323 159.141 147.257 159.206 147.206 159.283C142.636 165.692 136.084 170.42 128.561 172.736C128.271 172.674 128.148 172.801 127.92 172.853C127.048 173.063 126.479 171.438 125.885 169.715C125.725 169.26 125.615 168.789 125.555 168.31C125.555 168.201 125.555 167.65 125.545 167.623C129.375 166.463 131.899 163.946 135.327 162.641C135.415 162.611 135.496 162.565 135.565 162.503C135.634 162.442 135.691 162.367 135.73 162.283C135.77 162.2 135.792 162.109 135.796 162.016C135.8 161.924 135.784 161.831 135.752 161.745C135.719 161.658 135.669 161.579 135.604 161.512C135.54 161.446 135.463 161.392 135.378 161.356C135.293 161.32 135.201 161.301 135.108 161.301C135.016 161.301 134.924 161.32 134.839 161.357C130.281 163.091 127.414 166.694 121.836 166.843C121.533 166.879 121.227 166.846 120.939 166.748C120.651 166.65 120.388 166.489 120.17 166.276C119.603 165.501 119.861 164.367 120.133 163.165C120.929 159.656 120.668 159.074 116.037 156.467C115.368 156.09 115.376 156.073 115.225 156.04C115.039 153.477 115.897 151.939 117.159 149.429C117.805 148.215 118.365 146.959 118.837 145.668C121.331 138.372 120.048 131.023 115.399 126.005C115.345 125.95 115.283 125.903 115.214 125.868C116.103 125.048 116.638 123.913 116.704 122.705C119.988 123.024 123.385 121.377 123.442 117.977C123.345 116.344 122.743 114.782 121.719 113.507C121.4 113.035 121.066 112.574 120.718 112.123C124.328 113.761 126.28 115.113 129.34 115.43C129.81 115.533 130.297 115.523 130.762 115.4C131.227 115.276 131.655 115.044 132.012 114.723C132.37 114.401 132.645 113.999 132.815 113.549C132.986 113.1 133.047 112.616 132.994 112.139C132.569 107.44 126.138 107.051 122.699 106.177C124.762 103.765 145.594 79.364 145.689 79.2265C154.103 69.3444 153.939 69.5919 153.819 69.1601C153.724 68.666 153.512 68.2017 153.201 67.8059C152.89 67.4101 152.489 67.0942 152.032 66.8845C151.59 66.7388 151.12 66.7039 150.661 66.783C150.203 66.8622 149.771 67.0528 149.404 67.3383L118.599 104.153C116.536 102.747 114.548 101.18 112.014 100.81C104.612 99.7608 100.025 110.365 94.5996 116.356C92.1315 119.022 87.1966 123.613 87.0467 123.75C85.3734 125.215 84.9045 125.776 85.2193 126.407C85.1863 126.722 85.3362 126.848 85.5823 127.247C84.4466 128.032 86.1062 126.734 65.1182 143.578C64.5828 142.284 63.7614 141.128 62.7155 140.196C61.6696 139.265 60.4264 138.583 59.0792 138.2C55.9953 137.394 52.7195 137.801 49.9272 139.339C49.8404 139.139 49.7114 138.96 49.5491 138.815C48.9718 138.352 48.3211 137.99 47.6241 137.742C45.5446 136.998 43.355 136.609 41.1465 136.589C40.9641 136.585 40.7877 136.653 40.6559 136.779C40.5241 136.906 40.4479 137.079 40.4439 137.261C40.4398 137.443 40.5084 137.62 40.6345 137.752C40.7606 137.883 40.9339 137.96 41.1162 137.964C43.2117 138.008 46.9696 138.534 48.6389 139.838C48.6657 139.882 48.6891 139.928 48.709 139.975C45.6559 141.825 42.8614 144.071 40.3985 146.655C40.2769 146.785 40.2101 146.956 40.2121 147.133C40.214 147.311 40.2846 147.481 40.409 147.608C40.5333 147.734 40.7019 147.808 40.8793 147.813C41.0568 147.818 41.2294 147.755 41.361 147.636C46.0937 142.974 52.306 137.707 58.7039 139.523C59.9189 139.868 61.0336 140.499 61.9544 141.363C62.8753 142.227 63.5755 143.3 63.9962 144.491C63.1098 145.217 62.2211 145.94 61.3301 146.659C60.523 146.625 59.7153 146.711 58.9335 146.915C56.5432 148.075 54.4887 149.826 52.9646 152.003C47.7712 158.413 44.8645 166.503 42.8006 174.372C42.7756 174.46 42.7684 174.552 42.7795 174.643C42.7905 174.734 42.8195 174.822 42.8648 174.901C42.9102 174.98 42.9709 175.05 43.0434 175.106C43.1159 175.161 43.1989 175.202 43.2873 175.225C43.3757 175.248 43.4679 175.254 43.5584 175.241C43.649 175.228 43.736 175.197 43.8145 175.15C43.893 175.104 43.9614 175.041 44.0156 174.968C44.0698 174.894 44.1088 174.811 44.1302 174.722C46.135 167.053 48.9551 159.135 54.0302 152.867C55.3978 150.899 57.2316 149.299 59.368 148.212C59.5055 148.176 59.6127 148.055 58.026 149.343C57.9558 149.4 57.8976 149.47 57.8546 149.55C57.8116 149.629 57.7846 149.717 57.7753 149.806C57.766 149.896 57.7745 149.987 57.8003 150.074C57.826 150.16 57.8686 150.241 57.9256 150.311C57.9826 150.381 58.0528 150.44 58.1323 150.483C58.2118 150.526 58.2989 150.553 58.3888 150.562C58.4787 150.571 58.5695 150.563 58.6562 150.537C58.7428 150.511 58.8235 150.469 58.8936 150.412C58.8936 150.412 60.9245 148.762 61.6862 148.135C61.8491 148.082 61.9862 147.97 62.0699 147.821C63.1699 146.934 85.4449 129.015 86.2561 128.445C87.8759 131.459 89.7046 135.74 91.5113 137.771C91.9472 138.402 92.61 138.84 93.3613 138.994C94.1126 139.148 94.8942 139.005 95.5428 138.596C96.6648 137.653 96.493 135.965 96.4228 134.848C96.4228 134.779 96.4022 134.658 96.3775 134.511C96.4118 134.532 97.0004 134.896 97.0388 134.904C97.7336 135.301 98.5435 135.446 99.3327 135.317C100.122 135.187 100.843 134.79 101.374 134.192C102.286 132.971 103.013 131.623 103.533 130.191C103.501 131.636 104.475 132.579 106.192 132.201C107.649 131.987 109.02 131.379 110.157 130.444C111.294 129.509 112.155 128.281 112.646 126.894C113.192 126.89 113.73 126.761 114.217 126.514C114.224 126.676 114.289 126.83 114.4 126.949C118.692 131.585 119.867 138.42 117.539 145.236C116.08 149.523 113.24 152.025 113.929 156.838C114.255 159.001 113.947 161.211 113.042 163.202C111.918 166.326 111.667 167.217 112.239 172.945C112.872 179.27 112.886 183.072 107.361 186.544C106.702 186.957 106.021 187.333 105.32 187.67C105.402 186.624 105.458 185.635 105.484 184.656C105.432 183.866 105.446 183.073 105.527 182.286C105.527 181.667 104.64 181.308 104.317 181.837C104.207 181.954 104.141 182.105 104.131 182.265C103.973 184.851 104.293 183.65 103.89 188.278C99.3008 189.913 94.4065 190.514 89.5575 190.038C87.2609 189.865 84.9803 189.522 82.7347 189.011C81.7794 188.796 80.8388 188.521 79.9187 188.186C81.1906 187.75 86.3812 185.933 86.3812 185.933C86.4671 185.904 86.5464 185.859 86.6145 185.799C86.6827 185.739 86.7383 185.666 86.7782 185.585C86.8181 185.503 86.8415 185.415 86.847 185.324C86.8526 185.234 86.8402 185.143 86.8105 185.057C86.7809 184.972 86.7346 184.893 86.6743 184.825C86.614 184.757 86.5409 184.702 86.4592 184.663C86.3775 184.623 86.2888 184.601 86.1982 184.596C86.1077 184.591 86.0171 184.604 85.9316 184.634C80.7112 186.611 75.3866 188.3 69.9816 189.695C69.9544 188.858 69.7852 188.032 69.4811 187.252C69.5149 187.088 69.4921 186.916 69.4163 186.767C69.3405 186.617 69.2163 186.497 69.0638 186.427C68.9113 186.356 68.7395 186.34 68.5763 186.38C68.4132 186.419 68.2683 186.513 68.1652 186.646C67.9274 186.984 68.0415 187.306 68.2491 187.891C68.4975 188.57 68.6277 189.286 68.6341 190.009C65.1423 190.785 61.5644 191.105 57.9902 190.959C55.6985 190.99 53.446 190.363 51.5002 189.152C50.2322 188.226 49.2832 186.929 48.7846 185.44C48.7199 185.087 48.6996 184.727 48.7241 184.369C48.7411 184.337 48.7554 184.305 48.7667 184.271C49.7638 185.35 50.9735 186.211 52.3197 186.8C52.4869 186.873 52.6763 186.876 52.8461 186.809C53.0159 186.743 53.1522 186.611 53.2252 186.444C53.2981 186.277 53.3016 186.088 53.235 185.918C53.1683 185.748 53.0369 185.612 52.8697 185.539C51.4793 184.947 50.262 184.012 49.3319 182.822C48.8404 182.164 48.5483 181.379 48.4904 180.56C48.83 179.28 49.3608 178.059 50.0647 176.938C50.1767 176.855 50.2609 176.741 50.3063 176.609C50.3517 176.477 50.356 176.335 50.3187 176.201C50.2815 176.067 50.2044 175.947 50.0977 175.858C49.9909 175.769 49.8596 175.714 49.721 175.701C49.5577 175.69 49.3948 175.727 49.253 175.809C49.1113 175.891 48.997 176.013 48.9249 176.16C48.1156 177.445 47.5125 178.849 47.1374 180.321C47.1214 181.364 47.4163 182.388 47.9844 183.263C47.8382 183.285 47.7029 183.353 47.5986 183.458C47.4944 183.563 47.4266 183.698 47.4055 183.845C47.3134 184.485 47.3325 185.136 47.4619 185.77C47.9502 187.288 48.8361 188.649 50.0276 189.709C49.9987 189.757 49.9765 189.809 49.9616 189.863C49.1119 192.803 45.7541 194.456 44.9497 196.155C41.5769 203.379 37.6499 209.768 35.5544 217.499C32.7846 227.505 31.0503 237.769 30.3789 248.129C30.1396 252.141 29.2307 257.204 31.1929 261.054C32.242 263.133 34.7335 263.838 36.9294 264.466C42.8148 266.234 48.8282 267.543 54.9157 268.382C59.3762 268.992 62.5855 269.587 64.5655 265.69C65.5464 265.858 66.5438 265.909 67.5368 265.843C69.1291 265.854 70.2442 265.887 71.3731 265.861C71.4775 266.384 71.672 266.885 71.9478 267.342C73.1386 269.051 76.858 268.658 78.9604 268.461C81.5907 268.212 92.7805 268.216 103.023 267.104C103.783 266.778 104.417 266.214 104.83 265.498C105.011 264.976 105.154 264.443 105.26 263.901C106.547 263.616 107.857 263.453 109.175 263.413C110 263.349 110.847 263.283 111.688 263.155C111.627 263.556 111.663 263.965 111.792 264.35C111.922 264.734 112.141 265.082 112.432 265.364C113.595 265.872 114.901 265.945 116.113 265.568C117.488 265.334 124.419 264.641 126.321 264.468C126.503 264.452 126.672 264.364 126.789 264.224C126.907 264.083 126.964 263.902 126.948 263.72C126.932 263.538 126.844 263.369 126.704 263.251C126.563 263.134 126.382 263.077 126.2 263.093C124.568 263.237 117.364 263.949 115.887 264.201C115.075 264.339 113.716 264.57 113.223 264.224C112.663 263.674 114.028 252.662 110.844 229.616C109.078 215.967 108.026 211.603 107.606 207.778C107.56 207.353 107.498 206.766 106.87 206.77C106.754 206.777 106.641 206.812 106.54 206.871C106.44 206.93 106.355 207.011 106.292 207.109C106.228 207.207 106.189 207.319 106.177 207.435C106.165 207.551 106.181 207.668 106.222 207.777C106.684 212.263 111.776 238.341 111.674 258.968C111.674 259.915 111.665 260.86 111.684 261.754C109.954 262.038 107.295 262.086 105.485 262.441C105.927 258.394 106.157 254.326 106.173 250.255C106.376 237.629 106.433 226.27 105.051 215.092C105.024 214.915 104.929 214.755 104.786 214.647C104.644 214.539 104.464 214.491 104.287 214.513C104.109 214.535 103.947 214.626 103.835 214.765C103.723 214.905 103.67 215.083 103.687 215.261C105.062 226.35 105.001 237.659 104.798 250.231C104.747 253.318 104.564 262.067 103.545 265.005C103.305 265.297 103.02 265.548 102.701 265.751C93.6632 266.888 82.7925 266.713 78.8284 267.083C77.3158 267.221 73.7711 267.557 73.096 266.588C72.271 265.213 72.7839 263.615 73.0671 260.727V210.451C73.0671 210.271 73.3064 210.094 73.3421 209.88L73.3875 209.431C73.4452 208.881 73.5044 208.305 72.8609 208.193C72.7432 208.186 72.6254 208.206 72.5163 208.25C72.4071 208.295 72.3093 208.363 72.2302 208.451C72.151 208.538 72.0924 208.642 72.0588 208.755C72.0252 208.868 72.0173 208.987 72.0359 209.104C71.5546 213.597 71.6976 197.683 71.6976 260.649C71.5711 261.916 71.2851 263.203 71.2851 264.48C70.3666 264.502 65.209 264.449 65.0715 264.447C65.5503 262.813 65.8455 261.131 65.9515 259.431C66.3365 255.493 66.6239 255.62 67.5368 241.901C68.2354 231.469 69.1869 219.922 70.5069 209.464C70.5088 209.277 70.4382 209.097 70.3099 208.962C70.1816 208.826 70.0057 208.746 69.8194 208.738C69.731 208.733 69.6427 208.747 69.5597 208.777C69.4767 208.808 69.4008 208.855 69.3366 208.916C69.2723 208.977 69.221 209.05 69.1858 209.131C69.1507 209.212 69.1323 209.3 69.1319 209.388C67.8105 219.776 66.8549 231.388 66.1605 241.809C65.253 255.394 64.9711 255.302 64.5779 259.296C64.3262 261.861 64.0609 264.521 62.448 266.372C60.9575 268.047 57.4471 267.335 55.0849 267.014C49.0648 266.18 43.1178 264.884 37.2965 263.138C35.278 262.561 33.1894 261.969 32.4084 260.427C30.9577 257.58 31.2864 253.732 31.5834 250.338C32.1924 239.356 33.967 228.47 36.8771 217.862C38.9259 210.3 42.802 203.991 46.1914 196.741C46.7909 195.469 50.0909 193.726 51.1812 190.553C53.7978 191.942 56.7511 192.57 59.7062 192.366C62.7621 192.366 65.809 192.035 68.7936 191.378C69.048 193.697 69.2322 195.795 69.3574 197.778C69.3688 197.96 69.4523 198.13 69.5893 198.251C69.7264 198.372 69.9058 198.433 70.0882 198.422C70.2705 198.41 70.4408 198.327 70.5616 198.19C70.6824 198.053 70.7438 197.873 70.7324 197.691C70.5887 195.479 70.393 193.27 70.1452 191.068C72.9677 190.402 75.7567 189.602 78.5025 188.67C78.4987 188.829 78.5502 188.984 78.6482 189.11C78.7463 189.235 78.8848 189.322 79.0401 189.357C82.4019 190.493 85.8989 191.181 89.4406 191.403C94.2772 191.878 99.1595 191.322 103.765 189.771C103.716 190.339 103.521 192.397 103.521 192.397C103.504 192.58 103.56 192.761 103.677 192.902C103.794 193.043 103.962 193.132 104.144 193.149C104.326 193.166 104.508 193.109 104.649 192.993C104.79 192.876 104.879 192.707 104.896 192.525C104.896 192.525 105.132 190.023 105.195 189.239C107.333 188.345 109.283 187.056 110.943 185.44C114.518 181.877 114.061 177.265 113.616 172.805C113.047 167.082 113.331 166.48 114.345 163.664C115.187 161.789 115.548 159.734 115.394 157.684C117.671 158.967 118.89 159.84 119.018 160.281C119.553 162.101 117.466 164.906 119.125 167.156C119.444 167.494 119.828 167.763 120.253 167.948C120.678 168.134 121.137 168.232 121.6 168.236C122.468 168.22 123.333 168.128 124.184 167.961C124.202 168.712 124.341 169.454 124.597 170.161C125.325 172.282 126.174 174.755 128.348 174.163C128.591 174.177 128.835 174.13 129.056 174.026C135.687 184.802 147.045 194.267 156.204 201.313C159.484 203.821 162.888 206.164 166.402 208.332C168.883 209.885 171.501 211.207 174.223 212.283C178.948 214.082 179.752 214.236 182.336 215.275C186.943 217.124 191.373 218.85 196.279 217.75C200.057 216.787 201.092 215.592 205.203 214.074C206.853 213.524 208.905 213.821 210.659 212.94C213.112 211.69 214.922 209.623 217.214 208.373C218.314 207.781 220.082 207.086 221.52 206.195C222.938 205.492 224.024 204.262 224.545 202.768C224.652 202.426 224.664 202.062 224.578 201.714C224.492 201.367 224.313 201.05 224.06 200.797C222.872 199.628 220.308 199.958 219.505 200.167C215.749 201.122 211.767 204.889 207.542 206.693C209.066 205.181 212.506 201.724 211.873 199.666C211.796 199.416 211.655 199.19 211.464 199.01C211.274 198.831 211.041 198.703 210.787 198.64C208.923 198.09 206.696 199.611 205.108 200.679C201.808 202.898 198.836 205.491 195.65 207.861C197.191 205.979 198.514 203.928 199.593 201.749C199.997 200.924 200.791 199.169 199.656 198.222C198.151 196.953 195.916 198.634 194.744 199.521C192.943 201.062 191.299 202.775 189.833 204.637C185.983 204.43 181.102 203.254 178.684 201.208C177.034 199.809 177.02 198.031 177.046 195.886C177.095 192.41 176.891 204.765 177.37 169.171C180.728 169.939 184.336 170.234 187.565 171.251C187.739 171.306 187.927 171.289 188.089 171.205C188.251 171.121 188.372 170.975 188.427 170.802C188.482 170.628 188.465 170.439 188.381 170.277C188.296 170.116 188.151 169.994 187.977 169.939C182.513 168.218 172.976 168.063 168.4 164.129C165.398 161.553 167.693 158.659 172.112 157.773C177.177 156.731 183.067 157.657 188.529 158.512C195.474 159.602 197.378 159.789 210.031 160.262C216.378 160.499 227.394 160.893 233.942 162.267C235.973 162.703 239.591 163.892 240.267 165.579C240.364 165.865 240.385 166.171 240.328 166.467C240.271 166.763 240.139 167.039 239.944 167.269C238.558 169.235 233.945 170.294 231.596 170.602C228.043 171.015 224.463 171.153 220.888 171.015C220.707 171.012 220.532 171.078 220.399 171.199C220.265 171.321 220.183 171.489 220.169 171.669C220.16 171.851 220.224 172.029 220.347 172.164C220.469 172.299 220.64 172.379 220.822 172.388C226.098 172.644 235.456 172.365 239.765 169.34C240.495 168.93 241.065 168.286 241.385 167.513C241.705 166.74 241.755 165.881 241.528 165.076ZM150.382 68.32C151.361 67.8264 152.002 68.1825 152.396 69.2151C151.464 70.3316 147.826 74.6079 145.439 77.4115C145.077 76.8036 144.495 76.3581 143.814 76.1671L150.382 68.32ZM142.704 77.4926C142.89 77.4404 143.085 77.428 143.276 77.4562C143.468 77.4844 143.651 77.5526 143.814 77.6564C143.977 77.7602 144.116 77.8973 144.223 78.0586C144.33 78.2199 144.401 78.4019 144.432 78.5926C135.789 88.7456 121.305 105.71 121.305 105.71C120.771 105.482 120.254 105.215 119.758 104.913L142.704 77.4926ZM112.891 125.515C112.931 123.851 112.74 122.19 112.323 120.578C111.761 118.327 111.342 118.371 110.977 118.411C110.835 118.435 110.703 118.498 110.596 118.594C110.489 118.689 110.412 118.814 110.373 118.952C110.334 119.09 110.335 119.237 110.377 119.374C110.418 119.512 110.498 119.635 110.607 119.729C111.353 121.775 111.634 123.962 111.432 126.131C110.906 128.743 108.498 130.301 105.905 130.858C105.704 130.902 105.217 130.982 105.044 130.778C104.871 130.575 104.832 129.993 105.147 129.189C106.007 127.053 107.082 126.532 106.764 125.759C106.718 125.651 106.646 125.556 106.554 125.482C106.463 125.408 106.354 125.358 106.239 125.336C105.378 125.179 104.511 126.104 103.778 127.028C102.185 128.991 101.821 131.534 100.354 133.294C100.015 133.651 99.5665 133.883 99.08 133.955C98.5935 134.026 98.0971 133.933 97.67 133.689C96.9247 133.296 95.9485 132.423 95.2637 132.975C94.6684 133.457 95.019 134.442 95.0643 134.97C95.1358 135.806 95.2445 137.069 94.6752 137.549C94.04 138.07 93.0335 137.403 92.5481 136.861C90.5557 134.621 88.1715 128.633 86.5283 126.165C86.8185 125.765 87.2158 125.502 89.8682 122.982C93.1227 120.127 96.0752 116.945 98.6792 113.486C102.082 108.858 106.425 101.408 111.826 102.171C114.237 102.523 116.206 104.234 118.343 105.632C119.345 106.33 120.438 106.885 121.592 107.282C124.8 108.333 131.29 108.374 131.641 112.261C131.762 113.58 130.792 114.179 129.5 114.061C126.242 113.665 124.297 112.104 119.576 110.083C119.34 109.961 118.845 109.343 118.225 109.501C117.984 109.59 117.788 109.769 117.675 109.999C117.365 110.765 118.405 111.025 120.634 114.319C121.487 115.368 121.995 116.655 122.089 118.004C122.039 120.537 119.161 121.599 116.736 121.321C116.619 119.712 116.359 118.117 115.959 116.555C115.834 116.044 115.959 114.867 115.821 114.311C115.799 114.224 115.76 114.141 115.705 114.069C115.651 113.997 115.583 113.936 115.506 113.89C115.428 113.844 115.342 113.814 115.253 113.801C115.163 113.788 115.072 113.793 114.985 113.815C114.897 113.838 114.815 113.877 114.743 113.931C114.67 113.985 114.61 114.053 114.564 114.131C114.518 114.209 114.487 114.295 114.474 114.384C114.462 114.473 114.467 114.565 114.489 114.652C114.517 114.913 114.528 115.176 114.522 115.439C114.505 115.922 114.54 116.406 114.626 116.882C115.075 118.536 115.333 120.236 115.395 121.949C115.526 122.753 115.337 123.575 114.869 124.242C114.401 124.908 113.691 125.365 112.891 125.515ZM188.626 205.931C187.899 206.642 187.092 207.265 186.221 207.789C186.071 207.886 185.965 208.038 185.925 208.211C185.885 208.385 185.914 208.568 186.006 208.721C186.098 208.874 186.246 208.985 186.419 209.031C186.591 209.077 186.775 209.053 186.931 208.966C190.848 206.609 192.192 203.143 195.651 200.551C197.269 199.333 198.312 198.901 198.756 199.279C198.906 199.403 198.979 199.846 198.303 201.233C196.436 204.72 194.098 207.933 191.356 210.784C191.296 210.852 191.251 210.931 191.222 211.017C191.193 211.102 191.182 211.193 191.188 211.283C191.194 211.373 191.218 211.461 191.258 211.541C191.298 211.622 191.354 211.695 191.422 211.754C191.49 211.813 191.569 211.858 191.655 211.887C191.741 211.916 191.831 211.928 191.921 211.921C192.011 211.915 192.099 211.891 192.18 211.851C192.261 211.811 192.333 211.755 192.392 211.687L193.421 210.513C193.535 210.603 193.675 210.655 193.82 210.66C193.965 210.666 194.109 210.625 194.229 210.545C199.993 206.678 207.748 199.198 210.375 199.957C210.522 200.002 210.535 200.045 210.542 200.068C210.659 200.451 210.207 201.633 208.866 203.242C205.855 206.595 202.503 209.626 198.864 212.285C198.715 212.39 198.613 212.55 198.582 212.729C198.55 212.909 198.591 213.094 198.696 213.243C198.801 213.392 198.96 213.494 199.14 213.526C199.32 213.557 199.504 213.516 199.654 213.411C201.851 211.874 203.921 210.16 205.841 208.288C205.928 208.394 206.044 208.472 206.175 208.511C206.306 208.551 206.446 208.55 206.577 208.51C209.135 207.568 211.554 206.285 213.768 204.697C215.617 203.331 217.661 202.253 219.832 201.498C220.911 201.176 222.073 201.274 223.082 201.773C223.16 201.848 223.215 201.944 223.239 202.05C223.264 202.155 223.257 202.266 223.22 202.367C222.798 203.516 221.946 204.457 220.844 204.99C219.331 205.922 217.804 206.48 216.548 207.161C214.185 208.448 212.256 210.575 210.028 211.708C208.608 212.423 206.542 212.17 204.738 212.773C200.367 214.389 199.618 215.475 195.949 216.408C190.462 217.645 185.29 214.855 180.137 212.94C178.584 212.365 177.026 211.806 175.462 211.264C175.416 208.154 176.37 205.113 178.183 202.586C180.778 204.588 185.139 205.607 188.626 205.931Z" fill="black"/>
<path d="M229.573 166.832C229.664 166.817 229.75 166.785 229.828 166.736C229.906 166.687 229.973 166.623 230.026 166.548C230.078 166.473 230.115 166.388 230.135 166.298C230.154 166.208 230.155 166.115 230.138 166.025C230.12 165.935 230.085 165.849 230.035 165.773C229.984 165.696 229.918 165.631 229.841 165.58C229.765 165.529 229.679 165.495 229.588 165.478C229.498 165.461 229.405 165.462 229.316 165.482C225.434 166.218 221.738 165.816 214.603 165.58C207.79 165.354 200.746 165.156 193.841 164.574C190.289 164.363 186.764 163.825 183.311 162.967C181.818 162.604 180.384 162.034 179.049 161.274C178.972 161.19 178.901 161.101 178.837 161.008C178.727 160.854 178.567 160.743 178.384 160.692C178.202 160.642 178.008 160.657 177.834 160.733C177.746 160.795 177.672 160.877 177.619 160.971C177.566 161.066 177.534 161.171 177.527 161.279C177.52 161.388 177.537 161.496 177.576 161.597C177.616 161.698 177.678 161.789 177.757 161.863C178.147 162.401 178.696 162.802 179.328 163.008C183.23 164.796 189.525 165.699 193.742 165.948C203.209 166.747 213.771 166.871 219.032 167.129C222.545 167.441 226.083 167.341 229.573 166.832Z" fill="black"/>
<path d="M70.5829 53.4995C69.859 52.4011 68.9377 51.4463 67.8659 50.6835C67.2372 50.304 66.5709 49.9907 65.8776 49.7485C65.7173 49.7486 65.562 49.8047 65.4387 49.9071C65.3154 50.0095 65.2317 50.1518 65.2022 50.3094C65.1727 50.467 65.1991 50.6299 65.277 50.7701C65.3549 50.9102 65.4793 51.0187 65.6287 51.0768C65.7662 51.1414 66.9611 51.7272 67.155 51.8674C66.3396 52.4999 66.1031 52.7942 66.0839 53.1668C66.0818 53.2738 66.1014 53.3802 66.1416 53.4795C66.1817 53.5787 66.2416 53.6688 66.3176 53.7443C66.4047 53.8255 66.5114 53.8827 66.6273 53.9103C66.7432 53.9379 66.8642 53.9349 66.9786 53.9017C67.093 53.8684 67.1967 53.806 67.2797 53.7205C67.3627 53.6351 67.4221 53.5296 67.452 53.4143C67.6975 53.1877 67.956 52.9756 68.2261 52.779C69.5049 54.0482 69.3742 54.5665 70.0136 54.5665C70.1375 54.5658 70.2589 54.5316 70.365 54.4676C70.4711 54.4035 70.5579 54.312 70.6162 54.2027C70.6745 54.0933 70.7022 53.9703 70.6963 53.8465C70.6905 53.7227 70.6513 53.6029 70.5829 53.4995Z" fill="black"/>
<path d="M210.743 93.7229C210.609 93.8409 210.526 94.0063 210.512 94.1842C210.498 94.3621 210.553 94.5385 210.667 94.6762C210.78 94.8138 210.943 94.902 211.12 94.9219C211.298 94.9418 211.476 94.892 211.617 94.783C211.982 94.4803 212.43 94.2969 212.903 94.2578C213.328 94.3078 213.727 94.4935 214.039 94.7874C214.351 95.0814 214.56 95.4679 214.635 95.8899C214.71 96.2982 214.64 96.7198 214.436 97.0814C214.232 97.443 213.908 97.7217 213.52 97.8689C213.132 98.0161 212.704 98.0225 212.312 97.887C211.919 97.7515 211.587 97.4827 211.372 97.1274C211.327 97.0477 211.266 96.978 211.193 96.9223C211.12 96.8666 211.037 96.826 210.948 96.803C210.859 96.78 210.766 96.775 210.676 96.7883C210.585 96.8016 210.498 96.833 210.419 96.8805C210.341 96.9281 210.273 96.9908 210.219 97.0651C210.165 97.1395 210.126 97.2238 210.106 97.3132C210.085 97.4026 210.082 97.4952 210.098 97.5856C210.114 97.676 210.147 97.7624 210.197 97.8396C210.578 98.4696 211.169 98.9458 211.865 99.1855C212.561 99.4252 213.32 99.4132 214.008 99.1516C214.697 98.89 215.272 98.3954 215.633 97.7538C215.995 97.1121 216.12 96.364 215.987 95.6396C215.852 94.9139 215.483 94.2522 214.937 93.7557C214.391 93.2591 213.697 92.955 212.962 92.8896C212.151 92.9158 211.371 93.2087 210.743 93.7229Z" fill="black"/>
<path d="M198.986 90.4294C198.805 90.4476 198.638 90.5372 198.522 90.6783C198.407 90.8195 198.352 91.0008 198.371 91.1822C198.389 91.3636 198.478 91.5304 198.62 91.6458C198.761 91.7612 198.942 91.8157 199.123 91.7975C201.213 91.616 203.244 91.0076 205.09 90.01C205.172 89.9685 205.245 89.9107 205.305 89.8403C205.365 89.7698 205.409 89.688 205.437 89.5998C205.464 89.5116 205.474 89.4189 205.464 89.327C205.455 89.2351 205.427 89.146 205.383 89.0651C205.338 88.9842 205.278 88.913 205.206 88.8559C205.133 88.7987 205.05 88.7568 204.961 88.7326C204.872 88.7084 204.779 88.7023 204.687 88.7149C204.596 88.7274 204.508 88.7582 204.428 88.8055C202.744 89.7123 200.892 90.2649 198.986 90.4294Z" fill="black"/>
<path d="M192.101 80.2302C192.15 80.3062 192.213 80.3718 192.288 80.4234C192.362 80.475 192.445 80.5115 192.533 80.5307C192.622 80.55 192.713 80.5517 192.802 80.5358C192.891 80.5198 192.975 80.4865 193.052 80.4378C193.128 80.389 193.193 80.3258 193.245 80.2516C193.296 80.1775 193.333 80.0939 193.352 80.0057C193.371 79.9175 193.373 79.8263 193.357 79.7374C193.341 79.6486 193.308 79.5637 193.259 79.4877C192.885 78.9075 192.313 78.483 191.65 78.2931C190.987 78.1031 190.277 78.1607 189.653 78.455C189.564 78.4886 189.483 78.5403 189.415 78.6068C189.347 78.6733 189.293 78.7532 189.258 78.8414C189.222 78.9295 189.205 79.0241 189.208 79.1192C189.211 79.2142 189.234 79.3076 189.275 79.3934C189.315 79.4793 189.374 79.5557 189.446 79.6179C189.517 79.6802 189.601 79.7268 189.692 79.7549C189.783 79.783 189.879 79.792 189.973 79.7813C190.068 79.7705 190.159 79.7403 190.241 79.6925C190.563 79.5409 190.93 79.5119 191.273 79.6108C191.615 79.7097 191.909 79.9299 192.101 80.2302Z" fill="black"/>
<path d="M200.117 82.8268C200.277 82.7925 200.216 82.7636 200.442 82.7457C200.824 82.7104 201.206 82.7959 201.536 82.9901C201.866 83.1843 202.127 83.4774 202.281 83.8278C202.317 83.9124 202.37 83.9889 202.436 84.0528C202.502 84.1166 202.58 84.1666 202.666 84.1997C202.752 84.2328 202.843 84.2483 202.935 84.2454C203.027 84.2425 203.117 84.2212 203.201 84.1828C203.284 84.1443 203.359 84.0895 203.421 84.0216C203.483 83.9537 203.531 83.874 203.561 83.7874C203.592 83.7007 203.605 83.6087 203.6 83.517C203.594 83.4252 203.57 83.3355 203.529 83.2531C203.229 82.5772 202.702 82.0272 202.04 81.6975C201.378 81.3677 200.621 81.2789 199.901 81.4463C199.758 81.4716 199.625 81.5367 199.518 81.6339C199.41 81.7312 199.332 81.8568 199.293 81.9963C199.261 82.1108 199.26 82.2315 199.29 82.3464C199.32 82.4613 199.38 82.5661 199.464 82.6504C199.548 82.7347 199.652 82.7955 199.767 82.8264C199.881 82.8574 200.002 82.8575 200.117 82.8268Z" fill="black"/>
<path d="M207.04 74.1835C207.213 74.1844 207.379 74.1203 207.507 74.0039C207.635 73.8875 207.714 73.7274 207.729 73.5553C207.743 73.3833 207.693 73.2119 207.587 73.0753C207.482 72.9387 207.329 72.8469 207.158 72.8181C207.125 72.7796 207.088 72.7246 207.091 72.7769C207.073 72.2147 207.266 71.6662 207.633 71.2396C209.147 68.9699 210.965 66.9185 213.036 65.1429C213.106 65.0845 213.163 65.0128 213.205 64.932C213.247 64.8513 213.272 64.763 213.28 64.6724C213.287 64.5818 213.276 64.4907 213.248 64.4042C213.22 64.3177 213.175 64.2376 213.116 64.1686C213.057 64.0996 212.985 64.043 212.904 64.0022C212.822 63.9613 212.734 63.9369 212.643 63.9304C212.553 63.924 212.461 63.9356 212.375 63.9646C212.289 63.9935 212.21 64.0393 212.141 64.0993C209.99 65.9408 208.103 68.069 206.531 70.4243C205.946 71.1393 205.661 72.0528 205.735 72.9735C205.794 73.2883 205.953 73.5758 206.188 73.7936C206.423 74.0115 206.722 74.1481 207.04 74.1835Z" fill="black"/>
<path d="M197.894 69.805C197.246 65.4352 196.676 62.1792 194.088 58.4296C193.984 58.2793 193.825 58.1765 193.645 58.1436C193.466 58.1107 193.28 58.1505 193.13 58.2543C192.98 58.358 192.877 58.5172 192.844 58.6968C192.811 58.8764 192.851 59.0617 192.955 59.212C195.316 62.6275 195.897 65.812 196.53 69.937C196.53 70.0873 196.564 70.2356 196.629 70.371C196.695 70.5064 196.789 70.6254 196.907 70.7193C197.035 70.8106 197.192 70.8548 197.349 70.8445C197.507 70.8342 197.656 70.7701 197.771 70.6629C197.887 70.5556 197.963 70.4119 197.985 70.2556C198.007 70.0994 197.975 69.9403 197.894 69.805Z" fill="black"/>
<path d="M192.093 87.4747C192.669 87.7042 193.309 87.7105 193.889 87.4925C194.07 87.9034 194.35 88.2627 194.705 88.538C195.059 88.8134 195.477 88.9961 195.92 89.0697C196.214 89.0731 196.505 89.0147 196.775 88.8981C197.045 88.7816 197.287 88.6095 197.486 88.3932C197.555 88.3314 197.611 88.2564 197.65 88.1726C197.689 88.0889 197.711 87.998 197.714 87.9056C197.717 87.8132 197.702 87.721 197.669 87.6347C197.636 87.5484 197.585 87.4696 197.521 87.4032C197.457 87.3367 197.38 87.2839 197.294 87.248C197.209 87.212 197.118 87.1936 197.025 87.1938C196.933 87.1941 196.841 87.213 196.756 87.2494C196.671 87.2859 196.594 87.3391 196.53 87.4059C196.118 87.8005 195.854 87.8473 195.322 87.2052C195.19 87.0476 195.096 86.8618 195.047 86.662C195.032 86.4815 194.963 86.3097 194.849 86.1687C194.735 86.0278 194.582 85.9242 194.409 85.8714C194.16 85.815 193.89 85.8563 193.394 86.2097C192.907 86.3857 192.167 86.1959 192.134 85.6184C192.124 85.4365 192.042 85.2661 191.906 85.1446C191.77 85.0232 191.592 84.9607 191.41 84.9708C190.297 85.0313 190.7 87.0058 192.093 87.4747Z" fill="black"/>
<path d="M188.884 89.0587C190.362 89.9127 191.955 90.5481 193.614 90.9452C193.791 90.9891 193.977 90.9615 194.133 90.8683C194.289 90.7751 194.402 90.624 194.447 90.4479C194.492 90.2719 194.465 90.0852 194.373 89.9287C194.28 89.7723 194.13 89.6587 193.954 89.6128C192.434 89.2502 190.973 88.6714 189.617 87.8941C186.847 86.13 184.586 81.9266 186.502 79.0845C186.873 78.6315 187.356 78.2827 187.903 78.0725C188.593 77.8108 189.2 77.3679 189.66 76.7902C190.12 76.2126 190.415 75.5218 190.515 74.7903C191.023 73.0812 191.203 72.9753 192.325 72.3456C194.207 71.2868 195.084 70.5169 193.39 66.4675C192.225 64.1984 191.518 61.7222 191.309 59.18C191.276 58.2247 191.622 57.2951 192.271 56.5936C192.402 56.4901 192.555 56.4197 192.719 56.3883C192.882 56.3569 193.051 56.3656 193.21 56.4135C194.339 56.6789 195.2 58.0869 195.823 59.2817C196.888 61.3473 197.656 63.5531 198.104 65.8336C198.157 67.3004 198.425 68.7514 198.9 70.1401C199.828 71.9359 202.843 71.0077 203.12 72.0899C203.14 72.1791 203.178 72.2634 203.232 72.3378C203.286 72.4121 203.353 72.475 203.432 72.5227C203.51 72.5705 203.597 72.6021 203.687 72.6158C203.778 72.6294 203.87 72.6249 203.959 72.6023C204.048 72.5798 204.131 72.5397 204.204 72.4845C204.277 72.4293 204.339 72.36 204.385 72.2808C204.431 72.2015 204.46 72.1139 204.472 72.023C204.483 71.9321 204.477 71.8399 204.452 71.7516C203.879 69.4939 200.602 70.4426 200.12 69.5062C199.742 68.2261 199.519 66.9055 199.454 65.5724C198.981 63.1623 198.169 60.8314 197.042 58.6492C196.235 57.101 195.186 55.4661 193.524 55.0742C191.266 54.5435 189.949 56.8796 189.936 59.1704C189.899 63.7257 193.257 68.0322 192.888 70.1154C192.82 70.4894 192.226 70.8221 191.651 71.1452C190.996 71.4296 190.426 71.8787 189.996 72.4488C189.566 73.0189 189.291 73.6906 189.198 74.3985C188.689 76.1117 188.451 76.2671 187.299 76.8391C186.536 77.148 185.87 77.6584 185.374 78.3159C182.993 81.8304 185.432 86.8601 188.884 89.0587Z" fill="black"/>
<path d="M186.064 146.206C186.152 146.237 186.245 146.25 186.338 146.244C186.431 146.238 186.522 146.214 186.605 146.172C186.688 146.13 186.762 146.071 186.821 146C186.881 145.928 186.926 145.846 186.953 145.756C187.728 143.182 190.422 139.103 189.85 136.078C189.679 135 189.105 134.026 188.244 133.355C186.58 132.276 184.573 133.887 184.028 135.507C183.977 135.61 183.829 136.027 183.753 136.208C183.589 136.013 183.364 135.711 183.24 135.598C181.748 134.187 179.517 133.497 178.312 135.169C177.574 136.174 177.733 137.607 178.785 139.431C180.339 142.067 183.191 145.186 186.064 146.206ZM179.433 135.979C179.518 135.847 179.636 135.74 179.775 135.668C179.914 135.596 180.07 135.561 180.226 135.566C181.116 135.684 181.928 136.137 182.496 136.831C182.868 137.302 183.33 137.898 183.97 137.814C184.795 137.721 185.043 136.636 185.304 136.027C185.427 135.657 185.631 135.319 185.9 135.038C186.169 134.756 186.497 134.537 186.861 134.398C187.73 134.183 188.346 135.467 188.511 136.323C188.938 138.59 186.839 142.109 185.898 144.634C183.439 143.224 181.399 141.187 179.986 138.73C179.233 137.453 179.042 136.501 179.433 135.979Z" fill="black"/>
<path d="M209.089 117.18L204.049 123.595C203.982 123.679 203.937 123.777 203.915 123.882C203.894 123.987 203.897 124.095 203.925 124.198L206.042 132.084C206.076 132.207 206.142 132.319 206.235 132.406C206.328 132.493 206.444 132.553 206.569 132.579C206.694 132.604 206.823 132.595 206.943 132.551C207.063 132.507 207.168 132.43 207.247 132.33L212.295 125.916C212.361 125.831 212.406 125.733 212.428 125.628C212.449 125.524 212.446 125.415 212.418 125.312L210.301 117.428C210.269 117.303 210.202 117.189 210.109 117.101C210.015 117.012 209.899 116.951 209.772 116.925C209.646 116.899 209.515 116.909 209.394 116.955C209.274 117 209.168 117.078 209.089 117.18ZM207.008 130.402L205.334 124.175L209.322 119.109L210.994 125.337L207.008 130.402Z" fill="black"/>
<path d="M231.339 95.4465C231.333 95.6385 231.26 95.8223 231.133 95.9662C230.965 96.2055 229.608 97.9119 229.453 98.0672C229.333 98.1406 229.239 98.2489 229.182 98.3776C229.126 98.5062 229.11 98.6491 229.138 98.7868C229.165 98.9246 229.234 99.0508 229.335 99.1483C229.436 99.2458 229.564 99.31 229.703 99.3322C231.548 99.8923 233.433 100.313 235.341 100.59C235.513 100.609 235.687 100.59 235.852 100.535C236.016 100.48 236.166 100.389 236.292 100.27C237.108 99.3955 236.017 98.147 235.389 96.8971C235.851 96.9529 236.319 96.912 236.764 96.7771C237.21 96.6421 237.622 96.4161 237.975 96.1134C238.806 95.4087 239.376 94.4449 239.592 93.3771C239.687 92.9061 239.617 92.4169 239.394 91.9911C238.972 91.2844 237.865 90.8017 237.332 90.3617C238.231 88.1865 237.829 86.0222 235.521 85.8476C232.412 85.6427 232.466 88.4312 232.083 89.9025C231.673 89.799 231.249 89.7595 230.827 89.7856C230.321 89.9054 229.86 90.1666 229.498 90.5387C229.136 90.9107 228.887 91.3783 228.781 91.8866C228.182 94.407 231.201 94.8621 231.339 95.4465ZM230.11 92.1767C230.158 91.9327 230.271 91.7065 230.438 91.5226C230.606 91.3388 230.82 91.2045 231.059 91.1345C231.125 91.1345 231.287 91.1661 231.436 91.1922C233.167 91.5126 233.285 91.0245 233.599 89.2906C233.874 87.7864 234.044 87.1167 235.414 87.2199C236.036 87.2666 236.196 87.5402 236.248 87.6324C236.371 88.03 236.41 88.4488 236.363 88.8623C236.315 89.2758 236.183 89.6749 235.973 90.0345C235.364 91.3476 237.856 92.097 238.192 92.647C238.261 92.7874 238.281 92.9463 238.25 93.0994C238.093 93.8629 237.686 94.5524 237.094 95.0587C236.847 95.2652 236.556 95.4124 236.243 95.4891C235.93 95.5658 235.604 95.5701 235.29 95.5015C235.073 95.4347 234.84 95.4368 234.624 95.5074C234.408 95.5781 234.22 95.7139 234.084 95.8961C233.502 96.8957 234.613 98.1731 235.099 99.2057C233.739 98.9749 232.395 98.6617 231.074 98.268C231.641 97.5805 232.248 96.7747 232.265 96.7555C232.445 96.5296 232.575 96.2677 232.647 95.9874C232.718 95.7071 232.728 95.4149 232.677 95.1302C232.497 94.3795 231.807 93.9931 231.198 93.6521C230.281 93.1351 229.948 92.878 230.11 92.1767Z" fill="black"/>
<path d="M70.1957 25.2715C70.3766 25.2472 70.5404 25.1521 70.6512 25.0071C70.7619 24.862 70.8105 24.6789 70.7863 24.498C70.762 24.3172 70.6669 24.1533 70.5218 24.0426C70.3768 23.9318 70.1937 23.8832 70.0128 23.9075C66.7963 24.6371 63.5411 25.1839 60.2627 25.5451C60.1713 25.5546 60.0828 25.5824 60.0023 25.6267C59.9218 25.671 59.851 25.731 59.7941 25.8032C59.7373 25.8753 59.6954 25.9581 59.6711 26.0467C59.6467 26.1353 59.6404 26.2279 59.6524 26.319C59.6645 26.4101 59.6946 26.4978 59.7412 26.577C59.7877 26.6563 59.8496 26.7254 59.9233 26.7802C59.997 26.8351 60.0809 26.8747 60.1701 26.8966C60.2594 26.9185 60.3521 26.9223 60.4428 26.9077C63.7215 26.5428 66.9774 25.9966 70.1957 25.2715Z" fill="black"/>
<path d="M64.3749 31.2988C62.8624 31.2988 60.7517 29.5539 59.4867 28.5075L59.2269 28.293C59.1571 28.2357 59.0767 28.1927 58.9903 28.1664C58.9038 28.1402 58.8131 28.1312 58.7232 28.14C58.6333 28.1488 58.5461 28.1752 58.4664 28.2178C58.3867 28.2603 58.3162 28.3181 58.2589 28.3879C58.2015 28.4577 58.1585 28.5381 58.1322 28.6245C58.106 28.7109 58.097 28.8017 58.1058 28.8916C58.1146 28.9815 58.1411 29.0687 58.1836 29.1484C58.2261 29.2281 58.2839 29.2986 58.3537 29.3559C59.9529 30.6718 62.2849 32.6738 64.3776 32.6738C64.4679 32.6736 64.5573 32.6556 64.6406 32.6209C64.7239 32.5862 64.7996 32.5354 64.8633 32.4715C64.9271 32.4075 64.9775 32.3316 65.0119 32.2481C65.0463 32.1646 65.0639 32.0752 65.0637 31.9849C65.0636 31.8946 65.0456 31.8053 65.0109 31.7219C64.9762 31.6386 64.9254 31.5629 64.8614 31.4992C64.7974 31.4355 64.7215 31.385 64.6381 31.3506C64.5546 31.3162 64.4651 31.2986 64.3749 31.2988Z" fill="black"/>
<path d="M105.824 53.0946C107.412 50.7475 105.399 47.8243 102.828 47.0804C102.632 47.0376 102.432 47.0224 102.232 47.035C102.158 46.9801 102.073 46.9407 101.983 46.9192C101.894 46.8977 101.8 46.8946 101.709 46.91C101.618 46.9254 101.531 46.959 101.453 47.0089C101.375 47.0587 101.308 47.1237 101.256 47.2C101.182 47.3174 101.138 47.4513 101.129 47.5898C101.119 47.7282 101.144 47.8669 101.201 47.9934C101.298 48.1422 101.435 48.2601 101.596 48.3332C101.758 48.4064 101.937 48.4316 102.113 48.4059C102.25 48.4059 102.414 48.3976 102.441 48.3935C104.237 48.96 105.674 50.8561 104.687 52.3164C104.065 53.2308 103.576 53.1043 102.598 52.8513C101.999 52.66 101.37 52.5789 100.742 52.612C99.7999 52.6945 99.1317 53.437 98.5652 53.6543C98.3594 53.7322 98.1383 53.761 97.9194 53.7382C97.7005 53.7154 97.49 53.6418 97.3047 53.5231C97.1194 53.4045 96.9644 53.2441 96.8521 53.0549C96.7398 52.8656 96.6734 52.6528 96.6581 52.4333C96.6447 52.2515 96.5597 52.0825 96.4217 51.9633C96.2838 51.8442 96.1042 51.7848 95.9224 51.798C94.5131 51.8984 95.5443 55.12 98.0702 55.12C98.7621 55.109 99.4305 54.867 99.9691 54.4325C100.721 53.932 100.859 53.8275 102.253 54.1891C102.879 54.4733 103.588 54.5188 104.245 54.3173C104.903 54.1157 105.464 53.6809 105.824 53.0946Z" fill="black"/>
<path d="M103.864 34.7012C103.886 34.8083 103.929 34.9099 103.991 35.0002C104.053 35.0904 104.132 35.1674 104.224 35.2268C104.316 35.2862 104.418 35.3267 104.526 35.346C104.634 35.3653 104.744 35.3629 104.851 35.3392C107.098 35.0542 109.374 35.5682 111.281 36.7912C111.432 36.8882 111.616 36.9218 111.793 36.8845C111.969 36.8473 112.124 36.7423 112.224 36.5921C112.323 36.4419 112.36 36.2586 112.326 36.0816C112.292 35.9046 112.189 35.7481 112.041 35.6458C110.453 34.5917 108.604 34 106.699 33.9367C105.899 33.8792 105.095 33.917 104.304 34.0494C104.232 34.0626 104.163 34.09 104.102 34.13C104.04 34.1701 103.988 34.222 103.947 34.2827C103.906 34.3434 103.877 34.4117 103.863 34.4836C103.849 34.5554 103.849 34.6294 103.864 34.7012Z" fill="black"/>
<path d="M85.2593 42.5228C84.3796 42.9385 83.5741 43.4959 82.8751 44.1728C82.1271 44.9222 81.8328 45.5052 81.9992 45.9094C82.0515 46.0428 82.1442 46.1565 82.2643 46.2346C82.3844 46.3128 82.5259 46.3514 82.669 46.3452C82.8122 46.339 82.9498 46.2882 83.0627 46.2C83.1755 46.1118 83.258 45.9905 83.2986 45.853C83.4361 45.6619 83.7757 45.2274 83.8403 45.1532C84.4304 44.5827 85.1105 44.1135 85.8533 43.7644C87.7783 42.8239 89.8738 43.1828 92.0656 44.8232C92.1378 44.8773 92.22 44.9168 92.3075 44.9392C92.3949 44.9616 92.4859 44.9665 92.5753 44.9538C92.6647 44.941 92.7507 44.9107 92.8284 44.8647C92.9061 44.8187 92.9739 44.7579 93.0281 44.6857C93.0823 44.6134 93.1217 44.5313 93.1441 44.4438C93.1665 44.3563 93.1714 44.2653 93.1587 44.1759C93.1459 44.0866 93.1157 44.0006 93.0697 43.9229C93.0237 43.8452 92.9628 43.7773 92.8906 43.7232C90.252 41.7459 87.6821 41.343 85.2593 42.5228Z" fill="black"/>
<path d="M110.843 45.4236C110.999 45.5179 111.186 45.5462 111.363 45.5024C111.54 45.4585 111.693 45.3461 111.787 45.1899C111.881 45.0336 111.91 44.8463 111.866 44.6691C111.822 44.492 111.71 44.3395 111.553 44.2452C110.792 43.7807 109.935 43.4953 109.047 43.4108C108.159 43.3262 107.263 43.4446 106.427 43.7571C106.408 43.7571 104.456 44.336 104.249 44.9946C104.191 45.1492 104.19 45.3196 104.247 45.4747C104.304 45.6298 104.415 45.7592 104.56 45.8392C104.704 45.9191 104.873 45.9444 105.035 45.9102C105.196 45.8761 105.34 45.7848 105.44 45.6532C105.748 45.4869 106.638 45.1349 106.862 45.0565C107.511 44.8177 108.205 44.7268 108.894 44.7903C109.582 44.8538 110.248 45.0702 110.843 45.4236Z" fill="black"/>
<path d="M100.125 66.0943C101.794 64.5578 103.058 62.6339 103.807 60.4925C103.851 60.3982 103.872 60.2952 103.87 60.1913C103.868 60.0874 103.843 59.9852 103.796 59.8926C103.748 59.7999 103.681 59.7192 103.598 59.6564C103.515 59.5936 103.419 59.5504 103.317 59.53C100.668 58.9897 97.1629 57.9392 95.0372 59.8147C93.1878 61.4647 95.0619 66.5975 97.4984 67.1022C97.9811 67.1161 98.4617 67.0342 98.9125 66.8612C99.3633 66.6882 99.7753 66.4276 100.125 66.0943ZM95.8251 62.9854C95.5652 62.0023 95.6147 61.1443 95.9474 60.8501C97.3829 59.5796 100.331 60.2808 102.201 60.7029C101.577 62.3753 100.554 63.8704 99.2227 65.0589C98.8064 65.4755 98.249 65.7208 97.6607 65.7464C97.1079 65.6254 96.2169 64.4635 95.8251 62.9854Z" fill="black"/>
<path d="M96.7027 67.7136C96.2108 67.8207 95.7037 67.8389 95.2054 67.7673C95.1159 67.7533 95.0246 67.7573 94.9368 67.7791C94.8489 67.8009 94.7663 67.8401 94.6938 67.8943C94.6213 67.9485 94.5604 68.0166 94.5146 68.0947C94.4688 68.1727 94.439 68.2592 94.4271 68.3489C94.4141 68.4383 94.4188 68.5294 94.441 68.6169C94.4631 68.7045 94.5024 68.7868 94.5564 68.8592C94.6104 68.9316 94.6781 68.9927 94.7558 69.0389C94.8334 69.0851 94.9193 69.1156 95.0087 69.1285C95.6695 69.2243 96.3421 69.2001 96.9942 69.057C97.1688 69.0149 97.32 68.9062 97.4155 68.754C97.5109 68.6019 97.543 68.4184 97.5049 68.2429C97.4669 68.0674 97.3616 67.9137 97.2117 67.8148C97.0618 67.7159 96.8791 67.6796 96.7027 67.7136Z" fill="black"/>
<path d="M80.4589 89.4251C80.8934 90.0796 80.7435 89.7111 81.2935 91.6883C81.3172 91.7765 81.3581 91.8591 81.4141 91.9312C81.47 92.0034 81.5397 92.0637 81.6192 92.1086C81.6987 92.1535 81.7863 92.1822 81.877 92.1929C81.9676 92.2036 82.0595 92.1961 82.1473 92.1709C82.235 92.1457 82.3169 92.1033 82.388 92.0461C82.4592 91.9889 82.5183 91.9182 82.5618 91.8379C82.6053 91.7577 82.6324 91.6695 82.6415 91.5787C82.6507 91.4879 82.6416 91.3961 82.6149 91.3088C82.4757 90.3508 82.1228 89.4363 81.5822 88.6331C81.5194 88.5342 81.4327 88.4526 81.3301 88.3959C81.2275 88.3392 81.1123 88.3092 80.9951 88.3086C80.8658 88.3088 80.7391 88.3455 80.6296 88.4144C80.5202 88.4834 80.4324 88.5818 80.3764 88.6984C80.3204 88.8151 80.2984 88.9451 80.313 89.0736C80.3276 89.2022 80.3781 89.324 80.4589 89.4251Z" fill="black"/>
<path d="M74.299 91.321C74.5217 91.321 74.607 91.2591 74.9274 91.2261C76.5408 91.3038 78.1448 91.5182 79.722 91.8669C79.8968 91.8979 80.0768 91.8601 80.2244 91.7613C80.3719 91.6626 80.4755 91.5106 80.5136 91.3372C80.5516 91.1638 80.5211 90.9824 80.4284 90.831C80.3357 90.6796 80.188 90.5699 80.0162 90.5249C78.1332 90.0613 76.194 89.8669 74.2564 89.9474C74.1661 89.9502 74.0772 89.9708 73.9949 90.0079C73.9125 90.045 73.8383 90.098 73.7765 90.1638C73.6515 90.2968 73.5845 90.4739 73.5902 90.6562C73.593 90.7465 73.6135 90.8353 73.6507 90.9177C73.6878 91 73.7408 91.0742 73.8066 91.1361C73.9395 91.261 74.1166 91.3267 74.299 91.321Z" fill="black"/>
<path d="M90.2436 91.1949C90.5585 91.1949 91.6791 90.7068 94.5845 90.1609C94.7572 90.1209 94.9077 90.0157 95.0047 89.8673C95.1016 89.7189 95.1375 89.5388 95.1049 89.3646C95.0723 89.1904 94.9736 89.0355 94.8295 88.9323C94.6854 88.8291 94.507 88.7855 94.3315 88.8107C92.8862 89.0816 91.456 89.4281 90.047 89.8488C89.8889 89.8961 89.7531 89.9988 89.6644 90.1379C89.5757 90.2771 89.54 90.4435 89.5639 90.6068C89.5877 90.7701 89.6695 90.9194 89.7943 91.0274C89.9191 91.1353 90.0786 91.1948 90.2436 91.1949Z" fill="black"/>
<path d="M105.93 108.593C105.854 108.546 105.768 108.513 105.679 108.499C105.59 108.484 105.499 108.487 105.411 108.507C105.323 108.528 105.24 108.565 105.167 108.618C105.093 108.67 105.031 108.737 104.983 108.813C102.09 113.025 98.7997 116.95 95.1573 120.534C95.0924 120.599 95.0413 120.676 95.0069 120.762C94.9726 120.847 94.9556 120.938 94.9571 121.03C94.9586 121.122 94.9785 121.213 95.0157 121.297C95.0528 121.381 95.1065 121.457 95.1734 121.52C95.2403 121.583 95.3192 121.631 95.4054 121.663C95.4916 121.695 95.5833 121.71 95.6751 121.706C95.7669 121.702 95.857 121.679 95.94 121.64C96.023 121.6 96.0972 121.544 96.1583 121.476C99.8627 117.826 103.209 113.829 106.15 109.541C106.198 109.464 106.23 109.379 106.245 109.29C106.26 109.201 106.257 109.109 106.237 109.021C106.216 108.933 106.179 108.85 106.126 108.777C106.074 108.703 106.007 108.641 105.93 108.593Z" fill="black"/>
<path d="M104.879 114.566C104.18 114.605 103.945 115.455 103.746 115.683C102.746 116.826 99.7485 119.881 97.1924 122.195C97.0893 122.288 97.0169 122.41 96.9846 122.545C96.9524 122.68 96.9618 122.822 97.0116 122.952C97.0615 123.081 97.1495 123.193 97.264 123.272C97.3785 123.35 97.5141 123.392 97.6531 123.393C97.8236 123.393 97.988 123.329 98.1137 123.214C100.164 121.36 102.91 118.657 104.76 116.614C104.918 116.423 105.052 116.215 105.162 115.994C105.27 115.968 105.37 115.917 105.454 115.844C105.538 115.771 105.603 115.679 105.643 115.576C105.684 115.472 105.699 115.361 105.687 115.25C105.675 115.14 105.636 115.034 105.574 114.942C105.492 114.834 105.387 114.744 105.267 114.679C105.147 114.615 105.015 114.576 104.879 114.566Z" fill="black"/>
<path d="M36.8274 179.392C40.7434 180.827 43.4343 179.645 47.0492 176.973C47.0643 176.961 48.7129 175.705 48.7336 175.004C48.7339 174.817 48.6633 174.637 48.5359 174.5C48.4085 174.364 48.234 174.28 48.0476 174.268C47.8611 174.255 47.6768 174.313 47.5318 174.431C47.3867 174.549 47.2919 174.717 47.2664 174.902C46.9426 175.246 46.5962 175.567 46.2297 175.865C42.0195 178.977 39.9198 179.059 37.3004 178.098C33.5879 176.741 32.6117 174.064 31.3687 170.673C29.7544 166.265 29.2993 165.754 27.6163 163.788C26.6474 162.784 25.8684 161.613 25.3173 160.331C24.6504 158.179 24.3006 155.941 24.2792 153.688C23.9093 147.471 23.5917 146.093 24.6917 133.251C25.5648 122.98 25.6542 121.723 24.4167 112.466C23.6714 108.093 23.4076 103.652 23.6302 99.221C24.2531 92.2608 28.8854 86.296 36.0217 83.271C36.1896 83.1999 36.3224 83.065 36.3909 82.8959C36.4594 82.7269 36.4579 82.5376 36.3868 82.3697C36.3156 82.2018 36.1807 82.0689 36.0117 82.0005C35.8427 81.932 35.6534 81.9335 35.4854 82.0046C27.8734 85.2318 22.9289 91.6228 22.2607 99.0972C22.0271 103.629 22.2931 108.172 23.0541 112.645C24.2682 121.792 24.1816 122.975 23.3194 133.133C22.2401 145.851 22.5467 147.741 22.9069 153.769C22.9316 156.159 23.3101 158.533 24.0303 160.813C24.6352 162.246 25.4963 163.557 26.5713 164.682C28.1883 166.568 28.5678 167.02 30.0776 171.145C31.3343 174.578 32.5209 177.815 36.8274 179.392Z" fill="black"/>
<path d="M55.9913 75.9831C55.9197 77.2893 56.059 78.5986 56.4038 79.8606C57.8655 86.6998 61.3098 93.7371 64.6896 99.7816C66.1126 102.556 67.8323 105.168 69.8183 107.572C70.288 108.164 70.8906 108.636 71.5773 108.951C72.264 109.266 73.0153 109.414 73.7701 109.383C77.6201 108.994 80.4113 102.864 82.4092 100.007C82.8836 99.3292 84.0867 97.3024 84.9653 97.2034C85.5373 97.2034 86.2152 98.1659 86.9137 99.2494C88.3918 101.529 90.8517 107.748 93.8822 107.748C95.3095 107.748 96.2403 106.461 96.8687 105.17C97.6009 102.91 97.873 100.525 97.669 98.1577C98.2499 97.9682 98.7552 97.5982 99.1113 97.1017C99.6915 95.9744 100 94.7271 100.013 93.4593C100.033 92.6891 100.154 91.9249 100.374 91.1864C101.017 89.3687 103.379 85.5806 101.736 82.9873C100.517 81.0417 98.0058 80.9014 94.6151 82.5569C94.4391 81.3896 93.9154 80.3023 93.1122 79.4371C93.0187 79.3381 92.8139 79.1992 91.5049 78.2243C92.1957 76.6474 92.9761 75.1113 93.8423 73.6236C93.9922 73.3651 94.127 72.1977 93.3803 72.0506C90.8319 71.5467 88.3172 70.8849 85.8508 70.0692C85.6785 70.0145 85.4916 70.0299 85.3306 70.112C85.1696 70.1941 85.0473 70.3363 84.9904 70.5079C84.9334 70.6795 84.9464 70.8666 85.0263 71.0287C85.1063 71.1908 85.2469 71.3149 85.4177 71.3741C87.7273 72.1387 90.0787 72.7704 92.4605 73.2661C90.5939 76.6017 89.0814 80.1234 87.9477 83.7738C87.9085 83.9074 87.9107 84.0497 87.9541 84.1819C87.9975 84.3142 88.08 84.4301 88.1907 84.5145C88.3015 84.5988 88.4352 84.6476 88.5742 84.6543C88.7132 84.661 88.851 84.6254 88.9693 84.5521C89.1444 85.0449 89.2078 85.5704 89.155 86.0907C89.1192 86.3973 89.2842 86.1333 88.8703 86.5513C87.923 87.3928 88.2131 87.4093 87.989 87.2663C87.0542 86.7492 85.9675 86.5769 84.9186 86.7796C84.3591 86.8419 83.8089 86.9702 83.2796 87.1618C80.795 85.3537 77.5417 82.1692 74.0946 81.0747C74.0066 80.3226 72.0032 79.3944 69.2133 71.8017C69.4306 71.1376 69.685 70.3387 69.927 69.5027C71.191 71.4309 72.8964 73.0302 74.9017 74.1681C76.0252 75.0259 77.3934 75.5023 78.8067 75.5279C80.1565 75.4355 81.4201 74.831 82.3391 73.8381C82.9922 73.1189 83.1916 72.7463 83.127 72.3572C83.1044 72.2486 83.0604 72.1457 82.9976 72.0543C82.9348 71.963 82.8545 71.885 82.7612 71.8251C82.1988 71.4964 81.4247 71.7123 80.2175 72.1001C79.8754 72.226 79.5236 72.3234 79.1656 72.3916C76.7923 72.3916 75.3527 69.9702 75.1781 67.6657C74.7491 62.0777 82.2813 59.8007 82.137 53.8401C82.0173 49.1444 77.6558 45.6712 78.6362 41.2506C79.3638 38.9211 80.8326 36.8932 82.819 35.4756C85.5781 34.3861 88.5668 34.0078 91.5103 34.3756C91.6916 34.3975 91.8741 34.3464 92.0177 34.2338C92.1614 34.1211 92.2543 33.9559 92.2762 33.7747C92.2981 33.5935 92.2471 33.4109 92.1344 33.2673C92.0217 33.1237 91.8566 33.0307 91.6754 33.0088C89.4089 32.7329 87.1115 32.8609 84.8897 33.3869C89.3983 29.537 94.193 26.4212 97.9907 20.7576C98.7952 19.6156 99.3568 18.3207 99.6407 16.953C99.6461 16.8627 99.6337 16.7722 99.6042 16.6867C99.5746 16.6012 99.5285 16.5224 99.4685 16.4547C99.4085 16.3871 99.3358 16.3319 99.2544 16.2923C99.1731 16.2528 99.0848 16.2296 98.9945 16.2242C98.9042 16.2188 98.8137 16.2312 98.7282 16.2607C98.6428 16.2903 98.5639 16.3364 98.4963 16.3964C98.4286 16.4564 98.3734 16.5292 98.3338 16.6105C98.2943 16.6918 98.2711 16.7802 98.2657 16.8705C98.1063 17.61 97.8277 18.3187 97.4407 18.9687C92.8592 27.6807 78.9456 33.5506 77.2887 40.9618C76.1667 46.0205 80.6478 49.5666 80.7565 53.8868C80.883 59.0871 73.315 61.4397 73.8017 67.7853C74.0368 70.7814 76.0223 73.8023 79.1807 73.7789C79.7514 73.7078 80.3109 73.5651 80.8458 73.3541C80.2525 73.8191 79.5349 74.0984 78.7833 74.1571C77.6492 74.1195 76.5561 73.7238 75.6607 73.0268C74.2597 72.2798 73.0212 71.2619 72.0171 70.032C71.0129 68.8022 70.2632 67.3851 69.8115 65.8631C69.6142 64.8601 69.6287 63.8269 69.8541 62.8298C70.5223 60.0344 71.6663 57.8537 71.984 56.5392C73.1568 51.7267 72.6426 43.3144 70.092 39.5442C69.9875 39.3989 69.8306 39.3 69.6544 39.2686C69.4782 39.2372 69.2968 39.2757 69.1486 39.376C69.0003 39.4762 68.8971 39.6303 68.8606 39.8055C68.8242 39.9807 68.8575 40.1632 68.9535 40.3142C70.2541 42.7158 70.9883 45.383 71.0998 48.1118C68.9232 44.5712 65.6658 44.6303 63.8508 47.0682C60.3157 51.8436 64.7748 58.2442 70.301 57.2556C69.6626 58.7655 69.1225 60.3152 68.684 61.8948C67.1199 61.6369 65.5846 61.2275 64.0997 60.6724C56.7737 57.3931 51.0881 48.2796 50.0225 41.9848C49.1975 37.1297 51.5061 34.0318 54.0801 30.4623C55.7643 28.2465 57.2236 25.8684 58.4361 23.3632C59.4635 21.1069 60.8061 19.0078 62.4236 17.129C68.9713 9.76308 81.5031 5.9447 90.6798 8.18595C94.3007 9.02009 97.6984 10.627 100.64 12.8967C101.303 13.4144 101.858 14.0566 102.274 14.7873C102.597 15.391 102.726 16.3933 103.52 16.9873C103.592 17.0415 103.674 17.0809 103.761 17.1033C103.849 17.1257 103.94 17.1307 104.029 17.1179C104.119 17.1051 104.205 17.0749 104.282 17.0289C104.36 16.9829 104.428 16.9221 104.482 16.8498C104.536 16.7776 104.576 16.6954 104.598 16.608C104.62 16.5205 104.625 16.4295 104.613 16.3401C104.6 16.2507 104.57 16.1647 104.524 16.087C104.478 16.0094 104.417 15.9415 104.345 15.8873C103.98 15.6123 103.806 14.7337 103.476 14.115C102.969 13.2246 102.293 12.4422 101.486 11.8118C98.3876 9.42116 94.8094 7.72797 90.9961 6.84808C81.3862 4.50233 68.2632 8.49808 61.3896 16.2146C59.6951 18.1792 58.2882 20.3746 57.211 22.7348C56.03 25.1762 54.6076 27.4931 52.965 29.6511C50.3236 33.3072 47.839 36.7598 48.6736 42.2131C50.0252 49.4552 55.9515 58.5274 63.5855 61.9429C65.1451 62.5254 66.7565 62.9586 68.398 63.2368C68.3005 63.952 68.288 64.6761 68.3608 65.3942C67.4541 65.5267 66.576 65.8107 65.7635 66.2343C64.4357 67.1264 63.3927 68.3818 62.7591 69.8506C61.7966 71.6381 61.7746 71.8141 59.7341 72.4012C58.4646 72.6056 57.3245 73.296 56.5551 74.3262C56.5111 74.3358 44.2241 78.9324 44.0068 79.0012C43.8994 79.0184 43.7975 79.0608 43.7096 79.125C43.6217 79.1892 43.5503 79.2734 43.5013 79.3706C43.4523 79.4678 43.4271 79.5752 43.4277 79.6841C43.4284 79.7929 43.4548 79.9001 43.505 79.9967C43.9037 80.7777 43.384 80.7021 55.9913 75.9831ZM65.0086 53.8222C62.5955 50.5951 64.8216 46.6956 67.034 46.7011C68.8875 46.741 70.059 48.8089 70.7836 50.5194C71.0586 51.1712 71.0132 51.2303 71.1136 51.4242C71.0969 51.5752 71.1308 51.7276 71.2098 51.8573C71.1864 53.1549 71.0363 54.4472 70.7616 55.7156C69.7261 56.0551 68.6092 56.0544 67.5741 55.7138C66.539 55.3731 65.64 54.7103 65.0086 53.8222ZM95.6835 104.432C95.4841 104.844 94.7801 106.373 93.8754 106.373C91.7551 106.373 89.1178 99.7348 87.252 97.3052C87.7175 97.2091 88.1592 97.0214 88.5516 96.753C88.9439 96.4846 89.2789 96.1409 89.5372 95.7418C91.5781 97.0722 93.8842 97.9421 96.2953 98.2911C96.4509 100.358 96.2439 102.436 95.6835 104.432ZM92.1154 80.3803C92.8313 81.1751 93.2531 82.1914 93.3102 83.2596C92.3365 83.825 91.4033 84.4577 90.5176 85.1529C90.4292 84.5715 90.2684 84.0033 90.0391 83.4617C89.9221 83.1958 89.83 82.9196 89.7641 82.6367C90.0955 81.6742 90.5039 80.6017 90.9507 79.5237C91.0539 79.6007 92.0796 80.3583 92.1154 80.3803ZM100.576 83.7202C101.298 84.8587 100.819 86.4881 100.259 87.9222C99.3125 89.6136 98.7572 91.4959 98.6342 93.4304C98.6264 94.4457 98.3915 95.4464 97.9467 96.3592C96.6528 98.0559 91.8087 95.4586 89.991 94.4191C89.9244 92.6579 89.6385 90.9119 89.1399 89.2216C89.1069 88.9894 89.0483 88.7616 88.9652 88.5423C89.0291 88.4665 89.076 88.3779 89.1027 88.2824C91.2519 85.7126 98.7154 80.7557 100.576 83.7202ZM82.8148 88.5176C82.9407 88.6049 83.0921 88.6478 83.245 88.6393C83.398 88.6309 83.5437 88.5716 83.6591 88.4708C83.8277 88.4867 83.9959 88.4375 84.1293 88.3333C84.4603 88.2458 84.7971 88.1819 85.1372 88.1422C85.8684 87.9916 86.6291 88.1016 87.2877 88.4529C87.5663 88.7127 87.7433 89.0632 87.7868 89.4416C88.0013 90.6791 88.8965 93.3906 88.5568 94.6666C88.4068 95.0189 88.1651 95.3247 87.857 95.5521C87.0471 96.2011 86.6965 95.9921 85.9705 95.2839C85.2445 94.5758 84.2558 93.4648 82.764 93.9543C79.0515 95.1643 73.689 98.8727 71.5371 97.8194C70.5045 97.3107 70.5251 95.3224 70.3821 94.1234C69.8073 89.0538 66.66 84.1753 69.3673 82.6821C73.8925 80.1631 79.167 85.9848 82.8148 88.5176ZM60.1026 73.7184C62.6463 72.9869 62.8828 72.4809 63.9526 70.4996C64.4715 69.2686 65.3227 68.2065 66.4111 67.4319C67.0974 67.0789 67.8392 66.8463 68.6042 66.7444C68.7024 67.1 68.8241 67.4487 68.9686 67.7881C68.8311 68.3133 68.6936 68.8427 68.5355 69.3542C68.5272 69.2937 68.5162 69.2332 68.5093 69.1727C68.4849 68.9918 68.3896 68.8281 68.2445 68.7174C68.0993 68.6068 67.9161 68.5584 67.7352 68.5828C67.5543 68.6073 67.3906 68.7025 67.28 68.8477C67.1693 68.9929 67.1209 69.1761 67.1453 69.3569C67.3862 70.8484 67.8332 72.2992 68.4736 73.6676C69.3689 76.1759 70.6191 78.543 72.1861 80.6966C70.9694 80.6162 69.7554 80.8883 68.6895 81.4803C64.7817 83.6377 68.4255 89.1803 69.0057 94.2843C69.1886 95.8422 69.1611 98.188 70.9211 99.0556C73.9296 100.52 79.222 96.5531 83.1792 95.2619C83.6618 95.1079 84.0042 95.3197 84.5886 95.8697C83.3208 96.1213 82.2648 97.7259 81.5512 98.7971C80.8843 99.7981 80.9228 99.6991 79.9136 101.349C78.254 104.062 75.9825 107.779 73.6147 108.019C73.0726 108.029 72.5359 107.909 72.0493 107.67C71.5627 107.431 71.1401 107.079 70.8166 106.644C68.9043 104.317 67.2472 101.791 65.8735 99.1106C62.5735 93.1981 59.1731 86.2873 57.7321 79.5732C57.2802 78.1777 57.2278 76.6836 57.5808 75.2598C58.0621 74.3042 59.0067 74.0319 60.1026 73.7184Z" fill="black"/>
<path d="M139.765 145.63C137.465 149.852 134.697 153.802 131.515 157.406C130.363 158.797 129.702 159.23 130.198 159.837C130.28 159.928 130.384 159.998 130.5 160.039C130.617 160.079 130.741 160.09 130.863 160.07C130.984 160.05 131.098 159.999 131.195 159.923C131.291 159.846 131.367 159.747 131.415 159.633C131.649 159.373 132.449 158.434 132.57 158.287C135.813 154.611 138.632 150.582 140.975 146.276C141.061 146.115 141.079 145.927 141.026 145.753C141 145.666 140.957 145.586 140.899 145.516C140.842 145.446 140.771 145.389 140.691 145.346C140.53 145.261 140.342 145.242 140.168 145.296C139.993 145.349 139.847 145.469 139.761 145.63H139.765Z" fill="black"/>
<path d="M34.8463 165.339C35.0219 165.387 35.2095 165.364 35.3681 165.274C35.5267 165.185 35.6431 165.036 35.6919 164.86C36.8568 160.546 38.3564 156.328 40.1772 152.247C40.3428 152.004 40.5267 151.775 40.7272 151.56C41.2345 150.977 41.6003 150.556 41.2565 150.054C41.1425 149.926 40.9935 149.834 40.8279 149.789C40.6623 149.745 40.4873 149.749 40.3243 149.802C40.1921 149.851 40.078 149.939 39.9974 150.054C39.9167 150.169 39.8734 150.307 39.8733 150.447C39.5289 150.808 39.2204 151.201 38.952 151.622C37.0901 155.785 35.5591 160.088 34.3733 164.492C34.3241 164.667 34.3463 164.854 34.4349 165.013C34.5236 165.171 34.6715 165.289 34.8463 165.339Z" fill="black"/>
<path d="M81.2478 162.37C81.3924 162.37 81.5334 162.324 81.6506 162.239C86.3792 158.822 91.0006 155.135 95.3759 151.278C97.0575 149.793 99.5435 148.13 100.842 146.082C100.894 146.006 100.93 145.92 100.949 145.829C100.967 145.738 100.967 145.645 100.949 145.554C100.93 145.464 100.894 145.378 100.841 145.302C100.789 145.225 100.721 145.161 100.643 145.111C100.565 145.062 100.478 145.028 100.387 145.013C100.295 144.998 100.202 145.002 100.112 145.024C100.022 145.046 99.9379 145.086 99.8638 145.141C99.7897 145.196 99.7275 145.266 99.681 145.346C98.5178 147.178 96.1569 148.752 94.467 150.247C90.103 154.089 85.557 157.719 80.8449 161.126C80.7272 161.211 80.6396 161.331 80.5945 161.469C80.5494 161.607 80.5492 161.756 80.594 161.894C80.6387 162.032 80.7261 162.153 80.8435 162.238C80.961 162.324 81.1025 162.37 81.2478 162.37Z" fill="black"/>
<path d="M80.3228 171.695C80.4497 171.825 80.6234 171.901 80.8057 171.903C80.988 171.906 81.164 171.837 81.2949 171.71C84.7984 168.315 88.2634 164.641 91.8906 160.476C93.4334 158.699 95.0215 155.716 96.8241 154.504C96.9755 154.403 97.0802 154.245 97.1153 154.066C97.1503 153.887 97.1129 153.701 97.0111 153.55C96.9608 153.475 96.8961 153.411 96.8209 153.361C96.7457 153.311 96.6613 153.276 96.5727 153.259C96.3938 153.224 96.2082 153.261 96.0569 153.363C93.9628 154.771 92.3801 157.817 90.8539 159.574C87.2528 163.709 83.8125 167.355 80.3379 170.722C80.207 170.849 80.1318 171.023 80.129 171.205C80.1262 171.388 80.1959 171.564 80.3228 171.695Z" fill="black"/>
</svg>
