<svg width="24" height="24" viewBox="0 0 24 24" fill="none" xmlns="http://www.w3.org/2000/svg">
<g id="academic cap 24 px">
<path id="Icon" d="M5.00013 11V16.6812C5.00013 17.4813 5.47692 18.2044 6.21229 18.5195L11.2123 20.6624C11.7154 20.878 12.2849 20.878 12.788 20.6624L17.788 18.5195C18.5233 18.2044 19.0001 17.4813 19.0001 16.6812V11M22.0001 9.00002V14M1.89456 8.0528L11.1057 3.44723C11.6688 3.1657 12.3315 3.1657 12.8946 3.44723L22.1057 8.0528C22.4742 8.23706 22.4742 8.76297 22.1057 8.94723L12.8946 13.5528C12.3315 13.8343 11.6688 13.8343 11.1057 13.5528L1.89456 8.94723C1.52603 8.76297 1.52603 8.23706 1.89456 8.0528Z" stroke="#7F807E" stroke-width="1.5" stroke-linecap="round"/>
</g>
</svg>
