<svg width="24" height="24" viewBox="0 0 24 24" fill="none" xmlns="http://www.w3.org/2000/svg">
<path d="M4.99915 11V16.6812C4.99915 17.4813 5.47595 18.2044 6.21131 18.5195L11.2113 20.6624C11.7144 20.878 12.2839 20.878 12.787 20.6624L17.787 18.5195C18.5224 18.2044 18.9992 17.4813 18.9992 16.6812V11M21.9992 9.00002V14M1.89358 8.0528L11.1047 3.44723C11.6678 3.1657 12.3305 3.1657 12.8936 3.44723L22.1047 8.0528C22.4733 8.23706 22.4733 8.76297 22.1047 8.94723L12.8936 13.5528C12.3305 13.8343 11.6678 13.8343 11.1047 13.5528L1.89358 8.94723C1.52506 8.76297 1.52506 8.23706 1.89358 8.0528Z"  stroke-linecap="round"/>
</svg>
