<svg width="16" height="17" viewBox="0 0 16 17" fill="none" xmlns="http://www.w3.org/2000/svg">
<g id="instagram 16  px">
<g id="Group">
<path id="Vector" d="M7.99967 11.1667C8.70692 11.1667 9.3852 10.8858 9.88529 10.3857C10.3854 9.88556 10.6663 9.20728 10.6663 8.50004C10.6663 7.7928 10.3854 7.11452 9.88529 6.61442C9.3852 6.11433 8.70692 5.83337 7.99967 5.83337C7.29243 5.83337 6.61415 6.11433 6.11406 6.61442C5.61396 7.11452 5.33301 7.7928 5.33301 8.50004C5.33301 9.20728 5.61396 9.88556 6.11406 10.3857C6.61415 10.8858 7.29243 11.1667 7.99967 11.1667Z"  stroke-linecap="round" stroke-linejoin="round"/>
<path id="Vector_2" d="M2 11.1667V5.83333C2 4.94928 2.35119 4.10143 2.97631 3.47631C3.60143 2.85119 4.44928 2.5 5.33333 2.5H10.6667C11.5507 2.5 12.3986 2.85119 13.0237 3.47631C13.6488 4.10143 14 4.94928 14 5.83333V11.1667C14 12.0507 13.6488 12.8986 13.0237 13.5237C12.3986 14.1488 11.5507 14.5 10.6667 14.5H5.33333C4.44928 14.5 3.60143 14.1488 2.97631 13.5237C2.35119 12.8986 2 12.0507 2 11.1667Z" />
<path id="Vector_3" d="M11.667 4.83998L11.6737 4.83264" stroke-linecap="round" stroke-linejoin="round"/>
</g>
</g>
</svg>
