<svg width="325" height="400" viewBox="0 0 325 400" fill="none" xmlns="http://www.w3.org/2000/svg">
<path d="M90.8662 269.848L97.6912 290.176L106.616 285.598L97.3552 266.383C97.3552 266.383 91.3072 269.512 90.8662 269.848Z" fill="#8DE3A7"/>
<path d="M135.046 212.183C146.503 208.949 157.589 204.522 168.121 198.974L220.243 207.164C220.243 207.164 229.777 212.687 230.932 212.855C234.195 212.589 237.461 213.322 240.298 214.955C244.141 217.622 251.827 217.622 253.822 217.958C256.703 218.889 259.455 220.18 262.012 221.801C264.007 222.977 272.869 225.812 274.381 226.82C275.893 227.828 279.379 228.92 280.219 233.12C281.393 238.281 282.096 243.539 282.319 248.828C282.151 252.671 281.164 263.024 279.652 267.035C278.14 271.046 271.63 291.92 271.252 294.335C270.874 296.75 270.097 313.046 269.152 316.406C268.207 319.766 263.65 337.406 262.852 340.619C262.054 343.832 256.006 359.834 254.998 362.669C253.99 365.504 252.478 370.691 252.898 372.854C253.505 375.197 253.676 377.631 253.402 380.036C253.066 382.724 255.25 395.912 254.578 396.836C253.906 397.76 230.512 398.831 222.343 396.332C214.174 393.833 181.582 397.34 168.373 396.668C155.164 395.996 120.262 395.66 115.264 394.568C110.266 393.476 104.071 393.245 107.074 389.906C110.077 386.567 110.413 381.884 110.581 377.306C111.021 373.168 111.858 369.082 113.08 365.105L102.58 293.18L117.994 261.68L135.046 212.183Z" fill="#BED4FC"/>
<path d="M280.051 191.601C282.676 193.449 282.34 193.05 280.051 193.344C277.762 193.638 276.565 193.722 276.292 195.213C276.068 196.427 275.723 197.616 275.263 198.762C275.155 198.682 275.057 198.591 274.969 198.489C270.769 192.315 274.024 193.911 266.317 193.281C264.784 193.281 269.005 191.853 270.244 189.081C270.706 188.052 268.543 184.209 269.761 184.881C273.457 186.834 272.26 186.12 272.722 186.393C274.108 187.254 278.224 183.873 279.799 183.411C280.282 186.813 276.397 188.913 280.051 191.601Z" fill="#FFEB8D"/>
<path d="M311.132 126.502C312.161 126.88 309.032 127.783 307.751 128.749C305.651 130.303 307.625 131.605 307.457 133.789C305.819 133.096 303.971 129.589 301.535 129.589C297.146 131.059 296.873 131.689 296.096 131.689C296.348 130.114 300.044 126.922 297.944 125.221C297.125 124.591 295.088 121.588 296.117 121.819C300.191 122.764 300.17 122.953 300.947 122.407C305.042 119.593 305.147 115.267 305.903 121.189C306.554 126.502 305.231 124.402 311.132 126.502Z" fill="#FFEB8D"/>
<path d="M306.033 57.3249C305.928 57.4719 305.844 57.6609 305.697 57.7239C300.405 60.4539 300.048 60.1179 300.363 61.9239C301.161 66.9009 300.972 66.1239 300.846 66.9849C295.239 61.9029 297.465 62.5539 296.646 62.4069C295.092 62.1759 292.194 63.9189 289.401 64.5069C288.435 64.5069 288.813 64.2969 291.228 60.3069C293.895 55.9599 280.917 50.8149 292.173 54.0069C294.273 54.6159 293.895 54.3219 297.717 49.1769C298.935 47.5179 298.158 55.0149 300.993 55.2669C301.98 55.2669 303.345 56.4429 305.592 56.9469C305.757 57.05 305.906 57.1774 306.033 57.3249Z" fill="#FFEB8D"/>
<path d="M88.8101 148.762C99.4781 146.368 88.8102 149.728 91.1832 153.718C93.1362 157.162 93.9342 156.847 90.1332 156.007C85.7232 155.02 87.7182 154.726 83.1402 159.367C82.5942 159.934 83.2451 157.624 83.4131 155.44C83.6021 152.836 78.5621 151.996 77.8271 150.631C78.1841 150.631 77.5541 150.631 80.7881 150.316C84.7781 149.98 82.8882 147.733 84.6312 144.163C86.0592 145.402 87.5291 149.035 88.8101 148.762Z" fill="#FFEB8D"/>
<path d="M110.264 101.556C110.789 102.438 108.164 101.556 104.447 100.17C102.347 99.3928 102.83 97.8178 97.8736 104.748C95.9626 107.457 98.7556 98.7838 95.5846 97.6078C88.4026 94.9198 88.4026 95.5078 96.2986 92.6518C98.0206 92.0218 97.2016 88.2628 98.3986 85.0288C105.896 92.0428 99.5746 91.4548 110.537 88.9348C108.92 93.2608 105.56 94.4998 107.492 96.7468C108.564 98.2594 109.492 99.8695 110.264 101.556Z" fill="#FFEB8D"/>
<path d="M167.535 224.805C168.522 229.467 169.488 230.013 168.396 229.845C158.883 228.354 149.601 218.946 147.69 211.05C147.333 209.559 147.081 209.706 148.677 209.16C153.36 207.501 155.775 205.716 155.187 206.766C154.011 208.866 154.851 211.575 154.704 212.541C154.158 216.174 156.678 219.24 160.311 221.172C160.794 221.424 160.626 221.382 163.839 221.592C165.939 221.088 166.212 220.878 166.464 221.592C166.934 222.622 167.293 223.699 167.535 224.805Z" fill="#E7BCA5"/>
<path d="M242.376 64.9318C248.13 67.3468 249.747 67.7248 245.862 68.6908C243.426 68.1028 243.132 68.0608 241.662 65.0788C241.515 64.7008 241.977 64.7638 242.376 64.9318Z" fill="#D8E9FF"/>
<path d="M253.887 64.0059C254.244 64.0059 254.223 64.2579 254.076 64.4469C253.215 65.6019 252.228 67.3029 250.611 66.2739C246.411 63.5649 238.221 62.3259 240.468 58.8189C241.392 57.3909 240.636 59.0289 245.424 61.0869C250.611 63.3129 252.48 64.1739 253.887 64.0059Z" fill="#D8E9FF"/>
<path d="M255.611 59.4682C256.892 59.5942 255.317 61.8832 253.28 61.8412C249.899 60.6652 239.714 56.9272 242.528 54.7012C242.864 54.4492 242.696 53.7352 243.179 53.7772C244.019 53.7772 242.906 54.6592 248.471 56.8852C254.036 59.1112 254.519 59.3002 255.611 59.4682Z" fill="#D8E9FF"/>
<path d="M245.083 49.2852C256.213 57.6852 260.623 53.3592 257.263 57.2652C256.633 58.0002 254.197 56.7612 253.273 56.4252C248.779 54.7662 241.282 52.3722 245.083 49.2852Z" fill="#D8E9FF"/>
<path d="M274.528 34.357C275.179 34.546 274.696 36.079 274.108 35.764C271.882 34.63 273.751 34.105 274.528 34.357Z" fill="#FFEB8D"/>
<path d="M252.334 28.6004C251.179 29.5454 250.654 27.7184 251.41 27.5084C251.662 27.4454 252.103 28.2434 252.334 28.6004Z" fill="#FFEB8D"/>
<path d="M260.249 11.4232C286.268 11.2762 291.875 45.5062 264.827 48.5932C261.299 49.0132 260.627 48.0052 259.535 49.4122C257.561 52.2052 258.842 53.4652 257.225 53.0452C253.924 52.2018 250.777 50.841 247.901 49.0132C245.234 47.3962 250.001 46.9132 248.615 43.9102C247.229 40.9072 247.166 43.1962 244.982 39.7102C234.881 23.6032 249.203 10.8142 260.249 11.4232ZM273.227 38.1772C274.55 41.4532 278.666 33.7042 275.495 32.6752C272.324 31.6462 271.484 33.8722 270.98 33.7462C266.108 32.6542 269.132 33.2842 266.318 31.8352C265.016 31.1632 263.987 32.7382 262.937 31.2472C261.278 28.8532 262.475 31.2472 254.684 28.1392C254.138 27.9292 253.844 27.1732 253.424 26.6692C253.004 26.1652 252.353 26.1652 251.576 25.9552C249.308 25.3462 248.006 29.9872 251.576 30.5962C251.954 30.5962 252.227 30.5962 252.101 31.2472C251.303 34.6702 255.944 37.5472 255.02 39.2062C253.764 41.607 252.879 44.1842 252.395 46.8502C252.29 47.4802 252.857 47.1442 253.088 47.3332C253.97 48.0892 254.39 44.1412 256.658 39.8782C258.191 37.0432 253.739 34.2082 253.844 31.7722C253.97 28.6432 255.188 30.4282 258.044 31.3312C259.64 31.8352 260.858 31.3312 261.299 32.3812C261.584 32.9422 262.061 33.3823 262.643 33.6213C263.225 33.8603 263.873 33.8822 264.47 33.6832C266.402 33.1792 265.898 34.6702 268.166 35.1532C270.434 35.6362 270.413 35.5312 270.413 36.3712C270.413 36.6652 270.413 36.9802 270.056 37.0642C268.977 37.4326 267.947 37.9334 266.99 38.5552C265.793 39.1222 266.318 38.1562 264.323 39.4582C261.32 41.4112 261.824 40.1722 260.564 41.1592C258.464 42.8602 253.865 47.7112 255.335 48.8662C256.805 50.0212 256.973 46.9972 259.955 44.2672C262.937 41.5372 262.475 42.8602 263.483 42.1672C265.583 40.8652 265.877 40.6762 266.192 40.6552C267.998 40.5082 269.384 38.9962 270.749 38.8702C272.597 38.7022 272.114 37.0852 272.513 37.2112C272.912 37.3372 273.08 37.8202 273.227 38.1772Z" fill="#FFEB8D"/>
<path d="M93.2338 30.8474C93.5638 31.9385 93.5546 33.1041 93.2076 34.1899C92.8606 35.2757 92.192 36.2306 91.2904 36.9281C90.3888 37.6255 89.2966 38.0328 88.1584 38.0959C87.0202 38.159 85.8897 37.8751 84.9165 37.2816C83.9433 36.688 83.1732 35.813 82.7082 34.7722C82.2433 33.7314 82.1053 32.574 82.3126 31.4531C82.5199 30.3322 83.0627 29.3006 83.8691 28.495C84.6756 27.6893 85.7077 27.1476 86.8288 26.9414C88.1894 26.6958 89.5929 26.9578 90.7733 27.6777C91.9537 28.3975 92.8292 29.5253 93.2338 30.8474Z" fill="#BED4FC"/>
<path d="M72.4288 48.927C73.3528 47.877 74.5288 46.827 75.0958 48.234C75.0958 48.234 56.0068 69.57 55.9648 69.612C54.4108 68.541 53.8018 70.725 72.4288 48.927Z" fill="#BED4FC"/>
<path d="M85.0876 67.4897C85.4656 68.3927 85.2976 68.0567 72.0676 81.1607C71.3956 81.8537 71.7106 81.8327 70.9756 71.3117C70.9756 70.3247 79.3756 63.7517 82.0846 60.5177C84.7936 57.2837 84.0796 57.8297 85.0876 67.4897Z" fill="#BED4FC"/>
<path d="M62.0712 40.402C63.6882 40.192 59.1102 43.909 55.7712 48.949C55.0152 50.041 52.1592 53.863 51.0462 54.01C51.0462 54.01 40.5462 54.325 40.5462 54.262C40.2522 53.863 45.8592 48.508 51.0462 42.565C51.6972 41.578 51.6972 41.746 62.0712 40.402Z" fill="#BED4FC"/>
<path d="M113.123 9.93376C112.917 12.9052 112.266 15.8287 111.191 18.6068C106.13 30.9548 106.571 29.8418 105.185 27.3638C98.7592 15.9188 89.8552 14.7638 91.5352 13.7348C95.7941 10.5986 100.581 8.2515 105.668 6.80476C113.627 4.70476 112.745 6.80476 113.123 9.93376Z" fill="#8DE3A7"/>
<path d="M240.532 163.693C238.915 158.17 242.905 144.247 244.102 141.16C245.726 135.595 246.197 129.757 245.488 124.003C244.648 117.43 240.028 106.3 237.592 100.903C235.156 95.5061 224.572 85.5101 221.212 82.9061C217.852 80.3021 201.745 73.5401 196.012 71.0201C190.279 68.5001 179.968 67.9331 179.968 67.9331C178.429 66.0078 176.282 64.6621 173.878 64.1165C171.475 63.571 168.957 63.8578 166.738 64.9301C160.438 67.7231 159.388 74.4431 158.842 74.5901C145.822 74.4431 143.995 84.9431 143.995 84.9431C139.165 89.8361 140.509 92.9231 142.525 96.1361C144.541 99.3491 151.072 99.4331 151.072 99.4331C151.072 99.4331 190.783 90.8021 202.9 109.702C215.017 128.602 210.25 159.43 210.25 159.43L210.586 190.048C212.51 191.874 214.914 193.115 217.517 193.624C220.121 194.134 222.815 193.891 225.286 192.925C217.747 187.171 219.196 183.895 219.196 183.895C230.62 190.951 235.66 183.895 235.66 183.895C233.719 183.515 231.9 182.666 230.362 181.421C228.825 180.177 227.616 178.575 226.84 176.755C230.206 177.775 233.681 178.388 237.193 178.582C246.58 179.485 248.68 174.382 248.68 174.382C248.68 174.382 242.128 169.216 240.532 163.693Z" fill="#FFEB8D"/>
<path d="M160.102 179.001C159.515 178.346 159.19 177.497 159.19 176.617C159.19 175.738 159.515 174.889 160.102 174.234C147.187 166.275 149.959 159.702 147.187 161.025C144.215 162.337 141.04 163.132 137.8 163.377C136.96 163.629 140.131 169.047 147.124 171.378C153.046 173.352 140.824 179.001 138.955 179.148C135.91 179.379 148.762 187.086 156.049 182.172C156.22 182.033 156.431 181.951 156.651 181.939C156.871 181.926 157.089 181.983 157.275 182.102C157.461 182.22 157.605 182.394 157.686 182.599C157.768 182.804 157.783 183.029 157.729 183.243C157.138 186.178 156.082 188.999 154.6 191.601C158.233 192.252 162.391 189.858 165.415 187.8C166.213 187.275 165.919 186.351 166.234 185.7C166.36 185.406 163.714 183.453 160.102 179.001Z" fill="#FFEB8D"/>
<path d="M127.027 204.873C130.87 212.853 131.038 212.454 130.093 212.79L87.4001 226.881C86.8961 226.881 87.5891 228.078 78.0971 209.304C77.6141 208.359 75.0731 209.64 105.04 199.602C110.248 197.859 115.204 196.116 120.769 194.289C122.197 193.827 121 192.399 127.027 204.873ZM121.294 211.698C120.391 210.144 119.677 211.215 118.564 211.257C118.291 211.257 91.0961 219.657 89.1641 220.581C88.2191 220.98 87.3581 222.24 88.5131 222.534C88.9541 222.639 119.677 213.567 121.294 211.698ZM114.7 202.836C115.372 202.5 115.834 201.324 114.406 201.03C114.154 201.03 112.537 201.513 110.206 202.101C101.911 204.201 100.756 205.755 98.6141 205.713C96.1361 205.713 96.2411 206.721 92.5451 207.54C84.1451 209.409 85.5101 210.207 83.2631 210.312C82.9901 210.312 82.5491 210.963 82.4651 211.215C82.2761 211.971 84.5651 212.412 85.6571 211.803C87.9924 210.548 90.5426 209.743 93.1751 209.43C96.6401 208.821 96.5141 207.708 98.5511 207.813C102.436 207.288 103.906 205.713 107.434 204.831C110.962 203.949 112.012 204.201 114.7 202.836ZM109.177 210.501C109.529 210.524 109.877 210.42 110.158 210.208C110.439 209.996 110.635 209.69 110.71 209.346C110.71 206.931 102.31 210.774 98.3411 211.446C94.7291 212.055 86.5181 214.449 85.3211 215.751C84.4811 216.675 84.9431 217.2 86.0771 217.263C90.2771 215.835 89.7101 215.646 91.2221 215.163C99.9581 212.706 93.9521 214.722 103.213 212.055C107.413 210.921 107.686 210.501 109.177 210.501Z" fill="white"/>
<path d="M93.7001 261.552C94.3301 262.833 92.0201 263.547 90.6761 263.799C89.8781 263.274 91.6421 266.193 72.4061 227.448C60.1001 202.962 60.1001 203.949 61.3601 203.949C67.9121 203.97 57.7691 189.501 93.7001 261.552Z" fill="#8DE3A7"/>
<path d="M66.0237 219.214C89.4177 266.674 88.9767 264.49 87.9687 264.847C75.3687 269.173 81.6687 277.447 80.3667 280.282C79.6737 279.295 36.2667 190.36 35.9727 189.625C36.3087 189.499 35.1747 188.932 53.5707 199.915C59.4717 203.443 56.0487 198.949 66.0237 219.214Z" fill="#8DE3A7"/>
<path d="M130.659 195.946C123.498 181.099 123.981 181.981 123.393 182.191C117.093 184.438 84.1233 195.379 78.5583 197.206C64.8453 201.742 65.7063 200.86 66.5463 202.498C98.6763 265.309 93.8463 261.76 97.5213 260.773C101.826 260.668 98.9493 267.829 99.0963 268.207C99.2433 268.585 100.293 271.21 100.881 271C102.15 270.449 103.447 269.965 104.766 269.551C107.735 269.112 110.626 268.257 113.355 267.01C119.235 264.007 119.319 273.436 111.885 277.069C109.874 278.292 107.715 279.252 105.459 279.925C105.081 279.925 104.997 280.219 105.165 280.555C106.677 283.747 106.299 283.495 107.265 283.495C118.605 283.495 117.261 281.668 125.115 280.009C127.425 279.505 128.391 282.34 127.488 284.209C127.278 284.629 127.635 284.587 128.076 284.461C128.076 284.461 165.876 273.268 167.514 272.743C169.152 272.218 168.375 274.108 130.659 195.946ZM131.499 214.447C131.163 214.573 92.1033 227.53 87.3993 228.916C85.6563 228.727 85.9923 229.672 76.2693 209.449C74.9673 206.761 73.2453 208.021 121.104 192.103C122.994 191.473 122.91 192.103 125.535 197.479C132.633 212.053 134.187 213.523 131.499 214.447Z" fill="#8DE3A7"/>
<path d="M244.729 318.526C246.829 321.655 247.312 316.741 229.861 341.374C227.969 343.934 225.922 346.375 223.729 348.682C220.768 352.105 218.395 355.927 213.712 359.518C202.75 367.918 194.539 365.818 184.984 354.625C183.537 352.166 182.509 349.483 181.939 346.687C180.574 341.164 178.138 339.631 176.437 333.373C171.985 317.014 176.836 237.97 177.277 237.571C179.083 235.912 176.269 236.731 172.216 231.439C168.919 227.239 170.452 222.745 163.816 211.951C163.684 211.659 163.486 211.401 163.238 211.197C162.991 210.994 162.7 210.849 162.388 210.775C161.107 210.565 162.157 212.224 162.745 213.526C163.627 215.437 161.821 214.219 161.485 214.198C160.624 214.093 160.036 215.08 162.976 216.802C163.333 217.012 164.299 217.033 164.551 217.369C164.798 217.838 164.975 218.34 165.076 218.86C165.076 219.154 165.076 219.238 164.803 219.259C162.493 219.532 161.485 220.015 159.574 218.398C158.482 217.474 156.529 215.374 156.571 213.946C156.676 209.746 155.962 207.646 159.574 205.546C160.981 204.769 161.233 203.446 161.317 201.892C161.464 199.036 164.341 200.59 165.517 196.873C167.197 191.581 174.883 196.243 173.77 193.282C170.368 184.357 159.7 178.582 161.17 176.02C162.556 173.773 167.617 177.952 168.919 179.464C172.993 184.063 180.469 190.321 181.141 194.689C181.561 197.314 183.388 198.217 185.215 204.349C188.512 215.353 192.25 220.036 192.691 232.195C193.384 251.095 212.893 323.629 212.914 323.692C213.46 324.826 214.762 324.343 214.699 323.167C213.943 309.076 206.089 293.536 208.021 293.431C211.206 293.211 214.393 293.834 217.261 295.237C219.193 296.686 231.121 307.291 232.171 308.278C236.749 312.352 241.6 313.738 244.729 318.526Z" fill="#E7BCA5"/>
<path d="M220.958 140.385C229.82 132.888 240.299 138.978 231.458 153.132C229.694 155.925 227.93 158.34 220.223 161.532C210.206 165.732 209.009 140.091 208.82 186.732C208.82 199.962 210.248 203.931 228.833 212.94C229.568 213.297 223.121 218.106 223.079 218.127C211.886 226.149 218.459 222.327 206.069 227.304C203.969 228.102 195.296 231.693 195.149 230.37C193.469 216.321 190.109 213.108 187.799 204.876C185.699 197.61 183.347 195.762 183.137 193.326C182.843 189.756 174.737 182.826 173.75 181.566C173.393 181.146 173.435 180.978 173.96 180.789C197.627 173.082 194.036 167.223 191.642 168.63C186.77 171.465 164.951 179.277 154.787 167.622C143.636 154.812 143.384 132.069 148.004 133.497C149.914 133.919 151.902 133.81 153.754 133.18C155.605 132.551 157.248 131.426 158.504 129.927C159.722 128.709 158.504 133.35 164.384 134.421C165.602 134.652 166.064 133.161 165.329 132.804C163.544 131.901 161.864 131.481 160.898 128.478C160.142 126.147 167.408 128.016 167.198 122.556C167.198 121.107 165.791 121.065 165.476 122.367C164.909 124.614 165.476 124.278 162.116 124.908C161.822 124.908 161.738 124.908 161.843 124.551C163.691 118.734 163.103 117.075 164.993 115.668C165.812 115.19 166.744 114.94 167.692 114.945C168.641 114.95 169.57 115.21 170.383 115.697C171.197 116.184 171.864 116.881 172.316 117.714C172.768 118.548 172.988 119.488 172.952 120.435C173.225 127.302 179.882 137.361 187.652 137.067C198.656 136.626 201.827 125.286 203.822 124.047C205.145 123.207 206.531 123.732 212.117 127.155C213.755 128.142 208.988 138.096 216.758 141.498C217.577 141.855 215.792 142.947 217.787 143.598C218.018 143.85 219.152 141.897 220.958 140.385ZM231.017 146.979C231.308 146.392 231.429 145.736 231.366 145.084C231.303 144.433 231.059 143.811 230.661 143.291C230.263 142.771 229.728 142.373 229.115 142.141C228.503 141.91 227.838 141.854 227.195 141.981C223.793 142.716 220.076 147.042 221.882 150.549C222.491 151.746 221.882 154.224 220.622 154.518C218.123 155.064 217.955 153.888 217.346 155.022C216.737 156.156 218.081 157.122 219.446 157.122C223.772 157.122 225.221 152.166 223.835 149.499C223.657 149.208 223.553 148.879 223.531 148.538C223.509 148.198 223.57 147.857 223.709 147.546C224.591 145.446 228.98 141.477 229.4 147.105C229.505 147.693 230.576 147.903 231.017 146.979ZM164.741 149.352C164.741 148.596 164.279 146.391 162.515 146.349C160.415 146.349 160.1 149.478 161.612 151.011C162.515 151.956 164.237 152.166 164.741 149.352Z" fill="#E7BCA5"/>
<path d="M130.803 305.863C136.935 310.063 135.99 306.052 133.029 325.96C131.594 334.549 129.581 343.031 127.002 351.349C126.414 353.071 127.296 346.414 127.002 339.358C126.708 329.782 116.838 313.78 115.788 314.158C113.688 314.851 117.888 317.308 123.012 331.504C126.519 341.458 124.671 355.15 122.214 358.804C119.022 363.508 116.25 365.503 108.207 364.285C104.599 363.741 101.233 362.14 98.5345 359.685C95.8359 357.229 93.9256 354.029 93.0449 350.488C91.9109 345.826 90.0629 340.45 90.9449 334.801C95.1449 304.561 92.6248 318.568 97.8748 325.792H98.8199C98.5259 323.503 98.3159 323.692 95.5019 314.452C94.6199 311.512 94.5988 311.092 93.6748 310.504C89.7058 308.026 90.4409 307.627 89.6639 303.427C89.1809 300.886 86.0519 301.558 86.4509 297.988C86.5599 296.981 86.4109 295.963 86.0178 295.03C85.6247 294.097 85.0004 293.279 84.2039 292.654C82.7549 291.289 83.0909 287.257 85.6109 284.632C90.1049 279.97 90.6089 277.891 94.9769 274.657C95.6699 274.132 95.8378 274.321 102.306 272.809C103.713 272.473 102.852 272.137 105.813 271.612C113.73 270.184 115.725 267.412 115.641 269.176C115.46 270.596 114.886 271.938 113.985 273.051C113.083 274.164 111.89 275.003 110.538 275.476C108.836 276.467 107.034 277.277 105.162 277.891C92.5618 280.747 93.2339 289.189 95.2919 286.774C97.9799 283.624 97.5809 282.973 98.5889 284.821C99.3449 286.207 98.9669 285.577 96.4889 287.803C94.3889 289.693 87.3749 295.363 90.7769 294.859C91.2599 294.859 91.5328 294.544 95.9848 290.806C99.1558 288.118 100.437 285.703 110.685 285.598C116.586 285.598 121.185 282.889 125.196 282.112C126.729 281.797 126.33 286.711 115.578 289.609C113.232 290.549 110.798 291.252 108.312 291.709C106.346 291.807 104.45 292.471 102.852 293.62C101.382 295.006 100.29 295.72 101.046 296.497C101.319 296.791 101.571 297.022 101.97 296.602C104.511 293.956 107.136 294.082 112.47 293.011C114.066 292.696 113.73 291.898 116.271 291.646C118.87 291.199 121.443 290.61 123.978 289.882C126.078 289.882 124.461 294.334 113.478 298.576C108.165 300.676 105.666 301.243 103.797 304.036C103.293 304.792 102.873 305.926 103.797 306.346C105.33 307.039 104.406 303.826 109.887 301.831C110.832 301.495 111.063 301.411 111.399 305.611C112.113 314.725 108.753 318.715 108.48 322.411C108.48 322.915 109.068 323.566 109.698 322.789C110.652 320.733 111.5 318.631 112.239 316.489C116.943 302.419 105.939 297.841 120.639 302.356C127.296 304.414 128.22 304.099 130.803 305.863Z" fill="#E7BCA5"/>
<path d="M96.8044 263.212C99.6604 262.561 97.2874 268.735 92.0584 271.612C87.8584 273.985 87.4384 274.216 86.8504 274.93C86.2624 275.644 86.8504 276.547 87.3964 276.358C90.8404 275.35 96.5524 269.197 84.8344 282.658C82.0624 285.85 82.4824 286.081 82.1044 283.267C82.1294 282.197 82.2276 281.131 82.3984 280.075C82.9234 277.576 80.1724 271.675 83.1124 269.806C86.917 267.492 90.9579 265.591 95.1664 264.136C95.6724 263.762 96.2225 263.451 96.8044 263.212Z" fill="#E7BCA5"/>
<path d="M148.972 107.602C148.972 107.308 150.652 99.2018 152.71 96.2408C154.768 93.2798 161.824 85.7408 161.824 85.7408C161.824 85.7408 167.074 88.4708 167.557 83.6408C167.557 83.6408 169.531 85.5098 171.757 82.0448C173.983 78.5798 179.8 78.9368 181.9 79.8608C184 80.7848 189.775 81.8348 192.967 87.1898C196.159 92.5448 207.1 111.214 209.053 113.902C211.006 116.59 217.201 124.402 212.602 125.725L204.202 120.937C204.202 120.937 201.283 112.39 193.954 111.172C186.625 109.954 177.91 109.219 174.34 115.372C174.34 115.372 167.305 111.172 162.412 115.645C162.412 115.645 161.299 109.072 155.188 108.043C149.077 107.014 148.972 107.602 148.972 107.602Z" fill="#E7BCA5"/>
<path d="M8.33707 147.881L7.35007 141.938L12.0751 145.928L18.1651 143.072L16.1071 149.855L20.4331 156.155L13.2091 154.916L10.3531 161.3L8.52607 153.635L2.24707 150.653L8.33707 147.881Z" fill="#FFEB8D"/>
<path d="M310.795 146.095C300.988 153.907 299.938 168.88 295.003 165.289C289.354 161.089 285.742 156.7 285.574 150.4C285.574 148.657 284.629 146.956 282.949 147.586C281.584 148.181 280.181 148.686 278.749 149.098C273.94 150.358 274.129 145.99 271.903 148.027C271.006 148.647 270.169 149.35 269.404 150.127C268.711 150.757 269.047 150.4 267.451 149.203C265.855 148.006 263.545 149.644 263.86 150.568C264.013 150.792 264.237 150.958 264.497 151.038C264.756 151.119 265.035 151.108 265.288 151.009C266.527 150.463 266.716 151.639 267.976 152.647C270.076 154.348 271.735 148.804 273.541 150.085C276.544 152.185 277.909 151.471 282.487 149.917C285.322 148.972 279.883 155.251 291.244 164.89C297.544 170.287 298.615 168.586 303.55 158.716C305.356 155.104 308.905 149.224 312.118 147.25C313.441 146.431 314.995 146.011 318.229 148.3C325.81 153.676 322.429 155.041 321.442 157.372C321.274 157.792 322.177 158.548 322.576 158.002C325.075 154.579 324.382 155.65 324.907 153.991C324.004 148.783 315.499 142.357 310.795 146.095Z" fill="black"/>
<path d="M307.65 119.321C307.482 118.271 307.146 117.221 306.936 116.192C306.911 115.943 306.812 115.708 306.651 115.517C306.489 115.325 306.274 115.188 306.033 115.121C305.214 114.869 305.109 115.331 302.295 118.67C299.796 121.631 301.287 121.127 295.155 119.615C294.817 119.675 294.496 119.81 294.216 120.01C293.936 120.21 293.705 120.469 293.538 120.77C293.118 121.379 293.16 121.61 295.029 124.634C296.625 127.217 297.129 126.587 296.373 127.7C292.404 133.643 290.619 135.596 297.927 132.929C302.127 131.417 301.959 131.186 302.568 131.795C305.403 134.63 309.309 139.418 309.54 135.407C309.64 133.833 309.396 132.257 308.826 130.787C308.532 129.275 314.307 128.498 314.643 126.335C314.672 126.241 314.68 126.143 314.669 126.045C314.658 125.948 314.626 125.854 314.577 125.769C314.528 125.685 314.462 125.611 314.383 125.553C314.304 125.495 314.214 125.454 314.118 125.432C306.117 122.597 308.595 125.369 307.65 119.321ZM307.755 128.708C305.655 130.262 307.629 131.564 307.461 133.748C305.823 133.055 303.975 129.548 301.539 129.548C297.15 131.018 296.877 131.648 296.1 131.648C296.352 130.073 300.048 126.881 297.948 125.18C297.129 124.55 295.092 121.547 296.121 121.778C300.195 122.723 300.174 122.912 300.951 122.366C305.046 119.552 305.151 115.226 305.907 121.148C306.558 126.482 305.235 124.298 311.136 126.44C312.102 126.839 309.078 127.742 307.755 128.708Z" fill="black"/>
<path d="M281.439 85.1759C281.607 93.5759 286.878 97.7759 278.058 96.6419C264.534 94.8779 261.825 91.6229 263.106 101.451C263.274 102.774 263.337 102.354 256.806 105C253.53 106.344 255.021 108.003 256.806 107.31C262.77 104.874 265.395 104.517 265.206 101.913C264.786 97.3139 264.198 96.4949 265.941 96.7889C277.722 98.6789 279.717 99.1199 281.838 98.8889C290.112 98.0069 279.57 84.8399 285.219 82.0889C289.188 80.1149 290.511 83.2649 309.558 90.8459C310.608 91.2659 311.658 91.6859 311.994 90.6989C312.33 89.7119 311.364 89.6489 310.839 89.4389C291.939 81.6899 293.871 81.3119 289.839 79.9889C288.951 79.5737 287.975 79.3859 286.997 79.4425C286.019 79.499 285.071 79.7981 284.237 80.3127C283.404 80.8274 282.711 81.5414 282.223 82.3904C281.734 83.2394 281.465 84.1967 281.439 85.1759Z" fill="black"/>
<path d="M289.584 59.4471C288.009 62.0301 284.355 67.6581 287.736 66.8181C288.996 66.5241 291.411 66.0621 291.936 65.8521C295.149 64.7601 295.254 64.3191 295.695 64.7811C299.895 68.9811 302.898 73.5801 302.688 65.8941C302.562 62.2821 301.764 61.6941 302.793 61.2951C304.158 60.7071 306.867 59.1951 307.623 59.0061C310.206 58.2291 310.332 56.5491 309.219 56.0451C308.106 55.5411 305.019 54.9531 303.108 54.1341C300.063 52.7691 301.365 54.6381 299.412 46.9101C299.366 46.6802 299.249 46.4707 299.076 46.3115C298.904 46.1523 298.686 46.0515 298.453 46.0236C298.221 45.9956 297.985 46.0419 297.78 46.1559C297.575 46.2698 297.411 46.4456 297.312 46.6581C297.06 46.9941 296.178 48.2541 293.49 52.2021C292.86 53.1471 286.833 49.9761 285.846 51.1521C283.368 54.0291 290.403 58.1031 289.584 59.4471ZM292.104 54.1131C294.204 54.7221 293.826 54.4281 297.648 49.2831C298.866 47.6241 298.089 55.1211 300.924 55.3731C301.89 55.3731 303.276 56.5491 305.523 57.0531C305.704 57.1186 305.874 57.2106 306.027 57.3261C305.922 57.4731 305.838 57.6621 305.691 57.7251C300.399 60.4551 300.042 60.1191 300.357 61.9251C301.155 66.9021 300.966 66.1251 300.84 66.9861C295.233 61.9041 297.459 62.5551 296.64 62.4081C295.086 62.1771 292.188 63.9201 289.395 64.5081C288.429 64.5081 288.807 64.2981 291.222 60.3081C293.826 56.0031 280.848 50.9001 292.104 54.1131Z" fill="black"/>
<path d="M239.944 64.2567C239.85 65.0767 239.929 65.9072 240.175 66.695C240.421 67.4828 240.829 68.2105 241.373 68.8314C241.916 69.4523 242.584 69.9526 243.332 70.3004C244.081 70.6481 244.894 70.8356 245.719 70.8507C248.785 71.1237 250.024 68.4987 251.179 68.7507C253.762 69.2547 255.82 66.3987 255.904 64.3617C255.904 63.2907 256.702 62.5767 257.122 61.5477C257.542 60.5187 256.996 59.8677 257.542 59.6997C258.345 59.147 258.993 58.397 259.424 57.5218C259.854 56.6466 260.052 55.6755 259.999 54.7017C259.999 54.4287 260.713 53.4627 259.999 52.6017C259.852 52.4127 260.566 51.2787 260.734 51.1107C260.902 50.9427 280.894 52.5387 284.401 34.9197C289.525 9.17373 248.176 -1.24227 240.469 23.4957C236.269 36.8097 247.189 43.8657 246.538 45.2307C244.837 48.7377 243.745 47.3307 243.115 48.8637C241.435 52.7487 243.115 52.2657 242.212 52.7487C239.188 54.3027 240.868 56.2137 239.818 56.9487C238.998 57.5507 238.443 58.4456 238.267 59.4471C238.091 60.4486 238.308 61.4794 238.873 62.3247C239.692 63.2907 240.112 63.5007 239.944 64.2567ZM245.866 68.6877C243.43 68.0997 243.136 68.0577 241.666 65.0757C241.477 64.6977 241.939 64.7607 242.338 64.9287C248.134 67.3227 249.751 67.7007 245.866 68.6877ZM244.9 39.7077C234.799 23.6847 249.1 10.8117 260.167 11.4207C286.186 11.2737 291.793 45.5037 264.745 48.5907C261.217 49.0107 260.545 48.0027 259.453 49.4097C257.479 52.2027 258.76 53.4627 257.143 53.0427C253.842 52.1993 250.695 50.8385 247.819 49.0107C245.152 47.3937 249.919 46.9107 248.533 43.9077C247.147 40.9047 247.168 43.1937 244.9 39.7077ZM245.005 49.2837C256.135 57.6837 260.545 53.3577 257.185 57.2637C256.555 57.9987 254.119 56.7597 253.195 56.4237C248.785 54.7647 241.288 52.3707 245.089 49.2837H245.005ZM242.443 54.7017C242.779 54.4497 242.611 53.7357 243.094 53.7777C243.934 53.7777 242.821 54.6597 248.386 56.8857C253.951 59.1117 254.434 59.3637 255.526 59.4687C256.618 59.5737 255.4 61.8837 253.3 61.8417C249.898 60.6657 239.734 56.9277 242.527 54.7017H242.443ZM240.343 58.9017C241.267 57.4737 240.511 59.1117 245.299 61.1697C250.486 63.4167 252.355 64.2567 253.699 64.0887C254.056 64.0887 254.035 64.3407 253.888 64.5297C253.027 65.6847 252.04 67.3857 250.423 66.3567C246.328 63.5007 238.222 62.3247 240.469 58.8177L240.343 58.9017Z" fill="black"/>
<path d="M281.461 190.258C279.823 189.208 280.453 189.082 280.81 187.528C282.259 181.228 282.196 181.669 282.112 181.228C282.102 181.05 282.043 180.879 281.941 180.732C281.84 180.586 281.7 180.471 281.537 180.399C281.374 180.327 281.194 180.302 281.018 180.326C280.841 180.35 280.675 180.422 280.537 180.535C278.437 182.194 276.043 183.181 273.901 184.735C272.914 185.407 269.596 182.047 268.84 182.341C267.727 182.803 266.908 183.349 267.265 184.714C268.756 190.111 268.294 189.544 267.517 190.048C265.228 191.518 263.317 192.148 263.464 194.017C263.464 195.529 268.042 195.424 269.764 195.445C271.486 195.466 271.129 196.201 271.717 197.167C274.342 201.493 275.917 203.992 277.219 199.078C278.353 195.004 276.946 195.445 283.918 195.214C286.9 194.983 284.653 192.295 281.461 190.258ZM279.97 193.303C277.513 193.618 276.484 193.681 276.211 195.172C275.987 196.386 275.642 197.575 275.182 198.721C275.074 198.641 274.976 198.549 274.888 198.448C270.688 192.274 273.943 193.87 266.236 193.24C264.703 193.24 268.924 191.812 270.163 189.04C270.625 188.011 268.462 184.168 269.68 184.84C273.376 186.793 272.179 186.079 272.641 186.352C274.027 187.213 278.143 183.832 279.718 183.37C280.285 186.835 276.295 188.935 280.054 191.581C282.7 193.408 282.343 193.009 279.97 193.303Z" fill="black"/>
<path d="M258.044 218.672C252.08 215.522 247.271 217.874 239.921 213.716C237.81 212.237 235.244 211.552 232.676 211.784C230.891 212.246 215.393 205.484 212.054 198.134C211.348 196.216 210.978 194.192 210.962 192.149C210.815 190.553 218.669 197.399 226.271 193.661C226.468 193.592 226.641 193.468 226.77 193.303C226.899 193.139 226.978 192.942 226.997 192.734C227.017 192.526 226.977 192.317 226.882 192.132C226.787 191.946 226.641 191.792 226.46 191.687C223.707 190.531 221.386 188.541 219.824 185.996C219.572 185.576 219.278 184.736 220.244 185.387C228.791 191.204 240.005 184.988 236.582 183.287C233.539 182.515 230.836 180.758 228.896 178.289C228.476 177.764 228.896 177.848 229.148 177.995C235.448 180.809 244.31 180.41 249.308 175.601C251.912 173.081 243.554 172.01 241.727 162.182C239.9 152.354 245.927 145.907 246.977 129.128C247.523 120.392 241.013 104.201 236.897 98.1525C225.704 81.7305 209.597 73.7085 189.5 67.9965C184.743 66.9015 179.784 67.0388 175.094 68.3955C174.254 68.7315 174.443 70.1175 175.451 69.9705C182.704 68.3691 190.287 69.3031 196.934 72.6165C205.124 76.4805 221.315 80.1345 233.6 97.4175C260.564 135.218 227.3 154.118 243.953 171.38C247.46 175.013 247.964 174.425 246.305 175.412C243.331 177.075 239.949 177.871 236.545 177.708C233.14 177.544 229.85 176.429 227.048 174.488C225.746 173.648 224.402 174.488 225.095 176.063C228.014 183.119 235.112 184.043 233.285 184.673C223.625 187.928 219.719 182.006 218.354 181.25C215.456 179.696 214.931 185.996 222.911 192.065C224.57 193.325 210.626 192.254 210.752 187.697C211.907 149.309 208.211 166.151 219.362 164.597C228.623 163.274 239.312 150.149 236.75 140.888C235.028 134.735 229.337 135.449 227.909 134.42C214.07 124.487 206.72 121.421 202.709 115.121C197.963 107.687 180.26 105.125 174.023 113.882C173.792 114.218 173.603 114.302 173.288 113.882C172.712 113.19 171.999 112.623 171.195 112.217C170.391 111.811 169.512 111.575 168.613 111.521C167.713 111.468 166.813 111.6 165.966 111.908C165.12 112.217 164.346 112.695 163.691 113.315C163.418 113.609 163.292 113.609 163.187 113.189C162.095 108.695 155.984 106.574 150.965 106.301C150.188 106.301 150.041 106.574 152.057 101.345C152.435 100.379 154.619 100.169 157.853 102.479C160.772 104.285 158.735 97.5225 154.094 97.6275C151.994 97.6275 160.226 88.6185 161.507 87.1275C162.179 86.3715 162.368 87.6735 164.027 87.8205C164.72 87.8205 165.161 86.7285 164.321 86.0775C153.548 77.6775 164.972 60.4155 175.136 65.9805C177.236 67.1775 178.265 64.9515 176.228 63.8805C169.046 60.3735 160.919 65.1615 158.651 73.0155C158.357 73.9815 158.294 72.8685 153.401 74.0025C151.21 74.52 149.195 75.6087 147.56 77.158C145.926 78.7072 144.732 80.6617 144.098 82.8225C143.814 83.8139 143.262 84.7077 142.502 85.4055C137.672 90.6135 139.982 97.2495 145.484 98.9085C145.883 99.0345 147.458 99.2235 147.584 98.4885C147.92 97.2705 146.933 97.2495 146.156 97.0185C138.806 94.8135 143.111 84.9225 143.93 88.4295C144.749 91.9365 149.495 96.3465 150.524 94.5405C151.553 92.7345 143.048 90.5505 146.198 82.6755C148.676 76.3755 158.063 74.2755 158.042 76.7325C157.916 84.5025 161.36 85.1325 160.52 86.0145C156.32 90.4035 154.22 91.9575 151.637 97.4175C151.451 97.8887 151.1 98.2765 150.65 98.5095C147.479 99.9795 146.303 104.81 147.521 104.096C150.125 102.353 149.285 102.458 148.634 105.713C148.319 107.246 146.219 105.839 140.927 108.695C131.498 113.903 136.076 126.272 144.098 131.753C147.143 133.853 138.092 136.772 147.08 158.339C147.122 158.408 147.147 158.487 147.152 158.568C147.157 158.649 147.143 158.73 147.11 158.804C147.077 158.879 147.026 158.944 146.963 158.994C146.899 159.045 146.824 159.079 146.744 159.095C143.441 160.581 139.866 161.368 136.244 161.405C134.984 161.279 135.026 162.665 135.404 163.673C138.533 172.073 147.206 172.85 145.568 173.816C138.953 177.764 139.1 177.029 137.336 177.449C137.011 177.48 136.712 177.64 136.503 177.891C136.295 178.143 136.194 178.467 136.223 178.793C136.076 180.494 137.399 181.46 139.247 182.783C147.143 188.411 154.913 184.883 155.312 185.261C154.691 187.378 153.687 189.363 152.351 191.12C149.453 194.795 157.706 195.32 164.573 190.994C164.697 190.962 164.827 190.962 164.951 190.994C164.716 192.519 164.379 194.028 163.943 195.509C162.935 198.848 160.394 197.609 159.428 201.074C158.567 204.287 142.271 208.781 140.15 210.125C139.457 210.545 139.961 210.86 133.619 197.903C124.631 179.612 125.219 179.633 122.909 180.41C117.533 182.132 119.402 183.035 116.042 176.21C114.32 172.703 75.0294 182.951 62.9754 197.294C60.4344 200.444 61.9674 201.221 62.8284 200.444C63.3114 200.024 66.6714 193.388 85.5714 185.219C94.5372 181.333 104.001 178.717 113.69 177.449C114.782 177.323 114.341 177.008 116.504 181.796C117.05 183.014 64.5504 199.205 63.2484 200.864C61.9464 202.523 59.0484 201.998 59.9304 201.326C60.1254 201.193 60.2624 200.991 60.3131 200.76C60.3639 200.53 60.3246 200.289 60.2034 200.087C56.0034 190.364 51.2154 189.587 51.8034 187.487C51.8034 187.088 49.9554 182.741 50.2914 182.111C50.6274 181.481 60.5394 190.301 60.2034 196.118C60.2034 197.588 62.5554 198.218 62.1774 195.53C61.1064 187.655 50.6274 176.945 47.8554 180.347C47.3724 180.914 49.4094 185.051 49.4514 186.29C48.1074 185.891 40.7364 179.99 38.4054 182.909C37.8804 183.539 38.1324 183.623 41.4084 189.671C42.2274 191.204 39.8754 189.482 37.5444 188.096C30.5514 183.896 33.3444 187.949 37.0614 195.824C78.4524 281.063 81.7494 286.124 81.3294 288.476C81.1161 289.732 81.2301 291.021 81.6605 292.221C82.0909 293.42 82.823 294.488 83.7864 295.322C84.112 295.658 84.3466 296.071 84.4679 296.523C84.5891 296.975 84.5931 297.451 84.4794 297.905C84.2484 303.092 87.9654 302.252 87.9234 305.15C87.9457 307.119 88.6934 309.01 90.0234 310.463C93.2154 312.794 91.8504 308.237 89.0154 334.277C88.2174 341.564 90.4854 347.506 91.7244 352.021C94.3494 361.429 104.324 366.595 111.254 366.721C111.968 366.721 112.262 366.469 111.254 369.598C108.041 379.657 112.115 381.736 107.285 387.91C106.431 389.152 105.937 390.606 105.857 392.111C105.884 392.311 105.979 392.497 106.127 392.635C106.274 392.774 106.465 392.858 106.667 392.873C106.869 392.888 107.07 392.833 107.236 392.717C107.402 392.601 107.524 392.431 107.579 392.236C108.587 388.477 111.779 386.84 111.905 381.59C111.905 380.665 112.031 374.87 112.241 373.988C114.11 365.903 113.711 366.743 114.782 366.575C121.607 365.483 123.056 361.661 126.899 356.453C129.587 352.799 135.299 328.439 137.084 311.282C137.084 310.61 137.084 309.917 137.693 309.455C138.302 308.993 141.326 290.24 141.263 288.455C141.263 287.762 140.045 287.489 139.793 288.119C139.1 289.778 138.05 300.068 136.727 306.893C136.58 307.732 136.244 307.208 133.094 304.982C128.894 302 128.285 302.714 123.056 301.223C114.656 298.766 116.756 300.005 121.439 297.023C127.739 292.949 127.319 289.148 126.605 288.245C125.891 287.342 123.623 287.867 126.605 287.006C154.388 278.963 165.035 275.939 168.836 274.406C171.461 273.398 170.936 273.104 170.306 272.432C170.306 272.432 166.316 264.326 140.906 212.603C140.528 211.805 140.297 212.099 145.337 210.503C145.673 210.503 145.778 210.503 145.841 210.86C147.094 216.351 150.03 221.314 154.241 225.056C165.518 234.527 169.655 231.23 170.516 232.679C177.677 244.88 174.023 216.278 172.616 304.373C172.616 337.868 175.577 335.872 179.567 345.68C179.882 346.414 181.667 354.08 182.906 355.445C195.191 369.998 205.019 369.746 215.813 360.947C224.864 353.576 240.047 329.741 241.223 330.644C242.399 331.547 244.331 331.63 246.179 332.891C248.678 334.591 252.584 336.25 255.461 335.41C257.834 334.717 257.204 336.355 269.531 300.131C270.182 298.199 268.964 315.881 264.848 331.988C259.178 354.122 250.148 366.763 252.248 375.205C253.088 378.481 251.639 379.658 252.248 385.034C254.348 400.574 253.319 399.586 254.999 399.733C256.679 399.88 254.81 387.659 254.663 386.945C253.382 380.414 255.041 378.544 254.18 374.932C251.954 365.714 264.197 350.888 269.636 318.506C272.03 304.331 270.203 298.808 275.054 285.095C281.102 268.127 285.008 256.178 282.173 238.286C280.073 225.203 276.02 228.164 258.044 218.672ZM61.3584 203.972C67.9104 203.972 57.7254 189.482 93.6354 261.575C94.2654 262.856 91.9554 263.57 90.6114 263.822C89.8134 263.297 91.5774 266.216 72.3414 227.471C60.0984 202.964 60.0984 203.951 61.3584 203.951V203.972ZM40.6104 184.463C43.4034 184.127 55.3104 192.254 58.1874 200.36C53.2947 197.926 48.5977 195.118 44.1384 191.96C43.7394 190.259 40.9674 185.681 40.6104 184.442V184.463ZM80.3634 280.307C79.6704 279.299 36.2634 190.385 35.9694 189.65C36.3054 189.524 35.1714 188.957 53.5674 199.94C59.4684 203.468 56.0454 198.995 66.0204 219.239C89.4144 266.699 88.9734 264.515 87.9654 264.872C75.3864 269.177 81.6444 277.43 80.3634 280.286V280.307ZM82.1064 283.331C82.1314 282.261 82.2296 281.195 82.4004 280.139C82.9254 277.64 80.1744 271.739 83.1144 269.87C86.919 267.556 90.9599 265.655 95.1684 264.2C95.6721 263.811 96.2224 263.486 96.8064 263.234C99.6624 262.604 97.2894 268.757 92.0604 271.634C87.8604 274.007 87.4404 274.238 86.8524 274.952C86.2644 275.666 86.8524 276.569 87.3984 276.38C90.8424 275.372 96.5544 269.219 84.8364 282.68C82.0644 285.893 82.4844 286.103 82.1064 283.31V283.331ZM98.1924 270.73C98.5494 271.613 98.4234 271.466 95.1474 272.117V271.949C96.9744 270.835 97.2474 269.576 97.6044 269.66C97.9614 269.744 97.8984 270.08 98.1924 270.794V270.73ZM115.496 289.505C113.15 290.444 110.716 291.148 108.23 291.605C106.264 291.703 104.369 292.366 102.77 293.516C101.3 294.902 100.208 295.616 100.964 296.393C101.237 296.687 101.489 296.918 101.888 296.498C104.429 293.852 107.054 293.978 112.388 292.907C113.984 292.592 113.648 291.794 116.189 291.542C118.789 291.095 121.362 290.506 123.896 289.778C125.996 289.778 124.379 294.23 113.396 298.472C108.062 300.572 105.584 301.139 103.715 303.932C103.211 304.688 102.791 305.822 103.715 306.242C105.248 306.935 104.324 303.722 109.805 301.727C110.75 301.391 110.981 301.307 111.317 305.507C112.031 314.621 108.671 318.611 108.398 322.307C108.398 322.811 108.986 323.462 109.616 322.685C110.246 321.908 111.947 316.931 112.157 316.385C116.861 302.315 105.857 297.737 120.557 302.252C127.298 304.352 128.138 303.995 130.721 305.759C136.853 309.959 135.908 305.947 132.947 325.855C131.513 334.445 129.499 342.927 126.92 351.245C126.332 352.966 127.214 346.31 126.92 339.254C126.626 329.678 116.756 313.676 115.706 314.054C113.606 314.747 117.806 317.204 122.93 331.4C126.437 341.354 124.589 355.046 122.132 358.7C118.94 363.404 116.168 365.398 108.125 364.18C104.517 363.637 101.152 362.036 98.453 359.58C95.7544 357.125 93.8441 353.924 92.9634 350.384C91.8294 345.722 89.9814 340.345 90.8634 334.697C95.0634 304.457 92.5434 318.464 97.7934 325.688H98.7384C98.4444 323.399 98.2344 323.587 95.4204 314.348C94.5384 311.408 94.5174 310.988 93.5934 310.4C89.6244 307.922 90.3594 307.523 89.5824 303.323C89.0994 300.782 85.9704 301.454 86.3694 297.884C86.4785 296.877 86.3294 295.859 85.9363 294.926C85.5432 293.992 84.9189 293.175 84.1224 292.55C82.6734 291.185 83.0094 287.153 85.5294 284.528C90.0234 279.866 90.5274 277.787 94.8954 274.553C95.5884 274.028 95.7564 274.217 102.224 272.705C103.631 272.369 102.77 272.033 105.731 271.508C113.648 270.08 115.643 267.308 115.559 269.072C115.378 270.492 114.805 271.834 113.903 272.947C113.002 274.06 111.808 274.899 110.456 275.372C108.754 276.363 106.952 277.172 105.08 277.786C92.4804 280.643 93.1524 289.085 95.2104 286.67C97.8984 283.52 97.4994 282.868 98.5074 284.717C99.2634 286.103 98.8854 285.473 96.4074 287.699C94.3074 289.589 87.2934 295.258 90.6954 294.755C91.1784 294.755 91.4514 294.44 95.9034 290.702C99.0744 288.014 100.355 285.599 110.603 285.494C116.504 285.494 121.103 282.785 125.114 282.008C126.647 281.756 126.248 286.67 115.496 289.568V289.505ZM101.006 284.842C100.733 284.59 100.859 284.99 99.6624 282.554C99.3894 281.966 99.8514 281.798 102.791 280.895C103.169 280.769 103.505 281.462 104.366 283.373C104.555 283.877 104.198 284.003 101.006 284.906V284.842ZM167.408 272.747C165.728 273.272 128.033 284.444 127.97 284.465C127.529 284.591 127.172 284.633 127.382 284.213C128.285 282.281 127.382 279.446 125.009 280.013C117.155 281.672 118.499 283.478 107.159 283.499C106.298 283.499 106.676 283.751 105.059 280.559C104.891 280.223 105.059 280.013 105.353 279.929C107.609 279.255 109.768 278.295 111.779 277.073C119.213 273.44 119.129 264.011 113.249 267.014C110.52 268.26 107.629 269.115 104.66 269.555C103.341 269.968 102.044 270.452 100.775 271.004C100.187 271.214 99.2634 268.904 98.9904 268.211C98.7174 267.518 101.72 260.672 97.4154 260.777C93.7404 261.764 98.5704 265.313 66.4404 202.502C65.6004 200.864 64.7394 201.746 78.4524 197.21C84.0174 195.383 117.071 184.442 123.287 182.195C123.875 181.985 123.287 181.103 130.553 195.95C168.374 274.112 168.962 272.327 167.408 272.81V272.747ZM214.091 129.254C214.091 128.414 213.671 128.414 223.961 135.092C225.305 135.953 222.176 135.596 218.984 139.292C218.375 140.006 218.354 139.964 217.472 139.544C213.65 137.843 213.545 133.685 214.091 129.317V129.254ZM177.026 113.903C181.226 110.459 194.876 110.543 200.126 116.486C204.704 121.694 193.364 140.741 182.171 132.908C176.795 129.149 171.797 118.103 177.026 113.903ZM149.894 123.437C149.894 122.387 148.718 109.325 150.419 109.409C153.613 109.295 156.769 110.128 159.491 111.803C164.006 114.764 158.882 135.218 147.878 131.165C146.702 130.703 149.81 127.952 149.894 123.437ZM144.098 110.438C145.19 110.102 146.198 109.85 147.416 109.556C147.794 109.556 147.983 109.556 147.941 109.976C146.849 119.447 149.915 122.135 146.282 129.401C145.862 130.283 145.778 130.325 145.064 129.758C136.265 122.576 133.808 113.651 144.098 110.438ZM147.983 133.538C149.893 133.96 151.881 133.85 153.733 133.221C155.584 132.591 157.227 131.466 158.483 129.968C159.68 128.75 158.483 133.391 164.363 134.462C165.581 134.693 166.043 133.202 165.308 132.845C163.523 131.942 161.843 131.522 160.877 128.519C160.121 126.188 167.387 128.057 167.177 122.597C167.177 121.148 165.77 121.106 165.455 122.408C164.888 124.655 165.455 124.319 162.095 124.949C161.801 124.949 161.717 124.949 161.822 124.592C163.67 118.775 163.082 117.116 164.972 115.709C165.791 115.23 166.723 114.98 167.671 114.985C168.619 114.99 169.549 115.25 170.362 115.737C171.176 116.224 171.843 116.921 172.295 117.755C172.747 118.588 172.967 119.528 172.931 120.476C173.204 127.343 179.861 137.402 187.631 137.108C198.635 136.667 201.806 125.327 203.801 124.088C205.124 123.248 206.51 123.773 212.096 127.196C213.734 128.183 208.967 138.137 216.737 141.539C217.556 141.896 215.771 142.988 217.766 143.639C218.081 143.639 219.215 141.77 221.021 140.258C229.883 132.761 240.362 138.851 231.521 153.005C229.757 155.798 227.993 158.213 220.286 161.405C210.269 165.605 209.072 139.964 208.883 186.605C208.883 199.835 210.311 203.804 228.896 212.813C229.631 213.17 223.184 217.979 223.142 218C211.949 226.022 218.522 222.2 206.132 227.177C204.032 227.975 195.359 231.566 195.212 230.243C193.532 216.194 190.172 212.981 187.862 204.749C185.762 197.483 183.41 195.635 183.2 193.199C182.906 189.629 174.8 182.699 173.813 181.439C173.456 181.019 173.498 180.851 174.023 180.662C197.69 172.955 194.099 167.096 191.705 168.503C186.833 171.338 165.014 179.15 154.85 167.495C143.573 154.937 143.321 132.194 147.941 133.622L147.983 133.538ZM154.598 191.603C156.077 188.987 157.126 186.151 157.706 183.203C157.76 182.989 157.745 182.764 157.664 182.559C157.582 182.354 157.438 182.18 157.252 182.061C157.067 181.943 156.848 181.886 156.628 181.899C156.408 181.911 156.198 181.993 156.026 182.132C148.739 187.046 135.887 179.339 138.932 179.108C140.759 178.961 153.023 173.312 147.101 171.338C140.108 169.007 136.937 163.589 137.777 163.337C141.058 163.119 144.276 162.338 147.29 161.027C150.062 159.704 147.29 166.277 160.205 174.236C159.618 174.89 159.293 175.739 159.293 176.619C159.293 177.499 159.618 178.348 160.205 179.003C163.817 183.413 166.505 185.303 166.316 185.723C166.001 186.395 166.316 187.319 165.497 187.823C162.368 189.944 158.21 192.338 154.598 191.603ZM168.416 229.76C158.903 228.269 149.621 218.861 147.71 210.965C147.353 209.474 147.101 209.621 148.697 209.075C153.38 207.416 155.795 205.631 155.207 206.681C154.031 208.781 154.871 211.49 154.724 212.456C154.178 216.089 156.698 219.155 160.331 221.087C160.814 221.339 160.646 221.297 163.859 221.507C165.959 221.003 166.232 220.793 166.484 221.507C166.945 222.555 167.303 223.645 167.555 224.762C168.395 229.403 169.487 230.012 168.395 229.844L168.416 229.76ZM229.883 341.29C227.992 343.851 225.944 346.291 223.751 348.598C220.79 352.021 218.417 355.844 213.734 359.435C202.772 367.835 194.561 365.734 185.006 354.542C183.56 352.082 182.531 349.4 181.961 346.603C180.596 341.08 178.16 339.547 176.459 333.289C172.007 316.93 176.858 237.887 177.299 237.488C179.105 235.829 176.291 236.648 172.238 231.356C168.941 227.156 170.474 222.662 163.838 211.868C163.706 211.575 163.508 211.318 163.261 211.114C163.013 210.91 162.722 210.766 162.41 210.692C161.129 210.482 162.179 212.141 162.767 213.443C163.649 215.354 161.843 214.136 161.507 214.115C160.646 214.01 160.058 214.997 162.998 216.719C163.355 216.929 164.321 216.95 164.573 217.286C164.82 217.754 164.997 218.257 165.098 218.777C165.098 219.071 165.098 219.155 164.825 219.176C162.515 219.449 161.507 219.932 159.596 218.315C158.504 217.391 156.551 215.291 156.593 213.863C156.698 209.663 155.984 207.563 159.596 205.463C161.003 204.686 161.255 203.363 161.339 201.809C161.486 198.953 164.363 200.507 165.539 196.79C167.219 191.498 174.905 196.16 173.792 193.199C170.39 184.274 159.722 178.499 161.192 175.937C162.578 173.69 167.618 177.869 168.941 179.381C173.015 183.98 180.491 190.238 181.163 194.606C181.583 197.21 183.41 198.134 185.237 204.266C188.534 215.27 192.272 219.953 192.713 232.112C193.406 251.012 212.915 323.546 212.936 323.609C213.482 324.743 214.784 324.281 214.721 323.084C213.965 308.993 206.111 293.453 208.043 293.348C211.229 293.127 214.416 293.75 217.283 295.154C219.215 296.603 231.143 307.208 232.193 308.195C236.54 312.185 241.391 313.571 244.52 318.359C246.746 321.656 247.334 316.742 229.862 341.375L229.883 341.29ZM166.883 191.897C167.849 186.941 167.744 187.13 168.332 187.697C169.385 188.852 170.244 190.171 170.873 191.603C171.314 192.422 169.97 192.128 169.949 192.044C166.946 192.59 166.589 192.842 166.757 191.981L166.883 191.897ZM257.015 329.699C256.928 329.874 256.806 330.031 256.658 330.161C256.542 330.044 256.437 329.918 256.343 329.783C250.631 321.383 247.754 319.283 246.41 316.889C244.709 313.886 239.795 310.778 236.834 308.972C234.881 307.775 231.08 303.869 228.077 301.496C221.294 296.141 221.126 292.76 211.445 291.437C209.975 291.227 207.728 291.878 207.371 291.584C207.014 291.29 207.371 290.786 209.072 287.51C210.498 284.551 212.207 281.738 214.175 279.11C222.869 266.846 221.105 267.476 224.066 262.415C229.274 253.427 230.639 254.519 238.976 245.615C250.4 233.393 250.967 233.12 251.723 231.188C252.059 230.285 251.261 229.865 250.841 230.306C224.717 257.9 227.216 252.356 221.861 262.352C209.996 284.528 216.926 269.093 206.804 287.342C205.733 289.253 194.204 236.564 195.317 233.036C195.632 232.028 196.808 233.645 205.817 229.823C219.446 224.006 212.264 228.731 223.667 220.331C229.442 216.131 232.067 211.448 237.926 214.955C245.486 219.491 248.216 217.622 255.314 219.722C259.073 220.835 258.695 222.074 274.466 228.437C279.086 230.306 279.737 234.38 280.283 238.391C282.992 259.538 281.102 262.1 256.889 329.783L257.015 329.699Z" fill="black"/>
<path d="M251.683 30.5966C252.061 30.5966 252.334 30.5966 252.208 31.2476C251.41 34.6706 256.051 37.5476 255.127 39.2066C253.871 41.6074 252.986 44.1846 252.502 46.8506C252.397 47.4806 252.964 47.1446 253.195 47.3336C254.077 48.0896 254.497 44.1416 256.765 39.8786C258.298 37.0436 253.846 34.2086 253.951 31.7726C254.077 28.6436 255.295 30.4286 258.151 31.3316C259.747 31.8356 260.965 31.3316 261.406 32.3816C261.691 32.9426 262.168 33.3827 262.75 33.6217C263.332 33.8606 263.98 33.8826 264.577 33.6836C266.509 33.1796 266.005 34.6706 268.273 35.1536C270.541 35.6366 270.52 35.5316 270.52 36.3716C270.52 36.6656 270.52 36.9806 270.163 37.0646C269.083 37.4329 268.054 37.9337 267.097 38.5556C265.9 39.1226 266.425 38.1566 264.43 39.4586C261.427 41.4116 261.931 40.1726 260.671 41.1596C258.571 42.8606 253.972 47.7116 255.442 48.8666C256.912 50.0216 257.08 46.9976 260.062 44.2676C263.044 41.5376 262.582 42.8606 263.59 42.1676C265.69 40.8656 265.984 40.6766 266.299 40.6556C268.105 40.5086 269.491 38.9966 270.856 38.8706C272.704 38.7026 272.221 37.0856 272.62 37.2116C273.019 37.3376 273.019 37.7366 273.166 38.0936C274.489 41.3906 278.605 33.6206 275.434 32.5916C272.263 31.5626 271.423 33.7886 270.919 33.6626C266.047 32.5706 269.071 33.2006 266.257 31.7516C264.955 31.0796 263.926 32.6546 262.876 31.1636C261.217 28.7696 262.414 31.1636 254.623 28.0556C254.077 27.8456 253.783 27.0896 253.363 26.5856C252.943 26.0816 252.292 26.0816 251.515 25.8716C249.31 25.3466 248.008 29.9036 251.683 30.5966ZM274.531 34.3556C275.182 34.5446 274.699 36.0776 274.111 35.7626C271.885 34.6286 273.754 34.1036 274.531 34.3556ZM251.431 27.5096C251.683 27.5096 252.124 28.2446 252.355 28.6016C251.2 29.5466 250.654 27.8036 251.41 27.5096H251.431Z" fill="black"/>
<path d="M266.336 256.828C259.364 260.398 250.061 266.887 228.536 268.21C227.717 268.21 226.898 268.588 227.003 269.428C227.108 270.268 244.958 271.213 266.903 258.55C269.801 256.849 268.247 255.862 266.336 256.828Z" fill="black"/>
<path d="M231.813 262.559C243.048 259.052 257.496 247.859 256.572 246.641C254.745 244.31 250.125 253.676 231.204 261.068C230.532 261.32 230.826 262.349 231.813 262.559Z" fill="black"/>
<path d="M223.896 119.636C224.253 120.014 232.548 127.532 233.451 125.201C233.787 124.319 233.241 124.067 230.343 122.051C215.244 111.803 208.839 91.0551 201.657 86.6031C201.174 86.3091 200.775 87.4641 200.964 87.8211C202.614 89.6399 204.11 91.5926 205.437 93.6591C214.236 107.729 212.052 106.805 223.896 119.636Z" fill="black"/>
<path d="M224.972 226.148C220.205 228.983 220.1 230.348 217.622 231.419C215.984 232.133 202.922 237.236 204.035 239.147C204.644 240.134 204.539 239.336 218.735 233.015C220.754 231.758 222.677 230.354 224.489 228.815C231.671 223.628 232.679 223.712 232.322 222.515C231.692 220.604 227.786 224.489 224.972 226.148Z" fill="black"/>
<path d="M219.508 157.037C223.834 157.037 225.283 152.081 223.897 149.414C223.719 149.123 223.614 148.793 223.592 148.453C223.57 148.112 223.632 147.772 223.771 147.461C224.653 145.361 229.042 141.392 229.462 147.02C229.462 147.692 230.554 147.902 231.016 147.02C231.307 146.433 231.427 145.777 231.364 145.125C231.301 144.473 231.057 143.852 230.659 143.332C230.262 142.812 229.726 142.413 229.114 142.182C228.501 141.95 227.836 141.895 227.194 142.022C223.792 142.757 220.075 147.083 221.881 150.59C222.49 151.787 221.881 154.265 220.621 154.559C218.122 155.105 217.954 153.929 217.345 155.063C216.736 156.197 218.08 157.037 219.508 157.037Z" fill="black"/>
<path d="M205.003 61.3987C205.129 59.9707 204.709 55.9597 208.258 54.9937C211.114 54.1957 212.689 54.4687 213.97 52.2427C215.062 50.3527 213.97 49.7647 214.999 47.8117C218.443 41.5117 216.679 42.4777 221.299 40.4617C233.647 34.9807 223.399 27.9877 222.307 31.5157C221.74 33.2167 222.832 34.1827 223.567 32.5447C223.945 31.6837 227.956 34.7917 223.231 37.3747C218.863 39.7477 216.742 39.7267 215.566 42.7297C214.39 45.7327 212.5 47.6437 212.563 50.4157C212.563 52.3897 210.736 52.3267 208.615 52.7467C206.936 53.2063 205.467 54.2295 204.454 55.6443C203.441 57.0592 202.945 58.7796 203.05 60.5167C203.092 64.2967 204.73 64.6747 205.003 61.3987Z" fill="black"/>
<path d="M178.539 78.3483C177.18 78.3168 175.83 78.5738 174.578 79.1023C173.325 79.6308 172.199 80.4188 171.273 81.4143C170.034 82.7373 171.273 83.9343 172.533 82.8633C173.472 81.8938 174.638 81.1745 175.925 80.7711C177.213 80.3676 178.581 80.2927 179.904 80.5533C195.612 82.6533 196.704 102.036 212.769 121.188C214.68 123.435 216.171 122.616 215.436 121.293C212.472 117.632 209.73 113.796 207.225 109.806C193.974 86.0343 192.693 80.4483 178.539 78.3483Z" fill="black"/>
<path d="M179.795 97.8352C179.06 98.6122 178.514 100.292 179.606 99.9352C181.118 99.3262 182.546 97.5412 186.347 97.5832C191.618 97.5832 193.529 105.311 193.886 101.384C193.445 95.1472 185.801 91.3882 179.795 97.8352Z" fill="black"/>
<path d="M183.43 122.553C184.564 122.553 184.627 121.797 184.921 120.642C184.585 118.416 182.821 118.542 182.401 119.823C181.981 121.104 182.191 122.49 183.43 122.553Z" fill="black"/>
<path d="M166.422 81.1404C166.422 82.5474 166.422 85.1093 167.871 84.8783C169.782 84.5843 166.632 81.0143 169.551 76.4784C169.875 75.8496 170.336 75.301 170.899 74.8724C171.462 74.4438 172.113 74.1459 172.806 74.0003C173.048 73.9013 173.261 73.7408 173.423 73.5346C173.585 73.3284 173.691 73.0837 173.73 72.8243C173.625 70.0523 166.338 73.0974 166.422 81.1404Z" fill="black"/>
<path d="M152.496 3.35724C153.126 3.52524 154.029 2.62224 155.037 2.45424C156.549 2.20224 160.56 2.07624 161.337 3.60924C163.836 8.41824 155.373 14.4242 154.344 21.0602C153.693 25.2602 158.103 26.3522 164.844 28.2212C170.661 29.8172 159.825 37.2302 163.143 41.7032C163.689 42.4172 165.243 43.8032 166.503 45.1262C169.674 48.4442 165.558 52.8752 167.637 53.3162C169.716 53.7572 171.249 46.8272 167.637 43.3202C163.626 39.2882 163.206 40.6952 167.469 33.2402C168.582 31.2872 169.191 27.8642 166.755 26.8142C164.319 25.7642 164.655 26.5412 158.817 24.2732C149.913 20.8502 166.839 10.6862 162.828 2.76924C161.904 0.501237 159.951 0.753237 157.284 0.501237C151.908 0.375237 151.719 3.14724 152.496 3.35724Z" fill="black"/>
<path d="M164.742 149.351C164.742 148.595 164.28 146.39 162.516 146.348C160.416 146.348 160.101 149.477 161.613 151.01C162.516 151.955 164.238 152.165 164.742 149.351Z" fill="black"/>
<path d="M157.076 119.003C156.908 116.903 155.249 116.903 154.976 117.701C153.653 120.074 156.404 122.3 157.076 119.003Z" fill="black"/>
<path d="M121.002 192.104C73.1434 208.043 74.8024 206.804 76.1674 209.45C85.8904 229.673 85.5544 228.728 87.2974 228.917C92.0854 227.531 131.145 214.574 131.397 214.448C134.085 213.524 132.531 212.054 125.349 197.48C122.829 192.188 122.913 191.474 121.002 192.104ZM130.074 212.789L87.4024 226.88C86.8984 226.88 87.5914 228.077 78.0994 209.303C77.6164 208.358 75.0754 209.639 105.042 199.601C110.25 197.858 115.206 196.115 120.771 194.288C122.22 193.826 121.065 192.398 127.071 204.788C130.872 212.852 131.04 212.474 130.095 212.789H130.074Z" fill="black"/>
<path d="M118.559 211.26C118.286 211.26 91.091 219.66 89.159 220.584C88.214 220.983 87.353 222.243 88.508 222.537C88.886 222.537 119.609 213.57 121.226 211.701C120.386 210.147 119.672 211.218 118.559 211.26Z" fill="black"/>
<path d="M93.2166 209.432C96.6816 208.823 96.5556 207.71 98.5926 207.815C102.478 207.29 103.948 205.715 107.476 204.833C111.004 203.951 112.012 204.203 114.763 202.733C115.435 202.397 115.897 201.221 114.469 200.927C114.217 200.927 112.6 201.41 110.269 201.998C101.974 204.098 100.819 205.652 98.6766 205.61C96.1986 205.61 96.3036 206.618 92.6076 207.437C84.2076 209.306 85.5726 210.104 83.3256 210.209C83.0526 210.209 82.6116 210.86 82.5276 211.112C82.3386 211.868 84.6276 212.309 85.7196 211.7C88.0558 210.484 90.5983 209.715 93.2166 209.432Z" fill="black"/>
<path d="M100.309 104.64C103.375 100.566 101.569 101.154 111.67 104.64C111.88 104.737 112.116 104.765 112.343 104.72C112.57 104.675 112.777 104.558 112.934 104.388C113.091 104.217 113.189 104.001 113.215 103.771C113.24 103.541 113.192 103.308 113.077 103.107C111.972 100.708 110.694 98.3921 109.255 96.1771C108.394 95.0851 112.825 90.3601 112.909 87.7771C113.035 83.9761 105.244 90.2971 103.543 88.0711C102.178 86.2861 100.099 84.3121 98.7343 82.1491C98.1253 81.1621 96.9493 80.8051 96.7603 81.9811C95.1433 92.7121 97.7473 90.0661 91.7623 92.3761C88.4233 93.6781 88.3183 93.6571 88.1293 94.7281C87.5413 98.1091 95.3533 98.5921 95.3743 100.125C95.5003 107.034 95.2273 106.614 95.3743 108.063C95.4039 108.257 95.4854 108.44 95.6102 108.592C95.735 108.744 95.8986 108.859 96.0835 108.926C96.2685 108.993 96.468 109.008 96.6611 108.971C96.8541 108.934 97.0335 108.845 97.1803 108.714C98.3354 107.446 99.3821 106.083 100.309 104.64ZM95.5843 97.6051C88.4023 94.9171 88.4023 95.5051 96.2983 92.6491C98.0203 92.0191 97.2013 88.2601 98.3983 85.0261C105.895 92.0401 99.5743 91.4521 110.536 88.9321C108.919 93.2581 105.559 94.4971 107.491 96.7441C108.571 98.2558 109.506 99.8659 110.284 101.553C110.809 102.435 108.184 101.553 104.467 100.167C102.367 99.3901 102.85 97.8151 97.8943 104.745C95.9623 107.454 98.7553 98.7811 95.5843 97.6051Z" fill="black"/>
<path d="M59.8871 67.9327C60.8951 66.8407 60.9161 66.8407 61.8401 67.9327C62.7806 69.051 63.4939 70.3422 63.9401 71.7337C64.3181 73.0777 62.8901 72.3637 62.4491 72.3847C60.3491 72.3847 61.2101 73.9597 61.7351 74.2117C66.9011 76.7107 69.1271 70.7677 69.2741 72.7207C69.5051 75.3667 69.4841 78.2437 69.6101 81.7087C69.6101 83.2837 70.8911 84.4807 71.9621 83.5147C73.0331 82.5487 75.8891 79.6507 79.9421 75.7027C86.5781 69.2137 86.8511 69.4027 86.7671 68.1217C85.8011 54.0517 84.6671 57.6217 89.2871 52.6027C94.8731 46.5757 106.087 34.3117 109.72 26.9617C115.327 15.8527 117.553 4.15567 112.324 3.56767C105.331 2.79067 93.1721 8.90167 87.1241 14.2147C82.7868 17.9289 78.7363 21.9653 75.0071 26.2897C62.4071 40.1287 65.9771 37.8817 60.3071 38.6377C48.9041 40.1077 52.8941 37.6507 38.7191 53.1067C36.9761 55.0177 38.2151 56.3197 39.3491 56.3197C42.7528 55.9641 46.1775 55.8518 49.5971 55.9837C49.0037 56.5977 48.5677 57.3463 48.3263 58.1654C48.085 58.9846 48.0454 59.8499 48.2111 60.6877C48.6492 62.3521 49.5269 63.868 50.7521 65.0767C51.4451 65.5177 51.9491 64.7407 51.6761 63.9217C51.5501 63.5017 49.3871 60.3097 50.0171 59.5327C50.6471 58.7557 52.2431 59.5327 56.8841 63.0607C58.1651 64.0267 55.7081 64.9507 53.6291 68.0167C52.4321 69.8227 54.5531 70.7467 55.1201 71.1667C55.6871 71.5867 56.2121 71.6707 56.7791 71.2717L59.8871 67.9327ZM49.5971 82.0657C34.8971 105.166 31.6211 129.358 42.9611 159.43C43.1711 159.955 43.8851 162.328 44.5991 161.845C46.8671 160.354 34.8761 141.454 38.8241 113.65C42.4571 88.0717 59.3411 73.3087 59.8241 71.0827C60.0761 69.9907 59.6771 69.5287 58.3751 70.0327C55.1579 73.8229 52.2239 77.8448 49.5971 82.0657ZM56.1491 60.1207C52.0541 57.0337 50.4371 58.3987 51.2141 57.0757C51.5921 56.4247 51.9701 55.6897 52.5791 55.9627C55.4981 56.2147 56.5061 57.3277 60.0341 59.7217C60.6431 60.1417 60.1601 60.6037 59.1941 61.5487C58.6271 62.1787 58.7531 62.0527 56.2331 60.1207H56.1491ZM55.8971 69.6127C54.3431 68.5417 53.6501 70.7257 72.3611 48.9277C73.2851 47.8777 74.4611 46.8277 75.0281 48.2347C75.0911 48.2977 56.0021 69.5707 55.8971 69.6127ZM67.1321 71.7127C65.2841 73.2877 66.9431 71.7127 63.7511 67.5127C62.2811 65.5807 62.0921 65.5807 62.3651 65.2657C64.0661 63.2707 63.7091 62.3257 67.7831 70.2847C68.2031 70.8517 67.7831 71.1667 67.1951 71.6707L67.1321 71.7127ZM72.0041 81.2047C71.3321 81.8977 71.6471 81.8767 70.9121 71.3557C70.9121 70.3687 79.3121 63.7957 82.0211 60.5617C84.7301 57.3277 84.1211 57.8737 85.0241 67.5337C85.4651 68.3947 85.2971 68.0587 72.0671 81.1627L72.0041 81.2047ZM91.5971 13.7317C95.837 10.6023 100.602 8.25539 105.667 6.80167C113.626 4.70167 112.744 6.80167 113.122 9.93067C112.918 12.9024 112.267 15.8263 111.19 18.6037C106.129 30.9517 106.57 29.8387 105.184 27.3607C98.7581 15.9157 89.8751 14.8027 91.5971 13.7317ZM88.8881 15.8317C91.5761 13.2907 106.843 28.9777 104.638 31.9177C98.1911 40.5697 75.7631 65.7697 69.8411 69.4027C68.6078 67.0024 67.2042 64.6935 65.6411 62.4937C65.1161 61.7167 65.0531 62.2417 72.4661 53.9887C76.6661 49.2007 77.8631 48.6547 76.3931 46.8487C75.7631 46.0717 74.0831 44.9377 73.0121 46.0297C71.9411 47.1217 71.3531 47.8567 66.0821 53.9047C61.2311 59.4487 62.2391 58.8187 60.5171 57.5167C53.5871 52.2877 52.3481 56.4037 56.7791 50.7547C66.7165 38.4385 77.4197 26.7604 88.8251 15.7897L88.8881 15.8317ZM50.8991 42.5017C51.7601 41.4937 51.7601 41.6617 62.0711 40.4017C63.6881 40.1917 59.1101 43.9087 55.7711 48.9487C55.0151 50.0407 52.1591 53.8627 51.0461 54.0097C51.0461 54.0097 40.5461 54.3247 40.5461 54.2617C40.1051 53.8837 45.7121 48.5287 50.8991 42.5017Z" fill="black"/>
<path d="M103.208 212.139C107.408 210.921 107.681 210.543 109.172 210.522C109.524 210.545 109.872 210.441 110.153 210.229C110.435 210.017 110.631 209.711 110.705 209.367C110.705 206.952 102.305 210.795 98.3363 211.467C94.7243 212.076 86.5133 214.47 85.3163 215.772C84.4763 216.696 84.9383 217.221 86.0723 217.284C90.2723 215.856 89.7053 215.667 91.2173 215.184C99.9953 212.79 93.9473 214.806 103.208 212.139Z" fill="black"/>
<path d="M95.7971 145.402C94.4951 145.57 90.1691 146.515 89.4971 146.704C88.2581 147.019 84.3731 138.43 83.3861 141.622C80.9711 149.476 84.2891 148.195 78.1361 148.72C75.6161 148.93 75.5741 149.602 75.6371 150.82C75.6371 151.639 75.9311 151.807 77.4431 152.731C84.2681 156.931 81.2861 153.886 80.7191 161.656C80.7191 162.727 81.2651 163.231 82.1261 162.958C84.0791 162.307 87.1661 156.658 88.5941 157.393C90.6602 158.108 92.7632 158.71 94.8941 159.199C96.0911 159.535 96.5951 158.905 96.4481 157.981C96.2171 156.511 94.6001 155.881 92.9831 152.899C92.6261 152.206 92.7101 152.521 96.7211 147.712C97.4141 146.83 97.7291 145.171 95.7971 145.402ZM91.1771 153.802C93.1301 157.246 93.9281 156.931 90.1271 156.091C85.7171 155.104 87.7121 154.81 83.1341 159.451C82.5881 160.018 83.2391 157.708 83.4071 155.524C83.5961 152.92 78.5561 152.08 77.8211 150.715C78.1781 150.715 77.5481 150.715 80.7821 150.4C84.7721 150.064 82.8821 147.817 84.6251 144.247C86.0531 145.465 87.5231 149.119 88.8251 148.846C99.4721 146.368 88.8671 149.728 91.1771 153.802Z" fill="black"/>
<path d="M87.9458 40.0255C98.0888 39.5005 97.3748 24.6535 87.6308 24.8845C76.8998 26.1865 78.8528 40.4035 87.9458 40.0255ZM86.8328 26.9425C87.6505 26.7974 88.4901 26.8351 89.2915 27.0528C90.0929 27.2705 90.8362 27.6629 91.4681 28.2018C92.1 28.7407 92.6047 29.4127 92.9462 30.1697C93.2877 30.9267 93.4574 31.7499 93.4432 32.5802C93.429 33.4106 93.2312 34.2275 92.864 34.9723C92.4969 35.7172 91.9694 36.3716 91.3195 36.8885C90.6695 37.4055 89.9132 37.7722 89.1049 37.9624C88.2965 38.1526 87.456 38.1615 86.6438 37.9885C85.3668 37.7166 84.2242 37.0091 83.4114 35.9874C82.5987 34.9656 82.1665 33.693 82.1889 32.3877C82.2112 31.0823 82.6867 29.8253 83.5339 28.8319C84.3811 27.8385 85.5473 27.1706 86.8328 26.9425Z" fill="black"/>
<path d="M64.7814 179.717C63.3954 179.969 63.1224 181.817 64.9074 181.817C74.0214 181.67 74.4834 165.164 65.7054 165.29C64.7512 165.255 63.7983 165.39 62.8914 165.689C62.7654 164.492 64.9914 159.263 62.6394 155.189C60.0354 150.695 52.4964 150.989 50.0394 157.184C49.0963 159.864 48.6924 162.704 48.851 165.54C49.0096 168.376 49.7275 171.153 50.9634 173.711C51.4464 174.656 52.6644 174.11 52.3704 172.85C46.0704 154.937 58.3974 150.317 61.1694 156.785C63.4794 162.182 58.4814 168.146 60.6444 169.385C62.1774 170.246 62.9544 166.865 65.9154 167.285C69.7584 167.957 70.4514 172.136 69.8214 174.929C68.7504 179.528 65.8524 179.507 64.7814 179.717Z" fill="black"/>
<path d="M43.0422 163.756C31.3032 144.478 28.3422 110.773 42.8532 83.3053C46.191 77.4531 49.931 71.8396 54.0462 66.5053C55.9992 64.5943 54.0462 63.5863 52.9752 64.8043C40.8162 79.1893 31.2822 100.021 31.2822 118.795C31.2822 146.305 38.1702 159.703 41.6142 163.819C43.2942 165.751 44.1552 165.583 43.0422 163.756Z" fill="black"/>
<path d="M33.2992 180.346C22.7992 183.643 23.9962 171.463 34.3912 175.684C34.5194 175.762 34.663 175.811 34.8121 175.827C34.9611 175.843 35.1119 175.827 35.2539 175.779C35.3959 175.731 35.5257 175.653 35.6342 175.549C35.7428 175.446 35.8274 175.32 35.8822 175.18C36.4492 173.899 35.3362 173.584 34.2652 173.227C28.5322 171.316 34.9162 160.375 42.8542 173.731C43.5052 174.823 44.6182 174.067 44.3662 173.227C42.6862 167.242 35.9662 162.727 31.7662 166.402C30.8731 167.157 30.2757 168.204 30.0797 169.357C29.8837 170.51 30.1017 171.695 30.6952 172.702C25.7392 172.828 24.3952 174.802 23.8282 177.385C22.6942 183.475 32.5012 184.189 35.0002 181.795C35.9662 180.829 35.1682 179.758 33.2992 180.346Z" fill="black"/>
<path d="M19.0433 143.029C18.7283 142.399 18.5183 141.181 17.0693 142.063C11.1683 145.654 12.3653 145.087 10.7693 143.386C8.37526 140.887 7.76626 139.921 6.56926 140.215C6.04426 140.362 6.17026 141.433 6.29626 142C7.74526 148.72 8.20726 146.935 5.47726 147.943C4.84726 148.195 4.30126 148.489 1.73926 149.56C1.49799 149.67 1.29354 149.848 1.1502 150.071C1.00686 150.294 0.930664 150.554 0.930664 150.82C0.930664 151.085 1.00686 151.345 1.1502 151.568C1.29354 151.792 1.49799 151.969 1.73926 152.08C9.55126 154.999 7.78726 154.453 8.31226 157.75C8.92126 161.53 9.02626 162.475 9.82426 162.559C10.1496 162.602 10.4803 162.538 10.765 162.374C11.0498 162.211 11.2727 161.958 11.3993 161.656C14.6753 153.697 12.5333 155.797 15.5993 156.343C20.8703 157.288 21.1433 157.813 21.8993 156.889C22.6553 155.965 21.1223 154.6 20.3663 153.739C15.4103 148.027 16.8803 151.807 19.0433 143.029ZM17.4893 154.516C16.3673 154.432 15.2775 154.102 14.2973 153.55C11.6513 152.689 11.6513 157.981 10.6013 158.884C10.3471 157.774 10.2063 156.641 10.1813 155.503C10.1813 153.193 8.92126 153.025 5.09926 150.925C4.25926 150.442 6.17026 150.253 8.33326 149.161C10.4963 148.069 8.77426 145.969 8.73226 144.499C8.73226 143.617 10.2023 145.738 11.1263 146.893C12.5543 148.678 12.7223 145.843 16.7333 144.646C16.0613 148.111 13.7303 149.014 15.9773 151.408C19.2533 154.915 18.3713 154.6 17.4893 154.516Z" fill="black"/>
</svg>
