<svg width="420" height="414" viewBox="0 0 420 414" fill="none" xmlns="http://www.w3.org/2000/svg">
<path d="M137.866 279.848L144.691 300.176L153.616 295.598L144.355 276.383C144.355 276.383 138.307 279.512 137.866 279.848Z" fill="#8DE3A7"/>
<path d="M182.046 222.183C193.503 218.949 204.589 214.522 215.121 208.974L267.243 217.164C267.243 217.164 276.777 222.687 277.932 222.855C281.195 222.589 284.461 223.322 287.298 224.955C291.141 227.622 298.827 227.622 300.822 227.958C303.703 228.889 306.455 230.18 309.012 231.801C311.007 232.977 319.869 235.812 321.381 236.82C322.893 237.828 326.379 238.92 327.219 243.12C328.393 248.281 329.096 253.539 329.319 258.828C329.151 262.671 328.164 273.024 326.652 277.035C325.14 281.046 318.63 301.92 318.252 304.335C317.874 306.75 317.097 323.046 316.152 326.406C315.207 329.766 310.65 347.406 309.852 350.619C309.054 353.832 303.006 369.834 301.998 372.669C300.99 375.504 299.478 380.691 299.898 382.854C300.505 385.196 300.676 387.631 300.402 390.036C300.066 392.724 302.25 405.912 301.578 406.836C300.906 407.76 277.512 408.831 269.343 406.332C261.174 403.833 228.582 407.34 215.373 406.668C202.164 405.996 167.262 405.66 162.264 404.568C157.266 403.476 151.071 403.245 154.074 399.906C157.077 396.567 157.413 391.884 157.581 387.306C158.021 383.168 158.858 379.082 160.08 375.105L149.58 303.18L164.994 271.68L182.046 222.183Z" fill="#A4EAA0"/>
<path d="M327.051 201.601C329.676 203.449 329.34 203.05 327.051 203.344C324.762 203.638 323.565 203.722 323.292 205.213C323.068 206.427 322.723 207.616 322.263 208.762C322.155 208.682 322.057 208.591 321.969 208.489C317.769 202.315 321.024 203.911 313.317 203.281C311.784 203.281 316.005 201.853 317.244 199.081C317.706 198.052 315.543 194.209 316.761 194.881C320.457 196.834 319.26 196.12 319.722 196.393C321.108 197.254 325.224 193.873 326.799 193.411C327.282 196.813 323.397 198.913 327.051 201.601Z" fill="#FFEB8D"/>
<path d="M358.132 136.502C359.161 136.88 356.032 137.783 354.751 138.749C352.651 140.303 354.625 141.605 354.457 143.789C352.819 143.096 350.971 139.589 348.535 139.589C344.146 141.059 343.873 141.689 343.096 141.689C343.348 140.114 347.044 136.922 344.944 135.221C344.125 134.591 342.088 131.588 343.117 131.819C347.191 132.764 347.17 132.953 347.947 132.407C352.042 129.593 352.147 125.267 352.903 131.189C353.554 136.502 352.231 134.402 358.132 136.502Z" fill="#FFEB8D"/>
<path d="M353.033 67.3249C352.928 67.4719 352.844 67.6609 352.697 67.7239C347.405 70.4539 347.048 70.1179 347.363 71.9239C348.161 76.9009 347.972 76.1239 347.846 76.9849C342.239 71.9029 344.465 72.5539 343.646 72.4069C342.092 72.1759 339.194 73.9189 336.401 74.5069C335.435 74.5069 335.813 74.2969 338.228 70.3069C340.895 65.9599 327.917 60.8149 339.173 64.0069C341.273 64.6159 340.895 64.3219 344.717 59.1769C345.935 57.5179 345.158 65.0149 347.993 65.2669C348.98 65.2669 350.345 66.4429 352.592 66.9469C352.757 67.05 352.906 67.1774 353.033 67.3249Z" fill="#FFEB8D"/>
<path d="M135.81 158.762C146.478 156.368 135.81 159.728 138.183 163.718C140.136 167.162 140.934 166.847 137.133 166.007C132.723 165.02 134.718 164.726 130.14 169.367C129.594 169.934 130.245 167.624 130.413 165.44C130.602 162.836 125.562 161.996 124.827 160.631C125.184 160.631 124.554 160.631 127.788 160.316C131.778 159.98 129.888 157.733 131.631 154.163C133.059 155.402 134.529 159.035 135.81 158.762Z" fill="#FFEB8D"/>
<path d="M157.264 111.556C157.789 112.438 155.164 111.556 151.447 110.17C149.347 109.393 149.83 107.818 144.874 114.748C142.963 117.457 145.756 108.784 142.585 107.608C135.403 104.92 135.403 105.508 143.299 102.652C145.021 102.022 144.202 98.2628 145.399 95.0288C152.896 102.043 146.575 101.455 157.537 98.9348C155.92 103.261 152.56 104.5 154.492 106.747C155.564 108.259 156.492 109.869 157.264 111.556Z" fill="#FFEB8D"/>
<path d="M214.535 234.805C215.522 239.467 216.488 240.013 215.396 239.845C205.883 238.354 196.601 228.946 194.69 221.05C194.333 219.559 194.081 219.706 195.677 219.16C200.36 217.501 202.775 215.716 202.187 216.766C201.011 218.866 201.851 221.575 201.704 222.541C201.158 226.174 203.678 229.24 207.311 231.172C207.794 231.424 207.626 231.382 210.839 231.592C212.939 231.088 213.212 230.878 213.464 231.592C213.934 232.622 214.293 233.699 214.535 234.805Z" fill="#E7BCA5"/>
<path d="M289.376 74.9318C295.13 77.3468 296.747 77.7248 292.862 78.6908C290.426 78.1028 290.132 78.0608 288.662 75.0788C288.515 74.7008 288.977 74.7638 289.376 74.9318Z" fill="#D8E9FF"/>
<path d="M300.887 74.0059C301.244 74.0059 301.223 74.2579 301.076 74.4469C300.215 75.6019 299.228 77.3029 297.611 76.2739C293.411 73.5649 285.221 72.3259 287.468 68.8189C288.392 67.3909 287.636 69.0289 292.424 71.0869C297.611 73.3129 299.48 74.1739 300.887 74.0059Z" fill="#D8E9FF"/>
<path d="M302.611 69.4682C303.892 69.5942 302.317 71.8832 300.28 71.8412C296.899 70.6652 286.714 66.9272 289.528 64.7012C289.864 64.4492 289.696 63.7352 290.179 63.7772C291.019 63.7772 289.906 64.6592 295.471 66.8852C301.036 69.1112 301.519 69.3002 302.611 69.4682Z" fill="#D8E9FF"/>
<path d="M292.083 59.2852C303.213 67.6852 307.623 63.3592 304.263 67.2652C303.633 68.0002 301.197 66.7612 300.273 66.4252C295.779 64.7662 288.282 62.3722 292.083 59.2852Z" fill="#D8E9FF"/>
<path d="M321.528 44.357C322.179 44.546 321.696 46.079 321.108 45.764C318.882 44.63 320.751 44.105 321.528 44.357Z" fill="#FFEB8D"/>
<path d="M299.334 38.6004C298.179 39.5454 297.654 37.7184 298.41 37.5084C298.662 37.4454 299.103 38.2434 299.334 38.6004Z" fill="#FFEB8D"/>
<path d="M307.249 21.4232C333.268 21.2762 338.875 55.5062 311.827 58.5932C308.299 59.0132 307.627 58.0052 306.535 59.4122C304.561 62.2052 305.842 63.4652 304.225 63.0452C300.924 62.2018 297.777 60.841 294.901 59.0132C292.234 57.3962 297.001 56.9132 295.615 53.9102C294.229 50.9072 294.166 53.1962 291.982 49.7102C281.881 33.6032 296.203 20.8142 307.249 21.4232ZM320.227 48.1772C321.55 51.4532 325.666 43.7042 322.495 42.6752C319.324 41.6462 318.484 43.8722 317.98 43.7462C313.108 42.6542 316.132 43.2842 313.318 41.8352C312.016 41.1632 310.987 42.7382 309.937 41.2472C308.278 38.8532 309.475 41.2472 301.684 38.1392C301.138 37.9292 300.844 37.1732 300.424 36.6692C300.004 36.1652 299.353 36.1652 298.576 35.9552C296.308 35.3462 295.006 39.9872 298.576 40.5962C298.954 40.5962 299.227 40.5962 299.101 41.2472C298.303 44.6702 302.944 47.5472 302.02 49.2062C300.764 51.607 299.879 54.1842 299.395 56.8502C299.29 57.4802 299.857 57.1442 300.088 57.3332C300.97 58.0892 301.39 54.1412 303.658 49.8782C305.191 47.0432 300.739 44.2082 300.844 41.7722C300.97 38.6432 302.188 40.4282 305.044 41.3312C306.64 41.8352 307.858 41.3312 308.299 42.3812C308.584 42.9422 309.061 43.3823 309.643 43.6213C310.225 43.8603 310.873 43.8822 311.47 43.6832C313.402 43.1792 312.898 44.6702 315.166 45.1532C317.434 45.6362 317.413 45.5312 317.413 46.3712C317.413 46.6652 317.413 46.9802 317.056 47.0642C315.977 47.4326 314.947 47.9334 313.99 48.5552C312.793 49.1222 313.318 48.1562 311.323 49.4582C308.32 51.4112 308.824 50.1722 307.564 51.1592C305.464 52.8602 300.865 57.7112 302.335 58.8662C303.805 60.0212 303.973 56.9972 306.955 54.2672C309.937 51.5372 309.475 52.8602 310.483 52.1672C312.583 50.8652 312.877 50.6762 313.192 50.6552C314.998 50.5082 316.384 48.9962 317.749 48.8702C319.597 48.7022 319.114 47.0852 319.513 47.2112C319.912 47.3372 320.08 47.8202 320.227 48.1772Z" fill="#FFEB8D"/>
<path d="M140.234 40.8474C140.564 41.9385 140.555 43.1041 140.208 44.1899C139.861 45.2757 139.192 46.2306 138.29 46.9281C137.389 47.6255 136.297 48.0328 135.158 48.0959C134.02 48.159 132.89 47.8751 131.916 47.2816C130.943 46.688 130.173 45.813 129.708 44.7722C129.243 43.7314 129.105 42.574 129.313 41.4531C129.52 40.3322 130.063 39.3006 130.869 38.495C131.676 37.6893 132.708 37.1476 133.829 36.9414C135.189 36.6958 136.593 36.9578 137.773 37.6777C138.954 38.3975 139.829 39.5253 140.234 40.8474Z" fill="#C3A411"/>
<path d="M119.429 58.927C120.353 57.877 121.529 56.827 122.096 58.234C122.096 58.234 103.007 79.57 102.965 79.612C101.411 78.541 100.802 80.725 119.429 58.927Z" fill="#BED4FC"/>
<path d="M132.088 77.4897C132.466 78.3927 132.298 78.0567 119.068 91.1607C118.396 91.8537 118.711 91.8327 117.976 81.3117C117.976 80.3247 126.376 73.7517 129.085 70.5177C131.794 67.2837 131.08 67.8297 132.088 77.4897Z" fill="#C3A411"/>
<path d="M109.071 50.402C110.688 50.192 106.11 53.909 102.771 58.949C102.015 60.041 99.1592 63.863 98.0462 64.01C98.0462 64.01 87.5462 64.325 87.5462 64.262C87.2522 63.863 92.8592 58.508 98.0462 52.565C98.6972 51.578 98.6972 51.746 109.071 50.402Z" fill="#C3A411"/>
<path d="M160.123 19.9338C159.917 22.9052 159.266 25.8287 158.191 28.6068C153.13 40.9548 153.571 39.8418 152.185 37.3638C145.759 25.9188 136.855 24.7638 138.535 23.7348C142.794 20.5986 147.581 18.2515 152.668 16.8048C160.627 14.7048 159.745 16.8048 160.123 19.9338Z" fill="#C3A411"/>
<path d="M287.532 173.693C285.915 168.17 289.905 154.247 291.102 151.16C292.726 145.595 293.197 139.757 292.488 134.003C291.648 127.43 287.028 116.3 284.592 110.903C282.156 105.506 271.572 95.5101 268.212 92.9061C264.852 90.3021 248.745 83.5401 243.012 81.0201C237.279 78.5001 226.968 77.9331 226.968 77.9331C225.429 76.0078 223.282 74.6621 220.878 74.1165C218.475 73.571 215.957 73.8578 213.738 74.9301C207.438 77.7231 206.388 84.4431 205.842 84.5901C192.822 84.4431 190.995 94.9431 190.995 94.9431C186.165 99.8361 187.509 102.923 189.525 106.136C191.541 109.349 198.072 109.433 198.072 109.433C198.072 109.433 237.783 100.802 249.9 119.702C262.017 138.602 257.25 169.43 257.25 169.43L257.586 200.048C259.51 201.874 261.914 203.115 264.517 203.624C267.121 204.134 269.815 203.891 272.286 202.925C264.747 197.171 266.196 193.895 266.196 193.895C277.62 200.951 282.66 193.895 282.66 193.895C280.719 193.515 278.9 192.666 277.362 191.421C275.825 190.177 274.616 188.575 273.84 186.755C277.206 187.775 280.681 188.388 284.193 188.582C293.58 189.485 295.68 184.382 295.68 184.382C295.68 184.382 289.128 179.216 287.532 173.693Z" fill="#FFEB8D"/>
<path d="M207.102 189.001C206.515 188.346 206.19 187.497 206.19 186.617C206.19 185.738 206.515 184.889 207.102 184.234C194.187 176.275 196.959 169.702 194.187 171.025C191.215 172.337 188.04 173.132 184.8 173.377C183.96 173.629 187.131 179.047 194.124 181.378C200.046 183.352 187.824 189.001 185.955 189.148C182.91 189.379 195.762 197.086 203.049 192.172C203.22 192.033 203.431 191.951 203.651 191.939C203.871 191.926 204.089 191.983 204.275 192.102C204.461 192.22 204.605 192.394 204.686 192.599C204.768 192.804 204.783 193.029 204.729 193.243C204.138 196.178 203.082 198.999 201.6 201.601C205.233 202.252 209.391 199.858 212.415 197.8C213.213 197.275 212.919 196.351 213.234 195.7C213.36 195.406 210.714 193.453 207.102 189.001Z" fill="#FFEB8D"/>
<path d="M174.027 214.873C177.87 222.853 178.038 222.454 177.093 222.79L134.4 236.881C133.896 236.881 134.589 238.078 125.097 219.304C124.614 218.359 122.073 219.64 152.04 209.602C157.248 207.859 162.204 206.116 167.769 204.289C169.197 203.827 168 202.399 174.027 214.873ZM168.294 221.698C167.391 220.144 166.677 221.215 165.564 221.257C165.291 221.257 138.096 229.657 136.164 230.581C135.219 230.98 134.358 232.24 135.513 232.534C135.954 232.639 166.677 223.567 168.294 221.698ZM161.7 212.836C162.372 212.5 162.834 211.324 161.406 211.03C161.154 211.03 159.537 211.513 157.206 212.101C148.911 214.201 147.756 215.755 145.614 215.713C143.136 215.713 143.241 216.721 139.545 217.54C131.145 219.409 132.51 220.207 130.263 220.312C129.99 220.312 129.549 220.963 129.465 221.215C129.276 221.971 131.565 222.412 132.657 221.803C134.992 220.548 137.543 219.743 140.175 219.43C143.64 218.821 143.514 217.708 145.551 217.813C149.436 217.288 150.906 215.713 154.434 214.831C157.962 213.949 159.012 214.201 161.7 212.836ZM156.177 220.501C156.529 220.524 156.877 220.42 157.158 220.208C157.439 219.996 157.635 219.69 157.71 219.346C157.71 216.931 149.31 220.774 145.341 221.446C141.729 222.055 133.518 224.449 132.321 225.751C131.481 226.675 131.943 227.2 133.077 227.263C137.277 225.835 136.71 225.646 138.222 225.163C146.958 222.706 140.952 224.722 150.213 222.055C154.413 220.921 154.686 220.501 156.177 220.501Z" fill="white"/>
<path d="M140.7 271.552C141.33 272.833 139.02 273.547 137.676 273.799C136.878 273.274 138.642 276.193 119.406 237.448C107.1 212.962 107.1 213.949 108.36 213.949C114.912 213.97 104.769 199.501 140.7 271.552Z" fill="#C3A411"/>
<path d="M113.024 229.214C136.418 276.674 135.977 274.49 134.969 274.847C122.369 279.173 128.669 287.447 127.367 290.282C126.674 289.295 83.2667 200.36 82.9727 199.625C83.3087 199.499 82.1747 198.932 100.571 209.915C106.472 213.443 103.049 208.949 113.024 229.214Z" fill="#C3A411"/>
<path d="M177.659 205.946C170.498 191.099 170.981 191.981 170.393 192.191C164.093 194.438 131.123 205.379 125.558 207.206C111.845 211.742 112.706 210.86 113.546 212.498C145.676 275.309 140.846 271.76 144.521 270.773C148.826 270.668 145.949 277.829 146.096 278.207C146.243 278.585 147.293 281.21 147.881 281C149.15 280.449 150.447 279.965 151.766 279.551C154.735 279.112 157.626 278.257 160.355 277.01C166.235 274.007 166.319 283.436 158.885 287.069C156.874 288.292 154.715 289.252 152.459 289.925C152.081 289.925 151.997 290.219 152.165 290.555C153.677 293.747 153.299 293.495 154.265 293.495C165.605 293.495 164.261 291.668 172.115 290.009C174.425 289.505 175.391 292.34 174.488 294.209C174.278 294.629 174.635 294.587 175.076 294.461C175.076 294.461 212.876 283.268 214.514 282.743C216.152 282.218 215.375 284.108 177.659 205.946ZM178.499 224.447C178.163 224.573 139.103 237.53 134.399 238.916C132.656 238.727 132.992 239.672 123.269 219.449C121.967 216.761 120.245 218.021 168.104 202.103C169.994 201.473 169.91 202.103 172.535 207.479C179.633 222.053 181.187 223.523 178.499 224.447Z" fill="#C3A411"/>
<path d="M291.729 328.526C293.829 331.655 294.312 326.741 276.861 351.374C274.969 353.934 272.922 356.375 270.729 358.682C267.768 362.105 265.395 365.927 260.712 369.518C249.75 377.918 241.539 375.818 231.984 364.625C230.537 362.166 229.509 359.483 228.939 356.687C227.574 351.164 225.138 349.631 223.437 343.373C218.985 327.014 223.836 247.97 224.277 247.571C226.083 245.912 223.269 246.731 219.216 241.439C215.919 237.239 217.452 232.745 210.816 221.951C210.684 221.659 210.486 221.401 210.238 221.197C209.991 220.994 209.7 220.849 209.388 220.775C208.107 220.565 209.157 222.224 209.745 223.526C210.627 225.437 208.821 224.219 208.485 224.198C207.624 224.093 207.036 225.08 209.976 226.802C210.333 227.012 211.299 227.033 211.551 227.369C211.798 227.838 211.975 228.34 212.076 228.86C212.076 229.154 212.076 229.238 211.803 229.259C209.493 229.532 208.485 230.015 206.574 228.398C205.482 227.474 203.529 225.374 203.571 223.946C203.676 219.746 202.962 217.646 206.574 215.546C207.981 214.769 208.233 213.446 208.317 211.892C208.464 209.036 211.341 210.59 212.517 206.873C214.197 201.581 221.883 206.243 220.77 203.282C217.368 194.357 206.7 188.582 208.17 186.02C209.556 183.773 214.617 187.952 215.919 189.464C219.993 194.063 227.469 200.321 228.141 204.689C228.561 207.314 230.388 208.217 232.215 214.349C235.512 225.353 239.25 230.036 239.691 242.195C240.384 261.095 259.893 333.629 259.914 333.692C260.46 334.826 261.762 334.343 261.699 333.167C260.943 319.076 253.089 303.536 255.021 303.431C258.206 303.211 261.393 303.834 264.261 305.237C266.193 306.686 278.121 317.291 279.171 318.278C283.749 322.352 288.6 323.738 291.729 328.526Z" fill="#E7BCA5"/>
<path d="M267.958 150.385C276.82 142.888 287.299 148.978 278.458 163.132C276.694 165.925 274.93 168.34 267.223 171.532C257.206 175.732 256.009 150.091 255.82 196.732C255.82 209.962 257.248 213.931 275.833 222.94C276.568 223.297 270.121 228.106 270.079 228.127C258.886 236.149 265.459 232.327 253.069 237.304C250.969 238.102 242.296 241.693 242.149 240.37C240.469 226.321 237.109 223.108 234.799 214.876C232.699 207.61 230.347 205.762 230.137 203.326C229.843 199.756 221.737 192.826 220.75 191.566C220.393 191.146 220.435 190.978 220.96 190.789C244.627 183.082 241.036 177.223 238.642 178.63C233.77 181.465 211.951 189.277 201.787 177.622C190.636 164.812 190.384 142.069 195.004 143.497C196.914 143.919 198.902 143.81 200.754 143.18C202.605 142.551 204.248 141.426 205.504 139.927C206.722 138.709 205.504 143.35 211.384 144.421C212.602 144.652 213.064 143.161 212.329 142.804C210.544 141.901 208.864 141.481 207.898 138.478C207.142 136.147 214.408 138.016 214.198 132.556C214.198 131.107 212.791 131.065 212.476 132.367C211.909 134.614 212.476 134.278 209.116 134.908C208.822 134.908 208.738 134.908 208.843 134.551C210.691 128.734 210.103 127.075 211.993 125.668C212.812 125.19 213.744 124.94 214.692 124.945C215.641 124.95 216.57 125.21 217.383 125.697C218.197 126.184 218.864 126.881 219.316 127.714C219.768 128.548 219.988 129.488 219.952 130.435C220.225 137.302 226.882 147.361 234.652 147.067C245.656 146.626 248.827 135.286 250.822 134.047C252.145 133.207 253.531 133.732 259.117 137.155C260.755 138.142 255.988 148.096 263.758 151.498C264.577 151.855 262.792 152.947 264.787 153.598C265.018 153.85 266.152 151.897 267.958 150.385ZM278.017 156.979C278.308 156.392 278.429 155.736 278.366 155.084C278.303 154.433 278.059 153.811 277.661 153.291C277.263 152.771 276.728 152.373 276.115 152.141C275.503 151.91 274.838 151.854 274.195 151.981C270.793 152.716 267.076 157.042 268.882 160.549C269.491 161.746 268.882 164.224 267.622 164.518C265.123 165.064 264.955 163.888 264.346 165.022C263.737 166.156 265.081 167.122 266.446 167.122C270.772 167.122 272.221 162.166 270.835 159.499C270.657 159.208 270.553 158.879 270.531 158.538C270.509 158.198 270.57 157.857 270.709 157.546C271.591 155.446 275.98 151.477 276.4 157.105C276.505 157.693 277.576 157.903 278.017 156.979ZM211.741 159.352C211.741 158.596 211.279 156.391 209.515 156.349C207.415 156.349 207.1 159.478 208.612 161.011C209.515 161.956 211.237 162.166 211.741 159.352Z" fill="#E7BCA5"/>
<path d="M177.803 315.863C183.935 320.063 182.99 316.052 180.029 335.96C178.594 344.549 176.581 353.031 174.002 361.349C173.414 363.071 174.296 356.414 174.002 349.358C173.708 339.782 163.838 323.78 162.788 324.158C160.688 324.851 164.888 327.308 170.012 341.504C173.519 351.458 171.671 365.15 169.214 368.804C166.022 373.508 163.25 375.503 155.207 374.285C151.599 373.741 148.233 372.14 145.535 369.685C142.836 367.229 140.926 364.029 140.045 360.488C138.911 355.826 137.063 350.45 137.945 344.801C142.145 314.561 139.625 328.568 144.875 335.792H145.82C145.526 333.503 145.316 333.692 142.502 324.452C141.62 321.512 141.599 321.092 140.675 320.504C136.706 318.026 137.441 317.627 136.664 313.427C136.181 310.886 133.052 311.558 133.451 307.988C133.56 306.981 133.411 305.963 133.018 305.03C132.625 304.097 132 303.279 131.204 302.654C129.755 301.289 130.091 297.257 132.611 294.632C137.105 289.97 137.609 287.891 141.977 284.657C142.67 284.132 142.838 284.321 149.306 282.809C150.713 282.473 149.852 282.137 152.813 281.612C160.73 280.184 162.725 277.412 162.641 279.176C162.46 280.596 161.886 281.938 160.985 283.051C160.083 284.164 158.89 285.003 157.538 285.476C155.836 286.467 154.034 287.277 152.162 287.891C139.562 290.747 140.234 299.189 142.292 296.774C144.98 293.624 144.581 292.973 145.589 294.821C146.345 296.207 145.967 295.577 143.489 297.803C141.389 299.693 134.375 305.363 137.777 304.859C138.26 304.859 138.533 304.544 142.985 300.806C146.156 298.118 147.437 295.703 157.685 295.598C163.586 295.598 168.185 292.889 172.196 292.112C173.729 291.797 173.33 296.711 162.578 299.609C160.232 300.549 157.798 301.252 155.312 301.709C153.346 301.807 151.45 302.471 149.852 303.62C148.382 305.006 147.29 305.72 148.046 306.497C148.319 306.791 148.571 307.022 148.97 306.602C151.511 303.956 154.136 304.082 159.47 303.011C161.066 302.696 160.73 301.898 163.271 301.646C165.87 301.199 168.443 300.61 170.978 299.882C173.078 299.882 171.461 304.334 160.478 308.576C155.165 310.676 152.666 311.243 150.797 314.036C150.293 314.792 149.873 315.926 150.797 316.346C152.33 317.039 151.406 313.826 156.887 311.831C157.832 311.495 158.063 311.411 158.399 315.611C159.113 324.725 155.753 328.715 155.48 332.411C155.48 332.915 156.068 333.566 156.698 332.789C157.652 330.733 158.5 328.631 159.239 326.489C163.943 312.419 152.939 307.841 167.639 312.356C174.296 314.414 175.22 314.099 177.803 315.863Z" fill="#E7BCA5"/>
<path d="M143.804 273.212C146.66 272.561 144.287 278.735 139.058 281.612C134.858 283.985 134.438 284.216 133.85 284.93C133.262 285.644 133.85 286.547 134.396 286.358C137.84 285.35 143.552 279.197 131.834 292.658C129.062 295.85 129.482 296.081 129.104 293.267C129.129 292.197 129.228 291.131 129.398 290.075C129.923 287.576 127.172 281.675 130.112 279.806C133.917 277.492 137.958 275.591 142.166 274.136C142.672 273.762 143.223 273.451 143.804 273.212Z" fill="#E7BCA5"/>
<path d="M195.972 117.602C195.972 117.308 197.652 109.202 199.71 106.241C201.768 103.28 208.824 95.7408 208.824 95.7408C208.824 95.7408 214.074 98.4708 214.557 93.6408C214.557 93.6408 216.531 95.5098 218.757 92.0448C220.983 88.5798 226.8 88.9368 228.9 89.8608C231 90.7848 236.775 91.8348 239.967 97.1898C243.159 102.545 254.1 121.214 256.053 123.902C258.006 126.59 264.201 134.402 259.602 135.725L251.202 130.937C251.202 130.937 248.283 122.39 240.954 121.172C233.625 119.954 224.91 119.219 221.34 125.372C221.34 125.372 214.305 121.172 209.412 125.645C209.412 125.645 208.299 119.072 202.188 118.043C196.077 117.014 195.972 117.602 195.972 117.602Z" fill="#E7BCA5"/>
<path d="M55.3371 157.881L54.3501 151.938L59.0751 155.928L65.1651 153.072L63.1071 159.855L67.4331 166.155L60.2091 164.916L57.3531 171.3L55.5261 163.635L49.2471 160.653L55.3371 157.881Z" fill="#FFEB8D"/>
<path d="M357.795 156.095C347.988 163.907 346.938 178.88 342.003 175.289C336.354 171.089 332.742 166.7 332.574 160.4C332.574 158.657 331.629 156.956 329.949 157.586C328.584 158.181 327.181 158.686 325.749 159.098C320.94 160.358 321.129 155.99 318.903 158.027C318.006 158.647 317.169 159.35 316.404 160.127C315.711 160.757 316.047 160.4 314.451 159.203C312.855 158.006 310.545 159.644 310.86 160.568C311.013 160.792 311.237 160.958 311.497 161.038C311.756 161.119 312.035 161.108 312.288 161.009C313.527 160.463 313.716 161.639 314.976 162.647C317.076 164.348 318.735 158.804 320.541 160.085C323.544 162.185 324.909 161.471 329.487 159.917C332.322 158.972 326.883 165.251 338.244 174.89C344.544 180.287 345.615 178.586 350.55 168.716C352.356 165.104 355.905 159.224 359.118 157.25C360.441 156.431 361.995 156.011 365.229 158.3C372.81 163.676 369.429 165.041 368.442 167.372C368.274 167.792 369.177 168.548 369.576 168.002C372.075 164.579 371.382 165.65 371.907 163.991C371.004 158.783 362.499 152.357 357.795 156.095Z" fill="black"/>
<path d="M354.65 129.321C354.482 128.271 354.146 127.221 353.936 126.192C353.911 125.943 353.812 125.708 353.651 125.517C353.489 125.325 353.274 125.188 353.033 125.121C352.214 124.869 352.109 125.331 349.295 128.67C346.796 131.631 348.287 131.127 342.155 129.615C341.817 129.675 341.496 129.81 341.216 130.01C340.936 130.21 340.705 130.469 340.538 130.77C340.118 131.379 340.16 131.61 342.029 134.634C343.625 137.217 344.129 136.587 343.373 137.7C339.404 143.643 337.619 145.596 344.927 142.929C349.127 141.417 348.959 141.186 349.568 141.795C352.403 144.63 356.309 149.418 356.54 145.407C356.64 143.833 356.396 142.257 355.826 140.787C355.532 139.275 361.307 138.498 361.643 136.335C361.672 136.241 361.68 136.143 361.669 136.045C361.658 135.948 361.626 135.854 361.577 135.769C361.528 135.685 361.462 135.611 361.383 135.553C361.304 135.495 361.214 135.454 361.118 135.432C353.117 132.597 355.595 135.369 354.65 129.321ZM354.755 138.708C352.655 140.262 354.629 141.564 354.461 143.748C352.823 143.055 350.975 139.548 348.539 139.548C344.15 141.018 343.877 141.648 343.1 141.648C343.352 140.073 347.048 136.881 344.948 135.18C344.129 134.55 342.092 131.547 343.121 131.778C347.195 132.723 347.174 132.912 347.951 132.366C352.046 129.552 352.151 125.226 352.907 131.148C353.558 136.482 352.235 134.298 358.136 136.44C359.102 136.839 356.078 137.742 354.755 138.708Z" fill="black"/>
<path d="M328.439 95.1759C328.607 103.576 333.878 107.776 325.058 106.642C311.534 104.878 308.825 101.623 310.106 111.451C310.274 112.774 310.337 112.354 303.806 115C300.53 116.344 302.021 118.003 303.806 117.31C309.77 114.874 312.395 114.517 312.206 111.913C311.786 107.314 311.198 106.495 312.941 106.789C324.722 108.679 326.717 109.12 328.838 108.889C337.112 108.007 326.57 94.8399 332.219 92.0889C336.188 90.1149 337.511 93.2649 356.558 100.846C357.608 101.266 358.658 101.686 358.994 100.699C359.33 99.7119 358.364 99.6489 357.839 99.4389C338.939 91.6899 340.871 91.3119 336.839 89.9889C335.951 89.5737 334.975 89.3859 333.997 89.4425C333.019 89.499 332.071 89.7981 331.237 90.3127C330.404 90.8274 329.711 91.5414 329.223 92.3904C328.734 93.2394 328.465 94.1967 328.439 95.1759Z" fill="black"/>
<path d="M336.584 69.4471C335.009 72.0301 331.355 77.6581 334.736 76.8181C335.996 76.5241 338.411 76.0621 338.936 75.8521C342.149 74.7601 342.254 74.3191 342.695 74.7811C346.895 78.9811 349.898 83.5801 349.688 75.8941C349.562 72.2821 348.764 71.6941 349.793 71.2951C351.158 70.7071 353.867 69.1951 354.623 69.0061C357.206 68.2291 357.332 66.5491 356.219 66.0451C355.106 65.5411 352.019 64.9531 350.108 64.1341C347.063 62.7691 348.365 64.6381 346.412 56.9101C346.366 56.6802 346.249 56.4707 346.076 56.3115C345.904 56.1523 345.686 56.0515 345.453 56.0236C345.221 55.9956 344.985 56.0419 344.78 56.1559C344.575 56.2698 344.411 56.4456 344.312 56.6581C344.06 56.9941 343.178 58.2541 340.49 62.2021C339.86 63.1471 333.833 59.9761 332.846 61.1521C330.368 64.0291 337.403 68.1031 336.584 69.4471ZM339.104 64.1131C341.204 64.7221 340.826 64.4281 344.648 59.2831C345.866 57.6241 345.089 65.1211 347.924 65.3731C348.89 65.3731 350.276 66.5491 352.523 67.0531C352.704 67.1186 352.874 67.2106 353.027 67.3261C352.922 67.4731 352.838 67.6621 352.691 67.7251C347.399 70.4551 347.042 70.1191 347.357 71.9251C348.155 76.9021 347.966 76.1251 347.84 76.9861C342.233 71.9041 344.459 72.5551 343.64 72.4081C342.086 72.1771 339.188 73.9201 336.395 74.5081C335.429 74.5081 335.807 74.2981 338.222 70.3081C340.826 66.0031 327.848 60.9001 339.104 64.1131Z" fill="black"/>
<path d="M286.944 74.2567C286.85 75.0767 286.929 75.9072 287.175 76.695C287.421 77.4828 287.829 78.2105 288.373 78.8314C288.916 79.4523 289.584 79.9526 290.332 80.3004C291.081 80.6481 291.894 80.8356 292.719 80.8507C295.785 81.1237 297.024 78.4987 298.179 78.7507C300.762 79.2547 302.82 76.3987 302.904 74.3617C302.904 73.2907 303.702 72.5767 304.122 71.5477C304.542 70.5187 303.996 69.8677 304.542 69.6997C305.345 69.147 305.993 68.397 306.424 67.5218C306.854 66.6466 307.052 65.6755 306.999 64.7017C306.999 64.4287 307.713 63.4627 306.999 62.6017C306.852 62.4127 307.566 61.2787 307.734 61.1107C307.902 60.9427 327.894 62.5387 331.401 44.9197C336.525 19.1737 295.176 8.75773 287.469 33.4957C283.269 46.8097 294.189 53.8657 293.538 55.2307C291.837 58.7377 290.745 57.3307 290.115 58.8637C288.435 62.7487 290.115 62.2657 289.212 62.7487C286.188 64.3027 287.868 66.2137 286.818 66.9487C285.998 67.5507 285.443 68.4456 285.267 69.4471C285.091 70.4486 285.308 71.4794 285.873 72.3247C286.692 73.2907 287.112 73.5007 286.944 74.2567ZM292.866 78.6877C290.43 78.0997 290.136 78.0577 288.666 75.0757C288.477 74.6977 288.939 74.7607 289.338 74.9287C295.134 77.3227 296.751 77.7007 292.866 78.6877ZM291.9 49.7077C281.799 33.6847 296.1 20.8117 307.167 21.4207C333.186 21.2737 338.793 55.5037 311.745 58.5907C308.217 59.0107 307.545 58.0027 306.453 59.4097C304.479 62.2027 305.76 63.4627 304.143 63.0427C300.842 62.1993 297.695 60.8385 294.819 59.0107C292.152 57.3937 296.919 56.9107 295.533 53.9077C294.147 50.9047 294.168 53.1937 291.9 49.7077ZM292.005 59.2837C303.135 67.6837 307.545 63.3577 304.185 67.2637C303.555 67.9987 301.119 66.7597 300.195 66.4237C295.785 64.7647 288.288 62.3707 292.089 59.2837H292.005ZM289.443 64.7017C289.779 64.4497 289.611 63.7357 290.094 63.7777C290.934 63.7777 289.821 64.6597 295.386 66.8857C300.951 69.1117 301.434 69.3637 302.526 69.4687C303.618 69.5737 302.4 71.8837 300.3 71.8417C296.898 70.6657 286.734 66.9277 289.527 64.7017H289.443ZM287.343 68.9017C288.267 67.4737 287.511 69.1117 292.299 71.1697C297.486 73.4167 299.355 74.2567 300.699 74.0887C301.056 74.0887 301.035 74.3407 300.888 74.5297C300.027 75.6847 299.04 77.3857 297.423 76.3567C293.328 73.5007 285.222 72.3247 287.469 68.8177L287.343 68.9017Z" fill="black"/>
<path d="M328.461 200.258C326.823 199.208 327.453 199.082 327.81 197.528C329.259 191.228 329.196 191.669 329.112 191.228C329.102 191.05 329.043 190.879 328.941 190.732C328.84 190.586 328.7 190.471 328.537 190.399C328.374 190.327 328.194 190.302 328.018 190.326C327.841 190.35 327.675 190.422 327.537 190.535C325.437 192.194 323.043 193.181 320.901 194.735C319.914 195.407 316.596 192.047 315.84 192.341C314.727 192.803 313.908 193.349 314.265 194.714C315.756 200.111 315.294 199.544 314.517 200.048C312.228 201.518 310.317 202.148 310.464 204.017C310.464 205.529 315.042 205.424 316.764 205.445C318.486 205.466 318.129 206.201 318.717 207.167C321.342 211.493 322.917 213.992 324.219 209.078C325.353 205.004 323.946 205.445 330.918 205.214C333.9 204.983 331.653 202.295 328.461 200.258ZM326.97 203.303C324.513 203.618 323.484 203.681 323.211 205.172C322.987 206.386 322.642 207.575 322.182 208.721C322.074 208.641 321.976 208.549 321.888 208.448C317.688 202.274 320.943 203.87 313.236 203.24C311.703 203.24 315.924 201.812 317.163 199.04C317.625 198.011 315.462 194.168 316.68 194.84C320.376 196.793 319.179 196.079 319.641 196.352C321.027 197.213 325.143 193.832 326.718 193.37C327.285 196.835 323.295 198.935 327.054 201.581C329.7 203.408 329.343 203.009 326.97 203.303Z" fill="black"/>
<path d="M305.044 228.672C299.08 225.522 294.271 227.874 286.921 223.716C284.81 222.237 282.244 221.552 279.676 221.784C277.891 222.246 262.393 215.484 259.054 208.134C258.348 206.216 257.978 204.192 257.962 202.149C257.815 200.553 265.669 207.399 273.271 203.661C273.468 203.592 273.641 203.468 273.77 203.303C273.899 203.139 273.978 202.942 273.997 202.734C274.017 202.526 273.977 202.317 273.882 202.132C273.787 201.946 273.641 201.792 273.46 201.687C270.707 200.531 268.386 198.541 266.824 195.996C266.572 195.576 266.278 194.736 267.244 195.387C275.791 201.204 287.005 194.988 283.582 193.287C280.539 192.515 277.836 190.758 275.896 188.289C275.476 187.764 275.896 187.848 276.148 187.995C282.448 190.809 291.31 190.41 296.308 185.601C298.912 183.081 290.554 182.01 288.727 172.182C286.9 162.354 292.927 155.907 293.977 139.128C294.523 130.392 288.013 114.201 283.897 108.153C272.704 91.7305 256.597 83.7085 236.5 77.9965C231.743 76.9015 226.784 77.0388 222.094 78.3955C221.254 78.7315 221.443 80.1175 222.451 79.9705C229.704 78.3691 237.287 79.3031 243.934 82.6165C252.124 86.4805 268.315 90.1345 280.6 107.418C307.564 145.218 274.3 164.118 290.953 181.38C294.46 185.013 294.964 184.425 293.305 185.412C290.331 187.075 286.949 187.871 283.545 187.708C280.14 187.544 276.85 186.429 274.048 184.488C272.746 183.648 271.402 184.488 272.095 186.063C275.014 193.119 282.112 194.043 280.285 194.673C270.625 197.928 266.719 192.006 265.354 191.25C262.456 189.696 261.931 195.996 269.911 202.065C271.57 203.325 257.626 202.254 257.752 197.697C258.907 159.309 255.211 176.151 266.362 174.597C275.623 173.274 286.312 160.149 283.75 150.888C282.028 144.735 276.337 145.449 274.909 144.42C261.07 134.487 253.72 131.421 249.709 125.121C244.963 117.687 227.26 115.125 221.023 123.882C220.792 124.218 220.603 124.302 220.288 123.882C219.712 123.19 218.999 122.623 218.195 122.217C217.391 121.811 216.512 121.575 215.613 121.521C214.713 121.468 213.813 121.6 212.966 121.908C212.12 122.217 211.346 122.695 210.691 123.315C210.418 123.609 210.292 123.609 210.187 123.189C209.095 118.695 202.984 116.574 197.965 116.301C197.188 116.301 197.041 116.574 199.057 111.345C199.435 110.379 201.619 110.169 204.853 112.479C207.772 114.285 205.735 107.523 201.094 107.628C198.994 107.628 207.226 98.6185 208.507 97.1275C209.179 96.3715 209.368 97.6735 211.027 97.8205C211.72 97.8205 212.161 96.7285 211.321 96.0775C200.548 87.6775 211.972 70.4155 222.136 75.9805C224.236 77.1775 225.265 74.9515 223.228 73.8805C216.046 70.3735 207.919 75.1615 205.651 83.0155C205.357 83.9815 205.294 82.8685 200.401 84.0025C198.21 84.52 196.195 85.6087 194.56 87.158C192.926 88.7072 191.732 90.6617 191.098 92.8225C190.814 93.8139 190.262 94.7077 189.502 95.4055C184.672 100.614 186.982 107.25 192.484 108.909C192.883 109.035 194.458 109.224 194.584 108.489C194.92 107.271 193.933 107.25 193.156 107.019C185.806 104.814 190.111 94.9225 190.93 98.4295C191.749 101.937 196.495 106.347 197.524 104.541C198.553 102.735 190.048 100.551 193.198 92.6755C195.676 86.3755 205.063 84.2755 205.042 86.7325C204.916 94.5025 208.36 95.1325 207.52 96.0145C203.32 100.404 201.22 101.958 198.637 107.418C198.451 107.889 198.1 108.277 197.65 108.51C194.479 109.98 193.303 114.81 194.521 114.096C197.125 112.353 196.285 112.458 195.634 115.713C195.319 117.246 193.219 115.839 187.927 118.695C178.498 123.903 183.076 136.272 191.098 141.753C194.143 143.853 185.092 146.772 194.08 168.339C194.122 168.408 194.147 168.487 194.152 168.568C194.157 168.649 194.143 168.73 194.11 168.804C194.077 168.879 194.026 168.944 193.963 168.994C193.899 169.045 193.824 169.079 193.744 169.095C190.441 170.581 186.866 171.368 183.244 171.405C181.984 171.279 182.026 172.665 182.404 173.673C185.533 182.073 194.206 182.85 192.568 183.816C185.953 187.764 186.1 187.029 184.336 187.449C184.011 187.48 183.712 187.64 183.503 187.891C183.295 188.143 183.194 188.467 183.223 188.793C183.076 190.494 184.399 191.46 186.247 192.783C194.143 198.411 201.913 194.883 202.312 195.261C201.691 197.378 200.687 199.363 199.351 201.12C196.453 204.795 204.706 205.32 211.573 200.994C211.697 200.962 211.827 200.962 211.951 200.994C211.716 202.519 211.379 204.028 210.943 205.509C209.935 208.848 207.394 207.609 206.428 211.074C205.567 214.287 189.271 218.781 187.15 220.125C186.457 220.545 186.961 220.86 180.619 207.903C171.631 189.612 172.219 189.633 169.909 190.41C164.533 192.132 166.402 193.035 163.042 186.21C161.32 182.703 122.029 192.951 109.975 207.294C107.434 210.444 108.967 211.221 109.828 210.444C110.311 210.024 113.671 203.388 132.571 195.219C141.537 191.333 151.001 188.717 160.69 187.449C161.782 187.323 161.341 187.008 163.504 191.796C164.05 193.014 111.55 209.205 110.248 210.864C108.946 212.523 106.048 211.998 106.93 211.326C107.125 211.193 107.262 210.991 107.313 210.76C107.364 210.53 107.325 210.289 107.203 210.087C103.003 200.364 98.2154 199.587 98.8034 197.487C98.8034 197.088 96.9554 192.741 97.2914 192.111C97.6274 191.481 107.539 200.301 107.203 206.118C107.203 207.588 109.555 208.218 109.177 205.53C108.106 197.655 97.6274 186.945 94.8554 190.347C94.3724 190.914 96.4094 195.051 96.4514 196.29C95.1074 195.891 87.7364 189.99 85.4054 192.909C84.8804 193.539 85.1324 193.623 88.4084 199.671C89.2274 201.204 86.8754 199.482 84.5444 198.096C77.5514 193.896 80.3444 197.949 84.0614 205.824C125.452 291.063 128.749 296.124 128.329 298.476C128.116 299.732 128.23 301.021 128.661 302.221C129.091 303.42 129.823 304.488 130.786 305.322C131.112 305.658 131.347 306.071 131.468 306.523C131.589 306.975 131.593 307.451 131.479 307.905C131.248 313.092 134.965 312.252 134.923 315.15C134.946 317.119 135.693 319.01 137.023 320.463C140.215 322.794 138.85 318.237 136.015 344.277C135.217 351.564 137.485 357.506 138.724 362.021C141.349 371.429 151.324 376.595 158.254 376.721C158.968 376.721 159.262 376.469 158.254 379.598C155.041 389.657 159.115 391.736 154.285 397.91C153.431 399.152 152.937 400.606 152.857 402.111C152.884 402.311 152.979 402.497 153.127 402.635C153.274 402.774 153.465 402.858 153.667 402.873C153.869 402.888 154.07 402.833 154.236 402.717C154.402 402.601 154.524 402.431 154.579 402.236C155.587 398.477 158.779 396.84 158.905 391.59C158.905 390.665 159.031 384.87 159.241 383.988C161.11 375.903 160.711 376.743 161.782 376.575C168.607 375.483 170.056 371.661 173.899 366.453C176.587 362.799 182.299 338.439 184.084 321.282C184.084 320.61 184.084 319.917 184.693 319.455C185.302 318.993 188.326 300.24 188.263 298.455C188.263 297.762 187.045 297.489 186.793 298.119C186.1 299.778 185.05 310.068 183.727 316.893C183.58 317.732 183.244 317.208 180.094 314.982C175.894 312 175.285 312.714 170.056 311.223C161.656 308.766 163.756 310.005 168.439 307.023C174.739 302.949 174.319 299.148 173.605 298.245C172.891 297.342 170.623 297.867 173.605 297.006C201.388 288.963 212.035 285.939 215.836 284.406C218.461 283.398 217.936 283.104 217.306 282.432C217.306 282.432 213.316 274.326 187.906 222.603C187.528 221.805 187.297 222.099 192.337 220.503C192.673 220.503 192.778 220.503 192.841 220.86C194.094 226.351 197.03 231.314 201.241 235.056C212.518 244.527 216.655 241.23 217.516 242.679C224.677 254.88 221.023 226.278 219.616 314.373C219.616 347.868 222.577 345.872 226.567 355.68C226.882 356.414 228.667 364.08 229.906 365.445C242.191 379.998 252.019 379.746 262.813 370.947C271.864 363.576 287.047 339.741 288.223 340.644C289.399 341.547 291.331 341.63 293.179 342.891C295.678 344.591 299.584 346.25 302.461 345.41C304.834 344.717 304.204 346.355 316.531 310.131C317.182 308.199 315.964 325.881 311.848 341.988C306.178 364.122 297.148 376.763 299.248 385.205C300.088 388.481 298.639 389.658 299.248 395.034C301.348 410.574 300.319 409.586 301.999 409.733C303.679 409.88 301.81 397.659 301.663 396.945C300.382 390.414 302.041 388.544 301.18 384.932C298.954 375.714 311.197 360.888 316.636 328.506C319.03 314.331 317.203 308.808 322.054 295.095C328.102 278.127 332.008 266.178 329.173 248.286C327.073 235.203 323.02 238.164 305.044 228.672ZM108.358 213.972C114.91 213.972 104.725 199.482 140.635 271.575C141.265 272.856 138.955 273.57 137.611 273.822C136.813 273.297 138.577 276.216 119.341 237.471C107.098 212.964 107.098 213.951 108.358 213.951V213.972ZM87.6104 194.463C90.4034 194.127 102.31 202.254 105.187 210.36C100.295 207.926 95.5977 205.118 91.1384 201.96C90.7394 200.259 87.9674 195.681 87.6104 194.442V194.463ZM127.363 290.307C126.67 289.299 83.2634 200.385 82.9694 199.65C83.3054 199.524 82.1714 198.957 100.567 209.94C106.468 213.468 103.045 208.995 113.02 229.239C136.414 276.699 135.973 274.515 134.965 274.872C122.386 279.177 128.644 287.43 127.363 290.286V290.307ZM129.106 293.331C129.131 292.261 129.23 291.195 129.4 290.139C129.925 287.64 127.174 281.739 130.114 279.87C133.919 277.556 137.96 275.655 142.168 274.2C142.672 273.811 143.222 273.486 143.806 273.234C146.662 272.604 144.289 278.757 139.06 281.634C134.86 284.007 134.44 284.238 133.852 284.952C133.264 285.666 133.852 286.569 134.398 286.38C137.842 285.372 143.554 279.219 131.836 292.68C129.064 295.893 129.484 296.103 129.106 293.31V293.331ZM145.192 280.73C145.549 281.613 145.423 281.466 142.147 282.117V281.949C143.974 280.835 144.247 279.576 144.604 279.66C144.961 279.744 144.898 280.08 145.192 280.794V280.73ZM162.496 299.505C160.15 300.444 157.716 301.148 155.23 301.605C153.264 301.703 151.369 302.366 149.77 303.516C148.3 304.902 147.208 305.616 147.964 306.393C148.237 306.687 148.489 306.918 148.888 306.498C151.429 303.852 154.054 303.978 159.388 302.907C160.984 302.592 160.648 301.794 163.189 301.542C165.789 301.095 168.362 300.506 170.896 299.778C172.996 299.778 171.379 304.23 160.396 308.472C155.062 310.572 152.584 311.139 150.715 313.932C150.211 314.688 149.791 315.822 150.715 316.242C152.248 316.935 151.324 313.722 156.805 311.727C157.75 311.391 157.981 311.307 158.317 315.507C159.031 324.621 155.671 328.611 155.398 332.307C155.398 332.811 155.986 333.462 156.616 332.685C157.246 331.908 158.947 326.931 159.157 326.385C163.861 312.315 152.857 307.737 167.557 312.252C174.298 314.352 175.138 313.995 177.721 315.759C183.853 319.959 182.908 315.947 179.947 335.855C178.513 344.445 176.499 352.927 173.92 361.245C173.332 362.966 174.214 356.31 173.92 349.254C173.626 339.678 163.756 323.676 162.706 324.054C160.606 324.747 164.806 327.204 169.93 341.4C173.437 351.354 171.589 365.046 169.132 368.7C165.94 373.404 163.168 375.398 155.125 374.18C151.517 373.637 148.152 372.036 145.453 369.58C142.754 367.125 140.844 363.924 139.963 360.384C138.829 355.722 136.981 350.345 137.863 344.697C142.063 314.457 139.543 328.464 144.793 335.688H145.738C145.444 333.399 145.234 333.587 142.42 324.348C141.538 321.408 141.517 320.988 140.593 320.4C136.624 317.922 137.359 317.523 136.582 313.323C136.099 310.782 132.97 311.454 133.369 307.884C133.478 306.877 133.329 305.859 132.936 304.926C132.543 303.992 131.919 303.175 131.122 302.55C129.673 301.185 130.009 297.153 132.529 294.528C137.023 289.866 137.527 287.787 141.895 284.553C142.588 284.028 142.756 284.217 149.224 282.705C150.631 282.369 149.77 282.033 152.731 281.508C160.648 280.08 162.643 277.308 162.559 279.072C162.378 280.492 161.805 281.834 160.903 282.947C160.002 284.06 158.808 284.899 157.456 285.372C155.754 286.363 153.952 287.172 152.08 287.786C139.48 290.643 140.152 299.085 142.21 296.67C144.898 293.52 144.499 292.868 145.507 294.717C146.263 296.103 145.885 295.473 143.407 297.699C141.307 299.589 134.293 305.258 137.695 304.755C138.178 304.755 138.451 304.44 142.903 300.702C146.074 298.014 147.355 295.599 157.603 295.494C163.504 295.494 168.103 292.785 172.114 292.008C173.647 291.756 173.248 296.67 162.496 299.568V299.505ZM148.006 294.842C147.733 294.59 147.859 294.99 146.662 292.554C146.389 291.966 146.851 291.798 149.791 290.895C150.169 290.769 150.505 291.462 151.366 293.373C151.555 293.877 151.198 294.003 148.006 294.906V294.842ZM214.408 282.747C212.728 283.272 175.033 294.444 174.97 294.465C174.529 294.591 174.172 294.633 174.382 294.213C175.285 292.281 174.382 289.446 172.009 290.013C164.155 291.672 165.499 293.478 154.159 293.499C153.298 293.499 153.676 293.751 152.059 290.559C151.891 290.223 152.059 290.013 152.353 289.929C154.609 289.255 156.768 288.295 158.779 287.073C166.213 283.44 166.129 274.011 160.249 277.014C157.52 278.26 154.629 279.115 151.66 279.555C150.341 279.968 149.044 280.452 147.775 281.004C147.187 281.214 146.263 278.904 145.99 278.211C145.717 277.518 148.72 270.672 144.415 270.777C140.74 271.764 145.57 275.313 113.44 212.502C112.6 210.864 111.739 211.746 125.452 207.21C131.017 205.383 164.071 194.442 170.287 192.195C170.875 191.985 170.287 191.103 177.553 205.95C215.374 284.112 215.962 282.327 214.408 282.81V282.747ZM261.091 139.254C261.091 138.414 260.671 138.414 270.961 145.092C272.305 145.953 269.176 145.596 265.984 149.292C265.375 150.006 265.354 149.964 264.472 149.544C260.65 147.843 260.545 143.685 261.091 139.317V139.254ZM224.026 123.903C228.226 120.459 241.876 120.543 247.126 126.486C251.704 131.694 240.364 150.741 229.171 142.908C223.795 139.149 218.797 128.103 224.026 123.903ZM196.894 133.437C196.894 132.387 195.718 119.325 197.419 119.409C200.613 119.295 203.769 120.128 206.491 121.803C211.006 124.764 205.882 145.218 194.878 141.165C193.702 140.703 196.81 137.952 196.894 133.437ZM191.098 120.438C192.19 120.102 193.198 119.85 194.416 119.556C194.794 119.556 194.983 119.556 194.941 119.976C193.849 129.447 196.915 132.135 193.282 139.401C192.862 140.283 192.778 140.325 192.064 139.758C183.265 132.576 180.808 123.651 191.098 120.438ZM194.983 143.538C196.893 143.96 198.881 143.85 200.733 143.221C202.584 142.591 204.227 141.466 205.483 139.968C206.68 138.75 205.483 143.391 211.363 144.462C212.581 144.693 213.043 143.202 212.308 142.845C210.523 141.942 208.843 141.522 207.877 138.519C207.121 136.188 214.387 138.057 214.177 132.597C214.177 131.148 212.77 131.106 212.455 132.408C211.888 134.655 212.455 134.319 209.095 134.949C208.801 134.949 208.717 134.949 208.822 134.592C210.67 128.775 210.082 127.116 211.972 125.709C212.791 125.23 213.723 124.98 214.671 124.985C215.619 124.99 216.549 125.25 217.362 125.737C218.176 126.224 218.843 126.921 219.295 127.755C219.747 128.588 219.967 129.528 219.931 130.476C220.204 137.343 226.861 147.402 234.631 147.108C245.635 146.667 248.806 135.327 250.801 134.088C252.124 133.248 253.51 133.773 259.096 137.196C260.734 138.183 255.967 148.137 263.737 151.539C264.556 151.896 262.771 152.988 264.766 153.639C265.081 153.639 266.215 151.77 268.021 150.258C276.883 142.761 287.362 148.851 278.521 163.005C276.757 165.798 274.993 168.213 267.286 171.405C257.269 175.605 256.072 149.964 255.883 196.605C255.883 209.835 257.311 213.804 275.896 222.813C276.631 223.17 270.184 227.979 270.142 228C258.949 236.022 265.522 232.2 253.132 237.177C251.032 237.975 242.359 241.566 242.212 240.243C240.532 226.194 237.172 222.981 234.862 214.749C232.762 207.483 230.41 205.635 230.2 203.199C229.906 199.629 221.8 192.699 220.813 191.439C220.456 191.019 220.498 190.851 221.023 190.662C244.69 182.955 241.099 177.096 238.705 178.503C233.833 181.338 212.014 189.15 201.85 177.495C190.573 164.937 190.321 142.194 194.941 143.622L194.983 143.538ZM201.598 201.603C203.077 198.987 204.126 196.151 204.706 193.203C204.76 192.989 204.745 192.764 204.664 192.559C204.582 192.354 204.438 192.18 204.252 192.061C204.067 191.943 203.848 191.886 203.628 191.899C203.408 191.911 203.198 191.993 203.026 192.132C195.739 197.046 182.887 189.339 185.932 189.108C187.759 188.961 200.023 183.312 194.101 181.338C187.108 179.007 183.937 173.589 184.777 173.337C188.058 173.119 191.276 172.338 194.29 171.027C197.062 169.704 194.29 176.277 207.205 184.236C206.618 184.89 206.293 185.739 206.293 186.619C206.293 187.499 206.618 188.348 207.205 189.003C210.817 193.413 213.505 195.303 213.316 195.723C213.001 196.395 213.316 197.319 212.497 197.823C209.368 199.944 205.21 202.338 201.598 201.603ZM215.416 239.76C205.903 238.269 196.621 228.861 194.71 220.965C194.353 219.474 194.101 219.621 195.697 219.075C200.38 217.416 202.795 215.631 202.207 216.681C201.031 218.781 201.871 221.49 201.724 222.456C201.178 226.089 203.698 229.155 207.331 231.087C207.814 231.339 207.646 231.297 210.859 231.507C212.959 231.003 213.232 230.793 213.484 231.507C213.945 232.555 214.303 233.645 214.555 234.762C215.395 239.403 216.487 240.012 215.395 239.844L215.416 239.76ZM276.883 351.29C274.992 353.851 272.944 356.291 270.751 358.598C267.79 362.021 265.417 365.844 260.734 369.435C249.772 377.835 241.561 375.734 232.006 364.542C230.56 362.082 229.531 359.4 228.961 356.603C227.596 351.08 225.16 349.547 223.459 343.289C219.007 326.93 223.858 247.887 224.299 247.488C226.105 245.829 223.291 246.648 219.238 241.356C215.941 237.156 217.474 232.662 210.838 221.868C210.706 221.575 210.508 221.318 210.261 221.114C210.013 220.91 209.722 220.766 209.41 220.692C208.129 220.482 209.179 222.141 209.767 223.443C210.649 225.354 208.843 224.136 208.507 224.115C207.646 224.01 207.058 224.997 209.998 226.719C210.355 226.929 211.321 226.95 211.573 227.286C211.82 227.754 211.997 228.257 212.098 228.777C212.098 229.071 212.098 229.155 211.825 229.176C209.515 229.449 208.507 229.932 206.596 228.315C205.504 227.391 203.551 225.291 203.593 223.863C203.698 219.663 202.984 217.563 206.596 215.463C208.003 214.686 208.255 213.363 208.339 211.809C208.486 208.953 211.363 210.507 212.539 206.79C214.219 201.498 221.905 206.16 220.792 203.199C217.39 194.274 206.722 188.499 208.192 185.937C209.578 183.69 214.618 187.869 215.941 189.381C220.015 193.98 227.491 200.238 228.163 204.606C228.583 207.21 230.41 208.134 232.237 214.266C235.534 225.27 239.272 229.953 239.713 242.112C240.406 261.012 259.915 333.546 259.936 333.609C260.482 334.743 261.784 334.281 261.721 333.084C260.965 318.993 253.111 303.453 255.043 303.348C258.229 303.127 261.416 303.75 264.283 305.154C266.215 306.603 278.143 317.208 279.193 318.195C283.54 322.185 288.391 323.571 291.52 328.359C293.746 331.656 294.334 326.742 276.862 351.375L276.883 351.29ZM213.883 201.897C214.849 196.941 214.744 197.13 215.332 197.697C216.385 198.852 217.244 200.171 217.873 201.603C218.314 202.422 216.97 202.128 216.949 202.044C213.946 202.59 213.589 202.842 213.757 201.981L213.883 201.897ZM304.015 339.699C303.928 339.874 303.806 340.031 303.658 340.161C303.542 340.044 303.437 339.918 303.343 339.783C297.631 331.383 294.754 329.283 293.41 326.889C291.709 323.886 286.795 320.778 283.834 318.972C281.881 317.775 278.08 313.869 275.077 311.496C268.294 306.141 268.126 302.76 258.445 301.437C256.975 301.227 254.728 301.878 254.371 301.584C254.014 301.29 254.371 300.786 256.072 297.51C257.498 294.551 259.207 291.738 261.175 289.11C269.869 276.846 268.105 277.476 271.066 272.415C276.274 263.427 277.639 264.519 285.976 255.615C297.4 243.393 297.967 243.12 298.723 241.188C299.059 240.285 298.261 239.865 297.841 240.306C271.717 267.9 274.216 262.356 268.861 272.352C256.996 294.528 263.926 279.093 253.804 297.342C252.733 299.253 241.204 246.564 242.317 243.036C242.632 242.028 243.808 243.645 252.817 239.823C266.446 234.006 259.264 238.731 270.667 230.331C276.442 226.131 279.067 221.448 284.926 224.955C292.486 229.491 295.216 227.622 302.314 229.722C306.073 230.835 305.695 232.074 321.466 238.437C326.086 240.306 326.737 244.38 327.283 248.391C329.992 269.538 328.102 272.1 303.889 339.783L304.015 339.699Z" fill="black"/>
<path d="M298.683 40.5966C299.061 40.5966 299.334 40.5966 299.208 41.2476C298.41 44.6706 303.051 47.5476 302.127 49.2066C300.871 51.6074 299.986 54.1846 299.502 56.8506C299.397 57.4806 299.964 57.1446 300.195 57.3336C301.077 58.0896 301.497 54.1416 303.765 49.8786C305.298 47.0436 300.846 44.2086 300.951 41.7726C301.077 38.6436 302.295 40.4286 305.151 41.3316C306.747 41.8356 307.965 41.3316 308.406 42.3816C308.691 42.9426 309.168 43.3827 309.75 43.6217C310.332 43.8606 310.98 43.8826 311.577 43.6836C313.509 43.1796 313.005 44.6706 315.273 45.1536C317.541 45.6366 317.52 45.5316 317.52 46.3716C317.52 46.6656 317.52 46.9806 317.163 47.0646C316.083 47.4329 315.054 47.9337 314.097 48.5556C312.9 49.1226 313.425 48.1566 311.43 49.4586C308.427 51.4116 308.931 50.1726 307.671 51.1596C305.571 52.8606 300.972 57.7116 302.442 58.8666C303.912 60.0216 304.08 56.9976 307.062 54.2676C310.044 51.5376 309.582 52.8606 310.59 52.1676C312.69 50.8656 312.984 50.6766 313.299 50.6556C315.105 50.5086 316.491 48.9966 317.856 48.8706C319.704 48.7026 319.221 47.0856 319.62 47.2116C320.019 47.3376 320.019 47.7366 320.166 48.0936C321.489 51.3906 325.605 43.6206 322.434 42.5916C319.263 41.5626 318.423 43.7886 317.919 43.6626C313.047 42.5706 316.071 43.2006 313.257 41.7516C311.955 41.0796 310.926 42.6546 309.876 41.1636C308.217 38.7696 309.414 41.1636 301.623 38.0556C301.077 37.8456 300.783 37.0896 300.363 36.5856C299.943 36.0816 299.292 36.0816 298.515 35.8716C296.31 35.3466 295.008 39.9036 298.683 40.5966ZM321.531 44.3556C322.182 44.5446 321.699 46.0776 321.111 45.7626C318.885 44.6286 320.754 44.1036 321.531 44.3556ZM298.431 37.5096C298.683 37.5096 299.124 38.2446 299.355 38.6016C298.2 39.5466 297.654 37.8036 298.41 37.5096H298.431Z" fill="black"/>
<path d="M313.336 266.828C306.364 270.398 297.061 276.887 275.536 278.21C274.717 278.21 273.898 278.588 274.003 279.428C274.108 280.268 291.958 281.213 313.903 268.55C316.801 266.849 315.247 265.862 313.336 266.828Z" fill="black"/>
<path d="M278.813 272.559C290.048 269.052 304.496 257.859 303.572 256.641C301.745 254.31 297.125 263.676 278.204 271.068C277.532 271.32 277.826 272.349 278.813 272.559Z" fill="black"/>
<path d="M270.896 129.636C271.253 130.014 279.548 137.532 280.451 135.201C280.787 134.319 280.241 134.067 277.343 132.051C262.244 121.803 255.839 101.055 248.657 96.6031C248.174 96.3091 247.775 97.4641 247.964 97.8211C249.614 99.6399 251.11 101.593 252.437 103.659C261.236 117.729 259.052 116.805 270.896 129.636Z" fill="black"/>
<path d="M271.972 236.148C267.205 238.983 267.1 240.348 264.622 241.419C262.984 242.133 249.922 247.236 251.035 249.147C251.644 250.134 251.539 249.336 265.735 243.015C267.754 241.758 269.677 240.354 271.489 238.815C278.671 233.628 279.679 233.712 279.322 232.515C278.692 230.604 274.786 234.489 271.972 236.148Z" fill="black"/>
<path d="M266.508 167.037C270.834 167.037 272.283 162.081 270.897 159.414C270.719 159.123 270.614 158.793 270.592 158.453C270.57 158.112 270.632 157.772 270.771 157.461C271.653 155.361 276.042 151.392 276.462 157.02C276.462 157.692 277.554 157.902 278.016 157.02C278.307 156.433 278.427 155.777 278.364 155.125C278.301 154.473 278.057 153.852 277.659 153.332C277.262 152.812 276.726 152.413 276.114 152.182C275.501 151.95 274.836 151.895 274.194 152.022C270.792 152.757 267.075 157.083 268.881 160.59C269.49 161.787 268.881 164.265 267.621 164.559C265.122 165.105 264.954 163.929 264.345 165.063C263.736 166.197 265.08 167.037 266.508 167.037Z" fill="black"/>
<path d="M252.003 71.3987C252.129 69.9707 251.709 65.9597 255.258 64.9937C258.114 64.1957 259.689 64.4687 260.97 62.2427C262.062 60.3527 260.97 59.7647 261.999 57.8117C265.443 51.5117 263.679 52.4777 268.299 50.4617C280.647 44.9807 270.399 37.9877 269.307 41.5157C268.74 43.2167 269.832 44.1827 270.567 42.5447C270.945 41.6837 274.956 44.7917 270.231 47.3747C265.863 49.7477 263.742 49.7267 262.566 52.7297C261.39 55.7327 259.5 57.6437 259.563 60.4157C259.563 62.3897 257.736 62.3267 255.615 62.7467C253.936 63.2063 252.467 64.2295 251.454 65.6443C250.441 67.0592 249.945 68.7796 250.05 70.5167C250.092 74.2967 251.73 74.6747 252.003 71.3987Z" fill="black"/>
<path d="M225.539 88.3483C224.18 88.3168 222.83 88.5738 221.578 89.1023C220.325 89.6308 219.199 90.4188 218.273 91.4143C217.034 92.7373 218.273 93.9343 219.533 92.8633C220.472 91.8938 221.638 91.1745 222.925 90.7711C224.213 90.3676 225.581 90.2927 226.904 90.5533C242.612 92.6533 243.704 112.036 259.769 131.188C261.68 133.435 263.171 132.616 262.436 131.293C259.472 127.632 256.73 123.796 254.225 119.806C240.974 96.0343 239.693 90.4483 225.539 88.3483Z" fill="black"/>
<path d="M226.795 107.835C226.06 108.612 225.514 110.292 226.606 109.935C228.118 109.326 229.546 107.541 233.347 107.583C238.618 107.583 240.529 115.311 240.886 111.384C240.445 105.147 232.801 101.388 226.795 107.835Z" fill="black"/>
<path d="M230.43 132.553C231.564 132.553 231.627 131.797 231.921 130.642C231.585 128.416 229.821 128.542 229.401 129.823C228.981 131.104 229.191 132.49 230.43 132.553Z" fill="black"/>
<path d="M213.422 91.1404C213.422 92.5474 213.422 95.1093 214.871 94.8783C216.782 94.5843 213.632 91.0143 216.551 86.4784C216.875 85.8496 217.336 85.301 217.899 84.8724C218.462 84.4438 219.113 84.1459 219.806 84.0003C220.048 83.9013 220.261 83.7408 220.423 83.5346C220.585 83.3284 220.691 83.0837 220.73 82.8243C220.625 80.0523 213.338 83.0974 213.422 91.1404Z" fill="black"/>
<path d="M199.496 13.3572C200.126 13.5252 201.029 12.6222 202.037 12.4542C203.549 12.2022 207.56 12.0762 208.337 13.6092C210.836 18.4182 202.373 24.4242 201.344 31.0602C200.693 35.2602 205.103 36.3522 211.844 38.2212C217.661 39.8172 206.825 47.2302 210.143 51.7032C210.689 52.4172 212.243 53.8032 213.503 55.1262C216.674 58.4442 212.558 62.8752 214.637 63.3162C216.716 63.7572 218.249 56.8272 214.637 53.3202C210.626 49.2882 210.206 50.6952 214.469 43.2402C215.582 41.2872 216.191 37.8642 213.755 36.8142C211.319 35.7642 211.655 36.5412 205.817 34.2732C196.913 30.8502 213.839 20.6862 209.828 12.7692C208.904 10.5012 206.951 10.7532 204.284 10.5012C198.908 10.3752 198.719 13.1472 199.496 13.3572Z" fill="black"/>
<path d="M211.742 159.351C211.742 158.595 211.28 156.39 209.516 156.348C207.416 156.348 207.101 159.477 208.613 161.01C209.516 161.955 211.238 162.165 211.742 159.351Z" fill="black"/>
<path d="M204.076 129.003C203.908 126.903 202.249 126.903 201.976 127.701C200.653 130.074 203.404 132.3 204.076 129.003Z" fill="black"/>
<path d="M168.002 202.104C120.143 218.043 121.802 216.804 123.167 219.45C132.89 239.673 132.554 238.728 134.297 238.917C139.085 237.531 178.145 224.574 178.397 224.448C181.085 223.524 179.531 222.054 172.349 207.48C169.829 202.188 169.913 201.474 168.002 202.104ZM177.074 222.789L134.402 236.88C133.898 236.88 134.591 238.077 125.099 219.303C124.616 218.358 122.075 219.639 152.042 209.601C157.25 207.858 162.206 206.115 167.771 204.288C169.22 203.826 168.065 202.398 174.071 214.788C177.872 222.852 178.04 222.474 177.095 222.789H177.074Z" fill="black"/>
<path d="M165.559 221.26C165.286 221.26 138.091 229.66 136.159 230.584C135.214 230.983 134.353 232.243 135.508 232.537C135.886 232.537 166.609 223.57 168.226 221.701C167.386 220.147 166.672 221.218 165.559 221.26Z" fill="black"/>
<path d="M140.217 219.432C143.682 218.823 143.556 217.71 145.593 217.815C149.478 217.29 150.948 215.715 154.476 214.833C158.004 213.951 159.012 214.203 161.763 212.733C162.435 212.397 162.897 211.221 161.469 210.927C161.217 210.927 159.6 211.41 157.269 211.998C148.974 214.098 147.819 215.652 145.677 215.61C143.199 215.61 143.304 216.618 139.608 217.437C131.208 219.306 132.573 220.104 130.326 220.209C130.053 220.209 129.612 220.86 129.528 221.112C129.339 221.868 131.628 222.309 132.72 221.7C135.056 220.484 137.598 219.715 140.217 219.432Z" fill="black"/>
<path d="M147.309 114.64C150.375 110.566 148.569 111.154 158.67 114.64C158.88 114.737 159.116 114.765 159.343 114.72C159.57 114.675 159.777 114.558 159.934 114.388C160.091 114.217 160.189 114.001 160.215 113.771C160.24 113.541 160.192 113.308 160.077 113.107C158.972 110.708 157.694 108.392 156.255 106.177C155.394 105.085 159.825 100.36 159.909 97.7771C160.035 93.9761 152.244 100.297 150.543 98.0711C149.178 96.2861 147.099 94.3121 145.734 92.1491C145.125 91.1621 143.949 90.8051 143.76 91.9811C142.143 102.712 144.747 100.066 138.762 102.376C135.423 103.678 135.318 103.657 135.129 104.728C134.541 108.109 142.353 108.592 142.374 110.125C142.5 117.034 142.227 116.614 142.374 118.063C142.404 118.257 142.485 118.44 142.61 118.592C142.735 118.744 142.899 118.859 143.084 118.926C143.268 118.993 143.468 119.008 143.661 118.971C143.854 118.934 144.033 118.845 144.18 118.714C145.335 117.446 146.382 116.083 147.309 114.64ZM142.584 107.605C135.402 104.917 135.402 105.505 143.298 102.649C145.02 102.019 144.201 98.2601 145.398 95.0261C152.895 102.04 146.574 101.452 157.536 98.9321C155.919 103.258 152.559 104.497 154.491 106.744C155.571 108.256 156.506 109.866 157.284 111.553C157.809 112.435 155.184 111.553 151.467 110.167C149.367 109.39 149.85 107.815 144.894 114.745C142.962 117.454 145.755 108.781 142.584 107.605Z" fill="black"/>
<path d="M106.887 77.9327C107.895 76.8407 107.916 76.8407 108.84 77.9327C109.781 79.051 110.494 80.3422 110.94 81.7337C111.318 83.0777 109.89 82.3637 109.449 82.3847C107.349 82.3847 108.21 83.9597 108.735 84.2117C113.901 86.7107 116.127 80.7677 116.274 82.7207C116.505 85.3667 116.484 88.2437 116.61 91.7087C116.61 93.2837 117.891 94.4807 118.962 93.5147C120.033 92.5487 122.889 89.6507 126.942 85.7027C133.578 79.2137 133.851 79.4027 133.767 78.1217C132.801 64.0517 131.667 67.6217 136.287 62.6027C141.873 56.5757 153.087 44.3117 156.72 36.9617C162.327 25.8527 164.553 14.1557 159.324 13.5677C152.331 12.7907 140.172 18.9017 134.124 24.2147C129.787 27.9289 125.736 31.9653 122.007 36.2897C109.407 50.1287 112.977 47.8817 107.307 48.6377C95.9041 50.1077 99.8941 47.6507 85.7191 63.1067C83.9761 65.0177 85.2151 66.3197 86.3491 66.3197C89.7528 65.9641 93.1775 65.8518 96.5971 65.9837C96.0037 66.5977 95.5677 67.3463 95.3263 68.1654C95.085 68.9846 95.0454 69.8499 95.2111 70.6877C95.6492 72.3521 96.5269 73.868 97.7521 75.0767C98.4451 75.5177 98.9491 74.7407 98.6761 73.9217C98.5501 73.5017 96.3871 70.3097 97.0171 69.5327C97.6471 68.7557 99.2431 69.5327 103.884 73.0607C105.165 74.0267 102.708 74.9507 100.629 78.0167C99.4321 79.8227 101.553 80.7467 102.12 81.1667C102.687 81.5867 103.212 81.6707 103.779 81.2717L106.887 77.9327ZM96.5971 92.0657C81.8971 115.166 78.6211 139.358 89.9611 169.43C90.1711 169.955 90.8851 172.328 91.5991 171.845C93.8671 170.354 81.8761 151.454 85.8241 123.65C89.4571 98.0717 106.341 83.3087 106.824 81.0827C107.076 79.9907 106.677 79.5287 105.375 80.0327C102.158 83.8229 99.2239 87.8448 96.5971 92.0657ZM103.149 70.1207C99.0541 67.0337 97.4371 68.3987 98.2141 67.0757C98.5921 66.4247 98.9701 65.6897 99.5791 65.9627C102.498 66.2147 103.506 67.3277 107.034 69.7217C107.643 70.1417 107.16 70.6037 106.194 71.5487C105.627 72.1787 105.753 72.0527 103.233 70.1207H103.149ZM102.897 79.6127C101.343 78.5417 100.65 80.7257 119.361 58.9277C120.285 57.8777 121.461 56.8277 122.028 58.2347C122.091 58.2977 103.002 79.5707 102.897 79.6127ZM114.132 81.7127C112.284 83.2877 113.943 81.7127 110.751 77.5127C109.281 75.5807 109.092 75.5807 109.365 75.2657C111.066 73.2707 110.709 72.3257 114.783 80.2847C115.203 80.8517 114.783 81.1667 114.195 81.6707L114.132 81.7127ZM119.004 91.2047C118.332 91.8977 118.647 91.8767 117.912 81.3557C117.912 80.3687 126.312 73.7957 129.021 70.5617C131.73 67.3277 131.121 67.8737 132.024 77.5337C132.465 78.3947 132.297 78.0587 119.067 91.1627L119.004 91.2047ZM138.597 23.7317C142.837 20.6023 147.602 18.2554 152.667 16.8017C160.626 14.7017 159.744 16.8017 160.122 19.9307C159.918 22.9024 159.267 25.8263 158.19 28.6037C153.129 40.9517 153.57 39.8387 152.184 37.3607C145.758 25.9157 136.875 24.8027 138.597 23.7317ZM135.888 25.8317C138.576 23.2907 153.843 38.9777 151.638 41.9177C145.191 50.5697 122.763 75.7697 116.841 79.4027C115.608 77.0024 114.204 74.6935 112.641 72.4937C112.116 71.7167 112.053 72.2417 119.466 63.9887C123.666 59.2007 124.863 58.6547 123.393 56.8487C122.763 56.0717 121.083 54.9377 120.012 56.0297C118.941 57.1217 118.353 57.8567 113.082 63.9047C108.231 69.4487 109.239 68.8187 107.517 67.5167C100.587 62.2877 99.3481 66.4037 103.779 60.7547C113.717 48.4385 124.42 36.7604 135.825 25.7897L135.888 25.8317ZM97.8991 52.5017C98.7601 51.4937 98.7601 51.6617 109.071 50.4017C110.688 50.1917 106.11 53.9087 102.771 58.9487C102.015 60.0407 99.1591 63.8627 98.0461 64.0097C98.0461 64.0097 87.5461 64.3247 87.5461 64.2617C87.1051 63.8837 92.7121 58.5287 97.8991 52.5017Z" fill="black"/>
<path d="M150.208 222.139C154.408 220.921 154.681 220.543 156.172 220.522C156.524 220.545 156.872 220.441 157.153 220.229C157.435 220.017 157.631 219.711 157.705 219.367C157.705 216.952 149.305 220.795 145.336 221.467C141.724 222.076 133.513 224.47 132.316 225.772C131.476 226.696 131.938 227.221 133.072 227.284C137.272 225.856 136.705 225.667 138.217 225.184C146.995 222.79 140.947 224.806 150.208 222.139Z" fill="black"/>
<path d="M142.797 155.402C141.495 155.57 137.169 156.515 136.497 156.704C135.258 157.019 131.373 148.43 130.386 151.622C127.971 159.476 131.289 158.195 125.136 158.72C122.616 158.93 122.574 159.602 122.637 160.82C122.637 161.639 122.931 161.807 124.443 162.731C131.268 166.931 128.286 163.886 127.719 171.656C127.719 172.727 128.265 173.231 129.126 172.958C131.079 172.307 134.166 166.658 135.594 167.393C137.66 168.108 139.763 168.71 141.894 169.199C143.091 169.535 143.595 168.905 143.448 167.981C143.217 166.511 141.6 165.881 139.983 162.899C139.626 162.206 139.71 162.521 143.721 157.712C144.414 156.83 144.729 155.171 142.797 155.402ZM138.177 163.802C140.13 167.246 140.928 166.931 137.127 166.091C132.717 165.104 134.712 164.81 130.134 169.451C129.588 170.018 130.239 167.708 130.407 165.524C130.596 162.92 125.556 162.08 124.821 160.715C125.178 160.715 124.548 160.715 127.782 160.4C131.772 160.064 129.882 157.817 131.625 154.247C133.053 155.465 134.523 159.119 135.825 158.846C146.472 156.368 135.867 159.728 138.177 163.802Z" fill="black"/>
<path d="M134.946 50.0255C145.089 49.5005 144.375 34.6535 134.631 34.8845C123.9 36.1865 125.853 50.4035 134.946 50.0255ZM133.833 36.9425C134.65 36.7974 135.49 36.8351 136.292 37.0528C137.093 37.2705 137.836 37.6629 138.468 38.2018C139.1 38.7407 139.605 39.4127 139.946 40.1697C140.288 40.9267 140.457 41.7499 140.443 42.5802C140.429 43.4106 140.231 44.2275 139.864 44.9723C139.497 45.7172 138.969 46.3716 138.319 46.8885C137.67 47.4055 136.913 47.7722 136.105 47.9624C135.296 48.1526 134.456 48.1615 133.644 47.9885C132.367 47.7166 131.224 47.0091 130.411 45.9874C129.599 44.9656 129.167 43.693 129.189 42.3877C129.211 41.0823 129.687 39.8253 130.534 38.8319C131.381 37.8385 132.547 37.1706 133.833 36.9425Z" fill="black"/>
<path d="M111.781 189.717C110.395 189.969 110.122 191.817 111.907 191.817C121.021 191.67 121.483 175.164 112.705 175.29C111.751 175.255 110.798 175.39 109.891 175.689C109.765 174.492 111.991 169.263 109.639 165.189C107.035 160.695 99.4964 160.989 97.0394 167.184C96.0963 169.864 95.6924 172.704 95.851 175.54C96.0096 178.376 96.7275 181.153 97.9634 183.711C98.4464 184.656 99.6644 184.11 99.3704 182.85C93.0704 164.937 105.397 160.317 108.169 166.785C110.479 172.182 105.481 178.146 107.644 179.385C109.177 180.246 109.954 176.865 112.915 177.285C116.758 177.957 117.451 182.136 116.821 184.929C115.75 189.528 112.852 189.507 111.781 189.717Z" fill="black"/>
<path d="M90.0422 173.756C78.3032 154.478 75.3422 120.773 89.8532 93.3053C93.191 87.4531 96.931 81.8396 101.046 76.5053C102.999 74.5943 101.046 73.5863 99.9752 74.8043C87.8162 89.1893 78.2822 110.021 78.2822 128.795C78.2822 156.305 85.1702 169.703 88.6142 173.819C90.2942 175.751 91.1552 175.583 90.0422 173.756Z" fill="black"/>
<path d="M80.2992 190.346C69.7992 193.643 70.9962 181.463 81.3912 185.684C81.5194 185.762 81.663 185.811 81.8121 185.827C81.9611 185.843 82.1119 185.827 82.2539 185.779C82.3959 185.731 82.5257 185.653 82.6342 185.549C82.7428 185.446 82.8274 185.32 82.8822 185.18C83.4492 183.899 82.3362 183.584 81.2652 183.227C75.5322 181.316 81.9162 170.375 89.8542 183.731C90.5052 184.823 91.6182 184.067 91.3662 183.227C89.6862 177.242 82.9662 172.727 78.7662 176.402C77.8731 177.157 77.2757 178.204 77.0797 179.357C76.8837 180.51 77.1017 181.695 77.6952 182.702C72.7392 182.828 71.3952 184.802 70.8282 187.385C69.6942 193.475 79.5012 194.189 82.0002 191.795C82.9662 190.829 82.1682 189.758 80.2992 190.346Z" fill="black"/>
<path d="M66.0433 153.029C65.7283 152.399 65.5183 151.181 64.0693 152.063C58.1683 155.654 59.3653 155.087 57.7693 153.386C55.3753 150.887 54.7663 149.921 53.5693 150.215C53.0443 150.362 53.1703 151.433 53.2963 152C54.7453 158.72 55.2073 156.935 52.4773 157.943C51.8473 158.195 51.3013 158.489 48.7393 159.56C48.498 159.67 48.2935 159.848 48.1502 160.071C48.0069 160.294 47.9307 160.554 47.9307 160.82C47.9307 161.085 48.0069 161.345 48.1502 161.568C48.2935 161.792 48.498 161.969 48.7393 162.08C56.5513 164.999 54.7873 164.453 55.3123 167.75C55.9213 171.53 56.0263 172.475 56.8243 172.559C57.1496 172.602 57.4803 172.538 57.765 172.374C58.0498 172.211 58.2727 171.958 58.3993 171.656C61.6753 163.697 59.5333 165.797 62.5993 166.343C67.8703 167.288 68.1433 167.813 68.8993 166.889C69.6553 165.965 68.1223 164.6 67.3663 163.739C62.4103 158.027 63.8803 161.807 66.0433 153.029ZM64.4893 164.516C63.3673 164.432 62.2775 164.102 61.2973 163.55C58.6513 162.689 58.6513 167.981 57.6013 168.884C57.3471 167.774 57.2063 166.641 57.1813 165.503C57.1813 163.193 55.9213 163.025 52.0993 160.925C51.2593 160.442 53.1703 160.253 55.3333 159.161C57.4963 158.069 55.7743 155.969 55.7323 154.499C55.7323 153.617 57.2023 155.738 58.1263 156.893C59.5543 158.678 59.7223 155.843 63.7333 154.646C63.0613 158.111 60.7303 159.014 62.9773 161.408C66.2533 164.915 65.3713 164.6 64.4893 164.516Z" fill="black"/>
</svg>
