<svg xmlns="http://www.w3.org/2000/svg" viewBox="0 0 200 200"><g><path d="m90.069 58.057 15.024-7.986 5.534 14.119-13.695 7.561Z" fill="#ec6a7a" fill-rule="evenodd"></path><path d="M104.841 86.389 116.3 80.07l-4.835-13.117-12.935 7.069Z" fill="#ec6a7a" fill-rule="evenodd"></path><path d="m115.06 106.044 1.241-6.928-3.457 2.55Z" fill="#ec6a7a" fill-rule="evenodd"></path><path d="m106.229 89.205 10.071-6.334 6.06 11.341-10.629 4.9Z" fill="#ec6a7a" fill-rule="evenodd"></path><path d="m106.229 52.968 11.462-2.9-1.391 16.885-4.44 1.069Z" fill="#6cd0e6" fill-rule="evenodd"></path><path d="M118.378 44.277a53.982 53.982 0 0 1 13.942-.392l-5.552 17.026H116.8Z" fill="#f5bf42" fill-rule="evenodd"></path><path d="M133.525 41.151c4.9-.7 14.736 2.444 17.188 3.847l-5.844 14.459-16.455-4.577Z" fill="#5bc6a7" fill-rule="evenodd"></path><path d="m124.005 70.979 3.806-13.265 16.1 4.333-5.043 12.94Z" fill="#5bc6a7" fill-rule="evenodd"></path><path d="m119.257 90.528 3.983-16.567 12 2.957-9.733 14.214Z" fill="#5bc6a7" fill-rule="evenodd"></path><path d="m115.861 106.936 2.645-13.4 5.418.227Z" fill="#5bc6a7" fill-rule="evenodd"></path><path d="M147.238 60.156s8.456-10.038 11.706-12.826l15.165 9.479-11.021 13.833Z" fill="#6cd0e6" fill-rule="evenodd"></path><path d="M158.41 74.587 168.523 88.1l14.888-7.97-10.775-12.846Z" fill="#f5bf42" fill-rule="evenodd"></path><path d="m144.2 82.318 9.21 14.546 12.248-7.284-9.478-13.531Z" fill="#f5bf42" fill-rule="evenodd"></path><path d="m157.6 78.071 1.669-2.342 9.254 12.371-2.87 1.48Z" fill="#ffffff" fill-rule="evenodd"></path><path d="m146.574 91.922 2.095-2.537 4.751 7.042-2.869 1.481Z" fill="#ffffff" fill-rule="evenodd"></path><path d="m146.474 92.047-9.93 13.414 14.115-7.513Z" fill="#f5bf42" fill-rule="evenodd"></path><path d="M136.169 75.369s6.42-9.321 9.225-12.456l16.152 10.076-9.4 12.079Z" fill="#6cd0e6" fill-rule="evenodd"></path><path d="M125.51 91.109s6.03-10.065 8.836-13.2L150 87.608l-9.739 12.626Z" fill="#6cd0e6" fill-rule="evenodd"></path><path d="M114.419 109.7s7.208-12.617 9.641-16.145l14.4 8.989-10.76 15.006Z" fill="#6cd0e6" fill-rule="evenodd"></path><path d="m145.394 62.913 2.164-2.545 15.53 10.274-1.542 2.347Z" fill="#ffffff" fill-rule="evenodd"></path><path d="m134.43 77.538 1.739-2.169 15.973 9.7-1.542 2.347Z" fill="#ffffff" fill-rule="evenodd"></path><path d="m124.043 93.318 1.739-2.17 14.474 9.086-1.542 2.348Z" fill="#ffffff" fill-rule="evenodd"></path><path d="m143.95 62.236 6.079-14.906 6.011 2.649-11.188 12.934Z" fill="#ec6a7a" fill-rule="evenodd"></path><path d="m119.257 90.528-.751 3 5.5.566 1.507-2.966Z" fill="#ffffff" fill-rule="evenodd"></path><path d="m124.005 70.979-.765 2.982 11.54 2.839 1.882-2.41Z" fill="#ffffff" fill-rule="evenodd"></path><path d="m128.675 54.956-.764 2.982 16.039 4.3.9-2.9Z" fill="#ffffff" fill-rule="evenodd"></path><path d="m97.207 71.535 13.246-7.276 1.181 2.88-13.2 7.271Z" fill="#ffffff" fill-rule="evenodd"></path><path d="m104.971 86.776 10.929-7.029-.053 3.644-9.42 6.1Z" fill="#ffffff" fill-rule="evenodd"></path><path d="m111.333 98.721 4.225-2.187v3.591l-2.766 1.307Z" fill="#ffffff" fill-rule="evenodd"></path><path d="m111.942 67.859 4.615-.985-.175 3.135-3.4.708Z" fill="#ffffff" fill-rule="evenodd"></path><path d="M116.8 60.911h9.969l-.89 3.135-9.079-.246Z" fill="#ffffff" fill-rule="evenodd"></path><path d="m115.9 77.592 6.489.128-.89 3.134-5.6-.376Z" fill="#ffffff" fill-rule="evenodd"></path><path d="M115.558 94.4h2.586l-.811 2.892h-1.775Z" fill="#ffffff" fill-rule="evenodd"></path><path d="M116.3 78.08h5.883l3.6-14.055-8.989-.148Z" fill="#f5bf42" fill-rule="evenodd"></path><path d="M115.912 81.046h5.614l-3.04 13.571-2.928-.181Z" fill="#f5bf42" fill-rule="evenodd"></path><path d="m115.586 106.685 2.105-9.1-2.105-.181Z" fill="#f5bf42" fill-rule="evenodd"></path><path d="m115.785 78.08.516-8.17-3.457.831Z" fill="#6cd0e6" fill-rule="evenodd"></path><path d="M75.381 122.578c5.218-1.384 16.461-5.393 18.754-10.342 2.834-6.117 3.655-6.671 8.809-10.157s11.3-7.611 12.068-6.134-3.185 4.989-3.185 4.989l3.233 4.88v2.572l-.74 1.389 6.165 3.818s2.668 2.578 1.3 3.37-4.769-2.75-6.977-1.792-1.6 3.758-5.88 4.341c-5.982.814-9.216 1.947-24.5 13.937Z" fill="#fce0d1" fill-rule="evenodd"></path><path d="m163.172 70.368-15.059-10.136c3.476-4.3 6.295-7.534 8.208-9.649a.5.5 0 1 0-.741-.671c-12.738 14.084-28.021 35.2-41.626 59.5a.5.5 0 0 0 .181.674l12.746 7.594a.511.511 0 0 0 .685-.174.5.5 0 0 0-.173-.685l-12.328-7.345a387.08 387.08 0 0 1 9.018-15.243l13.6 8.561-1.759 2.274a.5.5 0 0 0 .791.612c7.251-9.374 17.5-22.614 25.835-33.344a.5.5 0 0 0-.79-.613l-.531.683L146.14 62.7q.686-.869 1.344-1.69c16.148 10.869 15.173 10.269 15.409 10.269a.5.5 0 0 0 .279-.911ZM138.3 102l-13.685-8.616q.517-.824 1.03-1.635l13.748 8.838q-.557.713-1.093 1.413Zm1.707-2.207L126.18 90.9c2.892-4.537 5.7-8.732 8.385-12.578l14.877 9.278-9.437 12.191ZM150.06 86.81l-14.919-9.3q.543-.774 1.078-1.529l15.039 9.286Zm10.553-13.61a20277.11 20277.11 0 0 0-8.742 11.271L136.8 75.16c3.144-4.4 6.079-8.3 8.72-11.666Z" fill="#2e3847"></path><path d="m104.923 162.283-12.084-16.094-14.67 23.7s23.54 19.836 31.705 15.728 19.821-44.977 23.1-52.615 8.841-7.582 10.153-14.988a58.487 58.487 0 0 0 .1-15.585l-6.4 3.546s-.848-10.293-3.365-10.322-6.324 22.085-6.324 22.085l-3.538-2.066c-.484 5.936-.455 9.771-.436 12.2-2.256 11.328-10.853 23.075-18.241 34.411Z" fill="#fce0d1" fill-rule="evenodd"></path><path d="M46.533 106.665s3.633-5.723 5.854-9.213c7.426.061 13.782 3.98 18.883-7.322s1.606-9.176 4.83-10.43 6.866-.789 3.739-6.184-5.735-5-3.816-9.666-.471-6.225-3.489-14-43.725-8.415-42.629 15.081a41.371 41.371 0 0 1 1.658 15.408 27.086 27.086 0 0 1-1.662 7.1c-3.573 8.974-8.141 13.63-8.141 13.63Z" fill="#fce0d1" fill-rule="evenodd"></path><path d="M175.328 84.352a.5.5 0 0 0-.678-.2c-1.923 1.036-4.01 2.168-6.184 3.351l-8.71-12.014a.5.5 0 1 0-.809.586l8.634 11.91-1.8.984-7.958-11.159a.5.5 0 1 0-.814.581l7.888 11.061a3628.69 3628.69 0 0 0-11.486 6.3l-4.211-6.424a.5.5 0 1 0-.836.548l4.166 6.355-1.908 1.051L147.3 91.8a.5.5 0 0 0-.857.516l3.3 5.452a5608.098 5608.098 0 0 0-13.625 7.533.5.5 0 0 0 .243.937c.387 0 16.065-8.976 38.764-21.206a.5.5 0 0 0 .203-.68Z" fill="#2e3847"></path><path d="M150.072 46.83a.5.5 0 0 0-.65.279 2154.415 2154.415 0 0 1-4.761 11.807c-1.889-.516-13.106-3.6-15.622-4.286 1.263-4.114 2.494-7.725 3.628-10.466a.5.5 0 1 0-.923-.383 168.3 168.3 0 0 0-5.487 16.79l-8.9-.136c.189-3.211.46-7.293.772-10.509a.5.5 0 0 0-.45-.545.492.492 0 0 0-.533.38l-10.857 2.946a.5.5 0 0 0-.543.675c1.176 3.032 2.655 6.853 4.108 10.621l-12.692 6.97c-3.052-5.942-5.54-10.926-6.494-13.185a.5.5 0 0 0-.921.388c2.648 6.274 17.033 33.371 20.2 39.339a.5.5 0 0 0 .882-.468 3957.876 3957.876 0 0 1-3.944-7.45l8.387-5.212c-.2 5.48-.363 10.793-.494 15.415l-1.838 1.214-.361-.678a.5.5 0 1 0-.883.469c1.707 3.207 2.817 5.28 2.911 5.456l-.051 2.125c-.008.363.936.423 1.007.091.172-.8 1.415-6.535 3.24-14.4l4.412.361a.5.5 0 0 0 .04-1l-4.223-.347.459-1.964s6.108.512 6.122.512a.5.5 0 0 0 .042-1l-5.932-.5c1.148-4.87 2.464-10.3 3.854-15.747 11.966 3.253 11.2 3.055 11.305 3.055.22 0 .4-.91.131-.983l-11.183-3.04.456-1.768c8.945 2.288 11.54 2.95 12.362 3.088.129.021.24-.9.24-.9-.186-.045-7.978-2.037-12.351-3.154 1.11-4.25 2.252-8.441 3.384-12.32l15.252 4.183c-1.314 3.188-2.114 5.076-2.288 5.333a.5.5 0 0 0 .812.583c.146-.2 3.173-4.98 3.173-4.98a.494.494 0 0 0 .232.057.5.5 0 0 0 .232-.943l-.9-.474c2.453-5.964 5.682-14.052 5.921-14.647a.5.5 0 0 0-.283-.652ZM106.9 53.578l10.146-2.753c-.372 4.159-.714 9.718-1.019 15.832l-3.8.708c-1.788-4.638-3.788-9.809-5.327-13.787Zm9.076 14.106c-.094 1.922-.055 1.712-.133 1.73l-2.611.586-.646-1.687Zm-18.354 4.179 12.6-6.918.758 1.969-12.422 6.763Zm1.4 2.7 12.321-6.71c1.968 5.125 3.658 9.57 4.147 10.982l-.027.7c-.1.047.318-.212-10.354 6.674a1765.273 1765.273 0 0 1-6.091-11.644Zm7.4 14.145-.85-1.611 9.84-6.349q-.047 1.218-.091 2.431Zm7 13.191 1.331-.88c-.031 1.12-.059 2.194-.086 3.215-.335-.618-.755-1.405-1.249-2.334Zm.175-30.956 2.25-.506c-.087 1.9-.171 3.832-.251 5.777a1442.87 1442.87 0 0 0-2.003-5.269Zm2.1 32.271c.041-1.518.091-3.313.149-5.318l1.044.014c-.434 1.89-.834 3.666-1.198 5.306Zm1.421-6.3-1.248-.014.058-1.9s1.266.022 1.621.023l-.436 1.892Zm.667-2.893c-.649-.006-1.822-.025-1.822-.025.121-3.889.267-8.284.438-12.823l4.44.061a916.837 916.837 0 0 0-3.061 12.788Zm3.3-13.781-4.647-.066.074-1.9c2.2.034 4.874.051 5.051.043q-.244.965-.482 1.924Zm.73-2.926c-.856 0-4-.019-5.263-.039.176-4.382.374-8.8.593-12.942l8.037.11a587.67 587.67 0 0 0-3.371 12.872Zm3.641-13.867-8.257-.114.106-1.9c3.585.056 7.259.148 8.673.14-.178.619-.352 1.245-.526 1.875Zm18.1-1.828-15.356-4.21q.273-.925.545-1.822c10.588 2.906 14.241 3.913 15.555 4.213q-.391.961-.743 1.82Z" fill="#2e3847"></path><path d="M11.665 194.255s-.589-16.224-2.489-52.5 16-45.808 16-45.808a23.176 23.176 0 0 1 7.506.672c11.533 3.007 25.69 4.9 41 23.848 13.845 17.134 19.158 25.725 19.158 25.725s-3.362 15.974-14.67 23.7l8.3 6.358.438 18.75Z" fill="#6cd0e6" fill-rule="evenodd"></path><g opacity=".75"><path d="m81.921 143.274 3.916 4.29 1.357-5.326-5.273 1.036z" fill="#441668"></path><path d="m73.377 172.015 3.918-4.289-5.274-1.036 1.356 5.325z" fill="#441668"></path><path d="m27.747 176.157 3.515-3.285-3.515-.857 0 4.142z" fill="#441668"></path><path d="m10.245 163.835 4.102 1.365-1.282-5.917-2.82 4.552z" fill="#441668"></path><path d="m66.121 117.417 4.1 1.365-.66-3.048q-.734-.778-1.463-1.51Z" fill="#441668"></path><path d="m33.249 152.365 1.529-4.142-3.516 0 1.987 4.142z" fill="#441668"></path><path d="m57.669 189.19 3.519 2.924-.325-4.408-3.194 1.484z" fill="#441668"></path><path d="m40.519 163.099 3.519 2.925-.325-4.408-3.194 1.483z" fill="#441668"></path><path d="m63.844 142.168 1.528-4.142-3.515 0 1.987 4.142z" fill="#441668"></path><path d="m68.941 151.153.275 4.411 3.21-1.446-3.485-2.965z" fill="#441668"></path><path d="m47.601 110.381-3.888 3.85 5.638 1.279-1.75-5.129z" fill="#441668"></path><path d="m45.868 140.892 1.941 5.497 3.358-4.234-5.299-1.263z" fill="#441668"></path><path d="m74.89 131.813 0 4.142 3.515-3.285-3.515-.857z" fill="#441668"></path><path d="m19.625 140.892 3.917 4.291 1.356-5.326-5.273 1.035z" fill="#441668"></path><path d="m26.465 108.313-2.82 4.552 4.102 1.366-1.282-5.918z" fill="#441668"></path><path d="m13.761 125.156-3.516 0 1.987 4.141 1.529-4.141z" fill="#441668"></path><path d="m34.43 128.44 3.516-3.284-3.516-.858 0 4.142z" fill="#441668"></path><path d="m52.523 179.855 3.917-4.289-5.273-1.036 1.356 5.325z" fill="#441668"></path><path d="m24.553 187.706 3.518 2.925-.324-4.408-3.194 1.483z" fill="#441668"></path><path d="m78.405 186.223 3.516-3.285-3.516-.857 0 4.142z" fill="#441668"></path><path d="m34.778 99.714 3.518 2.925-.324-4.408-3.194 1.483z" fill="#441668"></path></g><path d="M72.017 67.145c.56.057.905 1.191.769 2.533s-.7 2.386-1.262 2.328-.905-1.192-.769-2.533.701-2.386 1.262-2.328Z" fill="#2e3847" fill-rule="evenodd"></path><path d="M66.131 66.9a.5.5 0 0 1-.462-.691c.033-.08 3.368-7.975 9.8-5.96a.5.5 0 1 1-.3.954c-5.56-1.749-8.546 5.315-8.574 5.387a.5.5 0 0 1-.464.31Z" fill="#2e3847"></path><path d="M68.1 84.618c-2.078-1.133-2.452-4.315-2.467-4.45a.5.5 0 0 1 .994-.111c0 .029.334 2.8 1.953 3.684a3.156 3.156 0 0 0 2.967-.252.5.5 0 0 1 .445.9 4.132 4.132 0 0 1-3.892.229Z" fill="#2e3847"></path><path d="M53.592 83.162c-6.9 0-11.373-8.863-8.359-13.51a4.011 4.011 0 0 1 3.8-1.967c3.5.386 5.132 3.781 5.2 3.925a.5.5 0 0 1-.9.426c-.015-.03-1.471-3.033-4.405-3.357-2.714-.316-5.344 3.833-2.311 9.02 2.956 5.054 7.388 4.454 7.576 4.429a.5.5 0 0 1 .152.988 5.207 5.207 0 0 1-.753.046Z" fill="#2e3847"></path><path d="M53.891 79.165c-.934-3.646-2.865-9.759-6.231-8.083-1.785.888-1.476 2.963-1.064 3.936a.5.5 0 0 0 .921-.389c-.033-.079-.8-1.961.588-2.652a1.282 1.282 0 0 1 1.185-.049c.621.284 1.469 1.168 2.4 3.546a3.972 3.972 0 0 1-2.757.924.493.493 0 0 0-.541.455.5.5 0 0 0 .453.541 4.946 4.946 0 0 0 3.211-.919c.283.828.572 1.8.864 2.938a.5.5 0 0 0 .969-.248Z" fill="#2e3847"></path><path d="M74.847 54.678C71.514 35.785 54.691 33.4 40.11 39.971c-15.081 6.8-13.179 22.415-11.243 29.9a100.233 100.233 0 0 0-14.19 12.069c-7.022 7.315-4.48 8.675 1.282 8.29 4.62-.309 11.441-7.246 18.756-14 3.989-3.684 7.833-7.2 8.626-7.93a174.223 174.223 0 0 0 31.506-13.622Z" fill="#6cd0e6" fill-rule="evenodd"></path><path d="M80.336 73.377c-3.185-5.5-5.576-4.872-3.786-9.225 1.462-3.555.206-5.542-1.533-9.068-.28-.568-.716-.618-.973-.473a165.825 165.825 0 0 1-29.315 12.613c-4.085 1.37-11.716 3.314-15.956 2.487a.5.5 0 0 0-.191.982c2.867.558 7.041.083 13.043-1.5a4051.602 4051.602 0 0 0-9.931 9.165c-6.117 5.715-11.9 11.114-15.768 11.373a.5.5 0 0 0 .032 1c4.239 0 11.943-7.47 15.1-10.415a26.561 26.561 0 0 1-1.625 6.943 51.607 51.607 0 0 1-4.11 8.173.906.906 0 0 0-.39.072c-.181.1-18.154 10.1-16.26 46.275 1.877 35.858 2.483 52.333 2.488 52.5a.5.5 0 0 0 .518.482.5.5 0 0 0 .481-.518c0-.163-.61-16.643-2.488-52.512C7.884 107.512 24 97.216 25.323 96.435c4.1-.324 6.981.621 10.589 1.509a88.379 88.379 0 0 1 13.639 4.186.5.5 0 0 0 .683-.36l2.432-3.825c8.64-.164 13.4 3.69 19.051-7.592 4.648-9.286.84-9.076 6.435-10.648 1.444-.4 2.807-.787 3.281-1.952.41-1.01.072-2.36-1.097-4.376Zm.17 4c-.426 1.05-2.56 1.2-4.523 1.97-3.562 1.391-1.186 2.622-5.16 10.56-5.382 10.749-9.319 6.782-18.45 7.046a.5.5 0 0 0-.407.231c-.725 1.138-1.6 2.513-2.448 3.85-6.012-2.462-11.492-3.539-16.714-4.9a24.129 24.129 0 0 0-6.26-.755 53.275 53.275 0 0 0 3.822-7.75 28.028 28.028 0 0 0 1.775-8.319c.078-.074 11-10.154 11.607-10.7a170.5 170.5 0 0 0 30.445-12.935c1.631 3.3 2.706 5 1.432 8.1-2.057 5 .751 4.763 3.846 10.106.958 1.65 1.307 2.827 1.035 3.495Z" fill="#2e3847"></path><path d="M127.223 117.748a.5.5 0 0 1-.494-.579c1.049-6.532 3.8-21.724 6.664-21.724 2.993 0 3.768 12.487 3.934 16.314a.5.5 0 1 1-1 .043c-.323-7.416-1.579-15.357-2.935-15.357-1.259 0-3.858 9.563-5.677 20.882a.5.5 0 0 1-.492.421Z" fill="#2e3847"></path><path d="M49.1 135.457a.5.5 0 0 1-.493-.419c-.061-.371-1.468-9.192 2.038-16.7 3.6-7.7 12.09-6.541 12.176-6.528a.5.5 0 0 1-.146.989c-.319-.046-7.848-1.053-11.124 5.961-3.372 7.219-1.971 16.023-1.957 16.111a.5.5 0 0 1-.494.586Z" fill="#2e3847"></path><path d="M143.476 101.994a.5.5 0 0 0-.986.169c.014.085 1.428 8.535.147 15.767-.678 3.823-2.515 5.554-4.642 7.559-5.135 4.838-5.369 6.491-9.192 17.791-4.92 14.541-13.153 38.876-19.153 41.9-7.159 3.6-27.327-12.52-30.684-15.271 9.281-6.743 13.128-18.929 14.1-22.563l10.753 14.554c1.27 1.715 1.616 1.913 3 3.986a.5.5 0 1 0 .831-.555 35.2 35.2 0 0 0-2.229-2.986c2.149-3.062 17.521-25.243 18.127-33.713.616-8.583-.312-5.028.345-13.093a.5.5 0 0 0-.458-.539.51.51 0 0 0-.539.458c-.668 8.214.273 4.476-.345 13.1-.566 7.9-15.161 29.2-17.773 32.959l-11.47-15.532c-.4-.5-.882-.278-.961.1-.056.264-5.783 26.3-26.258 27.368l-11.324-22.837a.5.5 0 1 0-.9.444l11.471 23.13a.5.5 0 0 0 .468.278 23.159 23.159 0 0 0 12.3-3.97c.907.753 3.809 3.125 7.579 5.828a148.53 148.53 0 0 1 .553 18.349.5.5 0 0 0 1 .052 144.987 144.987 0 0 0-.475-17.636c5.245 3.682 17.62 11.85 23.331 8.977 6.367-3.2 14.361-26.831 19.651-42.467 3.919-11.586 4.1-12.833 8.931-17.384 2.162-2.039 4.2-3.964 4.941-8.112 1.319-7.405-.124-16.024-.139-16.111Z" fill="#2e3847"></path><path d="M120.251 112.6a.5.5 0 0 0-.706.708c.846.845 2.031 2.354 2.014 3.067 0 .11-.043.137-.016.151-.472.126-2.517-.954-3.566-1.5-1.805-.935-3.291-1.333-5.963 2.1-2.47 3.167-6.256 1.077-12.35 5.033-5.314 3.448-13.8 9.282-15.725 10.606a448.14 448.14 0 0 0-7.7-9.909c5.358-1.542 16.005-5.358 18.346-10.41 2.774-5.988 3.554-6.516 8.635-9.953 3.141-2.124 10.5-7.1 11.335-6.34.174.915-3.846 5.507-7.671 9.237a.5.5 0 0 0-.12.531c.016.042 1.5 4.333-3.708 11.438a.5.5 0 0 0 .806.592c4.776-6.51 4.219-10.864 3.933-12.053 3.3-3.235 8.451-8.644 7.657-10.182a1.037 1.037 0 0 0-.691-.533c-1.692-.433-6.084 2.414-12.108 6.486-5.156 3.488-6.085 4.116-8.975 10.357-2.2 4.738-13.1 8.567-18.123 9.983a.5.5 0 0 0-.733.676 473.123 473.123 0 0 1 8.5 10.923c.289.386.561.41.79.253.1-.07 10.116-6.984 16.1-10.863 5.941-3.858 9.786-1.657 12.594-5.257 2.42-3.1 3.349-2.532 5.023-1.663 2.25 1.168 3.666 1.833 4.339 1.223 1.232-1.123-.739-3.523-1.917-4.701Z" fill="#2e3847"></path><path d="M93.3 32.581c-.344.731 2.089 2.043 3.22 1.47s4.736-7.881 10.32-8.979c4.453-.876 11.191-1.917 14.474-9.4.794-1.811-2.251-3.188-3.253-1.768-3.192 4.521-4.993 5.888-11.993 7.636-7.026 1.753-10.694 6.638-12.768 11.041Z" fill="#f5bf42" fill-rule="evenodd"></path><path d="M82.909 32.093c-.075.8 2.659 1.211 3.528.287s1.775-9.022 6.653-11.953c3.889-2.337 9.871-5.607 10.414-13.763.131-1.973-3.2-2.233-3.66-.557-1.465 5.337-2.693 7.235-8.682 11.259-6.013 4.041-7.8 9.882-8.253 14.727Z" fill="#f5bf42" fill-rule="evenodd"></path><path d="M167.594 131.463c2.031.308 1.447 1.384 3.84 2.567s10.3 1.99 17.359-9.893-4.1-23.061-18.775-15.777c-15.136 7.511-20.03 22.172-14.436 24.506 5.563 2.321 10.175-1.682 12.012-1.403Zm-6.386-7.2c2.721-1.246 6.381-.886 4.194 1.517-2.748 3.022-8.518 3.892-8.266 1.91.145-1.146 1.938-2.454 4.072-3.431Z" fill="#e3e5ed" fill-rule="evenodd"></path><path d="M169.8 107.912c-15.222 7.554-20.706 22.787-14.406 25.416 5.716 2.386 10.562-1.6 12.129-1.371a2.116 2.116 0 0 1 1.567.886 6.72 6.72 0 0 0 5.471 2.3c3.771 0 9.511-2.07 14.666-10.753 7.332-12.356-4.352-23.963-19.427-16.478Zm.445.895c6.846-3.4 13.76-2.9 17.616 1.251a9.768 9.768 0 0 1 2.6 6.68c-3.15 10.128-11.946 15.353-14.32 15.629-2.569.3-3.825-.16-6.4-2.335-2.831-2.4-5.45-.068-9.765 1.237-3.616 1.092-5.385-.109-5.731-.386a5.152 5.152 0 0 1-.4-1.922c-.161-4.91 4.819-14.409 16.396-20.154Zm18.122 15.074c-6.761 11.391-14.354 10.865-16.708 9.7-2.223-1.1-1.768-2.278-3.987-2.613-2.01-.307-6.054 3.31-11.111 1.721a9.972 9.972 0 0 0 3.707-.464c4.416-1.336 6.534-3.372 8.831-1.43 2.464 2.084 4.011 2.929 7.157 2.564 2.432-.282 9.2-4.238 13.222-11.715a16.362 16.362 0 0 1-1.115 2.237Z" fill="#2e3847"></path><path d="M177.167 121.527c-1.571 1.327-3.178 1.347-3.537 3.045s1.813 2 3.89.976 1.314.6 4.562-1.148 3.371-4.063 1.481-4.335-4.863.166-6.396 1.462Z" fill="#ec6a7a" fill-rule="evenodd"></path><path d="M161.874 116.207c-.983.939-.235 1.494 1.606 1.446s.492 1.2 2.478.692 5.18-2.875 5.18-2.875 3.74-2.5.625-2.823-1.19.418-3.89.791-3.298.188-5.999 2.769Z" fill="#6cd0e6" fill-rule="evenodd"></path><path d="M182.32 110.267c-2.033-.746-5.5 2.327-4.981 3.663s2.582-1.076 3.427.215 2.386 1.125 3.762-.427-.347-1.413.4-2.638-2.437-.751-2.608-.813Z" fill="#f5bf42" fill-rule="evenodd"></path><path d="M175.249 126.636c-1.6 0-2.365-.95-2.108-2.167.417-1.974 2.18-2.037 3.7-3.324 1.617-1.364 4.719-1.872 6.789-1.575 2.2.317 2.637 3.141-1.314 5.27-1.835.989-2.515.983-3.213.875a1.854 1.854 0 0 0-1.365.281 5.773 5.773 0 0 1-2.489.64Zm2.241-4.727c-1.585 1.339-3.073 1.361-3.37 2.767-.095.445.062.626.188.724.449.348 1.649.362 2.991-.3a2.826 2.826 0 0 1 1.964-.373c.44.068.9.141 2.582-.767 1.842-.992 2.556-2.149 2.44-2.8a.829.829 0 0 0-.794-.6c-1.807-.26-4.616.181-6.001 1.349Z" fill="#2e3847"></path><path d="M166.338 123.8c-.8-1.093-3.4-.878-5.337.007-1.237.567-4.139 2.072-4.361 3.818a1.287 1.287 0 0 0 .81 1.382c2.932 1.347 10.57-2.907 8.888-5.207Zm-8.706 3.951c.1-.827 1.626-2.046 3.785-3.034 1.861-.852 3.779-.786 4.114-.328a.268.268 0 0 1 .028.208 10.385 10.385 0 0 0-7.779 3.454.265.265 0 0 1-.148-.303Zm1.326.506a9.571 9.571 0 0 1 5.925-2.656 9.659 9.659 0 0 1-5.925 2.653Z" fill="#2e3847"></path><path d="M165.2 118.967a1.024 1.024 0 0 1-.988-.584c-.081-.143-.14-.245-.716-.23-1.406.03-2.232-.251-2.483-.853-.13-.313-.146-.82.519-1.455 2.644-2.527 3.335-2.507 6.276-2.9 1.061-.143 1.28-.33 1.457-.478.437-.365.791-.5 2.552-.315.359.036 1.452.148 1.658.979.266 1.067-1.35 2.283-2.056 2.756-1.347 1.002-4.519 3.08-6.219 3.08Zm-.12-1.081c.018.03.041.072.053.086a2.726 2.726 0 0 0 .705-.112c1.87-.477 4.974-2.769 5-2.792.979-.658 1.7-1.461 1.662-1.7 0 0-.123-.157-.79-.225-1.517-.156-1.646-.049-1.809.088a5.033 5.033 0 0 1-2.748.8c-2.024.261-2.635.334-4.936 2.532-.262.251-.28.377-.28.377a2.981 2.981 0 0 0 1.528.208 1.558 1.558 0 0 1 1.612.738Z" fill="#2e3847"></path><path d="M180.348 114.419c-.417-.635-1.872.782-2.89.34-.777-.34-1.159-1.6.475-3.265 1.153-1.173 3.037-2.2 4.489-1.721.909-.014 2.516-.249 3 .548a.942.942 0 0 1-.067 1.018c-.178.293-.143.355-.011.587.285.5.487 1.08-.438 2.123-1.783 2.007-3.647 1.764-4.558.37Zm.837-.548c.768 1.176 2.051.551 2.969-.485.528-.595.453-.727.317-.966a1.383 1.383 0 0 1 .025-1.6 5.2 5.2 0 0 0-1.744-.063 1.475 1.475 0 0 1-.605-.021c-.985-.36-2.541.482-3.5 1.459-.679.69-.937 1.305-.84 1.556a.239.239 0 0 0 .051.091c.111.059.616-.144.858-.24.967-.388 1.876-.636 2.469.269Z" fill="#2e3847"></path><path d="M154.078 159.158c22.826 29.965 25.092 28.425 1.978-1.432Z" fill="#ec6a7a" fill-rule="evenodd"></path><path d="M154.078 159.158s-3.365-4.729-3.83-5.658l.98-.9s3.856 3.867 4.828 5.13Z" fill="#e3e5ed" fill-rule="evenodd"></path><path d="m151.228 152.6-.98.9a8.9 8.9 0 0 1-5.427-5.484c-1.37-4.239-1.091-4.831.939-3.433a11.108 11.108 0 0 1 5.468 8.017Z" fill="#ec6a7a" fill-rule="evenodd"></path><path d="M172.231 180.379c-1.59-.811-11.356-13.14-17.445-21.117l1.563-1.131c.373-.27.183-.616-.022-.869-1.138-1.4-4.592-4.867-4.745-5.019a.5.5 0 0 0-.692-.015l-.756.7a8.435 8.435 0 0 1-4.838-5.063.5.5 0 1 0-.951.308 9.328 9.328 0 0 0 5.558 5.74c.587 1.021 2.643 3.949 3.446 5.086.978 1.383 16.819 22.146 18.785 22.395a.775.775 0 0 0 .469-.123.5.5 0 0 0-.372-.892Zm-21.018-27.089c.852.862 3.087 3.138 4.119 4.342l-1.139.825c-.951-1.345-2.69-3.837-3.314-4.859Z" fill="#2e3847"></path><path d="M67.91 89.613c.8-.156 1.127 1.856 1.127 1.856s.942-2.133 1.942-2.265.645 3.688.645 3.688-1.14 8.607-3.259 9.23c-2.028.6-3.856-1.407-4.554-4.53-.968-4.328 1.763-4.4 1.763-4.4s.757-3.27 2.336-3.579Z" fill="#ff8642" fill-rule="evenodd"></path><path d="M70.914 88.708a2.9 2.9 0 0 0-1.734 1.448c-.268-.625-.7-1.162-1.366-1.034-1.574.308-2.386 2.706-2.643 3.631a2.523 2.523 0 0 0-1.406.9c-.7.89-.844 2.251-.442 4.045a6.978 6.978 0 0 0 2.768 4.585 2.99 2.99 0 0 0 2.416.316c2.313-.679 3.445-8.149 3.615-9.663.163-1.442.23-4.431-1.208-4.228Zm-2.689 12.934c-2.041.6-3.449-2.025-3.926-4.16a3.991 3.991 0 0 1 .243-3.2 1.5 1.5 0 0 1 1.044-.589.5.5 0 0 0 .475-.388c.264-1.135 1.019-3 1.927-3.2a2.994 2.994 0 0 1 .556 1.444.5.5 0 0 0 .951.12c.33-.745 1-1.791 1.473-1.953.912 1.573-1.002 11.415-2.743 11.926Z" fill="#2e3847"></path></g></svg>