<svg width="444" height="407" viewBox="0 0 444 407" fill="none" xmlns="http://www.w3.org/2000/svg">
<path d="M196.582 107.293L194.323 203.606L327.558 209.981L328.452 108.863L196.582 107.293Z" fill="white"/>
<path d="M219.518 283.964C221.485 283.312 223.29 282.248 224.814 280.843C226.29 279.051 227.153 276.833 227.277 274.514L229.218 274.579C232.557 273.936 235.814 272.924 238.93 271.561L239.366 272.455L300.365 284.064L244.191 313.122L187.441 291.63L187.322 290.838C194.239 289.81 201.085 288.326 207.679 286.826C211.691 286.17 215.649 285.213 219.518 283.964Z" fill="#7ED6ED"/>
<path d="M390.235 377.276C385.557 358.718 380.875 340.161 376.188 321.605C382.27 320.35 388.268 318.717 394.147 316.716L395.396 316.85C395.396 316.85 398.463 364.829 399.241 377.157C399.263 377.515 399.209 377.874 399.082 378.209C398.955 378.544 398.758 378.849 398.504 379.102C398.251 379.356 397.946 379.553 397.611 379.68C397.276 379.807 396.917 379.861 396.559 379.839C395.447 379.772 394.166 379.7 393.102 379.637C392.435 379.6 391.798 379.351 391.282 378.926C390.766 378.501 390.399 377.923 390.235 377.276Z" fill="#FFA698"/>
<path d="M376.068 67.7525C375.929 77.5177 377.366 100.621 377.366 100.621C377.366 100.621 434.434 176.723 441.348 186.04C441.783 186.62 442.026 187.321 442.044 188.046C442.091 189.984 442.219 194.082 442.298 196.984C442.326 197.978 442.108 198.963 441.662 199.852C441.216 200.741 440.557 201.505 439.744 202.076C416.082 218.578 392.41 235.066 368.729 251.54L369.117 274.779C369.024 280.325 360.557 281.409 359.653 276.132C359.607 275.853 357.548 257.983 357.243 255.385C357.149 254.591 357.274 253.787 357.604 253.058C357.933 252.33 358.456 251.705 359.115 251.252C371.717 242.632 434.38 199.531 434.38 199.531L434.23 187.421L372.291 101.582L371.295 69.0527L372.948 66.731C373.16 66.4328 373.463 66.2103 373.811 66.0961C374.159 65.9818 374.535 65.9816 374.883 66.0956C375.231 66.2096 375.534 66.4318 375.747 66.7299C375.96 67.0279 376.073 67.3862 376.068 67.7525Z" fill="white"/>
<path d="M349.29 394.767C346.202 382.147 333.152 328.053 333.152 328.053L333.101 327.261C340.925 326.797 347.688 326.232 352.849 325.636C352.849 325.636 359.118 381.195 360.453 393.894C360.492 394.232 360.462 394.574 360.366 394.9C360.269 395.226 360.107 395.529 359.89 395.791C359.673 396.052 359.405 396.267 359.103 396.423C358.801 396.578 358.47 396.67 358.131 396.695C356.462 396.836 354.289 397.04 352.601 397.184C351.852 397.242 351.106 397.03 350.499 396.587C349.893 396.144 349.464 395.499 349.29 394.767Z" fill="#FFA698"/>
<path d="M354.304 274.439C354.977 274.292 357.215 273.914 359.347 273.696C359.433 274.49 359.518 275.23 359.6 275.906C359.676 276.524 359.888 277.118 360.221 277.645C360.554 278.172 360.998 278.618 361.523 278.953C362.049 279.289 362.641 279.504 363.259 279.583C363.877 279.663 364.505 279.605 365.098 279.414C366.202 279.23 367.207 278.665 367.937 277.816C368.668 276.968 369.078 275.89 369.096 274.771L369.887 274.806C374.914 275.038 385.761 278.263 385.977 283.558C386.056 285.532 384.352 286.809 383.887 288.583C383.372 290.507 383.852 292.376 382.016 293.744C379.502 295.613 375.638 295.708 372.655 295.885C365.925 296.325 359.171 296.229 352.456 295.599C349.41 295.596 346.411 294.849 343.719 293.423C342.4 292.467 342.672 290.405 342.268 289.012C341.084 284.898 339.282 282.258 343.566 279.045C346.804 276.812 350.454 275.246 354.304 274.439Z" fill="#FAD353"/>
<path d="M343.707 297.592L285.054 313.647L268.07 302.382L267.413 301.1L300.365 284.049L257.952 275.988L258.036 275.501L295.29 268.821L343.707 297.592Z" fill="#7ED6ED"/>
<path d="M339.322 109.242C338.626 134.084 336.91 192.078 336.118 219.635L185.385 211.741C185.807 184.858 186.627 131.045 186.987 109.121C187.029 106.547 188.073 104.092 189.896 102.275C191.719 100.459 194.178 99.4239 196.752 99.3905C223.514 99.0376 298.831 98.0346 327.955 97.6863C329.469 97.6685 330.97 97.9567 332.37 98.5335C333.769 99.1103 335.038 99.9638 336.1 101.043C337.161 102.122 337.994 103.405 338.548 104.813C339.101 106.222 339.365 107.728 339.322 109.242ZM328.454 108.87L196.58 107.301L194.337 203.613L328.466 210.258L328.454 108.87Z" fill="#E2F9FE"/>
<path d="M377.096 34.6962C374.399 34.7534 371.71 35.0126 369.051 35.4716C368.9 35.4902 366.453 36.0451 366.421 36.0126C363.33 30.5772 359.467 25.6183 354.954 21.2905C345.358 12.2822 330.499 13.2806 318.408 15.6394C301.329 19.0083 293.976 24.6477 294.443 42.4554C294.539 55.3852 297.817 68.0924 303.99 79.4544C305.731 82.4377 308.11 84.9994 310.956 86.9564C313.803 88.9134 317.046 90.2174 320.455 90.7751C334.653 93.5194 352.556 86.545 362.576 77.9197C366.607 74.4371 366.607 68.6328 370.435 65.3058C377.147 59.4527 389.659 64.6487 390.89 53.0006C391.913 43.2981 387.906 34.4617 377.096 34.6962Z" fill="#FAD353"/>
<path d="M306.96 46.0489C307.538 45.5601 308.186 45.1616 308.883 44.8672L309.793 44.6489C311.382 51.4283 312.359 58.337 312.711 65.2914L312.173 65.3239C305.904 64.6274 304.346 55.6446 305.022 50.6181C305.139 48.9211 305.821 47.3123 306.96 46.0489Z" fill="white"/>
<path d="M301.165 137.237C300.988 136.17 300.993 135.08 301.181 134.015C301.85 130.124 304.113 127.844 306.577 125.076C307.197 124.38 306.375 122.766 306.345 121.94C306.242 119.386 307.738 116.265 310.647 116.258C311.536 116.261 312.407 116.508 313.165 116.973C313.922 117.438 314.537 118.103 314.941 118.895C315.345 119.687 315.524 120.575 315.456 121.461C315.389 122.348 315.078 123.198 314.559 123.92C314.352 124.238 313.261 125.169 313.328 125.545C313.361 125.831 314.285 126.242 314.489 126.421C316.093 127.877 317.319 129.702 318.059 131.739C318.799 133.775 319.032 135.961 318.738 138.108L318.687 139.053L301.116 138.124L301.165 137.237Z" fill="#7ED6ED"/>
<path d="M299.994 184.787L300.01 184.517C299.369 184.332 300.261 181.731 300.365 181.448C301.186 179.255 302.556 177.31 304.345 175.799C304.96 175.268 305.81 174.903 306.353 174.332C306.722 173.942 305.761 172.01 305.712 171.481C305.612 170.847 305.647 170.2 305.817 169.581C305.987 168.962 306.287 168.387 306.697 167.894C307.108 167.401 307.618 167.001 308.196 166.721C308.773 166.441 309.403 166.288 310.045 166.271C313.813 166.763 316.144 171.1 313.759 173.961C313.506 174.297 312.383 174.922 312.41 175.354C312.475 176.38 313.803 177.831 314.182 178.811C315.035 180.96 315.43 183.263 315.343 185.574C305.807 185.091 309.346 185.274 299.994 184.787Z" fill="#7ED6ED"/>
<path d="M299.338 160.386C299.034 160.217 299.322 159.339 299.355 159.137C300.191 156.247 301.759 153.622 303.908 151.515C304.402 151.013 305.256 150.57 305.612 149.98C305.967 149.391 305.568 148.123 305.695 147.45C305.843 146.202 306.44 145.05 307.374 144.209C308.308 143.369 309.516 142.896 310.773 142.88C313.898 143.5 314.516 147.243 313.42 149.878C313.266 150.25 312.465 151.178 312.51 151.566C312.537 151.819 313.25 152.172 313.42 152.307C314.117 152.866 314.716 153.539 315.191 154.296C316.291 156.488 317.042 158.838 317.418 161.261C317.418 161.494 318.811 161.452 299.338 160.435V160.386Z" fill="#7ED6ED"/>
<path d="M314.951 209.599L296.974 208.705C297.186 205.935 297.991 203.243 299.335 200.812C301.208 198.102 302.202 198.457 302.539 197.877C302.734 197.151 302.824 196.402 302.808 195.65C303.651 191.095 305.513 189.512 307.547 189.512C308.458 189.539 309.346 189.806 310.12 190.288C310.894 190.769 311.526 191.447 311.953 192.253C312.38 193.058 312.585 193.963 312.549 194.873C312.513 195.784 312.236 196.669 311.747 197.438C311.526 197.775 310.354 198.669 310.354 199.063C310.372 199.384 310.844 199.706 311.05 199.925C313.52 202.545 314.913 205.999 314.951 209.599Z" fill="#7ED6ED"/>
<path d="M185.381 211.74C185.33 214.809 185.278 217.523 185.246 219.798C185.216 221.897 185.992 223.926 187.413 225.47C188.834 227.013 190.793 227.953 192.887 228.096C208.064 229.143 240.459 231.402 242.99 231.579C246.185 227.654 249.652 223.958 253.365 220.518C255.687 218.661 259.752 218.916 249.3 231.477L249.706 231.813L252.704 231.916C255.28 235.734 257.332 239.88 258.808 244.244C259.344 245.522 259.416 246.949 259.01 248.274C257.544 250.921 252.822 251.68 250.342 253.013C249.449 253.477 248.234 254.311 248.539 255.086C248.699 255.416 248.975 255.674 249.314 255.813C253.029 257.735 277.595 260.433 286.146 256.277C288.468 255.163 293.343 251.318 293.733 249.363C293.589 247.955 293.226 246.578 292.656 245.282C291.171 241.1 289.393 237.028 287.337 233.095C301.3 233.559 297.891 233.508 329.219 234.504C330.067 234.53 330.911 234.388 331.704 234.087C332.498 233.785 333.223 233.331 333.84 232.748C334.457 232.166 334.954 231.468 335.3 230.693C335.647 229.919 335.838 229.084 335.861 228.236C335.928 225.893 336.012 222.993 336.114 219.645C335.353 219.608 347.753 220.249 185.381 211.74Z" fill="#FAD353"/>
<path d="M253.466 29.2631C253.847 29.4907 254.169 29.8046 254.406 30.1794C254.643 30.5543 254.789 30.9796 254.831 31.4211C254.874 31.8626 254.812 32.3078 254.651 32.721C254.489 33.1342 254.233 33.5037 253.903 33.7997C248.066 39.0097 234.993 50.537 231.661 53.5344C231.436 53.7388 231.15 53.8616 230.847 53.8831C230.544 53.9046 230.243 53.8235 229.992 53.6528C229.144 53.0677 227.867 52.2017 226.938 51.5632C226.798 51.4643 226.681 51.3368 226.594 51.1891C226.506 51.0415 226.451 50.877 226.432 50.7066C226.413 50.5362 226.43 50.3636 226.483 50.2004C226.535 50.0371 226.622 49.8867 226.736 49.7593C230.177 46.1002 241.941 33.5466 246.668 28.5108C247.232 27.9093 247.985 27.5192 248.802 27.4055C249.619 27.2919 250.45 27.4615 251.156 27.8863C251.881 28.3181 252.691 28.8057 253.466 29.2631Z" fill="#FFA698"/>
<path d="M255.997 222.374C254.131 225.657 251.884 228.709 249.304 231.466C246.62 234.635 247.07 233.959 241.66 241.045C238.789 244.809 237.284 246.617 232.759 244.013L232.573 243.78C233.474 243.293 247.409 225.55 253.035 220.784C256.071 218.207 256.694 220.802 255.997 222.374Z" fill="white"/>
<path d="M393.609 269.729C385.66 265.641 377.412 262.163 368.936 259.325H368.852L369.105 274.772L369.897 274.807C374.924 275.039 385.785 278.264 385.987 283.56C386.07 285.531 384.361 286.796 383.897 288.584C383.375 290.506 383.862 292.377 382.026 293.745C379.511 295.616 375.65 295.735 372.665 295.886C365.935 296.338 359.18 296.243 352.466 295.6C340.982 294.402 343.283 292.48 342.278 289.006C341.098 284.892 339.311 282.273 343.576 279.039C348.27 275.888 353.72 274.044 359.363 273.699C358.706 268.067 357.78 260.191 357.29 255.875L356.7 255.943C336.725 250.454 316.261 246.929 295.6 245.418C292.658 245.147 292.899 245.186 292.667 245.267C293.237 246.563 293.6 247.941 293.745 249.349C293.357 251.304 288.467 255.153 286.157 256.263C277.606 260.428 253.035 257.73 249.325 255.799C248.232 255.353 247.932 254.28 250.354 252.999C252.833 251.666 257.551 250.909 259.021 248.26C259.427 246.934 259.355 245.508 258.819 244.229C258.587 244.348 250.809 244.134 245.919 244.717L244.991 245.056C245.407 245.631 245.702 246.285 245.858 246.978C246.015 247.671 246.029 248.388 245.901 249.087C245.513 251.058 243.895 252.964 244.113 255.021C244.345 257.524 246.449 259.3 246.323 262.104C246.121 266.811 242.899 269.676 238.936 271.549L239.372 272.443L257.946 275.984L258.029 275.496L295.284 268.817L343.708 297.59L285.054 313.644L268.071 302.379L267.414 301.098L244.197 313.106L187.442 291.625L187.324 290.834C165.207 294.402 151.699 290.081 132.953 288.593L132.886 289.301C133.174 289.503 132.921 291.105 132.905 291.358C132.214 296.956 130.72 302.425 128.468 307.596L128.737 307.696C155.99 313.227 196.111 316.77 223.786 318.455C265.577 321.009 307.55 322.216 349.255 317.782C366.254 315.975 383.962 313.835 400.203 308.219C406.866 305.897 415.203 302.667 417.167 295.913C420.608 284.036 401.705 273.95 393.609 269.729Z" fill="white"/>
<path d="M238.93 271.562C235.823 272.949 232.563 273.962 229.218 274.581L227.277 274.516C228.222 267.402 227.869 258.224 221.526 255.013L221.679 254.723C219.959 252.448 221.946 249.534 223.333 247.911C224.482 246.588 226.091 245.75 227.834 245.566C229.536 245.377 231.164 244.769 232.573 243.797L232.759 244.029C236.604 246.239 238.308 245.211 240.348 242.748L241.43 242.882C242.136 242.99 242.812 243.238 243.42 243.612C244.028 243.985 244.556 244.476 244.972 245.056C245.388 245.635 245.684 246.292 245.842 246.988C246.001 247.684 246.019 248.404 245.895 249.107C245.519 251.08 243.903 252.984 244.107 255.041C244.356 257.53 246.443 259.315 246.318 262.125C246.111 266.824 242.914 269.749 238.93 271.562Z" fill="#FCE0D1"/>
<path d="M211.643 46.4706C211.519 46.3487 211.425 46.2008 211.366 46.0377C211.308 45.8746 211.286 45.7004 211.304 45.5279C211.768 40.52 213.324 23.3856 213.937 16.5203C214.011 15.6993 214.365 14.9286 214.939 14.3365C215.512 13.7443 216.271 13.3663 217.089 13.2652C217.935 13.1561 218.877 13.033 219.771 12.9286C220.21 12.8749 220.656 12.9252 221.072 13.0754C221.488 13.2255 221.863 13.4714 222.167 13.7931C222.47 14.1149 222.694 14.5034 222.82 14.9275C222.946 15.3517 222.97 15.7994 222.891 16.2347C221.48 23.9243 218.325 41.0586 217.51 45.4885C217.454 45.7885 217.299 46.0611 217.07 46.2627C216.841 46.4644 216.551 46.5833 216.247 46.6006C212.446 46.8235 212.181 47.0045 211.643 46.4706Z" fill="#FFA698"/>
<path d="M203.211 269.424C201.66 268.716 197.957 267.435 199.434 265.245C202.568 260.583 204.326 262.733 211.042 266.48C214.938 268.653 221.599 271.82 223.707 275.874C224.391 277.448 224.77 279.137 224.822 280.852C223.294 282.251 221.49 283.314 219.526 283.972C219.506 282.453 219.147 280.957 218.476 279.594C217.805 278.231 216.838 277.035 215.646 276.092C211.697 273.523 207.537 271.292 203.211 269.424Z" fill="#E2F9FE"/>
<path d="M180.289 253.941C179.968 254.008 179.532 254.48 179.279 254.515C177.767 250.071 173.27 248.764 168.738 247.751C188.343 245.555 208.079 244.766 227.796 245.388L227.833 245.555C226.091 245.743 224.484 246.58 223.331 247.9C221.938 249.525 219.958 252.437 221.678 254.712L221.525 255.002C211.987 250.475 200.792 257.038 190.156 255.374C183.832 254.38 182.262 253.679 180.289 253.941Z" fill="white"/>
<path d="M173.673 258.647C175.259 258.039 178.716 256.168 179.322 258.747C180.606 264.212 177.825 264.05 170.52 266.409C166.272 267.779 159.423 270.509 155.004 269.276C151.025 268.164 148.968 263.85 144.431 264.4C141.362 264.774 138.339 267.516 135.931 269.408C133.939 270.973 129.709 275.227 127.55 268.666C127.044 268.802 129.577 266.123 129.979 265.766C130.907 264.948 131.866 264.185 132.811 263.404C135.509 261.072 138.582 259.213 141.901 257.907C149.562 255.095 152.813 264.946 160.335 263.219C164.919 262.132 169.386 260.601 173.673 258.647Z" fill="#E2F9FE"/>
<path d="M173.966 323.316L168.062 353.168C163.172 352.226 152.766 350.266 152.462 350.217L158.113 321.242C163.358 322.034 168.67 322.71 173.966 323.316Z" fill="#FFA698"/>
<path d="M158.118 321.235L152.466 350.21C148.831 349.614 145.289 348.549 141.928 347.041C141.283 346.746 140.51 346.314 139.606 345.859C139.606 345.859 141.791 319.466 141.984 318.502C147.287 319.547 152.685 320.441 158.118 321.235Z" fill="#FFA698"/>
<path d="M143.528 32.8668L131.65 17.2323C133.043 15.1242 152.081 9.42432 152.081 9.42432C152.081 9.42432 186.227 38.4296 185.08 38.7013C174.138 41.2947 146.95 63.5229 145.432 63.17C135.251 60.8111 96.7962 71.5862 96.7962 71.5862L70.4028 33.8767C70.101 33.4403 73.6742 31.0907 73.9458 30.9258C78.0125 28.4825 82.4758 26.7703 87.1332 25.8668C93.1654 24.6704 99.3195 24.2027 105.463 24.4737C108.22 24.7499 110.994 24.8174 113.761 24.6757C116.898 24.2114 120.928 20.6615 123.998 19.5981L124.571 19.1593C131.132 27.8124 138.097 36.9855 138.097 36.9855L145.889 41.7915L143.528 32.8668Z" fill="#8DE3A7"/>
<path d="M143.527 32.8671L120.217 2.16925C120.014 1.90091 119.76 1.6754 119.469 1.50567C119.178 1.33594 118.857 1.22534 118.523 1.18025C118.19 1.13515 117.85 1.15645 117.525 1.2429C117.2 1.32936 116.895 1.47927 116.628 1.68401C116.275 1.95333 115.903 2.22265 115.532 2.4943C114.922 2.96193 114.523 3.65252 114.422 4.41434C114.321 5.17617 114.526 5.94693 114.993 6.55732C117.066 9.30624 138.097 36.9975 138.097 36.9975L145.888 41.8034L143.527 32.8671Z" fill="white"/>
<path d="M125.516 314.78C126.512 312.387 127.522 310.007 128.467 307.595L128.736 307.695C155.991 313.225 196.11 316.768 223.785 318.453C265.576 321.007 307.548 322.21 349.253 317.78C366.253 315.974 383.963 313.833 400.201 308.217C405.309 306.448 412.444 303.834 415.757 298.909L416.454 298.958C413.598 315.995 375.078 322.092 357.918 324.913C336.746 328.395 261.244 330.717 222.752 327.661C196.31 325.572 168.191 323.605 141.956 318.505C139.218 317.968 127.354 315.516 125.516 314.78Z" fill="white"/>
<path d="M117.847 350.839C115.825 352.117 113.711 353.244 111.523 354.212L109.937 350.788C109.387 349.934 108.671 349.199 107.831 348.628C103.882 346.072 99.7303 343.844 95.4169 341.967C93.866 341.271 90.1582 339.978 91.6395 337.77C94.7622 333.126 96.5337 335.253 103.248 339C106.963 341.071 113.18 344.043 115.576 347.837L117.847 350.839Z" fill="#E2F9FE"/>
<path d="M101.617 172.174C103.678 158.381 118.496 151.669 115.176 137.349C114.031 132.385 111.786 127.741 108.608 123.76C105.43 119.779 101.398 116.562 96.8107 114.347C93.2422 112.824 79.2213 110.563 80.9765 107.735C82.2047 105.754 85.2206 105.471 87.5516 105.694C92.4795 106.048 97.2837 107.401 101.672 109.671C106.06 111.942 109.939 115.082 113.074 118.9C118.53 125.921 119.473 134.312 123.042 142.138C125.693 147.954 130.761 149.719 133.076 157.756C134.436 162.988 133.91 168.53 131.591 173.413C129.272 178.295 125.308 182.205 120.395 184.456C109.408 189.845 99.8405 184.087 101.617 172.174Z" fill="#8DE3A7"/>
<path d="M141.335 164.324C140.398 162.384 140.018 160.221 140.24 158.078C139.901 157.57 140.212 157.83 139.515 158.027C137.473 158.223 135.412 158.098 133.409 157.656L133.072 157.758C134.424 162.989 133.894 168.528 131.576 173.409C129.258 178.289 125.299 182.2 120.391 184.458C112.195 188.574 104.302 186.28 102.049 179.213L101.309 179.466C101.274 179.466 100.886 180.163 100.845 180.19C96.7766 185.506 91.2414 189.514 84.9221 191.72L84.8037 192.92C88.1365 193.27 91.4327 193.908 94.6548 194.829C98.4687 195.902 101.976 197.86 104.891 200.543C108.218 203.607 108.43 205.228 113.222 207.861C114.04 205.818 115.345 204.005 117.022 202.581C120.194 200.793 124.528 201.885 127.951 200.22C133.634 197.434 137.918 191.082 140.548 185.514C142.206 182.25 143.134 178.664 143.27 175.005C143.406 171.347 142.746 167.702 141.335 164.324Z" fill="#FCE0D1"/>
<path d="M90.1528 388.142C96.108 390.213 97.3873 399.751 95.7017 404.973V405.379C84.4855 405.581 73.2878 405.565 62.1574 405.193L62.176 404.729C59.7962 399.872 57.1982 393.352 61.584 391.76C68.6327 389.203 82.8696 385.614 90.1528 388.142Z" fill="#7ED6ED"/>
<path d="M113.077 118.906C107.84 112.404 100.455 107.985 92.251 106.443L92.3694 105.937C100.043 103.424 114.932 104.908 121.983 111.704C123.236 113.096 124.664 114.32 126.232 115.347C128.02 116.291 130.752 115.915 132.733 116.545C145.521 120.624 154.884 131.109 154.471 144.422C154.406 146.497 153.923 150.632 151.838 151.851C150.789 152.469 150.728 150.249 150.677 149.743C150.363 146.874 149.579 144.077 148.355 141.464C148.186 141.092 147.097 138.336 146.382 138.731C145.899 138.998 146.038 139.595 145.1 145.464C144.618 148.884 143.587 152.205 142.047 155.296C141.538 156.467 140.647 157.431 139.519 158.029C137.477 158.226 135.416 158.101 133.413 157.658L133.076 157.76C130.741 149.578 125.795 148.178 123.042 142.142C119.469 134.317 118.526 125.927 113.077 118.906Z" fill="#FAD353"/>
<path d="M91.4853 208.371C95.8455 212.646 93.1105 214.092 87.5221 220.477C84.2717 224.192 79.3264 230.655 74.4183 232.067C70.007 233.337 65.5493 230.583 61.5675 233.692C58.8534 235.819 57.5509 240.065 56.3576 243.211C55.3755 245.791 53.8037 252.134 47.9576 247.36C47.5536 247.78 48.4219 243.852 48.5984 243.313C49.0023 242.029 49.4922 240.759 49.9473 239.501C51.1904 235.791 53.043 232.314 55.4289 229.213C61.1009 222.213 69.8236 229.367 76.004 223.43C79.681 219.75 83.048 215.774 86.071 211.54C87.1808 210.064 89.4236 206.349 91.4853 208.371Z" fill="#E2F9FE"/>
<path d="M50.8396 217.358C48.7955 219.651 46.05 221.202 43.0316 221.77C41.6224 221.917 40.1997 221.676 38.9175 221.073C37.1879 220.254 36.5262 218.795 35.4094 218.691C34.5155 218.61 33.5033 219.603 32.8137 220.024C32.0037 220.658 31.0315 221.052 30.0083 221.159C28.985 221.267 27.9522 221.084 27.028 220.632C25.3208 219.258 24.2144 217.274 23.9424 215.099C23.8751 214.846 23.6893 212.545 23.3689 212.52C22.9046 212.469 21.7182 214.393 21.4117 214.695C19.5195 216.553 16.0903 218.215 13.6873 216.246C11.2333 214.236 13.1696 210.498 14.4303 208.387C18.5072 201.578 21.832 195.177 22.5749 187.076C23.4502 177.58 22.0966 168.038 22.3567 158.519C22.5445 148.75 25.6582 139.263 31.2953 131.283C33.3849 128.426 35.9452 125.945 38.8665 123.946C41.7229 121.874 45.1882 120.812 48.7152 120.928C50.2685 121.009 53.0661 123.103 54.4336 122.277C56.3734 120.813 58.2204 119.231 59.964 117.538C64.0365 114.352 68.6782 111.971 73.6413 110.522C75.861 109.604 78.3039 109.37 80.6575 109.848L81.1451 108.936C83.1186 111.197 93.7614 113.032 96.8121 114.334C101.399 116.549 105.431 119.766 108.609 123.747C111.788 127.728 114.032 132.371 115.177 137.335C118.497 151.656 103.68 158.37 101.618 172.161C101.255 174.515 101.405 176.919 102.057 179.21L101.316 179.463C101.281 179.463 100.894 180.16 100.852 180.187C96.7921 185.515 91.2511 189.526 84.9226 191.72L84.8041 192.92C79.4264 192.29 73.9806 192.581 68.7007 193.781L68.6147 193.44C64.6079 192.688 61.0513 190.406 58.6987 187.076L58.5315 187.109C59.144 190.491 59.3421 193.936 59.1212 197.366C59.124 197.495 59.1185 197.625 59.105 197.754C58.6896 205.045 55.77 211.97 50.8396 217.358Z" fill="#FAD353"/>
<path d="M73.3382 258.477C73.0016 258.09 76.5445 259.132 77.0321 259.32C78.193 259.768 79.2958 260.293 80.4218 260.787C83.7216 262.143 86.7712 264.041 89.4441 266.404C95.4248 271.976 88.1114 279.308 93.0706 285.242C96.1554 288.797 99.5347 292.086 103.172 295.072C104.461 296.173 107.679 298.43 105.65 300.145C101.375 303.765 100.256 301.211 94.8397 295.764C91.6868 292.593 86.1426 287.74 85.2441 283.227C84.4407 279.182 87.3615 275.379 84.8052 271.59C83.0756 269.037 79.254 267.567 76.4911 266.295C74.1787 265.238 68.4812 263.369 73.3382 258.477Z" fill="#E2F9FE"/>
<path d="M59.9092 325.915C59.9835 327.145 59.9649 328.378 59.9766 329.609C60.0917 333.178 59.6075 336.741 58.5441 340.149C55.9321 347.871 46.2389 344.205 42.8585 351.178C40.8428 355.433 39.2397 359.871 38.0711 364.432C37.5464 366.057 36.8406 369.928 34.4608 368.783C29.3878 366.348 31.2731 364.298 33.9964 357.114C35.5822 352.949 37.7553 345.898 41.484 343.235C44.8389 340.839 49.5033 341.925 51.9062 338.057C53.5477 335.413 53.2993 331.343 53.3225 328.274C53.3387 325.743 52.6979 319.792 59.157 322.205C59.3752 321.736 59.8674 325.39 59.9092 325.915Z" fill="#E2F9FE"/>
<path d="M41.1446 286.722C42.4239 292.187 39.6471 292.016 32.3406 294.384C28.0942 295.758 21.2102 298.595 16.8268 297.251C15.3737 296.785 14.0308 296.027 12.8799 295.025C13.9595 293.399 15.0716 291.786 16.1303 290.168C17.9301 291.272 20.0862 291.64 22.1505 291.196C26.7251 290.057 31.1937 288.529 35.5074 286.627C37.0653 285.984 40.5363 284.126 41.1446 286.722Z" fill="#E2F9FE"/>
<path d="M170.527 266.407C177.833 264.057 180.613 264.215 179.329 258.745C178.723 256.165 175.266 258.037 173.68 258.645C169.393 260.598 164.926 262.128 160.342 263.214C152.81 264.942 149.578 255.088 141.907 257.902C138.589 259.209 135.515 261.068 132.818 263.4C131.873 264.18 130.902 264.944 129.985 265.761C129.583 266.119 127.05 268.798 127.556 268.661C129.716 275.222 133.946 270.969 135.938 269.404C138.346 267.512 141.368 264.761 144.438 264.396C148.974 263.843 151.029 268.162 155.011 269.272C159.429 270.502 166.278 267.772 170.527 266.407ZM53.3193 328.276C53.3007 331.345 53.5515 335.415 51.903 338.06C49.5001 341.928 44.8357 340.846 41.4808 343.237C37.7521 345.9 35.579 352.951 33.9932 357.116C31.2606 364.3 29.3753 366.35 34.4576 368.785C36.8374 369.93 37.5432 366.055 38.0679 364.435C39.2365 359.874 40.8396 355.435 42.8553 351.18C46.2311 344.215 55.9289 347.874 58.5409 340.152C59.6043 336.743 60.0885 333.18 59.9734 329.611C59.9618 328.38 59.9734 327.148 59.906 325.917C59.8758 325.395 59.3836 321.738 59.1631 322.202C52.6947 319.79 53.3355 325.745 53.3193 328.276ZM199.444 265.236C197.968 267.433 201.671 268.719 203.222 269.416C207.545 271.282 211.702 273.51 215.65 276.077C216.842 277.019 217.809 278.215 218.48 279.578C219.151 280.942 219.509 282.437 219.529 283.957C215.652 285.178 211.696 286.134 207.689 286.819C194.613 289.796 181.33 292.505 168.006 292.199C156.267 291.929 144.649 289.517 132.961 288.591L132.894 289.299C133.182 289.501 132.931 291.103 132.913 291.356C132.028 302.268 125.179 313.73 121.933 324.598C120.603 329.051 124.322 330.031 125.794 333.588C126.837 336.103 125.054 337.999 124.548 340.321C124.111 342.986 124.448 343.702 123.552 345.313C122.104 347.57 120.154 349.462 117.854 350.841L115.579 347.839C113.183 344.045 106.96 341.073 103.25 339.002C96.5406 335.255 94.7691 333.117 91.6417 337.772C90.1604 339.98 93.8682 341.254 95.4192 341.97C99.7326 343.846 103.885 346.074 107.833 348.631C108.673 349.201 109.39 349.936 109.939 350.79L111.525 354.214C107.68 355.951 103.698 357.388 100.78 358.753C78.6052 369.129 52.2211 379.781 27.2858 378.922C23.3166 378.814 19.3894 378.08 15.6493 376.747C2.11594 371.822 -0.574946 356.06 2.10665 341.737C3.68542 333.321 8.23601 325.683 9.59422 317.301C10.4416 312.073 6.90566 307.768 8.92092 302.477C9.9411 299.843 11.2715 297.339 12.8841 295.02C18.368 299.663 23.636 297.197 32.3448 294.379C39.6513 292.015 42.4281 292.187 41.1488 286.717C40.5405 284.121 37.0695 285.972 35.5163 286.617C31.2026 288.519 26.734 290.047 22.1594 291.186C20.0951 291.631 17.939 291.262 16.1392 290.158C21.3448 281.975 25.3217 273.072 27.9428 263.734C31.1654 252.516 33.2828 230.455 38.9223 221.082C40.206 221.68 41.6273 221.921 43.0364 221.778C46.0547 221.21 48.8002 219.659 50.8443 217.367C55.7767 211.977 58.6964 205.048 59.1097 197.753C59.1232 197.624 59.1287 197.495 59.1259 197.365H59.2258C59.6623 197.172 60.0804 196.938 60.4749 196.669C63.7384 195.091 67.2066 193.978 70.7787 193.36C78.7477 192.038 86.9128 192.54 94.66 194.828C98.4715 195.906 101.976 197.865 104.892 200.546C106.834 202.763 108.954 204.816 111.232 206.685C118.834 211.658 128.132 212.45 135.416 218.391C144.099 225.477 148.83 236.224 157.272 243.503C163.643 248.996 176.457 246.208 179.28 254.512C179.533 254.478 179.976 254.006 180.29 253.939C182.277 253.681 183.824 254.382 190.157 255.371C200.726 257.025 212.262 250.449 221.526 255C227.834 258.097 228.222 267.4 227.277 274.502C227.136 276.818 226.275 279.031 224.814 280.832C224.761 279.117 224.383 277.427 223.699 275.854C221.591 271.788 214.93 268.635 211.034 266.46C204.32 262.722 202.567 260.574 199.444 265.236ZM105.646 300.148C107.676 298.433 104.458 296.176 103.169 295.075C99.5313 292.088 96.1521 288.8 93.0673 285.245C88.108 279.311 95.4215 271.969 89.4407 266.407C86.7679 264.044 83.7183 262.146 80.4185 260.79C79.2924 260.296 78.178 259.771 77.0288 259.323C76.5412 259.135 72.9982 258.093 73.3349 258.48C68.4778 263.372 74.1777 265.246 76.4878 266.304C79.253 267.574 83.0722 269.035 84.8019 271.6C87.3558 275.389 84.4374 279.192 85.2407 283.237C86.1392 287.743 91.6835 292.598 94.8364 295.774C100.253 301.209 101.374 303.768 105.646 300.148ZM87.5183 220.478C93.1067 214.093 95.8417 212.647 91.4815 208.373C89.4198 206.353 87.177 210.049 86.0672 211.544C83.0462 215.779 79.679 219.756 76.0002 223.434C69.8244 229.37 61.0971 222.217 55.4251 229.217C53.0392 232.318 51.1866 235.795 49.9435 239.505C49.4792 240.765 48.9986 242.033 48.5946 243.317C48.4251 243.856 47.5498 247.784 47.9538 247.364C53.7906 252.137 55.3833 245.794 56.3538 243.215C57.5472 240.076 58.8496 235.829 61.5637 233.696C65.5455 230.578 69.9986 233.331 74.4145 232.071C79.325 230.657 84.2679 224.193 87.5183 220.478Z" fill="#FFA698"/>
<path d="M9.72614 384.991C9.7424 384.94 16.422 385.899 16.9235 386.036C25.0983 388.267 26.4426 396.375 32.1354 401.636L32.0681 401.838C23.0459 399.156 13.9587 394.164 9.06445 385.353L9.72614 384.991Z" fill="#7ED6ED"/>
<path d="M152.464 350.214C157.532 351.068 178.105 354.992 188.168 357.52C194.594 359.134 201.634 360.912 205.738 366.575C209.613 371.915 209.674 379.663 208.692 385.952C206.138 402.279 183.784 401.385 171.101 402.436C163.597 403.066 117.666 405.041 95.7002 405.369V404.963C97.3858 399.753 96.1065 390.203 90.1513 388.132C82.868 385.599 68.6312 389.189 61.5941 391.759C57.2083 393.356 59.8063 399.871 62.1861 404.728L62.1675 405.192C48.6133 404.747 41.1443 404.484 32.0826 401.835L32.1499 401.633C26.4501 396.372 25.1128 388.265 16.938 386.033C16.4342 385.897 9.75455 384.938 9.74062 384.989L9.08125 385.36C6.40043 380.39 5.1401 374.778 5.43846 369.138L5.75886 368.971C8.15291 372.545 11.6192 375.266 15.6587 376.744C19.3988 378.077 23.326 378.812 27.2952 378.92C52.2305 379.779 78.6053 369.127 100.789 358.751C108.481 355.152 118.943 352.505 123.556 345.31C123.949 344.61 124.186 343.833 124.253 343.033L124.675 343.1C129.802 341.28 135.757 343.938 139.616 345.863C140.528 346.327 141.299 346.75 141.937 347.045C145.293 348.555 148.832 349.621 152.464 350.214Z" fill="white"/>
<path d="M100.238 62.7556C101.538 62.4985 102.816 62.1462 104.064 61.7016C106.551 61.0701 109.172 60.6173 111.726 60.0764C119.244 58.4023 126.917 57.5245 134.618 57.4575C134.926 57.4575 135.221 57.3352 135.439 57.1175C135.657 56.8998 135.779 56.6045 135.779 56.2966C135.779 55.9887 135.657 55.6935 135.439 55.4758C135.221 55.258 134.926 55.1357 134.618 55.1357C126.753 55.2036 118.916 56.0985 111.238 57.8057C107.436 58.4934 103.674 59.387 99.9687 60.4827C99.7057 60.5601 99.4786 60.7281 99.3277 60.9569C99.1767 61.1858 99.1116 61.4606 99.1438 61.7329C99.1761 62.0051 99.3036 62.2571 99.5039 62.4443C99.7042 62.6315 99.9642 62.7418 100.238 62.7556Z" fill="black"/>
<path d="M94.6114 54.1992C94.837 54.2777 95.0797 54.2935 95.3136 54.2449C95.5475 54.1962 95.7638 54.0849 95.9394 53.9229C96.6638 53.5468 103.369 52.2837 105.034 52.0121C111.877 50.7606 118.83 50.2075 125.785 50.3614C126.093 50.3647 126.39 50.2457 126.61 50.0304C126.83 49.8151 126.955 49.5211 126.959 49.2133C126.962 48.9054 126.843 48.6088 126.628 48.3887C126.413 48.1686 126.119 48.043 125.811 48.0396C116.387 47.878 106.981 48.8919 97.8084 51.0579C96.6625 51.1992 95.5505 51.5411 94.5231 52.0678C94.3185 52.166 94.147 52.322 94.0301 52.5166C93.9132 52.7112 93.8559 52.9357 93.8653 53.1626C93.8746 53.3894 93.9503 53.6085 94.0829 53.7927C94.2156 53.9769 94.3993 54.1183 94.6114 54.1992Z" fill="black"/>
<path d="M92.9671 41.9822C91.6636 42.0824 90.3688 42.274 89.0922 42.5557C88.8755 42.5309 88.6561 42.5643 88.4566 42.6524C88.2571 42.7406 88.0847 42.8802 87.957 43.057C87.8293 43.2339 87.7511 43.4415 87.7302 43.6586C87.7094 43.8757 87.7467 44.0944 87.8384 44.2923C88.2308 45.0678 88.9505 44.9888 89.733 44.7869C90.5154 44.5849 98.0912 43.6794 99.3101 43.554C106.235 42.634 113.221 42.2459 120.206 42.3932C120.511 42.3911 120.805 42.2721 121.025 42.0605C121.246 41.8489 121.377 41.5609 121.392 41.2555C121.395 41.1031 121.368 40.9515 121.313 40.8095C121.257 40.6674 121.174 40.5377 121.069 40.4278C120.963 40.3178 120.837 40.2298 120.697 40.1686C120.557 40.1075 120.407 40.0745 120.254 40.0714C111.122 39.9556 101.995 40.5947 92.9671 41.9822Z" fill="black"/>
<path d="M83.5732 37.3216C93.6286 35.3278 103.862 34.3732 114.113 34.4728C114.421 34.4778 114.718 34.3602 114.939 34.146C115.161 33.9317 115.288 33.6384 115.293 33.3306C115.298 33.0227 115.18 32.7254 114.966 32.5043C114.751 32.2831 114.458 32.156 114.15 32.1511C103.807 31.9851 93.4758 32.9482 83.341 35.0231C83.0589 35.0804 82.8081 35.2405 82.6373 35.4722C82.4666 35.704 82.3881 35.991 82.417 36.2774C82.4459 36.5638 82.5803 36.8293 82.7939 37.0222C83.0076 37.2152 83.2853 37.3219 83.5732 37.3216Z" fill="black"/>
<path d="M145.876 49.4541C145.773 49.5704 145.694 49.706 145.645 49.8532C145.595 50.0003 145.576 50.1559 145.587 50.3107C145.599 50.4655 145.641 50.6165 145.712 50.7546C145.783 50.8926 145.881 51.0151 146 51.1147C146.12 51.2142 146.257 51.2889 146.406 51.3342C146.554 51.3795 146.711 51.3946 146.865 51.3785C147.019 51.3625 147.169 51.3156 147.305 51.2407C147.441 51.1657 147.561 51.0643 147.657 50.9424C152.934 44.6203 162.253 39.4846 169.418 35.3868C169.685 35.2329 169.881 34.9791 169.961 34.6812C170.041 34.3834 169.999 34.066 169.845 33.7987C169.691 33.5315 169.438 33.3363 169.14 33.2562C168.842 33.1761 168.525 33.2176 168.257 33.3715C160.819 37.6319 151.413 42.8186 145.876 49.4541Z" fill="black"/>
<path d="M278.913 195.99L236.045 194.133C235.738 194.123 235.44 194.234 235.214 194.441C234.988 194.649 234.852 194.936 234.835 195.243C234.822 195.55 234.931 195.85 235.139 196.077C235.348 196.304 235.637 196.439 235.945 196.452L278.864 198.31C279.172 198.316 279.47 198.2 279.692 197.987C279.915 197.774 280.043 197.481 280.05 197.173C280.056 196.865 279.94 196.567 279.727 196.345C279.514 196.123 279.221 195.997 278.913 195.99Z" fill="black"/>
<path d="M230.04 193.498L202.82 192.318C202.514 192.309 202.216 192.42 201.99 192.628C201.764 192.835 201.628 193.122 201.61 193.428C201.597 193.736 201.707 194.036 201.915 194.263C202.123 194.49 202.413 194.625 202.72 194.638L229.991 195.817C230.144 195.82 230.295 195.794 230.437 195.738C230.579 195.683 230.709 195.6 230.819 195.494C230.929 195.389 231.017 195.263 231.079 195.123C231.14 194.983 231.173 194.833 231.176 194.681C231.18 194.528 231.153 194.377 231.097 194.235C231.042 194.093 230.959 193.963 230.854 193.853C230.748 193.743 230.622 193.654 230.482 193.593C230.343 193.532 230.192 193.501 230.04 193.498Z" fill="black"/>
<path d="M278.493 180.816C278.8 180.829 279.101 180.72 279.328 180.512C279.555 180.303 279.69 180.013 279.703 179.705C279.717 179.397 279.607 179.097 279.399 178.87C279.19 178.643 278.9 178.508 278.592 178.495L247.648 177.164C247.496 177.158 247.344 177.181 247.2 177.233C247.057 177.286 246.925 177.366 246.813 177.469C246.7 177.572 246.609 177.696 246.545 177.835C246.481 177.973 246.444 178.123 246.438 178.275C246.431 178.428 246.455 178.58 246.507 178.723C246.559 178.866 246.639 178.998 246.742 179.111C246.951 179.338 247.241 179.473 247.549 179.486L278.493 180.816Z" fill="black"/>
<path d="M204.626 177.446L242.703 179.071C243.011 179.078 243.308 178.962 243.531 178.748C243.753 178.535 243.881 178.243 243.888 177.935C243.894 177.627 243.778 177.329 243.565 177.107C243.352 176.884 243.059 176.756 242.751 176.75L204.722 175.124C204.569 175.116 204.416 175.138 204.272 175.19C204.128 175.241 203.996 175.321 203.883 175.424C203.77 175.528 203.679 175.653 203.616 175.792C203.552 175.931 203.517 176.081 203.512 176.234C203.505 176.387 203.528 176.54 203.581 176.683C203.633 176.827 203.714 176.959 203.817 177.072C203.921 177.184 204.045 177.275 204.184 177.34C204.323 177.404 204.473 177.44 204.626 177.446Z" fill="black"/>
<path d="M279.217 186.7L203.9 183.45C203.594 183.441 203.296 183.552 203.07 183.759C202.844 183.966 202.708 184.253 202.691 184.559C202.677 184.867 202.787 185.167 202.995 185.394C203.203 185.621 203.493 185.756 203.8 185.769L279.168 189.02C279.476 189.026 279.774 188.91 279.996 188.697C280.218 188.484 280.347 188.191 280.353 187.883C280.36 187.575 280.244 187.277 280.031 187.055C279.818 186.833 279.525 186.707 279.217 186.7Z" fill="black"/>
<path d="M280.616 115.211H205.216C204.908 115.211 204.612 115.333 204.395 115.551C204.177 115.769 204.055 116.064 204.055 116.372V165.251C204.055 165.559 204.177 165.854 204.395 166.072C204.612 166.29 204.908 166.412 205.216 166.412H280.616C280.924 166.412 281.219 166.29 281.437 166.072C281.654 165.854 281.777 165.559 281.777 165.251V116.372C281.777 116.064 281.654 115.769 281.437 115.551C281.219 115.333 280.924 115.211 280.616 115.211ZM279.455 128.013H268.443L268.343 117.533H279.455V128.013ZM240.75 128.041H230.137L230.042 117.533H240.654L240.75 128.041ZM242.976 117.533H252.611V128.029H243.071L242.976 117.533ZM227.815 128.048H217.437V117.533H227.72L227.815 128.048ZM217.458 130.369H227.836L228.143 164.093H217.463L217.458 130.369ZM230.158 130.369H240.77L241.077 164.102H230.467L230.158 130.369ZM243.092 130.358H252.676V164.09H243.389L243.092 130.358ZM254.998 130.358H266.142L266.463 164.111H254.996L254.998 130.358ZM254.979 128.036L254.887 117.547H266.031L266.131 128.036H254.979ZM215.069 117.533V128.055H206.376V117.533H215.069ZM206.376 130.381H215.283V164.09H206.376V130.381ZM268.787 164.09L268.466 130.328H279.455V164.09H268.787Z" fill="black"/>
<path d="M194.263 204.774C338.001 211.972 328.575 211.623 329.125 211.099C329.376 210.888 329.533 210.587 329.562 210.26V108.873C329.57 108.726 329.548 108.579 329.498 108.44C329.448 108.301 329.371 108.174 329.271 108.066C329.171 107.958 329.05 107.871 328.916 107.81C328.781 107.749 328.636 107.716 328.489 107.712L196.58 106.143C196.277 106.143 195.985 106.261 195.768 106.474C195.551 106.686 195.426 106.974 195.419 107.278L193.16 203.59C193.154 203.892 193.266 204.185 193.472 204.406C193.677 204.627 193.961 204.759 194.263 204.774ZM291.931 161.219L327.222 163.076V185.058C290.371 183.124 291.479 183.157 291.235 183.201L291.931 161.219ZM327.249 160.754L292.003 158.897L292.639 138.837L327.249 140.646V160.754ZM290.473 207.228L291.17 185.471C291.402 185.532 289.403 185.402 327.189 187.384V209.048L290.473 207.228ZM327.291 138.324L292.714 136.511L293.566 109.611L327.291 110.013V138.324ZM197.716 108.476L291.244 109.59L288.156 207.103L195.508 202.51L197.716 108.476Z" fill="black"/>
<path d="M145.872 63.5617C146.091 63.5607 146.305 63.4978 146.489 63.3804C146.674 63.2629 146.822 63.0956 146.916 62.8978C147.009 62.6999 147.045 62.4797 147.019 62.2623C146.993 62.045 146.906 61.8395 146.768 61.6695L118.538 27.0758C118.444 26.951 118.326 26.8466 118.19 26.7686C118.055 26.6907 117.905 26.6408 117.75 26.6221C117.595 26.6034 117.438 26.6162 117.288 26.6597C117.138 26.7033 116.998 26.7766 116.877 26.8755C116.756 26.9743 116.656 27.0965 116.583 27.2348C116.511 27.3731 116.467 27.5247 116.454 27.6804C116.441 27.8361 116.46 27.9928 116.51 28.141C116.559 28.2893 116.638 28.426 116.741 28.5431L144.971 63.1368C145.08 63.2701 145.218 63.3773 145.373 63.4508C145.529 63.5243 145.699 63.5622 145.872 63.5617Z" fill="black"/>
<path d="M137.319 37.8526C137.552 38.0615 137.812 38.1846 145.278 42.7839C145.476 42.9057 145.705 42.9656 145.937 42.9557C146.169 42.9458 146.393 42.8667 146.579 42.7285C146.765 42.5903 146.906 42.3994 146.983 42.1804C147.06 41.9614 147.069 41.7244 147.01 41.5L145.617 36.1925C150.407 32.6007 155.501 29.4327 160.841 26.7245C160.983 26.6597 161.111 26.5667 161.217 26.4511C161.323 26.3355 161.404 26.1997 161.456 26.0519C161.507 25.9041 161.529 25.7474 161.518 25.5911C161.508 25.4349 161.466 25.2823 161.395 25.1426C161.325 25.003 161.226 24.8791 161.106 24.7784C160.986 24.6778 160.847 24.6024 160.697 24.557C160.547 24.5115 160.39 24.4968 160.234 24.5138C160.078 24.5308 159.928 24.5791 159.791 24.6559C154.61 27.2807 149.656 30.3302 144.979 33.7733C144.63 32.4569 144.644 32.4197 144.482 32.1875L139.681 25.8585C144.104 23.1681 148.85 21.0478 153.806 19.5481C153.955 19.507 154.095 19.4365 154.217 19.3406C154.338 19.2448 154.44 19.1256 154.514 18.99C154.589 18.8544 154.636 18.7052 154.653 18.5512C154.669 18.3971 154.654 18.2414 154.61 18.0931C154.565 17.9448 154.491 17.807 154.392 17.6877C154.293 17.5685 154.171 17.4702 154.034 17.3988C153.897 17.3273 153.746 17.2841 153.592 17.2716C153.437 17.2591 153.282 17.2777 153.135 17.3262C147.916 18.9052 142.922 21.1486 138.276 24.0011C138.276 24.0011 123.252 4.20609 121.162 1.46181C120.562 0.677355 119.675 0.163338 118.696 0.0327315C117.717 -0.0978752 116.726 0.165615 115.941 0.765292C115.593 1.02997 115.23 1.29232 114.843 1.57557C113.99 2.23039 113.432 3.19601 113.289 4.26143C113.146 5.32684 113.431 6.40543 114.081 7.26148C114.197 7.424 137.157 37.7063 137.319 37.8526ZM140.145 36.889L142.847 34.832L144.022 39.2804L140.145 36.889ZM116.213 3.42599C117.315 2.62499 117.571 2.31388 118.177 2.31388C118.394 2.31253 118.609 2.362 118.803 2.45835C118.998 2.5547 119.167 2.69525 119.298 2.86878C121.388 5.61306 141.902 32.6356 141.902 32.6356L138.318 35.3613C138.318 35.3613 117.993 8.5988 115.915 5.84523C115.637 5.48373 115.513 5.02737 115.568 4.57472C115.624 4.12206 115.855 3.70945 116.213 3.42599Z" fill="black"/>
<path d="M344.834 337.81C344.81 337.658 344.756 337.513 344.675 337.382C344.594 337.251 344.487 337.138 344.362 337.049C344.237 336.959 344.095 336.896 343.945 336.862C343.795 336.828 343.64 336.824 343.489 336.85C343.337 336.877 343.192 336.933 343.063 337.016C342.933 337.099 342.821 337.207 342.734 337.333C342.646 337.459 342.585 337.602 342.553 337.752C342.521 337.903 342.519 338.058 342.548 338.209L351.751 390.859C351.775 391.011 351.829 391.156 351.911 391.287C351.992 391.418 352.098 391.531 352.223 391.62C352.348 391.71 352.49 391.773 352.64 391.807C352.79 391.841 352.945 391.845 353.097 391.819C353.248 391.792 353.393 391.736 353.523 391.653C353.652 391.57 353.764 391.463 353.851 391.336C353.939 391.21 354.001 391.067 354.033 390.917C354.065 390.766 354.066 390.611 354.038 390.46L344.834 337.81Z" fill="black"/>
<path d="M389.901 327.972C389.884 327.818 389.837 327.67 389.763 327.535C389.688 327.4 389.588 327.281 389.467 327.186C389.346 327.09 389.207 327.02 389.058 326.978C388.91 326.937 388.755 326.925 388.602 326.945C388.449 326.964 388.301 327.013 388.168 327.09C388.034 327.167 387.917 327.27 387.824 327.393C387.73 327.515 387.662 327.655 387.623 327.805C387.584 327.954 387.576 328.109 387.598 328.262L393.432 374.622C393.476 374.923 393.636 375.195 393.878 375.38C394.12 375.564 394.425 375.646 394.726 375.608C395.028 375.57 395.303 375.415 395.492 375.177C395.681 374.938 395.768 374.634 395.735 374.332L389.901 327.972Z" fill="black"/>
<path d="M363.736 48.3954C364.38 53.4564 363.962 58.5959 362.51 63.4866C362.42 63.7809 362.449 64.0993 362.593 64.3717C362.737 64.644 362.983 64.848 363.278 64.9389C363.572 65.0297 363.89 64.9999 364.163 64.856C364.435 64.7121 364.639 64.4659 364.73 64.1715C366.815 56.7127 366.866 48.8316 364.876 41.3466C364.345 38.0219 361.408 40.0581 362.554 41.4813C363.107 43.756 363.502 46.0662 363.736 48.3954Z" fill="black"/>
<path d="M167.297 247.753C167.297 248.061 167.42 248.357 167.638 248.574C167.855 248.792 168.15 248.914 168.458 248.914C186.612 246.829 204.888 246.001 223.156 246.437C222.186 247.265 221.395 248.281 220.831 249.423C220.266 250.566 219.939 251.811 219.871 253.084C210.656 250.066 199.672 255.638 190.343 254.212C185.737 253.481 181.372 252.285 179.837 252.852C179.613 252.424 179.355 252.015 179.066 251.628C178.882 251.382 178.607 251.219 178.302 251.176C177.997 251.132 177.687 251.211 177.441 251.396C177.195 251.581 177.032 251.856 176.988 252.161C176.945 252.466 177.024 252.775 177.209 253.021C179.173 255.654 178.948 260.033 178.37 263.293C178.341 263.444 178.343 263.599 178.375 263.75C178.407 263.9 178.469 264.043 178.556 264.169C178.644 264.295 178.755 264.403 178.885 264.486C179.015 264.569 179.159 264.625 179.311 264.652C179.462 264.678 179.618 264.674 179.768 264.64C179.918 264.606 180.059 264.543 180.184 264.453C180.31 264.364 180.416 264.251 180.497 264.12C180.578 263.989 180.632 263.844 180.657 263.692C181.214 260.84 181.214 257.907 180.657 255.055C181.217 255.012 181.781 255.043 182.333 255.146C191.743 256.748 192.196 257.644 203.735 255.636C209.539 254.626 215.775 253.546 220.987 256.028C226.847 259.005 226.973 267.885 226.095 274.435C225.974 276.507 225.202 278.489 223.89 280.097C223.696 280.337 223.605 280.643 223.637 280.949C223.669 281.256 223.821 281.537 224.06 281.731C224.299 281.925 224.606 282.016 224.912 281.984C225.219 281.952 225.5 281.799 225.694 281.56C227.144 279.784 228.061 277.634 228.34 275.359C228.449 275.476 228.581 275.57 228.727 275.635C228.874 275.699 229.032 275.732 229.192 275.733C232.335 275.175 235.408 274.274 238.354 273.046C238.438 273.186 238.55 273.306 238.683 273.399C238.816 273.492 238.967 273.556 239.127 273.587L296.827 284.562L244.096 311.838L190.413 291.511C196.377 290.517 202.311 289.222 207.853 287.961C211.921 287.271 215.937 286.306 219.875 285.075C220.169 284.983 220.414 284.778 220.556 284.505C220.699 284.232 220.727 283.913 220.635 283.619C220.542 283.326 220.337 283.081 220.064 282.938C219.791 282.796 219.473 282.768 219.179 282.86C215.331 284.066 211.406 285.01 207.431 285.686C200.96 287.158 194.028 288.662 187.148 289.686C159.434 294.153 143.333 285.946 119.275 287.209C119.122 287.217 118.973 287.255 118.835 287.32C118.697 287.386 118.574 287.478 118.472 287.592C118.37 287.705 118.291 287.837 118.24 287.981C118.189 288.125 118.166 288.278 118.174 288.43C118.182 288.583 118.22 288.732 118.286 288.87C118.352 289.008 118.444 289.131 118.557 289.233C118.671 289.335 118.803 289.414 118.947 289.465C119.091 289.516 119.243 289.538 119.396 289.531C143.147 288.261 158.689 296.338 186.417 292.152C186.548 292.409 186.769 292.609 187.039 292.711C247.933 315.78 243.868 314.271 244.2 314.271C244.641 314.271 240.717 316.2 300.908 285.084C301.122 284.973 301.297 284.798 301.407 284.583C301.517 284.368 301.557 284.125 301.522 283.886C301.487 283.647 301.378 283.425 301.211 283.251C301.044 283.077 300.827 282.959 300.59 282.914L241.275 271.63C243.048 270.735 244.554 269.389 245.644 267.728C246.733 266.068 247.368 264.15 247.483 262.167C247.62 259.148 245.725 257.382 245.321 255.255C244.762 252.518 248.407 250.17 246.714 245.81C249.995 245.487 255.124 245.432 258.787 245.415C259.095 245.415 259.391 245.293 259.608 245.075C259.826 244.858 259.948 244.562 259.948 244.255C259.924 243.955 259.794 243.673 259.582 243.46C259.369 243.248 259.087 243.118 258.787 243.094C254.311 243.024 249.835 243.226 245.384 243.7C244.595 242.851 243.59 242.233 242.477 241.912C244.773 238.894 246.694 236.351 248.563 234.146C254.98 226.57 257.752 222.809 257.455 220.731C257.31 220.151 256.999 219.626 256.559 219.222C256.119 218.817 255.57 218.551 254.98 218.456C253.835 218.456 251.899 219.41 242.124 230.819C238.396 235.174 232.817 241.944 231.909 242.834C230.818 243.587 229.577 244.094 228.271 244.32C228.134 244.26 227.986 244.227 227.836 244.224C208.011 243.614 188.167 244.408 168.454 246.602C168.148 246.603 167.856 246.725 167.639 246.94C167.423 247.156 167.3 247.448 167.297 247.753ZM254.847 220.852C254.975 220.935 255.119 221.035 255.142 221.056C255.231 221.541 254.511 223.477 248.421 230.712C238.419 242.59 238.563 245.467 234.388 243.556C237.288 240.243 251.595 222.598 254.847 220.852ZM232.499 245.202C236.464 247.366 238.714 246.363 240.88 243.895C241.001 243.957 241.131 244 241.265 244.02C241.815 244.104 242.342 244.298 242.816 244.588C243.289 244.879 243.701 245.261 244.025 245.712C244.349 246.164 244.58 246.676 244.704 247.217C244.829 247.759 244.843 248.32 244.748 248.868C244.402 250.635 242.686 252.72 242.946 255.137C243.178 257.725 245.254 259.754 245.15 262.06C244.994 265.679 242.795 268.442 238.458 270.49C235.244 271.798 231.929 272.844 228.547 273.62C229.341 266.604 228.761 258.064 222.782 254.375C222.743 254.242 222.68 254.116 222.596 254.006C221.702 252.822 222.185 251.02 224.191 248.666C225.154 247.561 226.498 246.86 227.955 246.702C229.558 246.526 231.106 246.015 232.499 245.202Z" fill="black"/>
<path d="M185.978 212.9L335.576 220.778C335.884 220.786 336.182 220.671 336.406 220.459C336.629 220.247 336.759 219.955 336.767 219.647C336.775 219.339 336.66 219.041 336.448 218.817C336.236 218.594 335.944 218.464 335.636 218.456L186.101 210.581C185.949 210.573 185.796 210.595 185.652 210.646C185.508 210.696 185.376 210.775 185.262 210.877C185.149 210.979 185.056 211.103 184.99 211.241C184.925 211.378 184.887 211.528 184.879 211.68C184.871 211.833 184.893 211.985 184.943 212.129C184.994 212.273 185.073 212.405 185.175 212.519C185.277 212.632 185.401 212.725 185.538 212.791C185.676 212.856 185.825 212.892 185.978 212.9Z" fill="black"/>
<path d="M253.098 230.768C252.95 230.768 252.803 230.798 252.667 230.856C252.53 230.914 252.406 230.999 252.303 231.105C252.199 231.212 252.118 231.338 252.064 231.476C252.01 231.614 251.985 231.762 251.989 231.91C251.995 232.22 252.121 232.516 252.34 232.736C252.558 232.955 252.854 233.082 253.163 233.09C257.071 233.217 287.504 234.251 287.504 234.251C287.812 234.256 288.109 234.138 288.33 233.924C288.552 233.71 288.679 233.416 288.684 233.108C288.689 232.8 288.571 232.503 288.357 232.282C288.142 232.061 287.849 231.934 287.541 231.929C256.488 230.882 255.827 230.812 253.098 230.768Z" fill="black"/>
<path d="M346.585 288.899C349.424 290.756 363.173 291.792 367.712 291.792C370.406 291.792 373.093 291.662 375.776 291.402C375.928 291.386 376.075 291.341 376.209 291.269C376.343 291.197 376.462 291.099 376.559 290.981C376.655 290.863 376.727 290.727 376.771 290.581C376.815 290.435 376.83 290.282 376.815 290.131C376.8 289.979 376.755 289.832 376.682 289.697C376.61 289.563 376.512 289.444 376.394 289.348C376.276 289.251 376.14 289.179 375.994 289.135C375.849 289.091 375.695 289.076 375.544 289.092C366.334 289.934 357.049 289.256 348.059 287.086C347.606 286.853 346.812 286.073 345.969 286.802C345.802 286.956 345.68 287.154 345.619 287.373C345.558 287.592 345.559 287.824 345.623 288.042C345.688 288.261 345.812 288.457 345.982 288.608C346.151 288.76 346.36 288.86 346.585 288.899Z" fill="black"/>
<path d="M443.457 196.944C443.373 194.044 443.255 189.949 443.204 188.017C443.187 187.053 442.87 186.119 442.296 185.345C435.7 176.39 382.321 105.266 378.516 100.198C378.344 97.2723 377.148 76.7203 377.241 67.7678C377.252 67.1527 377.065 66.5503 376.709 66.0488C376.353 65.5473 375.845 65.1731 375.261 64.9808C374.676 64.7885 374.046 64.7883 373.461 64.9802C372.877 65.1721 372.369 65.5461 372.012 66.0474C370.208 68.5572 370.132 68.5664 370.155 69.0795C371.153 103.782 371.058 101.816 371.369 102.255L433.081 187.799L433.22 198.92C427.23 203.036 370.38 242.104 358.461 250.288C357.756 250.765 357.172 251.399 356.755 252.14C356.337 252.881 356.097 253.708 356.053 254.558C335.426 248.976 314.296 245.451 292.974 244.036C292.821 244.024 292.668 244.043 292.523 244.091C292.378 244.139 292.244 244.215 292.128 244.315C292.012 244.415 291.917 244.536 291.848 244.673C291.78 244.809 291.738 244.958 291.727 245.111C291.716 245.263 291.735 245.416 291.783 245.561C291.831 245.706 291.907 245.841 292.006 245.957C292.106 246.072 292.228 246.167 292.364 246.236C292.501 246.305 292.65 246.346 292.802 246.357C314.257 247.78 335.514 251.353 356.255 257.023C356.622 260.239 358.507 276.328 358.507 276.328C358.638 277.073 358.925 277.781 359.348 278.407C359.771 279.033 360.321 279.563 360.963 279.962C361.604 280.362 362.323 280.622 363.071 280.725C363.82 280.829 364.582 280.774 365.307 280.563C366.71 280.32 367.979 279.585 368.89 278.491C369.8 277.397 370.291 276.015 370.276 274.592L370.044 260.935C377.946 263.66 385.644 266.946 393.077 270.768C400.247 274.501 419.294 284.42 416.063 295.587C414.235 301.886 406.021 304.981 399.834 307.124C383.941 312.619 366.789 314.755 349.141 316.631C305.4 321.275 261.268 319.582 223.865 317.3C209.791 316.441 161.355 313.132 128.979 306.562C128.829 306.531 128.675 306.531 128.526 306.56C128.376 306.589 128.234 306.647 128.106 306.731C127.979 306.815 127.87 306.923 127.784 307.05C127.699 307.176 127.639 307.318 127.609 307.467C127.578 307.617 127.578 307.771 127.607 307.921C127.636 308.07 127.694 308.213 127.778 308.34C127.862 308.467 127.97 308.576 128.097 308.662C128.223 308.747 128.365 308.807 128.514 308.837C161.037 315.438 209.61 318.758 223.721 319.617C265.413 322.157 307.638 323.378 349.385 318.939C367.169 317.052 384.469 314.895 400.591 309.32C405.385 307.921 409.89 305.676 413.894 302.692C406.088 316.109 372.493 321.365 357.762 323.773C338.415 326.935 266.553 329.93 217.314 326.071C187.702 323.75 155.029 321.196 126.183 313.81C126.034 313.766 125.877 313.752 125.721 313.77C125.566 313.787 125.416 313.836 125.28 313.913C125.144 313.99 125.025 314.094 124.93 314.218C124.836 314.342 124.767 314.484 124.728 314.635C124.689 314.786 124.681 314.944 124.705 315.098C124.728 315.253 124.783 315.401 124.865 315.534C124.947 315.666 125.055 315.781 125.183 315.871C125.311 315.962 125.455 316.025 125.608 316.058C130.314 317.265 135.375 318.4 140.664 319.436L138.642 344.102C135.217 342.477 129.378 340.19 124.275 342.012C124.062 342.088 123.875 342.225 123.739 342.406C123.602 342.587 123.521 342.803 123.506 343.029C122.125 345.853 119.953 348.214 117.254 349.825C117.117 349.9 116.997 350.002 116.901 350.125C116.805 350.248 116.734 350.389 116.693 350.539C116.653 350.69 116.643 350.847 116.664 351.002C116.686 351.157 116.738 351.305 116.819 351.439C116.899 351.573 117.005 351.689 117.131 351.781C117.258 351.873 117.401 351.938 117.553 351.973C117.705 352.008 117.863 352.012 118.016 351.985C118.17 351.958 118.317 351.9 118.447 351.815C121.543 349.964 124.03 347.247 125.601 344C130.516 342.618 136.485 345.588 139.088 346.883C139.088 346.883 141.063 347.898 141.465 348.088C156.222 354.589 196.536 355.801 204.806 367.236C208.635 372.508 208.412 380.216 207.553 385.751C205.178 400.864 184.171 400.146 171.014 401.268C164.538 401.797 159.797 401.92 145.707 402.521C116.495 403.775 77.2832 405.47 46.6829 403.255C46.6294 403.135 46.5564 403.026 46.467 402.93C42.8237 399.028 40.0696 394.382 38.3943 389.313C38.3482 389.166 38.2735 389.03 38.1744 388.913C38.0753 388.796 37.9539 388.699 37.8172 388.629C37.6805 388.559 37.5312 388.516 37.378 388.504C37.2248 388.492 37.0708 388.511 36.9248 388.559C36.7788 388.606 36.6438 388.683 36.5275 388.783C36.4113 388.884 36.3162 389.007 36.2477 389.144C36.1793 389.282 36.1388 389.431 36.1287 389.585C36.1185 389.738 36.1389 389.892 36.1887 390.037C37.75 394.756 40.1923 399.136 43.386 402.944C24.2829 400.671 7.31571 391.131 6.56579 371.916C8.92623 374.576 11.9109 376.607 15.2514 377.827C19.0973 379.215 23.1419 379.972 27.2292 380.07C52.3386 381.185 78.3768 370.498 101.267 359.792C103.656 358.675 108.675 356.762 111.995 355.263C112.134 355.2 112.26 355.11 112.364 354.999C112.469 354.888 112.55 354.758 112.604 354.615C112.658 354.472 112.684 354.321 112.679 354.168C112.674 354.016 112.64 353.866 112.577 353.727C112.514 353.588 112.425 353.462 112.314 353.358C112.203 353.253 112.072 353.172 111.93 353.118C111.787 353.064 111.635 353.038 111.483 353.043C111.33 353.048 111.18 353.082 111.041 353.145C107.791 354.617 102.945 356.444 100.282 357.689C76.6448 368.745 51.4471 378.842 27.3081 377.751C23.4651 377.659 19.662 376.948 16.0454 375.645C3.02516 370.858 0.703436 355.527 3.24108 341.931C4.8036 333.633 9.34258 326.013 10.7356 317.465C11.6109 312.041 8.22583 307.683 9.99498 302.882C10.9967 300.336 12.2851 297.913 13.8351 295.659C13.9216 295.534 13.9824 295.392 14.0142 295.243C14.046 295.094 14.0481 294.94 14.0204 294.79C13.9927 294.64 13.9357 294.497 13.8527 294.369C13.7698 294.241 13.6624 294.131 13.5368 294.044C13.4112 293.958 13.2697 293.897 13.1206 293.865C12.9715 293.834 12.8176 293.831 12.6676 293.859C12.5177 293.887 12.3746 293.944 12.2467 294.027C12.1188 294.11 12.0085 294.217 11.922 294.343C10.2684 296.75 8.89439 299.337 7.82649 302.055C5.70908 307.804 9.24274 312.136 8.44407 317.093C7.14158 325.085 2.53528 333.148 0.961147 341.502C-0.229898 347.886 -1.32807 359.771 4.29747 368.849C4.28063 368.918 4.26976 368.988 4.26496 369.058C3.95414 374.916 5.26439 380.746 8.0517 385.907C12.398 393.731 20.589 399.619 31.7449 402.935C40.5118 405.488 47.4653 405.855 62.1177 406.336C94.2156 407.406 129.68 405.474 160.034 404.246C168.509 403.898 169.205 403.671 176.21 403.246C189.39 402.452 207.442 401.363 209.838 386.114C210.766 380.147 210.968 371.791 206.68 365.878C202.336 359.876 194.972 358.021 188.448 356.377C176.674 353.426 164.873 351.397 153.828 349.277L159.066 322.545C177.656 325.289 199.427 326.986 217.123 328.375C266.982 332.282 338.482 329.28 360.023 325.737C377.38 322.884 414.693 316.587 417.62 299.142C417.667 298.857 417.606 298.564 417.449 298.322C417.791 297.649 418.07 296.946 418.282 296.221C422.046 283.219 401.775 272.669 394.136 268.69C386.35 264.69 378.279 261.269 369.99 258.453C369.946 255.556 369.9 253.195 369.879 252.124C375.609 248.136 427.91 211.701 440.392 203.015C441.364 202.334 442.152 201.424 442.687 200.364C443.221 199.305 443.486 198.13 443.457 196.944ZM140.871 345.205L142.949 319.875C147.248 320.701 151.792 321.467 156.768 322.21L151.546 348.857C147.834 348.147 144.24 346.918 140.871 345.205ZM439.066 201.121C425.863 210.31 368.052 250.574 368.052 250.574C367.895 250.683 367.768 250.829 367.681 250.999C367.594 251.169 367.551 251.358 367.555 251.549L367.942 274.745C367.875 278.878 361.365 279.895 360.759 275.75C360.583 274.543 358.419 255.551 358.382 255.229C358.311 254.645 358.402 254.053 358.645 253.518C358.888 252.982 359.274 252.525 359.761 252.194C372.34 243.543 435.026 200.473 435.026 200.473C435.184 200.365 435.312 200.219 435.399 200.049C435.486 199.88 435.531 199.691 435.528 199.5C435.37 186.348 435.465 187.151 435.156 186.731L373.44 101.187L372.467 69.3999L373.886 67.4033C373.953 67.3015 374.052 67.2247 374.167 67.1844C374.282 67.1442 374.407 67.1428 374.523 67.1805C374.639 67.2182 374.74 67.2928 374.809 67.3931C374.878 67.4933 374.913 67.6135 374.908 67.7353C374.808 77.4285 376.194 100.455 376.208 100.685C376.223 100.912 376.303 101.13 376.44 101.312C377.011 102.074 433.619 177.49 440.42 186.728C440.713 187.115 440.875 187.585 440.884 188.07C440.935 190.011 441.054 194.107 441.137 197.009C441.159 197.812 440.981 198.608 440.619 199.326C440.258 200.043 439.724 200.66 439.066 201.121Z" fill="black"/>
<path d="M300.775 28.5456C301.008 28.5927 301.229 28.6885 301.422 28.8265C304.737 33.2966 307.114 38.3902 308.411 43.8017C307.564 44.1633 306.78 44.6578 306.089 45.2667C304.793 46.7044 304.011 48.5307 303.862 50.4604C303.034 56.6478 305.211 65.3403 311.608 66.413C311.944 72.3171 311.986 78.082 311.998 83.9768C311.998 84.2847 312.12 84.58 312.338 84.7977C312.555 85.0154 312.851 85.1377 313.159 85.1377C313.467 85.1377 313.762 85.0154 313.979 84.7977C314.197 84.58 314.319 84.2847 314.319 83.9768C314.292 69.0063 313.953 57.3373 310.92 44.4146C309.61 38.2225 306.965 32.3904 303.171 27.3244C302.641 26.7917 301.966 26.4281 301.23 26.2796C300.942 26.2499 300.654 26.3283 300.422 26.4996C300.189 26.6708 300.029 26.9226 299.972 27.2057C299.915 27.4889 299.966 27.7831 300.114 28.0308C300.263 28.2786 300.498 28.4621 300.775 28.5456ZM311.473 64.0053C306.909 62.733 305.557 55.329 306.177 50.6949C306.268 49.3075 306.805 47.9867 307.707 46.929C308.084 46.6113 308.496 46.3386 308.935 46.1164C310.247 52.004 311.095 57.9853 311.473 64.0053Z" fill="black"/>
<path d="M373.651 44.6915C374.543 44.5498 381.777 43.5956 384.359 43.252C384.51 43.2326 384.656 43.1837 384.788 43.1079C384.921 43.0322 385.037 42.9311 385.13 42.8105C385.223 42.6898 385.292 42.552 385.332 42.4049C385.372 42.2578 385.382 42.1042 385.363 41.953C385.344 41.8018 385.295 41.6558 385.219 41.5235C385.143 41.3912 385.042 41.2751 384.922 41.1819C384.801 41.0886 384.663 41.0201 384.516 40.9801C384.369 40.9401 384.215 40.9295 384.064 40.9489L374.194 42.2978C372.973 42.4115 372.235 42.4789 372.005 43.3356C371.942 43.5535 371.944 43.7851 372.011 44.0019C372.078 44.2187 372.207 44.4111 372.382 44.5554C372.557 44.6996 372.77 44.7894 372.996 44.8136C373.222 44.8378 373.449 44.7953 373.651 44.6915Z" fill="black"/>
<path d="M384.767 45.8518C383.627 46.0584 374.552 47.6372 374.368 47.6535C374.216 47.6567 374.065 47.6899 373.926 47.7512C373.786 47.8124 373.66 47.9006 373.554 48.0107C373.341 48.233 373.225 48.5308 373.232 48.8387C373.238 49.1466 373.367 49.4393 373.589 49.6524C373.811 49.8655 374.109 49.9817 374.417 49.9752C374.937 49.9752 384.946 48.1782 385.18 48.1341C385.336 48.1131 385.485 48.0608 385.62 47.9805C385.755 47.9001 385.872 47.7932 385.964 47.6664C386.056 47.5395 386.122 47.3953 386.157 47.2424C386.192 47.0895 386.195 46.9311 386.168 46.7768C386.14 46.6224 386.081 46.4754 385.994 46.3444C385.908 46.2135 385.796 46.1014 385.665 46.015C385.534 45.9285 385.387 45.8695 385.233 45.8415C385.079 45.8134 384.92 45.8169 384.767 45.8518Z" fill="black"/>
<path d="M383.405 50.7923C382.37 51.0756 376.888 52.5778 375.358 52.7565C374.661 52.8378 373.712 52.9446 373.617 53.9383C373.603 54.1575 373.648 54.3764 373.748 54.5721C373.848 54.7678 373.999 54.9329 374.184 55.0502C374.37 55.1676 374.584 55.2327 374.804 55.2389C375.023 55.245 375.24 55.192 375.432 55.0852C377.48 54.8252 382.319 53.4902 384.009 53.0351C384.156 52.9955 384.294 52.9272 384.415 52.8343C384.536 52.7413 384.637 52.6254 384.713 52.4933C384.789 52.3611 384.839 52.2153 384.858 52.064C384.878 51.9128 384.868 51.7592 384.828 51.6119C384.789 51.4647 384.72 51.3266 384.627 51.2058C384.534 51.0849 384.419 50.9835 384.286 50.9074C384.154 50.8313 384.008 50.7819 383.857 50.7622C383.706 50.7425 383.552 50.7527 383.405 50.7923Z" fill="black"/>
<path d="M106.6 250.967C112.304 240.503 119.471 229.039 129.397 223.376C129.664 223.222 129.86 222.968 129.94 222.67C130.02 222.372 129.979 222.054 129.825 221.787C129.671 221.519 129.417 221.324 129.119 221.243C128.821 221.163 128.503 221.204 128.236 221.358C125.825 222.753 123.575 224.408 121.524 226.292C116.614 224.664 111.836 222.662 107.231 220.304C106.024 219.74 102.836 217.432 101.334 217.86C101.17 217.87 101.01 217.916 100.864 217.994C100.719 218.071 100.592 218.179 100.491 218.309C100.391 218.44 100.319 218.59 100.281 218.751C100.244 218.911 100.24 219.077 100.271 219.239C100.303 219.401 100.368 219.554 100.463 219.688C100.558 219.823 100.681 219.935 100.823 220.019C100.965 220.102 101.123 220.154 101.287 220.172C101.451 220.19 101.616 220.172 101.773 220.121C103.328 220.774 104.832 221.541 106.272 222.417C110.598 224.581 115.044 226.494 119.59 228.147C113.614 234.66 108.556 241.96 104.559 249.844C103.066 252.505 101.725 255.249 100.542 258.063C100.027 259.223 99.2468 260.988 100.461 261.824C100.673 261.969 100.927 262.041 101.183 262.027C101.44 262.013 101.684 261.914 101.879 261.746C102.073 261.578 102.206 261.35 102.257 261.098C102.308 260.846 102.274 260.585 102.161 260.354C103.396 257.115 104.88 253.977 106.6 250.967Z" fill="black"/>
<path d="M32.0493 311.08C51.3197 308.633 69.5592 302.664 87.8776 297.382C88.1735 297.296 88.4233 297.097 88.5722 296.827C88.7211 296.558 88.7569 296.24 88.6716 295.944C88.5863 295.649 88.387 295.399 88.1175 295.25C87.848 295.101 87.5303 295.065 87.2345 295.15C68.4145 300.572 50.9343 306.339 31.7452 308.774C31.5931 308.792 31.446 308.84 31.3126 308.916C31.1791 308.991 31.0618 309.092 30.9676 309.213C30.8733 309.333 30.8038 309.472 30.7632 309.619C30.7226 309.767 30.7116 309.921 30.7309 310.073C30.7502 310.225 30.7994 310.372 30.8757 310.505C30.9519 310.638 31.0537 310.754 31.1752 310.847C31.2967 310.941 31.4355 311.009 31.5835 311.049C31.7315 311.088 31.8859 311.098 32.0377 311.077L32.0493 311.08Z" fill="black"/>
<path d="M35.0669 300.183C42.229 300.406 49.3976 300.081 56.5103 299.213C56.6656 299.198 56.8163 299.152 56.9535 299.078C57.0907 299.004 57.2116 298.903 57.3089 298.781C57.4062 298.659 57.4779 298.519 57.5198 298.369C57.5618 298.219 57.573 298.062 57.5529 297.907C57.5327 297.752 57.4817 297.603 57.4027 297.469C57.3237 297.334 57.2184 297.217 57.0932 297.124C56.9679 297.032 56.8252 296.965 56.6736 296.928C56.522 296.892 56.3646 296.886 56.2108 296.912C49.2151 297.765 42.1644 298.082 35.1202 297.861C34.2217 297.84 24.0758 297.752 23.4304 298.019C23.1603 298.119 22.9363 298.315 22.8008 298.569C22.6652 298.823 22.6274 299.118 22.6946 299.398C22.7618 299.678 22.9294 299.924 23.1655 300.088C23.4016 300.253 23.69 300.326 23.976 300.292C24.6887 300.292 23.7368 299.907 35.0669 300.183Z" fill="black"/>
<path d="M15.4882 291.127C15.6151 291.212 15.7575 291.27 15.9073 291.3C16.057 291.33 16.2111 291.33 16.3608 291.3C16.5104 291.27 16.6527 291.21 16.7795 291.125C16.9062 291.04 17.015 290.931 17.0995 290.804C22.3564 282.513 26.3831 273.503 29.054 264.056C32.5784 251.853 33.8739 233.316 39.6109 222.172C39.7519 221.898 39.7784 221.579 39.6846 221.286C39.5908 220.993 39.3843 220.749 39.1106 220.608C38.8369 220.467 38.5184 220.44 38.2251 220.534C37.9319 220.628 37.6879 220.835 37.5469 221.108C31.5917 232.677 30.3333 251.254 26.8205 263.415C24.2177 272.632 20.2927 281.424 15.1678 289.516C15.0829 289.642 15.0239 289.785 14.9941 289.934C14.9642 290.084 14.9642 290.238 14.994 290.388C15.0237 290.537 15.0827 290.68 15.1675 290.806C15.2523 290.933 15.3613 291.042 15.4882 291.127Z" fill="black"/>
<path d="M32.0821 213.675C32.2231 213.733 32.3742 213.763 32.5268 213.763C32.6793 213.763 32.8303 213.732 32.971 213.674C33.1118 213.615 33.2397 213.529 33.3473 213.421C33.4549 213.313 33.5402 213.185 33.5982 213.044C38.6678 200.726 41.5112 187.607 41.9959 174.296C42.0016 174.144 41.9771 173.992 41.924 173.849C41.8709 173.706 41.7901 173.575 41.6863 173.463C41.5825 173.351 41.4577 173.261 41.319 173.197C41.1803 173.134 41.0304 173.098 40.878 173.093C40.7256 173.087 40.5735 173.111 40.4305 173.165C40.2875 173.218 40.1564 173.298 40.0446 173.402C39.9328 173.506 39.8425 173.631 39.779 173.77C39.7154 173.908 39.6798 174.058 39.6742 174.21C39.1985 187.245 36.4141 200.092 31.4506 212.154C31.3918 212.296 31.3614 212.447 31.3613 212.6C31.3612 212.753 31.3914 212.905 31.4501 213.046C31.5088 213.188 31.5948 213.316 31.7033 213.424C31.8118 213.532 31.9405 213.617 32.0821 213.675Z" fill="black"/>
<path d="M24.8502 208.157C24.9805 208.236 25.1252 208.289 25.2761 208.313C25.4269 208.337 25.581 208.33 25.7293 208.294C25.8777 208.258 26.0175 208.193 26.1408 208.103C26.264 208.013 26.3683 207.899 26.4476 207.769C28.7391 204.005 30.5106 200.019 32.4585 196.228C32.5282 196.092 32.5704 195.944 32.5829 195.792C32.5953 195.64 32.5777 195.487 32.531 195.342C32.4844 195.196 32.4095 195.062 32.3109 194.946C32.2122 194.829 32.0915 194.734 31.9559 194.664C31.8202 194.594 31.6721 194.552 31.5201 194.54C31.3681 194.527 31.2151 194.545 31.0699 194.591C30.9247 194.638 30.7901 194.713 30.6738 194.812C30.5576 194.91 30.4618 195.031 30.3922 195.167C28.428 198.997 26.6774 202.93 24.4648 206.562C24.3046 206.824 24.2551 207.14 24.3274 207.439C24.3997 207.738 24.5877 207.996 24.8502 208.157Z" fill="black"/>
<path d="M81.6343 119.688C81.5627 119.39 81.376 119.132 81.115 118.971C80.854 118.81 80.5399 118.759 80.2413 118.829C74.5586 120.19 69.0384 122.157 63.7756 124.696C59.9378 126.477 57.9945 127.737 58.7143 129.297C58.8201 129.528 58.9984 129.717 59.222 129.836C59.4455 129.956 59.7019 129.999 59.9521 129.959C60.2023 129.919 60.4326 129.798 60.6078 129.615C60.7829 129.432 60.8934 129.196 60.9222 128.945C67.0919 125.306 73.7929 122.655 80.7823 121.088C81.0806 121.015 81.3378 120.826 81.4976 120.564C81.6573 120.302 81.7065 119.986 81.6343 119.688Z" fill="black"/>
<path d="M61.9143 130.641C60.9415 130.778 60.0221 130.898 59.8851 131.876C59.8573 132.117 59.901 132.36 60.0109 132.576C60.1208 132.792 60.292 132.97 60.5029 133.089C60.7139 133.208 60.9553 133.262 61.1969 133.245C61.4384 133.227 61.6694 133.139 61.8609 132.99C65.4425 132.615 69.0493 132.543 72.643 132.774C72.7955 132.781 72.9478 132.758 73.0913 132.707C73.2348 132.655 73.3667 132.575 73.4795 132.472C73.5923 132.369 73.6837 132.245 73.7485 132.107C73.8133 131.969 73.8503 131.819 73.8573 131.667C73.8643 131.515 73.8412 131.362 73.7893 131.219C73.7375 131.075 73.6579 130.943 73.555 130.83C73.4522 130.718 73.3281 130.626 73.19 130.562C73.0518 130.497 72.9023 130.46 72.7498 130.453C69.1385 130.235 65.5159 130.298 61.9143 130.641Z" fill="black"/>
<path d="M74.1129 150.221C74.2641 150.263 74.4222 150.274 74.5776 150.253C74.7331 150.232 74.8826 150.179 75.0173 150.099C75.1519 150.018 75.2689 149.912 75.361 149.785C75.4532 149.658 75.5187 149.513 75.5536 149.36C75.5884 149.208 75.5919 149.049 75.5638 148.895C75.5358 148.74 75.4767 148.593 75.3903 148.463C75.3038 148.332 75.1917 148.22 75.0607 148.133C74.9298 148.047 74.7827 147.988 74.6283 147.96C68.9704 146.639 63.7517 143.874 59.4814 139.934C59.1667 139.57 58.8868 139.178 58.6455 138.761C58.573 138.623 58.4731 138.5 58.3519 138.401C58.2307 138.302 58.0907 138.228 57.9404 138.185C57.79 138.141 57.6324 138.128 57.4769 138.147C57.3215 138.166 57.1715 138.216 57.036 138.294C56.9004 138.373 56.7821 138.478 56.6882 138.603C56.5943 138.728 56.5266 138.871 56.4894 139.023C56.4521 139.175 56.446 139.333 56.4714 139.488C56.4969 139.642 56.5533 139.79 56.6372 139.922C57.9109 141.844 59.5992 143.455 61.5779 144.638C65.3723 147.263 69.6235 149.157 74.1129 150.221Z" fill="black"/>
<path d="M55.4179 144.516C55.1231 144.603 54.8751 144.804 54.7285 145.075C54.5818 145.345 54.5483 145.662 54.6355 145.957C55.0248 147.265 55.6289 148.5 56.4232 149.609C56.6027 149.86 56.8743 150.029 57.1782 150.079C57.4821 150.129 57.7935 150.056 58.0438 149.876C58.2941 149.697 58.4629 149.425 58.5129 149.121C58.563 148.818 58.4903 148.506 58.3108 148.256C57.6664 147.356 57.176 146.356 56.8597 145.296C56.7716 145.001 56.5703 144.754 56.3001 144.608C56.0298 144.461 55.7126 144.428 55.4179 144.516Z" fill="black"/>
<path d="M112.845 206.113C112.784 206.253 112.751 206.404 112.748 206.556C112.745 206.709 112.773 206.86 112.828 207.002C112.941 207.289 113.163 207.519 113.445 207.642C113.727 207.766 114.047 207.771 114.334 207.659C114.621 207.546 114.851 207.325 114.974 207.042C115.553 205.695 116.455 204.512 117.6 203.597C120.386 202.02 124.86 203.028 128.468 201.275C135.178 197.99 139.58 190.307 141.595 186.04C142.976 183.249 143.877 180.245 144.26 177.155C144.455 177.243 144.67 177.276 144.882 177.25C145.095 177.223 145.296 177.139 145.463 177.006C148.455 174.617 150.776 171.491 152.196 167.935C153.167 165.545 153.379 162.913 152.802 160.399C151.831 156.579 147.23 153.988 143.332 153.691C143.025 153.668 142.721 153.768 142.488 153.969C142.254 154.169 142.11 154.455 142.087 154.762C142.063 155.069 142.163 155.372 142.363 155.606C142.563 155.84 142.848 155.985 143.155 156.008C146.173 156.241 149.869 158.286 150.543 160.942C150.926 162.624 150.877 164.376 150.399 166.034C150.249 165.936 150.079 165.875 149.902 165.855C147.601 165.596 145.289 165.459 142.974 165.444C142.792 164.904 142.595 164.369 142.384 163.84C141.537 162.091 141.195 160.14 141.398 158.207C141.428 157.899 141.336 157.592 141.14 157.352C140.944 157.113 140.661 156.961 140.353 156.93C140.045 156.899 139.737 156.992 139.498 157.188C139.258 157.384 139.107 157.667 139.076 157.975C138.858 160.554 139.353 163.143 140.506 165.46C139.468 165.474 134.565 165.567 134.565 165.567C134.412 165.569 134.262 165.601 134.122 165.661C133.981 165.721 133.855 165.808 133.748 165.918C133.642 166.027 133.558 166.156 133.501 166.297C133.445 166.439 133.417 166.59 133.419 166.743C133.421 166.895 133.453 167.046 133.513 167.186C133.573 167.326 133.66 167.453 133.77 167.559C133.879 167.666 134.008 167.749 134.149 167.806C134.291 167.863 134.442 167.891 134.595 167.889C134.595 167.889 139.981 167.784 141.251 167.775C142.835 173.546 142.211 179.701 139.501 185.037C137.604 189.049 133.518 196.221 127.444 199.199C124.08 200.839 120.112 199.52 116.321 201.681C114.804 202.839 113.608 204.365 112.845 206.113ZM144.439 174.833C144.503 172.452 144.241 170.073 143.661 167.763C145.621 167.798 147.608 167.923 149.568 168.144C148.358 170.716 146.609 172.997 144.439 174.833Z" fill="black"/>
<path d="M53.0216 171.516C55.5569 179.177 58.8561 189.026 57.9437 197.684C57.5862 204.716 54.7711 211.399 49.9894 216.567C49.8359 216.732 49.734 216.939 49.6962 217.161C49.6583 217.384 49.6862 217.613 49.7764 217.82C49.8666 218.027 50.0151 218.203 50.2039 218.327C50.3927 218.45 50.6134 218.516 50.8392 218.517C50.9993 218.518 51.1578 218.485 51.3045 218.421C51.4513 218.357 51.583 218.263 51.6913 218.145C55.0264 214.44 57.5134 210.051 58.9789 205.286C60.4445 200.521 60.8534 195.493 60.1772 190.554C62.5271 192.568 65.352 193.948 68.3845 194.566C68.6865 194.627 69.0006 194.566 69.2577 194.396C69.5149 194.226 69.6939 193.961 69.7555 193.659C69.817 193.357 69.7561 193.043 69.5861 192.786C69.4161 192.529 69.1509 192.35 68.8488 192.288C65.1624 191.622 61.8835 189.539 59.7152 186.484C59.6753 186.412 59.6278 186.344 59.5735 186.282C56.5344 169.517 43.9251 148.997 54.3079 135.633C54.4924 135.39 54.5735 135.083 54.5335 134.78C54.4935 134.478 54.3357 134.203 54.0943 134.015C53.8529 133.828 53.5473 133.743 53.2439 133.78C52.9405 133.816 52.6638 133.971 52.4737 134.21C44.3337 144.695 48.9516 159.211 53.0216 171.516Z" fill="black"/>
<path d="M54.4345 123.464C54.6856 123.464 54.9301 123.382 55.131 123.232C57.0772 121.766 58.9296 120.179 60.6776 118.482C64.7195 115.32 69.3371 112.975 74.2736 111.574C75.9731 111.08 79.0633 110.181 80.5423 111.122C80.7652 111.265 81.0306 111.328 81.2941 111.299C81.5577 111.271 81.8036 111.154 81.991 110.966C85.6663 112.851 93.8806 114.379 96.3463 115.428C100.767 117.571 104.652 120.677 107.714 124.519C110.776 128.36 112.938 132.839 114.04 137.626C117.198 151.248 102.432 157.904 100.465 172.007C100.122 174.172 100.191 176.384 100.669 178.524C100.396 178.765 100.18 179.063 100.036 179.397C99.9768 179.455 99.9246 179.52 99.8799 179.589C95.9353 184.697 90.5867 188.543 84.4892 190.657C83.9575 190.871 83.4235 191.07 82.7433 191.323C82.6049 191.377 82.4788 191.458 82.3726 191.561C82.2664 191.665 82.1823 191.789 82.1254 191.926C82.0686 192.063 82.0401 192.21 82.0417 192.358C82.0434 192.506 82.0751 192.653 82.135 192.788C82.2625 193.078 82.4966 193.308 82.7888 193.43C83.081 193.552 83.4088 193.556 83.7045 193.443C88.5339 191.863 93.0193 189.379 96.9221 186.125C98.6567 184.669 100.221 183.022 101.586 181.215C104.999 188.303 113.455 189.262 120.901 185.521C121.038 185.454 121.161 185.36 121.262 185.244C121.363 185.129 121.44 184.995 121.489 184.85C121.538 184.705 121.558 184.551 121.547 184.398C121.536 184.246 121.495 184.096 121.427 183.959C121.358 183.822 121.263 183.7 121.147 183.6C121.031 183.5 120.896 183.424 120.751 183.377C120.605 183.329 120.452 183.31 120.299 183.322C120.146 183.334 119.997 183.376 119.861 183.446C109.733 188.533 101.055 183.109 102.761 172.35C104.619 158.947 119.763 152.026 116.302 137.102C115.109 131.963 112.78 127.157 109.486 123.037C106.191 118.917 102.014 115.588 97.2634 113.295C94.3612 112.057 84.1294 110.17 82.0468 108.233C83.073 106.84 85.729 106.676 87.4239 106.866C87.5756 106.883 87.729 106.869 87.8755 106.826C88.022 106.784 88.1587 106.713 88.2777 106.617C88.3967 106.522 88.4957 106.404 88.5691 106.27C88.6425 106.136 88.6889 105.989 88.7055 105.837C88.7221 105.686 88.7087 105.532 88.666 105.386C88.6233 105.239 88.5521 105.103 88.4566 104.984C88.3611 104.865 88.2431 104.766 88.1093 104.692C87.9756 104.619 87.8286 104.572 87.6769 104.556C82.1048 103.948 79.5509 106.645 79.6716 108.435C77.5061 108.349 75.3447 108.689 73.3101 109.436C68.1642 110.936 63.3557 113.413 59.1476 116.733C57.4371 118.391 55.6258 119.942 53.724 121.377C53.5291 121.524 53.3856 121.729 53.3139 121.962C53.2421 122.196 53.2459 122.446 53.3246 122.677C53.4033 122.908 53.553 123.109 53.7522 123.25C53.9515 123.391 54.1902 123.466 54.4345 123.464Z" fill="black"/>
<path d="M112.379 161.878C113.631 158.595 111.516 158.189 110.88 159.48C109.991 161.514 109.25 163.609 108.66 165.748C106.547 173.326 107.179 178.806 110.594 182.497C110.696 182.616 110.82 182.713 110.96 182.783C111.1 182.853 111.252 182.893 111.408 182.903C111.564 182.912 111.721 182.89 111.868 182.837C112.015 182.784 112.15 182.703 112.265 182.597C112.38 182.49 112.472 182.362 112.536 182.22C112.6 182.077 112.635 181.923 112.638 181.767C112.641 181.611 112.613 181.455 112.554 181.31C112.496 181.165 112.409 181.034 112.298 180.923C107.885 176.164 110.058 168.021 112.379 161.878Z" fill="black"/>
</svg>
