<svg width="479" height="390" viewBox="0 0 479 390" fill="none" xmlns="http://www.w3.org/2000/svg">
<path d="M326.041 245.463L174.43 226.799L0.57153 310.114L0 323.312L199.925 386.702L329.747 301.408L326.041 245.463Z" fill="#7ED6ED"/>
<path d="M149.273 294.611L149.291 294.649C148.965 295.656 148.933 296.735 149.196 297.76C149.46 298.786 150.01 299.715 150.781 300.44C153.41 302.857 226.87 326.876 226.87 326.876L295.801 269.361L222.877 253.557L149.273 294.611Z" fill="#E2F9FE"/>
<path d="M471.851 301.993C471.463 278.56 476.886 227.853 476.911 227.558C477.402 222.546 477.415 217.499 476.949 212.484C475.532 199.528 464.008 176.667 456.372 166.158L456.095 165.843C454.106 163.784 452.688 160.508 450.906 158.207C443.579 148.758 435.88 140.822 424.812 136.763L423.334 134.517C420.939 130.781 419.761 123.603 417.958 119.914C417.094 117.565 415.45 115.583 413.3 114.3C409.73 112.698 404.853 114.189 400.712 115.863C387.01 121.1 373.767 127.466 361.12 134.895C357.024 137.382 350.473 140.411 348.181 145.019C346.359 148.755 350.334 153.708 351.623 157.074C352.724 161.094 353.06 165.286 352.615 169.431C345.905 177.739 331.718 187.269 326.02 203.272C321.254 216.616 321.438 230.967 319.504 244.926C318.636 252.003 316.758 258.92 313.927 265.465C310.725 273.58 306.173 284.283 308.572 292.229C310.392 297.193 312.769 301.935 315.657 306.364L314.398 307.064C312.944 308.013 311.778 309.344 311.029 310.911C307.505 317.867 309.146 325.353 304.367 331.556C302.383 333.72 300.867 336.27 299.914 339.047C296.23 351.447 307.165 364.834 315.594 372.674C323.225 379.784 331.985 384.628 340.996 379.472L342.688 379.656C343.166 381.478 348.247 383.024 349.647 383.593C357.131 386.811 365.113 388.716 373.243 389.226C386.972 390.036 398.954 384.588 412.225 382.415C421.889 380.814 431.642 382.637 441.305 381.202C451.125 379.451 460.104 374.539 466.873 367.213C472.595 361.786 476.508 354.73 478.082 347.003C479.955 334.396 472.646 323.817 471.851 301.993Z" fill="#B283F0"/>
<path d="M476.384 219.092C477.235 225.056 475.377 224.882 470.495 227.448C467.677 228.938 463.092 231.925 460.149 230.578C457.498 229.366 456.121 224.658 453.1 225.258C451.04 225.668 449.008 228.659 447.412 230.726C446.083 232.451 443.253 237.076 441.817 229.915C441.488 230.061 443.175 227.133 443.436 226.751C444.051 225.857 444.695 225.001 445.332 224.172C446.968 221.813 449.028 219.779 451.408 218.173C456.561 215.32 458.709 225.859 463.702 223.963C466.885 222.716 469.882 221.037 472.61 218.976C473.677 218.309 475.981 216.277 476.384 219.092Z" fill="#E2F9FE"/>
<path d="M458.967 280.659C459.831 286.623 457.978 286.45 453.096 289.015C450.263 290.508 445.678 293.489 442.735 292.142C440.084 290.931 438.707 286.223 435.686 286.825C433.623 287.235 431.609 290.224 430.016 292.291C428.684 294.016 425.856 298.641 424.401 291.48C424.071 291.629 425.758 288.711 426.022 288.315C426.633 287.424 427.271 286.565 427.936 285.737C429.56 283.375 431.614 281.34 433.991 279.737C439.163 276.885 441.293 287.432 446.305 285.528C449.488 284.278 452.484 282.6 455.213 280.541C456.263 279.886 458.562 277.841 458.967 280.659Z" fill="#E2F9FE"/>
<path d="M464.746 332.151C465.597 338.116 463.739 337.942 458.857 340.507C456.022 342 451.455 344.984 448.512 343.637C445.861 342.423 444.484 337.713 441.445 338.317C439.403 338.725 437.376 341.721 435.775 343.786C434.448 345.495 431.615 350.135 430.18 342.975C429.848 343.121 431.542 340.205 431.799 339.808C432.406 338.906 433.058 338.06 433.695 337.232C435.32 334.864 437.382 332.827 439.77 331.232C444.924 328.379 447.072 338.919 452.065 337.023C455.248 335.775 458.245 334.096 460.972 332.033C462.022 331.378 464.344 329.334 464.746 332.151Z" fill="#E2F9FE"/>
<path d="M407.489 368.35C408.343 374.33 406.497 374.141 401.6 376.724C398.785 378.214 394.195 381.208 391.255 379.853C388.601 378.63 387.226 373.912 384.205 374.516C382.14 374.929 380.121 377.922 378.517 379.999C377.193 381.714 374.376 386.332 372.92 379.189C372.591 379.337 374.28 376.419 374.542 376.024C375.159 375.118 375.801 374.277 376.438 373.448C378.062 371.08 380.123 369.042 382.511 367.446C387.664 364.593 389.812 375.14 394.805 373.237C397.987 371.984 400.984 370.307 403.715 368.249C404.785 367.594 407.089 365.532 407.489 368.35Z" fill="#E2F9FE"/>
<path d="M344.21 341.895C345.063 347.875 343.203 347.686 338.321 350.269C335.488 351.767 330.919 354.748 327.975 353.399C325.304 352.17 323.924 347.444 320.908 348.061C318.864 348.477 316.844 351.468 315.238 353.545C313.916 355.259 311.079 359.877 309.644 352.734C309.294 352.883 310.991 349.939 311.262 349.552C313.309 346.186 316.022 343.273 319.234 340.991C324.387 338.139 326.535 348.686 331.528 346.782C334.709 345.53 337.706 343.853 340.436 341.795C341.486 341.14 343.807 339.078 344.21 341.895Z" fill="#E2F9FE"/>
<path d="M411.092 320.269C411.953 326.234 410.105 326.042 405.221 328.626C402.391 330.124 397.798 333.107 394.858 331.755C393.309 331.04 392.189 329.122 390.92 327.777C391.528 325.784 391.949 323.738 392.179 321.667C394.019 323.746 395.822 326.048 398.435 325.146C401.6 323.858 404.593 322.183 407.346 320.158C408.378 319.489 410.687 317.444 411.092 320.269Z" fill="#E2F9FE"/>
<path d="M390.921 327.785C390.57 327.303 390.096 326.924 389.549 326.688C389.001 326.452 388.4 326.367 387.809 326.443C385.749 326.848 383.74 329.847 382.142 331.909C380.815 333.619 377.982 338.259 376.527 331.098C376.197 331.247 377.886 328.329 378.146 327.933C378.765 327.025 379.405 326.184 380.062 325.355C381.68 322.988 383.735 320.951 386.117 319.356C388.62 317.976 390.397 319.705 392.172 321.674C391.945 323.746 391.526 325.791 390.921 327.785Z" fill="#E2F9FE"/>
<path d="M348.022 278.031C348.875 283.995 347.015 283.804 342.133 286.387C339.295 287.898 334.738 290.871 331.787 289.517C329.123 288.293 327.739 283.582 324.72 284.197C322.676 284.615 320.656 287.606 319.052 289.683C317.728 291.395 314.893 296.015 313.456 288.872C313.106 289.021 314.803 286.077 315.077 285.69C317.122 282.323 319.834 279.41 323.046 277.129C328.199 274.277 330.347 284.813 335.34 282.92C338.517 281.666 341.514 279.995 344.25 277.95C345.298 277.278 347.619 275.213 348.022 278.031Z" fill="#E2F9FE"/>
<path d="M420.373 247.974C421.236 253.956 419.386 253.765 414.501 256.348C411.671 257.846 407.099 260.827 404.158 259.477C401.487 258.249 400.107 253.523 397.091 254.14C395.047 254.555 393.025 257.546 391.421 259.623C390.099 261.338 387.262 265.956 385.809 258.813C385.477 258.961 387.179 256.023 387.446 255.648C389.491 252.282 392.195 249.364 395.397 247.07C400.568 244.217 402.716 254.767 407.711 252.861C410.89 251.604 413.886 249.927 416.619 247.873C417.669 247.219 419.965 245.156 420.373 247.974Z" fill="#E2F9FE"/>
<path d="M369.388 211.006C370.249 216.988 368.38 216.779 363.516 219.363C360.679 220.873 356.099 223.849 353.153 222.492C350.504 221.274 349.125 216.56 346.103 217.172C344.041 217.593 342.037 220.579 340.433 222.658C339.112 224.37 336.274 228.988 334.821 221.848C334.489 221.996 336.186 219.053 336.458 218.663C338.5 215.299 341.205 212.387 344.409 210.102C349.583 207.25 351.71 217.782 356.723 215.881C359.903 214.634 362.899 212.963 365.631 210.913C366.681 210.251 368.98 208.196 369.388 211.006Z" fill="#E2F9FE"/>
<path d="M448.103 182.659C448.957 188.621 447.096 188.433 442.214 191.016C439.384 192.514 434.815 195.487 431.869 194.145C429.202 192.929 427.823 188.221 424.801 188.825C422.76 189.233 420.733 192.229 419.134 194.291C417.807 196.001 414.975 200.641 413.537 193.481C413.187 193.629 414.887 190.711 415.158 190.316C415.778 189.422 416.417 188.569 417.054 187.74C418.678 185.371 420.74 183.334 423.127 181.738C428.281 178.885 430.429 189.425 435.421 187.529C438.606 186.282 441.604 184.604 444.332 182.541C445.387 181.886 447.7 179.842 448.103 182.659Z" fill="#E2F9FE"/>
<path d="M402.979 150.632C403.833 156.594 401.972 156.405 397.09 158.989C394.258 160.484 389.691 163.463 386.745 162.116C384.094 160.905 382.716 156.194 379.677 156.798C377.636 157.204 375.609 160.202 374.01 162.264C372.683 163.974 369.848 168.614 368.413 161.454C368.083 161.602 369.775 158.684 370.034 158.289C370.639 157.385 371.293 156.526 371.93 155.711C373.56 153.347 375.62 151.312 378.003 149.711C383.157 146.858 385.305 157.397 390.297 155.502C393.481 154.253 396.479 152.575 399.208 150.514C400.255 149.859 402.576 147.82 402.979 150.632Z" fill="#E2F9FE"/>
<path d="M207.456 170.519V134.188H259.415V170.519H207.456Z" fill="#FFA698"/>
<path d="M316.504 46.3662C311.937 47.6368 307.217 48.2747 302.477 48.2621L302.459 49.4379C301.049 50.6528 299.856 52.1005 298.935 53.7181C294.592 55.1355 288.476 51.296 287.119 50.1479C286.196 49.3685 285.401 48.4493 284.762 47.4237C279.475 38.9263 291.759 34.4069 293.708 27.3245C295.289 21.589 290.349 14.771 293.139 13.0614C295.405 11.6741 298.695 12.8927 301.163 11.6615C304.383 10.0577 304.753 5.8707 309.003 5.66173C315.096 5.36967 320.25 9.08587 326.562 8.36831C345.833 6.17534 367.035 -1.81851 385.369 8.90207C388.295 10.5613 390.847 12.8073 392.865 15.4991C394.883 18.1909 396.323 21.2705 397.094 24.5449C397.832 27.8557 397.072 32.0024 398.64 35.0741C399.899 37.5591 403.812 38.2213 405.836 40.0794C411.123 44.9235 412.098 52.7084 410.768 59.1866C409.189 66.8809 404.335 73.5554 400.737 80.517C397.636 86.5219 395.601 93.6093 388.866 96.8446C379.067 101.565 361.674 100.727 353.381 96.4217L352.092 96.0515C369.545 80.4893 356.901 61.9335 345.427 68.1297C343.612 69.1355 342.028 70.5103 340.776 72.1654C339.524 73.8206 338.632 75.7195 338.159 77.7399C336.814 78.5859 334.938 79.7995 332.748 81.2169C332.117 78.71 331.696 76.1549 331.489 73.5781C330.734 65.0429 319.064 60.6947 324.162 51.2355L324.384 50.0019C321.557 49.5594 318.882 48.4275 316.597 46.7061L316.504 46.3662Z" fill="#F5A757"/>
<path d="M399.994 114.063C396.316 111.636 393.609 106.53 391.361 102.303C390.405 100.704 389.569 99.0373 388.858 97.3154L388.012 97.2424C378.387 101.475 361.526 100.646 353.373 96.414L352.084 96.0439C369.512 80.5069 356.943 61.8981 345.42 68.122C343.604 69.1279 342.02 70.5026 340.768 72.1578C339.516 73.8129 338.625 75.7118 338.151 77.7323C336.806 78.5783 334.931 79.7918 332.74 81.2093C332.11 78.7023 331.689 76.1472 331.481 73.5704C330.726 65.0353 319.056 60.6871 324.155 51.2279L324.376 49.9942C321.549 49.5518 318.875 48.4199 316.589 46.6985L316.498 46.3687C311.932 47.6407 307.212 48.2786 302.472 48.2645L302.454 49.4403C299.795 52.0312 297.826 55.2459 296.727 58.792C295.628 62.3381 295.433 66.1028 296.16 69.7435C298.202 76.4986 301.387 83.9159 299.952 90.9278C299.033 95.3666 290.613 99.9691 291.779 104.254C292.688 107.51 298.746 108.534 301.976 110.531C305.425 112.651 306.614 118.684 310.498 118.354L310.516 118.857C310.682 119.061 310.388 120.62 310.627 121.123C311.49 122.926 313.185 124.27 313.958 126.111C315.67 130.232 315.119 134.54 320.27 136.232C326.816 138.387 335.376 136.454 341.787 134.853C347.751 133.342 352.167 131.043 357.432 135.459L357.671 136.859C371.357 128.577 385.759 121.542 400.704 115.838L399.994 114.063Z" fill="#FCE0D1"/>
<path d="M264.785 204.508V211.097C264.781 213.337 263.889 215.483 262.305 217.066C260.722 218.649 258.575 219.54 256.336 219.544C203.168 219.602 207.041 219.491 206.786 219.617C204.395 214.582 202.02 209.546 199.885 205.06L200.107 204.508H264.785Z" fill="#E2F9FE"/>
<path d="M313.929 265.445C310.785 273.416 306.145 284.162 308.574 292.209L307.028 292.65C305.769 293.312 303.164 292.524 301.874 292.355C297.31 291.758 292.559 289.802 287.903 290.698C283.304 291.587 279.441 294.578 274.763 295.374C272.666 295.731 270.068 295.741 268.927 293.551C268.638 292.584 268.642 291.554 268.941 290.59C269.24 289.626 269.819 288.774 270.604 288.14C272.827 286.117 275.195 284.259 277.689 282.581C278.683 281.826 280.108 280.851 280.34 279.509C280.977 275.803 273.696 274.7 271.412 274.758C263.315 274.967 259.468 282.674 254.48 287.828L253.191 287.846C251.368 286.065 249.305 284.547 247.063 283.336C247.191 283.17 247.614 282.986 247.76 282.82C251.817 278.258 254.437 270.682 260.112 267.434L259.929 267.122C259.878 266.997 259.859 266.861 259.872 266.727C259.884 266.592 259.929 266.463 260.002 266.349C261.31 264.141 263.088 262.248 265.209 260.803C267.331 259.359 269.744 258.4 272.278 257.993L272.167 256.998C273.277 255.601 274.623 254.408 276.143 253.473C290.658 246.474 301.054 260.44 313.929 265.445Z" fill="#FCE0D1"/>
<path d="M248.455 245.564L244.094 246.337L239.492 220.366L246.836 220.2C248.057 239.26 247.692 233.537 248.455 245.564Z" fill="#8DE3A7"/>
<path d="M127.253 234.066L189.484 204.138L206.288 237.453L146.781 268.466C125.561 231.553 126.968 234.237 127.253 234.066Z" fill="#FFA698"/>
<path d="M194.551 282.657C196.706 280.762 199.486 279.733 202.356 279.767L202.336 278.976C202.391 278.976 202.484 278.473 202.613 278.312C203.836 277.115 205.329 276.228 206.965 275.725C208.602 275.223 210.335 275.119 212.019 275.424L212.074 275.054C210.931 274.447 214.388 272.01 214.779 271.798C220.97 268.435 226.612 274.45 233.498 277.841C239.928 281.001 247.028 281.618 253.192 287.854C261.357 296.105 261.299 300.669 270.235 309.298C283.916 320.97 293.37 322.367 303.091 333.189C293.02 345.385 303.962 361.828 315.587 372.649C319.396 376.557 324.114 379.46 329.319 381.099L329.17 381.633C328.563 381.834 327.473 383.984 326.98 384.485C325.305 386.23 323.098 387.368 320.705 387.723C315.781 388.398 311.523 385.341 306.974 384.08C301.492 382.569 296.001 382.096 290.943 379.221C273.387 369.248 263.484 346.853 248.02 321.72C246.364 318.956 244.474 316.339 242.371 313.898C234.674 305.181 224.051 309.426 214.424 305.229C209.62 303.134 206.115 297.464 201.54 294.498C196.074 290.961 192.225 293.758 187.312 294.315C185.676 294.501 183.647 294.297 183.208 292.401C183.071 291.803 183.102 291.178 183.299 290.596C183.74 289.688 184.36 288.879 185.123 288.218C185.885 287.557 186.774 287.058 187.735 286.751C189.492 286.138 191.326 285.779 193.184 285.684L193.146 284.707C192.71 284.626 194.475 282.728 194.551 282.657Z" fill="#FCE0D1"/>
<path d="M127.07 234.182L124.034 228.894L187.129 199.464L189.485 204.137C189.231 204.246 127.332 234.023 127.07 234.182Z" fill="white"/>
<path d="M202.423 33.552C202.187 34.8895 202.052 36.2428 202.017 37.6005C202.017 37.7465 202.09 38.741 201.907 38.8342C201.907 38.8342 200.195 35.9086 200.049 35.7223C198.666 33.9486 196.728 32.6912 194.545 32.1521C192.406 31.647 190.204 31.4612 188.011 31.6007C187.699 31.6183 185.967 31.9507 185.728 31.709C188.39 30.6651 190.56 28.6544 191.803 26.0793C192.995 23.8823 193.292 21.3094 192.631 18.8986C192.611 18.8256 191.763 16.6478 192.447 16.2122C193.18 15.7464 197.866 21.7664 201.207 22.2674C203.875 22.5241 206.559 22.5612 209.233 22.3782C209.233 22.489 206.894 24.4402 206.766 24.5686C204.391 27.0188 202.868 30.1687 202.423 33.552Z" fill="#FAD353"/>
<path d="M124.04 228.894L146.787 268.466L206.292 237.452L187.132 199.464L124.04 228.894ZM116.841 225.765L189.252 193.996L216.675 251.735L151.667 287.903L116.841 225.765Z" fill="white"/>
<path d="M251.113 129.834V118.285H175.666V170.966H95.3066V193.44H178.007C178.007 193.44 186.474 190.144 187.575 189.663C188.686 189.178 189.942 189.143 191.079 189.566C192.215 189.988 193.143 190.836 193.668 191.929C193.889 192.372 194.111 192.85 194.35 193.346H251.113V170.51H207.465V129.834H251.113Z" fill="#FAD353"/>
<path d="M88.9043 170.953V106.974H175.669V170.953H88.9043Z" fill="#FFA698"/>
<path d="M172.834 40.296C173.604 39.9435 177.378 46.4796 180.581 47.5295C182.837 48.1642 185.16 48.5251 187.502 48.6045C187.631 48.6045 188.459 48.6045 188.509 48.7355C188.509 48.8437 185.896 50.445 185.74 50.576C179.098 55.5963 179.347 63.8923 178.801 63.9931C178.801 63.9931 177.562 60.866 177.439 60.6621C176.316 58.7269 174.59 57.2135 172.524 56.3542C170.481 55.5482 168.327 55.0583 166.137 54.9014C165.824 54.8788 164.075 54.9568 163.855 54.6975C164.523 54.3727 165.326 54.3073 166.653 53.63C168.573 52.6313 170.158 51.0912 171.212 49.2003C172.265 47.3094 172.741 45.151 172.579 42.9925C172.595 42.9245 172.076 40.6384 172.834 40.296Z" fill="#FAD353"/>
<path d="M213.299 331.696C202.884 329.724 178.57 325.124 169.053 323.319C167.874 323.093 166.655 323.196 165.531 323.619C164.408 324.041 163.423 324.766 162.685 325.713C162.479 325.965 151.607 339.813 151.383 340.105C151.116 340.447 150.941 340.851 150.874 341.279C150.807 341.708 150.85 342.146 150.999 342.553C151.148 342.96 151.398 343.322 151.726 343.606C152.054 343.889 152.449 344.085 152.873 344.174C163.163 346.309 190.33 351.958 201.214 354.224C202.551 354.498 203.941 354.336 205.179 353.763C206.418 353.19 207.441 352.236 208.098 351.04C210.268 347.044 213.564 341.009 215.772 336.94C216.042 336.444 216.192 335.891 216.209 335.326C216.225 334.762 216.108 334.201 215.867 333.69C215.626 333.179 215.268 332.732 214.822 332.385C214.376 332.039 213.854 331.803 213.299 331.696Z" fill="#FAD353"/>
<path d="M125.515 252.638L105.672 258.401L48.3457 246.049L89.9616 234.75L117.551 238.393C119.938 242.663 122.662 247.56 125.515 252.638Z" fill="#FAD353"/>
<path d="M216.672 251.751L189.249 194.011L116.838 225.78L151.664 287.918L216.672 251.751ZM222.876 253.574L149.03 294.746C149.03 294.746 113.026 230.342 111.611 227.787C111.345 227.31 111.182 226.783 111.131 226.239C111.081 225.695 111.144 225.147 111.317 224.629C111.49 224.111 111.77 223.635 112.137 223.231C112.505 222.827 112.952 222.504 113.452 222.283C115.106 221.56 186.467 190.149 187.572 189.668C188.684 189.187 189.938 189.154 191.074 189.576C192.209 189.999 193.138 190.843 193.665 191.934C193.881 192.382 222.876 253.564 222.876 253.564V253.574Z" fill="#E2F9FE"/>
<path d="M144.811 3.42953L115.676 4.16723L119.43 23.0151L149.064 21.0261L144.811 3.42953ZM116.192 26.6231C115.185 25.5178 111.094 0.725468 111.094 0.725468C118.899 0.503906 148.105 -0.566139 148.253 0.393125C148.339 0.967172 153.717 22.7357 152.929 23.9341C151.384 24.2228 149.822 24.4137 148.253 24.5056C140.486 25.0444 116.605 27.036 116.192 26.6231Z" fill="#8DE3A7"/>
<path d="M107.103 237.016L101.73 236.316C101.816 235.601 101.73 237.287 102.234 220.174L109.082 219.935C107.08 237.398 107.256 235.956 107.103 237.016Z" fill="#8DE3A7"/>
<path d="M79.8984 90.3784V205.8H151.274C151.468 205.467 149.328 206.492 178.111 193.818L178 193.433H95.302V170.972H88.8969V106.98C142.938 107.441 175.661 106.98 175.661 106.98V118.29H251.108V129.839H207.46V134.185H259.419V170.516H251.111V193.339H194.345C195.78 196.376 197.694 200.462 199.884 205.065L200.106 204.513H264.785V90.3784H79.8984Z" fill="white"/>
<path d="M151.405 205.592C139.627 210.763 127.756 215.99 119.682 219.525L89.2571 219.56C86.778 219.56 84.4005 218.574 82.6475 216.821C80.8945 215.068 79.9094 212.691 79.9087 210.212V205.811C156.776 205.811 151.206 205.934 151.405 205.592Z" fill="#E2F9FE"/>
<path d="M125.506 252.649C125.148 252.842 126.818 252.331 105.663 258.412L50.4642 246.51C51.0408 249.582 52.9669 256.846 48.6615 258.291C48.5583 258.598 45.7283 257.835 103.768 269.872C112.539 266.954 130.204 261.093 130.204 261.093C128.653 258.263 127.052 255.428 125.506 252.649Z" fill="#E2F9FE"/>
<path d="M130.219 261.097C127.175 262.104 108.367 268.343 103.782 269.877C32.5928 255.118 53.2207 259.531 48.6434 258.411C48.0392 258.436 50.431 257.482 28.2144 267.004C26.1498 269.911 25.106 273.421 25.2458 276.984C25.3857 280.547 26.7013 283.963 28.9873 286.7C29.3625 287.156 78.1036 295.12 90.4985 297.154L132.391 278.988C131.804 278.239 131.287 277.437 130.846 276.594L138.298 276.649L138.779 276.375C136.191 271.783 131.12 262.673 130.219 261.097Z" fill="#8DE3A7"/>
<path d="M142.416 282.881C141.482 281.22 139.705 278.052 138.781 276.363L138.3 276.637C136.643 276.62 130.847 276.582 130.847 276.582C131.289 277.425 131.806 278.227 132.393 278.976L90.4827 297.142C34.6088 288 39.8205 288.665 34.3822 287.773C34.3822 287.773 31.2602 290.852 29.9635 292.053C30.5596 293.313 30.9928 294.643 31.2526 296.011C31.6767 297.41 31.6943 298.9 31.3033 300.308C30.9123 301.715 30.1289 302.983 29.0446 303.962C28.9363 304.058 99.8337 316.7 99.8337 316.7C105.373 313.651 109.243 311.548 139.647 294.929C141.384 293.516 142.6 291.563 143.102 289.381C143.604 287.198 143.362 284.911 142.416 282.881Z" fill="#E2F9FE"/>
<path d="M339.199 77.0588C339.111 76.9184 338.997 76.7968 338.862 76.7009C338.727 76.6049 338.574 76.5365 338.413 76.4995C338.252 76.4626 338.085 76.4578 337.921 76.4855C337.758 76.5132 337.602 76.5728 337.462 76.661C336.47 77.2879 304.706 98.1021 300.474 100.955C300.474 100.955 292.344 91.493 291.113 90.0252C291.01 89.8893 290.88 89.7757 290.732 89.6913C290.584 89.607 290.42 89.5536 290.251 89.5343C290.081 89.5151 289.91 89.5305 289.747 89.5796C289.583 89.6287 289.432 89.7104 289.301 89.8198C289.17 89.9292 289.063 90.064 288.986 90.216C288.909 90.3681 288.864 90.5342 288.853 90.7043C288.842 90.8744 288.865 91.045 288.922 91.2057C288.979 91.3664 289.068 91.5138 289.184 91.6391C291.032 93.8471 301.302 105.653 303.875 108.956C304.08 109.215 304.379 109.382 304.707 109.423C305.035 109.463 305.366 109.373 305.627 109.172C305.889 108.97 306.062 108.674 306.108 108.347C306.153 108.02 306.068 107.688 305.872 107.423C304.656 105.884 303.406 104.373 302.123 102.891C306.705 99.8092 337.817 79.4255 338.804 78.8036C338.945 78.7155 339.067 78.6004 339.164 78.4648C339.26 78.3292 339.329 78.1759 339.365 78.0136C339.402 77.8514 339.406 77.6834 339.378 77.5196C339.349 77.3557 339.289 77.1991 339.199 77.0588Z" fill="black"/>
<path d="M272.848 296.806C271.834 296.912 270.811 296.712 269.911 296.233C269.011 295.754 268.274 295.017 267.795 294.118C267.371 292.897 267.335 291.576 267.691 290.334C268.047 289.093 268.778 287.992 269.784 287.181C275.323 282.025 278.825 280.917 279.099 279.308C279.502 277.087 273.729 275.952 271.445 276.022C264.01 276.221 260.443 283.483 255.387 288.707C255.153 288.947 254.834 289.084 254.499 289.089C254.164 289.093 253.841 288.965 253.601 288.731C253.361 288.497 253.223 288.178 253.219 287.843C253.214 287.508 253.343 287.185 253.577 286.944C258.648 281.708 262.603 273.734 271.382 273.495C275.799 273.54 282.375 275.292 281.582 279.724C281.078 282.828 277.405 283.518 271.463 289.054C270.922 289.5 270.5 290.074 270.237 290.724C269.973 291.373 269.875 292.079 269.952 292.776C270.791 294.961 274.233 294.178 274.55 294.125C278.83 293.385 283.017 290.348 287.662 289.455C292.662 288.49 297.481 290.494 302.036 291.101C303.126 291.242 305.682 291.93 306.44 291.527C306.586 291.445 306.748 291.394 306.915 291.376C307.082 291.358 307.251 291.373 307.412 291.422C307.573 291.47 307.723 291.55 307.852 291.657C307.982 291.764 308.088 291.895 308.166 292.044C308.244 292.193 308.291 292.356 308.305 292.524C308.319 292.691 308.299 292.86 308.247 293.019C308.195 293.179 308.111 293.326 308.001 293.453C307.891 293.58 307.756 293.683 307.605 293.757C305.843 294.671 303.073 293.757 301.709 293.596C297.099 292.985 292.499 291.079 288.141 291.927C282.921 292.939 278.495 296.806 272.848 296.806Z" fill="black"/>
<path d="M279.893 256.884C277.331 256.516 274.734 256.471 272.161 256.748C268.404 257.108 264.897 258.793 262.269 261.501C260.96 262.723 259.839 264.131 258.943 265.681C258.712 266.042 258.597 266.466 258.613 266.894C255.198 269.68 252.38 273.126 250.327 277.026C246.314 283.3 246.802 281.603 246.047 282.592C245.848 282.894 245.766 283.257 245.816 283.615C245.865 283.973 246.043 284.3 246.316 284.536C246.466 284.649 246.64 284.727 246.823 284.764C247.007 284.801 247.197 284.797 247.379 284.751C247.561 284.706 247.731 284.62 247.875 284.5C248.02 284.381 248.136 284.23 248.215 284.06C248.391 283.952 248.552 283.82 248.693 283.668C252.689 279.178 255.421 271.582 260.665 268.561C264.477 266.667 268.71 265.78 272.962 265.985C273.127 265.993 273.292 265.969 273.448 265.913C273.603 265.858 273.747 265.772 273.869 265.661C273.992 265.55 274.091 265.416 274.162 265.266C274.232 265.117 274.273 264.955 274.281 264.789C274.289 264.624 274.265 264.459 274.209 264.303C274.153 264.148 274.067 264.005 273.956 263.882C273.845 263.759 273.711 263.66 273.562 263.589C273.412 263.519 273.25 263.478 273.085 263.47C269.432 263.302 265.781 263.859 262.344 265.109C262.753 264.605 263.194 264.127 263.664 263.679C265.911 261.147 269.035 259.561 272.405 259.243C274.774 258.984 277.167 259.026 279.526 259.366C279.689 259.392 279.857 259.384 280.018 259.344C280.179 259.304 280.33 259.232 280.463 259.133C280.596 259.033 280.707 258.908 280.791 258.765C280.875 258.622 280.929 258.463 280.951 258.299C280.995 257.971 280.91 257.639 280.712 257.375C280.514 257.11 280.22 256.933 279.893 256.884Z" fill="black"/>
<path d="M149.033 295.996C148.809 295.997 148.589 295.937 148.396 295.824C148.202 295.71 148.042 295.548 147.933 295.352C147.933 295.352 111.297 229.807 110.512 228.38C109.842 227.18 109.675 225.764 110.049 224.442C110.423 223.12 111.307 222.001 112.506 221.33C112.805 221.166 186.822 188.599 187.074 188.493C188.483 187.873 190.078 187.827 191.521 188.364C192.963 188.9 194.14 189.978 194.801 191.369L224.007 253.013C224.144 253.302 224.166 253.632 224.069 253.936C223.972 254.241 223.762 254.497 223.483 254.652C145.023 298.454 149.539 295.996 149.033 295.996ZM149.519 293.03L221.232 253.051C219.863 250.168 192.53 192.497 192.53 192.497C192.153 191.691 191.477 191.064 190.645 190.75C189.813 190.435 188.892 190.458 188.076 190.812C186.971 191.293 113.732 223.543 113.732 223.543C113.427 223.714 113.158 223.943 112.942 224.217C112.725 224.492 112.565 224.806 112.47 225.143C112.375 225.479 112.348 225.831 112.389 226.178C112.43 226.525 112.539 226.861 112.71 227.166C114.198 229.845 125.027 249.212 149.519 293.03Z" fill="black"/>
<path d="M286.691 317.784C286.415 317.785 286.147 317.695 285.927 317.528C285.707 317.362 285.548 317.128 285.475 316.862C285.401 316.596 285.416 316.314 285.519 316.058C285.621 315.802 285.804 315.587 286.041 315.445L310.944 300.555C311.231 300.383 311.573 300.333 311.897 300.414C312.221 300.495 312.5 300.702 312.671 300.988C312.843 301.274 312.894 301.617 312.812 301.941C312.731 302.265 312.525 302.544 312.238 302.715C285.512 318.698 287.204 317.784 286.691 317.784Z" fill="black"/>
<path d="M344.975 89.7729C345.157 89.7749 345.338 89.7374 345.504 89.6629C345.67 89.5885 345.818 89.479 345.937 89.3418C346.057 89.2047 346.145 89.0433 346.197 88.8686C346.248 88.694 346.261 88.5103 346.234 88.3303C346.101 87.2107 346.241 86.0757 346.642 85.0219C347.878 84.7702 349.159 84.8431 350.358 85.2334C350.517 85.2799 350.683 85.2946 350.848 85.2768C351.012 85.259 351.171 85.209 351.316 85.1296C351.461 85.0502 351.589 84.9431 351.693 84.8142C351.797 84.6854 351.874 84.5374 351.921 84.3787C351.967 84.22 351.982 84.0537 351.964 83.8893C351.946 83.7249 351.896 83.5656 351.817 83.4205C351.737 83.2754 351.63 83.1474 351.501 83.0438C351.372 82.9401 351.224 82.8629 351.066 82.8164C350.053 82.5217 349.006 82.3626 347.951 82.3431C349.097 80.4869 350.646 78.9122 352.483 77.7356C352.773 77.5686 352.985 77.2934 353.072 76.9705C353.158 76.6475 353.113 76.3032 352.947 76.0134C352.78 75.7236 352.504 75.512 352.181 75.4251C351.858 75.3383 351.514 75.3832 351.224 75.5502C347.657 77.5845 342.931 83.4383 343.716 88.7004C343.761 89.001 343.914 89.2752 344.145 89.4724C344.376 89.6695 344.671 89.7763 344.975 89.7729Z" fill="black"/>
<path d="M306.237 81.5532C304.366 80.2944 302.689 81.9989 303.253 83.8947C304.008 86.1909 305.043 88.5375 306.838 88.5375C307.077 88.5402 307.314 88.4902 307.532 88.391C307.749 88.2918 307.942 88.1458 308.097 87.9634C309.371 86.4654 307.916 82.6963 306.237 81.5532Z" fill="black"/>
<path d="M457.005 164.962C455.167 163.056 453.714 159.76 451.901 157.429C444.388 147.736 436.432 139.623 425.057 135.504C425.231 134.774 424.792 134.442 424.395 133.83C422.104 130.252 420.953 123.137 419.143 119.461C418.154 116.8 416.273 114.564 413.82 113.134C410.044 111.435 405.227 112.751 401.231 114.287C401.276 114.044 401.247 113.794 401.15 113.567C401.053 113.34 400.891 113.147 400.685 113.011C397.427 110.858 395.023 106.379 393.117 102.882L394.423 102.288C394.727 102.149 394.964 101.896 395.08 101.583C395.197 101.27 395.185 100.923 395.047 100.62C394.908 100.316 394.654 100.079 394.342 99.9626C394.029 99.8457 393.682 99.8579 393.378 99.9965L391.913 100.666C391.631 100.137 390.292 97.6097 390.098 97.0482C390.136 96.823 390.112 96.5917 390.028 96.3791C389.944 96.1665 389.805 95.9807 389.624 95.8415C389.442 95.7024 389.227 95.6151 389 95.589C388.773 95.563 388.543 95.5991 388.335 95.6936C378.791 100.226 362.262 99.2663 354.457 95.5375C370.822 79.152 357.148 60.357 344.809 67.024C339.05 70.1385 336.533 76.2868 335.891 82.8305C335.865 83.1804 335.853 83.5304 335.85 83.8804C335.347 83.36 334.872 82.8128 334.428 82.2413C333.489 79.3891 332.924 76.4269 332.749 73.4292C331.955 64.5063 320.593 60.5106 325.278 51.8143C325.344 51.6924 325.389 51.5605 325.412 51.424C332.025 52.4048 338.777 51.7487 345.078 49.513C345.237 49.4601 345.384 49.3761 345.51 49.2657C345.636 49.1554 345.738 49.0211 345.812 48.8706C345.885 48.72 345.928 48.5564 345.937 48.3892C345.947 48.222 345.922 48.0546 345.866 47.8968C345.81 47.739 345.723 47.594 345.61 47.4703C345.498 47.3466 345.361 47.2466 345.209 47.1762C345.057 47.1059 344.893 47.0666 344.725 47.0606C344.558 47.0546 344.391 47.082 344.234 47.1413C337.939 49.3742 331.17 49.9253 324.596 48.7401C322.705 48.4407 320.882 47.81 319.211 46.8769C327.427 44.2669 335.036 40.0331 341.586 34.4267C341.832 34.207 341.982 33.8995 342.004 33.5703C342.026 33.2411 341.917 32.9166 341.702 32.6665C341.487 32.4164 341.182 32.2607 340.853 32.233C340.525 32.2052 340.198 32.3077 339.944 32.5182C323.206 46.887 301.805 49.1354 293.786 45.4897C293.684 45.3191 293.543 45.1751 293.375 45.0695C293.207 44.9638 293.016 44.8995 292.818 44.8818C292.62 44.8641 292.421 44.8936 292.236 44.9677C292.052 45.0419 291.888 45.1586 291.757 45.3084C291.611 45.4876 291.511 45.699 291.463 45.925C291.416 46.151 291.424 46.385 291.485 46.6076C291.626 47.0633 291.863 47.8211 296.269 48.9214C297.704 49.1848 299.155 49.3605 300.612 49.4476C298.128 52.2114 296.325 55.5177 295.347 59.1023C294.369 62.687 294.242 66.4508 294.977 70.0931C296.991 76.7123 300.103 84.0012 298.741 90.6556C297.893 94.7596 289.174 99.3167 290.591 104.579C291.729 108.655 298.396 109.786 301.317 111.573C304.086 113.275 305.451 118.744 309.326 119.514C309.219 120.235 309.284 120.971 309.515 121.662C310.356 123.424 312.204 125.119 312.818 126.586C314.47 130.565 314.016 135.489 319.9 137.425C326.698 139.661 335.161 137.806 342.12 136.068C347.91 134.603 351.77 132.543 356.35 136.177C352.546 138.011 349.33 140.872 347.067 144.437C344.909 148.856 349.2 154.184 350.463 157.497C351.629 161.174 351.955 165.065 351.418 168.885C342.673 178.812 330.329 187.456 324.85 202.821C320.026 216.324 320.192 230.877 318.274 244.722C317.375 251.693 315.524 258.507 312.773 264.975C309.341 273.384 304.859 284.223 307.39 292.587C309.037 297.259 311.243 301.714 313.961 305.855C312.197 306.903 310.787 308.454 309.912 310.309C306.103 317.825 308.243 324.409 303.011 331.207C293.462 321.168 284.335 319.625 271.124 308.361C262.448 299.987 262.239 295.16 254.086 286.925C247.84 280.63 240.372 279.754 234.068 276.682C227.164 273.268 221.328 266.986 214.177 270.682C214.145 270.7 211.358 272.362 210.731 274.046C209.054 273.915 207.368 274.158 205.797 274.758C204.226 275.359 202.807 276.3 201.644 277.516C201.501 277.709 201.391 277.925 201.319 278.155C201.229 278.274 201.161 278.408 201.118 278.55C195.831 278.994 192.001 282.715 191.843 284.492C190.328 284.673 188.837 285.016 187.396 285.515C186.248 285.888 185.188 286.493 184.284 287.292C183.379 288.092 182.648 289.069 182.137 290.162C181.865 290.966 181.821 291.828 182.011 292.655C182.247 293.68 183.254 296.006 187.484 295.535C192.52 294.959 196.024 292.312 200.894 295.535C207.589 299.78 209.15 307.369 222.745 308.497C242.006 310.609 239.035 308.721 261.189 346.376C269.097 359.64 277.862 373.185 290.345 380.288C293.981 382.153 297.882 383.449 301.911 384.132C304.985 384.662 307.985 385.556 310.847 386.796C313.953 388.394 317.43 389.135 320.918 388.941C323.575 388.539 326.026 387.276 327.897 385.346C328.4 384.842 329.337 383.143 329.755 382.733C329.859 382.681 329.956 382.615 330.042 382.536C343.89 385.235 351.742 369.92 358.996 363.436C362.287 360.478 365.857 357.953 369.082 354.826C372.859 351.162 376.117 347.089 379.783 343.461C383.668 339.631 388.711 336.182 391.138 330.854C394.887 322.75 393.192 312.407 395.196 304.06C398.24 291.419 405.879 279.165 417.904 267.641C418.033 267.529 418.138 267.393 418.213 267.239C418.288 267.085 418.331 266.918 418.339 266.748C418.347 266.577 418.32 266.407 418.26 266.247C418.2 266.087 418.108 265.941 417.99 265.817C417.872 265.694 417.73 265.596 417.572 265.529C417.415 265.463 417.246 265.429 417.075 265.429C416.904 265.43 416.736 265.466 416.579 265.534C416.422 265.602 416.281 265.701 416.164 265.826C403.784 277.687 395.906 290.354 392.749 303.471C390.735 311.918 392.301 322.354 388.854 329.802C386.686 334.553 381.825 337.911 378.015 341.671C374.319 345.329 370.988 349.476 367.33 353.018C364.251 356.009 360.602 358.607 357.317 361.561C346.762 371.01 338.434 392.164 316.479 371.7C310.688 366.312 297.304 352.288 301.138 339.379C303.384 331.826 307.181 334.847 309.698 320.297C310.454 315.921 311.388 310.513 315.124 308.079L315.22 308.008C316.487 310.306 317.491 312.741 318.211 315.264C318.302 315.586 318.518 315.857 318.81 316.02C319.101 316.182 319.446 316.222 319.767 316.13C320.088 316.039 320.36 315.824 320.522 315.532C320.685 315.24 320.725 314.896 320.633 314.574C319.29 310.236 317.345 306.108 314.855 302.31C307.974 290.492 306.68 287.3 314.686 267.049C316.688 262.384 318.296 257.559 319.493 252.625C322.954 236.62 321.663 219.308 327.252 203.657C333.34 186.579 345.929 181.171 360.179 161.84C363.115 157.579 366.462 153.616 370.17 150.007C384.705 136.763 405.24 131.763 422.486 137.264C434.274 140.963 442.278 149.057 449.955 158.957C451.578 161.631 453.343 164.215 455.242 166.699C455.474 166.94 455.792 167.078 456.126 167.084C456.46 167.09 456.783 166.963 457.023 166.731C457.264 166.499 457.402 166.181 457.408 165.847C457.414 165.513 457.287 165.19 457.055 164.949L457.005 164.962ZM314.721 373.565C318.295 377.142 322.566 379.948 327.267 381.809C326.764 382.521 326.356 383.297 326.069 383.606C324.589 385.138 322.648 386.143 320.542 386.469C316.01 387.018 311.899 384.145 307.302 382.861C301.763 381.333 296.43 380.884 291.558 378.12C274.4 368.359 264.306 345.787 249.096 321.075C247.391 318.247 245.454 315.565 243.305 313.056C237.618 306.689 230.885 306.878 222.959 306.007C210.29 304.949 209.411 297.985 202.236 293.435C201.195 292.749 200.059 292.219 198.865 291.862C196.142 291.262 193.307 291.426 190.672 292.335C188.783 292.803 184.856 293.911 184.435 292.106C184.357 291.783 184.357 291.445 184.435 291.122C184.805 290.363 185.327 289.688 185.967 289.137C186.607 288.587 187.353 288.173 188.159 287.922C189.782 287.354 191.477 287.02 193.195 286.93C197.039 286.864 200.861 287.524 204.461 288.873C204.773 288.984 205.115 288.968 205.415 288.828C205.715 288.688 205.947 288.436 206.063 288.126C206.178 287.817 206.167 287.474 206.032 287.172C205.897 286.871 205.648 286.634 205.34 286.514C201.921 285.233 198.313 284.525 194.662 284.419C194.914 284.102 195.226 283.752 195.382 283.586C196.756 282.369 198.437 281.551 200.242 281.219C205.479 280.212 211.259 283.447 214.93 285.824C215.211 286.006 215.552 286.068 215.878 285.998C216.205 285.928 216.49 285.731 216.671 285.45C216.853 285.17 216.915 284.829 216.845 284.502C216.775 284.176 216.578 283.891 216.297 283.709C212.641 281.144 208.467 279.411 204.069 278.634C208.379 274.932 215.857 276.816 220.625 279.731C220.766 279.818 220.923 279.875 221.086 279.901C221.25 279.927 221.416 279.92 221.577 279.881C221.738 279.843 221.889 279.773 222.023 279.675C222.157 279.578 222.27 279.456 222.356 279.315C222.443 279.174 222.5 279.017 222.526 278.854C222.552 278.69 222.545 278.524 222.507 278.363C222.468 278.202 222.398 278.051 222.301 277.917C222.203 277.783 222.081 277.67 221.94 277.584C219.354 275.999 216.495 274.911 213.51 274.374C219.5 268.563 225.344 275.207 232.932 278.958C239.365 282.098 246.4 282.78 252.271 288.712C260.308 296.832 260.34 301.497 269.407 310.241C283.003 321.843 292.067 323.263 301.438 333.251C292.041 345.978 302.853 362.515 314.721 373.565ZM344.046 132.949C337.23 134.882 327.318 137.244 320.676 135.051C316.252 133.598 316.917 129.95 315.137 125.637C314.124 123.932 313.017 122.285 311.821 120.702C311.806 120.254 311.813 119.805 311.844 119.358C315.021 118.421 318.032 114.708 320.213 112.167C320.431 111.914 320.539 111.585 320.514 111.252C320.49 110.919 320.333 110.609 320.08 110.391C319.827 110.173 319.498 110.064 319.165 110.089C318.832 110.114 318.522 110.27 318.304 110.523C316.696 112.597 314.845 114.471 312.79 116.105C307.732 119.829 307.077 112.182 302.631 109.448C301.51 108.796 300.33 108.251 299.106 107.822C291.611 104.863 291.253 103.622 296.498 98.015C298.617 96.1694 300.238 93.8204 301.211 91.1844C302.921 82.8405 298.399 73.6684 297.253 68.8544C297.332 69.153 297.517 69.4124 297.774 69.5832C298.031 69.754 298.342 69.8244 298.648 69.7809C304.942 68.8745 310.378 73.3184 314.51 78.1298C314.615 78.2625 314.746 78.3725 314.895 78.4534C315.043 78.5343 315.207 78.5844 315.376 78.6006C315.544 78.6169 315.714 78.5989 315.876 78.5479C316.037 78.4969 316.186 78.4138 316.315 78.3037C316.444 78.1936 316.549 78.0587 316.624 77.907C316.699 77.7553 316.743 77.59 316.753 77.421C316.763 77.252 316.739 77.0827 316.681 76.9233C316.624 76.7639 316.536 76.6176 316.421 76.4933C311.688 70.9542 305.547 66.2561 298.293 67.2858C298.122 67.3106 297.959 67.3702 297.812 67.4609C297.665 67.5517 297.539 67.6716 297.44 67.8132C297.342 67.9549 297.273 68.1153 297.24 68.2844C297.206 68.4535 297.207 68.6279 297.243 68.7965C296.719 65.4677 296.996 62.0621 298.049 58.8613C299.102 55.6604 300.903 52.7563 303.301 50.3892C303.429 50.2799 303.533 50.146 303.609 49.9955C303.684 49.845 303.728 49.6809 303.739 49.513C307.88 49.42 311.997 48.8454 316.005 47.801C318.061 49.3168 320.404 50.3964 322.891 50.9733C317.823 61.0116 329.584 66.0798 330.253 73.6532C330.442 76.8877 331.062 80.0825 332.096 83.1527C332.164 83.3265 334.569 86.7808 336.16 87.2416C336.329 88.1357 336.588 89.0104 336.933 89.8525C336.996 90.0054 337.088 90.1444 337.205 90.2617C337.321 90.3789 337.46 90.472 337.612 90.5358C337.765 90.5995 337.928 90.6325 338.094 90.633C338.259 90.6335 338.423 90.6014 338.576 90.5385C338.729 90.4757 338.868 90.3834 338.985 90.2668C339.102 90.1503 339.195 90.0118 339.259 89.8592C339.323 89.7067 339.356 89.5431 339.356 89.3778C339.357 89.2124 339.325 89.0486 339.262 88.8957C338.088 85.3582 338.135 81.5292 339.395 78.0215C341.251 71.1254 347.918 65.7676 354.066 69.2925C360.985 73.258 362.808 85.4464 350.29 95.9177C350.167 96.0229 350.066 96.1518 349.994 96.2966C349.921 96.4415 349.879 96.5993 349.869 96.7609C349.859 96.9225 349.881 97.0844 349.935 97.2372C349.989 97.3899 350.072 97.5302 350.181 97.6499C350.411 97.9016 350.729 98.0545 351.069 98.0766C351.409 98.0986 351.744 97.9881 352.004 97.7683L352.525 97.3277C352.608 97.4049 352.7 97.4709 352.8 97.5241C361.534 102.056 378.451 102.537 388.023 98.5991C388.144 98.8509 389.413 101.306 389.637 101.726C386.178 103.245 382.869 105.084 379.752 107.22C379.587 107.4 379.477 107.624 379.436 107.865C379.396 108.106 379.426 108.354 379.524 108.578C379.622 108.802 379.784 108.993 379.988 109.127C380.193 109.261 380.432 109.332 380.676 109.332C381.59 109.332 380.299 108.965 390.838 103.942C392.991 107.89 395.514 112.575 399.262 115.075C385.148 120.487 371.533 127.122 358.573 134.903C358.498 134.747 358.39 134.609 358.256 134.5C353.268 130.32 348.787 131.594 344.046 132.949ZM368.428 148.166C362.712 153.385 358.734 159.846 354.076 165.697C354.426 161.452 353.459 157.202 351.307 153.526C349.874 150.812 348.25 147.736 349.308 145.57C350.818 142.549 354.517 140.129 358.311 137.962C370.521 130.575 383.321 124.212 396.581 118.938C400.861 117.22 408.339 113.449 412.657 115.37C418.488 118.854 418.307 128.077 421.847 134.475C404.054 129.374 383.242 134.666 368.428 148.159V148.166Z" fill="black"/>
<path d="M336.439 312.127C334.397 309.106 330.23 304.486 329.603 301.079C329.573 300.917 329.512 300.762 329.421 300.623C329.331 300.484 329.215 300.364 329.079 300.271C328.942 300.177 328.789 300.111 328.627 300.076C328.465 300.042 328.298 300.04 328.136 300.07C327.973 300.1 327.818 300.162 327.679 300.252C327.54 300.342 327.421 300.458 327.327 300.595C327.233 300.731 327.167 300.884 327.133 301.046C327.098 301.208 327.096 301.375 327.126 301.538C327.894 305.705 332.222 310.37 334.339 313.517C341.299 324.235 350.037 333.686 360.176 341.464C360.394 341.629 360.659 341.717 360.932 341.716C361.197 341.719 361.456 341.637 361.673 341.484C361.889 341.33 362.052 341.112 362.137 340.861C362.222 340.61 362.226 340.338 362.147 340.085C362.069 339.831 361.912 339.609 361.7 339.45C351.786 331.846 343.243 322.606 336.439 312.127Z" fill="black"/>
<path d="M373.335 325.918C373.361 325.755 373.355 325.588 373.317 325.427C373.279 325.265 373.21 325.113 373.113 324.979C373.016 324.845 372.894 324.731 372.753 324.644C372.612 324.557 372.456 324.499 372.292 324.473C364.366 323.176 356.755 320.398 349.857 316.285C346.047 314.18 345.201 313.302 345.05 312.949C345.006 312.629 344.841 312.338 344.59 312.135C344.339 311.931 344.02 311.831 343.698 311.854C343.366 311.881 343.058 312.04 342.842 312.294C342.626 312.549 342.52 312.878 342.548 313.211C342.686 314.905 344.894 316.418 348.646 318.498C355.793 322.756 363.678 325.629 371.89 326.968C372.053 326.994 372.221 326.988 372.382 326.95C372.544 326.911 372.696 326.841 372.831 326.744C372.965 326.646 373.079 326.523 373.165 326.381C373.252 326.239 373.309 326.082 373.335 325.918Z" fill="black"/>
<path d="M389.14 228.934C389.199 229.099 389.292 229.25 389.413 229.377C389.534 229.505 389.681 229.605 389.843 229.672C390.005 229.739 390.18 229.772 390.355 229.768C390.531 229.763 390.704 229.722 390.862 229.647C391.021 229.572 391.163 229.465 391.277 229.332C391.392 229.199 391.478 229.044 391.529 228.876C391.58 228.708 391.596 228.531 391.574 228.357C391.553 228.183 391.496 228.015 391.406 227.864C387.682 219.946 382.175 212.997 375.317 207.562C368.46 202.128 360.437 198.354 351.877 196.538C356.53 192.497 366.795 184.284 376.659 177.476C376.932 177.285 377.117 176.995 377.176 176.668C377.235 176.341 377.162 176.003 376.973 175.73C376.784 175.456 376.495 175.269 376.168 175.207C375.842 175.146 375.504 175.217 375.229 175.404C366.05 181.806 357.2 188.668 348.712 195.961C345.347 195.44 341.942 195.224 338.538 195.317C337.279 195.392 335.539 194.962 335.013 196.279C334.935 196.556 334.933 196.848 335.007 197.126C335.08 197.404 335.227 197.658 335.431 197.86C335.669 198.074 335.979 198.189 336.299 198.183C336.619 198.176 336.924 198.048 337.153 197.825C340.321 197.809 340.59 197.749 343.196 197.905C352.938 198.46 362.35 201.637 370.437 207.098C378.524 212.56 384.986 220.104 389.14 228.934Z" fill="black"/>
<path d="M442.77 344.798C442.974 344.534 443.065 344.199 443.022 343.868C442.98 343.536 442.807 343.236 442.543 343.032C442.278 342.828 441.944 342.737 441.612 342.78C441.281 342.823 440.98 342.995 440.776 343.26C433.276 352.993 426.231 362.289 419.056 370.809C418.948 370.935 418.866 371.082 418.816 371.239C418.765 371.397 418.745 371.564 418.759 371.729C418.773 371.895 418.819 372.056 418.895 372.203C418.971 372.351 419.076 372.482 419.203 372.589C419.33 372.696 419.477 372.776 419.635 372.826C419.793 372.876 419.96 372.894 420.125 372.88C420.291 372.865 420.451 372.817 420.598 372.74C420.745 372.663 420.876 372.558 420.982 372.43C428.243 363.807 435.245 354.574 442.77 344.798Z" fill="black"/>
<path d="M446.929 352.675C442.752 354.989 438.738 357.693 434.748 360.057C434.511 360.198 434.326 360.413 434.223 360.668C434.12 360.924 434.103 361.207 434.176 361.473C434.249 361.739 434.407 361.973 434.627 362.141C434.846 362.308 435.114 362.399 435.39 362.399C436.221 362.399 442.795 357.842 448.147 354.878C448.436 354.715 448.648 354.444 448.738 354.125C448.828 353.806 448.788 353.464 448.628 353.174C448.467 352.884 448.199 352.669 447.881 352.575C447.563 352.482 447.221 352.518 446.929 352.675Z" fill="black"/>
<path d="M213.542 330.466L169.298 322.092C167.893 321.82 166.44 321.942 165.1 322.445C163.761 322.947 162.586 323.811 161.707 324.939C161.047 325.77 150.392 339.348 150.392 339.348C149.996 339.86 149.737 340.463 149.639 341.102C149.54 341.741 149.606 342.395 149.829 343.001C150.053 343.608 150.427 344.148 150.917 344.57C151.406 344.993 151.995 345.284 152.628 345.416L200.968 355.465C202.57 355.799 204.237 355.609 205.721 354.922C207.206 354.235 208.43 353.087 209.212 351.65L216.883 337.551C217.248 336.881 217.45 336.134 217.472 335.371C217.495 334.608 217.336 333.851 217.011 333.16C216.685 332.47 216.202 331.866 215.599 331.398C214.996 330.93 214.291 330.61 213.542 330.466ZM214.688 336.347L207.014 350.447C206.491 351.411 205.671 352.18 204.676 352.641C203.68 353.101 202.563 353.228 201.49 353.002L153.134 342.941C152.92 342.896 152.72 342.797 152.555 342.654C152.389 342.511 152.263 342.328 152.187 342.123C152.112 341.918 152.09 341.696 152.123 341.48C152.157 341.264 152.244 341.06 152.378 340.887L154.992 337.551C160.128 339.535 164.224 333.351 162.462 328.862C162.397 328.696 162.297 328.546 162.17 328.421C162.706 327.729 163.212 327.079 163.681 326.488C164.169 325.857 164.796 325.346 165.512 324.995C166.229 324.643 167.017 324.461 167.815 324.461C168.542 324.461 165.8 323.821 213.059 332.931C213.423 332.996 213.766 333.148 214.059 333.372C214.353 333.597 214.589 333.888 214.749 334.222C214.908 334.555 214.985 334.922 214.975 335.292C214.964 335.661 214.866 336.023 214.688 336.347Z" fill="black"/>
<path d="M212.196 334.343C212.046 334.274 211.883 334.234 211.718 334.228C211.553 334.221 211.388 334.247 211.233 334.304C211.077 334.361 210.935 334.448 210.813 334.56C210.692 334.672 210.593 334.807 210.524 334.957C208.062 340.183 204.969 345.087 201.314 349.56C200.637 350.238 199.708 351.167 200.634 352.093C200.87 352.329 201.191 352.462 201.524 352.462C201.858 352.462 202.178 352.329 202.414 352.093C206.573 347.216 210.068 341.81 212.808 336.015C212.948 335.712 212.963 335.366 212.848 335.052C212.733 334.739 212.499 334.484 212.196 334.343Z" fill="black"/>
<path d="M145.698 269.105C145.809 269.297 145.968 269.456 146.16 269.567C146.352 269.678 146.57 269.737 146.791 269.737C147.27 269.737 143.153 271.791 206.877 238.582C207.171 238.429 207.392 238.166 207.494 237.851C207.595 237.536 207.568 237.193 207.419 236.897L188.259 198.907C188.111 198.615 187.856 198.393 187.548 198.285C187.239 198.178 186.901 198.195 186.604 198.333L123.51 227.766C123.352 227.839 123.212 227.945 123.097 228.075C122.982 228.206 122.896 228.358 122.843 228.524C122.79 228.689 122.772 228.864 122.791 229.037C122.809 229.21 122.862 229.377 122.948 229.528C128.563 239.282 139.666 258.595 145.698 269.105ZM188.923 205.813L204.614 236.923L147.292 266.803L128.847 234.72L188.923 205.813ZM186.562 201.133L187.788 203.565L127.576 232.519L125.813 229.458L186.562 201.133Z" fill="black"/>
<path d="M264.783 89.1299H79.8971C79.5632 89.1299 79.243 89.2625 79.0069 89.4986C78.7708 89.7347 78.6382 90.0549 78.6382 90.3888V210.211C78.6481 213.023 79.7699 215.716 81.7587 217.703C83.7474 219.691 86.4415 220.81 89.253 220.818C92.7653 220.818 96.8969 220.803 100.966 220.803L100.525 235.832C100.516 236.165 100.639 236.489 100.868 236.732C101.097 236.974 101.413 237.116 101.746 237.126C102.077 237.125 102.395 236.998 102.635 236.771C102.876 236.544 103.022 236.235 103.043 235.905L103.466 221.403L107.673 221.256L105.961 236.111C105.923 236.443 106.018 236.776 106.226 237.038C106.434 237.3 106.737 237.468 107.069 237.506C107.401 237.544 107.734 237.449 107.995 237.241C108.257 237.033 108.425 236.73 108.463 236.398L110.259 220.788C115.689 220.773 119.673 220.773 119.673 220.773C120.006 220.773 120.327 220.64 120.563 220.404C120.799 220.168 120.931 219.848 120.931 219.514C120.931 219.18 120.799 218.86 120.563 218.624C120.327 218.388 120.006 218.255 119.673 218.255C119.673 218.255 95.1924 218.273 89.2505 218.291C87.1064 218.285 85.0517 217.431 83.5352 215.915C82.0186 214.399 81.1632 212.345 81.1559 210.201V91.6476H263.524V211.11C263.517 213.014 262.757 214.839 261.411 216.186C260.065 217.532 258.24 218.293 256.336 218.301H206.935C206.601 218.301 206.281 218.433 206.045 218.669C205.809 218.905 205.676 219.226 205.676 219.56C205.676 219.893 205.809 220.214 206.045 220.45C206.281 220.686 206.601 220.818 206.935 220.818H238.296L242.856 246.56C242.908 246.851 243.06 247.115 243.286 247.305C243.513 247.495 243.799 247.6 244.095 247.6C244.347 247.6 244.598 247.529 248.677 246.807C248.982 246.753 249.256 246.588 249.448 246.345C249.639 246.102 249.734 245.796 249.714 245.487L248.141 220.813H256.339C258.91 220.803 261.372 219.778 263.19 217.959C265.008 216.141 266.033 213.678 266.042 211.107V90.3888C266.042 90.0549 265.909 89.7347 265.673 89.4986C265.437 89.2625 265.117 89.1299 264.783 89.1299ZM245.114 244.881L240.99 221.596L245.661 221.491L247.131 244.523L245.114 244.881Z" fill="black"/>
<path d="M207.265 180.144H244.689C244.85 180.152 245.011 180.128 245.162 180.072C245.313 180.017 245.452 179.931 245.569 179.821C245.687 179.711 245.781 179.578 245.846 179.431C245.911 179.283 245.946 179.124 245.948 178.963C245.951 178.621 245.822 178.291 245.587 178.042C245.353 177.792 245.031 177.644 244.689 177.626H207.27C207.109 177.618 206.948 177.642 206.797 177.698C206.646 177.753 206.507 177.839 206.39 177.949C206.272 178.059 206.178 178.192 206.113 178.339C206.048 178.487 206.014 178.646 206.011 178.807C206.007 179.149 206.135 179.479 206.369 179.728C206.603 179.977 206.924 180.126 207.265 180.144Z" fill="black"/>
<path d="M189.363 177.07C189.2 177.068 189.037 177.097 188.886 177.158C188.734 177.218 188.595 177.308 188.478 177.422C188.361 177.536 188.268 177.672 188.204 177.822C188.14 177.972 188.106 178.133 188.104 178.297C188.102 178.634 188.233 178.959 188.469 179.201C188.704 179.442 189.025 179.582 189.363 179.588H203.414C203.578 179.591 203.74 179.562 203.892 179.502C204.044 179.442 204.183 179.352 204.3 179.238C204.417 179.124 204.51 178.988 204.574 178.837C204.638 178.687 204.672 178.526 204.673 178.362C204.676 178.024 204.545 177.699 204.31 177.457C204.074 177.215 203.752 177.076 203.414 177.07H189.363Z" fill="black"/>
<path d="M207.325 160.105C207.488 160.109 207.65 160.08 207.802 160.021C207.954 159.962 208.092 159.873 208.209 159.759C208.327 159.646 208.42 159.51 208.484 159.36C208.548 159.21 208.582 159.049 208.583 158.886C208.586 158.548 208.456 158.222 208.22 157.979C207.985 157.735 207.663 157.595 207.325 157.587H188.348C188.185 157.583 188.023 157.611 187.871 157.67C187.719 157.729 187.581 157.817 187.464 157.931C187.346 158.044 187.253 158.179 187.189 158.329C187.124 158.479 187.091 158.64 187.089 158.803C187.087 159.142 187.217 159.468 187.453 159.711C187.688 159.955 188.01 160.096 188.348 160.105H207.325Z" fill="black"/>
<path d="M188.415 150.001H201.304C201.467 150.005 201.63 149.976 201.782 149.916C201.934 149.855 202.073 149.766 202.19 149.652C202.307 149.538 202.4 149.401 202.464 149.251C202.528 149.1 202.562 148.939 202.563 148.775C202.565 148.438 202.434 148.113 202.198 147.871C201.963 147.63 201.641 147.49 201.304 147.484H188.421C188.257 147.48 188.095 147.51 187.942 147.57C187.79 147.63 187.652 147.719 187.535 147.833C187.417 147.947 187.324 148.084 187.26 148.234C187.196 148.385 187.163 148.546 187.162 148.71C187.16 149.046 187.29 149.371 187.524 149.612C187.759 149.854 188.079 149.993 188.415 150.001Z" fill="black"/>
<path d="M102 185.081H131.252C131.413 185.088 131.575 185.063 131.726 185.007C131.878 184.95 132.017 184.864 132.134 184.753C132.252 184.642 132.346 184.508 132.41 184.36C132.475 184.212 132.509 184.052 132.511 183.89C132.514 183.549 132.385 183.219 132.15 182.972C131.915 182.724 131.593 182.578 131.252 182.563H102.006C101.844 182.556 101.683 182.582 101.531 182.638C101.38 182.694 101.241 182.781 101.124 182.892C101.006 183.003 100.912 183.137 100.848 183.285C100.783 183.433 100.749 183.592 100.747 183.754C100.743 184.095 100.872 184.423 101.106 184.671C101.34 184.918 101.66 185.065 102 185.081Z" fill="black"/>
<path d="M155.477 161.954H97.0877C96.9303 161.94 96.7717 161.959 96.6217 162.009C96.4717 162.058 96.3335 162.138 96.2156 162.244C96.0977 162.349 96.0025 162.477 95.936 162.62C95.8695 162.764 95.833 162.919 95.8288 163.077C95.8231 163.426 95.9498 163.764 96.1834 164.022C96.4171 164.281 96.7402 164.442 97.0877 164.472H155.472C155.629 164.486 155.788 164.468 155.938 164.418C156.088 164.368 156.227 164.289 156.345 164.183C156.463 164.078 156.558 163.95 156.624 163.806C156.691 163.663 156.727 163.507 156.731 163.349C156.737 163.001 156.611 162.664 156.378 162.405C156.145 162.146 155.823 161.985 155.477 161.954Z" fill="black"/>
<path d="M259.134 135.439C259.292 135.453 259.451 135.435 259.601 135.385C259.751 135.335 259.89 135.255 260.008 135.149C260.126 135.044 260.221 134.915 260.287 134.771C260.353 134.628 260.389 134.472 260.393 134.313C260.399 133.965 260.272 133.627 260.039 133.368C259.805 133.11 259.481 132.95 259.134 132.921H207.691C207.534 132.907 207.375 132.925 207.225 132.975C207.075 133.025 206.936 133.104 206.818 133.21C206.7 133.315 206.605 133.443 206.539 133.587C206.472 133.73 206.436 133.886 206.432 134.044C206.427 134.393 206.553 134.731 206.787 134.99C207.021 135.248 207.344 135.409 207.691 135.439H259.134Z" fill="black"/>
<path d="M134.106 237.321C134.239 237.626 134.488 237.866 134.798 237.989C135.108 238.111 135.454 238.105 135.76 237.973L168.433 223.762C168.585 223.696 168.722 223.601 168.836 223.482C168.951 223.363 169.041 223.222 169.102 223.068C169.162 222.914 169.192 222.75 169.189 222.585C169.186 222.419 169.15 222.256 169.084 222.105C169.018 221.953 168.922 221.816 168.803 221.701C168.684 221.586 168.544 221.496 168.39 221.436C168.236 221.375 168.071 221.346 167.906 221.349C167.741 221.352 167.577 221.388 167.426 221.454L134.756 235.664C134.45 235.798 134.21 236.047 134.088 236.358C133.966 236.668 133.973 237.015 134.106 237.321Z" fill="black"/>
<path d="M139.017 245.289C139.088 245.439 139.187 245.573 139.309 245.685C139.431 245.796 139.575 245.883 139.73 245.939C139.886 245.995 140.051 246.02 140.217 246.012C140.382 246.004 140.544 245.964 140.694 245.893L187.738 223.769C188.041 223.628 188.274 223.371 188.388 223.057C188.502 222.743 188.486 222.396 188.344 222.094C188.202 221.791 187.946 221.558 187.631 221.444C187.317 221.331 186.971 221.347 186.668 221.488L139.622 243.614C139.319 243.756 139.086 244.012 138.973 244.326C138.859 244.64 138.875 244.987 139.017 245.289Z" fill="black"/>
<path d="M151.95 257.718L147.106 255.43L148.986 250.85C149.113 250.541 149.112 250.195 148.983 249.887C148.855 249.578 148.609 249.334 148.3 249.207C147.991 249.08 147.645 249.081 147.337 249.21C147.029 249.339 146.784 249.584 146.657 249.893L144.321 255.581C144.198 255.879 144.195 256.213 144.312 256.514C144.428 256.815 144.656 257.06 144.948 257.197C151.333 260.219 151.011 260.115 151.411 260.115C151.697 260.116 151.974 260.018 152.198 259.84C152.421 259.661 152.577 259.412 152.64 259.133C152.702 258.854 152.668 258.561 152.543 258.304C152.417 258.047 152.208 257.841 151.95 257.718Z" fill="black"/>
<path d="M182.071 232.591C182.034 232.753 182.03 232.921 182.058 233.085C182.086 233.249 182.146 233.406 182.236 233.546C182.325 233.687 182.441 233.808 182.577 233.904C182.714 233.999 182.868 234.066 183.03 234.102L188.136 235.23L186.374 240.182C186.263 240.497 186.281 240.843 186.424 241.144C186.568 241.446 186.826 241.678 187.141 241.79C187.456 241.901 187.802 241.883 188.103 241.739C188.405 241.595 188.637 241.338 188.748 241.023L190.974 234.728C191.033 234.56 191.057 234.382 191.042 234.204C191.027 234.026 190.975 233.854 190.888 233.698C190.802 233.542 190.683 233.406 190.541 233.3C190.398 233.193 190.234 233.118 190.06 233.079L183.564 231.642C183.241 231.572 182.902 231.632 182.623 231.81C182.343 231.987 182.145 232.268 182.071 232.591Z" fill="black"/>
<path d="M176.028 223.048C176.192 223.07 176.358 223.06 176.519 223.018C176.679 222.975 176.829 222.902 176.96 222.802C177.092 222.701 177.203 222.576 177.286 222.433C177.369 222.29 177.423 222.132 177.445 221.968L178.568 213.659C178.613 213.328 178.524 212.993 178.322 212.727C178.12 212.462 177.82 212.288 177.489 212.243C177.158 212.198 176.823 212.287 176.558 212.489C176.292 212.691 176.118 212.991 176.073 213.322L174.95 221.63C174.928 221.794 174.938 221.961 174.98 222.121C175.022 222.281 175.095 222.431 175.195 222.562C175.295 222.694 175.42 222.804 175.563 222.888C175.706 222.971 175.864 223.025 176.028 223.048Z" fill="black"/>
<path d="M162.215 247.673L152.864 252.366C152.711 252.437 152.574 252.538 152.461 252.663C152.348 252.788 152.261 252.935 152.206 253.094C152.15 253.253 152.127 253.422 152.138 253.59C152.149 253.758 152.194 253.923 152.27 254.073C152.346 254.224 152.451 254.358 152.579 254.467C152.708 254.576 152.857 254.658 153.018 254.709C153.179 254.759 153.348 254.777 153.516 254.761C153.683 254.745 153.846 254.695 153.995 254.615L163.343 249.921C163.498 249.852 163.637 249.752 163.752 249.627C163.868 249.502 163.956 249.355 164.013 249.195C164.07 249.035 164.094 248.865 164.084 248.696C164.073 248.526 164.029 248.36 163.953 248.209C163.876 248.057 163.77 247.922 163.641 247.812C163.511 247.702 163.36 247.62 163.198 247.57C163.036 247.52 162.865 247.503 162.696 247.521C162.527 247.539 162.363 247.591 162.215 247.673Z" fill="black"/>
<path d="M168.577 238.692C168.245 238.654 167.912 238.749 167.651 238.956C167.389 239.163 167.22 239.466 167.182 239.797L165.837 251.394C165.808 251.721 165.908 252.046 166.115 252.3C166.323 252.554 166.621 252.718 166.947 252.756C167.272 252.793 167.6 252.702 167.86 252.502C168.12 252.302 168.291 252.008 168.338 251.684L169.682 240.102C169.703 239.937 169.691 239.769 169.647 239.608C169.603 239.447 169.527 239.297 169.424 239.166C169.321 239.035 169.193 238.925 169.048 238.844C168.902 238.763 168.742 238.711 168.577 238.692Z" fill="black"/>
<path d="M181.692 237.783L173.117 242.229C172.966 242.303 172.831 242.406 172.72 242.532C172.609 242.659 172.525 242.806 172.472 242.966C172.42 243.126 172.399 243.294 172.413 243.462C172.426 243.63 172.473 243.793 172.551 243.942C172.628 244.091 172.735 244.223 172.864 244.331C172.994 244.438 173.143 244.518 173.304 244.567C173.465 244.615 173.634 244.631 173.801 244.613C173.969 244.595 174.131 244.544 174.278 244.463L182.853 240.009C183.004 239.935 183.139 239.832 183.25 239.705C183.361 239.579 183.445 239.431 183.498 239.272C183.551 239.112 183.571 238.944 183.557 238.776C183.544 238.608 183.497 238.445 183.42 238.296C183.342 238.147 183.235 238.015 183.106 237.907C182.976 237.8 182.827 237.72 182.666 237.671C182.505 237.623 182.336 237.607 182.169 237.625C182.001 237.643 181.84 237.694 181.692 237.775V237.783Z" fill="black"/>
<path d="M222.8 322.2C223.097 322.199 223.383 322.093 223.609 321.902C223.835 321.71 223.987 321.445 224.037 321.153C224.087 320.861 224.032 320.561 223.882 320.305C223.732 320.049 223.497 319.854 223.218 319.755L153.791 295.202C153.634 295.139 153.465 295.108 153.295 295.112C153.126 295.115 152.958 295.153 152.804 295.223C152.649 295.293 152.51 295.394 152.395 295.519C152.28 295.644 152.192 295.791 152.135 295.951C152.079 296.111 152.055 296.28 152.066 296.45C152.077 296.619 152.122 296.785 152.198 296.936C152.274 297.088 152.381 297.223 152.51 297.332C152.64 297.442 152.79 297.524 152.953 297.574C227.4 323.844 222.465 322.2 222.8 322.2Z" fill="black"/>
<path d="M227.975 319.955C228.582 319.955 227.895 320.338 238.917 311.911C239.17 311.704 239.333 311.407 239.37 311.082C239.408 310.758 239.318 310.431 239.12 310.172C238.922 309.913 238.63 309.74 238.307 309.692C237.984 309.643 237.655 309.722 237.389 309.912L227.21 317.696C227.001 317.856 226.847 318.078 226.771 318.33C226.694 318.581 226.698 318.851 226.783 319.1C226.867 319.349 227.028 319.566 227.242 319.719C227.456 319.872 227.712 319.955 227.975 319.955Z" fill="black"/>
<path d="M259.411 264.699C222.073 256.28 223.783 256.449 223.115 256.829L160.204 292.848C159.999 292.968 159.832 293.145 159.723 293.356C159.613 293.568 159.567 293.806 159.587 294.044C159.608 294.281 159.696 294.507 159.84 294.697C159.985 294.886 160.18 295.031 160.403 295.114L214.978 314.729C215.173 314.8 215.383 314.82 215.588 314.79C215.793 314.76 215.987 314.679 216.154 314.556L223.496 309.107C223.735 308.899 223.886 308.608 223.92 308.293C223.954 307.978 223.868 307.661 223.679 307.407C223.489 307.153 223.211 306.979 222.9 306.921C222.588 306.863 222.266 306.924 221.998 307.093L215.2 312.129L206.856 309.133L211.869 304.631C211.995 304.521 212.097 304.388 212.171 304.238C212.245 304.088 212.288 303.925 212.299 303.759C212.309 303.592 212.286 303.425 212.231 303.267C212.176 303.11 212.09 302.964 211.979 302.84C211.867 302.716 211.732 302.615 211.581 302.544C211.431 302.472 211.267 302.431 211.1 302.424C210.933 302.416 210.767 302.441 210.61 302.499C210.453 302.556 210.309 302.644 210.187 302.758C204.119 308.221 204.439 307.859 204.283 308.208L191.601 303.651L198.799 298.2C198.95 298.289 198.937 298.256 207.022 301.418C207.178 301.487 207.346 301.524 207.516 301.526C207.686 301.529 207.855 301.496 208.013 301.431C208.17 301.366 208.313 301.27 208.432 301.149C208.551 301.027 208.644 300.882 208.706 300.724C208.768 300.565 208.797 300.395 208.791 300.225C208.785 300.055 208.745 299.888 208.673 299.734C208.6 299.579 208.498 299.441 208.371 299.328C208.244 299.215 208.095 299.128 207.933 299.074L202.248 295.595C202.515 295.394 202.692 295.096 202.739 294.765C202.786 294.435 202.7 294.099 202.5 293.832C202.3 293.565 202.002 293.388 201.671 293.341C201.34 293.294 201.005 293.38 200.738 293.58L188.781 302.644L173.8 297.264L183.468 291.531C183.722 291.02 183.777 290.432 183.623 289.883C183.469 289.333 183.117 288.86 182.635 288.555L176.764 286.271L188.378 279.619C196.133 282.641 195.614 282.464 195.949 282.464C196.242 282.464 196.526 282.361 196.751 282.173C196.977 281.985 197.13 281.725 197.183 281.436C197.237 281.148 197.188 280.85 197.046 280.593C196.903 280.337 196.675 280.139 196.402 280.032L191.19 278.018L200.861 272.479C201.113 272.708 200.634 272.479 208.286 275.448C208.597 275.568 208.944 275.56 209.249 275.425C209.555 275.29 209.794 275.039 209.915 274.727C210.035 274.416 210.027 274.069 209.892 273.764C209.757 273.458 209.506 273.219 209.195 273.098L203.578 270.923L214.6 264.611L220.248 266.807L214.009 270.488C214.342 271.263 214.772 271.993 215.288 272.66C222.743 268.247 224.425 267.232 226.947 265.737L233.917 268.433L227.353 273.408C227.141 273.567 226.985 273.788 226.907 274.04C226.828 274.292 226.83 274.563 226.914 274.813C226.997 275.064 227.158 275.282 227.372 275.436C227.586 275.591 227.844 275.674 228.108 275.674C228.657 275.674 228.702 275.543 231.019 273.786C231.27 274.015 230.767 273.786 238.909 276.943L237.333 278.356C237.208 278.465 237.106 278.599 237.033 278.748C236.96 278.898 236.917 279.06 236.908 279.226C236.898 279.392 236.921 279.558 236.975 279.715C237.03 279.872 237.115 280.017 237.226 280.141C237.337 280.265 237.472 280.365 237.622 280.437C237.772 280.509 237.934 280.55 238.101 280.558C238.267 280.567 238.433 280.542 238.589 280.486C238.746 280.43 238.89 280.343 239.013 280.231L245.466 274.44L251.302 276.706C251.456 276.77 251.622 276.802 251.79 276.8C251.957 276.799 252.122 276.764 252.276 276.698C252.429 276.632 252.568 276.536 252.685 276.416C252.801 276.295 252.892 276.153 252.952 275.997C253.013 275.841 253.042 275.675 253.037 275.508C253.033 275.341 252.995 275.176 252.926 275.023C252.857 274.871 252.759 274.734 252.636 274.62C252.514 274.506 252.37 274.418 252.213 274.36L247.563 272.55L254.638 266.2L258.845 267.151C259.009 267.195 259.179 267.205 259.347 267.18C259.514 267.156 259.675 267.098 259.82 267.011C259.965 266.923 260.09 266.807 260.189 266.669C260.288 266.532 260.358 266.376 260.395 266.21C260.432 266.045 260.436 265.874 260.405 265.708C260.375 265.541 260.311 265.382 260.217 265.241C260.124 265.1 260.003 264.979 259.862 264.885C259.721 264.792 259.563 264.728 259.396 264.697L259.411 264.699ZM180.432 290.395C171.559 295.663 171.011 295.934 170.756 296.169L163.822 293.679L173.956 287.875L180.432 290.395ZM222.982 265.162L217.413 262.995L223.941 259.256L230.462 260.731L222.982 265.162ZM229.707 264.105C231.186 263.352 232.607 262.488 233.957 261.522L240.951 263.103L236.225 266.686C234.107 265.693 231.931 264.831 229.707 264.105ZM240.893 275.183C240.604 274.833 240.956 275.035 233.312 272.064C244.068 263.904 243.905 264.08 244.113 263.826L251.652 265.53L240.893 275.183Z" fill="black"/>
<path d="M71.8489 257.388C94.8763 262.308 93.7257 262.091 93.98 262.091C94.2881 262.086 94.5837 261.968 94.8106 261.759C95.0374 261.551 95.1799 261.266 95.2109 260.959C95.242 260.653 95.1594 260.345 94.9789 260.095C94.7985 259.846 94.5326 259.671 94.2318 259.604L72.3651 254.928C72.2007 254.886 72.0294 254.877 71.8615 254.902C71.6936 254.928 71.5326 254.987 71.3882 255.076C71.2437 255.165 71.1188 255.283 71.021 255.422C70.9231 255.561 70.8544 255.718 70.8189 255.884C70.7833 256.05 70.7818 256.221 70.8143 256.388C70.8468 256.555 70.9126 256.713 71.0079 256.854C71.1032 256.994 71.226 257.114 71.3688 257.206C71.5116 257.298 71.6715 257.36 71.8389 257.388H71.8489Z" fill="black"/>
<path d="M59.674 258.48C80.4304 263.515 79.9394 263.43 80.2012 263.43C80.5094 263.43 80.807 263.317 81.0376 263.113C81.2683 262.908 81.4159 262.626 81.4525 262.32C81.4891 262.014 81.4122 261.706 81.2363 261.453C81.0605 261.199 80.7979 261.02 80.4983 260.947L60.2682 256.033C60.1075 255.994 59.9407 255.987 59.7773 256.012C59.6139 256.038 59.4571 256.095 59.3159 256.181C59.1747 256.267 59.0518 256.38 58.9543 256.514C58.8568 256.647 58.7865 256.798 58.7475 256.959C58.7085 257.12 58.7015 257.287 58.7269 257.45C58.7524 257.613 58.8097 257.77 58.8958 257.911C58.9818 258.053 59.0948 258.176 59.2284 258.273C59.3619 258.371 59.5133 258.441 59.674 258.48Z" fill="black"/>
<path d="M109.776 262.807C109.889 263.12 110.123 263.376 110.424 263.517C110.726 263.659 111.071 263.675 111.385 263.563L126.902 258.003C127.062 257.952 127.21 257.868 127.338 257.758C127.465 257.647 127.569 257.512 127.644 257.361C127.718 257.21 127.761 257.045 127.771 256.877C127.78 256.709 127.756 256.54 127.699 256.381C127.642 256.223 127.554 256.077 127.44 255.953C127.326 255.829 127.188 255.729 127.034 255.659C126.881 255.59 126.715 255.552 126.546 255.547C126.378 255.543 126.21 255.573 126.053 255.634L110.536 261.193C110.38 261.249 110.236 261.335 110.114 261.447C109.991 261.558 109.891 261.692 109.821 261.842C109.75 261.992 109.71 262.155 109.702 262.32C109.694 262.486 109.719 262.651 109.776 262.807Z" fill="black"/>
<path d="M32.1902 288.664C31.1069 289.423 30.0772 290.256 29.1085 291.157C28.9129 291.339 28.7804 291.579 28.7301 291.841C28.6799 292.104 28.7145 292.376 28.829 292.617C29.3938 293.819 29.8032 295.088 30.0476 296.394C30.3964 297.568 30.4076 298.816 30.0799 299.996C29.7521 301.176 29.0988 302.24 28.1945 303.066C28.0244 303.222 27.9006 303.422 27.8366 303.644C27.7727 303.866 27.7711 304.102 27.832 304.325C28.0561 305.171 28.0561 305.171 64.2311 311.651C64.5207 311.704 99.5149 317.996 99.8372 317.996C100.341 317.996 97.6996 319.341 140.579 295.88C140.791 295.809 140.98 295.684 141.128 295.518C141.347 295.266 146.496 289.309 143.623 283.148C143.555 282.996 143.457 282.858 143.335 282.744C143.214 282.63 143.07 282.541 142.914 282.483C142.757 282.425 142.591 282.398 142.424 282.405C142.257 282.412 142.093 282.452 141.942 282.522C141.791 282.593 141.655 282.693 141.543 282.816C141.431 282.94 141.344 283.085 141.288 283.242C141.232 283.399 141.209 283.566 141.218 283.733C141.227 283.9 141.269 284.063 141.342 284.213C141.841 285.548 142.007 286.984 141.827 288.398C141.648 289.811 141.127 291.16 140.31 292.328C138.95 288.989 139.877 286.358 140.416 283.158C140.509 282.441 140.683 281.738 140.934 281.061C141.181 280.847 141.335 280.547 141.365 280.222C141.394 279.897 141.297 279.574 141.093 279.32C140.888 279.065 140.593 278.9 140.27 278.859C139.946 278.818 139.62 278.904 139.358 279.099C138.474 280.11 137.97 281.398 137.933 282.74C137.286 286.491 136.171 289.84 138.404 294.213L102.428 313.88C106.074 304.763 99.7063 300.656 99.6358 300.611C99.4957 300.523 99.3398 300.464 99.1767 300.436C99.0137 300.408 98.8468 300.413 98.6856 300.45C98.5244 300.487 98.3721 300.555 98.2372 300.65C98.1024 300.746 97.9877 300.868 97.8998 301.008C97.8118 301.148 97.7523 301.304 97.7246 301.467C97.697 301.63 97.7017 301.796 97.7385 301.958C97.7753 302.119 97.8435 302.271 97.9393 302.406C98.035 302.541 98.1563 302.656 98.2963 302.744C98.5229 302.89 103.74 306.379 99.1675 314.909C99.0991 315.035 99.0539 315.173 99.034 315.315C77.6608 311.503 40.4686 304.851 31.387 303.172C32.0913 302.097 32.5548 300.883 32.7456 299.613C32.9363 298.343 32.85 297.046 32.4923 295.812C32.2705 294.65 31.9332 293.513 31.4852 292.418C34.3227 289.951 35.1007 290.137 35.3827 289.251C35.5489 289.279 90.3176 298.431 90.4862 298.431C90.8916 298.431 88.1926 299.604 132.898 280.159C133.074 280.083 133.231 279.966 133.355 279.82C133.48 279.673 133.569 279.5 133.616 279.314C133.663 279.127 133.667 278.932 133.627 278.744C133.587 278.556 133.505 278.38 133.386 278.228C133.268 278.075 133.152 277.92 133.039 277.762C133.923 277.71 136.508 277.916 138.291 277.926C138.456 277.928 138.62 277.897 138.774 277.835C138.927 277.774 139.067 277.683 139.185 277.567C139.303 277.451 139.397 277.314 139.462 277.162C139.527 277.01 139.562 276.846 139.564 276.681C139.565 276.516 139.535 276.352 139.473 276.198C139.411 276.045 139.32 275.905 139.205 275.787C139.089 275.669 138.951 275.574 138.799 275.509C138.647 275.444 138.484 275.41 138.319 275.408C136.672 275.391 131.772 275.187 131.521 275.187C130.557 273.3 130.007 271.229 129.909 269.113C129.81 266.996 130.165 264.883 130.949 262.915C130.794 262.272 130.481 261.679 130.037 261.189C129.593 260.699 129.033 260.328 128.409 260.11C122.618 261.792 112.517 265.582 105.696 267.915C106.516 265.752 106.654 263.389 106.091 261.145C106.051 260.985 105.98 260.834 105.882 260.701C105.783 260.568 105.66 260.455 105.518 260.37C105.376 260.285 105.219 260.228 105.055 260.204C104.892 260.179 104.725 260.187 104.564 260.227C104.404 260.268 104.253 260.339 104.12 260.437C103.987 260.536 103.874 260.659 103.789 260.801C103.704 260.943 103.647 261.1 103.623 261.264C103.599 261.427 103.607 261.594 103.647 261.755C104.173 263.991 103.855 266.343 102.753 268.359C94.2629 266.533 53.581 258.159 51.3377 257.696C52.0958 256.18 52.5468 254.529 52.6648 252.839C52.7827 251.148 52.5653 249.45 52.0251 247.844C51.7355 247.073 51.3377 246.019 50.2954 246.019C50.0148 246.035 49.7454 246.134 49.5212 246.303C49.2971 246.472 49.1284 246.705 49.0365 246.97C48.95 247.233 48.9524 247.517 49.0434 247.778C49.1345 248.039 49.309 248.263 49.54 248.415C50.5069 250.681 50.5194 256.349 48.2535 257.107C47.9831 257.199 47.7499 257.377 47.5887 257.613C47.4276 257.849 47.3471 258.131 47.3592 258.416C47.3714 258.702 47.4756 258.976 47.6563 259.197C47.837 259.418 48.0845 259.575 48.3617 259.645C48.9056 259.768 95.3959 269.338 103.219 271.035C103.813 271.161 103.652 271.241 104.691 270.909C111.182 268.829 121.898 264.703 128.275 262.777C128.167 263.076 128.069 263.381 127.978 263.688L92.7019 276.154L32.2758 267.875C31.9446 267.83 31.6089 267.918 31.3426 268.12C31.0763 268.322 30.9012 268.622 30.8558 268.953C30.8104 269.284 30.8984 269.62 31.1005 269.886C31.3026 270.152 31.6022 270.327 31.9334 270.373L36.8455 271.045C35.7981 273.968 33.8242 280.892 36.0021 286.791C35.2468 286.658 30.3799 285.802 29.4811 285.557C29.2234 285.438 28.9328 285.409 28.6566 285.475C28.3804 285.542 28.1348 285.7 27.9597 285.924C27.7847 286.147 27.6905 286.424 27.6924 286.708C27.6944 286.992 27.7924 287.267 27.9705 287.488C28.3204 287.899 28.3632 287.954 32.1902 288.664ZM76.0822 276.425C90.6147 278.412 92.5483 278.707 92.8403 278.707C93.1802 278.707 90.9394 279.462 127.452 266.553C127.098 270.747 128.162 274.938 130.473 278.455L95.2901 293.705C96.4579 289.509 96.4927 285.078 95.3908 280.864C95.402 280.616 95.3515 280.368 95.2439 280.144C95.1363 279.919 94.9748 279.725 94.774 279.578C94.5414 279.418 94.2628 279.34 93.9813 279.355C93.6999 279.371 93.4313 279.478 93.2171 279.661C93.0029 279.845 92.855 280.093 92.7965 280.369C92.738 280.645 92.772 280.932 92.8932 281.187C94.1603 285.781 93.887 290.665 92.1152 295.09L90.3226 295.868C88.8774 295.631 83.2452 294.717 75.9563 293.521C75.9267 293.387 75.8748 293.26 75.8027 293.143C72.152 287.176 75.3294 278.319 76.0822 276.425ZM71.2028 275.756L73.5141 276.073C72.4717 278.86 70.0471 286.68 72.8947 293.002L71.2582 292.725C71.2558 292.499 71.1923 292.277 71.0744 292.083C67.6276 286.461 70.2637 278.253 71.2028 275.756ZM43.8877 272.012L68.6447 275.406C67.5269 278.52 65.3717 286.124 68.2897 292.224C60.0416 290.867 50.9173 289.362 43.5805 288.11C40.3578 282.463 42.9813 274.411 43.8877 272.012ZM39.4237 271.4L41.3297 271.652C40.2722 274.58 38.2454 281.625 40.5542 287.579L39.0158 287.31C35.9668 281.703 38.5249 273.817 39.4237 271.4Z" fill="black"/>
<path d="M175.665 100.337H88.9034C88.5695 100.337 88.2493 100.47 88.0132 100.706C87.7772 100.942 87.6445 101.262 87.6445 101.596V170.98C87.6445 171.314 87.7772 171.635 88.0132 171.871C88.2493 172.107 88.5695 172.239 88.9034 172.239H175.665C175.999 172.239 176.319 172.107 176.555 171.871C176.791 171.635 176.924 171.314 176.924 170.98V126.95H213.822C215.73 126.95 215.232 124.432 213.822 124.432H176.924V119.56H251.112C251.271 119.571 251.431 119.549 251.582 119.496C251.733 119.443 251.871 119.36 251.989 119.252C252.107 119.144 252.201 119.013 252.267 118.868C252.332 118.722 252.368 118.565 252.371 118.405V111.536C252.371 111.202 252.238 110.882 252.002 110.646C251.766 110.41 251.446 110.277 251.112 110.277H176.924V101.596C176.924 101.262 176.791 100.942 176.555 100.706C176.319 100.47 175.999 100.337 175.665 100.337ZM174.406 169.722H90.1623V108.248H174.406V169.722ZM174.406 105.743H90.1623V102.855H174.406V105.743ZM249.853 112.808V117.053H176.924V112.795L249.853 112.808Z" fill="black"/>
<path d="M168.829 154.182L150.789 154.552C150.455 154.556 150.137 154.692 149.903 154.93C149.669 155.169 149.54 155.49 149.543 155.824C149.546 156.158 149.682 156.477 149.921 156.71C150.159 156.944 150.481 157.074 150.814 157.07L168.879 156.7C169.045 156.697 169.208 156.661 169.359 156.595C169.511 156.528 169.648 156.433 169.762 156.314C169.877 156.194 169.967 156.054 170.027 155.9C170.087 155.746 170.116 155.581 170.113 155.416C170.11 155.251 170.074 155.088 170.008 154.936C169.941 154.785 169.846 154.648 169.727 154.533C169.607 154.419 169.467 154.329 169.313 154.269C169.159 154.208 168.994 154.179 168.829 154.182Z" fill="black"/>
<path d="M143.399 156.87C143.558 156.879 143.718 156.857 143.869 156.803C144.019 156.749 144.157 156.666 144.275 156.557C144.392 156.449 144.487 156.318 144.553 156.172C144.618 156.026 144.654 155.869 144.657 155.709C144.662 155.365 144.534 155.031 144.299 154.779C144.065 154.526 143.743 154.373 143.399 154.352H96.4123C96.2526 154.342 96.0924 154.364 95.9415 154.418C95.7906 154.471 95.6522 154.554 95.5345 154.663C95.4168 154.771 95.3223 154.903 95.2568 155.049C95.1914 155.195 95.1562 155.353 95.1534 155.513C95.1489 155.857 95.2771 156.19 95.5114 156.443C95.7458 156.696 96.0684 156.848 96.4123 156.87H143.399Z" fill="black"/>
<path d="M101.684 178.587H148.68C148.84 178.597 149 178.575 149.151 178.521C149.302 178.468 149.441 178.384 149.559 178.275C149.676 178.166 149.771 178.035 149.836 177.889C149.902 177.742 149.936 177.584 149.939 177.424C149.943 177.08 149.815 176.747 149.581 176.494C149.346 176.242 149.024 176.09 148.68 176.069H101.689C101.529 176.059 101.368 176.081 101.217 176.135C101.066 176.189 100.928 176.272 100.81 176.381C100.692 176.49 100.598 176.621 100.532 176.768C100.467 176.914 100.432 177.072 100.43 177.233C100.425 177.576 100.553 177.908 100.786 178.16C101.02 178.412 101.341 178.565 101.684 178.587Z" fill="black"/>
<path d="M168.914 146.279H126.029C125.871 146.267 125.713 146.287 125.563 146.338C125.413 146.39 125.275 146.471 125.157 146.576C125.04 146.682 124.945 146.811 124.878 146.955C124.812 147.098 124.775 147.254 124.77 147.412C124.764 147.76 124.891 148.097 125.125 148.354C125.359 148.612 125.682 148.77 126.029 148.797H168.906C169.064 148.81 169.223 148.791 169.374 148.741C169.524 148.691 169.662 148.61 169.78 148.504C169.898 148.398 169.993 148.269 170.06 148.125C170.126 147.981 170.162 147.825 170.165 147.667C170.171 147.32 170.045 146.984 169.813 146.726C169.581 146.469 169.259 146.309 168.914 146.279Z" fill="black"/>
<path d="M96.5833 148.323L119.029 148.826C119.194 148.828 119.358 148.798 119.512 148.736C119.665 148.675 119.805 148.584 119.924 148.468C120.042 148.353 120.136 148.215 120.201 148.063C120.266 147.911 120.301 147.748 120.303 147.583C120.305 147.417 120.274 147.253 120.213 147.1C120.152 146.946 120.06 146.806 119.945 146.688C119.829 146.57 119.692 146.475 119.54 146.41C119.388 146.345 119.225 146.311 119.059 146.309L96.6512 145.805C96.4859 145.801 96.3213 145.829 96.1669 145.888C96.0125 145.947 95.8712 146.036 95.7511 146.15C95.5087 146.38 95.3674 146.696 95.3584 147.03C95.3494 147.364 95.4733 147.688 95.7031 147.93C95.9328 148.173 96.2494 148.314 96.5833 148.323Z" fill="black"/>
<path d="M168.805 141.395C169.139 141.399 169.461 141.269 169.699 141.036C169.937 140.802 170.073 140.483 170.077 140.149C170.08 139.815 169.951 139.494 169.717 139.255C169.483 139.017 169.164 138.881 168.83 138.878L149.162 138.694C148.828 138.694 148.508 138.826 148.272 139.063C148.035 139.299 147.903 139.619 147.903 139.953C147.903 140.287 148.035 140.607 148.272 140.843C148.508 141.079 148.828 141.212 149.162 141.212L168.805 141.395Z" fill="black"/>
<path d="M95.6327 137.425C95.4667 137.419 95.301 137.445 95.1455 137.504C94.9901 137.562 94.848 137.652 94.7277 137.766C94.6074 137.881 94.5114 138.019 94.4454 138.171C94.3795 138.324 94.3448 138.488 94.3436 138.654C94.3396 138.819 94.3682 138.984 94.4278 139.138C94.4874 139.292 94.5768 139.433 94.6909 139.553C94.805 139.673 94.9415 139.769 95.0928 139.836C95.244 139.903 95.407 139.939 95.5723 139.943L144.084 141.121C144.25 141.123 144.414 141.093 144.567 141.031C144.721 140.97 144.861 140.879 144.979 140.763C145.097 140.648 145.192 140.51 145.257 140.358C145.322 140.206 145.356 140.043 145.358 139.878C145.36 139.712 145.33 139.548 145.268 139.395C145.207 139.241 145.116 139.101 145 138.983C144.885 138.865 144.747 138.77 144.595 138.705C144.443 138.64 144.28 138.606 144.115 138.604L95.6327 137.425Z" fill="black"/>
<path d="M157.882 133.302C158.037 133.361 158.202 133.389 158.367 133.385C158.532 133.38 158.695 133.343 158.846 133.275C158.997 133.208 159.134 133.111 159.247 132.991C159.361 132.871 159.45 132.729 159.509 132.574L163.17 122.929C163.236 122.773 163.27 122.605 163.271 122.436C163.271 122.266 163.237 122.098 163.17 121.942C163.104 121.786 163.007 121.645 162.884 121.527C162.762 121.41 162.618 121.318 162.459 121.258C162.3 121.198 162.131 121.17 161.962 121.177C161.793 121.183 161.626 121.224 161.473 121.297C161.32 121.37 161.183 121.472 161.07 121.599C160.958 121.726 160.872 121.874 160.818 122.035L157.155 131.678C157.036 131.99 157.046 132.336 157.182 132.641C157.319 132.945 157.571 133.183 157.882 133.302Z" fill="black"/>
<path d="M147.122 129.328C154.524 133.037 154.058 132.868 154.476 132.868C154.76 132.869 155.035 132.774 155.258 132.598C155.481 132.422 155.638 132.176 155.703 131.9C155.769 131.624 155.739 131.334 155.619 131.077C155.5 130.82 155.296 130.611 155.043 130.484L149.803 127.86L154.083 123.553C154.312 123.315 154.439 122.997 154.436 122.667C154.432 122.337 154.299 122.021 154.066 121.788C153.832 121.555 153.516 121.423 153.186 121.42C152.856 121.418 152.538 121.545 152.301 121.775L146.779 127.314C146.639 127.456 146.535 127.63 146.475 127.82C146.415 128.01 146.401 128.212 146.435 128.409C146.468 128.606 146.548 128.792 146.667 128.951C146.787 129.111 146.943 129.241 147.122 129.328Z" fill="black"/>
<path d="M99.6402 133.171C99.7615 133.284 99.9038 133.371 100.059 133.428C100.214 133.486 100.379 133.512 100.544 133.506C100.71 133.499 100.872 133.461 101.022 133.392C101.173 133.322 101.308 133.224 101.42 133.103C101.533 132.982 101.62 132.839 101.677 132.684C101.735 132.529 101.761 132.364 101.755 132.199C101.749 132.034 101.71 131.871 101.641 131.721C101.572 131.571 101.474 131.435 101.352 131.323L95.9567 126.328L101.496 121.652C101.749 121.437 101.906 121.13 101.934 120.798C101.961 120.467 101.856 120.138 101.642 119.884C101.428 119.629 101.122 119.47 100.791 119.441C100.459 119.411 100.13 119.514 99.8743 119.726L93.2426 125.321C93.1063 125.436 92.9961 125.579 92.9191 125.739C92.8422 125.9 92.8003 126.076 92.7962 126.254C92.7922 126.432 92.8261 126.609 92.8956 126.774C92.9652 126.938 93.0689 127.085 93.1998 127.207L99.6402 133.171Z" fill="black"/>
<path d="M188.74 140.065L207.064 140.467C207.398 140.471 207.72 140.342 207.958 140.109C208.197 139.875 208.333 139.556 208.337 139.222C208.34 138.889 208.211 138.567 207.978 138.328C207.744 138.09 207.426 137.953 207.092 137.95L188.798 137.547C188.631 137.538 188.465 137.562 188.308 137.62C188.152 137.678 188.009 137.767 187.888 137.882C187.767 137.997 187.672 138.136 187.607 138.29C187.542 138.443 187.509 138.609 187.511 138.775C187.507 138.941 187.536 139.105 187.595 139.26C187.655 139.414 187.744 139.555 187.858 139.675C187.972 139.794 188.109 139.89 188.26 139.957C188.412 140.024 188.574 140.061 188.74 140.065Z" fill="black"/>
<path d="M90.3138 295.498C90.5334 295.499 90.7493 295.441 90.94 295.332C91.1307 295.223 91.2895 295.066 91.4007 294.877C91.512 294.688 91.5717 294.472 91.5741 294.253C91.5764 294.033 91.5212 293.817 91.4141 293.625C90.3415 291.71 89.8227 289.535 89.9157 287.342C90.0086 285.149 90.7096 283.025 91.9403 281.208C92.04 281.07 92.1109 280.913 92.1485 280.748C92.1862 280.582 92.1899 280.41 92.1594 280.243C92.1289 280.076 92.0649 279.916 91.9711 279.775C91.8774 279.633 91.7559 279.511 91.614 279.418C91.4721 279.324 91.3127 279.26 91.1454 279.23C90.9781 279.2 90.8065 279.204 90.6407 279.242C90.475 279.279 90.3187 279.35 90.1811 279.45C90.0436 279.55 89.9277 279.677 89.8405 279.823C88.3495 282.022 87.5011 284.594 87.3904 287.249C87.2796 289.904 87.911 292.538 89.2135 294.854C89.3229 295.049 89.4826 295.212 89.676 295.326C89.8695 295.439 90.0896 295.499 90.3138 295.498Z" fill="black"/>
<path d="M99.1963 283.368C100.231 283.351 106.457 280.929 118.565 276.84C118.726 276.79 118.876 276.709 119.005 276.601C119.134 276.493 119.24 276.36 119.316 276.21C119.393 276.061 119.439 275.897 119.452 275.729C119.464 275.561 119.443 275.393 119.389 275.233C119.335 275.074 119.25 274.927 119.138 274.801C119.026 274.675 118.89 274.573 118.738 274.5C118.587 274.428 118.422 274.386 118.254 274.379C118.086 274.371 117.918 274.397 117.76 274.456C114.99 275.392 100.042 280.581 99.6948 280.684C99.5286 280.727 99.3654 280.781 99.2064 280.846C99.0407 280.845 98.8766 280.877 98.7233 280.94C98.57 281.002 98.4306 281.095 98.313 281.211C98.1954 281.328 98.1019 281.467 98.0379 281.62C97.9739 281.772 97.9406 281.936 97.94 282.102C97.9393 282.268 97.9713 282.432 98.034 282.585C98.0968 282.738 98.1892 282.878 98.3058 282.995C98.4225 283.113 98.5612 283.206 98.714 283.27C98.8668 283.334 99.0307 283.368 99.1963 283.368Z" fill="black"/>
<path d="M102.8 284.446C102.467 284.452 102.149 284.587 101.914 284.822C101.678 285.058 101.542 285.375 101.535 285.708C101.529 286.041 101.651 286.364 101.877 286.609C102.103 286.854 102.415 287.002 102.747 287.021C103.266 287.021 101.677 287.573 124.304 279.191C124.459 279.134 124.602 279.046 124.723 278.934C124.844 278.821 124.942 278.686 125.011 278.536C125.08 278.385 125.119 278.223 125.125 278.058C125.131 277.892 125.105 277.727 125.047 277.572C124.99 277.417 124.902 277.275 124.79 277.154C124.677 277.033 124.542 276.935 124.391 276.866C124.241 276.797 124.079 276.758 123.913 276.752C123.748 276.746 123.583 276.772 123.428 276.83C123.176 276.925 103.06 284.348 102.8 284.446Z" fill="black"/>
<path d="M136.063 285.664C135.913 285.366 135.651 285.139 135.334 285.033C135.018 284.928 134.672 284.953 134.374 285.103C126.538 289.025 119.383 292.316 105.495 298.668C104.411 298.958 103.374 299.403 102.418 299.99C102.142 300.169 101.947 300.448 101.874 300.769C101.802 301.089 101.857 301.425 102.029 301.706C102.201 301.986 102.476 302.187 102.795 302.268C103.113 302.348 103.451 302.3 103.735 302.135C104.546 301.647 105.421 301.276 106.336 301.032C117.792 295.806 127.248 291.48 135.499 287.353C135.647 287.28 135.779 287.177 135.887 287.052C135.996 286.928 136.079 286.783 136.131 286.626C136.183 286.469 136.204 286.303 136.193 286.138C136.181 285.973 136.137 285.812 136.063 285.664Z" fill="black"/>
<path d="M129.889 292.644C126.087 294.605 122.23 296.463 118.423 298.546C116.408 299.648 114.349 300.741 112.232 301.64C112.079 301.704 111.941 301.798 111.825 301.916C111.709 302.034 111.618 302.173 111.555 302.327C111.493 302.48 111.462 302.644 111.463 302.809C111.465 302.974 111.499 303.138 111.563 303.29C111.628 303.442 111.721 303.581 111.839 303.697C111.957 303.813 112.097 303.904 112.25 303.966C112.403 304.028 112.567 304.06 112.732 304.058C112.898 304.057 113.061 304.023 113.213 303.959C115.416 303.025 117.559 301.954 119.629 300.754C123.434 298.803 127.239 296.845 131.044 294.88C131.196 294.807 131.331 294.704 131.442 294.578C131.554 294.451 131.638 294.304 131.692 294.144C131.745 293.985 131.766 293.816 131.753 293.648C131.74 293.481 131.693 293.317 131.616 293.168C131.539 293.018 131.432 292.886 131.303 292.778C131.173 292.67 131.024 292.59 130.863 292.541C130.702 292.492 130.533 292.476 130.365 292.494C130.198 292.511 130.036 292.562 129.889 292.644Z" fill="black"/>
<path d="M91.5349 303.687C91.8536 303.688 92.1609 303.568 92.3947 303.351C92.6284 303.134 92.7712 302.837 92.7942 302.519C92.8172 302.201 92.7187 301.886 92.5186 301.638C92.3185 301.39 92.0317 301.227 91.7161 301.182C79.0795 299.346 46.2329 294.384 35.6961 292.79C35.5326 292.765 35.3659 292.773 35.2053 292.813C35.0448 292.852 34.8936 292.923 34.7605 293.021C34.6273 293.119 34.5148 293.243 34.4293 293.384C34.3438 293.526 34.2871 293.683 34.2623 293.846C34.2375 294.01 34.2451 294.177 34.2848 294.337C34.3245 294.498 34.3953 294.649 34.4934 294.782C34.5915 294.915 34.7148 295.028 34.8564 295.113C34.998 295.199 35.155 295.255 35.3185 295.28C38.02 295.688 90.9407 303.687 91.5349 303.687Z" fill="black"/>
<path d="M53.1204 302.471C93.3591 308.741 91.9542 308.542 92.206 308.542C92.5229 308.542 92.8281 308.422 93.0607 308.207C93.2932 307.991 93.436 307.696 93.4605 307.38C93.485 307.064 93.3894 306.75 93.1927 306.502C92.9961 306.253 92.713 306.088 92.3998 306.039L53.5081 299.981C53.1779 299.93 52.8408 300.012 52.571 300.209C52.3011 300.406 52.1206 300.702 52.0692 301.032C52.0178 301.363 52.0997 301.7 52.2968 301.97C52.4939 302.239 52.7902 302.42 53.1204 302.471Z" fill="black"/>
<path d="M252.824 336.609L199.563 369.592L8.30979 310.958C7.99224 310.866 7.65114 310.902 7.36021 311.06C7.06928 311.217 6.85187 311.482 6.75497 311.798C6.65807 312.114 6.68946 312.456 6.84236 312.749C6.99525 313.042 7.25738 313.264 7.57209 313.365C208.378 374.965 199.455 372.245 199.747 372.245C200.301 372.245 196.66 374.32 254.156 338.759C254.305 338.677 254.436 338.565 254.541 338.43C254.646 338.295 254.722 338.141 254.765 337.976C254.808 337.811 254.818 337.638 254.792 337.47C254.767 337.301 254.707 337.139 254.617 336.994C254.528 336.849 254.409 336.724 254.269 336.626C254.13 336.528 253.971 336.46 253.804 336.425C253.637 336.39 253.465 336.389 253.298 336.423C253.13 336.457 252.972 336.525 252.831 336.622L252.824 336.609Z" fill="black"/>
<path d="M199.56 373.729C199.232 373.736 198.917 373.865 198.678 374.09C198.438 374.316 198.291 374.622 198.264 374.95L198.042 382.364C198.037 382.53 198.064 382.694 198.123 382.849C198.182 383.004 198.27 383.145 198.383 383.266C198.497 383.387 198.632 383.484 198.783 383.552C198.934 383.62 199.097 383.657 199.262 383.662C199.596 383.673 199.92 383.55 200.164 383.321C200.407 383.092 200.55 382.776 200.56 382.442L200.781 375.025C200.786 374.86 200.759 374.695 200.7 374.54C200.642 374.386 200.553 374.244 200.44 374.124C200.326 374.003 200.19 373.906 200.039 373.839C199.888 373.771 199.726 373.733 199.56 373.729Z" fill="black"/>
<path d="M95.7682 116.789L131.596 117.673C131.93 117.677 132.252 117.548 132.491 117.315C132.73 117.082 132.867 116.764 132.871 116.43C132.875 116.096 132.747 115.774 132.514 115.535C132.281 115.296 131.962 115.159 131.629 115.155L95.8286 114.271C95.4964 114.268 95.1759 114.394 94.9352 114.623C94.6946 114.852 94.5526 115.165 94.5395 115.497C94.5351 115.663 94.5635 115.828 94.6229 115.982C94.6824 116.137 94.7717 116.278 94.8858 116.398C95 116.518 95.1367 116.614 95.2881 116.681C95.4395 116.748 95.6026 116.785 95.7682 116.789Z" fill="black"/>
<path d="M135.329 123.765L140.788 127.459L135.088 131.648C134.876 131.807 134.72 132.028 134.641 132.28C134.562 132.532 134.565 132.803 134.649 133.054C134.732 133.304 134.892 133.522 135.107 133.677C135.321 133.831 135.579 133.914 135.843 133.914C136.429 133.914 136.062 134.045 143.728 128.423C143.891 128.304 144.022 128.147 144.112 127.966C144.201 127.785 144.245 127.586 144.241 127.384C144.238 127.183 144.185 126.985 144.089 126.808C143.993 126.63 143.855 126.479 143.688 126.366L136.739 121.681C136.602 121.582 136.447 121.512 136.283 121.475C136.119 121.438 135.949 121.434 135.783 121.463C135.618 121.493 135.46 121.555 135.318 121.647C135.177 121.739 135.056 121.858 134.962 121.997C134.867 122.137 134.802 122.294 134.769 122.459C134.737 122.624 134.738 122.794 134.772 122.959C134.806 123.124 134.873 123.28 134.969 123.419C135.065 123.557 135.187 123.675 135.329 123.765Z" fill="black"/>
<path d="M164.415 132.463C164.512 132.597 164.636 132.71 164.777 132.795C164.919 132.881 165.076 132.938 165.24 132.963C165.404 132.989 165.571 132.981 165.731 132.941C165.892 132.902 166.044 132.831 166.177 132.732L173.317 127.488C173.48 127.369 173.612 127.212 173.702 127.031C173.791 126.85 173.836 126.65 173.832 126.448C173.828 126.246 173.776 126.048 173.679 125.87C173.582 125.693 173.445 125.541 173.277 125.428L166.32 120.735C166.044 120.548 165.704 120.479 165.376 120.543C165.048 120.606 164.759 120.797 164.572 121.074C164.385 121.351 164.316 121.69 164.379 122.018C164.443 122.346 164.634 122.636 164.911 122.823L170.387 126.516L164.691 130.703C164.558 130.8 164.444 130.923 164.358 131.064C164.272 131.205 164.214 131.362 164.188 131.526C164.162 131.689 164.169 131.856 164.208 132.017C164.247 132.178 164.317 132.329 164.415 132.463Z" fill="black"/>
<path d="M231.731 158.5C231.986 158.5 232.235 158.423 232.444 158.279C232.654 158.134 232.816 157.93 232.907 157.692L236.588 148.056C236.653 147.901 236.685 147.734 236.684 147.565C236.683 147.397 236.649 147.23 236.582 147.075C236.515 146.921 236.418 146.781 236.297 146.664C236.175 146.548 236.031 146.457 235.874 146.396C235.716 146.336 235.549 146.309 235.38 146.315C235.212 146.321 235.046 146.361 234.894 146.432C234.741 146.503 234.604 146.604 234.491 146.729C234.378 146.854 234.291 147.001 234.236 147.16L230.555 156.803C230.485 156.993 230.461 157.197 230.486 157.398C230.512 157.6 230.585 157.792 230.701 157.958C230.816 158.125 230.97 158.261 231.149 158.355C231.329 158.45 231.528 158.499 231.731 158.5Z" fill="black"/>
<path d="M227.519 146.869C227.282 146.633 226.962 146.5 226.628 146.5C226.295 146.5 225.975 146.633 225.738 146.869L220.199 152.408C220.059 152.549 219.954 152.721 219.893 152.911C219.832 153.1 219.816 153.302 219.848 153.498C219.88 153.695 219.958 153.881 220.076 154.042C220.194 154.202 220.349 154.333 220.527 154.422C227.934 158.125 227.481 157.959 227.899 157.959C228.182 157.959 228.457 157.864 228.68 157.688C228.902 157.512 229.058 157.266 229.124 156.99C229.189 156.714 229.159 156.425 229.039 156.168C228.919 155.911 228.716 155.702 228.463 155.575L223.216 152.951L227.521 148.646C227.756 148.41 227.888 148.09 227.887 147.757C227.887 147.424 227.754 147.104 227.519 146.869Z" fill="black"/>
<path d="M246.698 150.54L239.742 145.847C239.605 145.751 239.45 145.683 239.287 145.648C239.123 145.613 238.955 145.61 238.79 145.641C238.626 145.671 238.47 145.734 238.33 145.826C238.19 145.918 238.07 146.036 237.977 146.175C237.883 146.313 237.818 146.469 237.786 146.633C237.753 146.797 237.754 146.965 237.787 147.129C237.82 147.293 237.886 147.448 237.98 147.587C238.074 147.725 238.194 147.843 238.334 147.934L243.805 151.627L238.09 155.814C237.879 155.973 237.722 156.194 237.644 156.446C237.565 156.698 237.567 156.969 237.651 157.22C237.735 157.47 237.895 157.688 238.109 157.843C238.324 157.997 238.581 158.08 238.845 158.08C239.432 158.08 239.034 158.244 246.749 152.592C246.909 152.471 247.039 152.314 247.127 152.133C247.215 151.953 247.258 151.754 247.253 151.553C247.248 151.352 247.195 151.155 247.099 150.979C247.002 150.803 246.865 150.652 246.698 150.54Z" fill="black"/>
<path d="M114.167 125.09H100.571C100.235 125.094 99.9141 125.232 99.6784 125.472C99.4426 125.712 99.3112 126.035 99.3125 126.371C99.3135 126.535 99.3469 126.698 99.4108 126.849C99.4747 127 99.5678 127.136 99.6848 127.251C99.8018 127.366 99.9404 127.457 100.093 127.518C100.245 127.579 100.407 127.61 100.571 127.608H114.167C114.503 127.604 114.824 127.467 115.06 127.227C115.296 126.988 115.427 126.665 115.426 126.329C115.421 125.998 115.286 125.683 115.05 125.451C114.815 125.22 114.498 125.09 114.167 125.09Z" fill="black"/>
<path d="M119.189 127.469C119.17 127.802 119.285 128.129 119.507 128.378C119.73 128.626 120.042 128.777 120.375 128.796L134.011 129.551C134.176 129.556 134.341 129.528 134.495 129.469C134.65 129.41 134.791 129.321 134.911 129.207C135.032 129.093 135.128 128.957 135.196 128.806C135.263 128.655 135.3 128.493 135.305 128.327C135.31 128.162 135.282 127.997 135.223 127.843C135.164 127.688 135.075 127.547 134.961 127.427C134.848 127.307 134.711 127.21 134.561 127.142C134.41 127.075 134.247 127.038 134.081 127.033L120.516 126.278C120.35 126.269 120.185 126.292 120.029 126.347C119.872 126.402 119.728 126.487 119.605 126.598C119.482 126.709 119.382 126.842 119.31 126.992C119.239 127.141 119.198 127.303 119.189 127.469Z" fill="black"/>
<path d="M219.357 126.709H245.871C246.216 126.689 246.539 126.536 246.774 126.282C247.008 126.029 247.136 125.695 247.13 125.35C247.134 125.188 247.103 125.028 247.039 124.879C246.976 124.73 246.881 124.596 246.762 124.487C246.643 124.377 246.502 124.294 246.349 124.243C246.195 124.193 246.032 124.175 245.871 124.192H219.349C219.005 124.213 218.682 124.366 218.448 124.619C218.213 124.873 218.085 125.206 218.09 125.551C218.094 125.712 218.129 125.87 218.195 126.016C218.261 126.163 218.357 126.294 218.475 126.402C218.593 126.511 218.733 126.594 218.884 126.647C219.036 126.699 219.197 126.721 219.357 126.709Z" fill="black"/>
<path d="M181.346 130.757L180.523 187.776C180.52 187.942 180.55 188.106 180.611 188.26C180.672 188.413 180.763 188.554 180.878 188.673C180.993 188.791 181.13 188.886 181.282 188.952C181.433 189.018 181.597 189.053 181.762 189.055C182.095 189.057 182.415 188.928 182.655 188.696C182.894 188.464 183.032 188.147 183.041 187.814L183.869 130.792C183.872 130.627 183.841 130.463 183.78 130.309C183.719 130.155 183.628 130.015 183.513 129.897C183.398 129.778 183.26 129.684 183.108 129.618C182.957 129.553 182.793 129.518 182.628 129.516C182.296 129.52 181.979 129.652 181.741 129.882C181.503 130.113 181.362 130.426 181.346 130.757Z" fill="black"/>
<path d="M169.444 34.4782C169.697 34.4326 169.93 34.3107 170.112 34.1288C170.294 33.9469 170.415 33.7138 170.461 33.4607C170.506 33.2077 170.473 32.9469 170.365 32.7133C170.258 32.4797 170.081 32.2847 169.86 32.1543C169.316 31.832 153.998 22.7857 153.495 22.5415C153.206 22.4 152.873 22.3777 152.567 22.4794C152.262 22.5812 152.009 22.7988 151.863 23.0853C151.713 23.3799 151.681 23.7209 151.775 24.038C151.869 24.3551 152.08 24.6242 152.367 24.7898L153.447 25.4243L150.929 25.8297C150.294 25.3815 149.544 24.8226 148.915 24.3643C146.621 22.6598 144.196 24.2309 145.702 25.2682C146.513 25.8272 147.293 26.3433 147.371 26.3987L143.275 27.0533C141.689 25.7944 140.234 24.6665 140.234 24.6665C140.101 24.5673 139.951 24.4951 139.791 24.4541C139.63 24.4131 139.464 24.404 139.3 24.4274C139.137 24.4507 138.979 24.5061 138.837 24.5903C138.695 24.6746 138.57 24.786 138.471 24.9182C138.372 25.0505 138.3 25.201 138.259 25.3611C138.218 25.5213 138.209 25.688 138.232 25.8516C138.255 26.0153 138.311 26.1727 138.395 26.315C138.479 26.4572 138.591 26.5815 138.723 26.6807C138.723 26.6807 139.322 27.1439 139.891 27.5921L135.208 28.3474L131.892 25.0945C131.653 24.8663 131.333 24.7416 131.002 24.7472C130.672 24.7529 130.356 24.8884 130.125 25.1246C129.893 25.3608 129.764 25.6786 129.765 26.0094C129.766 26.3402 129.897 26.6573 130.13 26.8922L132.119 28.8384L127.647 29.5509L124.311 25.8322C124.087 25.5897 123.776 25.4453 123.446 25.4301C123.115 25.4149 122.793 25.5301 122.547 25.7509C122.301 25.9717 122.152 26.2804 122.131 26.6102C122.111 26.9401 122.221 27.2647 122.438 27.5141L124.686 30.0192L120.686 30.6487L117.39 25.9505C117.296 25.8124 117.176 25.6943 117.036 25.6032C116.896 25.5121 116.739 25.4497 116.575 25.4197C116.411 25.3897 116.242 25.3927 116.079 25.4285C115.916 25.4643 115.761 25.5321 115.625 25.6282C115.488 25.7242 115.372 25.8465 115.283 25.9878C115.194 26.1292 115.134 26.2868 115.107 26.4516C115.08 26.6163 115.085 26.7848 115.124 26.9474C115.162 27.1099 115.232 27.2632 115.33 27.3982L125.303 41.621C125.419 41.7877 125.574 41.9237 125.754 42.0175C125.935 42.1114 126.135 42.1602 126.338 42.1598C126.59 42.1548 124.797 42.4317 169.444 34.4782ZM156.627 27.295L159.217 28.8057L155.944 29.3696L153.799 27.859C154.749 27.7083 155.692 27.5202 156.627 27.295ZM150.31 28.4784C151.08 29.0247 151.795 29.5283 152.462 29.989L147.986 30.762L145.971 29.1758C147.618 28.9089 149.051 28.6747 150.31 28.4784ZM142.593 29.7246L144.65 31.3461L139.226 32.2827L137.464 30.5454L142.593 29.7246ZM134.365 31.0389L136.17 32.8013L131.326 33.6397C131.19 33.4862 130.208 32.3985 129.656 31.7791L134.365 31.0389ZM123.715 34.9591L122.307 32.9448L126.698 32.2499L128.4 34.1458L123.715 34.9591ZM126.917 39.5237L125.296 37.2099C126.451 37.0437 128.08 36.7618 130.384 36.364L132.348 38.5544L126.917 39.5237ZM135.261 38.0357L133.31 35.8579L138.385 34.9817L140.536 37.0916L135.261 38.0357ZM143.549 36.5553C143.358 36.2758 142.663 35.6514 141.442 34.453L147.308 33.4459L149.826 35.4374L143.549 36.5553ZM153.152 34.8407L150.634 32.8643L155.375 32.046C156.501 32.8265 157.415 33.4509 158.16 33.9444L153.152 34.8407ZM161.556 33.3301L158.87 31.4342L162.584 30.7922L165.653 32.5974L161.556 33.3301Z" fill="black"/>
<path d="M118.198 23.2646C118.259 23.5639 118.426 23.8311 118.669 24.0164C118.911 24.2016 119.213 24.2924 119.518 24.2717L149.152 22.2827C149.334 22.2702 149.512 22.218 149.673 22.1297C149.833 22.0414 149.972 21.9191 150.081 21.7715C150.189 21.6238 150.264 21.4543 150.3 21.2747C150.336 21.0951 150.333 20.9098 150.29 20.7317L146.027 3.13769C145.971 2.85141 145.812 2.59561 145.58 2.41846C145.348 2.24132 145.059 2.15506 144.768 2.17591L115.63 2.9111C115.446 2.91583 115.266 2.96082 115.101 3.04289C114.936 3.12497 114.792 3.24214 114.677 3.38615C114.563 3.53016 114.481 3.69752 114.438 3.87644C114.396 4.05536 114.392 4.2415 114.429 4.42175L118.198 23.2646ZM143.829 4.71884L147.49 19.8732L120.452 21.6885L117.204 5.39108L143.829 4.71884Z" fill="black"/>
</svg>
