<svg width="420" height="420" viewBox="0 0 420 420" fill="none" xmlns="http://www.w3.org/2000/svg">
<path d="M93.675 401.972C96.384 409.721 89.853 408.272 73.326 407.936C66.102 407.789 55.056 408.335 54.426 407.516C53.8517 404.555 54.0762 401.495 55.0764 398.649C56.0766 395.803 57.8163 393.276 60.1169 391.325C67.32 385.382 88.509 389.792 90.021 392.291C91.533 394.79 92.709 399.767 93.675 401.972Z" fill="#D8E9FF"/>
<path d="M179.904 396.917C190.824 410.609 184.23 408.698 177.804 408.698C141.348 408.698 139.794 413.801 149.727 396.287L179.904 396.917Z" fill="#D8E9FF"/>
<path d="M125.994 126.013C126.603 126.013 126.939 125.656 127.653 126.139C122.991 132.439 120.87 161.335 120.723 161.839C120.03 163.939 122.004 167.488 119.064 166.249C118.394 165.931 117.69 165.692 116.964 165.535C114.024 161.86 119.715 133.426 120.408 131.935C121.773 128.806 120.324 126.832 125.994 126.013Z" fill="white"/>
<path d="M202.202 178.764C200.921 182.439 195.902 180.864 191.912 179.919C135.212 167.004 128.912 169.209 124.04 166.5C121.94 165.324 126.686 132.9 129.206 128.931C133.406 122.064 190.799 135.672 198.632 137.646C206.465 139.62 208.523 139.578 209.006 142.56C209.909 148.125 204.26 172.884 202.202 178.764Z" fill="white"/>
<path d="M242.5 276.856C241.534 277.423 240.967 276.478 240.148 277.696C239.98 277.948 224.776 284.92 224.524 284.899C219.043 284.458 220.87 283.177 203.944 277.906C195.355 275.26 196.657 273.58 196.027 273.916C194.494 274.735 173.809 264.76 172.381 263.122C171.541 262.156 171.856 263.542 170.407 262.933C164.968 260.686 162.133 258.733 162.511 259.783C162.511 260.098 160.222 268.183 160.201 268.183C167.089 269.233 219.19 285.424 219.4 285.424C222.802 285.277 243.76 289.96 244.852 290.275C248.107 291.094 246.847 290.968 250.648 273.643C249.892 273.307 242.752 276.709 242.5 276.856Z" fill="#8DE3A7"/>
<path d="M173.644 318.943C174.19 318.943 175.744 318.229 175.177 319.699C174.883 320.623 174.61 320.959 174.295 322.03C174.263 322.265 174.184 322.492 174.063 322.696C173.943 322.9 173.782 323.078 173.592 323.219C173.401 323.361 173.184 323.462 172.954 323.519C172.723 323.575 172.484 323.584 172.25 323.547C171.936 323.498 171.642 323.366 171.397 323.164C169.297 321.064 161.632 317.515 161.338 316.444C165.334 317.734 169.462 318.572 173.644 318.943Z" fill="#C3F6C0"/>
<path d="M177.841 310.6C177.169 313.204 178.639 312.595 168.958 308.353C161.272 304.972 162.427 304.426 161.566 300.478C161.419 299.764 161.335 299.512 162.07 299.554C180.865 306.274 180.34 300.667 177.841 310.6Z" fill="#C3F6C0"/>
<path d="M210.332 312.239C204.704 333.239 205.019 331.328 204.851 331.37C204.683 331.412 186.119 326.603 185.951 326.519C184.04 325.784 181.121 326.036 178.937 325.028C177.929 324.545 176.291 325.343 176.837 323.474C182.906 305.12 181.037 304.826 183.011 304.805C209.513 311.882 210.605 311.273 210.332 312.239Z" fill="#C3F6C0"/>
<path d="M239.017 318.604C239.374 318.604 239.248 318.919 238.723 320.704C233.473 338.575 234.523 338.26 233.599 338.008C223.519 335.026 207.244 333.136 207.811 331.834C213.628 309.742 212.872 312.451 214.321 312.703C221.062 313.921 232.906 316.714 239.017 318.604Z" fill="#C3F6C0"/>
<path d="M245.967 292.937C247.311 292.937 242.628 306.839 242.208 308.036C239.751 314.882 240.843 316.604 238.785 316.268C238.575 316.268 219.759 310.913 214.215 310.22C213.564 310.22 219.129 288.611 219.15 288.401C219.57 286.238 243.783 292.937 245.967 292.937Z" fill="#C3F6C0"/>
<path d="M215.35 285.925C217.639 286.933 216.547 289.201 214.741 296.425C211.318 309.865 211.297 309.466 210.352 309.214C200.881 306.841 199.852 306.967 192.397 304.594C179.797 300.562 182.212 307.534 187.147 286.261C189.247 277.357 188.386 278.701 191.83 279.352C192.061 279.31 213.166 284.98 215.35 285.925Z" fill="#C3F6C0"/>
<path d="M186.264 279.314C185.949 279.965 180.552 301.847 179.838 301.91C165.936 298.361 169.485 299.243 171.858 298.697C174.567 298.067 175.092 289.961 156.276 288.722C155.94 288.722 155.646 288.533 155.289 288.722C154.932 288.911 154.869 288.554 154.953 288.26C159.489 271.733 159.468 270.116 160.455 270.557C165.012 272.615 187.965 275.786 186.264 279.314Z" fill="#C3F6C0"/>
<path d="M176.624 238.739C177.065 238.739 176.981 239.348 176.855 239.789C173.222 251.696 172.025 259.991 171.311 259.949C169.925 259.949 152.726 251.969 150.92 251.213C147.791 249.89 149.555 249.407 150.395 242.414C150.584 240.776 153.02 231.746 153.188 230.969C153.545 229.226 153.902 229.037 154.574 229.31C154.658 229.31 174.545 238.214 176.624 238.739Z" fill="#C3F6C0"/>
<path d="M201.786 249.555C199.917 254.028 196.263 270.954 195.717 270.954C193.617 270.954 173.835 262.743 174.045 261.168C174.36 258.858 179.085 240.903 179.463 240C179.673 240.084 202.038 248.904 201.786 249.555Z" fill="#C3F6C0"/>
<path d="M225.412 259.891C229.423 261.655 229.255 261.256 228.94 262.243C222.85 282.361 224.572 282.907 221.632 281.542C214.828 278.35 198.679 274.948 198.784 271.336C198.91 270.769 203.593 251.932 204.013 250.924C204.433 249.916 202.942 250.042 225.412 259.891Z" fill="#C3F6C0"/>
<path d="M268.505 243.974C263.297 265.142 263.675 263.819 261.806 265.1C259.937 266.381 253.763 268.439 255.317 267.41C255.842 267.179 258.866 249.77 259.034 249.119C259.916 246.326 268.631 244.331 268.505 243.974Z" fill="#D8E9FF"/>
<path d="M252.394 267.534C251.365 270.432 253.549 268.941 247.228 271.86C238.954 275.682 242.272 277.53 245.821 255.06C245.821 254.43 255.103 250.062 255.565 249.894C257.539 249.285 252.961 266.001 252.394 267.534Z" fill="#D8E9FF"/>
<path d="M242.526 256.675C243.429 256.192 239.019 273.076 238.683 275.071C238.536 275.932 237.99 275.932 231.291 278.977C225.642 281.56 226.167 283.177 229.863 270.094C233.181 258.418 228.414 263.92 242.526 256.675Z" fill="#D8E9FF"/>
<path d="M215.432 241.076C217.532 242.483 212.66 243.176 211.925 243.743C211.925 243.743 204.554 247.523 204.512 247.523C204.47 247.523 180.257 238.304 182.945 237.884C188.384 237.065 195.713 231.983 197.645 233.096C199.955 234.419 212.723 239.417 215.432 241.076Z" fill="#FFEB8D"/>
<path d="M228.08 246.516C237.593 252.228 246.224 253.551 238.58 255.483C236.164 256.364 233.886 257.588 231.818 259.116C230.726 260.061 207.668 249.162 207.458 249.015C207.248 248.868 219.344 243.03 220.562 243.576C221.78 244.122 226.862 245.718 228.08 246.516Z" fill="#FFEB8D"/>
<path d="M262.725 243.614C256.593 246.554 259.932 245.714 256.047 243.362C245.547 237.188 239.394 236.411 238.848 235.634C239.058 235.529 248.634 231.749 249.915 232.274C273.75 241.871 269.634 240.233 262.725 243.614Z" fill="#FFEB8D"/>
<path d="M256.127 246.34C252.199 248.727 248.084 250.792 243.821 252.514C243.233 250.855 224.039 241.888 223.094 242.308C222.884 242.098 235.106 237.205 235.316 237.163C235.526 237.121 254.426 243.337 256.127 246.34Z" fill="#FFEB8D"/>
<path d="M244.06 229.943C245.908 230.909 243.115 231.098 237.571 233.135C235.471 233.891 234.841 234.689 234.358 233.975C232.258 230.993 215.353 225.806 216.424 225.323C219.045 224.144 221.73 223.114 224.467 222.236C227.05 222.236 241.624 228.683 244.06 229.943Z" fill="#FFEB8D"/>
<path d="M231.754 235.51C233.602 236.434 224.614 238.114 220.036 240.571C219.154 241.033 219.028 239.815 216.676 238.807C203.11 232.906 199.288 231.646 201.157 230.89C213.19 226.06 211.363 226.396 217.558 228.559C228.709 232.444 230.914 235.069 231.754 235.51Z" fill="#FFEB8D"/>
<path d="M220.203 221.164C217.431 221.815 212.328 224.44 211.803 223.663C210.228 221.731 192.798 215.578 192.672 215.515C194.215 214.862 195.801 214.314 197.418 213.877C200.673 213.058 200.778 212.764 203.34 213.646C203.991 213.919 222.954 220.513 220.203 221.164Z" fill="#FFEB8D"/>
<path d="M196.722 229.897C195.861 230.275 196.596 229.162 193.425 227.797C193.425 227.797 180.825 222.946 176.982 221.14C177.486 220.594 188.889 217.045 190.023 216.751C190.023 216.751 199.725 220.321 200.124 220.405C201.384 220.615 203.379 222.505 205.248 223.072C212.304 225.676 207.18 225.382 196.722 229.897Z" fill="#FFEB8D"/>
<path d="M193.15 231.012C188.369 233.19 183.46 235.076 178.45 236.661C176.035 235.926 158.353 228.261 156.568 227.316C157.177 226.896 170.806 221.751 173.368 222.444C177.022 223.515 192.835 230.76 193.15 231.012Z" fill="#FFEB8D"/>
<path d="M362.809 24.5625C364.762 25.5075 363.859 26.3475 363.481 35.0625C363.481 36.3015 362.662 48.5025 362.053 53.5635C361.402 58.9605 362.641 105.286 357.202 105.58C347.878 106.084 350.041 102.43 348.802 113.035C348.634 116.038 344.434 114.694 341.872 114.715C336.79 114.715 314.194 113.896 313.984 113.875C308.671 113.623 306.823 113.056 306.277 114.568C304.597 119.251 290.569 141.112 290.926 141.868C291.283 142.624 292.27 141.994 295.609 140.881C300.565 139.222 300.985 138.298 297.835 142.981C287.335 158.815 274.735 172.381 274 172.591C274 171.709 279.754 164.401 283.03 158.92C291.556 144.745 288.259 148.861 281.686 149.155C279.586 149.155 289.498 134.287 293.446 119.881C296.533 108.625 296.848 115.135 232.819 110.914C229.438 110.704 231.055 107.512 230.572 102.388C230.383 100.288 228.178 101.086 227.023 101.044C225.24 101.028 223.467 100.773 221.752 100.288C219.421 98.3985 220.828 94.6185 220.429 93.1905C220.24 92.4975 221.668 52.1145 221.878 49.5105C224.104 20.3205 219.001 23.5965 231.811 23.2395C233.911 23.2395 233.911 20.8455 233.911 19.7955C234.898 10.0305 234.919 13.1175 243.172 12.5925C251.95 12.0675 341.179 13.1595 341.389 13.1595C355.018 13.1595 353.674 13.5375 353.548 21.9795C353.422 24.8985 359.848 23.1135 362.809 24.5625ZM353.695 77.7135C355.795 74.2275 345.463 72.9045 345.946 71.1615C346.626 68.3328 346.712 65.3949 346.198 62.5305C346.198 61.1865 346.303 61.8375 352.792 58.7925C356.173 57.2175 354.157 56.1675 352.225 49.8255C350.713 44.8275 348.172 47.5365 343.951 49.4055C341.62 50.4555 342.628 49.4055 338.428 45.2055C336.328 43.1055 334.858 43.1055 335.32 42.1395C339.73 33.4455 341.347 34.9575 334.963 31.6395C327.928 27.8805 328.453 28.6155 326.689 32.1225C323.14 39.1365 325.261 37.4775 319.381 37.0995C310.603 36.5535 312.913 39.3465 310.435 34.5795C307.453 28.8675 308.734 29.2035 302.518 31.9965C298.15 33.9705 296.218 34.0965 298.045 37.2255C300.733 41.7615 300.964 41.5935 300.313 42.1395C292.837 48.2925 293.509 50.7495 292.039 50.1405C282.631 46.2135 285.13 47.1165 283.492 49.5525C283.198 49.9725 280.405 55.8525 280.615 57.7005C280.489 60.1155 289.015 60.6825 289.015 61.9005C288.448 70.6365 289.813 71.1195 288.721 71.6025C280.027 75.5085 280.636 73.7025 284.983 84.4755C285.095 84.7593 285.264 85.018 285.477 85.2364C285.691 85.4548 285.946 85.6286 286.227 85.7478C286.508 85.8669 286.81 85.9291 287.116 85.9306C287.421 85.932 287.724 85.8729 288.007 85.7565C297.856 81.7665 290.443 81.1365 300.901 89.4945C302.329 90.6285 299.557 92.1615 299.011 96.9705C298.78 98.8815 301.888 99.6165 308.419 102.052C311.002 103.039 311.296 100.288 312.871 94.7655C313.249 93.5055 313.27 95.0805 322.195 94.1775C324.295 93.9675 323.455 93.6945 326.143 100.267C327.277 102.976 328.432 101.674 336.034 99.1965C341.389 97.4325 333.766 90.7965 335.446 89.2005C342.166 82.5855 339.142 85.6515 340.801 83.6565C341.872 82.3755 347.752 87.0585 349.348 86.2185C351.343 85.2945 353.611 77.9235 353.611 77.7135H353.695ZM276.121 49.8045C280.174 48.1245 280.027 49.8045 277.738 41.9505C277.129 39.8505 274.903 41.1525 274.84 40.9425C270.493 42.3495 272.026 42.5385 269.317 38.6535C267.931 36.7215 267.217 37.1205 267.91 35.9235C270.115 31.8285 271.753 32.2065 268.036 29.6235C264.76 27.2505 263.962 26.5365 262.765 28.2375C258.775 33.9285 261.778 31.2825 252.769 31.3455C252.076 31.3455 252.055 31.6395 250.984 26.9355C250.459 24.6465 246.784 26.7675 245.23 26.9355C238.636 27.9855 244.558 32.1855 242.647 33.7395C236.683 38.5695 238.93 38.2125 234.247 35.8395C232.756 35.1045 227.254 42.8955 230.341 44.2395C236.368 46.8855 233.785 45.1425 234.121 51.4425C234.121 52.9965 227.821 52.5555 228.514 55.3905C230.614 62.9715 230.005 62.8455 234.331 61.6905C238.006 60.7455 235.171 60.8925 240.316 65.6595C242.605 67.7595 232.588 71.7705 244.894 74.5005C247.477 75.0675 247.414 69.8595 249.094 70.3005C251.929 70.9725 254.743 70.3005 255.205 71.5395C256.885 76.2645 256.675 76.7475 263.311 74.7315C267.091 73.5765 262.87 68.4315 264.004 67.8015C270.136 64.7565 265.621 64.1685 271.963 67.0245C272.95 67.4655 273.391 67.3185 274.063 66.4575C275.995 63.7905 278.851 60.3465 275.848 58.6875C271.648 56.7975 272.509 58.1835 273.097 51.5895C273.013 50.4135 273.265 50.9595 276.037 49.8045H276.121Z" fill="white"/>
<path d="M351.657 53.3579C353.316 57.3269 353.61 56.5499 349.872 58.0829C342.48 61.1069 345 59.8889 344.727 66.7979C344.454 73.7069 341.493 71.8799 351.027 76.0169C351.342 76.1639 351.993 76.4579 351.867 76.7519C351.321 77.9279 349.641 84.7739 347.436 83.8499C341.598 81.3509 340.863 80.2169 339.603 82.0859C334.5 89.7089 331.203 85.7609 334.164 92.1449C336.411 96.9749 337.839 96.8279 331.224 98.8019C326.646 100.146 328.725 101.343 325.029 92.9429C324.567 91.5149 321.648 93.2159 314.529 92.2919C311.505 91.9139 311.925 91.9979 309.552 99.1799C309.237 100.146 308.418 99.9989 307.452 99.6209C299.787 96.5759 299.829 98.2979 301.572 94.0769C304.89 86.0549 302.895 91.3679 295.083 81.1199C294.81 80.7629 294.516 80.5319 293.487 80.9519C285.591 84.3119 287.67 86.7059 284.058 77.7179C283.176 75.6179 283.596 75.6179 284.058 75.4289C291.639 72.1739 290.967 72.7619 290.862 71.2289C290.043 58.7759 292.416 60.8549 287.124 59.0909C281.832 57.3269 282.063 57.4529 282.378 56.6339C285.045 49.5989 285.402 49.0109 285.969 49.1579C288.762 49.8929 292.563 53.1689 294.18 50.8379C303.105 39.4559 303.84 44.0549 300.942 38.7629C299.241 35.6759 298.548 35.3189 299.955 34.9619C303 34.1639 306.633 31.6859 306.948 32.0009C309.51 34.5839 309.594 39.3089 312.282 38.9939C326.331 37.3349 323.496 42.3749 326.982 34.9619C329.082 30.3839 329.082 30.4469 330.531 31.2449C337.293 34.6889 338.154 34.2479 336.285 36.3899C335.136 37.8645 334.223 39.5079 333.576 41.2619C332.967 42.5429 333.576 43.4879 334.752 44.3279C340.233 48.5279 340.779 52.0139 342.732 51.4259C350.628 49.1159 348.444 45.6509 351.657 53.3579ZM318.057 78.5579C336.306 79.0829 334.332 50.6489 317.196 53.1689C299.976 54.2609 301.908 78.1379 318.015 78.5999L318.057 78.5579Z" fill="#D8E9FF"/>
<path d="M326.463 58.185C338.391 72.108 311.763 88.593 306.807 65.997C307.29 56.715 314.556 54.069 319.26 54.825C321.991 55.0238 324.555 56.2196 326.463 58.185Z" fill="white"/>
<path d="M276.309 42.8754C278.031 48.5454 278.22 47.4324 275.385 48.3774C270.555 50.0154 271.773 50.1414 271.416 52.5774C270.807 56.7774 270.135 57.7224 271.899 58.6464C276.099 60.7464 275.931 60.7464 275.49 61.4604C274.041 63.7704 273.033 66.0594 272.046 65.4924C268.035 63.1194 268.098 62.7624 266.964 63.8124C261.231 69.1254 261.252 63.9594 263.1 71.9814C263.226 72.5904 263.415 73.1364 261.882 73.4724C256.821 74.5854 258.081 75.1104 256.485 70.2384C255.981 68.6634 254.385 69.2724 251.781 68.9784C247.245 68.5164 248.463 66.8784 245.481 72.2964C245.082 73.0524 245.04 73.1574 240.882 71.4144C238.488 70.4064 244.578 67.2144 241.407 64.8624C237.102 61.6914 237.879 58.3524 235.779 59.4654C231.054 61.9224 231.579 59.8854 230.319 55.8954C230.067 55.0554 229.794 55.0554 234.204 53.7954C235.716 53.3544 235.38 52.6824 235.632 48.1884C235.842 44.8704 236.724 45.6894 231.537 43.1904C230.529 42.7074 230.319 43.0434 233.091 38.2764C233.469 37.6254 233.322 37.3524 237.291 39.4944C238.677 40.2504 238.593 39.1374 244.368 34.5594C245.25 33.8664 245.04 33.5094 244.536 32.2914C243.045 28.6584 243.15 29.2884 247.98 27.7764C248.988 27.4614 249.261 27.4404 249.366 27.7764C251.907 35.9454 250.689 31.0944 259.236 33.5094C260.916 33.9924 261.168 33.0264 262.113 31.6824C264.612 28.1754 263.415 28.3014 268.203 31.8084C268.728 32.1864 268.203 32.3754 266.712 34.5384C264.969 37.1004 265.83 36.8694 268.329 40.3134C270.219 42.8964 270.429 44.3034 273.054 43.2114C273.579 42.9804 276.099 42.1824 276.309 42.8754ZM255.456 59.6754C257.716 59.1934 259.71 57.877 261.041 55.989C262.373 54.101 262.943 51.7804 262.638 49.4904C259.425 38.1084 245.019 40.7124 245.061 50.8134C245.061 56.5254 249.408 61.1034 255.456 59.7174V59.6754Z" fill="#D8E9FF"/>
<path d="M246.932 48.728C249.305 40.685 261.254 43.037 261.149 50.492C260.96 61.832 243.551 60.194 246.932 48.728Z" fill="white"/>
<path d="M188.85 99.4304C197.481 108.481 204.642 121.984 203.886 132.715C203.613 136.39 204.999 136.096 191.727 133.03C176.229 129.46 140.928 122.887 125.031 123.37C115.833 123.664 115.959 143.026 115.203 145.021C115.203 161.611 105.333 169.15 128.811 170.704C139.311 171.376 196.767 183.073 196.767 184.417C196.293 188.533 195.471 192.6 194.31 196.576C193.05 200.377 193.344 197.899 190.362 197.437L171.063 192.544C170.265 192.313 111.948 182.716 110.856 182.989C110.705 183.031 110.545 183.031 110.394 182.989C109.281 182.275 108.504 182.989 104.094 182.338C76.1432 178.138 80.9942 179.776 75.9962 179.44C72.9722 179.23 71.0402 182.296 70.9772 176.563C70.9666 175.411 71.0935 174.262 71.3552 173.14C72.8882 166.336 70.8512 171.355 85.4252 169.129C87.0698 169.241 88.7161 168.937 90.2132 168.247C97.4792 164.971 102.057 119.548 100.587 115.348C98.4872 109.048 82.4852 108.691 82.6952 107.788C84.6902 99.0104 103.695 84.4994 116.967 83.0294C141.747 80.2994 171.126 80.8034 188.85 99.4304Z" fill="#D8E9FF"/>
<path d="M182.713 359.307C184.813 372.915 182.713 374.112 179.605 378.795C179.248 379.32 178.849 378.795 176.434 377.703C168.811 374.259 152.473 377.703 147.034 383.457C146.383 384.234 139.432 383.667 138.025 371.046C136.387 356.199 135.526 324.468 150.478 324.027C152.578 323.817 168.979 333.561 172.129 327.366C174.922 322.053 181.852 353.469 182.713 359.307Z" fill="#D8E9FF"/>
<path d="M180.953 216.123C181.499 217.299 179.651 216.774 174.653 218.832C173.519 219.294 173.603 220.449 172.259 220.029C170.915 219.609 153.359 225.195 152.96 225.762C150.104 229.332 147.08 246.762 146.66 249.303C146.177 252.201 147.626 252.831 159.785 258.018C160.688 258.396 157.37 269.82 157.181 270.45C156.005 274.65 144.329 240.147 118.31 250.983C104.891 256.548 103.883 260.79 99.9562 259.887C96.1972 259.887 96.4912 261.441 95.7562 259.887C94.5802 257.577 89.8342 246.804 92.5642 246.111C95.2942 245.418 95.0212 245.292 93.8452 237.711C93.0682 232.776 95.3152 211.335 80.6992 200.835C84.6052 198.609 99.9772 194.283 105.038 195.291C105.584 195.291 104.891 196.131 106.55 198.189C114.299 208.899 155.711 210.957 159.197 204.489C160.226 202.578 160.058 202.389 169.025 206.904C181.394 213.309 179.735 213.582 180.953 216.123Z" fill="#D8E9FF"/>
<path d="M178.013 381.453C181.184 382.944 180.701 388.971 180.113 392.415C179.042 399.009 163.523 403.86 149.096 392.73C146.891 391.05 146.534 387.039 147.584 387.102C148.991 387.207 146.723 385.527 159.68 380.487C165.743 378.891 172.152 379.229 178.013 381.453Z" fill="#D8E9FF"/>
<path d="M174.024 313.528C174.612 313.801 175.641 314.851 175.074 315.502C173.121 317.602 161.634 313.675 159.744 312.667C159.093 312.31 159.366 312.184 160.752 308.95C161.76 306.619 161.214 307.711 174.024 313.528Z" fill="#BED4FC"/>
<path d="M169.608 294.92C172.695 298.742 162.825 295.088 159.99 296.243C159.757 296.334 159.5 296.345 159.26 296.272C159.02 296.2 158.811 296.049 158.667 295.844C157.575 294.542 154.719 292.505 154.74 291.98C154.74 290.741 167.193 291.917 169.608 294.92Z" fill="#BED4FC"/>
<path d="M166.982 323.726C174.458 327.926 164.021 327.464 155.705 322.739C152.366 320.849 152.219 321.941 156.314 317.447C157.28 316.418 156.188 317.699 166.982 323.726Z" fill="#BED4FC"/>
<path d="M155.671 193.904C157.141 194.177 157.771 193.904 157.771 195.311C157.477 198.104 157.603 200.015 157.12 202.787C156.49 206.378 125.494 207.974 110.332 197.978C107.392 196.046 108.547 194.765 108.715 193.358C108.715 193.358 109.093 189.872 109.093 189.851C110.899 185.651 106.384 186.008 118.753 187.478C126.25 188.381 128.917 189.011 155.671 193.904Z" fill="#BED4FC"/>
<path d="M157.471 299.372C161.671 306.491 151.759 323.564 141.364 321.842C133.678 320.561 127.042 308.213 135.064 296.642C143.086 285.071 155.182 294.983 157.471 299.372Z" fill="#D8E9FF"/>
<path d="M154.138 272.787C153.739 276.546 149.938 283.14 148.279 286.206C147.355 287.928 147.313 288.621 145.969 288.306C141.181 287.529 139.669 289.104 138.829 288.579C135.595 286.479 135.553 286.71 136.099 285.66C141.538 275.16 122.533 268.65 108.988 263.043C106.678 262.098 106.615 262.791 110.458 259.578C118.06 253.278 128.098 249.225 136.897 253.698C143.428 257.1 153.256 269.7 154.138 272.787Z" fill="#D8E9FF"/>
<path d="M140.482 326.854C139.747 327.82 139.222 329.857 138.382 329.29C138.33 329.261 138.287 329.218 138.257 329.167C138.227 329.115 138.212 329.056 138.214 328.996C137.773 326.392 136.114 323.137 137.206 323.515C141.532 325.048 141.784 324.649 140.482 326.854Z" fill="#BED4FC"/>
<path d="M134.711 289.199C137.651 290.942 135.404 289.955 133.199 293.966C131.682 296.323 130.395 298.819 129.356 301.421C127.613 306.965 129.104 307.553 125.597 306.335C122.825 305.39 126.206 295.247 131.897 289.535C132.24 289.139 132.719 288.886 133.239 288.823C133.76 288.761 134.285 288.895 134.711 289.199Z" fill="#BED4FC"/>
<path d="M135.087 281.668C135.801 287.632 122.487 289.564 121.647 305.755C120.933 318.355 88.7396 296.641 82.3766 285.994C78.4076 279.316 95.7746 261.76 99.5966 262.894C102.096 261.97 112.197 266.59 114.591 267.619C125.175 272.26 134.184 274.276 135.087 281.668Z" fill="#D8E9FF"/>
<path d="M128.578 310.814C131.098 321.314 139.519 320.033 125.764 326.354C123.37 327.467 111.463 328.076 108.691 324.107C104.134 318.689 99.0103 305.207 98.6953 304.115C101.488 305.522 108.586 310.856 114.508 312.305C121.585 314.027 123.055 308.567 124.525 309.008C128.011 310.142 128.452 309.953 128.578 310.814Z" fill="#D8E9FF"/>
<path d="M101.654 320.427C98.6299 323.01 99.5539 323.094 97.4539 319.65C87.8569 303.06 84.1609 302.367 85.1059 301.065C85.8409 300.078 86.1349 297.159 88.1089 295.815C93.0439 299.763 102.977 319.671 101.654 320.427Z" fill="#BED4FC"/>
<path d="M100.96 333.643C101.779 337.297 106.147 370.456 93.2317 378.94C92.2657 379.654 84.5377 371.947 75.0037 371.674C59.7787 371.233 60.7447 375.391 59.9467 373.774C57.7207 370.939 56.2927 369.07 57.5107 360.187C59.0017 349.204 64.7767 324.487 70.1107 312.349C71.4337 309.367 77.0827 299.959 79.9807 301.849C87.4147 306.616 99.7627 328.246 100.96 333.643Z" fill="#D8E9FF"/>
<path d="M96.3196 114.78C100.919 118.98 93.1906 156.444 91.3006 160.98C89.8936 164.361 87.3316 167.28 81.3466 166.818C79.2466 166.671 69.5446 167.616 67.5496 164.004C67.1773 163.012 67.0198 161.953 67.0876 160.896C66.9406 159.279 75.1306 162.66 79.9186 159.468C81.7876 158.229 88.5706 121.668 84.8326 117.741C81.8716 114.633 73.7866 115.116 72.4216 114.738C71.8756 114.738 72.5896 110.958 75.4246 110.769C81.1576 110.433 91.7836 110.538 96.3196 114.78Z" fill="#D8E9FF"/>
<path d="M94.2197 263.164C94.6397 263.668 93.3167 262.807 89.6627 266.419C88.0095 268.439 86.4605 270.542 85.0217 272.719C82.3547 276.016 81.8927 279.376 81.1157 278.788C77.5849 275.907 74.8398 272.179 73.1357 267.952C70.9822 262.311 69.3514 256.483 68.2637 250.543C68.2637 248.254 82.9637 247.624 87.5207 248.443C88.6967 248.653 88.6547 249.598 89.2007 251.572C92.7287 263.815 95.3117 262.66 94.2197 263.164Z" fill="#BED4FC"/>
<path d="M91.3227 382.216C95.3337 382.867 88.8447 392.716 75.7407 394.48C71.0169 395.145 66.2112 394.094 62.1957 391.519C59.2767 388.663 58.5627 388.243 58.8987 381.019C58.8721 380.102 59.1067 379.197 59.5752 378.409C60.0438 377.62 60.7268 376.982 61.5447 376.567C66.5535 374.717 71.9714 374.265 77.2174 375.261C82.4633 376.256 87.3394 378.66 91.3227 382.216Z" fill="#D8E9FF"/>
<path d="M91.1096 241.83C91.3616 243.93 89.0096 242.208 81.0296 243.3C80.8196 243.3 72.8606 243.93 71.6006 244.791C71.6006 244.791 65.1116 246.408 64.6496 246.324C63.2636 246.072 60.9956 226.038 63.7676 216.294C66.9386 205.143 77.2496 206.214 79.1606 209.994C79.3076 210.183 88.2536 217.596 91.1096 241.83Z" fill="#D8E9FF"/>
<path d="M78.1735 156.565C77.4385 159.211 69.2904 158.014 66.7284 157.552C64.5025 157.153 65.3635 153.499 65.6155 150.328C67.5895 125.359 68.9334 123.973 69.1434 121.852C69.4374 118.765 70.0044 117.526 73.3434 117.484C79.9794 118.156 82.2054 117.988 82.6884 120.025C84.2844 127.081 79.7065 151.042 78.1735 156.565Z" fill="#D8E9FF"/>
<path d="M70.2148 205.814C70.2148 205.814 74.6038 199.283 80.8618 202.307C87.1198 205.331 92.3908 221.207 91.7608 227.885L89.8498 227.507C89.8498 227.507 84.2218 202.937 70.2148 205.814Z" fill="#BED4FC"/>
<path d="M365.815 28.9953C360.67 90.0843 365.101 107.43 357.961 107.43C348.721 107.43 351.262 105.813 350.485 113.184C349.981 118.014 344.773 116.943 342.421 116.775C342.211 116.775 308.128 114.99 307.729 115.977C303.83 123.674 299.54 131.167 294.877 138.426C294.835 138.474 294.809 138.534 294.802 138.597C294.796 138.66 294.81 138.724 294.842 138.779C294.875 138.833 294.926 138.875 294.985 138.898C295.044 138.922 295.11 138.926 295.171 138.909C302.416 136.683 301.219 135.843 302.668 136.683C304.117 137.523 300.799 141.66 300.568 141.891C300.337 142.122 296.116 149.283 295.066 150.291C294.877 150.501 269.362 184.395 268.648 177.234C268.438 175.281 270.433 175.533 282.613 155.856C286.645 149.346 286.435 150.522 280.828 151.656C279.253 152.139 277.447 151.887 278.098 150.207C278.098 149.997 295.633 116.187 291.496 114.969C290.404 114.591 232.696 112.869 232.465 112.869C226.165 112.533 230.134 102.894 228.076 102.831C225.304 102.831 218.605 103.335 218.584 99.1983C218.437 80.4873 219.025 70.8483 220.684 36.4083C221.356 22.3383 218.395 21.5403 229.084 21.1623C233.032 21.0153 231.184 22.1493 232.066 16.5843C232.948 11.0193 233.578 10.6203 239.416 10.5783C239.416 10.3683 350.716 10.4523 353.677 12.6783C356.953 15.2403 354.076 21.2883 356.428 21.7293C362.434 22.9263 366.529 20.6163 365.815 28.9953ZM362.728 24.5643C359.851 23.1363 353.404 24.9003 353.425 22.0653C353.53 12.4473 353.908 14.0643 345.13 13.2663C344.92 13.2663 235.762 11.0193 234.754 14.4213C233.137 20.0073 234.586 23.2413 231.667 23.3043C218.857 23.6613 223.96 20.4063 221.734 49.5963C221.545 52.1793 220.096 92.5833 220.285 93.2553C220.705 94.7043 219.277 98.4843 221.608 100.353C223.322 100.847 225.096 101.101 226.879 101.109C228.055 101.109 230.239 100.353 230.449 102.453C230.911 107.577 229.315 110.853 232.675 111C296.767 115.2 296.368 108.774 293.323 119.946C289.585 133.659 279.484 149.346 281.542 149.346C288.136 149.031 291.412 144.936 282.907 159.111C279.61 164.592 273.919 171.879 273.856 172.761C274.612 172.572 287.317 158.985 297.712 143.151C300.862 138.342 300.421 139.287 295.486 141.051C292.147 142.185 291.139 142.647 290.803 142.038C290.467 141.429 304.096 120.576 306.154 114.738C307.078 112.134 348.427 117.51 348.679 113.205C349.057 109.824 348.28 104.931 351.262 105.54C363.274 108.06 359.137 101.004 361.321 80.5083C361.321 80.2983 361.888 53.9433 361.93 53.7333C362.035 52.7043 364.912 25.6353 362.812 24.5643H362.728Z" fill="black"/>
<path d="M352.663 74.7947C353.134 75.0961 353.487 75.5521 353.659 76.0846C353.831 76.6171 353.813 77.193 353.608 77.7137C352.516 79.4777 351.781 85.1267 349.219 86.1137C347.623 86.9327 341.68 82.3127 340.651 83.5307C338.992 85.6307 342.037 82.5017 335.296 89.0956C333.574 90.7757 341.323 97.2857 335.884 99.0706C328.282 101.57 327.106 102.851 326.014 100.163C323.326 93.5897 324.145 93.8626 322.045 94.0517C313.12 94.9756 313.099 93.3797 312.742 94.6607C311.272 99.7847 310.915 102.935 308.269 101.948C301.738 99.5327 298.63 98.7767 298.861 96.8447C299.428 92.0147 302.179 90.5447 300.751 89.3897C290.251 80.9897 297.706 81.6407 287.857 85.6516C287.432 85.8278 286.963 85.8724 286.513 85.7795C286.062 85.6867 285.649 85.4607 285.328 85.1308C285.114 84.9128 284.946 84.6544 284.833 84.3707C280.507 73.6397 279.919 75.3617 288.613 71.4767C289.705 71.0147 288.34 70.4687 288.907 61.7747C288.907 60.5357 280.318 59.8637 280.507 57.5747C280.297 55.6427 283.237 49.6367 283.384 49.4267C285.022 46.9907 282.523 46.0877 291.931 50.0147C293.401 50.6237 292.708 48.1667 300.205 42.0137C300.856 41.4677 300.625 41.6357 297.937 37.0997C296.089 33.9917 298.042 33.8447 302.41 31.8707C308.71 29.0777 307.366 28.7837 310.327 34.4537C312.805 39.2207 310.495 36.4277 319.273 36.9737C325.195 37.3517 323.032 39.0737 326.581 31.9967C328.345 28.4897 327.799 27.7967 334.855 31.5137C341.155 34.9157 339.601 33.4037 335.212 42.0137C334.75 42.9377 336.325 43.0637 338.32 45.0797C342.52 49.2797 341.512 50.4137 343.843 49.2797C348.043 47.4107 350.605 44.7017 352.117 49.6997C354.049 55.9997 356.065 57.0917 352.684 58.6667C346.195 61.6907 346.006 61.0607 346.09 62.4047C346.867 75.3407 342.94 70.0067 352.663 74.7947ZM351.655 53.3537C348.442 45.6677 350.605 49.1537 342.772 51.4847C340.798 52.0727 340.252 48.5027 334.771 44.3867C333.637 43.5467 333.028 42.5807 333.595 41.3207C334.242 39.5627 335.163 37.9183 336.325 36.4487C338.194 34.3487 337.291 34.7267 330.571 31.3037C329.017 30.5057 329.185 30.4427 327.001 35.0207C323.431 42.4757 326.077 37.4147 312.301 39.0527C309.592 39.3887 309.55 34.6637 306.988 32.0597C306.673 31.7447 303.019 34.1597 299.995 35.0207C298.588 35.3987 299.281 35.7347 300.982 38.8217C303.88 44.1137 303.082 39.5147 294.22 50.8967C292.624 53.2067 288.802 49.9517 286.009 49.2377C285.421 49.0697 285.064 49.6577 282.397 56.6927C282.103 57.5117 281.725 57.3227 287.143 59.1497C292.561 60.9767 290.062 58.9187 290.902 71.2877C290.902 72.7787 291.658 72.1487 284.077 75.4877C283.573 75.6977 283.237 75.6557 284.077 77.7557C287.71 86.7437 285.631 84.3497 293.527 80.9897C294.556 80.5697 294.85 80.8007 295.102 81.1577C302.83 91.4687 304.909 86.0927 301.612 94.1147C299.869 98.3147 299.722 96.6347 307.492 99.6797C311.692 101.297 309.235 91.7836 313.792 92.2456C321.268 93.0226 324.649 91.6787 325.09 92.9807C328.786 101.381 326.707 100.205 331.285 98.8397C337.858 96.8657 336.451 97.0337 334.225 92.1827C332.776 89.0537 332.65 88.6967 333.511 87.9827C343.486 79.9187 337.606 79.5827 347.497 83.7827C349.597 84.7067 351.424 77.8187 351.907 76.6847C352.054 76.3697 351.382 76.0967 351.067 75.9497C341.575 71.7497 344.536 73.6397 344.767 66.7307C344.998 59.8217 342.667 61.2287 349.912 58.0157C353.608 56.4617 353.398 57.5327 351.655 53.3537Z" fill="black"/>
<path d="M318.017 78.5977C301.952 78.1357 299.978 54.2587 317.156 53.2087C335.027 50.5837 335.867 79.1227 318.017 78.5977ZM312.914 75.7207C327.509 83.5327 338.009 57.8497 319.214 54.7207C316.943 54.433 314.638 54.8355 312.599 55.8757C303.275 58.9207 307.307 75.7207 312.914 75.7207Z" fill="black"/>
<path d="M326.691 285.152C327.951 289.961 291.18 279.188 276.858 309.155C265.707 332.486 276.648 352.562 272.049 351.407C269.949 350.882 266.064 329.462 248.655 326.207C247.71 326.207 245.736 323.099 249.873 323.855C253.592 324.728 257.048 326.477 259.953 328.958C268.584 336.707 267.429 337.526 269.697 340.76C270.264 335.09 266.715 317.66 278.769 300.629C292.02 281.729 322.638 285.005 320.433 283.325C310.038 273.224 308.946 273.308 298.761 260.225C287.904 246.344 286.938 226.331 292.272 214.613C296.241 205.856 304.767 195.188 304.998 194.264C303.885 194.264 262.116 226.541 240.759 185.864C239.018 181.466 237.963 176.828 237.63 172.109C237.861 169.463 238.26 166.565 237.42 168.413C230.007 184.436 212.766 198.674 207.285 197.54C207.055 197.535 206.834 197.451 206.659 197.303C206.483 197.155 206.364 196.952 206.32 196.726C206.275 196.501 206.31 196.267 206.416 196.064C206.523 195.861 206.696 195.7 206.907 195.608C227.655 190.169 238.638 158.942 240.507 159.005C243.615 159.131 237.945 167.405 240.843 179.102C242.481 190.421 259.743 206.129 275.388 204.071C288.135 202.412 306.888 191.786 313.188 184.751C315.603 182 317.388 184.541 315.834 186.053C257.097 245.105 323.331 277.214 326.691 285.152Z" fill="black"/>
<path d="M279.188 47.3695C279.734 50.1625 273.098 49.4695 272.888 51.5695C272.426 58.1635 271.502 56.7775 275.639 58.6885C278.663 60.3265 275.765 63.7915 273.854 66.4585C273.224 67.2985 272.783 67.4665 271.754 67.0045C265.454 64.1275 269.927 64.7365 263.795 67.7815C262.661 68.3485 266.861 73.5775 263.102 74.7115C256.466 76.8115 256.676 76.2655 254.996 71.5405C254.555 70.2805 251.51 70.9105 248.864 70.3015C247.184 69.9025 247.247 75.0685 244.664 74.5015C232.253 71.8345 242.564 67.8655 240.086 65.6605C234.941 60.9145 237.776 60.7675 234.101 61.7125C232.211 62.1955 229.901 62.9095 229.775 60.7045C229.25 55.1185 225.869 54.7405 230.972 52.9135C233.744 51.9265 233.912 51.9475 233.891 51.4225C233.66 47.0125 234.626 46.4455 233.891 46.0675C230.741 44.5555 228.599 43.9675 229.25 42.1195C232.505 33.2155 234.248 35.8195 237.398 37.4575C237.902 37.7095 237.671 37.6045 242.543 33.6145C244.643 31.8925 238.343 27.9025 245.126 26.8105C246.659 26.5795 250.355 24.4585 250.88 26.8105C251.951 31.4935 251.951 31.1995 252.665 31.1995C261.674 31.1995 258.671 33.8035 262.661 28.0915C263.837 26.4115 264.635 27.1045 267.932 29.4775C271.67 32.1655 270.032 31.7875 267.806 35.7775C267.155 36.9955 267.806 36.5755 269.192 38.5285C271.922 42.3925 270.389 42.2245 274.736 40.8175C274.736 41.0275 277.046 39.7045 277.634 41.8045C278.388 43.5874 278.911 45.4564 279.188 47.3695ZM275.387 48.3775C278.222 47.4325 278.18 48.5035 276.311 42.8755C276.296 42.8114 276.269 42.7507 276.231 42.697C276.151 42.5906 276.031 42.5203 275.899 42.5017C275.833 42.4939 275.766 42.4996 275.702 42.5185C269.822 43.9465 271.502 44.4925 268.373 40.4185C265.853 36.9745 265.013 37.2055 266.756 34.6435C268.205 32.5435 268.856 32.2915 268.247 31.9135C263.459 28.4065 264.656 28.2805 262.157 31.7875C261.212 33.1105 260.96 34.0975 259.28 33.6145C250.733 31.1995 251.951 36.0505 249.41 27.8815C249.305 27.4825 249.032 27.5035 248.024 27.8815C243.194 29.3935 243.089 28.7635 244.58 32.3965C245.084 33.6145 245.294 33.9715 244.412 34.6645C238.658 39.2425 238.721 40.3555 237.335 39.5995C233.366 37.4995 233.492 37.7305 233.135 38.3815C230.363 43.1485 230.573 42.8125 231.581 43.2955C236.768 45.7945 235.886 44.9755 235.676 48.2935C235.424 52.7875 235.676 53.4595 234.248 53.9005C229.838 55.2235 230.048 55.2025 230.363 56.0005C231.518 60.0115 231.098 62.0275 235.823 59.5705C237.923 58.4575 237.146 61.7965 241.451 64.9675C244.58 67.2775 238.616 70.5325 240.926 71.5195C245.126 73.2835 245.126 73.1575 245.525 72.4015C248.486 67.0465 247.289 68.6215 251.825 69.0835C254.513 69.3775 256.025 68.7685 256.529 70.3435C258.125 75.2155 256.865 74.6905 261.926 73.5775C263.459 73.2415 263.27 72.7165 263.144 72.0865C261.317 64.0645 261.296 69.2515 267.008 63.9175C268.121 62.8675 268.079 63.2245 272.09 65.5975C273.077 66.1645 274.043 63.9385 275.534 61.5655C275.975 60.8515 276.143 60.9565 271.943 58.7515C270.179 57.8275 270.83 56.9245 271.46 52.6825C271.775 50.1415 270.557 50.0155 275.387 48.3145V48.3775Z" fill="black"/>
<path d="M266.398 263.353C265.957 266.545 262.45 267.868 261.715 268.246C250.48 273.916 254.743 267.637 249.892 288.553C248.048 297.064 245.77 305.475 243.067 313.753C235.549 341.662 236.515 341.872 233.113 340.759C226.708 338.659 180.34 328.327 180.13 328.159C175.552 326.878 177.526 326.206 180.655 338.071C183.154 347.584 188.236 364.762 185.38 374.191C183.553 380.281 180.823 380.26 181.663 381.331C183.553 383.788 183.637 390.046 182.923 392.839C181.474 398.593 180.256 393.574 183.868 399.496C187.48 405.418 186.871 405.25 185.317 406.069C184.666 406.426 183.448 405.082 183.385 404.914C182.041 401.449 182.965 403.927 180.76 400.231C179.248 397.69 180.97 400.903 167.404 404.767C161.986 406.321 155.077 402.289 153.145 401.344C151.99 400.756 150.205 398.257 149.764 399.244C146.572 406.321 147.664 406.468 146.047 406.468C140.923 406.468 148.609 396.325 147.685 395.527C146.632 394.639 145.804 393.513 145.271 392.243C144.738 390.972 144.515 389.593 144.619 388.219C144.934 382.948 138.13 389.983 135.715 372.259C134.745 363.614 134.548 354.899 135.127 346.219C135.127 334.984 139.474 337.819 134.056 325.702C133.678 324.82 129.331 329.902 123.136 329.902C115.786 329.902 113.833 331.624 105.664 325.702C102.976 323.77 104.509 321.502 101.569 324.589C99.9732 326.311 103.501 329.125 104.047 334.165C104.555 342.886 104.591 351.629 104.152 360.352C103.564 369.025 102.997 379.525 95.6472 382.024C95.0382 382.276 95.4792 382.36 94.8282 385.741C93.9672 390.235 90.0402 390.802 91.3842 392.041C92.1192 392.734 95.7942 401.386 95.0382 402.709C94.8666 402.946 94.6282 403.127 94.3534 403.228C94.0787 403.329 93.78 403.345 93.4958 403.275C93.2116 403.205 92.9547 403.052 92.7581 402.835C92.5615 402.618 92.4341 402.348 92.3922 402.058C91.9302 401.428 92.1402 400.546 91.5522 399.958C91.3632 399.748 91.4262 399.307 91.3002 398.992C88.0242 390.214 91.1322 395.716 80.8002 399.139C67.8852 403.465 60.2412 392.986 58.5402 395.359C57.2364 397.64 56.2808 400.104 55.7052 402.667C55.4532 403.293 55.1655 403.902 54.8442 404.494C55.0752 405.334 52.7442 405.565 52.9962 404.704C52.9962 404.578 52.3032 404.515 52.5552 403.738C53.2482 401.638 53.2902 396.367 57.4272 391.915C58.1202 391.201 53.0382 384.607 57.6792 376.396C58.1832 375.514 58.1832 375.787 57.5532 375.073C52.3452 369.277 54.3192 363.313 54.4242 360.667C54.8022 352.057 68.8932 289.267 81.4092 299.011C82.7532 300.061 82.1022 298.654 85.3992 293.509C86.3652 291.997 85.2312 292.732 82.6062 288.742C78.9942 283.24 81.3252 282.232 79.8342 281.455C71.4342 277.087 67.0452 259.384 64.8612 250.249C64.2942 247.918 61.5852 253 60.6612 243.466C60.1362 238.258 57.4692 217.678 62.7612 211.651C62.9502 211.441 65.0292 206.989 66.7932 206.443C75.9072 195.712 97.7682 193.108 98.8812 191.932C98.8812 191.092 93.2112 191.932 71.4552 185.149C64.3362 183.049 70.1742 168.685 68.2842 167.929C63.8532 166.144 64.6932 159.634 64.0842 158.92C61.5432 156.337 64.0842 145.375 64.7562 134.791C65.9112 114.652 69.3762 115.891 69.6702 114.379C70.4682 109.822 71.9592 108.961 75.5082 108.079C76.4742 107.806 78.9102 108.457 79.3512 107.155C91.5522 72.2742 153.796 70.9092 182.251 90.0822C211.504 109.78 206.338 134.98 207.199 136.093C208.06 137.206 212.26 136.534 211.735 144.64C211.567 147.097 209.257 160.39 207.199 170.176C204.406 183.532 203.986 182.461 201.277 183.28C199.576 183.763 199.807 186.262 197.413 197.098C195.922 203.881 196.594 201.718 194.578 203.608C192.562 205.498 168.58 202.558 167.95 203.251C167.32 203.944 182.398 208.816 183.91 215.011C184.12 215.935 186.934 213.919 188.845 214.78C189.139 214.906 189.328 214.885 189.412 214.549C189.748 212.974 199.513 210.349 201.781 210.727C205.162 211.399 221.059 216.775 223.159 219.337C223.852 220.177 224.524 219.568 226.582 220.051L245.482 227.233C248.233 228.514 247.477 229.333 248.527 229.333C250.753 229.333 257.62 232.42 259.3 233.26C277.969 242.794 270.409 234.982 266.398 263.353ZM268.498 243.97C268.498 244.285 259.804 246.511 259.027 249.115C258.859 249.766 255.835 267.175 255.31 267.406C255.31 268.309 261.022 265.642 261.799 265.096C263.647 263.857 263.29 265.117 268.498 243.97ZM262.723 243.529C269.485 240.295 273.979 241.954 249.913 232.189C248.611 231.643 239.056 235.444 238.846 235.549C244.755 237.714 250.503 240.297 256.045 243.277C259.909 245.545 256.591 246.469 262.723 243.613V243.529ZM255.583 249.829C255.121 250.018 245.923 254.365 245.839 255.016C242.605 277.549 239.014 275.617 247.246 271.816C253.546 268.876 251.446 270.115 252.412 267.49C253.021 265.894 257.557 249.178 255.583 249.913V249.829ZM255.583 246.889C261.232 246.07 235.528 237.103 235.318 237.082C235.108 237.061 222.844 242.017 223.096 242.227C224.293 241.681 235.696 247.834 237.25 248.338C249.787 253.819 237.733 254.113 255.709 246.973L255.583 246.889ZM242.458 276.772C241.492 277.339 240.925 276.394 240.106 277.612C239.728 278.179 228.346 282.778 227.044 283.786C225.28 283.975 226.477 285.235 222.55 284.605C221.542 284.437 198.547 275.638 198.337 275.554C196.405 274.861 196.489 273.58 196.027 273.832C194.41 274.714 174.418 265.432 172.402 263.059C171.541 262.072 171.856 263.458 170.302 262.87C162.322 259.552 162.532 258.397 162.091 260.77C161.02 266.545 160.579 264.97 160.117 268.099C164.8 268.099 219.274 285.865 236.41 288.385C250.354 290.485 245.587 295.798 250.48 273.559C247.671 274.257 244.982 275.368 242.5 276.856L242.458 276.772ZM244.075 301.972C246.406 294.055 246.742 292.921 245.923 292.858C245.923 292.858 220.555 287.314 220.492 287.755C219.358 287.755 219.211 287.503 218.812 289.288C214.36 308.713 213.394 310.057 214.171 310.141C233.176 312.514 237.502 317.659 239.623 315.832C241.009 314.782 241.471 310.939 244.117 302.056L244.075 301.972ZM237.523 233.05C244.6 230.446 250.627 231.538 231.685 224.65C231.685 224.65 227.485 222.76 224.566 221.899C224.566 221.899 224.566 222.235 224.419 222.214C224.272 222.193 215.011 225.322 216.355 225.742C220.429 226.981 233.029 232.042 234.31 233.953C234.835 234.709 235.528 233.89 237.565 233.113L237.523 233.05ZM238.636 275.05C238.972 272.95 243.382 256.15 242.479 256.654C229.06 263.5 232.903 258.481 229.879 270.073C226.309 283.513 225.784 281.476 231.307 278.956C232.84 278.284 240.379 275.113 238.678 275.113L238.636 275.05ZM241.387 254.239C243.949 253.189 220.723 243.739 220.513 243.55C219.274 243.004 206.884 248.611 207.409 248.989C207.934 249.367 230.677 260.035 231.769 259.09C235.066 256.213 242.374 254.26 241.429 254.26L241.387 254.239ZM238.972 318.583C233.029 316.735 221.038 313.9 214.276 312.64C212.827 312.388 213.583 309.679 207.766 331.771C207.22 333.094 223.264 334.9 233.554 337.945C234.436 338.197 233.428 338.512 238.678 320.641C238.51 320.662 239.623 318.793 239.014 318.604L238.972 318.583ZM220.072 240.547C229.144 235.675 240.61 237.817 221.206 229.9C220.135 229.669 221.059 229.732 217.594 228.535C211.399 226.435 213.205 225.994 201.193 230.866C199.66 231.496 201.319 232.021 216.712 238.783C219.022 239.833 219.148 241.03 220.009 240.568L220.072 240.547ZM228.976 262.219C229.291 261.232 229.459 261.631 225.448 259.867C202.978 249.997 204.448 250.018 204.049 250.9C203.65 251.782 198.946 270.745 198.82 271.312C198.694 274.924 214.738 278.263 221.668 281.518C224.566 282.904 222.844 282.358 228.934 262.24L228.976 262.219ZM220.576 220.786C219.482 219.879 218.238 219.169 216.901 218.686C199.093 212.491 202.789 212.554 197.308 213.94C195.691 214.377 194.106 214.925 192.562 215.578C192.688 215.578 210.139 221.878 211.693 223.726C212.344 224.44 220.387 220.807 220.597 220.807L220.576 220.786ZM216.544 288.931C217.657 284.437 211.273 285.214 200.227 281.623C198.589 281.098 194.326 279.754 191.827 279.25C188.383 278.599 189.202 277.15 187.144 286.159C182.209 307.432 179.815 300.481 192.394 304.492C199.807 306.865 200.794 306.76 210.349 309.112C211.798 309.511 212.05 307.159 216.565 288.952L216.544 288.931ZM216.124 241.996C214.654 239.644 201.298 235.192 197.602 233.071C196.132 232.231 190.252 235.444 190.042 235.528C180.991 239.497 177.442 235.528 193.213 243.088C193.444 243.088 204.28 247.477 204.49 247.498C204.7 247.519 211.882 243.739 211.903 243.718C213.348 243.231 214.764 242.663 216.145 242.017L216.124 241.996ZM210.307 312.22C210.517 311.443 187.816 306.109 183.007 304.807C180.907 304.807 183.007 305.248 176.833 323.497C176.203 325.345 177.841 324.526 178.933 325.03C179.143 325.03 204.679 331.33 204.889 331.33C205.099 331.33 204.721 333.346 210.328 312.241L210.307 312.22ZM208.984 142.582C208.48 139.6 206.653 139.684 198.61 137.647C190.567 135.61 133.51 122.065 129.184 128.932C126.685 132.943 121.939 165.325 124.018 166.522C124.795 166.963 198.169 181.012 199.03 181.096C199.724 181.064 200.394 180.828 200.954 180.417C201.514 180.006 201.941 179.439 202.18 178.786C204.133 173.242 209.929 148.084 209.005 142.603L208.984 142.582ZM196.699 229.879C208.039 225.112 211.819 225.532 205.225 223.18C203.377 222.529 201.382 220.723 200.101 220.492C199.702 220.492 190.021 216.859 190 216.859C188.887 217.153 177.4 220.702 176.959 221.248C180.907 223.054 193.381 227.905 193.423 227.905C196.594 229.165 195.859 230.257 196.72 229.9L196.699 229.879ZM184.645 95.6892C170.365 81.8922 122.779 73.7652 96.6762 91.6782C91.1952 95.4372 83.5932 103.459 82.6062 107.764C82.4802 108.352 82.9002 107.974 88.1502 108.94C102.409 111.586 101.17 116.416 100.75 122.632C100.561 125.593 97.5582 164.842 90.0822 168.244C85.8822 170.134 72.7992 169.357 72.5892 169.441C71.2032 169.966 70.8252 175.615 70.8462 176.56C70.8462 182.272 72.9462 179.227 75.8442 179.437C114.39 182.325 152.637 188.337 190.21 197.413C193.213 197.896 192.919 200.374 194.158 196.573C194.922 194.252 195.491 191.87 195.859 189.454C196.006 181.558 200.059 184.876 187.459 181.747C181.558 181.18 151.402 173.011 121.015 169.588C113.098 168.685 113.203 165.64 113.35 158.185C114.358 147.902 116.17 137.714 118.768 127.714C120.511 121.183 131.179 124.039 133.048 123.64C133.258 123.64 140.923 123.64 161.02 127.105C207.073 135.001 203.503 137.983 203.881 132.691C203.63 125.486 201.775 118.427 198.451 112.03C195.127 105.632 190.418 100.057 184.666 95.7102L184.645 95.6892ZM201.76 249.556C202.012 248.947 179.71 240.085 179.5 240.022C179.101 240.904 174.46 258.922 174.082 261.19C173.809 262.912 193.885 270.997 195.754 270.976C196.153 270.913 201.781 247.582 201.781 249.577L201.76 249.556ZM187.375 233.617C194.032 230.53 194.452 231.349 191.197 230.068C180.466 225.868 174.502 221.206 169.84 222.781C169.63 222.781 157.24 226.981 156.589 227.359C158.353 228.409 176.056 235.969 178.471 236.704C178.702 236.788 187.186 233.743 187.396 233.638L187.375 233.617ZM186.241 279.334C188.068 275.512 164.737 272.488 160.432 270.577C159.445 270.136 159.466 271.753 154.93 288.28C154.531 289.75 160.012 287.125 170.239 292.312C173.662 294.055 173.935 298.234 171.835 298.612C169.357 299.179 166.039 298.276 179.815 301.825C180.529 301.888 185.947 280.006 186.262 279.313L186.241 279.334ZM183.511 369.634C184.162 360.058 175.111 321.775 172.171 327.319C168.937 333.619 152.767 323.77 150.52 323.98C149.701 323.98 150.142 324.274 148.672 324.274C143.989 325.072 144.01 326.605 143.296 327.907C139.494 334.364 137.459 341.708 137.395 349.201C136.786 385.405 143.443 381.751 145.963 383.515C146.125 383.647 146.333 383.71 146.541 383.69C146.749 383.671 146.941 383.57 147.076 383.41C152.221 377.656 168.727 374.233 176.476 377.656C178.933 378.748 179.29 379.273 179.647 378.748C181.909 376.211 183.274 373.002 183.532 369.613L183.511 369.634ZM180.928 216.082C179.71 213.541 181.369 213.268 168.895 207.115C159.76 202.621 160.096 202.915 159.067 204.7C155.308 211.441 113.959 208.732 106.42 198.4C104.761 196.3 105.454 195.607 104.908 195.502C99.8472 194.494 84.4752 198.82 80.5692 201.046C95.1012 211.546 92.8752 232.546 93.7152 237.922C94.8912 245.398 94.8912 245.587 92.4342 246.322C89.9772 247.057 94.5342 257.851 95.6262 260.098C96.5082 261.757 97.2852 259.405 99.8262 260.098C103.732 261.043 104.761 256.759 118.18 251.194C144.388 240.274 155.854 274.861 157.051 270.661C157.282 269.905 160.558 258.607 159.655 258.229C147.055 252.832 146.089 252.202 146.53 249.514C151.507 219.967 151.885 226.855 165.43 221.773C166.816 221.269 170.659 219.799 172.066 220.24C173.473 220.681 173.326 219.505 174.46 219.043C179.689 216.754 181.495 217.3 180.949 216.124L180.928 216.082ZM180.088 392.377C180.613 388.933 181.117 382.927 177.988 381.415C172.14 379.199 165.746 378.862 159.697 380.449C146.719 385.468 149.008 387.148 147.601 387.064C146.551 387.064 146.908 391.012 149.113 392.692C163.666 403.969 179.101 398.845 180.109 392.419L180.088 392.377ZM177.82 310.477C180.298 300.628 180.823 306.172 162.07 299.431C161.314 299.431 161.398 299.662 161.566 300.376C162.427 304.324 161.251 304.87 168.958 308.251C169.357 308.419 175.993 311.359 177.064 312.031C177.673 312.535 177.841 310.204 177.841 310.603L177.82 310.477ZM176.833 239.665C177.211 238.405 177.232 238.636 154.552 229.165C153.88 228.871 153.544 229.165 153.166 230.824C148.966 250.27 147.769 249.724 150.898 251.068C152.704 251.824 169.798 259.699 171.289 259.804C171.919 259.993 176.854 237.901 176.854 239.791L176.833 239.665ZM175.153 319.465C175.615 317.995 174.166 318.73 173.62 318.709C169.444 318.295 165.321 317.458 161.314 316.21C161.608 317.281 169.357 320.83 171.373 322.93C171.554 323.086 171.765 323.204 171.994 323.276C172.222 323.347 172.462 323.372 172.7 323.347C172.938 323.323 173.169 323.25 173.377 323.133C173.586 323.016 173.769 322.858 173.914 322.668C174.11 322.415 174.233 322.114 174.271 321.796C174.538 321.082 174.838 320.381 175.174 319.696L175.153 319.465ZM175.153 315.265C176.875 313.333 166.648 310.456 163.75 308.461C160.852 306.466 161.23 307.789 160.831 308.713C159.445 311.947 159.172 312.073 159.823 312.43C161.629 313.648 173.116 317.68 175.069 315.496L175.153 315.265ZM169.672 294.706C167.572 292.249 161.104 291.577 157.933 291.346C152.368 291.829 155.14 291.346 158.731 295.546C158.868 295.76 159.075 295.919 159.317 295.996C159.558 296.073 159.819 296.062 160.054 295.966C162.574 295.189 172.696 298.78 169.609 294.937L169.672 294.706ZM167.068 323.497C166.585 323.224 166.123 322.93 165.661 322.615C156.337 317.47 157.261 316.168 156.4 317.218C152.2 321.775 152.41 320.599 155.791 322.51C155.707 324.862 177.127 329.356 166.984 323.728L167.068 323.497ZM110.368 186.178C109.339 185.926 108.898 191.407 108.709 193.129C108.52 194.851 107.386 195.796 110.326 197.749C121.204 204.994 145.396 205.939 147.958 205.351C159.424 202.684 156.715 205.351 157.765 195.082C157.723 195.754 161.713 192.961 110.326 186.409L110.368 186.178ZM155.854 312.01C158.899 306.676 160.81 301.762 155.854 296.743C140.104 283.093 132.082 297.625 131.326 307.243C133.531 324.631 147.265 327.235 155.812 312.241L155.854 312.01ZM152.956 286.096C155.056 278.263 153.586 283.408 151.192 287.125C149.785 289.225 149.869 288.574 151.78 288.784C152.662 289.12 152.977 286.096 152.914 286.327L152.956 286.096ZM154.174 272.551C153.292 269.464 143.464 256.864 136.933 253.651C128.092 249.199 118.033 253.189 110.494 259.531C106.651 262.744 106.693 262.051 109.003 263.017C122.065 268.393 141.595 275.008 136.114 285.634C135.589 286.684 135.631 286.516 138.865 288.553C139.684 289.078 141.196 287.566 146.005 288.28C148.021 288.742 153.817 275.764 154.132 272.782L154.174 272.551ZM141.217 325.051C141.217 324.526 141.007 324.421 139.726 324.148C138.445 323.875 138.928 323.77 137.332 323.182C136.282 322.804 137.92 326.059 138.34 328.663C138.76 331.267 141.238 325.177 141.175 325.387L141.217 325.051ZM136.114 290.128C136.408 289.75 133.615 287.419 131.914 289.183C125.614 295.483 123.178 305.143 125.614 305.983C129.121 307.201 127.714 306.592 129.373 301.069C130.867 297.132 133.122 293.529 136.009 290.464L136.114 290.128ZM130.465 276.184C125.152 272.236 107.869 264.718 101.968 262.891C94.2612 260.497 80.4012 279.922 83.8872 285.613C91.3212 297.793 108.058 307.684 114.925 309.07C127.231 311.548 115.135 298.948 132.712 284.983C132.523 285.907 136.891 281.413 130.423 276.52L130.465 276.184ZM133.258 321.544C135.358 319.78 130.675 319.192 128.617 310.582C128.491 309.742 128.113 309.868 124.564 308.797C122.632 308.209 124.123 309.868 120.532 311.632C113.98 314.866 102.745 305.878 98.7342 303.904C100.393 309.7 107.638 327.529 113.812 326.437C113.968 326.435 114.122 326.479 114.253 326.563C115.072 326.962 116.017 326.563 116.815 326.941C119.419 326.206 123.955 329.713 133.216 321.88L133.258 321.544ZM127.693 125.866C126.61 125.63 125.484 125.674 124.422 125.994C123.36 126.314 122.397 126.898 121.624 127.693C119.23 130.843 115.324 160.558 116.017 163.393C116.647 165.619 117.13 165.115 119.104 165.934C122.002 167.152 120.028 164.17 121.036 157.786C122.485 148.609 123.976 131.221 127.609 126.202L127.693 125.866ZM101.695 320.095C103.039 319.318 93.2952 299.536 88.2342 295.483C86.2602 296.827 85.9452 299.683 85.2312 300.733C84.2232 302.119 87.3312 301.573 97.6002 319.318C99.5532 323.098 98.6292 323.035 101.653 320.431L101.695 320.095ZM101.905 340.297C102.43 328.432 86.5752 305.647 80.1492 301.468C70.9302 295.483 59.1492 348.109 57.6162 359.827C56.2722 370.495 59.9892 374.338 60.8502 373.582C63.9582 371.482 71.2242 371.188 75.1092 371.272C85.2942 371.545 92.1822 379.441 93.3372 378.559C104.614 371.461 102.073 340.633 101.863 340.633L101.905 340.297ZM81.9762 110.2C71.1822 109.024 72.2532 114.4 72.4632 114.4C72.9462 114.547 73.4502 114.631 73.9542 114.652C75.2904 114.548 76.6346 114.64 77.9442 114.925C85.8822 115.324 86.5752 118.852 85.8822 126.706C85.0517 135.681 83.7408 144.605 81.9552 153.439C80.8632 165.388 66.9192 158.269 67.1292 160.558C67.7382 167.425 69.8172 165.703 81.4092 166.48C92.5392 167.236 92.9382 157.513 96.1092 137.584C99.4902 116.689 101.065 112.594 81.9342 110.536L81.9762 110.2ZM89.2422 251.173C88.6752 249.199 88.7172 248.254 87.5412 248.044C82.7742 247.183 68.3262 248.044 68.2842 250.144C69.3823 256.082 71.0129 261.908 73.1562 267.553C74.8754 271.777 77.6262 275.503 81.1572 278.389C82.1442 279.166 83.2572 272.089 92.2032 263.689C95.1222 261.316 92.6022 263.5 89.2002 251.509L89.2422 251.173ZM92.4552 383.263C92.4552 382.024 79.2042 369.844 61.5852 376.27C60.7681 376.686 60.0857 377.325 59.6174 378.113C59.149 378.901 58.9138 379.806 58.9392 380.722C58.6032 387.883 59.3172 388.324 62.2572 391.222C69.0612 397.501 88.0872 394.813 92.4132 383.599L92.4552 383.263ZM88.0662 242.458C88.5072 242.311 91.3842 243.508 91.1532 241.492C86.1972 199.618 58.8972 190.462 63.4542 241.051C64.3362 251.74 64.0842 242.794 88.0242 242.794L88.0662 242.458ZM74.2692 203.587C73.3242 204.343 81.4302 202.894 86.9952 216.628C90.9852 226.519 89.9772 224.713 90.1242 224.041C92.5602 224.377 82.8792 196.972 74.2272 203.923L74.2692 203.587ZM82.6692 119.587C82.1862 117.487 79.9602 117.718 73.3242 117.046C70.0482 117.046 69.4602 118.306 69.1242 121.414C69.1242 121.624 63.0132 156.463 66.7092 157.114C69.5232 157.664 72.3918 157.883 75.2562 157.765C81.4092 158.626 83.5092 123.283 82.6692 120.007V119.587Z" fill="black"/>
<path d="M262.635 49.5375C264.546 56.2365 254.382 63.3555 248.565 58.2735C247.382 57.4535 246.436 56.337 245.82 55.036C245.205 53.735 244.942 52.2951 245.058 50.8605C244.995 40.7595 259.401 38.1555 262.635 49.5375ZM246.717 52.5195C246.717 56.9505 253.899 60.6885 258.435 56.5515C269.586 46.4505 246.318 35.5515 246.717 52.5195Z" fill="black"/>
<path d="M190.421 151.849C187.418 151.849 189.392 144.877 178.976 148.783C174.461 150.463 173.453 148.594 174.041 147.565C174.902 146.095 176.141 146.41 177.359 145.864C190.82 139.06 194.264 150.358 190.421 151.849Z" fill="black"/>
<path d="M180.425 160.499C180.908 161.423 180.278 166.799 178.997 167.828C178.891 167.894 178.799 167.98 178.724 168.08C178.199 169.34 174.923 168.899 174.671 166.673C174.465 164.359 175.099 162.048 176.456 160.163C175.49 159.743 179.396 158.567 180.425 160.499Z" fill="black"/>
<path d="M166.483 138.968C166.672 139.514 167.554 140.039 167.26 141.551C166.966 143.063 165.16 142.769 164.404 141.782C159.595 136.784 151.552 140.312 150.481 144.155C150.187 145.268 148.045 145.667 148.087 143.42C147.919 142.748 148.843 141.173 148.99 140.795C151.006 134.789 164.446 132.983 166.483 138.968Z" fill="black"/>
<path d="M158.097 162.235C157.656 165.238 150.873 165.658 153.183 158.476C154.065 155.767 154.296 155.2 155.64 155.053C161.037 154.444 158.286 160.849 158.097 162.235Z" fill="black"/>
</svg>
