<svg width="216" height="174" viewBox="0 0 216 174" fill="none" xmlns="http://www.w3.org/2000/svg">
<g clip-path="url(#clip0_1193_4742)">
<path d="M96.3013 64.28L95.2505 109.082L157.227 112.047L157.643 65.0101L96.3013 64.28Z" fill="white"/>
<path d="M106.97 146.462C107.885 146.159 108.725 145.664 109.433 145.01C110.12 144.177 110.522 143.145 110.579 142.066L111.482 142.096C113.035 141.797 114.551 141.326 116 140.692L116.203 141.108L144.578 146.508L118.447 160.025L92.0487 150.028L91.9937 149.66C95.211 149.181 98.3959 148.491 101.463 147.793C103.329 147.488 105.17 147.043 106.97 146.462Z" fill="#7ED6ED"/>
<path d="M186.383 189.868C184.207 181.235 182.029 172.603 179.849 163.972C182.678 163.388 185.468 162.628 188.202 161.697L188.783 161.76C188.783 161.76 190.21 184.078 190.572 189.813C190.582 189.979 190.557 190.146 190.498 190.302C190.439 190.458 190.347 190.6 190.229 190.718C190.111 190.836 189.97 190.927 189.814 190.986C189.658 191.045 189.491 191.071 189.325 191.06C188.807 191.029 188.211 190.996 187.716 190.966C187.406 190.949 187.11 190.833 186.87 190.636C186.63 190.438 186.459 190.169 186.383 189.868Z" fill="#FFA698"/>
<path d="M179.793 45.8866C179.728 50.4291 180.397 61.1762 180.397 61.1762C180.397 61.1762 206.943 96.5764 210.159 100.91C210.361 101.18 210.475 101.506 210.483 101.844C210.505 102.745 210.564 104.652 210.601 106.002C210.614 106.464 210.513 106.922 210.305 107.335C210.098 107.749 209.791 108.104 209.413 108.37C198.406 116.046 187.395 123.716 176.379 131.379L176.559 142.189C176.516 144.769 172.577 145.274 172.157 142.819C172.136 142.689 171.178 134.376 171.036 133.168C170.992 132.799 171.05 132.424 171.204 132.085C171.357 131.747 171.6 131.456 171.907 131.245C177.769 127.235 206.918 107.186 206.918 107.186L206.848 101.553L178.036 61.6233L177.572 46.4914L178.341 45.4114C178.44 45.2727 178.581 45.1692 178.743 45.1161C178.905 45.0629 179.08 45.0629 179.242 45.1159C179.404 45.1689 179.544 45.2723 179.644 45.4109C179.743 45.5495 179.795 45.7162 179.793 45.8866Z" fill="white"/>
<path d="M167.336 198.005C165.9 192.134 159.829 166.971 159.829 166.971L159.805 166.602C163.445 166.386 166.591 166.124 168.992 165.846C168.992 165.846 171.908 191.691 172.529 197.598C172.547 197.756 172.533 197.915 172.488 198.066C172.443 198.218 172.368 198.359 172.267 198.48C172.166 198.602 172.041 198.702 171.901 198.774C171.76 198.847 171.606 198.89 171.449 198.901C170.672 198.967 169.661 199.062 168.876 199.129C168.528 199.155 168.181 199.057 167.899 198.851C167.616 198.645 167.417 198.345 167.336 198.005Z" fill="#FFA698"/>
<path d="M169.669 142.031C169.982 141.963 171.023 141.787 172.014 141.686C172.054 142.055 172.094 142.399 172.132 142.714C172.168 143.001 172.266 143.277 172.421 143.522C172.576 143.768 172.783 143.975 173.027 144.131C173.271 144.287 173.547 144.387 173.834 144.424C174.122 144.461 174.414 144.434 174.69 144.346C175.203 144.26 175.671 143.997 176.011 143.602C176.35 143.208 176.541 142.706 176.549 142.186L176.918 142.202C179.256 142.31 184.302 143.81 184.402 146.273C184.439 147.191 183.646 147.785 183.43 148.61C183.19 149.506 183.414 150.375 182.56 151.011C181.39 151.881 179.593 151.925 178.205 152.007C175.074 152.212 171.932 152.167 168.809 151.874C167.392 151.873 165.997 151.525 164.745 150.862C164.131 150.417 164.258 149.458 164.07 148.81C163.519 146.897 162.681 145.669 164.674 144.174C166.18 143.135 167.878 142.407 169.669 142.031Z" fill="#FAD353"/>
<path d="M164.74 152.801L137.455 160.27L129.555 155.029L129.25 154.433L144.578 146.502L124.849 142.752L124.888 142.525L142.217 139.418L164.74 152.801Z" fill="#7ED6ED"/>
<path d="M162.7 65.1861C162.376 76.7421 161.577 103.719 161.209 116.538L91.0923 112.866C91.2888 100.361 91.6701 75.3283 91.8375 65.1299C91.8573 63.9329 92.3428 62.7906 93.1908 61.9456C94.0389 61.1006 95.1829 60.6192 96.38 60.6036C108.829 60.4395 143.864 59.9729 157.412 59.8109C158.116 59.8026 158.814 59.9367 159.466 60.205C160.117 60.4733 160.707 60.8703 161.2 61.3723C161.694 61.8743 162.082 62.4709 162.339 63.1262C162.597 63.7816 162.719 64.4822 162.7 65.1861ZM157.644 65.0133L96.3 64.2832L95.2568 109.085L157.649 112.176L157.644 65.0133Z" fill="#E2F9FE"/>
<path d="M180.271 30.5098C179.017 30.5364 177.766 30.657 176.529 30.8705C176.459 30.8792 175.32 31.1373 175.305 31.1222C173.867 28.5938 172.071 26.2871 169.971 24.2739C165.508 20.0835 158.596 20.5479 152.971 21.6452C145.026 23.2122 141.606 25.8356 141.823 34.1192C141.868 40.1337 143.393 46.0448 146.264 51.33C147.074 52.7178 148.181 53.9094 149.505 54.8197C150.829 55.7301 152.338 56.3367 153.923 56.5961C160.528 57.8727 168.856 54.6284 173.517 50.6162C175.392 48.9962 175.392 46.2962 177.173 44.7485C180.295 42.0258 186.115 44.4429 186.687 39.0245C187.164 34.5112 185.3 30.4007 180.271 30.5098Z" fill="#FAD353"/>
<path d="M147.646 35.7908C147.914 35.5634 148.216 35.378 148.54 35.241L148.963 35.1395C149.703 38.2931 150.157 41.5068 150.321 44.7418L150.07 44.7569C147.154 44.4329 146.43 40.2544 146.744 37.9162C146.798 37.1268 147.116 36.3785 147.646 35.7908Z" fill="white"/>
<path d="M144.95 78.2091C144.868 77.7126 144.87 77.2057 144.958 76.71C145.269 74.9 146.322 73.8394 147.467 72.552C147.756 72.228 147.374 71.4774 147.359 71.093C147.312 69.905 148.007 68.4534 149.361 68.4502C149.774 68.4513 150.18 68.5664 150.532 68.7827C150.884 68.9991 151.17 69.3085 151.358 69.6768C151.546 70.0451 151.629 70.4581 151.598 70.8705C151.567 71.2828 151.422 71.6786 151.181 72.0142C151.084 72.1622 150.577 72.5952 150.608 72.7702C150.623 72.903 151.053 73.0942 151.148 73.1774C151.894 73.8549 152.464 74.704 152.809 75.6513C153.153 76.5986 153.261 77.6155 153.125 78.6141L153.101 79.0536L144.927 78.6216L144.95 78.2091Z" fill="#7ED6ED"/>
<path d="M144.405 100.328L144.413 100.202C144.114 100.116 144.529 98.9063 144.578 98.7746C144.959 97.7545 145.597 96.8496 146.429 96.1469C146.715 95.8996 147.11 95.73 147.363 95.4644C147.535 95.2829 147.088 94.3844 147.065 94.1381C147.018 93.8434 147.035 93.5421 147.114 93.2543C147.193 92.9665 147.332 92.6989 147.523 92.4695C147.714 92.24 147.952 92.054 148.22 91.9238C148.489 91.7936 148.782 91.7223 149.08 91.7146C150.833 91.9436 151.917 93.961 150.808 95.2916C150.691 95.4482 150.168 95.7387 150.181 95.9396C150.211 96.4169 150.829 97.0919 151.005 97.5477C151.402 98.5474 151.586 99.6189 151.545 100.694C147.109 100.469 148.755 100.554 144.405 100.328Z" fill="#7ED6ED"/>
<path d="M144.1 88.9772C143.959 88.8983 144.093 88.4901 144.108 88.3962C144.497 87.0517 145.227 85.8304 146.226 84.8505C146.456 84.6172 146.853 84.411 147.019 84.1366C147.184 83.8623 146.998 83.2726 147.057 82.9594C147.126 82.3789 147.404 81.8432 147.838 81.4522C148.273 81.0612 148.835 80.8414 149.419 80.834C150.873 81.1223 151.16 82.8633 150.651 84.0891C150.579 84.2619 150.207 84.6939 150.227 84.8743C150.24 84.992 150.572 85.1562 150.651 85.2188C150.975 85.4791 151.254 85.792 151.475 86.1444C151.986 87.1639 152.336 88.2571 152.51 89.3844C152.51 89.4924 153.158 89.4729 144.1 88.9999V88.9772Z" fill="#7ED6ED"/>
<path d="M151.363 111.87L143 111.454C143.099 110.165 143.474 108.913 144.099 107.782C144.97 106.521 145.433 106.687 145.589 106.417C145.68 106.079 145.722 105.73 145.715 105.381C146.107 103.262 146.973 102.525 147.919 102.525C148.343 102.538 148.756 102.663 149.116 102.886C149.476 103.11 149.77 103.426 149.968 103.801C150.167 104.175 150.263 104.596 150.246 105.019C150.229 105.443 150.1 105.855 149.873 106.213C149.77 106.369 149.225 106.785 149.225 106.969C149.233 107.118 149.452 107.268 149.549 107.369C150.698 108.588 151.345 110.195 151.363 111.87Z" fill="#7ED6ED"/>
<path d="M91.0904 112.865C91.0666 114.293 91.0428 115.556 91.0277 116.614C91.0139 117.59 91.3746 118.534 92.0358 119.252C92.697 119.97 93.6082 120.407 94.582 120.474C101.642 120.961 116.711 122.012 117.888 122.094C119.375 120.268 120.988 118.549 122.715 116.949C123.795 116.085 125.686 116.204 120.824 122.046L121.013 122.203L122.407 122.25C123.605 124.027 124.56 125.955 125.246 127.985C125.496 128.58 125.529 129.243 125.34 129.86C124.659 131.091 122.462 131.444 121.309 132.064C120.893 132.28 120.328 132.668 120.47 133.029C120.544 133.182 120.673 133.302 120.83 133.367C122.558 134.261 133.986 135.516 137.963 133.583C139.043 133.064 141.311 131.276 141.493 130.367C141.426 129.712 141.257 129.071 140.992 128.468C140.301 126.523 139.474 124.628 138.517 122.799C145.013 123.015 143.427 122.991 158 123.455C158.394 123.467 158.787 123.401 159.156 123.26C159.525 123.12 159.863 122.909 160.15 122.638C160.437 122.367 160.667 122.042 160.829 121.682C160.99 121.322 161.079 120.933 161.089 120.539C161.121 119.449 161.16 118.1 161.207 116.543C160.853 116.525 166.621 116.823 91.0904 112.865Z" fill="#FAD353"/>
<path d="M122.762 27.9825C122.939 28.0884 123.089 28.2344 123.199 28.4088C123.309 28.5831 123.377 28.781 123.397 28.9864C123.417 29.1917 123.388 29.3989 123.313 29.5911C123.238 29.7832 123.119 29.9551 122.965 30.0928C120.25 32.5163 114.169 37.8785 112.619 39.2728C112.514 39.3679 112.381 39.4251 112.24 39.435C112.099 39.445 111.959 39.4073 111.842 39.3279C111.448 39.0557 110.854 38.6529 110.422 38.3559C110.357 38.3099 110.302 38.2506 110.262 38.1819C110.221 38.1132 110.195 38.0367 110.187 37.9574C110.178 37.8781 110.186 37.7979 110.21 37.7219C110.235 37.646 110.275 37.576 110.328 37.5167C111.929 35.8147 117.401 29.9751 119.6 27.6326C119.862 27.3528 120.212 27.1713 120.592 27.1184C120.972 27.0656 121.359 27.1445 121.688 27.3421C122.024 27.5429 122.401 27.7697 122.762 27.9825Z" fill="#FFA698"/>
<path d="M123.939 117.812C123.071 119.339 122.026 120.759 120.825 122.041C119.577 123.516 119.786 123.201 117.27 126.498C115.934 128.248 115.234 129.09 113.129 127.878L113.043 127.77C113.462 127.543 119.944 119.29 122.561 117.072C123.974 115.874 124.263 117.081 123.939 117.812Z" fill="white"/>
<path d="M187.952 139.84C184.255 137.938 180.418 136.321 176.475 135.001H176.436L176.554 142.186L176.922 142.202C179.26 142.31 184.313 143.81 184.407 146.274C184.445 147.191 183.651 147.779 183.435 148.611C183.192 149.505 183.418 150.376 182.564 151.012C181.394 151.882 179.598 151.937 178.21 152.007C175.079 152.218 171.937 152.174 168.814 151.875C163.472 151.317 164.542 150.423 164.074 148.807C163.526 146.894 162.694 145.675 164.678 144.171C166.862 142.705 169.397 141.847 172.022 141.687C171.717 139.067 171.286 135.404 171.058 133.396L170.783 133.427C161.491 130.874 151.972 129.234 142.361 128.531C140.993 128.405 141.105 128.423 140.997 128.461C141.262 129.064 141.431 129.705 141.498 130.36C141.318 131.269 139.043 133.06 137.969 133.576C133.991 135.514 122.561 134.259 120.836 133.36C120.327 133.153 120.188 132.654 121.314 132.058C122.467 131.438 124.662 131.086 125.346 129.853C125.535 129.237 125.501 128.573 125.252 127.979C125.144 128.034 121.526 127.934 119.251 128.205L118.819 128.363C119.013 128.631 119.15 128.935 119.223 129.257C119.296 129.579 119.302 129.913 119.243 130.238C119.062 131.155 118.309 132.041 118.411 132.998C118.519 134.163 119.497 134.989 119.439 136.293C119.345 138.483 117.846 139.815 116.003 140.687L116.206 141.103L124.846 142.75L124.885 142.523L142.214 139.416L164.74 152.8L137.456 160.268L129.556 155.028L129.25 154.432L118.45 160.018L92.0493 150.026L91.9942 149.657C81.7061 151.317 75.4227 149.307 66.7028 148.615L66.6715 148.945C66.8054 149.039 66.6877 149.784 66.6801 149.901C66.3588 152.505 65.6637 155.049 64.6162 157.455L64.7415 157.501C77.4185 160.074 96.082 161.722 108.956 162.506C128.396 163.694 147.92 164.256 167.32 162.193C175.228 161.353 183.465 160.357 191.019 157.744C194.119 156.664 197.997 155.162 198.911 152.02C200.512 146.495 191.718 141.804 187.952 139.84Z" fill="white"/>
<path d="M116 140.693C114.555 141.338 113.039 141.809 111.482 142.097L110.58 142.067C111.019 138.758 110.855 134.488 107.904 132.995L107.976 132.86C107.175 131.801 108.1 130.446 108.745 129.691C109.279 129.075 110.028 128.686 110.839 128.6C111.63 128.512 112.388 128.23 113.043 127.777L113.129 127.885C114.918 128.913 115.711 128.435 116.66 127.289L117.163 127.352C117.491 127.402 117.806 127.517 118.089 127.691C118.372 127.865 118.617 128.093 118.811 128.363C119.004 128.632 119.142 128.938 119.215 129.262C119.289 129.585 119.298 129.92 119.24 130.247C119.065 131.165 118.313 132.051 118.408 133.008C118.524 134.165 119.495 134.996 119.437 136.303C119.34 138.489 117.853 139.849 116 140.693Z" fill="#FCE0D1"/>
<path d="M103.307 35.9866C103.25 35.9299 103.206 35.8611 103.178 35.7852C103.151 35.7094 103.141 35.6284 103.149 35.5481C103.365 33.2186 104.089 25.2482 104.374 22.0546C104.409 21.6727 104.573 21.3142 104.84 21.0388C105.107 20.7633 105.46 20.5874 105.841 20.5404C106.234 20.4897 106.672 20.4324 107.088 20.3838C107.292 20.3589 107.5 20.3823 107.693 20.4521C107.887 20.522 108.061 20.6364 108.202 20.786C108.344 20.9357 108.448 21.1164 108.506 21.3137C108.565 21.511 108.576 21.7193 108.54 21.9218C107.883 25.4987 106.415 33.4691 106.036 35.5298C106.01 35.6693 105.938 35.7961 105.832 35.8899C105.725 35.9837 105.59 36.0391 105.449 36.0471C103.681 36.1508 103.557 36.235 103.307 35.9866Z" fill="#FFA698"/>
<path d="M99.385 139.698C98.6636 139.369 96.941 138.773 97.6279 137.754C99.0859 135.586 99.9034 136.586 103.028 138.329C104.84 139.34 107.939 140.813 108.919 142.699C109.237 143.431 109.413 144.216 109.438 145.014C108.727 145.665 107.888 146.159 106.974 146.466C106.965 145.759 106.798 145.063 106.486 144.429C106.174 143.795 105.724 143.238 105.17 142.8C103.332 141.605 101.397 140.567 99.385 139.698Z" fill="#E2F9FE"/>
<path d="M88.7221 132.496C88.5731 132.528 88.37 132.747 88.2523 132.763C87.5492 130.696 85.4573 130.088 83.3491 129.617C92.4685 128.596 101.649 128.228 110.821 128.518L110.838 128.595C110.028 128.683 109.28 129.072 108.744 129.686C108.096 130.442 107.175 131.796 107.975 132.855L107.904 132.99C103.467 130.884 98.2596 133.937 93.3121 133.163C90.3702 132.7 89.6401 132.374 88.7221 132.496Z" fill="white"/>
<path d="M85.6445 134.685C86.3821 134.402 87.9902 133.532 88.2721 134.732C88.8693 137.274 87.5755 137.199 84.1778 138.296C82.2014 138.933 79.0154 140.203 76.9602 139.63C75.1091 139.112 74.1522 137.106 72.0419 137.362C70.6141 137.536 69.2079 138.811 68.088 139.691C67.1613 140.419 65.1936 142.398 64.1892 139.346C63.9537 139.409 65.132 138.163 65.3189 137.997C65.7509 137.617 66.1969 137.261 66.6365 136.898C67.8914 135.813 69.321 134.949 70.8647 134.341C74.4287 133.033 75.9407 137.615 79.4399 136.812C81.5722 136.306 83.6502 135.594 85.6445 134.685Z" fill="#E2F9FE"/>
<path d="M85.7808 164.767L83.0344 178.654C80.7599 178.215 75.9193 177.304 75.7778 177.281L78.4065 163.803C80.8463 164.171 83.3173 164.485 85.7808 164.767Z" fill="#FFA698"/>
<path d="M78.4087 163.799L75.78 177.278C74.089 177.001 72.4412 176.505 70.8779 175.804C70.5776 175.667 70.218 175.466 69.7979 175.254C69.7979 175.254 70.8141 162.977 70.9038 162.528C73.3705 163.014 75.8815 163.43 78.4087 163.799Z" fill="#FFA698"/>
<path d="M71.6217 29.6587L66.0965 22.3859C66.7445 21.4053 75.6005 18.7539 75.6005 18.7539C75.6005 18.7539 91.484 32.2463 90.9505 32.3727C85.8605 33.5791 73.2137 43.919 72.5073 43.7548C67.7715 42.6576 49.8835 47.6698 49.8835 47.6698L37.6061 30.1285C37.4657 29.9254 39.1278 28.8325 39.2541 28.7558C41.1459 27.6192 43.222 26.8227 45.3885 26.4025C48.1946 25.8459 51.0573 25.6284 53.9151 25.7545C55.1976 25.8829 56.4879 25.9143 57.7751 25.8484C59.2341 25.6324 61.109 23.9811 62.5368 23.4865L62.8035 23.2823C65.8556 27.3075 69.0956 31.5746 69.0956 31.5746L72.7201 33.8102L71.6217 29.6587Z" fill="#8DE3A7"/>
<path d="M71.6215 29.6589L60.7783 15.3791C60.6838 15.2543 60.5655 15.1494 60.4303 15.0704C60.2951 14.9915 60.1456 14.94 59.9904 14.919C59.8353 14.8981 59.6775 14.908 59.5261 14.9482C59.3748 14.9884 59.2329 15.0581 59.1087 15.1534C58.9445 15.2787 58.7717 15.4039 58.5989 15.5303C58.3152 15.7478 58.1295 16.0691 58.0825 16.4234C58.0355 16.7778 58.1311 17.1364 58.3483 17.4203C59.3128 18.699 69.0954 31.5802 69.0954 31.5802L72.7199 33.8158L71.6215 29.6589Z" fill="white"/>
<path d="M63.2432 160.797C63.7065 159.683 64.1763 158.576 64.6158 157.454L64.7411 157.501C77.4192 160.073 96.0816 161.721 108.955 162.506C128.395 163.694 147.919 164.253 167.32 162.192C175.227 161.352 183.466 160.356 191.019 157.744C193.395 156.921 196.714 155.705 198.255 153.414L198.579 153.437C197.251 161.362 179.332 164.198 171.35 165.51C161.502 167.13 126.38 168.21 108.475 166.789C96.1745 165.817 83.0946 164.902 70.8906 162.529C69.6173 162.28 64.0985 161.139 63.2432 160.797Z" fill="white"/>
<path d="M59.6756 177.57C58.7348 178.165 57.7515 178.689 56.7337 179.139L55.996 177.546C55.7404 177.149 55.4072 176.807 55.0165 176.542C53.1796 175.353 51.2482 174.316 49.2417 173.443C48.5203 173.119 46.7955 172.518 47.4846 171.491C48.9372 169.331 49.7612 170.32 52.8846 172.063C54.6126 173.026 57.5048 174.409 58.6194 176.174L59.6756 177.57Z" fill="#E2F9FE"/>
<path d="M52.1257 94.4607C53.0847 88.0444 59.9773 84.9221 58.4329 78.2607C57.9004 75.9516 56.8564 73.7916 55.3779 71.9397C53.8993 70.0879 52.024 68.5916 49.8901 67.5611C48.2301 66.8527 41.708 65.8007 42.5245 64.4853C43.0958 63.5641 44.4987 63.4323 45.5831 63.536C47.8753 63.7004 50.1101 64.3299 52.1513 65.386C54.1924 66.4422 55.9971 67.9028 57.4555 69.679C59.9935 72.9449 60.432 76.848 62.0919 80.4887C63.3253 83.1941 65.6829 84.0149 66.7597 87.7539C67.3922 90.1873 67.1477 92.7656 66.069 95.0367C64.9903 97.3078 63.1464 99.1265 60.8607 100.174C55.7502 102.681 51.2995 100.002 52.1257 94.4607Z" fill="#8DE3A7"/>
<path d="M70.6016 90.8088C70.1654 89.9065 69.9889 88.9005 70.0918 87.9036C69.9342 87.6671 70.0789 87.788 69.7549 87.8798C68.8049 87.9711 67.8464 87.9128 66.9145 87.707L66.7579 87.7545C67.3864 90.1879 67.1401 92.7647 66.0619 95.0348C64.9836 97.305 63.1421 99.1242 60.8589 100.175C57.0465 102.089 53.3745 101.022 52.3269 97.7348L51.9824 97.8525C51.9662 97.8525 51.7858 98.1765 51.7664 98.1895C49.8741 100.662 47.2993 102.527 44.3598 103.553L44.3047 104.111C45.855 104.274 47.3883 104.571 48.8871 104.999C50.6613 105.498 52.2926 106.409 53.6488 107.657C55.1965 109.082 55.2948 109.836 57.5239 111.061C57.9045 110.111 58.5114 109.268 59.2918 108.605C60.7671 107.773 62.7835 108.281 64.3754 107.507C67.0192 106.211 69.0118 103.256 70.2355 100.666C71.0063 99.1473 71.4383 97.4795 71.5015 95.7776C71.5647 94.0757 71.2577 92.3804 70.6016 90.8088Z" fill="#FCE0D1"/>
<path d="M57.4571 69.6817C55.0212 66.6574 51.586 64.6017 47.7695 63.8842L47.8246 63.6488C51.394 62.4802 58.3201 63.1704 61.6 66.3315C62.183 66.9792 62.8473 67.5488 63.5764 68.026C64.408 68.4656 65.6792 68.2906 66.6004 68.5833C72.5491 70.4809 76.9047 75.3582 76.7125 81.5509C76.6822 82.5164 76.4576 84.4399 75.4877 85.0069C74.9996 85.2942 74.9715 84.2617 74.9477 84.0262C74.8017 82.6919 74.4368 81.3907 73.8677 80.175C73.7889 80.0022 73.2824 78.7202 72.9497 78.9038C72.7251 79.028 72.7899 79.3056 72.3536 82.0358C72.1293 83.6269 71.6498 85.1713 70.9334 86.6096C70.6965 87.1542 70.2818 87.6023 69.7572 87.8808C68.8072 87.9726 67.8487 87.9143 66.9169 87.708L66.7603 87.7555C65.6738 83.9496 63.3734 83.2983 62.0925 80.4903C60.4304 76.8507 59.9919 72.9476 57.4571 69.6817Z" fill="#FAD353"/>
<path d="M47.4129 111.298C49.4411 113.287 48.1689 113.96 45.5693 116.93C44.0573 118.658 41.7569 121.664 39.4738 122.321C37.4218 122.912 35.3482 121.631 33.496 123.077C32.2335 124.066 31.6276 126.042 31.0725 127.505C30.6156 128.705 29.8845 131.655 27.165 129.435C26.9771 129.63 27.381 127.803 27.4631 127.552C27.651 126.955 27.8789 126.364 28.0906 125.779C28.6689 124.053 29.5306 122.436 30.6405 120.994C33.2789 117.737 37.3365 121.065 40.2114 118.303C41.9218 116.592 43.4881 114.742 44.8943 112.773C45.4106 112.086 46.4538 110.358 47.4129 111.298Z" fill="#E2F9FE"/>
<path d="M28.5056 115.479C27.5547 116.545 26.2776 117.267 24.8736 117.531C24.218 117.599 23.5563 117.487 22.9598 117.207C22.1552 116.826 21.8474 116.147 21.3279 116.099C20.9121 116.061 20.4413 116.523 20.1205 116.719C19.7437 117.014 19.2914 117.197 18.8155 117.247C18.3395 117.297 17.8591 117.212 17.4291 117.002C16.635 116.362 16.1204 115.44 15.9938 114.428C15.9625 114.31 15.8761 113.24 15.7271 113.228C15.5111 113.204 14.9592 114.1 14.8166 114.24C13.9364 115.104 12.3413 115.877 11.2235 114.962C10.0819 114.026 10.9826 112.287 11.5691 111.306C13.4655 108.138 15.0121 105.161 15.3577 101.392C15.7649 96.9752 15.1352 92.5364 15.2562 88.1084C15.3435 83.5644 16.792 79.1511 19.4142 75.4389C20.3862 74.1099 21.5771 72.9559 22.9361 72.0261C24.2648 71.0622 25.8767 70.5682 27.5174 70.6221C28.2399 70.6599 29.5413 71.6341 30.1775 71.2496C31.0798 70.5688 31.9389 69.8326 32.75 69.0453C34.6444 67.5635 36.8036 66.4559 39.1123 65.7816C40.1448 65.3549 41.2812 65.2458 42.3761 65.4684L42.6029 65.0439C43.5209 66.0959 48.4716 66.9491 49.8907 67.5549C52.0246 68.5854 53.8999 70.0817 55.3785 71.9336C56.857 73.7854 57.901 75.9454 58.4335 78.2545C59.9779 84.9159 53.0853 88.0393 52.1263 94.4545C51.9575 95.5494 52.0271 96.6679 52.3304 97.7334L51.9859 97.8511C51.9697 97.8511 51.7893 98.1751 51.7699 98.1881C49.8814 100.666 47.3039 102.532 44.36 103.552L44.3049 104.111C41.8033 103.818 39.2701 103.953 36.8141 104.511L36.7741 104.353C34.9102 104.003 33.2558 102.941 32.1614 101.392L32.0837 101.408C32.3686 102.981 32.4607 104.583 32.358 106.179C32.3593 106.239 32.3567 106.299 32.3504 106.359C32.1572 109.751 30.7991 112.972 28.5056 115.479Z" fill="#FAD353"/>
<path d="M38.9715 134.606C38.8149 134.426 40.4629 134.911 40.6897 134.998C41.2297 135.207 41.7427 135.451 42.2665 135.681C43.8015 136.311 45.2201 137.194 46.4634 138.293C49.2455 140.885 45.8435 144.296 48.1504 147.057C49.5854 148.71 51.1573 150.24 52.8495 151.629C53.4489 152.141 54.9457 153.191 54.0018 153.989C52.0135 155.673 51.493 154.485 48.9733 151.951C47.5067 150.476 44.9277 148.219 44.5097 146.119C44.136 144.238 45.4947 142.469 44.3056 140.706C43.501 139.518 41.7233 138.834 40.4381 138.243C39.3624 137.751 36.7121 136.882 38.9715 134.606Z" fill="#E2F9FE"/>
<path d="M32.7246 165.976C32.7592 166.549 32.7505 167.122 32.7559 167.695C32.8095 169.355 32.5843 171.012 32.0896 172.598C30.8746 176.19 26.3656 174.485 24.7931 177.728C23.8555 179.707 23.1098 181.772 22.5661 183.893C22.3221 184.649 21.9937 186.45 20.8867 185.917C18.5269 184.784 19.4039 183.831 20.6707 180.489C21.4084 178.552 22.4193 175.272 24.1537 174.033C25.7143 172.918 27.8841 173.424 29.0019 171.625C29.7654 170.395 29.6499 168.501 29.6607 167.074C29.6682 165.896 29.3701 163.128 32.3747 164.25C32.4762 164.032 32.7052 165.732 32.7246 165.976Z" fill="#E2F9FE"/>
<path d="M23.9961 147.745C24.5911 150.287 23.2995 150.207 19.9007 151.309C17.9254 151.948 14.7232 153.268 12.6841 152.643C12.0082 152.426 11.3835 152.073 10.8481 151.607C11.3503 150.851 11.8677 150.1 12.3601 149.348C13.1974 149.861 14.2003 150.033 15.1606 149.826C17.2885 149.296 19.3672 148.585 21.3738 147.701C22.0985 147.402 23.7131 146.538 23.9961 147.745Z" fill="#E2F9FE"/>
<path d="M84.1811 138.295C87.5798 137.202 88.8726 137.275 88.2754 134.731C87.9935 133.531 86.3854 134.401 85.6477 134.684C83.6534 135.593 81.5754 136.304 79.4431 136.81C75.9396 137.613 74.4362 133.03 70.8679 134.339C69.3243 134.946 67.8947 135.811 66.6397 136.896C66.2001 137.259 65.7487 137.614 65.3221 137.994C65.1353 138.161 63.957 139.407 64.1924 139.343C65.1968 142.395 67.1646 140.417 68.0912 139.689C69.2112 138.809 70.6173 137.529 72.0451 137.359C74.1554 137.102 75.1112 139.111 76.9634 139.627C79.0187 140.2 82.2047 138.93 84.1811 138.295ZM29.6594 167.075C29.6508 168.502 29.7674 170.396 29.0006 171.626C27.8828 173.425 25.7131 172.922 24.1525 174.034C22.418 175.273 21.4071 178.553 20.6695 180.49C19.3983 183.832 18.5214 184.785 20.8855 185.918C21.9925 186.451 22.3208 184.648 22.5649 183.895C23.1085 181.773 23.8543 179.708 24.7919 177.729C26.3622 174.489 30.8733 176.191 32.0883 172.599C32.583 171.013 32.8083 169.356 32.7547 167.696C32.7493 167.123 32.7547 166.55 32.7234 165.977C32.7093 165.734 32.4804 164.033 32.3778 164.249C29.3689 163.127 29.667 165.897 29.6594 167.075ZM97.6325 137.75C96.9456 138.772 98.6682 139.37 99.3896 139.694C101.401 140.562 103.335 141.599 105.171 142.793C105.725 143.231 106.175 143.788 106.487 144.422C106.799 145.056 106.966 145.752 106.976 146.458C105.172 147.026 103.332 147.471 101.468 147.79C95.385 149.175 89.2063 150.435 83.0082 150.292C77.5477 150.167 72.1434 149.045 66.7067 148.614L66.6753 148.944C66.8093 149.037 66.6926 149.783 66.684 149.9C66.2725 154.976 63.0865 160.308 61.5767 165.364C60.9578 167.435 62.688 167.891 63.3727 169.546C63.8576 170.715 63.0282 171.598 62.7927 172.678C62.5897 173.917 62.7463 174.25 62.3294 175C61.6562 176.05 60.7491 176.93 59.6791 177.571L58.6207 176.175C57.5061 174.41 54.6117 173.028 52.8859 172.064C49.7647 170.321 48.9407 169.326 47.4859 171.492C46.7969 172.519 48.5216 173.112 49.2431 173.444C51.2495 174.317 53.181 175.354 55.0178 176.543C55.4086 176.808 55.7417 177.15 55.9974 177.547L56.735 179.14C54.9465 179.948 53.0943 180.617 51.7368 181.252C41.4217 186.078 29.1486 191.033 17.5494 190.634C15.703 190.583 13.8762 190.242 12.1364 189.622C5.84111 187.331 4.58939 179.999 5.83679 173.336C6.57119 169.421 8.68799 165.868 9.31979 161.969C9.71399 159.537 8.06915 157.535 9.00659 155.074C9.48115 153.848 10.1 152.684 10.8501 151.605C13.4011 153.765 15.8516 152.618 19.9027 151.307C23.3015 150.207 24.5931 150.287 23.9981 147.743C23.7151 146.535 22.1005 147.396 21.378 147.696C19.3714 148.581 17.2927 149.292 15.1647 149.822C14.2045 150.028 13.2015 149.857 12.3643 149.343C14.7858 145.537 16.6357 141.395 17.855 137.052C19.3541 131.833 20.339 121.571 22.9623 117.211C23.5595 117.489 24.2207 117.601 24.8761 117.535C26.2802 117.271 27.5573 116.549 28.5081 115.483C30.8026 112.975 32.1607 109.753 32.3529 106.359C32.3593 106.299 32.3618 106.239 32.3605 106.179H32.4069C32.61 106.089 32.8045 105.98 32.988 105.855C34.5061 105.121 36.1194 104.603 37.781 104.316C41.488 103.701 45.2862 103.934 48.8899 104.998C50.6629 105.5 52.2933 106.411 53.6495 107.658C54.5528 108.689 55.5393 109.644 56.5989 110.514C60.1349 112.827 64.4603 113.196 67.8482 115.959C71.8874 119.255 74.0885 124.255 78.0154 127.641C80.9789 130.196 86.9394 128.899 88.2527 132.762C88.3704 132.746 88.5767 132.526 88.7225 132.495C89.647 132.375 90.3662 132.701 93.3125 133.161C98.2286 133.93 103.595 130.872 107.904 132.989C110.839 134.429 111.019 138.757 110.58 142.061C110.514 143.138 110.113 144.167 109.434 145.005C109.409 144.207 109.233 143.421 108.915 142.689C107.935 140.798 104.836 139.332 103.024 138.32C99.9005 136.581 99.0851 135.582 97.6325 137.75ZM54.0005 153.99C54.9444 153.192 53.4475 152.142 52.8481 151.631C51.1559 150.241 49.584 148.712 48.149 147.058C45.8421 144.297 49.2441 140.882 46.4621 138.295C45.2187 137.196 43.8002 136.313 42.2652 135.682C41.7414 135.452 41.223 135.208 40.6884 135C40.4616 134.912 38.8135 134.427 38.9701 134.608C36.7107 136.883 39.3621 137.755 40.4367 138.247C41.723 138.838 43.4996 139.517 44.3042 140.711C45.4922 142.473 44.1347 144.242 44.5083 146.124C44.9263 148.22 47.5053 150.478 48.972 151.956C51.4916 154.484 52.0133 155.674 54.0005 153.99ZM45.5678 116.93C48.1674 113.96 49.4396 113.287 47.4114 111.299C46.4523 110.359 45.4091 112.079 44.8928 112.774C43.4875 114.744 41.9212 116.594 40.2099 118.305C37.3371 121.067 33.2774 117.739 30.639 120.995C29.5291 122.438 28.6674 124.055 28.0891 125.781C27.8731 126.367 27.6495 126.957 27.4616 127.554C27.3828 127.805 26.9756 129.632 27.1635 129.437C29.8787 131.657 30.6195 128.706 31.071 127.507C31.6261 126.046 32.232 124.071 33.4945 123.079C35.3467 121.628 37.4181 122.909 39.4723 122.323C41.7565 121.665 44.0558 118.658 45.5678 116.93Z" fill="#FFA698"/>
<path d="M75.7788 177.28C78.1364 177.677 87.7063 179.502 92.387 180.678C95.3764 181.429 98.651 182.256 100.56 184.89C102.363 187.374 102.391 190.978 101.934 193.904C100.746 201.499 90.348 201.083 84.4479 201.572C80.9574 201.865 59.5917 202.784 49.3738 202.936V202.747C50.1579 200.324 49.5628 195.882 46.7926 194.918C43.4047 193.74 36.7821 195.41 33.5086 196.605C31.4685 197.348 32.677 200.379 33.784 202.638L33.7754 202.854C27.4704 202.647 23.996 202.525 19.7808 201.292L19.8121 201.198C17.1607 198.751 16.5386 194.98 12.7359 193.942C12.5016 193.878 9.3944 193.432 9.38792 193.456L9.0812 193.629C7.83416 191.317 7.24789 188.706 7.38668 186.083L7.53572 186.005C8.64936 187.667 10.2618 188.933 12.1408 189.621C13.8806 190.241 15.7075 190.582 17.5538 190.633C29.153 191.032 41.4218 186.077 51.7412 181.251C55.3192 179.577 60.1857 178.346 62.3317 174.999C62.5141 174.673 62.6246 174.311 62.6557 173.939L62.8522 173.971C65.2369 173.124 68.0071 174.36 69.802 175.256C70.2265 175.472 70.585 175.668 70.882 175.805C72.4431 176.508 74.0893 177.004 75.7788 177.28Z" fill="white"/>
<path d="M51.4844 43.562C52.0889 43.4424 52.6838 43.2785 53.2643 43.0717C54.4209 42.7779 55.6403 42.5673 56.8283 42.3157C60.3253 41.537 63.8945 41.1286 67.4771 41.0975C67.6203 41.0975 67.7576 41.0406 67.8589 40.9393C67.9602 40.838 68.0171 40.7007 68.0171 40.5575C68.0171 40.4142 67.9602 40.2769 67.8589 40.1756C67.7576 40.0743 67.6203 40.0175 67.4771 40.0175C63.8183 40.049 60.1731 40.4653 56.6015 41.2595C54.8328 41.5793 53.0828 41.995 51.3591 42.5047C51.2368 42.5407 51.1312 42.6189 51.061 42.7253C50.9907 42.8317 50.9604 42.9596 50.9754 43.0862C50.9904 43.2129 51.0498 43.3301 51.1429 43.4172C51.2361 43.5043 51.3571 43.5556 51.4844 43.562Z" fill="black"/>
<path d="M48.8676 39.582C48.9725 39.6185 49.0854 39.6259 49.1942 39.6032C49.303 39.5806 49.4036 39.5288 49.4853 39.4535C49.8223 39.2785 52.9413 38.691 53.7157 38.5646C56.8991 37.9825 60.1333 37.7252 63.3687 37.7967C63.5119 37.7983 63.6499 37.7429 63.7523 37.6428C63.8547 37.5426 63.9131 37.4059 63.9147 37.2627C63.9162 37.1195 63.8608 36.9815 63.7607 36.8791C63.6605 36.7767 63.5238 36.7183 63.3806 36.7167C58.9972 36.6415 54.6214 37.1132 50.3547 38.1207C49.8217 38.1865 49.3044 38.3455 48.8265 38.5905C48.7313 38.6362 48.6516 38.7088 48.5972 38.7993C48.5428 38.8898 48.5161 38.9943 48.5205 39.0998C48.5248 39.2053 48.5601 39.3072 48.6217 39.3929C48.6834 39.4786 48.7689 39.5443 48.8676 39.582Z" fill="black"/>
<path d="M48.1022 33.8989C47.4959 33.9455 46.8936 34.0347 46.2997 34.1657C46.1989 34.1542 46.0969 34.1697 46.0041 34.2107C45.9113 34.2517 45.8311 34.3167 45.7717 34.3989C45.7123 34.4812 45.6759 34.5778 45.6662 34.6788C45.6565 34.7797 45.6739 34.8815 45.7165 34.9735C45.899 35.3343 46.2338 35.2975 46.5978 35.2036C46.9618 35.1096 50.4858 34.6884 51.0528 34.6301C54.2743 34.2021 57.5238 34.0216 60.7728 34.0901C60.915 34.0892 61.0515 34.0338 61.1541 33.9354C61.2567 33.8369 61.3178 33.7029 61.3247 33.5609C61.3261 33.49 61.3136 33.4195 61.2877 33.3534C61.2619 33.2874 61.2233 33.227 61.1742 33.1759C61.125 33.1247 61.0663 33.0838 61.0013 33.0553C60.9363 33.0269 60.8664 33.0115 60.7955 33.0101C56.5471 32.9562 52.3016 33.2535 48.1022 33.8989Z" fill="black"/>
<path d="M43.7324 31.7312C48.4099 30.8037 53.1704 30.3597 57.9388 30.406C58.082 30.4083 58.2202 30.3536 58.3231 30.254C58.426 30.1543 58.4851 30.0179 58.4874 29.8747C58.4897 29.7314 58.435 29.5932 58.3353 29.4903C58.2357 29.3874 58.0993 29.3283 57.956 29.326C53.1445 29.2488 48.3388 29.6968 43.6244 30.662C43.4932 30.6886 43.3765 30.7631 43.2971 30.8709C43.2177 30.9787 43.1812 31.1122 43.1946 31.2454C43.2081 31.3787 43.2706 31.5022 43.37 31.5919C43.4693 31.6817 43.5985 31.7313 43.7324 31.7312Z" fill="black"/>
<path d="M72.7139 37.3748C72.666 37.4288 72.6295 37.492 72.6064 37.5604C72.5833 37.6288 72.5742 37.7012 72.5796 37.7732C72.585 37.8453 72.6048 37.9155 72.6379 37.9797C72.6709 38.0439 72.7164 38.1009 72.7718 38.1472C72.8273 38.1935 72.8914 38.2282 72.9605 38.2493C73.0296 38.2704 73.1022 38.2774 73.174 38.27C73.2458 38.2625 73.3154 38.2407 73.3787 38.2058C73.442 38.171 73.4976 38.1238 73.5423 38.0671C75.9971 35.1262 80.3322 32.7373 83.6651 30.8311C83.7894 30.7594 83.8802 30.6414 83.9175 30.5029C83.9547 30.3643 83.9355 30.2166 83.8638 30.0923C83.7922 29.968 83.6742 29.8772 83.5356 29.84C83.3971 29.8027 83.2494 29.822 83.1251 29.8936C79.6648 31.8754 75.2897 34.2881 72.7139 37.3748Z" fill="black"/>
<path d="M134.599 105.539L114.658 104.675C114.515 104.671 114.377 104.722 114.271 104.819C114.166 104.915 114.103 105.049 114.095 105.191C114.089 105.334 114.14 105.474 114.237 105.58C114.334 105.685 114.468 105.748 114.611 105.754L134.576 106.618C134.72 106.621 134.858 106.567 134.962 106.468C135.065 106.369 135.125 106.233 135.128 106.089C135.131 105.946 135.077 105.808 134.978 105.704C134.878 105.601 134.742 105.542 134.599 105.539Z" fill="black"/>
<path d="M111.865 104.38L99.2028 103.831C99.0603 103.827 98.9217 103.878 98.8167 103.975C98.7116 104.071 98.6482 104.205 98.6401 104.347C98.634 104.49 98.6849 104.63 98.7817 104.736C98.8786 104.841 99.0133 104.904 99.1564 104.91L111.842 105.459C111.913 105.46 111.983 105.448 112.05 105.422C112.116 105.396 112.176 105.358 112.227 105.308C112.278 105.259 112.319 105.201 112.348 105.136C112.376 105.071 112.392 105.001 112.393 104.93C112.395 104.859 112.382 104.789 112.357 104.722C112.331 104.656 112.292 104.596 112.243 104.545C112.194 104.494 112.135 104.453 112.071 104.424C112.006 104.396 111.936 104.381 111.865 104.38Z" fill="black"/>
<path d="M134.403 98.4806C134.546 98.4867 134.686 98.4358 134.792 98.3388C134.897 98.2419 134.96 98.107 134.966 97.9638C134.973 97.8206 134.922 97.6808 134.825 97.5752C134.728 97.4695 134.593 97.4067 134.45 97.4006L120.055 96.7817C119.985 96.7787 119.914 96.7896 119.847 96.814C119.78 96.8383 119.719 96.8755 119.667 96.9235C119.614 96.9715 119.572 97.0293 119.542 97.0936C119.512 97.158 119.495 97.2276 119.492 97.2985C119.489 97.3694 119.5 97.4403 119.524 97.5069C119.549 97.5736 119.586 97.6349 119.634 97.6872C119.731 97.7928 119.866 97.8556 120.009 97.8617L134.403 98.4806Z" fill="black"/>
<path d="M100.043 96.9128L117.755 97.6688C117.898 97.6719 118.037 97.6178 118.14 97.5187C118.243 97.4196 118.303 97.2834 118.306 97.1402C118.309 96.997 118.255 96.8584 118.156 96.755C118.057 96.6516 117.921 96.5919 117.778 96.5888L100.087 95.8328C100.016 95.8289 99.945 95.8393 99.878 95.8632C99.811 95.8872 99.7495 95.9243 99.697 95.9724C99.6446 96.0205 99.6023 96.0786 99.5727 96.1433C99.5431 96.208 99.5267 96.278 99.5245 96.3491C99.5213 96.4202 99.5322 96.4912 99.5565 96.5581C99.5809 96.625 99.6183 96.6864 99.6664 96.7388C99.7146 96.7912 99.7727 96.8335 99.8373 96.8634C99.9019 96.8933 99.9717 96.9101 100.043 96.9128Z" fill="black"/>
<path d="M134.74 101.218L99.7053 99.7056C99.5627 99.7014 99.4242 99.753 99.3191 99.8494C99.214 99.9458 99.1507 100.079 99.1426 100.222C99.1364 100.365 99.1874 100.505 99.2842 100.61C99.381 100.716 99.5158 100.778 99.6588 100.784L134.718 102.296C134.861 102.299 135 102.245 135.103 102.146C135.206 102.047 135.266 101.911 135.269 101.768C135.272 101.625 135.218 101.486 135.119 101.383C135.02 101.279 134.884 101.221 134.74 101.218Z" fill="black"/>
<path d="M135.391 67.9629H100.317C100.174 67.9629 100.037 68.0198 99.9355 68.1211C99.8342 68.2223 99.7773 68.3597 99.7773 68.5029V91.2401C99.7773 91.3833 99.8342 91.5207 99.9355 91.622C100.037 91.7232 100.174 91.7801 100.317 91.7801H135.391C135.535 91.7801 135.672 91.7232 135.773 91.622C135.875 91.5207 135.931 91.3833 135.931 91.2401V68.5029C135.931 68.3597 135.875 68.2223 135.773 68.1211C135.672 68.0198 135.535 67.9629 135.391 67.9629ZM134.851 73.918H129.729L129.683 69.0429H134.851V73.918ZM116.847 73.931H111.91L111.866 69.0429H116.802L116.847 73.931ZM117.882 69.0429H122.364V73.9256H117.927L117.882 69.0429ZM110.83 73.9342H106.002V69.0429H110.786L110.83 73.9342ZM106.012 75.0142H110.84L110.982 90.7012H106.014L106.012 75.0142ZM111.92 75.0142H116.856L116.999 90.7055H112.063L111.92 75.0142ZM117.936 75.0088H122.395V90.7001H118.075L117.936 75.0088ZM123.475 75.0088H128.659L128.808 90.7098H123.474L123.475 75.0088ZM123.466 73.9288L123.423 69.0494H128.607L128.653 73.9288H123.466ZM104.901 69.0429V73.9375H100.857V69.0429H104.901ZM100.857 75.0196H105V90.7001H100.857V75.0196ZM129.889 90.7001L129.74 74.9948H134.851V90.7001H129.889Z" fill="black"/>
<path d="M95.2226 109.625C162.085 112.973 157.701 112.811 157.957 112.567C158.073 112.469 158.146 112.329 158.16 112.177V65.0145C158.163 64.946 158.153 64.8776 158.13 64.8131C158.107 64.7486 158.071 64.6895 158.024 64.6391C157.978 64.5888 157.921 64.5483 157.859 64.52C157.797 64.4917 157.729 64.4762 157.661 64.4745L96.3004 63.7444C96.1593 63.7444 96.0237 63.7996 95.9227 63.8983C95.8218 63.997 95.7635 64.1314 95.7604 64.2725L94.7096 109.074C94.7066 109.215 94.7585 109.351 94.8543 109.454C94.9501 109.556 95.0822 109.618 95.2226 109.625ZM140.655 89.3641L157.071 90.2281V100.454C139.929 99.5539 140.444 99.5691 140.331 99.5896L140.655 89.3641ZM157.084 89.1481L140.688 88.2841L140.984 78.9529L157.084 79.7943V89.1481ZM139.977 110.767L140.301 100.646C140.409 100.674 139.479 100.613 157.056 101.536V111.613L139.977 110.767ZM157.103 78.7143L141.019 77.8708L141.415 65.3579L157.103 65.5447V78.7143ZM96.8286 64.8298L140.335 65.3482L138.899 110.708L95.8015 108.572L96.8286 64.8298Z" fill="black"/>
<path d="M72.7124 43.9371C72.8142 43.9367 72.9138 43.9074 72.9997 43.8528C73.0857 43.7981 73.1544 43.7203 73.198 43.6283C73.2415 43.5362 73.2582 43.4338 73.2461 43.3327C73.2339 43.2316 73.1934 43.136 73.1293 43.0569L59.9976 26.9649C59.9538 26.9069 59.8988 26.8583 59.8358 26.822C59.7728 26.7858 59.7032 26.7626 59.631 26.7539C59.5589 26.7452 59.4857 26.7511 59.4159 26.7714C59.3461 26.7916 59.2811 26.8258 59.2248 26.8717C59.1685 26.9177 59.1221 26.9745 59.0883 27.0389C59.0545 27.1032 59.0341 27.1737 59.0282 27.2462C59.0222 27.3186 59.031 27.3915 59.054 27.4604C59.0769 27.5294 59.1135 27.593 59.1616 27.6475L72.2934 43.7395C72.3442 43.8015 72.4081 43.8513 72.4806 43.8855C72.5531 43.9197 72.6323 43.9373 72.7124 43.9371Z" fill="black"/>
<path d="M68.7341 31.9779C68.8421 32.0751 68.963 32.1323 72.4363 34.2718C72.5282 34.3285 72.6349 34.3563 72.7428 34.3518C72.8507 34.3472 72.9547 34.3103 73.0414 34.2461C73.1281 34.1818 73.1936 34.093 73.2293 33.9911C73.2651 33.8892 73.2695 33.779 73.242 33.6746L72.594 31.2057C74.8222 29.5349 77.1917 28.0613 79.6755 26.8015C79.7419 26.7713 79.8014 26.728 79.8505 26.6743C79.8997 26.6205 79.9375 26.5573 79.9616 26.4886C79.9857 26.4198 79.9956 26.3469 79.9908 26.2742C79.986 26.2016 79.9665 26.1306 79.9336 26.0656C79.9006 26.0006 79.8548 25.943 79.799 25.8962C79.7432 25.8494 79.6785 25.8143 79.6088 25.7932C79.5391 25.772 79.4658 25.7652 79.3934 25.7731C79.321 25.781 79.2509 25.8035 79.1874 25.8392C76.7774 27.0602 74.4727 28.4787 72.297 30.0803C72.135 29.468 72.1415 29.4507 72.0659 29.3427L69.8324 26.3986C71.8902 25.1471 74.0979 24.1608 76.4031 23.4632C76.4726 23.4441 76.5376 23.4113 76.5942 23.3667C76.6508 23.3221 76.6979 23.2667 76.7327 23.2036C76.7676 23.1405 76.7894 23.0711 76.797 22.9995C76.8046 22.9278 76.7978 22.8554 76.777 22.7864C76.7562 22.7174 76.7217 22.6533 76.6758 22.5978C76.6298 22.5424 76.5731 22.4966 76.5092 22.4634C76.4453 22.4302 76.3753 22.41 76.3035 22.4042C76.2317 22.3984 76.1595 22.4071 76.091 22.4296C73.6635 23.1641 71.3404 24.2077 69.179 25.5346C69.179 25.5346 62.1903 16.3265 61.2183 15.05C60.9391 14.6851 60.5264 14.446 60.0709 14.3852C59.6155 14.3245 59.1545 14.447 58.7894 14.726C58.6274 14.8491 58.4589 14.9711 58.2786 15.1029C57.882 15.4075 57.6222 15.8567 57.5558 16.3523C57.4894 16.8479 57.6219 17.3496 57.9243 17.7478C57.9783 17.8234 68.6585 31.9099 68.7341 31.9779ZM70.0484 31.5297L71.3055 30.5728L71.852 32.6421L70.0484 31.5297ZM58.9158 15.9637C59.4288 15.5911 59.5476 15.4463 59.8295 15.4463C59.9305 15.4457 60.0303 15.4687 60.1209 15.5135C60.2115 15.5584 60.2903 15.6237 60.3511 15.7045C61.3231 16.981 70.866 29.5511 70.866 29.5511L69.1985 30.8191C69.1985 30.8191 59.7441 18.3699 58.7775 17.089C58.6482 16.9209 58.5902 16.7086 58.6161 16.498C58.6419 16.2875 58.7496 16.0955 58.9158 15.9637Z" fill="black"/>
<path d="M165.264 171.509C165.253 171.439 165.228 171.371 165.19 171.31C165.152 171.249 165.103 171.197 165.044 171.155C164.986 171.114 164.92 171.084 164.85 171.068C164.781 171.052 164.709 171.051 164.638 171.063C164.568 171.075 164.5 171.101 164.44 171.14C164.38 171.179 164.328 171.229 164.287 171.288C164.246 171.346 164.218 171.413 164.203 171.483C164.188 171.553 164.187 171.625 164.2 171.695L168.481 196.186C168.493 196.257 168.518 196.325 168.556 196.385C168.593 196.446 168.643 196.499 168.701 196.54C168.759 196.582 168.825 196.612 168.895 196.627C168.965 196.643 169.037 196.645 169.107 196.633C169.178 196.62 169.245 196.594 169.306 196.556C169.366 196.517 169.418 196.467 169.459 196.408C169.499 196.349 169.528 196.283 169.543 196.213C169.558 196.143 169.559 196.071 169.545 196.001L165.264 171.509Z" fill="black"/>
<path d="M186.227 166.933C186.22 166.862 186.198 166.793 186.163 166.73C186.128 166.667 186.082 166.612 186.025 166.568C185.969 166.523 185.904 166.49 185.835 166.471C185.766 166.452 185.694 166.446 185.623 166.455C185.552 166.464 185.483 166.487 185.421 166.523C185.359 166.559 185.304 166.607 185.261 166.664C185.217 166.721 185.186 166.786 185.168 166.855C185.15 166.925 185.146 166.997 185.156 167.068L187.87 188.634C187.89 188.774 187.965 188.9 188.077 188.986C188.19 189.072 188.331 189.11 188.472 189.092C188.612 189.075 188.74 189.003 188.828 188.891C188.916 188.78 188.957 188.639 188.941 188.499L186.227 166.933Z" fill="black"/>
<path d="M174.057 36.8822C174.356 39.2364 174.162 41.6272 173.486 43.9022C173.444 44.0391 173.458 44.1872 173.525 44.3139C173.592 44.4406 173.706 44.5355 173.843 44.5778C173.98 44.62 174.128 44.6061 174.255 44.5392C174.382 44.4723 174.477 44.3577 174.519 44.2208C175.489 40.7512 175.512 37.0851 174.587 33.6033C174.34 32.0568 172.973 33.0039 173.507 33.666C173.764 34.7241 173.948 35.7988 174.057 36.8822Z" fill="black"/>
<path d="M82.6785 129.618C82.6785 129.761 82.7354 129.898 82.8367 130C82.9379 130.101 83.0753 130.158 83.2185 130.158C91.6631 129.188 100.165 128.803 108.662 129.005C108.211 129.39 107.843 129.863 107.581 130.394C107.318 130.926 107.166 131.505 107.134 132.097C102.848 130.693 97.738 133.285 93.3986 132.622C91.2559 132.282 89.2255 131.726 88.5116 131.989C88.4074 131.791 88.2875 131.6 88.153 131.42C88.0671 131.306 87.9392 131.23 87.7974 131.21C87.6556 131.189 87.5116 131.226 87.397 131.312C87.2825 131.398 87.2067 131.526 87.1865 131.668C87.1662 131.81 87.2031 131.954 87.289 132.068C88.2027 133.293 88.0979 135.33 87.829 136.846C87.8158 136.917 87.8166 136.989 87.8315 137.059C87.8463 137.129 87.875 137.195 87.9157 137.254C87.9564 137.313 88.0084 137.363 88.0687 137.401C88.129 137.44 88.1963 137.466 88.2668 137.478C88.3372 137.491 88.4095 137.489 88.4792 137.473C88.549 137.457 88.6149 137.428 88.6732 137.386C88.7314 137.345 88.7808 137.292 88.8185 137.231C88.8562 137.17 88.8815 137.103 88.8928 137.032C89.152 135.705 89.152 134.341 88.8928 133.014C89.1535 132.994 89.4156 133.008 89.6726 133.056C94.0498 133.802 94.2604 134.219 99.628 133.284C102.328 132.815 105.229 132.312 107.654 133.467C110.379 134.851 110.438 138.982 110.03 142.029C109.973 142.993 109.614 143.915 109.004 144.663C108.913 144.775 108.871 144.917 108.886 145.06C108.901 145.202 108.972 145.333 109.083 145.423C109.194 145.513 109.337 145.556 109.479 145.541C109.622 145.526 109.752 145.455 109.843 145.344C110.517 144.518 110.944 143.517 111.074 142.459C111.124 142.514 111.186 142.557 111.254 142.587C111.322 142.617 111.396 142.633 111.47 142.633C112.932 142.374 114.361 141.955 115.732 141.383C115.771 141.448 115.823 141.504 115.885 141.547C115.947 141.591 116.017 141.621 116.092 141.635L142.932 146.74L118.403 159.428L93.431 149.973C96.2055 149.51 98.966 148.908 101.544 148.321C103.436 148 105.304 147.552 107.136 146.979C107.273 146.936 107.387 146.84 107.453 146.713C107.519 146.586 107.532 146.438 107.489 146.302C107.446 146.165 107.351 146.051 107.224 145.985C107.097 145.919 106.949 145.905 106.812 145.948C105.022 146.509 103.197 146.948 101.347 147.263C98.3374 147.948 95.1125 148.647 91.9125 149.124C79.0205 151.202 71.5308 147.384 60.3398 147.971C60.2689 147.975 60.1994 147.993 60.1353 148.023C60.0712 148.054 60.0137 148.097 59.9662 148.149C59.9187 148.202 59.882 148.264 59.8582 148.331C59.8345 148.398 59.8242 148.468 59.8279 148.539C59.8316 148.61 59.8492 148.68 59.8797 148.744C59.9103 148.808 59.9531 148.865 60.0059 148.913C60.0586 148.961 60.1202 148.997 60.1872 149.021C60.2541 149.045 60.325 149.055 60.396 149.051C71.4444 148.461 78.6739 152.218 91.5723 150.271C91.6331 150.39 91.7363 150.483 91.8618 150.531C120.188 161.262 118.297 160.56 118.451 160.56C118.657 160.56 116.831 161.457 144.83 146.983C144.93 146.931 145.011 146.85 145.062 146.75C145.113 146.65 145.132 146.537 145.116 146.426C145.1 146.314 145.049 146.211 144.971 146.13C144.894 146.049 144.793 145.994 144.682 145.973L117.091 140.725C117.915 140.308 118.616 139.682 119.123 138.91C119.63 138.137 119.925 137.245 119.978 136.322C120.042 134.918 119.161 134.097 118.973 133.107C118.713 131.834 120.408 130.742 119.621 128.714C121.147 128.564 123.533 128.538 125.237 128.53C125.38 128.53 125.518 128.473 125.619 128.372C125.72 128.271 125.777 128.133 125.777 127.99C125.766 127.851 125.705 127.72 125.606 127.621C125.507 127.522 125.376 127.461 125.237 127.45C123.155 127.418 121.073 127.512 119.002 127.732C118.635 127.337 118.168 127.05 117.65 126.901C118.718 125.497 119.611 124.314 120.481 123.288C123.466 119.764 124.755 118.014 124.617 117.048C124.55 116.778 124.405 116.534 124.2 116.346C123.996 116.157 123.74 116.034 123.466 115.989C122.933 115.989 122.033 116.433 117.486 121.74C115.751 123.766 113.156 126.916 112.734 127.329C112.227 127.68 111.649 127.916 111.041 128.02C110.978 127.993 110.909 127.978 110.84 127.976C101.617 127.692 92.3864 128.062 83.2164 129.082C83.0743 129.083 82.9381 129.139 82.8374 129.239C82.7367 129.34 82.6796 129.476 82.6785 129.618ZM123.404 117.104C123.464 117.143 123.531 117.189 123.541 117.199C123.582 117.425 123.248 118.325 120.415 121.691C115.762 127.216 115.829 128.554 113.887 127.665C115.236 126.124 121.891 117.916 123.404 117.104ZM113.008 128.431C114.853 129.437 115.899 128.971 116.907 127.823C116.963 127.852 117.024 127.872 117.086 127.881C117.342 127.92 117.587 128.01 117.807 128.145C118.028 128.281 118.219 128.458 118.37 128.668C118.521 128.878 118.628 129.116 118.686 129.368C118.744 129.62 118.751 129.881 118.706 130.136C118.545 130.958 117.747 131.928 117.868 133.052C117.976 134.256 118.942 135.2 118.893 136.273C118.821 137.956 117.798 139.242 115.781 140.194C114.285 140.802 112.743 141.289 111.17 141.65C111.539 138.386 111.269 134.414 108.488 132.698C108.47 132.636 108.441 132.578 108.402 132.526C107.986 131.975 108.211 131.137 109.144 130.042C109.592 129.528 110.217 129.202 110.895 129.129C111.64 129.047 112.36 128.809 113.008 128.431Z" fill="black"/>
<path d="M91.3681 113.405L160.957 117.07C161.1 117.073 161.239 117.02 161.343 116.921C161.447 116.823 161.507 116.687 161.511 116.544C161.515 116.4 161.461 116.262 161.363 116.158C161.264 116.054 161.128 115.993 160.985 115.99L91.4253 112.326C91.3544 112.322 91.2835 112.333 91.2165 112.356C91.1495 112.38 91.0879 112.417 91.0351 112.464C90.9823 112.512 90.9394 112.569 90.9088 112.633C90.8782 112.697 90.8605 112.767 90.8567 112.838C90.853 112.908 90.8632 112.979 90.8869 113.046C90.9105 113.113 90.9472 113.175 90.9946 113.228C91.0421 113.281 91.0995 113.324 91.1636 113.354C91.2277 113.385 91.2972 113.401 91.3681 113.405Z" fill="black"/>
<path d="M122.591 121.717C122.522 121.717 122.453 121.731 122.39 121.758C122.326 121.785 122.269 121.824 122.221 121.874C122.172 121.923 122.135 121.982 122.11 122.046C122.084 122.11 122.073 122.179 122.074 122.248C122.077 122.392 122.136 122.53 122.238 122.632C122.339 122.734 122.477 122.793 122.621 122.797C124.439 122.856 138.595 123.337 138.595 123.337C138.738 123.339 138.877 123.284 138.98 123.185C139.082 123.085 139.142 122.949 139.144 122.805C139.146 122.662 139.091 122.524 138.992 122.421C138.892 122.318 138.756 122.259 138.612 122.257C124.167 121.77 123.86 121.737 122.591 121.717Z" fill="black"/>
<path d="M166.078 148.757C167.399 149.621 173.795 150.103 175.906 150.103C177.159 150.103 178.409 150.043 179.657 149.922C179.727 149.915 179.796 149.894 179.858 149.86C179.921 149.827 179.976 149.781 180.021 149.726C180.066 149.671 180.099 149.608 180.12 149.54C180.14 149.472 180.147 149.401 180.14 149.33C180.133 149.26 180.112 149.191 180.079 149.129C180.045 149.066 179.999 149.011 179.945 148.966C179.89 148.921 179.826 148.888 179.759 148.867C179.691 148.847 179.619 148.84 179.549 148.847C175.265 149.239 170.946 148.924 166.764 147.914C166.553 147.806 166.184 147.443 165.792 147.782C165.714 147.854 165.657 147.946 165.629 148.048C165.6 148.15 165.601 148.257 165.631 148.359C165.661 148.461 165.718 148.552 165.797 148.622C165.876 148.693 165.974 148.739 166.078 148.757Z" fill="black"/>
<path d="M211.14 105.983C211.101 104.634 211.046 102.729 211.022 101.83C211.015 101.382 210.867 100.947 210.6 100.587C207.532 96.4214 182.702 63.3367 180.931 60.979C180.852 59.6182 180.295 50.0581 180.339 45.8936C180.344 45.6075 180.257 45.3273 180.091 45.094C179.925 44.8607 179.689 44.6866 179.417 44.5972C179.146 44.5077 178.852 44.5076 178.58 44.5969C178.308 44.6862 178.072 44.8602 177.906 45.0933C177.067 46.2608 177.032 46.2651 177.042 46.5038C177.507 62.6466 177.462 61.7318 177.607 61.9359L206.314 101.729L206.378 106.902C203.592 108.817 177.147 126.99 171.602 130.797C171.275 131.019 171.003 131.313 170.809 131.658C170.615 132.003 170.503 132.388 170.482 132.783C160.887 130.186 151.058 128.547 141.14 127.888C141.069 127.883 140.998 127.892 140.93 127.914C140.863 127.936 140.8 127.972 140.746 128.018C140.693 128.065 140.648 128.121 140.616 128.185C140.584 128.248 140.565 128.317 140.56 128.388C140.555 128.459 140.564 128.53 140.586 128.598C140.608 128.666 140.643 128.728 140.69 128.782C140.736 128.836 140.793 128.88 140.856 128.912C140.92 128.944 140.989 128.963 141.06 128.968C151.04 129.63 160.928 131.292 170.576 133.93C170.747 135.426 171.624 142.91 171.624 142.91C171.685 143.256 171.818 143.586 172.015 143.877C172.212 144.168 172.468 144.415 172.766 144.6C173.065 144.786 173.399 144.907 173.747 144.955C174.095 145.003 174.45 144.978 174.787 144.88C175.44 144.767 176.03 144.425 176.454 143.916C176.877 143.407 177.106 142.764 177.099 142.102L176.991 135.75C180.666 137.017 184.247 138.546 187.705 140.323C191.04 142.06 199.901 146.674 198.397 151.869C197.547 154.799 193.726 156.238 190.848 157.235C183.455 159.791 175.476 160.785 167.267 161.658C146.92 163.818 126.391 163.03 108.993 161.969C102.446 161.569 79.9147 160.03 64.8541 156.974C64.7846 156.96 64.713 156.959 64.6434 156.973C64.5738 156.986 64.5075 157.013 64.4483 157.052C64.3891 157.092 64.3383 157.142 64.2986 157.201C64.2589 157.259 64.2311 157.325 64.2169 157.395C64.2028 157.464 64.2024 157.536 64.2159 157.606C64.2294 157.675 64.2565 157.742 64.2956 157.801C64.3347 157.86 64.3851 157.911 64.4439 157.951C64.5026 157.99 64.5686 158.018 64.6381 158.032C79.7668 161.103 102.361 162.647 108.926 163.047C128.319 164.228 147.961 164.796 167.381 162.731C175.653 161.853 183.701 160.85 191.2 158.257C193.43 157.606 195.526 156.562 197.388 155.173C193.758 161.415 178.13 163.86 171.277 164.98C162.278 166.451 128.85 167.844 105.945 166.049C92.1706 164.969 76.9717 163.781 63.5538 160.346C63.4842 160.325 63.4111 160.318 63.3389 160.327C63.2667 160.335 63.1969 160.357 63.1337 160.393C63.0705 160.429 63.0151 160.477 62.971 160.535C62.9268 160.593 62.8948 160.659 62.8767 160.729C62.8587 160.799 62.8551 160.873 62.866 160.945C62.877 161.016 62.9023 161.085 62.9405 161.147C62.9788 161.209 63.029 161.262 63.0884 161.304C63.1478 161.346 63.215 161.376 63.286 161.391C65.4751 161.953 67.8295 162.481 70.2898 162.962L69.3491 174.436C67.7561 173.68 65.0399 172.616 62.6661 173.464C62.5668 173.5 62.4801 173.563 62.4166 173.647C62.3531 173.731 62.3155 173.832 62.3086 173.937C61.6659 175.251 60.6555 176.349 59.4001 177.098C59.3366 177.134 59.2807 177.181 59.2359 177.238C59.1911 177.295 59.1582 177.361 59.1393 177.431C59.1204 177.501 59.1158 177.574 59.1258 177.646C59.1358 177.718 59.1602 177.787 59.1976 177.849C59.2349 177.911 59.2844 177.966 59.3431 178.008C59.4018 178.051 59.4685 178.081 59.5393 178.098C59.61 178.114 59.6833 178.116 59.7548 178.103C59.8262 178.091 59.8944 178.064 59.9553 178.024C61.3954 177.163 62.5521 175.899 63.2827 174.389C65.5691 173.746 68.3458 175.127 69.5565 175.73C69.5565 175.73 70.4755 176.202 70.6624 176.291C77.5269 179.315 96.28 179.878 100.127 185.197C101.908 187.65 101.804 191.236 101.405 193.81C100.3 200.84 90.5279 200.506 84.4075 201.028C81.3954 201.274 79.1901 201.332 72.6355 201.611C59.047 202.194 40.8069 202.983 26.5725 201.953C26.5476 201.897 26.5136 201.846 26.472 201.801C24.7773 199.986 23.4961 197.825 22.7169 195.467C22.6954 195.399 22.6606 195.336 22.6146 195.281C22.5685 195.226 22.512 195.181 22.4484 195.149C22.3848 195.116 22.3154 195.096 22.2441 195.091C22.1728 195.085 22.1012 195.094 22.0333 195.116C21.9654 195.138 21.9026 195.174 21.8485 195.221C21.7944 195.268 21.7502 195.325 21.7183 195.389C21.6865 195.453 21.6677 195.522 21.6629 195.594C21.6582 195.665 21.6677 195.736 21.6909 195.804C22.4171 197.999 23.5532 200.036 25.0389 201.808C16.1526 200.751 8.25999 196.313 7.91115 187.375C9.00916 188.612 10.3976 189.557 11.9514 190.124C13.7404 190.77 15.6219 191.122 17.5232 191.168C29.2034 191.686 41.3155 186.715 51.9633 181.735C53.0746 181.215 55.4095 180.326 56.9539 179.628C57.0186 179.599 57.0769 179.557 57.1255 179.505C57.1741 179.454 57.2121 179.393 57.2372 179.327C57.2623 179.26 57.2741 179.19 57.2719 179.119C57.2698 179.048 57.2536 178.978 57.2245 178.913C57.1953 178.849 57.1537 178.79 57.1021 178.742C57.0504 178.693 56.9896 178.655 56.9233 178.63C56.857 178.605 56.7863 178.593 56.7154 178.595C56.6445 178.598 56.5747 178.614 56.5101 178.643C54.9981 179.328 52.7441 180.178 51.5053 180.756C40.5099 185.899 28.7886 190.596 17.5599 190.089C15.7722 190.046 14.0031 189.715 12.3208 189.109C6.26415 186.882 5.18415 179.751 6.36459 173.426C7.09143 169.567 9.20283 166.022 9.85083 162.045C10.258 159.523 8.68335 157.495 9.50631 155.262C9.97229 154.078 10.5716 152.951 11.2926 151.902C11.3328 151.844 11.3611 151.778 11.3759 151.709C11.3907 151.639 11.3917 151.568 11.3788 151.498C11.3659 151.428 11.3394 151.361 11.3008 151.302C11.2622 151.242 11.2123 151.191 11.1539 151.151C11.0954 151.111 11.0296 151.082 10.9603 151.068C10.8909 151.053 10.8193 151.052 10.7495 151.065C10.6798 151.078 10.6133 151.104 10.5538 151.143C10.4942 151.181 10.4429 151.231 10.4027 151.29C9.63351 152.409 8.99435 153.613 8.49759 154.877C7.51263 157.552 9.15639 159.567 8.78487 161.873C8.17899 165.59 6.03627 169.341 5.30403 173.227C4.74999 176.197 4.23915 181.725 6.85599 185.948C6.84816 185.98 6.8431 186.012 6.84087 186.045C6.69628 188.77 7.30578 191.482 8.60235 193.883C10.6241 197.522 14.4344 200.261 19.6238 201.803C23.7018 202.992 26.9364 203.162 33.7523 203.386C48.6833 203.884 65.1803 202.985 79.3002 202.414C83.2422 202.252 83.5662 202.146 86.8246 201.948C92.9557 201.579 101.353 201.072 102.467 193.979C102.899 191.203 102.993 187.316 100.999 184.566C98.9778 181.774 95.5521 180.911 92.5173 180.146C87.0406 178.774 81.5509 177.83 76.4134 176.844L78.8499 164.408C87.4974 165.685 97.6246 166.475 105.856 167.12C129.049 168.938 162.309 167.542 172.329 165.893C180.403 164.566 197.76 161.637 199.122 153.522C199.144 153.389 199.115 153.254 199.042 153.141C199.201 152.828 199.331 152.501 199.43 152.163C201.18 146.115 191.751 141.208 188.198 139.357C184.576 137.496 180.821 135.905 176.966 134.595C176.945 133.247 176.924 132.149 176.914 131.651C179.579 129.796 203.908 112.847 209.715 108.807C210.167 108.49 210.533 108.066 210.782 107.574C211.031 107.081 211.154 106.534 211.14 105.983ZM70.3859 174.949L71.3525 163.166C73.3527 163.551 75.4662 163.907 77.7807 164.253L75.3517 176.648C73.6248 176.318 71.9531 175.746 70.3859 174.949ZM209.098 107.926C202.956 112.2 176.064 130.93 176.064 130.93C175.991 130.98 175.932 131.048 175.892 131.127C175.851 131.207 175.831 131.294 175.833 131.383L176.013 142.173C175.982 144.096 172.953 144.569 172.672 142.641C172.59 142.079 171.583 133.245 171.566 133.095C171.533 132.823 171.575 132.548 171.688 132.299C171.801 132.05 171.981 131.837 172.207 131.683C178.059 127.659 207.219 107.624 207.219 107.624C207.292 107.574 207.351 107.506 207.392 107.427C207.433 107.348 207.453 107.261 207.452 107.172C207.378 101.054 207.423 101.427 207.279 101.232L178.571 61.4391L178.118 46.6528L178.778 45.724C178.809 45.6767 178.855 45.641 178.909 45.6223C178.962 45.6035 179.02 45.6029 179.074 45.6204C179.128 45.638 179.175 45.6727 179.207 45.7193C179.24 45.7659 179.256 45.8218 179.253 45.8785C179.207 50.3875 179.851 61.0989 179.858 61.2058C179.865 61.3115 179.902 61.4128 179.966 61.4974C180.232 61.8517 206.564 96.9333 209.727 101.231C209.864 101.411 209.939 101.629 209.943 101.855C209.967 102.758 210.022 104.663 210.061 106.013C210.071 106.386 209.988 106.757 209.82 107.09C209.652 107.424 209.404 107.711 209.098 107.926Z" fill="black"/>
<path d="M144.768 27.6489C144.877 27.6708 144.979 27.7153 145.07 27.7795C146.611 29.8589 147.717 32.2283 148.32 34.7456C147.926 34.9137 147.562 35.1438 147.24 35.427C146.638 36.0958 146.273 36.9454 146.205 37.843C145.819 40.7212 146.832 44.7647 149.807 45.2637C149.964 48.0101 149.984 50.6918 149.989 53.4339C149.989 53.5771 150.046 53.7144 150.147 53.8157C150.248 53.917 150.386 53.9739 150.529 53.9739C150.672 53.9739 150.809 53.917 150.911 53.8157C151.012 53.7144 151.069 53.5771 151.069 53.4339C151.056 46.47 150.898 41.042 149.488 35.0307C148.878 32.1503 147.648 29.4374 145.883 27.0808C145.637 26.833 145.322 26.6639 144.98 26.5948C144.846 26.581 144.712 26.6174 144.604 26.6971C144.496 26.7768 144.421 26.8939 144.395 27.0256C144.368 27.1573 144.392 27.2942 144.461 27.4094C144.53 27.5247 144.64 27.61 144.768 27.6489ZM149.745 44.1437C147.622 43.5519 146.993 40.1077 147.281 37.9521C147.324 37.3067 147.573 36.6923 147.993 36.2003C148.168 36.0525 148.36 35.9256 148.564 35.8223C149.174 38.561 149.569 41.3433 149.745 44.1437Z" fill="black"/>
<path d="M178.668 35.1594C179.083 35.0935 182.448 34.6496 183.649 34.4898C183.72 34.4808 183.788 34.458 183.849 34.4228C183.911 34.3875 183.965 34.3405 184.008 34.2844C184.052 34.2283 184.083 34.1642 184.102 34.0958C184.121 34.0273 184.126 33.9559 184.117 33.8855C184.108 33.8152 184.085 33.7473 184.05 33.6858C184.014 33.6242 183.967 33.5702 183.911 33.5268C183.855 33.4835 183.791 33.4516 183.723 33.433C183.654 33.4144 183.583 33.4094 183.512 33.4184L178.921 34.0459C178.353 34.0988 178.01 34.1302 177.903 34.5287C177.873 34.63 177.874 34.7378 177.905 34.8386C177.937 34.9395 177.997 35.029 178.078 35.0961C178.159 35.1632 178.259 35.2049 178.364 35.2162C178.469 35.2274 178.575 35.2077 178.668 35.1594Z" fill="black"/>
<path d="M183.839 35.6989C183.309 35.7951 179.087 36.5295 179.002 36.537C178.931 36.5385 178.861 36.5539 178.796 36.5825C178.731 36.611 178.672 36.652 178.623 36.7032C178.524 36.8066 178.47 36.9451 178.473 37.0884C178.476 37.2316 178.536 37.3677 178.639 37.4669C178.743 37.566 178.881 37.62 179.025 37.617C179.267 37.617 183.922 36.7811 184.031 36.7606C184.104 36.7508 184.173 36.7265 184.236 36.6891C184.299 36.6517 184.353 36.602 184.396 36.543C184.439 36.484 184.469 36.4169 184.486 36.3458C184.502 36.2747 184.504 36.201 184.491 36.1292C184.478 36.0574 184.45 35.989 184.41 35.9281C184.37 35.8672 184.318 35.8151 184.257 35.7748C184.196 35.7346 184.128 35.7072 184.056 35.6941C183.984 35.6811 183.91 35.6827 183.839 35.6989Z" fill="black"/>
<path d="M183.206 37.9971C182.724 38.1288 180.174 38.8276 179.463 38.9108C179.139 38.9486 178.697 38.9982 178.653 39.4605C178.646 39.5625 178.667 39.6643 178.714 39.7553C178.76 39.8463 178.83 39.9232 178.917 39.9777C179.003 40.0323 179.102 40.0626 179.205 40.0655C179.307 40.0683 179.408 40.0436 179.497 39.994C180.45 39.873 182.7 39.252 183.487 39.0404C183.555 39.0219 183.619 38.9902 183.676 38.9469C183.732 38.9037 183.779 38.8498 183.814 38.7883C183.85 38.7268 183.873 38.659 183.882 38.5886C183.891 38.5183 183.886 38.4468 183.868 38.3783C183.849 38.3098 183.818 38.2456 183.774 38.1894C183.731 38.1331 183.677 38.086 183.616 38.0506C183.554 38.0152 183.486 37.9922 183.416 37.9831C183.346 37.9739 183.274 37.9786 183.206 37.9971Z" fill="black"/>
<path d="M54.444 131.113C57.0975 126.245 60.4315 120.912 65.0485 118.278C65.173 118.206 65.2639 118.088 65.3012 117.95C65.3386 117.811 65.3194 117.663 65.2478 117.539C65.1761 117.414 65.058 117.323 64.9194 117.286C64.7808 117.249 64.633 117.268 64.5085 117.339C63.3872 117.988 62.3402 118.758 61.3862 119.634C59.1022 118.877 56.8796 117.946 54.7377 116.849C54.1761 116.587 52.6933 115.513 51.9945 115.712C51.9181 115.717 51.8436 115.738 51.776 115.774C51.7085 115.81 51.6493 115.86 51.6026 115.921C51.5558 115.982 51.5225 116.052 51.5049 116.126C51.4873 116.201 51.4857 116.278 51.5003 116.354C51.5149 116.429 51.5453 116.5 51.5895 116.563C51.6338 116.625 51.6908 116.677 51.7569 116.716C51.8229 116.755 51.8965 116.779 51.9727 116.788C52.0488 116.796 52.1259 116.788 52.1987 116.764C52.9219 117.067 53.6215 117.424 54.2917 117.832C56.3038 118.839 58.3722 119.728 60.4866 120.497C57.7067 123.527 55.3542 126.923 53.4947 130.59C52.8 131.828 52.1762 133.104 51.6263 134.413C51.3865 134.953 51.0236 135.774 51.5885 136.163C51.6869 136.231 51.8051 136.264 51.9244 136.257C52.0437 136.251 52.1575 136.205 52.248 136.126C52.3384 136.048 52.4003 135.942 52.424 135.825C52.4477 135.708 52.4319 135.586 52.379 135.479C52.9538 133.973 53.6442 132.513 54.444 131.113Z" fill="black"/>
<path d="M19.765 159.076C28.729 157.937 37.2135 155.161 45.7347 152.704C45.8724 152.664 45.9886 152.571 46.0579 152.446C46.1271 152.32 46.1438 152.173 46.1041 152.035C46.0644 151.897 45.9717 151.781 45.8463 151.712C45.721 151.643 45.5732 151.626 45.4356 151.666C36.6811 154.187 28.5498 156.87 19.6236 158.003C19.5528 158.012 19.4844 158.034 19.4223 158.069C19.3602 158.104 19.3057 158.151 19.2618 158.207C19.218 158.263 19.1857 158.327 19.1668 158.396C19.1479 158.465 19.1428 158.537 19.1518 158.607C19.1607 158.678 19.1836 158.746 19.2191 158.808C19.2546 158.87 19.3019 158.924 19.3584 158.967C19.4149 159.011 19.4795 159.043 19.5484 159.061C19.6172 159.079 19.689 159.084 19.7597 159.074L19.765 159.076Z" fill="black"/>
<path d="M21.1688 154.007C24.5004 154.11 27.835 153.959 31.1436 153.555C31.2159 153.548 31.286 153.527 31.3498 153.493C31.4136 153.458 31.4698 153.411 31.5151 153.354C31.5604 153.298 31.5937 153.233 31.6132 153.163C31.6327 153.093 31.638 153.02 31.6286 152.948C31.6192 152.876 31.5955 152.807 31.5587 152.744C31.522 152.681 31.473 152.627 31.4148 152.584C31.3565 152.541 31.2901 152.51 31.2196 152.493C31.1491 152.476 31.0759 152.473 31.0043 152.485C27.7501 152.882 24.4703 153.029 21.1936 152.927C20.7756 152.917 16.056 152.876 15.7558 153C15.6302 153.047 15.526 153.138 15.4629 153.256C15.3999 153.374 15.3823 153.511 15.4136 153.641C15.4448 153.772 15.5228 153.886 15.6326 153.963C15.7424 154.039 15.8766 154.073 16.0096 154.057C16.3412 154.057 15.8984 153.878 21.1688 154.007Z" fill="black"/>
<path d="M12.0616 149.794C12.1206 149.833 12.1869 149.861 12.2565 149.875C12.3261 149.888 12.3978 149.888 12.4675 149.874C12.5371 149.86 12.6033 149.833 12.6622 149.793C12.7212 149.754 12.7718 149.703 12.8111 149.644C15.2564 145.787 17.1296 141.596 18.372 137.201C20.0114 131.525 20.6141 122.902 23.2828 117.718C23.3484 117.591 23.3607 117.443 23.317 117.306C23.2734 117.17 23.1773 117.056 23.05 116.991C22.9227 116.925 22.7745 116.913 22.6381 116.956C22.5017 117 22.3882 117.096 22.3226 117.223C19.5524 122.605 18.9671 131.246 17.333 136.903C16.1223 141.191 14.2965 145.281 11.9125 149.044C11.873 149.103 11.8456 149.17 11.8317 149.239C11.8178 149.309 11.8178 149.381 11.8317 149.45C11.8455 149.52 11.8729 149.586 11.9124 149.645C11.9518 149.704 12.0025 149.755 12.0616 149.794Z" fill="black"/>
<path d="M19.7806 113.766C19.8462 113.793 19.9165 113.807 19.9874 113.806C20.0584 113.806 20.1286 113.792 20.1941 113.765C20.2596 113.738 20.3191 113.698 20.3691 113.647C20.4192 113.597 20.4589 113.538 20.4859 113.472C22.8441 107.742 24.1667 101.64 24.3922 95.4478C24.3948 95.3769 24.3835 95.3061 24.3588 95.2396C24.334 95.1731 24.2965 95.1121 24.2482 95.0601C24.1999 95.0081 24.1418 94.9661 24.0773 94.9366C24.0128 94.907 23.9431 94.8904 23.8722 94.8878C23.8013 94.8852 23.7305 94.8966 23.664 94.9213C23.5975 94.946 23.5365 94.9836 23.4845 95.0319C23.4325 95.0801 23.3905 95.1382 23.361 95.2027C23.3314 95.2672 23.3148 95.3369 23.3122 95.4078C23.0909 101.471 21.7957 107.447 19.4869 113.058C19.4595 113.124 19.4454 113.194 19.4453 113.266C19.4453 113.337 19.4593 113.407 19.4866 113.473C19.5139 113.539 19.5539 113.599 19.6044 113.649C19.6549 113.699 19.7147 113.739 19.7806 113.766Z" fill="black"/>
<path d="M16.4165 111.199C16.4771 111.236 16.5444 111.26 16.6146 111.271C16.6848 111.282 16.7564 111.279 16.8255 111.263C16.8945 111.246 16.9595 111.216 17.0168 111.174C17.0742 111.132 17.1227 111.079 17.1596 111.018C18.2255 109.268 19.0496 107.413 19.9557 105.65C19.9881 105.586 20.0077 105.518 20.0135 105.447C20.0193 105.376 20.0111 105.305 19.9894 105.237C19.9677 105.17 19.9329 105.107 19.887 105.053C19.8411 104.999 19.785 104.955 19.7219 104.922C19.6587 104.89 19.5899 104.87 19.5191 104.864C19.4484 104.859 19.3773 104.867 19.3097 104.888C19.2422 104.91 19.1796 104.945 19.1255 104.991C19.0714 105.037 19.0269 105.093 18.9945 105.156C18.0808 106.938 17.2665 108.768 16.2372 110.457C16.1627 110.579 16.1397 110.726 16.1733 110.865C16.2069 111.004 16.2944 111.124 16.4165 111.199Z" fill="black"/>
<path d="M42.8306 70.0454C42.7973 69.9067 42.7104 69.7868 42.589 69.712C42.4676 69.6371 42.3215 69.6133 42.1826 69.6458C39.5392 70.2788 36.9714 71.1938 34.5233 72.3749C32.738 73.2033 31.8341 73.7897 32.1689 74.5155C32.2181 74.6226 32.3011 74.7106 32.405 74.7662C32.509 74.8217 32.6283 74.8417 32.7447 74.8231C32.8611 74.8045 32.9682 74.7483 33.0497 74.6631C33.1312 74.5779 33.1825 74.4684 33.196 74.3513C36.0659 72.6586 39.183 71.4255 42.4343 70.6966C42.5731 70.6626 42.6927 70.575 42.767 70.4529C42.8413 70.3308 42.8642 70.1843 42.8306 70.0454Z" fill="black"/>
<path d="M33.6577 75.1405C33.2052 75.2042 32.7775 75.2604 32.7138 75.715C32.7008 75.827 32.7212 75.9402 32.7723 76.0406C32.8234 76.141 32.903 76.2241 33.0012 76.2794C33.0993 76.3348 33.2116 76.36 33.3239 76.3518C33.4363 76.3436 33.5438 76.3024 33.6328 76.2334C35.2989 76.059 36.9767 76.0254 38.6484 76.133C38.7193 76.1363 38.7901 76.1255 38.8569 76.1014C38.9237 76.0773 38.985 76.0402 39.0375 75.9924C39.0899 75.9446 39.1324 75.8869 39.1626 75.8226C39.1927 75.7583 39.2099 75.6888 39.2132 75.6178C39.2165 75.5469 39.2057 75.4761 39.1816 75.4093C39.1575 75.3425 39.1204 75.2812 39.0726 75.2287C39.0248 75.1763 38.9671 75.1338 38.9028 75.1036C38.8385 75.0735 38.769 75.0563 38.698 75.053C37.0182 74.9519 35.333 74.9811 33.6577 75.1405Z" fill="black"/>
<path d="M39.3321 84.2488C39.4024 84.2682 39.476 84.2731 39.5483 84.2633C39.6206 84.2535 39.6902 84.2292 39.7528 84.1917C39.8154 84.1543 39.8698 84.1046 39.9127 84.0455C39.9556 83.9865 39.986 83.9194 40.0023 83.8482C40.0185 83.7771 40.0201 83.7034 40.007 83.6316C39.994 83.5598 39.9665 83.4914 39.9263 83.4305C39.8861 83.3696 39.8339 83.3176 39.773 83.2774C39.7121 83.2372 39.6437 83.2098 39.5719 83.1968C36.94 82.5823 34.5124 81.2959 32.5259 79.4633C32.3795 79.294 32.2494 79.1114 32.1371 78.9179C32.1034 78.8533 32.0569 78.7963 32.0005 78.7502C31.9442 78.7041 31.8791 78.6698 31.8091 78.6496C31.7392 78.6293 31.6658 78.6233 31.5935 78.6321C31.5212 78.6409 31.4515 78.6642 31.3884 78.7007C31.3254 78.7371 31.2703 78.7859 31.2266 78.8442C31.1829 78.9025 31.1515 78.969 31.1342 79.0397C31.1168 79.1104 31.114 79.184 31.1258 79.2558C31.1376 79.3277 31.1639 79.3964 31.2029 79.4579C31.7954 80.3517 32.5807 81.1012 33.5012 81.6514C35.2662 82.8725 37.2438 83.7534 39.3321 84.2488Z" fill="black"/>
<path d="M30.6356 81.5945C30.4985 81.6353 30.3831 81.7288 30.3149 81.8545C30.2467 81.9803 30.2311 82.128 30.2717 82.2652C30.4527 82.8737 30.7338 83.4478 31.1033 83.964C31.1868 84.0805 31.3131 84.159 31.4545 84.1823C31.5958 84.2055 31.7407 84.1717 31.8571 84.0882C31.9735 84.0047 32.052 83.8784 32.0753 83.737C32.0986 83.5957 32.0648 83.4508 31.9813 83.3344C31.6815 82.916 31.4534 82.4506 31.3063 81.9574C31.2653 81.8204 31.1717 81.7054 31.046 81.6373C30.9202 81.5693 30.7727 81.5539 30.6356 81.5945Z" fill="black"/>
<path d="M57.3488 110.248C57.3204 110.313 57.3051 110.383 57.3038 110.454C57.3025 110.525 57.3151 110.596 57.3411 110.662C57.3934 110.795 57.4966 110.902 57.628 110.959C57.7593 111.017 57.908 111.019 58.0414 110.967C58.1747 110.915 58.2818 110.811 58.3391 110.68C58.6083 110.054 59.0279 109.503 59.5606 109.077C60.8566 108.344 62.9378 108.813 64.6161 107.997C67.7373 106.469 69.785 102.896 70.7224 100.91C71.3648 99.6121 71.7839 98.2149 71.9622 96.7773C72.0528 96.8184 72.153 96.8337 72.2517 96.8215C72.3504 96.8094 72.4439 96.7701 72.5217 96.7082C73.9137 95.5969 74.993 94.1428 75.6537 92.4886C76.1056 91.3768 76.204 90.1527 75.9356 88.983C75.4841 87.2064 73.3436 86.0011 71.5303 85.8628C71.3875 85.8521 71.2463 85.8986 71.1377 85.9919C71.0292 86.0853 70.9621 86.2179 70.9514 86.3607C70.9403 86.5035 70.9865 86.6448 71.0797 86.7536C71.1728 86.8623 71.3054 86.9297 71.4482 86.9407C72.8522 87.0487 74.5715 88.0002 74.8847 89.2357C75.0632 90.0181 75.0401 90.833 74.8178 91.6041C74.7483 91.5587 74.6691 91.5303 74.5866 91.521C73.5165 91.4008 72.4408 91.337 71.3639 91.3298C71.2793 91.0786 71.1878 90.8297 71.0896 90.5835C70.6954 89.77 70.5364 88.8625 70.6306 87.9634C70.6449 87.8202 70.6018 87.6772 70.5106 87.5658C70.4195 87.4544 70.2878 87.3838 70.1446 87.3694C70.0014 87.3551 69.8584 87.3983 69.747 87.4894C69.6356 87.5806 69.5649 87.7122 69.5506 87.8554C69.4492 89.0551 69.6794 90.2596 70.2159 91.3374C69.7331 91.3438 67.4522 91.387 67.4522 91.387C67.3813 91.388 67.3112 91.4028 67.2461 91.4308C67.1809 91.4588 67.1219 91.4994 67.0724 91.5502C67.0229 91.601 66.9839 91.661 66.9576 91.7269C66.9313 91.7928 66.9183 91.8631 66.9192 91.9341C66.9201 92.005 66.935 92.075 66.963 92.1402C66.991 92.2053 67.0315 92.2643 67.0823 92.3138C67.1331 92.3633 67.1932 92.4023 67.259 92.4286C67.3249 92.4549 67.3953 92.468 67.4662 92.467C67.4662 92.467 69.9718 92.4184 70.5626 92.4141C71.2995 95.0988 71.0091 97.9618 69.7483 100.444C68.8659 102.31 66.9651 105.646 64.1398 107.032C62.5749 107.794 60.7292 107.181 58.9655 108.186C58.26 108.725 57.7036 109.435 57.3488 110.248ZM72.0454 95.6973C72.075 94.5898 71.9533 93.4834 71.6836 92.4087C72.5951 92.4249 73.5196 92.4832 74.4311 92.5858C73.8684 93.7822 73.0547 94.8434 72.0454 95.6973Z" fill="black"/>
<path d="M29.5212 94.1542C30.7005 97.7182 32.2352 102.3 31.8108 106.327C31.6445 109.598 30.335 112.707 28.1107 115.111C28.0393 115.188 27.9919 115.284 27.9743 115.387C27.9567 115.491 27.9696 115.597 28.0116 115.693C28.0535 115.79 28.1226 115.872 28.2104 115.929C28.2982 115.987 28.4009 116.018 28.506 116.018C28.5804 116.018 28.6542 116.003 28.7224 115.973C28.7907 115.944 28.852 115.9 28.9023 115.845C30.4537 114.121 31.6106 112.08 32.2923 109.863C32.9741 107.647 33.1643 105.308 32.8497 103.01C33.9429 103.947 35.2569 104.589 36.6675 104.876C36.808 104.905 36.9541 104.877 37.0737 104.798C37.1933 104.719 37.2766 104.595 37.3053 104.455C37.3339 104.314 37.3056 104.168 37.2265 104.049C37.1474 103.929 37.024 103.846 36.8835 103.817C35.1687 103.507 33.6435 102.538 32.6348 101.117C32.6162 101.083 32.5942 101.052 32.5689 101.023C31.1552 93.2243 25.2897 83.6793 30.1195 77.4628C30.2053 77.3495 30.2431 77.207 30.2245 77.066C30.2059 76.9251 30.1324 76.7972 30.0201 76.7101C29.9078 76.6229 29.7657 76.5836 29.6246 76.6006C29.4834 76.6175 29.3547 76.6895 29.2663 76.8008C25.4798 81.6781 27.6279 88.4302 29.5212 94.1542Z" fill="black"/>
<path d="M30.1779 71.8021C30.2947 71.8021 30.4084 71.7642 30.5019 71.6941C31.4072 71.0121 32.2689 70.2741 33.082 69.4844C34.9622 68.0139 37.1101 66.9227 39.4065 66.2714C40.197 66.0413 41.6345 65.6234 42.3225 66.0608C42.4262 66.1275 42.5496 66.1567 42.6722 66.1435C42.7948 66.1303 42.9092 66.0756 42.9964 65.9884C44.706 66.8654 48.5271 67.576 49.674 68.0642C51.7305 69.0607 53.5374 70.5056 54.9618 72.2926C56.3862 74.0796 57.3918 76.1632 57.9047 78.3901C59.3735 84.7264 52.5047 87.8228 51.59 94.3827C51.4305 95.3902 51.4627 96.4187 51.685 97.4143C51.5581 97.5263 51.4574 97.665 51.3902 97.8203C51.3628 97.8475 51.3386 97.8775 51.3178 97.91C49.4829 100.286 46.9949 102.075 44.1585 103.058C43.9112 103.158 43.6628 103.251 43.3463 103.368C43.282 103.393 43.2233 103.431 43.1739 103.479C43.1245 103.527 43.0854 103.585 43.0589 103.648C43.0325 103.712 43.0192 103.781 43.02 103.85C43.0208 103.919 43.0355 103.987 43.0634 104.05C43.1227 104.185 43.2316 104.291 43.3675 104.348C43.5034 104.405 43.6559 104.407 43.7934 104.354C46.04 103.619 48.1264 102.464 49.9419 100.95C50.7488 100.273 51.4766 99.5066 52.1116 98.666C53.6992 101.963 57.6326 102.409 61.0961 100.669C61.1601 100.638 61.2172 100.594 61.2642 100.541C61.3111 100.487 61.347 100.425 61.3697 100.357C61.3925 100.289 61.4016 100.218 61.3966 100.147C61.3917 100.076 61.3727 100.007 61.3407 99.9428C61.3088 99.8791 61.2646 99.8223 61.2106 99.7758C61.1566 99.7293 61.094 99.6939 61.0263 99.6717C60.9586 99.6494 60.8871 99.6409 60.8161 99.6464C60.745 99.6519 60.6758 99.6714 60.6123 99.7039C55.9013 102.07 51.8643 99.5473 52.6581 94.5425C53.5221 88.3077 60.5669 85.0882 58.9566 78.146C58.4021 75.7555 57.3186 73.5198 55.786 71.6033C54.2534 69.6868 52.3107 68.1383 50.1006 67.0717C48.7507 66.496 43.9911 65.618 43.0223 64.7173C43.4997 64.0693 44.7352 63.9926 45.5236 64.0811C45.5942 64.0889 45.6656 64.0826 45.7337 64.0628C45.8019 64.0429 45.8654 64.0098 45.9208 63.9654C45.9761 63.921 46.0222 63.8661 46.0563 63.8038C46.0905 63.7416 46.112 63.6733 46.1198 63.6027C46.1275 63.5321 46.1213 63.4608 46.1014 63.3926C46.0815 63.3245 46.0484 63.2609 46.004 63.2055C45.9596 63.1502 45.9047 63.1041 45.8425 63.07C45.7802 63.0358 45.7119 63.0143 45.6413 63.0065C43.0493 62.7236 41.8613 63.9785 41.9175 64.8112C40.9101 64.7713 39.9047 64.9294 38.9583 65.2767C36.5646 65.9744 34.3278 67.1269 32.3703 68.6711C31.5746 69.4424 30.7321 70.1638 29.8474 70.8311C29.7567 70.8996 29.69 70.9949 29.6566 71.1035C29.6233 71.2122 29.625 71.3285 29.6616 71.4361C29.6982 71.5436 29.7678 71.6369 29.8605 71.7026C29.9532 71.7683 30.0643 71.8031 30.1779 71.8021Z" fill="black"/>
<path d="M57.1325 89.6711C57.7147 88.1439 56.7308 87.9549 56.4349 88.5554C56.0217 89.5016 55.6766 90.4761 55.4024 91.4714C54.4196 94.9965 54.7133 97.5453 56.302 99.2625C56.3492 99.3179 56.4071 99.3631 56.4722 99.3955C56.5372 99.4279 56.6082 99.4468 56.6808 99.4511C56.7534 99.4554 56.8261 99.4451 56.8945 99.4206C56.963 99.3961 57.0258 99.3581 57.0793 99.3088C57.1327 99.2594 57.1756 99.1998 57.2054 99.1335C57.2352 99.0672 57.2513 98.9955 57.2527 98.9228C57.2542 98.8501 57.2409 98.7779 57.2138 98.7104C57.1866 98.643 57.1461 98.5817 57.0947 98.5303C55.0417 96.3163 56.0525 92.5287 57.1325 89.6711Z" fill="black"/>
</g>
<defs>
<clipPath id="clip0_1193_4742">
<rect width="216" height="173.045" fill="white" transform="translate(0 0.955078)"/>
</clipPath>
</defs>
</svg>
