<svg width="137" height="166" viewBox="0 0 137 166" fill="none" xmlns="http://www.w3.org/2000/svg">
<path d="M38.1016 114.267L40.9778 122.834L44.7391 120.904L40.8362 112.807C40.8362 112.807 38.2874 114.125 38.1016 114.267Z" fill="#C3A411"/>
<path d="M56.7192 89.9651C61.5474 88.6024 66.2193 86.7366 70.658 84.3984L92.6237 87.8499C92.6237 87.8499 96.6416 90.1775 97.1283 90.2483C98.5033 90.1364 99.8798 90.4451 101.075 91.1333C102.695 92.2572 105.934 92.2572 106.775 92.3988C107.989 92.7914 109.148 93.3355 110.226 94.0184C111.067 94.514 114.802 95.7087 115.439 96.1335C116.076 96.5583 117.545 97.0185 117.899 98.7885C118.394 100.964 118.69 103.179 118.784 105.408C118.713 107.028 118.298 111.391 117.66 113.081C117.023 114.772 114.28 123.569 114.12 124.586C113.961 125.604 113.634 132.472 113.235 133.888C112.837 135.304 110.917 142.738 110.58 144.092C110.244 145.446 107.695 152.189 107.27 153.384C106.846 154.579 106.208 156.765 106.385 157.676C106.641 158.664 106.713 159.69 106.598 160.703C106.456 161.836 107.377 167.394 107.093 167.783C106.81 168.173 96.9513 168.624 93.5087 167.571C90.066 166.518 76.3308 167.996 70.7642 167.712C65.1975 167.429 50.4888 167.288 48.3825 166.827C46.2762 166.367 43.6655 166.27 44.931 164.863C46.1966 163.455 46.3382 161.482 46.409 159.553C46.5943 157.809 46.947 156.087 47.4621 154.411L43.0371 124.1L49.533 110.825L56.7192 89.9651Z" fill="#A4EAA0"/>
<path d="M117.828 81.2913C118.934 82.0701 118.792 81.902 117.828 82.0259C116.863 82.1498 116.359 82.1852 116.244 82.8135C116.149 83.3252 116.004 83.8263 115.81 84.3092C115.765 84.2756 115.723 84.237 115.686 84.1941C113.916 81.5922 115.288 82.2648 112.04 81.9993C111.394 81.9993 113.173 81.3975 113.695 80.2293C113.89 79.7957 112.978 78.1761 113.491 78.4593C115.049 79.2824 114.544 78.9815 114.739 79.0965C115.323 79.4594 117.058 78.0345 117.722 77.8398C117.925 79.2735 116.288 80.1585 117.828 81.2913Z" fill="#FFEB8D"/>
<path d="M130.928 53.8568C131.362 54.0161 130.043 54.3967 129.503 54.8038C128.618 55.4587 129.45 56.0074 129.379 56.9278C128.689 56.6357 127.91 55.1578 126.883 55.1578C125.034 55.7773 124.919 56.0428 124.591 56.0428C124.698 55.379 126.255 54.0338 125.37 53.317C125.025 53.0515 124.166 51.7859 124.6 51.8833C126.317 52.2815 126.308 52.3612 126.636 52.1311C128.361 50.9452 128.406 49.1221 128.724 51.6178C128.999 53.8568 128.441 52.9718 130.928 53.8568Z" fill="#FFEB8D"/>
<path d="M128.778 24.7036C128.733 24.7656 128.698 24.8452 128.636 24.8718C126.406 26.0223 126.255 25.8807 126.388 26.6418C126.725 28.7392 126.645 28.4118 126.592 28.7746C124.229 26.6329 125.167 26.9073 124.822 26.8453C124.167 26.748 122.946 27.4825 121.769 27.7303C121.361 27.7303 121.521 27.6418 122.538 25.9603C123.662 24.1284 118.193 21.9601 122.937 23.3053C123.822 23.562 123.662 23.4381 125.273 21.2698C125.786 20.5707 125.459 23.7301 126.654 23.8363C127.07 23.8363 127.645 24.3319 128.592 24.5443C128.661 24.5878 128.724 24.6415 128.778 24.7036Z" fill="#FFEB8D"/>
<path d="M37.234 63.238C41.7298 62.2291 37.234 63.6451 38.2341 65.3266C39.0571 66.778 39.3934 66.6452 37.7916 66.2912C35.9331 65.8753 36.7738 65.7514 34.8445 67.7072C34.6144 67.9462 34.8888 66.9727 34.9596 66.0523C35.0392 64.9549 32.9152 64.6008 32.6055 64.0256C32.7559 64.0256 32.4904 64.0256 33.8533 63.8928C35.5348 63.7512 34.7383 62.8043 35.4729 61.2998C36.0747 61.822 36.6942 63.353 37.234 63.238Z" fill="#FFEB8D"/>
<path d="M46.2754 43.3439C46.4966 43.7156 45.3904 43.3439 43.8239 42.7598C42.9389 42.4323 43.1425 41.7686 41.0539 44.6891C40.2485 45.8307 41.4256 42.1757 40.0892 41.6801C37.0625 40.5473 37.0625 40.7951 40.3901 39.5915C41.1158 39.326 40.7707 37.7418 41.2751 36.3789C44.4346 39.3348 41.7707 39.087 46.3904 38.025C45.709 39.8481 44.293 40.3703 45.1072 41.3172C45.5592 41.9547 45.9503 42.6332 46.2754 43.3439Z" fill="#FFEB8D"/>
<path d="M70.4111 95.2842C70.8271 97.2489 71.2341 97.479 70.7739 97.4082C66.7649 96.7799 62.8532 92.8151 62.0478 89.4875C61.8974 88.8591 61.7912 88.9211 62.4638 88.691C64.4374 87.9918 65.4551 87.2396 65.2073 87.6821C64.7117 88.5671 65.0657 89.7087 65.0038 90.1158C64.7737 91.6469 65.8357 92.939 67.3667 93.7532C67.5703 93.8594 67.4995 93.8417 68.8535 93.9302C69.7385 93.7178 69.8536 93.6293 69.9598 93.9302C70.1577 94.3643 70.309 94.8182 70.4111 95.2842Z" fill="#E7BCA5"/>
<path d="M101.951 27.9093C104.376 28.9271 105.058 29.0864 103.42 29.4935C102.394 29.2457 102.27 29.228 101.65 27.9713C101.588 27.812 101.783 27.8385 101.951 27.9093Z" fill="#D8E9FF"/>
<path d="M106.803 27.5194C106.953 27.5194 106.945 27.6256 106.883 27.7052C106.52 28.192 106.104 28.9088 105.422 28.4752C103.652 27.3335 100.201 26.8114 101.148 25.3334C101.537 24.7316 101.219 25.4219 103.236 26.2892C105.422 27.2273 106.21 27.5902 106.803 27.5194Z" fill="#D8E9FF"/>
<path d="M107.529 25.6071C108.069 25.6602 107.405 26.6249 106.546 26.6072C105.122 26.1116 100.829 24.5363 102.015 23.5982C102.157 23.492 102.086 23.1911 102.29 23.2088C102.644 23.2088 102.175 23.5805 104.52 24.5186C106.865 25.4567 107.069 25.5363 107.529 25.6071Z" fill="#D8E9FF"/>
<path d="M103.093 21.3154C107.784 24.8554 109.642 23.0323 108.226 24.6784C107.961 24.9882 106.934 24.466 106.545 24.3244C104.651 23.6253 101.491 22.6164 103.093 21.3154Z" fill="#D8E9FF"/>
<path d="M115.5 15.0242C115.775 15.1038 115.571 15.7499 115.323 15.6171C114.385 15.1392 115.173 14.918 115.5 15.0242Z" fill="#FFEB8D"/>
<path d="M106.148 12.5984C105.661 12.9967 105.44 12.2267 105.758 12.1382C105.865 12.1117 106.05 12.448 106.148 12.5984Z" fill="#FFEB8D"/>
<path d="M109.483 5.35939C120.448 5.29744 122.811 19.7229 111.413 21.0239C109.926 21.2009 109.643 20.7761 109.182 21.369C108.35 22.5461 108.89 23.0771 108.209 22.9001C106.818 22.5446 105.491 21.9711 104.279 21.2009C103.156 20.5194 105.164 20.3159 104.58 19.0503C103.996 17.7848 103.97 18.7494 103.049 17.2803C98.7925 10.4924 104.828 5.10274 109.483 5.35939ZM114.953 16.6343C115.51 18.0149 117.245 14.7492 115.908 14.3156C114.572 13.8819 114.218 14.82 114.006 14.7669C111.952 14.3067 113.227 14.5722 112.041 13.9616C111.492 13.6784 111.059 14.3421 110.616 13.7138C109.917 12.7049 110.421 13.7138 107.138 12.404C106.908 12.3155 106.784 11.9969 106.607 11.7845C106.43 11.5721 106.156 11.5721 105.828 11.4836C104.872 11.2269 104.324 13.1828 105.828 13.4394C105.988 13.4394 106.103 13.4394 106.049 13.7138C105.713 15.1563 107.669 16.3688 107.28 17.0679C106.75 18.0797 106.377 19.1658 106.173 20.2893C106.129 20.5548 106.368 20.4132 106.465 20.4929C106.837 20.8115 107.014 19.1477 107.97 17.3511C108.616 16.1564 106.74 14.9616 106.784 13.935C106.837 12.6164 107.35 13.3686 108.554 13.7492C109.227 13.9616 109.74 13.7492 109.926 14.1917C110.046 14.4281 110.247 14.6136 110.492 14.7143C110.737 14.815 111.011 14.8243 111.262 14.7404C112.076 14.528 111.864 15.1563 112.82 15.3599C113.776 15.5634 113.767 15.5192 113.767 15.8732C113.767 15.9971 113.767 16.1298 113.616 16.1652C113.161 16.3205 112.727 16.5315 112.324 16.7936C111.82 17.0325 112.041 16.6254 111.2 17.1741C109.935 17.9972 110.147 17.475 109.616 17.891C108.731 18.6078 106.793 20.6522 107.412 21.1389C108.032 21.6257 108.103 20.3513 109.359 19.2008C110.616 18.0503 110.421 18.6078 110.846 18.3158C111.731 17.7671 111.855 17.6874 111.988 17.6786C112.749 17.6166 113.333 16.9794 113.908 16.9263C114.687 16.8555 114.484 16.1741 114.652 16.2272C114.82 16.2803 114.891 16.4838 114.953 16.6343Z" fill="#FFEB8D"/>
<path d="M39.0991 13.5453C39.2381 14.0051 39.2343 14.4963 39.088 14.9539C38.9418 15.4115 38.66 15.8139 38.2801 16.1079C37.9001 16.4018 37.4398 16.5734 36.9602 16.6C36.4805 16.6266 36.0041 16.5069 35.5939 16.2568C35.1838 16.0067 34.8593 15.6379 34.6633 15.1993C34.4674 14.7607 34.4092 14.2729 34.4966 13.8005C34.5839 13.3282 34.8127 12.8934 35.1526 12.5539C35.4924 12.2144 35.9274 11.9861 36.3998 11.8992C36.9732 11.7957 37.5647 11.9061 38.0622 12.2095C38.5596 12.5128 38.9286 12.9881 39.0991 13.5453Z" fill="#C3A411"/>
<path d="M30.3304 21.1645C30.7198 20.722 31.2154 20.2795 31.4543 20.8724C31.4543 20.8724 23.4097 29.864 23.392 29.8817C22.7371 29.4304 22.4804 30.3508 30.3304 21.1645Z" fill="#C3A411"/>
<path d="M35.664 28.9875C35.8233 29.368 35.7525 29.2264 30.177 34.7488C29.8938 35.0409 30.0265 35.032 29.7168 30.5982C29.7168 30.1822 33.2568 27.4122 34.3984 26.0493C35.5401 24.6864 35.2392 24.9165 35.664 28.9875Z" fill="#C3A411"/>
<path d="M25.9665 17.5719C26.648 17.4834 24.7187 19.0499 23.3115 21.1739C22.9929 21.6341 21.7893 23.2448 21.3203 23.3067C21.3203 23.3067 16.8953 23.4395 16.8953 23.4129C16.7714 23.2448 19.1343 20.988 21.3203 18.4835C21.5946 18.0675 21.5946 18.1383 25.9665 17.5719Z" fill="#C3A411"/>
<path d="M47.48 4.73172C47.393 5.98396 47.1186 7.21604 46.6658 8.38677C44.5329 13.5906 44.7188 13.1215 44.1347 12.0772C41.4266 7.25397 37.6742 6.76722 38.3822 6.33357C40.177 5.01192 42.1943 4.02277 44.3382 3.41307C47.6924 2.52807 47.3207 3.41307 47.48 4.73172Z" fill="#C3A411"/>
<path d="M101.173 69.5303C100.491 67.2027 102.173 61.3352 102.677 60.0342C103.362 57.6889 103.56 55.2286 103.261 52.8038C102.907 50.0337 100.96 45.3432 99.9339 43.0688C98.9073 40.7943 94.4469 36.5817 93.0309 35.4843C91.6149 34.3869 84.8269 31.5372 82.4109 30.4752C79.9948 29.4132 75.6495 29.1743 75.6495 29.1743C75.001 28.3629 74.0961 27.7958 73.0832 27.5659C72.0702 27.336 71.0092 27.4568 70.074 27.9087C67.419 29.0858 66.9765 31.9178 66.7464 31.9797C61.2594 31.9178 60.4894 36.3428 60.4894 36.3428C58.4539 38.4048 59.0203 39.7058 59.8699 41.0598C60.7195 42.4139 63.4719 42.4493 63.4719 42.4493C63.4719 42.4493 80.2072 38.8119 85.3137 46.7769C90.4201 54.7419 88.4112 67.7337 88.4112 67.7337L88.5528 80.637C89.3636 81.4066 90.3768 81.9294 91.4739 82.1441C92.5711 82.3588 93.7066 82.2566 94.7478 81.8495C91.5706 79.4246 92.1813 78.044 92.1813 78.044C96.9957 81.0176 99.1197 78.044 99.1197 78.044C98.3016 77.8839 97.5351 77.526 96.8871 77.0015C96.2392 76.477 95.7295 75.8018 95.4027 75.035C96.8211 75.4647 98.2859 75.7232 99.7657 75.8049C103.722 76.1855 104.607 74.0349 104.607 74.0349C104.607 74.0349 101.845 71.8578 101.173 69.5303Z" fill="#FFEB8D"/>
<path d="M67.2786 75.9814C67.0311 75.7053 66.8942 75.3476 66.8942 74.9769C66.8942 74.6061 67.0311 74.2484 67.2786 73.9724C61.8359 70.6183 63.0041 67.8482 61.8359 68.4058C60.5831 68.9586 59.2453 69.2938 57.8799 69.3969C57.5259 69.5031 58.8623 71.7865 61.8093 72.7688C64.305 73.6007 59.1543 75.9813 58.3667 76.0433C57.0834 76.1407 62.4996 79.3886 65.5706 77.3177C65.6427 77.2592 65.7314 77.2248 65.8241 77.2195C65.9169 77.2142 66.0089 77.2383 66.0872 77.2882C66.1656 77.3381 66.2262 77.4114 66.2605 77.4977C66.2949 77.584 66.3012 77.679 66.2786 77.769C66.0295 79.0059 65.5843 80.195 64.9599 81.2914C66.491 81.5657 68.2433 80.5568 69.5177 79.6895C69.854 79.4683 69.7301 79.0789 69.8628 78.8045C69.9159 78.6806 68.8008 77.8576 67.2786 75.9814Z" fill="#FFEB8D"/>
<path d="M53.3399 86.8847C54.9595 90.2477 55.0303 90.0795 54.632 90.2211L36.64 96.1595C36.4276 96.1595 36.7196 96.6639 32.7194 88.752C32.5159 88.3538 31.445 88.8936 44.074 84.6633C46.2688 83.9288 48.3574 83.1942 50.7026 82.4243C51.3044 82.2296 50.8 81.6278 53.3399 86.8847ZM50.9239 89.7609C50.5433 89.106 50.2424 89.5574 49.7734 89.5751C49.6583 89.5751 38.1976 93.1151 37.3834 93.5045C36.9851 93.6726 36.6223 94.2036 37.109 94.3275C37.2949 94.3718 50.2424 90.5486 50.9239 89.7609ZM48.145 86.0262C48.4282 85.8846 48.6229 85.389 48.0211 85.2651C47.9149 85.2651 47.2334 85.4687 46.2511 85.7165C42.7553 86.6015 42.2686 87.2564 41.3659 87.2387C40.3216 87.2387 40.3658 87.6635 38.8082 88.0086C35.2682 88.7963 35.8435 89.1326 34.8965 89.1768C34.7815 89.1768 34.5956 89.4512 34.5602 89.5574C34.4806 89.876 35.4452 90.0618 35.9054 89.8052C36.8896 89.2764 37.9643 88.9371 39.0737 88.8051C40.534 88.5485 40.4809 88.0794 41.3393 88.1237C42.9766 87.9024 43.5961 87.2387 45.0829 86.867C46.5697 86.4953 47.0122 86.6015 48.145 86.0262ZM45.8174 89.2565C45.9656 89.2662 46.1123 89.2224 46.2309 89.1331C46.3494 89.0438 46.432 88.9148 46.4635 88.7697C46.4635 87.752 42.9235 89.3715 41.2508 89.6547C39.7286 89.9114 36.2683 90.9203 35.7638 91.469C35.4098 91.8584 35.6045 92.0796 36.0824 92.1062C37.8524 91.5044 37.6135 91.4247 38.2507 91.2212C41.9323 90.1857 39.4012 91.0353 43.304 89.9114C45.074 89.4335 45.1891 89.2565 45.8174 89.2565Z" fill="white"/>
<path d="M39.2947 110.771C39.5602 111.31 38.5867 111.611 38.0203 111.718C37.684 111.496 38.4274 112.726 30.3208 96.3982C25.1347 86.0791 25.1347 86.495 25.6657 86.495C28.4269 86.5039 24.1523 80.4062 39.2947 110.771Z" fill="#C3A411"/>
<path d="M27.6311 92.9285C37.49 112.93 37.3042 112.009 36.8794 112.16C31.5694 113.983 34.2244 117.47 33.6757 118.664C33.3836 118.248 15.0907 80.7686 14.9668 80.4589C15.1084 80.4058 14.6305 80.1668 22.3831 84.7954C24.8699 86.2822 23.4274 84.3883 27.6311 92.9285Z" fill="#C3A411"/>
<path d="M54.8701 83.1227C51.8523 76.8658 52.0558 77.2375 51.808 77.326C49.153 78.2729 35.2585 82.8838 32.9133 83.6537C27.1342 85.5653 27.4971 85.1936 27.8511 85.8839C41.3916 112.354 39.3561 110.859 40.9048 110.443C42.7191 110.398 41.5066 113.416 41.5686 113.576C41.6305 113.735 42.073 114.841 42.3208 114.753C42.8553 114.52 43.4019 114.316 43.9581 114.142C45.209 113.957 46.4275 113.596 47.5777 113.071C50.0557 111.806 50.0911 115.779 46.9582 117.31C46.1107 117.826 45.2006 118.23 44.2501 118.514C44.0908 118.514 44.0554 118.638 44.1262 118.779C44.7634 120.125 44.6041 120.018 45.0112 120.018C49.7902 120.018 49.2238 119.248 52.5337 118.549C53.5072 118.337 53.9143 119.532 53.5338 120.319C53.4453 120.496 53.5957 120.479 53.7816 120.425C53.7816 120.425 69.7116 115.708 70.4019 115.487C71.0922 115.266 70.7647 116.062 54.8701 83.1227ZM55.2241 90.9196C55.0825 90.9727 38.6215 96.4331 36.6391 97.0172C35.9046 96.9376 36.0462 97.3358 31.9486 88.8133C31.3999 87.6805 30.6742 88.2115 50.8434 81.5032C51.6399 81.2377 51.6045 81.5032 52.7107 83.7688C55.702 89.9107 56.3569 90.5302 55.2241 90.9196Z" fill="#C3A411"/>
<path d="M102.942 134.781C103.827 136.1 104.03 134.029 96.6758 144.41C95.8787 145.489 95.0157 146.517 94.0916 147.49C92.8438 148.932 91.8437 150.543 89.8702 152.056C85.2505 155.596 81.7901 154.711 77.7634 149.994C77.1538 148.958 76.7202 147.827 76.4801 146.649C75.9049 144.322 74.8783 143.675 74.1614 141.038C72.2852 134.144 74.3296 100.833 74.5154 100.664C75.2765 99.9653 74.0906 100.31 72.3826 98.0803C70.9931 96.3103 71.6392 94.4164 68.8426 89.8675C68.7868 89.7444 68.7035 89.6358 68.5992 89.5499C68.4949 89.4639 68.3723 89.4031 68.2408 89.3719C67.7009 89.2834 68.1434 89.9825 68.3912 90.5312C68.7629 91.3366 68.0018 90.8233 67.8602 90.8144C67.4974 90.7702 67.2496 91.1861 68.4886 91.9118C68.639 92.0003 69.0461 92.0092 69.1523 92.1508C69.2563 92.3483 69.3308 92.56 69.3736 92.7791C69.3736 92.903 69.3736 92.9384 69.2585 92.9473C68.285 93.0623 67.8602 93.2659 67.0549 92.5844C66.5947 92.195 65.7716 91.31 65.7893 90.7082C65.8336 88.9382 65.5327 88.0532 67.0549 87.1682C67.6478 86.8408 67.754 86.2832 67.7894 85.6283C67.8514 84.4247 69.0638 85.0796 69.5594 83.5132C70.2674 81.283 73.5065 83.2477 73.0375 81.9998C71.6038 78.2386 67.108 75.8048 67.7275 74.7251C68.3116 73.7782 70.4444 75.5393 70.9931 76.1765C72.71 78.1147 75.8606 80.752 76.1438 82.5928C76.3208 83.699 77.0908 84.0796 77.8607 86.6638C79.2502 91.3012 80.8255 93.2747 81.0113 98.3989C81.3034 106.364 89.525 136.932 89.5339 136.958C89.764 137.436 90.3127 137.233 90.2861 136.737C89.9675 130.799 86.6576 124.25 87.4718 124.205C88.8142 124.113 90.1573 124.375 91.3658 124.967C92.18 125.577 97.2068 130.046 97.6493 130.462C99.5786 132.179 101.623 132.763 102.942 134.781Z" fill="#E7BCA5"/>
<path d="M92.924 59.7076C96.6587 56.5482 101.075 59.1147 97.349 65.0796C96.6056 66.2566 95.8622 67.2744 92.6143 68.6196C88.3928 70.3896 87.8884 59.5837 87.8087 79.2396C87.8087 84.8151 88.4105 86.4877 96.2428 90.2844C96.5525 90.4348 93.8356 92.4615 93.8179 92.4703C89.1008 95.851 91.8709 94.2403 86.6494 96.3378C85.7644 96.6741 82.1093 98.1874 82.0474 97.6299C81.3394 91.7092 79.9234 90.3552 78.9499 86.886C78.0649 83.8239 77.0737 83.0451 76.9852 82.0185C76.8613 80.514 73.4452 77.5935 73.0292 77.0625C72.8788 76.8855 72.8965 76.8147 73.1177 76.735C83.0917 73.4871 81.5783 71.0179 80.5694 71.6109C78.5162 72.8056 69.3211 76.0978 65.0377 71.1861C60.3383 65.7876 60.2321 56.203 62.1791 56.8048C62.9838 56.9828 63.8218 56.9366 64.602 56.6713C65.3822 56.4061 66.0747 55.9319 66.6041 55.3003C67.1174 54.787 66.6041 56.7429 69.0821 57.1942C69.5954 57.2916 69.7901 56.6632 69.4804 56.5128C68.7281 56.1322 68.0201 55.9552 67.613 54.6897C67.2944 53.7073 70.3565 54.495 70.268 52.194C70.268 51.5833 69.6751 51.5656 69.5423 52.1143C69.3034 53.0613 69.5423 52.9197 68.1263 53.1852C68.0024 53.1852 67.967 53.1852 68.0113 53.0347C68.7901 50.5833 68.5423 49.8841 69.3388 49.2912C69.6838 49.0895 70.0766 48.9842 70.4762 48.9864C70.8758 48.9885 71.2674 49.0979 71.6103 49.3033C71.9531 49.5086 72.2344 49.8022 72.4249 50.1535C72.6153 50.5048 72.7079 50.9008 72.6929 51.3001C72.808 54.1941 75.6134 58.4332 78.8879 58.3093C83.5253 58.1235 84.8617 53.3445 85.7024 52.8223C86.26 52.4683 86.8441 52.6896 89.1982 54.1321C89.8885 54.5481 87.8795 58.743 91.154 60.1767C91.4992 60.3271 90.7469 60.7873 91.5877 61.0617C91.685 61.1679 92.1629 60.3448 92.924 59.7076ZM97.1632 62.4865C97.2857 62.2393 97.3366 61.9627 97.3101 61.688C97.2835 61.4133 97.1806 61.1516 97.013 60.9324C96.8454 60.7131 96.6197 60.5453 96.3616 60.4477C96.1035 60.3501 95.8232 60.3267 95.5525 60.3802C94.1188 60.69 92.5523 62.5131 93.3134 63.991C93.5701 64.4955 93.3134 65.5398 92.7824 65.6637C91.7293 65.8938 91.6585 65.3982 91.4018 65.8761C91.1452 66.354 91.7116 66.7611 92.2868 66.7611C94.1099 66.7611 94.7206 64.6725 94.1365 63.5485C94.0615 63.4259 94.0174 63.287 94.0082 63.1436C93.9989 63.0002 94.0248 62.8567 94.0834 62.7255C94.4551 61.8405 96.3047 60.1678 96.4817 62.5396C96.526 62.7874 96.9773 62.8759 97.1632 62.4865ZM69.2326 63.4866C69.2326 63.168 69.0379 62.2387 68.2945 62.221C67.4095 62.221 67.2767 63.5397 67.9139 64.1857C68.2945 64.584 69.0202 64.6725 69.2326 63.4866Z" fill="#E7BCA5"/>
<path d="M54.931 129.445C57.5152 131.215 57.117 129.524 55.8691 137.914C55.2646 141.534 54.416 145.109 53.3292 148.614C53.0814 149.34 53.4531 146.534 53.3292 143.561C53.2053 139.525 49.0458 132.781 48.6033 132.941C47.7183 133.233 49.4883 134.268 51.6477 140.251C53.1256 144.446 52.3468 150.216 51.3114 151.756C49.9662 153.738 48.798 154.579 45.4084 154.066C43.888 153.836 42.4695 153.162 41.3322 152.127C40.195 151.092 39.3899 149.743 39.0187 148.251C38.5408 146.286 37.762 144.021 38.1337 141.64C39.9037 128.896 38.8417 134.799 41.0542 137.843H41.4525C41.3286 136.879 41.2401 136.958 40.0542 133.064C39.6825 131.825 39.6736 131.648 39.2842 131.401C37.6116 130.356 37.9213 130.188 37.5939 128.418C37.3903 127.347 36.0717 127.631 36.2398 126.126C36.2858 125.702 36.223 125.273 36.0573 124.88C35.8917 124.486 35.6286 124.142 35.2929 123.878C34.6822 123.303 34.8238 121.604 35.8858 120.497C37.7797 118.533 37.9921 117.657 39.8329 116.294C40.125 116.072 40.1958 116.152 42.9216 115.515C43.5145 115.373 43.1517 115.232 44.3995 115.01C47.736 114.409 48.5767 113.24 48.5413 113.984C48.4649 114.583 48.2232 115.148 47.8434 115.617C47.4635 116.086 46.9605 116.44 46.3908 116.639C45.6734 117.057 44.914 117.398 44.1252 117.657C38.8152 118.86 39.0984 122.418 39.9657 121.4C41.0985 120.073 40.9303 119.798 41.3551 120.577C41.6737 121.161 41.5144 120.896 40.4701 121.834C39.5851 122.63 36.6292 125.02 38.0629 124.807C38.2665 124.807 38.3815 124.675 40.2577 123.099C41.5941 121.967 42.1339 120.949 46.4527 120.905C48.9396 120.905 50.8777 119.763 52.5681 119.435C53.2141 119.303 53.046 121.374 48.5148 122.595C47.526 122.991 46.5003 123.287 45.4527 123.48C44.6242 123.521 43.8252 123.801 43.1517 124.285C42.5322 124.869 42.072 125.17 42.3906 125.498C42.5056 125.622 42.6118 125.719 42.78 125.542C43.8508 124.427 44.9571 124.48 47.205 124.029C47.8776 123.896 47.736 123.56 48.8068 123.453C49.9023 123.265 50.9865 123.017 52.0548 122.71C52.9398 122.71 52.2583 124.586 47.6298 126.374C45.3907 127.259 44.3376 127.498 43.5499 128.675C43.3375 128.993 43.1605 129.471 43.5499 129.648C44.196 129.94 43.8066 128.586 46.1164 127.746C46.5147 127.604 46.612 127.569 46.7536 129.339C47.0545 133.18 45.6385 134.861 45.5235 136.419C45.5235 136.631 45.7713 136.905 46.0368 136.578C46.4387 135.712 46.7961 134.826 47.1076 133.923C49.09 127.993 44.4526 126.064 50.6476 127.967C53.4531 128.834 53.8425 128.701 54.931 129.445Z" fill="#E7BCA5"/>
<path d="M40.6041 111.47C41.8077 111.196 40.8077 113.798 38.604 115.01C36.834 116.01 36.657 116.108 36.4092 116.409C36.1614 116.709 36.4092 117.09 36.6393 117.01C38.0907 116.586 40.4979 113.993 35.5596 119.665C34.3914 121.011 34.5684 121.108 34.4091 119.922C34.4197 119.471 34.4611 119.022 34.533 118.577C34.7543 117.524 33.5949 115.037 34.8339 114.249C36.4373 113.274 38.1402 112.473 39.9138 111.86C40.127 111.702 40.3589 111.571 40.6041 111.47Z" fill="#E7BCA5"/>
<path d="M62.5879 45.8916C62.5879 45.7677 63.2959 42.3516 64.1632 41.1038C65.0305 39.8559 68.0041 36.6788 68.0041 36.6788C68.0041 36.6788 70.2166 37.8293 70.4201 35.7938C70.4201 35.7938 71.252 36.5814 72.1901 35.1212C73.1282 33.6609 75.5797 33.8114 76.4647 34.2008C77.3497 34.5902 79.7834 35.0327 81.1286 37.2894C82.4738 39.5462 87.0847 47.4138 87.9077 48.5466C88.7308 49.6794 91.3415 52.9716 89.4034 53.5292L85.8634 51.5114C85.8634 51.5114 84.6332 47.9094 81.5446 47.3961C78.4559 46.8828 74.7832 46.5731 73.2787 49.1661C73.2787 49.1661 70.3139 47.3961 68.2519 49.2812C68.2519 49.2812 67.7828 46.5111 65.2075 46.0775C62.6321 45.6438 62.5879 45.8916 62.5879 45.8916Z" fill="#E7BCA5"/>
<path d="M3.32041 62.8669L2.90445 60.3623L4.8957 62.0438L7.46221 60.8402L6.5949 63.6988L8.41801 66.3538L5.37361 65.8316L4.17001 68.522L3.40006 65.2918L0.753906 64.0351L3.32041 62.8669Z" fill="#FFEB8D"/>
<path d="M130.786 62.1138C126.653 65.406 126.211 71.716 124.131 70.2027C121.75 68.4327 120.228 66.583 120.157 63.928C120.157 63.1935 119.759 62.4766 119.051 62.7421C118.476 62.993 117.884 63.2058 117.281 63.3793C115.254 63.9103 115.334 62.0695 114.396 62.928C114.018 63.1892 113.665 63.4855 113.343 63.813C113.051 64.0785 113.192 63.928 112.52 63.4236C111.847 62.9191 110.874 63.6094 111.006 63.9988C111.071 64.0935 111.165 64.1634 111.275 64.1972C111.384 64.231 111.502 64.2265 111.608 64.1847C112.13 63.9546 112.21 64.4502 112.741 64.875C113.626 65.5918 114.325 63.2554 115.086 63.7953C116.352 64.6803 116.927 64.3794 118.856 63.7245C120.051 63.3262 117.759 65.9724 122.547 70.0345C125.202 72.309 125.653 71.5921 127.733 67.4326C128.494 65.9104 129.99 63.4324 131.344 62.6005C131.901 62.2554 132.556 62.0784 133.919 63.043C137.114 65.3086 135.689 65.8839 135.273 66.8662C135.202 67.0432 135.583 67.3618 135.751 67.1317C136.804 65.6892 136.512 66.1405 136.733 65.4414C136.353 63.2466 132.769 60.5385 130.786 62.1138Z" fill="black"/>
<path d="M129.459 50.8306C129.389 50.3881 129.247 49.9456 129.158 49.5119C129.148 49.4071 129.106 49.3079 129.038 49.2273C128.97 49.1467 128.879 49.0886 128.778 49.0606C128.433 48.9544 128.388 49.1491 127.203 50.5562C126.149 51.8041 126.778 51.5917 124.194 50.9545C124.051 50.9798 123.916 51.0366 123.798 51.1208C123.68 51.205 123.582 51.3145 123.512 51.4412C123.335 51.6979 123.353 51.7952 124.14 53.0696C124.813 54.1582 125.025 53.8927 124.707 54.3617C123.034 56.8663 122.282 57.6893 125.362 56.5654C127.132 55.9282 127.061 55.8308 127.318 56.0875C128.512 57.2822 130.158 59.3 130.256 57.6097C130.298 56.9465 130.195 56.2822 129.955 55.6627C129.831 55.0255 132.265 54.698 132.406 53.7865C132.418 53.7469 132.422 53.7054 132.417 53.6644C132.412 53.6234 132.399 53.5838 132.378 53.5481C132.358 53.5124 132.33 53.4813 132.297 53.4569C132.263 53.4324 132.225 53.4151 132.185 53.4059C128.813 52.2112 129.858 53.3794 129.459 50.8306ZM129.504 54.7865C128.619 55.4414 129.45 55.9901 129.38 56.9105C128.689 56.6185 127.911 55.1405 126.884 55.1405C125.034 55.76 124.919 56.0255 124.592 56.0255C124.698 55.3618 126.256 54.0166 125.371 53.2997C125.025 53.0342 124.167 51.7687 124.601 51.866C126.318 52.2643 126.309 52.3439 126.636 52.1138C128.362 50.9279 128.406 49.1048 128.725 51.6005C128.999 53.8484 128.442 52.928 130.928 53.8307C131.336 53.9989 130.061 54.3794 129.504 54.7865Z" fill="black"/>
<path d="M118.414 36.4409C118.485 39.9809 120.706 41.7509 116.989 41.273C111.29 40.5296 110.148 39.1578 110.688 43.2996C110.759 43.8572 110.786 43.6802 108.033 44.7953C106.653 45.3617 107.281 46.0608 108.033 45.7688C110.547 44.7422 111.653 44.5917 111.573 43.4943C111.396 41.5562 111.148 41.211 111.883 41.3349C116.848 42.1314 117.689 42.3173 118.582 42.2199C122.069 41.8482 117.627 36.2993 120.007 35.1399C121.68 34.308 122.238 35.6355 130.264 38.8304C130.707 39.0074 131.149 39.1844 131.291 38.7684C131.433 38.3525 131.026 38.3259 130.804 38.2374C122.839 34.9718 123.654 34.8125 121.954 34.2549C121.58 34.08 121.169 34.0008 120.757 34.0247C120.345 34.0485 119.945 34.1745 119.594 34.3914C119.242 34.6083 118.951 34.9092 118.745 35.267C118.539 35.6248 118.425 36.0282 118.414 36.4409Z" fill="black"/>
<path d="M121.846 25.5979C121.182 26.6865 119.643 29.0583 121.067 28.7043C121.598 28.5804 122.616 28.3857 122.837 28.2972C124.191 27.837 124.236 27.6511 124.422 27.8458C126.192 29.6158 127.457 31.554 127.369 28.3149C127.316 26.7927 126.979 26.5449 127.413 26.3767C127.988 26.1289 129.13 25.4917 129.448 25.4121C130.537 25.0846 130.59 24.3766 130.121 24.1642C129.652 23.9518 128.351 23.704 127.546 23.3589C126.262 22.7836 126.811 23.5713 125.988 20.3145C125.969 20.2176 125.919 20.1293 125.847 20.0622C125.774 19.9951 125.682 19.9526 125.584 19.9408C125.486 19.9291 125.387 19.9486 125.3 19.9966C125.214 20.0446 125.145 20.1187 125.103 20.2083C124.997 20.3499 124.625 20.8809 123.492 22.5447C123.227 22.9429 120.687 21.6066 120.271 22.1022C119.227 23.3146 122.191 25.0315 121.846 25.5979ZM122.908 23.35C123.793 23.6067 123.634 23.4828 125.245 21.3145C125.758 20.6154 125.43 23.7748 126.625 23.881C127.032 23.881 127.616 24.3766 128.563 24.589C128.639 24.6166 128.711 24.6554 128.776 24.7041C128.732 24.766 128.696 24.8457 128.634 24.8722C126.404 26.0227 126.254 25.8811 126.386 26.6422C126.723 28.7397 126.643 28.4122 126.59 28.7751C124.227 26.6334 125.165 26.9077 124.82 26.8458C124.165 26.7484 122.944 27.483 121.767 27.7308C121.359 27.7308 121.519 27.6423 122.537 25.9608C123.634 24.1465 118.165 21.996 122.908 23.35Z" fill="black"/>
<path d="M100.925 27.625C100.886 27.9705 100.919 28.3205 101.023 28.6525C101.126 28.9845 101.298 29.2912 101.527 29.5529C101.757 29.8145 102.038 30.0254 102.353 30.1719C102.669 30.3185 103.011 30.3975 103.359 30.4039C104.651 30.5189 105.173 29.4127 105.66 29.5189C106.749 29.7313 107.616 28.5277 107.651 27.6692C107.651 27.2179 107.988 26.917 108.165 26.4833C108.342 26.0497 108.112 25.7753 108.342 25.7045C108.68 25.4716 108.953 25.1555 109.135 24.7867C109.316 24.4178 109.399 24.0086 109.377 23.5982C109.377 23.4832 109.678 23.0761 109.377 22.7132C109.315 22.6336 109.616 22.1557 109.687 22.0849C109.758 22.0141 118.183 22.6867 119.661 15.2615C121.82 4.41141 104.395 0.0218134 101.147 10.4471C99.3766 16.058 103.979 19.0316 103.704 19.6069C102.987 21.0848 102.527 20.4919 102.262 21.1379C101.554 22.7752 102.262 22.5716 101.881 22.7752C100.607 23.4301 101.315 24.2354 100.872 24.5452C100.527 24.7988 100.293 25.176 100.218 25.5981C100.144 26.0201 100.236 26.4545 100.474 26.8108C100.819 27.2179 100.996 27.3064 100.925 27.625ZM103.421 29.4923C102.394 29.2445 102.271 29.2268 101.651 27.9701C101.571 27.8108 101.766 27.8374 101.934 27.9082C104.377 28.9171 105.058 29.0764 103.421 29.4923ZM103.014 17.2793C98.7571 10.5268 104.784 5.10171 109.448 5.35836C120.413 5.29641 122.776 19.7219 111.377 21.0229C109.89 21.1999 109.607 20.7751 109.147 21.368C108.315 22.5451 108.855 23.0761 108.173 22.8991C106.782 22.5436 105.456 21.9701 104.244 21.1999C103.12 20.5184 105.129 20.3149 104.545 19.0493C103.961 17.7838 103.97 18.7484 103.014 17.2793ZM103.058 21.3149C107.749 24.8549 109.607 23.0318 108.191 24.6779C107.926 24.9877 106.899 24.4655 106.51 24.3239C104.651 23.6248 101.492 22.6159 103.094 21.3149H103.058ZM101.978 23.5982C102.12 23.492 102.049 23.1911 102.253 23.2088C102.607 23.2088 102.138 23.5805 104.483 24.5186C106.828 25.4567 107.032 25.5629 107.492 25.6072C107.952 25.6514 107.439 26.6249 106.554 26.6072C105.12 26.1116 100.837 24.5363 102.014 23.5982H101.978ZM101.093 25.3682C101.483 24.7664 101.164 25.4567 103.182 26.324C105.368 27.271 106.156 27.625 106.722 27.5542C106.873 27.5542 106.864 27.6604 106.802 27.74C106.439 28.2268 106.023 28.9436 105.341 28.51C103.616 27.3064 100.2 26.8108 101.147 25.3328L101.093 25.3682Z" fill="black"/>
<path d="M118.422 80.7253C117.731 80.2828 117.997 80.2297 118.147 79.5748C118.758 76.9198 118.732 77.1057 118.696 76.9198C118.692 76.8449 118.667 76.7727 118.624 76.711C118.581 76.6494 118.522 76.6008 118.454 76.5706C118.385 76.5404 118.309 76.5297 118.235 76.5398C118.161 76.5499 118.091 76.5804 118.032 76.6278C117.147 77.3269 116.138 77.7429 115.236 78.3978C114.82 78.681 113.422 77.265 113.103 77.3889C112.634 77.5836 112.289 77.8137 112.439 78.3889C113.068 80.6634 112.873 80.4244 112.545 80.6368C111.581 81.2563 110.775 81.5218 110.837 82.3095C110.837 82.9467 112.767 82.9024 113.492 82.9113C114.218 82.9201 114.068 83.2299 114.315 83.637C115.422 85.4601 116.085 86.5132 116.634 84.4423C117.112 82.7254 116.519 82.9113 119.457 82.8139C120.714 82.7166 119.767 81.5838 118.422 80.7253ZM117.793 82.0086C116.758 82.1413 116.324 82.1679 116.209 82.7962C116.115 83.3079 115.969 83.8089 115.776 84.2919C115.73 84.2582 115.689 84.2197 115.652 84.1768C113.882 81.5749 115.253 82.2475 112.006 81.982C111.359 81.982 113.138 81.3802 113.66 80.212C113.855 79.7784 112.944 78.1588 113.457 78.442C115.015 79.2651 114.51 78.9642 114.705 79.0792C115.289 79.4421 117.023 78.0172 117.687 77.8225C117.926 79.2828 116.245 80.1678 117.829 81.2829C118.944 82.0528 118.793 81.8847 117.793 82.0086Z" fill="black"/>
<path d="M108.553 92.6998C106.04 91.3723 104.013 92.3635 100.915 90.6112C100.026 89.988 98.9441 89.6995 97.8621 89.797C97.1099 89.9917 90.5786 87.142 89.1714 84.0445C88.8736 83.2366 88.7179 82.3833 88.7112 81.5223C88.6493 80.8497 91.9592 83.7348 95.1629 82.1595C95.2459 82.1304 95.3188 82.0782 95.373 82.009C95.4272 81.9398 95.4605 81.8565 95.4689 81.769C95.4772 81.6815 95.4604 81.5934 95.4203 81.5152C95.3802 81.437 95.3185 81.3718 95.2425 81.3276C94.0822 80.8407 93.104 80.0018 92.4459 78.9292C92.3397 78.7522 92.2158 78.3982 92.6229 78.6726C96.2249 81.124 100.951 78.5044 99.5082 77.7876C98.2256 77.4624 97.0866 76.7218 96.2691 75.6813C96.0921 75.46 96.2691 75.4954 96.3753 75.5574C99.0303 76.7433 102.765 76.5751 104.871 74.5485C105.969 73.4865 102.446 73.0351 101.676 68.8933C100.907 64.7515 103.446 62.0346 103.889 54.9634C104.119 51.2818 101.376 44.4585 99.641 41.9097C94.9239 34.989 88.136 31.6083 79.6665 29.2011C77.6615 28.7396 75.5718 28.7975 73.5954 29.3692C73.2414 29.5108 73.3211 30.0949 73.7459 30.033C76.8024 29.3581 79.998 29.7517 82.7994 31.1481C86.2509 32.7765 93.0743 34.3164 98.2515 41.5999C109.615 57.5299 95.5965 65.4949 102.615 72.7696C104.093 74.3007 104.305 74.0529 103.606 74.4688C102.352 75.17 100.927 75.5053 99.4923 75.4364C98.0576 75.3676 96.671 74.8974 95.4903 74.0794C94.9416 73.7254 94.3752 74.0794 94.6673 74.7432C95.8974 77.7168 98.8887 78.1062 98.1188 78.3717C94.0478 79.7434 92.4017 77.2477 91.8264 76.9291C90.6051 76.2742 90.3839 78.9292 93.7469 81.4869C94.446 82.0179 88.5696 81.5665 88.6227 79.6461C89.1095 63.4683 87.5519 70.566 92.2512 69.9111C96.1541 69.3535 100.659 63.8223 99.579 59.9194C98.8533 57.3264 96.455 57.6273 95.8532 57.1936C90.021 53.0076 86.9235 51.7155 85.2332 49.0605C83.2331 45.9276 75.7725 44.8479 73.1441 48.5383C73.0467 48.6799 72.9671 48.7153 72.8343 48.5383C72.5912 48.2467 72.291 48.008 71.952 47.837C71.6131 47.6659 71.2428 47.5661 70.8638 47.5437C70.4848 47.5214 70.1053 47.5769 69.7486 47.7068C69.3919 47.8368 69.0656 48.0384 68.7899 48.2994C68.6748 48.4233 68.6217 48.4233 68.5775 48.2463C68.1173 46.3524 65.5419 45.4585 63.4268 45.3435C63.0993 45.3435 63.0374 45.4585 63.887 43.2549C64.0463 42.8478 64.9667 42.7593 66.3296 43.7328C67.5597 44.4939 66.7013 41.6442 64.7454 41.6884C63.8604 41.6884 67.3296 37.8918 67.8695 37.2634C68.1527 36.9448 68.2323 37.4935 68.9315 37.5555C69.2235 37.5555 69.4094 37.0953 69.0554 36.8209C64.5153 33.2809 69.3297 26.0062 73.6131 28.3515C74.4981 28.8559 74.9318 27.9178 74.0733 27.4665C71.0466 25.9885 67.6217 28.0063 66.6659 31.3162C66.542 31.7233 66.5154 31.2543 64.4534 31.7322C63.5298 31.9502 62.6805 32.4091 61.9918 33.062C61.3032 33.7149 60.7998 34.5385 60.5328 35.4492C60.413 35.867 60.1803 36.2436 59.8602 36.5377C57.8247 38.7325 58.7982 41.5291 61.1169 42.2283C61.2851 42.2814 61.9488 42.361 62.0019 42.0513C62.1435 41.538 61.7276 41.5291 61.4001 41.4318C58.3026 40.5025 60.1169 36.3342 60.462 37.8121C60.8072 39.2901 62.8073 41.1486 63.2409 40.3875C63.6746 39.6264 60.0903 38.706 61.4178 35.3872C62.4621 32.7322 66.4181 31.8472 66.4092 32.8827C66.3561 36.1572 67.8075 36.4227 67.4535 36.7944C65.6835 38.644 64.7985 39.2989 63.71 41.5999C63.6314 41.7985 63.4837 41.9619 63.294 42.0601C61.9577 42.6796 61.4621 44.7151 61.9754 44.4142C63.0728 43.6797 62.7188 43.7239 62.4444 45.0957C62.3117 45.7417 61.4267 45.1488 59.1965 46.3524C55.2228 48.5472 57.1521 53.7598 60.5328 56.0697C61.8161 56.9547 58.0017 58.1848 61.7895 67.2738C61.8073 67.3031 61.8177 67.3362 61.8198 67.3704C61.822 67.4046 61.8158 67.4388 61.8019 67.4701C61.788 67.5013 61.7668 67.5288 61.7399 67.5501C61.7131 67.5714 61.6816 67.5859 61.6479 67.5924C60.256 68.2189 58.7493 68.5504 57.2229 68.5659C56.6919 68.5128 56.7096 69.0969 56.8689 69.5217C58.1876 73.0617 61.8426 73.3891 61.1523 73.7962C58.3646 75.46 58.4265 75.1503 57.6831 75.3273C57.546 75.3407 57.4198 75.4078 57.332 75.5139C57.2441 75.62 57.2017 75.7565 57.2141 75.8937C57.1521 76.6105 57.7097 77.0176 58.4885 77.5752C61.8161 79.947 65.0906 78.4602 65.2587 78.6195C64.9967 79.5117 64.5738 80.3485 64.0109 81.0886C62.7896 82.6374 66.2676 82.8586 69.1616 81.0355C69.2139 81.0224 69.2686 81.0224 69.3209 81.0355C69.2216 81.6785 69.0797 82.3141 68.8961 82.9383C68.4713 84.3454 67.4004 83.8233 66.9933 85.2835C66.6305 86.6376 59.7629 88.5315 58.869 89.0979C58.577 89.2749 58.7894 89.4076 56.1167 83.9472C52.3289 76.2388 52.5767 76.2477 51.6032 76.5751C49.3376 77.3008 50.1252 77.6814 48.7092 74.8051C47.9835 73.3272 31.4252 77.646 26.3453 83.6905C25.2744 85.018 25.9205 85.3455 26.2833 85.018C26.4869 84.841 27.9029 82.0444 35.8679 78.6018C39.6463 76.9642 43.6348 75.8621 47.718 75.3273C48.1782 75.2742 47.9924 75.1414 48.9039 77.1592C49.134 77.6725 27.009 84.4959 26.4603 85.195C25.9116 85.8942 24.6903 85.6729 25.062 85.3897C25.1442 85.3338 25.2019 85.2486 25.2233 85.1515C25.2447 85.0544 25.2282 84.9528 25.1771 84.8676C23.4071 80.77 21.3893 80.4426 21.6371 79.5576C21.6371 79.3894 20.8583 77.5575 20.9999 77.292C21.1415 77.0265 25.3187 80.7435 25.1771 83.1949C25.1771 83.8144 26.1683 84.0799 26.009 82.9471C25.5576 79.6284 21.1415 75.1149 19.9733 76.5486C19.7697 76.7875 20.6282 78.531 20.6459 79.0531C20.0795 78.885 16.9731 76.3981 15.9908 77.6283C15.7695 77.8938 15.8757 77.9292 17.2563 80.478C17.6015 81.124 16.6103 80.3983 15.6279 79.8142C12.6809 78.0442 13.8579 79.7523 15.4244 83.071C32.8677 118.993 34.2572 121.126 34.0802 122.117C33.9903 122.647 34.0384 123.19 34.2197 123.695C34.4011 124.201 34.7097 124.651 35.1156 125.002C35.2529 125.144 35.3517 125.318 35.4028 125.509C35.4539 125.699 35.4556 125.9 35.4077 126.091C35.3103 128.277 36.8768 127.923 36.8591 129.144C36.8685 129.974 37.1836 130.771 37.7441 131.383C39.0893 132.366 38.514 130.445 37.3193 141.419C36.983 144.49 37.9388 146.995 38.4609 148.897C39.5672 152.862 43.7709 155.039 46.6914 155.092C46.9923 155.092 47.1162 154.986 46.6914 156.305C45.3374 160.544 47.0543 161.42 45.0188 164.022C44.6588 164.545 44.4505 165.158 44.417 165.792C44.4283 165.877 44.4684 165.955 44.5306 166.013C44.5927 166.072 44.6731 166.107 44.7583 166.113C44.8434 166.12 44.9281 166.096 44.9981 166.047C45.0681 165.999 45.1191 165.927 45.1427 165.845C45.5675 164.261 46.9127 163.571 46.9658 161.358C46.9658 160.969 47.0189 158.526 47.1074 158.154C47.895 154.747 47.7269 155.101 48.1782 155.03C51.0545 154.57 51.6651 152.959 53.2847 150.765C54.4175 149.225 56.8247 138.959 57.5769 131.728C57.5769 131.445 57.5769 131.153 57.8336 130.958C58.0902 130.764 59.3646 122.861 59.3381 122.108C59.3381 121.816 58.8248 121.701 58.7186 121.967C58.4265 122.666 57.984 127.002 57.4265 129.879C57.3645 130.233 57.2229 130.011 55.8954 129.073C54.1254 127.817 53.8688 128.118 51.6651 127.489C48.1251 126.454 49.0101 126.976 50.9837 125.719C53.6387 124.002 53.4617 122.4 53.1608 122.02C52.8599 121.639 51.9041 121.861 53.1608 121.498C64.8693 118.108 69.3563 116.834 70.9581 116.188C72.0644 115.763 71.8431 115.639 71.5776 115.356C71.5776 115.356 69.8961 111.94 59.1876 90.1422C59.0283 89.8059 58.931 89.9298 61.055 89.2572C61.1966 89.2572 61.2408 89.2572 61.2674 89.4076C61.7951 91.722 63.0328 93.8136 64.8074 95.3902C69.5598 99.3816 71.3033 97.9921 71.6661 98.6028C74.684 103.745 73.1441 91.6909 72.5511 128.817C72.5511 142.932 73.799 142.092 75.4805 146.225C75.6132 146.534 76.3655 149.765 76.8876 150.34C82.0649 156.473 86.2067 156.367 90.7556 152.659C94.5699 149.552 100.968 139.507 101.464 139.888C101.96 140.269 102.774 140.304 103.553 140.835C104.606 141.552 106.252 142.251 107.464 141.897C108.464 141.605 108.199 142.295 113.394 127.029C113.668 126.215 113.155 133.666 111.42 140.454C109.031 149.782 105.225 155.11 106.11 158.668C106.464 160.048 105.854 160.544 106.11 162.81C106.995 169.359 106.562 168.943 107.27 169.005C107.978 169.066 107.19 163.916 107.128 163.615C106.588 160.863 107.287 160.075 106.925 158.553C105.986 154.668 111.146 148.419 113.438 134.773C114.447 128.799 113.677 126.471 115.721 120.692C118.27 113.542 119.916 108.506 118.722 100.966C117.837 95.4522 116.129 96.7 108.553 92.6998ZM25.6638 86.5048C28.425 86.5048 24.1328 80.3983 39.2663 110.78C39.5318 111.32 38.5583 111.621 37.9919 111.727C37.6556 111.506 38.399 112.736 30.2924 96.408C25.1328 86.08 25.1328 86.496 25.6638 86.496V86.5048ZM16.92 78.2832C18.0971 78.1416 23.115 81.5665 24.3275 84.9826C22.2656 83.9571 20.2861 82.7736 18.4068 81.4426C18.2387 80.7258 17.0705 78.7965 16.92 78.2743V78.2832ZM33.6731 118.675C33.381 118.25 15.0881 80.7789 14.9642 80.4691C15.1058 80.416 14.6279 80.1771 22.3805 84.8056C24.8673 86.2924 23.4248 84.4074 27.6285 92.9388C37.4874 112.94 37.3016 112.019 36.8768 112.17C31.5756 113.984 34.2129 117.462 33.6731 118.666V118.675ZM34.4076 119.949C34.4182 119.498 34.4596 119.049 34.5315 118.604C34.7528 117.551 33.5934 115.064 34.8324 114.276C36.4358 113.301 38.1388 112.5 39.9123 111.887C40.1246 111.723 40.3565 111.586 40.6026 111.48C41.8062 111.214 40.8062 113.807 38.6025 115.02C36.8325 116.02 36.6555 116.117 36.4077 116.418C36.1599 116.719 36.4077 117.099 36.6378 117.02C38.0892 116.595 40.4964 114.002 35.5581 119.675C34.3899 121.029 34.5669 121.117 34.4076 119.94V119.949ZM41.1867 114.639C41.3372 115.011 41.2841 114.949 39.9035 115.223V115.152C40.6734 114.683 40.7885 114.152 40.9389 114.188C41.0894 114.223 41.0628 114.365 41.1867 114.666V114.639ZM48.4791 122.551C47.4904 122.947 46.4646 123.243 45.417 123.436C44.5885 123.477 43.7895 123.757 43.116 124.241C42.4965 124.825 42.0363 125.126 42.3549 125.454C42.47 125.578 42.5762 125.675 42.7443 125.498C43.8152 124.383 44.9214 124.436 47.1693 123.985C47.8419 123.852 47.7003 123.516 48.7712 123.409C49.8666 123.221 50.9509 122.973 52.0191 122.666C52.9041 122.666 52.2227 124.542 47.5941 126.33C45.3462 127.215 44.3019 127.454 43.5143 128.631C43.3019 128.949 43.1249 129.427 43.5143 129.604C44.1603 129.896 43.7709 128.542 46.0808 127.702C46.479 127.56 46.5764 127.525 46.718 129.295C47.0189 133.135 45.6029 134.817 45.4878 136.375C45.4878 136.587 45.7356 136.861 46.0011 136.534C46.2666 136.206 46.9835 134.109 47.072 133.879C49.0544 127.949 44.417 126.02 50.612 127.923C53.4528 128.808 53.8068 128.657 54.8954 129.401C57.4796 131.171 57.0813 129.48 55.8335 137.87C55.2289 141.49 54.3803 145.065 53.2935 148.57C53.0457 149.296 53.4174 146.49 53.2935 143.517C53.1696 139.481 49.0101 132.737 48.5676 132.897C47.6826 133.189 49.4526 134.224 51.612 140.207C53.09 144.402 52.3112 150.172 51.2757 151.712C49.9305 153.694 48.7623 154.535 45.3728 154.021C43.8523 153.792 42.4338 153.118 41.2966 152.083C40.1593 151.048 39.3543 149.699 38.9831 148.207C38.5052 146.242 37.7264 143.977 38.0981 141.596C39.8681 128.852 38.8061 134.755 41.0186 137.799H41.4168C41.2929 136.835 41.2044 136.914 40.0185 133.02C39.6468 131.781 39.638 131.604 39.2486 131.357C37.5759 130.312 37.8857 130.144 37.5582 128.374C37.3547 127.303 36.036 127.587 36.2042 126.082C36.2502 125.658 36.1873 125.229 36.0217 124.835C35.856 124.442 35.5929 124.098 35.2572 123.834C34.6466 123.259 34.7882 121.56 35.8502 120.453C37.7441 118.489 37.9565 117.613 39.7973 116.25C40.0893 116.028 40.1601 116.108 42.8859 115.471C43.4789 115.329 43.116 115.188 44.3639 114.966C47.7003 114.365 48.5411 113.196 48.5057 113.94C48.4293 114.538 48.1876 115.104 47.8077 115.573C47.4279 116.042 46.9249 116.396 46.3551 116.595C45.6377 117.013 44.8783 117.354 44.0895 117.613C38.7795 118.816 39.0627 122.374 39.93 121.356C41.0628 120.029 40.8947 119.754 41.3195 120.533C41.6381 121.117 41.4788 120.852 40.4345 121.79C39.5495 122.586 36.5936 124.976 38.0273 124.763C38.2308 124.763 38.3459 124.631 40.2221 123.055C41.5584 121.923 42.0983 120.905 46.4171 120.861C48.9039 120.861 50.8421 119.719 52.5324 119.391C53.1785 119.285 53.0103 121.356 48.4791 122.577V122.551ZM42.3726 120.586C42.2576 120.48 42.3107 120.648 41.8062 119.622C41.6912 119.374 41.8859 119.303 43.1249 118.922C43.2842 118.869 43.4258 119.161 43.7886 119.967C43.8683 120.179 43.7178 120.232 42.3726 120.613V120.586ZM70.3563 115.489C69.6483 115.71 53.7626 120.418 53.736 120.427C53.5502 120.48 53.3997 120.498 53.4882 120.321C53.8688 119.506 53.4882 118.312 52.4882 118.551C49.1783 119.25 49.7447 120.011 44.9657 120.02C44.6028 120.02 44.7621 120.126 44.0807 118.781C44.0099 118.639 44.0807 118.551 44.2046 118.515C45.155 118.231 46.0651 117.827 46.9127 117.312C50.0456 115.781 50.0102 111.807 47.5322 113.073C46.382 113.598 45.1634 113.958 43.9125 114.143C43.3563 114.318 42.8098 114.522 42.2753 114.754C42.0275 114.843 41.6381 113.869 41.523 113.577C41.408 113.285 42.6735 110.4 40.8593 110.444C39.3105 110.86 41.346 112.356 27.8055 85.8853C27.4515 85.195 27.0887 85.5667 32.8677 83.6551C35.213 82.8852 49.1429 78.2743 51.7625 77.3274C52.0103 77.2389 51.7625 76.8672 54.8246 83.1241C70.7634 116.064 71.0112 115.312 70.3563 115.515V115.489ZM90.0299 55.0165C90.0299 54.6625 89.8529 54.6625 94.1894 57.4768C94.7558 57.8397 93.4371 57.6892 92.0919 59.2468C91.8353 59.5477 91.8264 59.53 91.4547 59.353C89.844 58.6362 89.7998 56.8839 90.0299 55.0431V55.0165ZM74.4096 48.5472C76.1796 47.0958 81.9321 47.1312 84.1446 49.6357C86.0739 51.8305 81.2949 59.8575 76.5779 56.5564C74.3123 54.9723 72.206 50.3172 74.4096 48.5472ZM62.9754 52.5651C62.9754 52.1226 62.4798 46.6179 63.1967 46.6533C64.5427 46.6054 65.8728 46.9564 67.0199 47.6622C68.9226 48.91 66.7632 57.5299 62.1258 55.8219C61.6302 55.6272 62.94 54.4678 62.9754 52.5651ZM60.5328 47.0869C60.993 46.9453 61.4178 46.8391 61.9311 46.7152C62.0904 46.7152 62.1701 46.7152 62.1524 46.8922C61.6922 50.8836 62.9843 52.0164 61.4532 55.0785C61.2762 55.4502 61.2408 55.4679 60.9399 55.2289C57.2318 52.2022 56.1963 48.441 60.5328 47.0869ZM62.1701 56.8219C62.9747 56.9999 63.8127 56.9537 64.593 56.6885C65.3732 56.4232 66.0657 55.949 66.5951 55.3174C67.0995 54.8041 66.5951 56.76 69.0731 57.2113C69.5864 57.3087 69.7811 56.6803 69.4713 56.5299C68.7191 56.1493 68.0111 55.9723 67.604 54.7068C67.2854 53.7244 70.3475 54.5121 70.259 52.2111C70.259 51.6004 69.666 51.5827 69.5333 52.1314C69.2943 53.0784 69.5333 52.9368 68.1173 53.2023C67.9934 53.2023 67.958 53.2023 68.0022 53.0518C68.781 50.6004 68.5332 49.9012 69.3297 49.3083C69.6747 49.1066 70.0675 49.0013 70.4671 49.0035C70.8667 49.0056 71.2584 49.115 71.6012 49.3204C71.944 49.5257 72.2253 49.8193 72.4158 50.1706C72.6063 50.5219 72.6989 50.9179 72.6839 51.3172C72.7989 54.2112 75.6044 58.4503 78.8789 58.3264C83.5163 58.1406 84.8526 53.3616 85.6934 52.8394C86.2509 52.4854 86.835 52.7067 89.1891 54.1492C89.8794 54.5652 87.8705 58.7601 91.145 60.1938C91.4901 60.3442 90.7379 60.8044 91.5786 61.0788C91.7114 61.0788 92.1893 60.2911 92.9504 59.6539C96.6851 56.4945 101.101 59.061 97.3754 65.0259C96.632 66.2029 95.8886 67.2207 92.6406 68.5659C88.4192 70.3359 87.9147 59.53 87.8351 79.1859C87.8351 84.7614 88.4369 86.434 96.2691 90.2307C96.5789 90.3811 93.8619 92.4078 93.8442 92.4166C89.1272 95.7973 91.8972 94.1866 86.6757 96.2841C85.7907 96.6204 82.1357 98.1337 82.0737 97.5762C81.3657 91.6555 79.9497 90.3015 78.9762 86.8323C78.0912 83.7702 77.1 82.9914 77.0115 81.9648C76.8876 80.4603 73.4715 77.5398 73.0556 77.0088C72.9051 76.8318 72.9228 76.761 73.1441 76.6813C83.118 73.4334 81.6047 70.9642 80.5958 71.5572C78.5426 72.7519 69.3474 76.0441 65.064 71.1324C60.3116 65.8401 60.2054 56.2555 62.1524 56.8573L62.1701 56.8219ZM64.9578 81.2922C65.5809 80.1898 66.0231 78.9946 66.2676 77.7522C66.2902 77.6621 66.2839 77.5672 66.2496 77.4809C66.2153 77.3946 66.1546 77.3212 66.0763 77.2713C65.998 77.2214 65.9059 77.1974 65.8132 77.2027C65.7205 77.208 65.6318 77.2423 65.5596 77.3008C62.4887 79.3717 57.0725 76.1238 58.3557 76.0264C59.1257 75.9645 64.2941 73.5838 61.7984 72.7519C58.8513 71.7696 57.515 69.4863 57.869 69.3801C59.2514 69.2886 60.6076 68.9592 61.878 68.4066C63.0462 67.849 61.878 70.6191 67.3208 73.9732C67.0732 74.2492 66.9363 74.6069 66.9363 74.9777C66.9363 75.3485 67.0732 75.7062 67.3208 75.9822C68.843 77.8407 69.9758 78.6372 69.8961 78.8142C69.7634 79.0974 69.8961 79.4868 69.551 79.6992C68.2323 80.593 66.48 81.6019 64.9578 81.2922ZM70.7811 97.3726C66.7721 96.7443 62.8604 92.7795 62.055 89.4519C61.9046 88.8235 61.7984 88.8855 62.471 88.6554C64.4445 87.9562 65.4623 87.204 65.2145 87.6465C64.7189 88.5315 65.0729 89.6731 65.0109 90.0802C64.7808 91.6113 65.8428 92.9034 67.3739 93.7176C67.5774 93.8238 67.5066 93.8061 68.8607 93.8946C69.7457 93.6822 69.8607 93.5937 69.9669 93.8946C70.1609 94.3363 70.3121 94.7957 70.4183 95.2663C70.7723 97.2222 71.2325 97.4788 70.7723 97.408L70.7811 97.3726ZM96.6851 144.375C95.888 145.454 95.0249 146.482 94.1009 147.455C92.853 148.897 91.853 150.508 89.8794 152.021C85.2597 155.561 81.7994 154.676 77.7726 149.959C77.163 148.923 76.7294 147.792 76.4894 146.614C75.9141 144.286 74.8875 143.64 74.1707 141.003C72.2945 134.109 74.3388 100.798 74.5247 100.629C75.2858 99.9303 74.0999 100.275 72.3918 98.0452C71.0024 96.2752 71.6484 94.3813 68.8518 89.8324C68.796 89.7094 68.7128 89.6007 68.6084 89.5148C68.5041 89.4289 68.3815 89.368 68.25 89.3368C67.7102 89.2483 68.1527 89.9475 68.4005 90.4962C68.7722 91.3015 68.0111 90.7882 67.8695 90.7794C67.5066 90.7351 67.2588 91.1511 68.4978 91.8768C68.6483 91.9653 69.0554 91.9741 69.1616 92.1157C69.2655 92.3133 69.3401 92.525 69.3828 92.7441C69.3828 92.868 69.3828 92.9034 69.2678 92.9122C68.2943 93.0273 67.8695 93.2308 67.0641 92.5494C66.6039 92.16 65.7809 91.275 65.7986 90.6732C65.8428 88.9032 65.5419 88.0182 67.0641 87.1332C67.6571 86.8057 67.7633 86.2482 67.7987 85.5933C67.8606 84.3897 69.0731 85.0446 69.5687 83.4781C70.2767 81.2479 73.5158 83.2126 73.0467 81.9648C71.613 78.2035 67.1172 75.7698 67.7367 74.6901C68.3208 73.7431 70.4448 75.5043 71.0024 76.1415C72.7193 78.0796 75.8699 80.7169 76.1531 82.5577C76.3301 83.6551 77.1 84.0445 77.87 86.6287C79.2594 91.2661 80.8347 93.2397 81.0206 98.3638C81.3126 106.329 89.5343 136.897 89.5431 136.923C89.7732 137.401 90.3219 137.206 90.2954 136.702C89.9768 130.764 86.6669 124.215 87.4811 124.17C88.8234 124.077 90.1665 124.34 91.3751 124.932C92.1893 125.542 97.2161 130.011 97.6586 130.427C99.4905 132.109 101.535 132.693 102.854 134.711C103.792 136.1 104.039 134.029 96.6762 144.41L96.6851 144.375ZM70.1351 81.4161C70.5422 79.3275 70.4979 79.4071 70.7457 79.6461C71.1895 80.1331 71.5512 80.6891 71.8166 81.2922C72.0024 81.6373 71.436 81.5134 71.4272 81.478C70.1616 81.7081 70.0112 81.8143 70.082 81.4515L70.1351 81.4161ZM108.119 139.49C108.082 139.564 108.031 139.63 107.969 139.684C107.92 139.635 107.875 139.582 107.836 139.525C105.429 135.985 104.216 135.1 103.65 134.091C102.933 132.826 100.862 131.516 99.6144 130.755C98.7914 130.25 97.1895 128.604 95.924 127.604C93.0654 125.347 92.9946 123.923 88.9148 123.365C88.2953 123.277 87.3483 123.551 87.1979 123.427C87.0474 123.303 87.1979 123.091 87.9147 121.71C88.5156 120.463 89.2358 119.278 90.0653 118.17C93.7292 113.002 92.9858 113.267 94.2336 111.134C96.4284 107.347 97.0037 107.807 100.517 104.054C105.332 98.9037 105.57 98.7886 105.889 97.9744C106.031 97.5939 105.694 97.4169 105.517 97.6027C94.508 109.232 95.5611 106.895 93.3044 111.108C88.3041 120.453 91.2246 113.949 86.9589 121.639C86.5076 122.445 81.6489 100.24 82.118 98.7532C82.2507 98.3284 82.7463 99.0099 86.543 97.3992C92.2866 94.9477 89.2599 96.939 94.0655 93.399C96.4992 91.629 97.6055 89.6554 100.075 91.1334C103.261 93.045 104.411 92.2573 107.402 93.1423C108.987 93.6114 108.827 94.1335 115.474 96.8151C117.421 97.6027 117.695 99.3196 117.925 101.01C119.067 109.922 118.27 111.002 108.066 139.525L108.119 139.49Z" fill="black"/>
<path d="M105.873 13.4396C106.033 13.4396 106.148 13.4396 106.095 13.714C105.758 15.1565 107.714 16.369 107.325 17.0681C106.796 18.0799 106.423 19.166 106.219 20.2895C106.174 20.555 106.413 20.4134 106.511 20.4931C106.882 20.8117 107.059 19.1479 108.015 17.3513C108.661 16.1566 106.785 14.9618 106.829 13.9352C106.882 12.6166 107.396 13.3688 108.599 13.7494C109.272 13.9618 109.785 13.7494 109.971 14.1919C110.091 14.4283 110.292 14.6138 110.537 14.7145C110.783 14.8152 111.056 14.8244 111.307 14.7406C112.122 14.5282 111.909 15.1565 112.865 15.3601C113.821 15.5636 113.812 15.5194 113.812 15.8734C113.812 15.9973 113.812 16.13 113.662 16.1654C113.206 16.3206 112.772 16.5317 112.369 16.7938C111.865 17.0327 112.086 16.6256 111.245 17.1743C109.98 17.9974 110.192 17.4752 109.661 17.8912C108.776 18.608 106.838 20.6524 107.458 21.1391C108.077 21.6259 108.148 20.3515 109.405 19.201C110.661 18.0505 110.467 18.608 110.891 18.316C111.776 17.7673 111.9 17.6876 112.033 17.6788C112.794 17.6168 113.378 16.9796 113.954 16.9265C114.732 16.8557 114.529 16.1743 114.697 16.2274C114.865 16.2805 114.865 16.4486 114.927 16.5991C115.485 17.9885 117.219 14.714 115.883 14.2804C114.546 13.8467 114.193 14.7848 113.98 14.7317C111.927 14.2715 113.201 14.537 112.015 13.9264C111.467 13.6432 111.033 14.3069 110.591 13.6786C109.891 12.6697 110.396 13.6786 107.113 12.3688C106.882 12.2803 106.759 11.9617 106.582 11.7493C106.405 11.5369 106.13 11.5369 105.803 11.4484C104.873 11.2271 104.325 13.1476 105.873 13.4396ZM115.502 15.0238C115.777 15.1034 115.573 15.7495 115.325 15.6167C114.387 15.1388 115.175 14.9176 115.502 15.0238ZM105.767 12.1387C105.874 12.1387 106.059 12.4484 106.157 12.5989C105.67 12.9971 105.44 12.2626 105.758 12.1387H105.767Z" fill="black"/>
<path d="M112.049 108.78C109.11 110.285 105.19 113.019 96.1187 113.577C95.7735 113.577 95.4283 113.736 95.4726 114.09C95.5168 114.444 103.039 114.842 112.288 109.506C113.509 108.789 112.854 108.373 112.049 108.78Z" fill="black"/>
<path d="M97.4995 111.195C102.234 109.717 108.323 105 107.934 104.487C107.164 103.505 105.217 107.452 97.2428 110.567C96.9596 110.673 97.0835 111.107 97.4995 111.195Z" fill="black"/>
<path d="M94.1629 50.9635C94.3134 51.1228 97.8091 54.2911 98.1897 53.3087C98.3313 52.937 98.1012 52.8308 96.8799 51.9812C90.5167 47.6624 87.8175 38.9186 84.7908 37.0424C84.5872 36.9185 84.4191 37.4053 84.4987 37.5557C85.1941 38.3222 85.8246 39.1452 86.3838 40.016C90.0919 45.9455 89.1715 45.5561 94.1629 50.9635Z" fill="black"/>
<path d="M94.6154 95.8503C92.6065 97.0451 92.5622 97.6203 91.5179 98.0717C90.8276 98.3726 85.3229 100.523 85.792 101.328C86.0486 101.744 86.0044 101.408 91.987 98.7443C92.8378 98.2148 93.6483 97.6232 94.4119 96.9743C97.4386 94.7883 97.8634 94.8237 97.7129 94.3193C97.4474 93.5139 95.8013 95.1512 94.6154 95.8503Z" fill="black"/>
<path d="M92.3148 66.7249C94.1379 66.7249 94.7485 64.6363 94.1644 63.5124C94.0894 63.3898 94.0454 63.2508 94.0362 63.1074C94.0269 62.964 94.0527 62.8205 94.1114 62.6893C94.4831 61.8043 96.3327 60.1317 96.5097 62.5035C96.5097 62.7867 96.9699 62.8752 97.1646 62.5035C97.2872 62.2562 97.338 61.9796 97.3115 61.7049C97.285 61.4303 97.182 61.1685 97.0144 60.9493C96.8468 60.7301 96.6211 60.5622 96.363 60.4646C96.1049 60.367 95.8246 60.3437 95.5539 60.3972C94.1202 60.7069 92.5537 62.53 93.3148 64.008C93.5715 64.5124 93.3149 65.5567 92.7839 65.6806C91.7307 65.9107 91.6599 65.4151 91.4032 65.893C91.1466 66.3709 91.713 66.7249 92.3148 66.7249Z" fill="black"/>
<path d="M86.2 26.4205C86.2531 25.8187 86.0761 24.1283 87.5717 23.7212C88.7753 23.3849 89.4391 23.5 89.9789 22.5619C90.4391 21.7654 89.9789 21.5176 90.4126 20.6945C91.864 18.0395 91.1206 18.4466 93.0676 17.597C98.2714 15.2872 93.9526 12.3401 93.4924 13.8269C93.2534 14.5438 93.7136 14.9509 94.0234 14.2606C94.1827 13.8977 95.873 15.2075 93.8818 16.2961C92.041 17.2961 91.1471 17.2873 90.6515 18.5528C90.1559 19.8184 89.3594 20.6237 89.386 21.7919C89.386 22.6238 88.616 22.5973 87.7222 22.7743C87.0148 22.968 86.3956 23.3991 85.9686 23.9954C85.5415 24.5917 85.3326 25.3167 85.3769 26.0488C85.3946 27.6418 86.0849 27.8011 86.2 26.4205Z" fill="black"/>
<path d="M75.0477 33.5636C74.475 33.5503 73.9059 33.6586 73.3781 33.8814C72.8503 34.1041 72.3757 34.4361 71.9856 34.8557C71.4634 35.4132 71.9856 35.9177 72.5166 35.4663C72.912 35.0578 73.4034 34.7547 73.946 34.5846C74.4886 34.4146 75.0651 34.383 75.6229 34.4928C82.2427 35.3778 82.7029 43.5464 89.4732 51.6176C90.2785 52.5645 90.9069 52.2194 90.5971 51.6618C89.3477 50.119 88.1921 48.5025 87.1368 46.8209C81.5524 36.8027 81.0126 34.4486 75.0477 33.5636Z" fill="black"/>
<path d="M75.578 41.7757C75.2682 42.1032 75.0381 42.8112 75.4983 42.6607C76.1355 42.4041 76.7373 41.6518 78.3392 41.6695C80.5605 41.6695 81.3659 44.9263 81.5163 43.2714C81.3305 40.6429 78.1091 39.0588 75.578 41.7757Z" fill="black"/>
<path d="M77.1105 52.1929C77.5884 52.1929 77.6149 51.8743 77.7388 51.3876C77.5972 50.4495 76.8538 50.5026 76.6768 51.0424C76.4998 51.5823 76.5883 52.1664 77.1105 52.1929Z" fill="black"/>
<path d="M69.9417 34.7404C69.9417 35.3333 69.9417 36.413 70.5524 36.3157C71.3577 36.1918 70.0302 34.6873 71.2604 32.7757C71.3972 32.5107 71.5913 32.2795 71.8285 32.0989C72.0658 31.9183 72.3403 31.7927 72.6321 31.7314C72.7344 31.6896 72.8241 31.622 72.8924 31.5351C72.9606 31.4482 73.0051 31.3451 73.0215 31.2358C72.9773 30.0676 69.9063 31.3508 69.9417 34.7404Z" fill="black"/>
<path d="M64.0732 1.96024C64.3387 2.03104 64.7193 1.65049 65.1441 1.57969C65.7813 1.47349 67.4716 1.42039 67.7991 2.06644C68.8522 4.09309 65.2857 6.62419 64.852 9.42079C64.5777 11.1908 66.4362 11.651 69.277 12.4386C71.7285 13.1112 67.1619 16.2353 68.5602 18.1203C68.7903 18.4212 69.4452 19.0053 69.9762 19.5629C71.3125 20.9612 69.5779 22.8285 70.4541 23.0144C71.3302 23.2002 71.9763 20.2797 70.4541 18.8018C68.7637 17.1026 68.5867 17.6955 70.3833 14.5538C70.8523 13.7307 71.109 12.2882 70.0824 11.8457C69.0558 11.4032 69.1974 11.7306 66.7371 10.7748C62.9847 9.33229 70.1178 5.04889 68.4274 1.71244C68.038 0.756639 67.215 0.862839 66.091 0.756639C63.8254 0.703539 63.7458 1.87174 64.0732 1.96024Z" fill="black"/>
<path d="M69.233 63.4863C69.233 63.1677 69.0383 62.2384 68.2949 62.2207C67.4099 62.2207 67.2771 63.5394 67.9143 64.1854C68.2949 64.5837 69.0206 64.6722 69.233 63.4863Z" fill="black"/>
<path d="M66.0034 50.6967C65.9326 49.8117 65.2334 49.8117 65.1184 50.148C64.5608 51.1481 65.7202 52.0862 66.0034 50.6967Z" fill="black"/>
<path d="M50.8008 81.5035C30.6317 88.2206 31.3308 87.6985 31.9061 88.8136C36.0036 97.3361 35.862 96.9379 36.5966 97.0175C38.6144 96.4334 55.0754 90.973 55.1816 90.9199C56.3144 90.5305 55.6595 89.911 52.6328 83.7691C51.5708 81.5389 51.6062 81.238 50.8008 81.5035ZM54.624 90.2207L36.6408 96.1591C36.4284 96.1591 36.7205 96.6635 32.7203 88.7516C32.5167 88.3534 31.4459 88.8932 44.0748 84.6629C46.2696 83.9284 48.3582 83.1938 50.7035 82.4239C51.3141 82.2292 50.8274 81.6274 53.3585 86.8489C54.9603 90.2473 55.0311 90.088 54.6329 90.2207H54.624Z" fill="black"/>
<path d="M49.7713 89.5762C49.6562 89.5762 38.1955 93.1162 37.3813 93.5056C36.983 93.6738 36.6202 94.2048 37.1069 94.3287C37.2662 94.3287 50.2138 90.5497 50.8952 89.762C50.5412 89.1071 50.2403 89.5585 49.7713 89.5762Z" fill="black"/>
<path d="M39.0913 88.8059C40.5516 88.5493 40.4985 88.0802 41.3569 88.1245C42.9942 87.9032 43.6137 87.2395 45.1005 86.8678C46.5873 86.4961 47.0121 86.6023 48.1714 85.9828C48.4546 85.8412 48.6493 85.3456 48.0475 85.2217C47.9413 85.2217 47.2599 85.4252 46.2775 85.673C42.7818 86.558 42.295 87.2129 41.3923 87.1952C40.348 87.1952 40.3923 87.62 38.8347 87.9652C35.2947 88.7528 35.8699 89.0891 34.923 89.1334C34.8079 89.1334 34.6221 89.4077 34.5867 89.5139C34.507 89.8325 35.4717 90.0184 35.9319 89.7617C36.9164 89.2494 37.9879 88.9252 39.0913 88.8059Z" fill="black"/>
<path d="M42.0799 44.6437C43.372 42.9268 42.6109 43.1746 46.8678 44.6437C46.9563 44.6848 47.0557 44.6966 47.1514 44.6775C47.2471 44.6584 47.3343 44.6093 47.4003 44.5374C47.4663 44.4654 47.5077 44.3744 47.5186 44.2774C47.5295 44.1804 47.5092 44.0824 47.4607 43.9977C46.9948 42.9867 46.4565 42.0107 45.85 41.0772C45.4872 40.617 47.3545 38.6257 47.3899 37.5372C47.443 35.9353 44.1597 38.5992 43.4428 37.6611C42.8676 36.9088 41.9914 36.0769 41.4162 35.1654C41.1595 34.7494 40.6639 34.599 40.5843 35.0946C39.9028 39.6169 41.0002 38.5018 38.478 39.4753C37.0708 40.024 37.0266 40.0152 36.9469 40.4665C36.6991 41.8914 39.9913 42.0949 40.0002 42.741C40.0533 45.6526 39.9382 45.4756 40.0002 46.0863C40.0126 46.1682 40.047 46.2452 40.0996 46.3092C40.1522 46.3733 40.2211 46.4219 40.2991 46.45C40.377 46.4781 40.4611 46.4846 40.5425 46.4689C40.6238 46.4532 40.6994 46.4158 40.7613 46.3606C41.2481 45.8262 41.6892 45.2519 42.0799 44.6437ZM40.0887 41.679C37.062 40.5462 37.062 40.794 40.3896 39.5904C41.1153 39.3249 40.7701 37.7407 41.2746 36.3778C44.434 39.3337 41.7702 39.0859 46.3899 38.0239C45.7084 39.847 44.2924 40.3692 45.1066 41.3161C45.5617 41.9532 45.9558 42.6318 46.2837 43.3428C46.5049 43.7145 45.3987 43.3428 43.8322 42.7587C42.9472 42.4312 43.1508 41.7675 41.0622 44.688C40.248 45.8296 41.425 42.1746 40.0887 41.679Z" fill="black"/>
<path d="M25.0449 29.1741C25.4697 28.7139 25.4785 28.7139 25.8679 29.1741C26.2643 29.6454 26.5649 30.1895 26.7529 30.7759C26.9122 31.3423 26.3104 31.0414 26.1245 31.0503C25.2395 31.0503 25.6024 31.714 25.8237 31.8202C28.0007 32.8734 28.9389 30.3688 29.0008 31.1919C29.0982 32.307 29.0893 33.5194 29.1424 34.9797C29.1424 35.6434 29.6823 36.1479 30.1336 35.7408C30.585 35.3337 31.7886 34.1124 33.4966 32.4486C36.2932 29.7139 36.4083 29.7936 36.3729 29.2537C35.9658 23.3242 35.4879 24.8287 37.4349 22.7136C39.789 20.1736 44.5148 15.0052 46.0459 11.9077C48.4088 7.22607 49.347 2.29662 47.1433 2.04882C44.1963 1.72137 39.0721 4.29672 36.5233 6.53577C34.6955 8.10103 32.9884 9.80212 31.4168 11.6245C26.1068 17.4567 27.6114 16.5097 25.2218 16.8283C20.4163 17.4478 22.0978 16.4124 16.1241 22.926C15.3895 23.7313 15.9117 24.28 16.3896 24.28C17.824 24.1302 19.2672 24.0828 20.7084 24.1384C20.4583 24.3972 20.2745 24.7127 20.1728 25.0579C20.0711 25.4031 20.0544 25.7678 20.1243 26.1208C20.3089 26.8222 20.6788 27.4611 21.1951 27.9705C21.4872 28.1563 21.6996 27.8289 21.5845 27.4837C21.5314 27.3067 20.6199 25.9615 20.8854 25.6341C21.1509 25.3066 21.8235 25.6341 23.7793 27.1209C24.3192 27.528 23.2837 27.9174 22.4075 29.2095C21.9031 29.9706 22.797 30.36 23.0359 30.537C23.2749 30.714 23.4961 30.7494 23.735 30.5812L25.0449 29.1741ZM20.7084 35.1301C14.5134 44.8651 13.1328 55.0603 17.9118 67.7335C18.0003 67.9548 18.3012 68.9548 18.6021 68.7513C19.5579 68.1229 14.5045 60.1579 16.1683 48.4405C17.6994 37.6612 24.8147 31.4397 25.0183 30.5016C25.1245 30.0414 24.9564 29.8467 24.4077 30.0591C23.0518 31.6564 21.8154 33.3513 20.7084 35.1301ZM23.4696 25.8819C21.7438 24.5809 21.0624 25.1562 21.3898 24.5986C21.5491 24.3243 21.7084 24.0145 21.965 24.1296C23.1952 24.2358 23.62 24.7048 25.1068 25.7137C25.3635 25.8907 25.1599 26.0854 24.7528 26.4837C24.5139 26.7492 24.567 26.6961 23.505 25.8819H23.4696ZM23.3634 29.8821C22.7085 29.4307 22.4164 30.3511 30.3018 21.1648C30.6912 20.7223 31.1868 20.2798 31.4257 20.8728C31.4523 20.8993 23.4076 29.8644 23.3634 29.8821ZM28.0981 30.7671C27.3193 31.4308 28.0185 30.7671 26.6733 28.9971C26.0538 28.1829 25.9741 28.1829 26.0892 28.0501C26.806 27.2094 26.6556 26.8111 28.3725 30.1653C28.5495 30.4042 28.3725 30.537 28.1247 30.7494L28.0981 30.7671ZM30.1513 34.7673C29.8681 35.0593 30.0009 35.0505 29.6911 30.6166C29.6911 30.2007 33.2311 27.4306 34.3727 26.0677C35.5144 24.7048 35.2577 24.9349 35.6383 29.0059C35.8242 29.3688 35.7534 29.2272 30.1779 34.7496L30.1513 34.7673ZM38.4083 6.33222C40.1952 5.01339 42.2032 4.02436 44.3378 3.41172C47.692 2.52672 47.3203 3.41172 47.4796 4.73037C47.3936 5.98274 47.1191 7.21496 46.6654 8.38542C44.5326 13.5892 44.7184 13.1202 44.1343 12.0759C41.4262 7.25262 37.6827 6.78357 38.4083 6.33222ZM37.2667 7.21722C38.3995 6.14637 44.8335 12.7573 43.9042 13.9963C41.1873 17.6425 31.7355 28.2625 29.2398 29.7936C28.72 28.782 28.1285 27.809 27.4698 26.8819C27.2485 26.5545 27.222 26.7757 30.346 23.2977C32.116 21.2799 32.6204 21.0498 32.0009 20.2887C31.7354 19.9612 31.0275 19.4833 30.5761 19.9435C30.1248 20.4037 29.8769 20.7135 27.6556 23.2623C25.6112 25.5987 26.0361 25.3332 25.3104 24.7845C22.3899 22.5808 21.8677 24.3154 23.735 21.9348C27.923 16.7444 32.4336 11.8229 37.2402 7.19952L37.2667 7.21722ZM21.2571 18.4567C21.6199 18.0319 21.6199 18.1027 25.9653 17.5717C26.6467 17.4832 24.7174 19.0497 23.3102 21.1737C22.9916 21.6339 21.788 23.2446 21.319 23.3065C21.319 23.3065 16.894 23.4393 16.894 23.4127C16.7081 23.2534 19.0711 20.9967 21.2571 18.4567Z" fill="black"/>
<path d="M43.3017 89.9466C45.0717 89.4333 45.1868 89.274 45.8151 89.2652C45.9633 89.2749 46.11 89.2312 46.2286 89.1418C46.3471 89.0525 46.4297 88.9235 46.4612 88.7784C46.4612 87.7607 42.9212 89.3802 41.2485 89.6634C39.7263 89.9201 36.266 90.929 35.7615 91.4777C35.4075 91.8671 35.6022 92.0883 36.0801 92.1149C37.8501 91.5131 37.6112 91.4334 38.2484 91.2299C41.9477 90.221 39.3989 91.0706 43.3017 89.9466Z" fill="black"/>
<path d="M40.1777 61.8219C39.629 61.8927 37.8059 62.291 37.5227 62.3706C37.0006 62.5034 35.3633 58.8837 34.9474 60.2289C33.9296 63.5388 35.3279 62.999 32.7349 63.2202C31.6729 63.3087 31.6552 63.5919 31.6817 64.1052C31.6817 64.4504 31.8056 64.5212 32.4428 64.9106C35.3191 66.6806 34.0624 65.3973 33.8234 68.6718C33.8234 69.1231 34.0535 69.3356 34.4164 69.2205C35.2394 68.9462 36.5404 66.5655 37.1422 66.8753C38.0129 67.1764 38.8991 67.4305 39.7972 67.6364C40.3016 67.778 40.514 67.5124 40.4521 67.123C40.3547 66.5035 39.6733 66.2381 38.9918 64.9814C38.8414 64.6893 38.8768 64.8221 40.5671 62.7954C40.8592 62.4237 40.9919 61.7246 40.1777 61.8219ZM38.2307 65.3619C39.0538 66.8133 39.3901 66.6805 37.7882 66.3265C35.9297 65.9106 36.7705 65.7867 34.8412 67.7426C34.6111 67.9815 34.8854 67.008 34.9562 66.0876C35.0359 64.9902 32.9119 64.6362 32.6021 64.061C32.7526 64.061 32.4871 64.0609 33.85 63.9282C35.5315 63.7866 34.735 62.8396 35.4695 61.3351C36.0713 61.8484 36.6908 63.3884 37.2395 63.2733C41.7265 62.229 37.2572 63.645 38.2307 65.3619Z" fill="black"/>
<path d="M36.8696 17.4132C41.1442 17.192 40.8433 10.935 36.7369 11.0324C32.2145 11.5811 33.0376 17.5725 36.8696 17.4132ZM36.4006 11.8997C36.7452 11.8385 37.099 11.8544 37.4368 11.9462C37.7745 12.0379 38.0877 12.2033 38.354 12.4304C38.6203 12.6575 38.833 12.9407 38.977 13.2597C39.1209 13.5787 39.1924 13.9256 39.1864 14.2756C39.1804 14.6255 39.0971 14.9698 38.9423 15.2837C38.7876 15.5976 38.5653 15.8734 38.2914 16.0912C38.0175 16.3091 37.6988 16.4636 37.3581 16.5438C37.0174 16.6239 36.6632 16.6277 36.3209 16.5548C35.7828 16.4402 35.3012 16.142 34.9587 15.7114C34.6162 15.2808 34.4341 14.7445 34.4435 14.1944C34.4529 13.6443 34.6533 13.1146 35.0103 12.6959C35.3674 12.2773 35.8588 11.9958 36.4006 11.8997Z" fill="black"/>
<path d="M27.1066 76.2833C26.5225 76.3895 26.4075 77.1683 27.1597 77.1683C31.0006 77.1064 31.1953 70.1503 27.496 70.2034C27.0939 70.1886 26.6923 70.2455 26.3101 70.3715C26.257 69.8671 27.1951 67.6634 26.2039 65.9465C25.1065 64.0526 21.9294 64.1765 20.8939 66.7873C20.4964 67.9166 20.3262 69.1133 20.3931 70.3086C20.4599 71.5039 20.7624 72.6743 21.2833 73.7522C21.4869 74.1505 22.0002 73.9204 21.8763 73.3894C19.2213 65.8403 24.4162 63.8933 25.5844 66.6191C26.5579 68.8936 24.4516 71.407 25.3632 71.9291C26.0092 72.292 26.3367 70.8671 27.5845 71.0441C29.2041 71.3273 29.4961 73.0885 29.2306 74.2655C28.7793 76.2037 27.558 76.1948 27.1066 76.2833Z" fill="black"/>
<path d="M17.9462 69.5568C12.9991 61.4325 11.7512 47.2282 17.8666 35.6524C19.2732 33.1861 20.8494 30.8204 22.5836 28.5724C23.4067 27.7671 22.5836 27.3423 22.1323 27.8556C17.0081 33.9178 12.9902 42.697 12.9902 50.6089C12.9902 62.2024 15.893 67.8487 17.3444 69.5833C18.0524 70.3975 18.4153 70.3267 17.9462 69.5568Z" fill="black"/>
<path d="M13.8402 76.5483C9.4152 77.9378 9.91964 72.8048 14.3004 74.5836C14.3544 74.6164 14.415 74.6369 14.4778 74.6438C14.5406 74.6507 14.6041 74.6438 14.664 74.6236C14.7238 74.6033 14.7785 74.5703 14.8243 74.5267C14.87 74.4831 14.9057 74.43 14.9287 74.3712C15.1677 73.8314 14.6986 73.6986 14.2473 73.5482C11.8312 72.7428 14.5216 68.132 17.8669 73.7606C18.1413 74.2208 18.6103 73.9022 18.5041 73.5482C17.7961 71.0259 14.9641 69.1232 13.1941 70.6719C12.8178 70.9901 12.566 71.4311 12.4834 71.917C12.4008 72.4028 12.4927 72.9023 12.7428 73.3269C10.6542 73.38 10.0878 74.2119 9.84884 75.3005C9.37094 77.867 13.5039 78.1679 14.557 77.159C14.9641 76.7519 14.6278 76.3005 13.8402 76.5483Z" fill="black"/>
<path d="M7.83238 60.8217C7.69963 60.5562 7.61113 60.0429 7.00048 60.4146C4.51363 61.9279 5.01808 61.689 4.34548 60.9721C3.33658 59.919 3.07993 59.5119 2.57548 59.6358C2.35423 59.6977 2.40733 60.1491 2.46043 60.388C3.07108 63.22 3.26578 62.4678 2.11528 62.8926C1.84978 62.9988 1.61968 63.1227 0.539983 63.574C0.438305 63.6206 0.352143 63.6954 0.291737 63.7895C0.23133 63.8837 0.199219 63.9932 0.199219 64.105C0.199219 64.2169 0.23133 64.3264 0.291737 64.4205C0.352143 64.5146 0.438305 64.5894 0.539983 64.636C3.83218 65.8662 3.08878 65.6361 3.31003 67.0255C3.56668 68.6185 3.61093 69.0168 3.94723 69.0522C4.08433 69.0706 4.22369 69.0434 4.34371 68.9746C4.46372 68.9058 4.55767 68.7993 4.61098 68.6716C5.99158 65.3175 5.08888 66.2025 6.38098 66.4326C8.60233 66.8308 8.71739 67.0521 9.03598 66.6627C9.35459 66.2733 8.70854 65.698 8.38994 65.3352C6.30134 62.928 6.92083 64.521 7.83238 60.8217ZM7.17748 65.6626C6.70464 65.6273 6.24537 65.4883 5.83228 65.2555C4.71718 64.8927 4.71718 67.1229 4.27468 67.5034C4.16755 67.0357 4.10825 66.5583 4.09768 66.0786C4.09768 65.1051 3.56668 65.0343 1.95598 64.1493C1.60198 63.9457 2.40733 63.8661 3.31888 63.4059C4.23043 62.9457 3.50473 62.0607 3.48703 61.4412C3.48703 61.0695 4.10653 61.9633 4.49593 62.4501C5.09773 63.2023 5.16853 62.0076 6.85888 61.5031C6.57568 62.9634 5.59333 63.3439 6.54028 64.3528C7.92088 65.8308 7.54918 65.698 7.17748 65.6626Z" fill="black"/>
</svg>
