<svg xmlns="http://www.w3.org/2000/svg" viewBox="0 0 177 177" height="177" width="177"><g><path d="m79.711065 51.380445 13.29624 -7.06761 4.89759 12.495315 -12.120075 6.691485Z" fill="#ec6a7a" fill-rule="evenodd" stroke-width="0.885"></path><path d="M92.784285 76.45426499999999 102.9255 70.86195l-4.278975 -11.608545000000001 -11.447475 6.256065Z" fill="#ec6a7a" fill-rule="evenodd" stroke-width="0.885"></path><path d="m101.8281 93.84894 1.0982850000000002 -6.13128 -3.0594449999999997 2.25675Z" fill="#ec6a7a" fill-rule="evenodd" stroke-width="0.885"></path><path d="m94.012665 78.946425 8.912835 -5.605589999999999 5.363099999999999 10.036785 -9.406665 4.3365Z" fill="#ec6a7a" fill-rule="evenodd" stroke-width="0.885"></path><path d="m94.012665 46.87668 10.14387 -2.5665 -1.231035 14.943225000000002 -3.9294000000000002 0.9460649999999999Z" fill="#6cd0e6" fill-rule="evenodd" stroke-width="0.885"></path><path d="M104.76453000000001 39.185145a47.77407 47.77407 0 0 1 12.33867 -0.34692l-4.91352 15.06801H103.368Z" fill="#f5bf42" fill-rule="evenodd" stroke-width="0.885"></path><path d="M118.16962500000001 36.418635c4.3365 -0.6194999999999999 13.041360000000001 2.16294 15.211379999999998 3.404595l-5.17194 12.796215 -14.562674999999999 -4.050645Z" fill="#5bc6a7" fill-rule="evenodd" stroke-width="0.885"></path><path d="m109.74442499999999 62.816415 3.36831 -11.739525 14.248500000000002 3.834705 -4.463055 11.4519Z" fill="#5bc6a7" fill-rule="evenodd" stroke-width="0.885"></path><path d="m105.542445 80.11728000000001 3.5249550000000003 -14.661795 10.620000000000001 2.616945 -8.613705000000001 12.57939Z" fill="#5bc6a7" fill-rule="evenodd" stroke-width="0.885"></path><path d="m102.536985 94.63836 2.340825 -11.859 4.79493 0.20089500000000002Z" fill="#5bc6a7" fill-rule="evenodd" stroke-width="0.885"></path><path d="M130.30563 53.23806s7.48356 -8.88363 10.35981 -11.35101l13.421025 8.388914999999999 -9.753585000000001 12.242205Z" fill="#6cd0e6" fill-rule="evenodd" stroke-width="0.885"></path><path d="M140.19285 66.009495 149.142855 77.96849999999999l13.17588 -7.05345 -9.535875 -11.36871Z" fill="#f5bf42" fill-rule="evenodd" stroke-width="0.885"></path><path d="m127.61699999999999 72.85143 8.15085 12.87321 10.83948 -6.44634 -8.38803 -11.974935Z" fill="#f5bf42" fill-rule="evenodd" stroke-width="0.885"></path><path d="m139.476 69.092835 1.477065 -2.07267 8.18979 10.948335 -2.53995 1.3098Z" fill="#ffffff" fill-rule="evenodd" stroke-width="0.885"></path><path d="m129.71799000000001 81.35097 1.8540750000000001 -2.245245 4.204635000000001 6.23217 -2.5390650000000003 1.310685Z" fill="#ffffff" fill-rule="evenodd" stroke-width="0.885"></path><path d="m129.62949 81.461595 -8.78805 11.87139 12.491775 -6.649005Z" fill="#f5bf42" fill-rule="evenodd" stroke-width="0.885"></path><path d="M120.50956500000001 66.701565s5.6817 -8.249085 8.164125 -11.02356l14.29452 8.91726 -8.319 10.689915000000001Z" fill="#6cd0e6" fill-rule="evenodd" stroke-width="0.885"></path><path d="M111.07635 80.63146499999999s5.33655 -8.907525 7.81986 -11.681999999999999L132.75 77.53308l-8.619015000000001 11.174009999999999Z" fill="#6cd0e6" fill-rule="evenodd" stroke-width="0.885"></path><path d="M101.260815 97.0845s6.37908 -11.166045 8.532285 -14.288325l12.744 7.955265000000001 -9.5226 13.28031Z" fill="#6cd0e6" fill-rule="evenodd" stroke-width="0.885"></path><path d="m128.67369 55.678005 1.91514 -2.252325 13.74405 9.09249 -1.36467 2.077095Z" fill="#ffffff" fill-rule="evenodd" stroke-width="0.885"></path><path d="m118.97055 68.62113 1.539015 -1.919565 14.136105 8.5845 -1.36467 2.077095Z" fill="#ffffff" fill-rule="evenodd" stroke-width="0.885"></path><path d="m109.77805500000001 82.58643 1.539015 -1.92045 12.80949 8.04111 -1.36467 2.0779799999999997Z" fill="#ffffff" fill-rule="evenodd" stroke-width="0.885"></path><path d="m127.39574999999999 55.07886 5.379915 -13.19181 5.3197350000000005 2.3443650000000003 -9.901380000000001 11.446589999999999Z" fill="#ec6a7a" fill-rule="evenodd" stroke-width="0.885"></path><path d="m105.542445 80.11728000000001 -0.664635 2.6550000000000002 4.8675 0.50091 1.3336949999999999 -2.6249100000000003Z" fill="#ffffff" fill-rule="evenodd" stroke-width="0.885"></path><path d="m109.74442499999999 62.816415 -0.677025 2.6390700000000002 10.2129 2.512515 1.66557 -2.1328500000000004Z" fill="#ffffff" fill-rule="evenodd" stroke-width="0.885"></path><path d="m113.87737500000001 48.63606 -0.67614 2.6390700000000002 14.194515 3.8055 0.7965 -2.5665Z" fill="#ffffff" fill-rule="evenodd" stroke-width="0.885"></path><path d="m86.028195 63.308474999999994 11.722710000000001 -6.43926 1.045185 2.5488 -11.681999999999999 6.434835Z" fill="#ffffff" fill-rule="evenodd" stroke-width="0.885"></path><path d="m92.89933500000001 76.79675999999999 9.672165 -6.220665 -0.046905 3.22494 -8.3367 5.398499999999999Z" fill="#ffffff" fill-rule="evenodd" stroke-width="0.885"></path><path d="m98.52970499999999 87.36808500000001 3.7391249999999996 -1.935495v3.1780350000000004l-2.4479100000000003 1.156695Z" fill="#ffffff" fill-rule="evenodd" stroke-width="0.885"></path><path d="m99.06867 60.055215 4.084275 -0.871725 -0.15487499999999998 2.774475 -3.009 0.62658Z" fill="#ffffff" fill-rule="evenodd" stroke-width="0.885"></path><path d="M103.368 53.906235h8.822564999999999l-0.7876500000000001 2.774475 -8.034915 -0.21771Z" fill="#ffffff" fill-rule="evenodd" stroke-width="0.885"></path><path d="m102.5715 68.66892 5.742765 0.11328 -0.7876500000000001 2.77359 -4.9559999999999995 -0.33276Z" fill="#ffffff" fill-rule="evenodd" stroke-width="0.885"></path><path d="M102.26883000000001 83.54400000000001h2.28861l-0.717735 2.55942h-1.570875Z" fill="#ffffff" fill-rule="evenodd" stroke-width="0.885"></path><path d="M102.9255 69.10079999999999h5.206455l3.186 -12.438675 -7.955265000000001 -0.13097999999999999Z" fill="#f5bf42" fill-rule="evenodd" stroke-width="0.885"></path><path d="M102.58212 71.72571h4.96839l-2.6904 12.010335 -2.59128 -0.160185Z" fill="#f5bf42" fill-rule="evenodd" stroke-width="0.885"></path><path d="m102.29361 94.416225 1.862925 -8.0535 -1.862925 -0.160185Z" fill="#f5bf42" fill-rule="evenodd" stroke-width="0.885"></path><path d="m102.469725 69.10079999999999 0.45666 -7.23045 -3.0594449999999997 0.735435Z" fill="#6cd0e6" fill-rule="evenodd" stroke-width="0.885"></path><path d="M66.712185 108.48153c4.61793 -1.22484 14.567984999999998 -4.772805 16.59729 -9.15267 2.50809 -5.413545 3.2346749999999997 -5.903835 7.795965 -8.988945s10.0005 -6.735735 10.68018 -5.428590000000001 -2.818725 4.415265 -2.818725 4.415265l2.861205 4.3187999999999995v2.27622l-0.6549 1.229265 5.456025 3.37893s2.36118 2.28153 1.1505 2.98245 -4.220565000000001 -2.43375 -6.174645 -1.58592 -1.4160000000000001 3.32583 -5.2038 3.8417850000000002c-5.2940700000000005 0.72039 -8.15616 1.723095 -21.6825 12.334245Z" fill="#fce0d1" fill-rule="evenodd" stroke-width="0.885"></path><path d="m144.40722 62.275679999999994 -13.327214999999999 -8.97036c3.07626 -3.8055 5.5710749999999996 -6.66759 7.26408 -8.539365a0.4425 0.4425 0 1 0 -0.655785 -0.593835c-11.27313 12.46434 -24.798585 31.152000000000005 -36.83901 52.6575a0.4425 0.4425 0 0 0 0.160185 0.5964900000000001l11.28021 6.72069a0.452235 0.452235 0 0 0 0.606225 -0.15399 0.4425 0.4425 0 0 0 -0.153105 -0.606225l-10.91028 -6.500325a342.56579999999997 342.56579999999997 0 0 1 7.980930000000001 -13.490055l12.036 7.576485 -1.5567149999999998 2.01249a0.4425 0.4425 0 0 0 0.7000350000000001 0.54162c6.417135 -8.29599 15.4875 -20.01339 22.863975 -29.50944a0.4425 0.4425 0 0 0 -0.69915 -0.542505l-0.46993500000000005 0.6044550000000001L129.3339 55.4895q0.60711 -0.769065 1.18944 -1.49565c14.29098 9.619064999999999 13.428105 9.088065 13.636965 9.088065a0.4425 0.4425 0 0 0 0.24691500000000002 -0.806235ZM122.39550000000001 90.27l-12.111225000000001 -7.62516q0.45754500000000004 -0.72924 0.9115500000000001 -1.4469750000000001l12.166979999999999 7.821629999999999q-0.492945 0.6310049999999999 -0.967305 1.250505Zm1.5106950000000001 -1.9531949999999998L111.6693 80.4465c2.55942 -4.015245 5.0445 -7.7278199999999995 7.420725 -11.13153l13.166145 8.211030000000001 -8.351745 10.789035ZM132.8031 76.82685000000001l-13.203315 -8.230500000000001q0.48055500000000007 -0.68499 0.95403 -1.353165l13.309515 8.21811Zm9.339405000000001 -12.04485a17945.24235 17945.24235 0 0 0 -7.736670000000001 9.974835L121.06800000000001 66.5166c2.7824400000000002 -3.8940000000000006 5.379915 -7.3455 7.717200000000001 -10.32441Z" fill="#2e3847" stroke-width="0.885"></path><path d="m92.856855 143.620455 -10.69434 -14.243190000000002 -12.98295 20.9745s20.8329 17.554859999999998 28.058925 13.91928 17.541585 -39.804645 20.4435 -46.564275 7.824285 -6.71007 8.985405 -13.26438a51.760995 51.760995 0 0 0 0.08850000000000001 -13.792725l-5.664000000000001 3.13821s-0.75048 -9.109304999999999 -2.978025 -9.13497 -5.59674 19.545225000000002 -5.59674 19.545225000000002l-3.1311299999999997 -1.8284099999999999c-0.42834 5.25336 -0.402675 8.647335 -0.38586 10.796999999999999 -1.99656 10.02528 -9.604905 20.421375 -16.143285 30.453735Z" fill="#fce0d1" fill-rule="evenodd" stroke-width="0.885"></path><path d="M41.181705 94.398525s3.215205 -5.064855 5.18079 -8.153505c6.572010000000001 0.053985 12.19707 3.5223 16.711455 -6.47997s1.42131 -8.12076 4.2745500000000005 -9.23055 6.07641 -0.698265 3.309015 -5.472840000000001 -5.075475 -4.425 -3.37716 -8.55441 -0.41683499999999996 -5.509125 -3.087765 -12.39 -38.696625000000004 -7.447274999999999 -37.726665 13.346684999999999a36.613335 36.613335 0 0 1 1.46733 13.63608 23.97111 23.97111 0 0 1 -1.47087 6.2835c-3.162105 7.9419900000000005 -7.204785 12.062550000000002 -7.204785 12.062550000000002Z" fill="#fce0d1" fill-rule="evenodd" stroke-width="0.885"></path><path d="M155.16528 74.65152a0.4425 0.4425 0 0 0 -0.6000300000000001 -0.17700000000000002c-1.7018550000000001 0.91686 -3.54885 1.9186800000000002 -5.472840000000001 2.965635l-7.708350000000001 -10.63239a0.4425 0.4425 0 1 0 -0.7159650000000001 0.51861l7.64109 10.54035 -1.593 0.87084 -7.04283 -9.875715000000001a0.4425 0.4425 0 1 0 -0.72039 0.514185l6.98088 9.788985a3211.3906500000003 3211.3906500000003 0 0 0 -10.16511 5.5755l-3.726735 -5.68524a0.4425 0.4425 0 1 0 -0.73986 0.48498l3.6869100000000006 5.624175 -1.68858 0.9301349999999999L130.3605 81.243a0.4425 0.4425 0 0 0 -0.758445 0.45666l2.9204999999999997 4.82502a4963.16673 4963.16673 0 0 0 -12.058125 6.666705 0.4425 0.4425 0 0 0 0.215055 0.829245c0.342495 0 14.217525000000002 -7.943760000000001 34.306140000000006 -18.76731a0.4425 0.4425 0 0 0 0.179655 -0.6018Z" fill="#2e3847" stroke-width="0.885"></path><path d="M132.81372000000002 41.44455a0.4425 0.4425 0 0 0 -0.57525 0.24691500000000002 1906.657275 1906.657275 0 0 1 -4.213485 10.449195c-1.671765 -0.45666 -11.59881 -3.186 -13.82547 -3.7931099999999995 1.1177549999999998 -3.6408899999999997 2.20719 -6.836625 3.21078 -9.26241a0.4425 0.4425 0 1 0 -0.816855 -0.338955 148.9455 148.9455 0 0 0 -4.855995 14.85915l-7.8765 -0.12036000000000001c0.167265 -2.841735 0.4071 -6.454305000000001 0.68322 -9.300465a0.4425 0.4425 0 0 0 -0.39825 -0.48232500000000006 0.43542 0.43542 0 0 0 -0.47170500000000004 0.3363l-9.608445 2.6072100000000002a0.4425 0.4425 0 0 0 -0.48055500000000007 0.5973750000000001c1.04076 2.68332 2.349675 6.0649049999999995 3.6355799999999996 9.399585l-11.23242 6.16845c-2.70102 -5.25867 -4.9029 -9.66951 -5.74719 -11.668725a0.4425 0.4425 0 0 0 -0.8150850000000001 0.34338c2.34348 5.55249 15.074205000000001 29.533335 17.877 34.815015a0.4425 0.4425 0 0 0 0.78057 -0.41418000000000005 3502.72026 3502.72026 0 0 1 -3.49044 -6.59325l7.4224950000000005 -4.61262c-0.17700000000000002 4.8498 -0.321255 9.551805 -0.43719 13.642275l-1.62663 1.07439 -0.319485 -0.6000300000000001a0.4425 0.4425 0 1 0 -0.781455 0.41506499999999996c1.5106950000000001 2.838195 2.493045 4.6728000000000005 2.576235 4.82856l-0.045134999999999995 1.880625c-0.00708 0.321255 0.8283600000000001 0.374355 0.891195 0.080535 0.15222 -0.7080000000000001 1.252275 -5.783475 2.8674000000000004 -12.744l3.90462 0.319485a0.4425 0.4425 0 0 0 0.0354 -0.885l-3.737355 -0.307095 0.40621500000000005 -1.73814s5.40558 0.45312 5.41797 0.45312a0.4425 0.4425 0 0 0 0.03717 -0.885l-5.249820000000001 -0.4425c1.0159799999999999 -4.30995 2.18064 -9.1155 3.41079 -13.936095 10.58991 2.878905 9.911999999999999 2.703675 10.004925 2.703675 0.1947 0 0.35400000000000004 -0.80535 0.11593500000000001 -0.869955l-9.896955 -2.6904 0.40356000000000003 -1.56468c7.9163250000000005 2.02488 10.2129 2.6107500000000003 10.94037 2.73288 0.114165 0.018585 0.2124 -0.7965 0.2124 -0.7965 -0.16461 -0.039825 -7.06053 -1.802745 -10.930635 -2.79129 0.9823500000000001 -3.76125 1.9930199999999998 -7.4702850000000005 2.99484 -10.9032l13.49802 3.701955c-1.16289 2.82138 -1.87089 4.49226 -2.02488 4.719705a0.4425 0.4425 0 0 0 0.71862 0.5159549999999999c0.12921 -0.17700000000000002 2.808105 -4.4073 2.808105 -4.4073a0.43719 0.43719 0 0 0 0.20532 0.050445000000000004 0.4425 0.4425 0 0 0 0.20532 -0.8345549999999999l-0.7965 -0.41949c2.170905 -5.2781400000000005 5.02857 -12.43602 5.2400850000000005 -12.962595a0.4425 0.4425 0 0 0 -0.250455 -0.57702ZM94.60650000000001 47.41653l8.97921 -2.436405c-0.32922 3.6807149999999997 -0.63189 8.60043 -0.9018149999999999 14.011320000000001l-3.363 0.62658c-1.5823800000000001 -4.10463 -3.3523799999999997 -8.680964999999999 -4.714395 -12.201495000000001Zm8.03226 12.48381c-0.08319 1.7009699999999999 -0.048675 1.51512 -0.117705 1.53105l-2.310735 0.51861 -0.57171 -1.492995Zm-16.24329 3.6984150000000002 11.151 -6.1224300000000005 0.67083 1.7425650000000001 -10.99347 5.9852549999999995Zm1.2389999999999999 2.3895000000000004 10.904085 -5.93835c1.74168 4.5356250000000005 3.23733 8.46945 3.6700950000000003 9.71907l-0.023895 0.6194999999999999c-0.08850000000000001 0.041595 0.28143 -0.18762 -9.16329 5.906490000000001a1562.266605 1562.266605 0 0 1 -5.390535 -10.30494Zm6.549 12.518324999999999 -0.75225 -1.425735 8.7084 -5.618865q-0.041595 1.07793 -0.080535 2.151435Zm6.195 11.674035 1.177935 -0.7788c-0.027435 0.9912000000000001 -0.052215 1.94169 -0.07611 2.845275 -0.29647500000000004 -0.54693 -0.668175 -1.243425 -1.1053650000000002 -2.0655900000000003Zm0.15487499999999998 -27.39606 1.99125 -0.44781c-0.076995 1.6815 -0.15133500000000003 3.39132 -0.222135 5.1126450000000006a1276.93995 1276.93995 0 0 0 -1.772655 -4.6630650000000005Zm1.8585 28.559835c0.036285000000000005 -1.3434300000000001 0.080535 -2.932005 0.13186499999999998 -4.70643l0.9239400000000001 0.01239c-0.38409 1.67265 -0.73809 3.24441 -1.06023 4.69581Zm1.257585 -5.5755 -1.10448 -0.01239 0.05133 -1.6815s1.1204100000000001 0.019469999999999998 1.434585 0.020355l-0.38586 1.67442Zm0.590295 -2.560305c-0.574365 -0.0053100000000000005 -1.61247 -0.022125000000000002 -1.61247 -0.022125000000000002 0.107085 -3.4417649999999997 0.236295 -7.331340000000001 0.38763000000000003 -11.348355l3.9294000000000002 0.053985a811.400745 811.400745 0 0 0 -2.708985 11.31738Zm2.9204999999999997 -12.196185 -4.112595000000001 -0.058410000000000004 0.06548999999999999 -1.6815c1.9470000000000003 0.030090000000000002 4.31349 0.045134999999999995 4.470135 0.038055q-0.21594 0.854025 -0.42657 1.70274Zm0.64605 -2.58951c-0.75756 0 -3.54 -0.016815 -4.657755 -0.034515 0.15575999999999998 -3.8780699999999997 0.33099 -7.788000000000001 0.524805 -11.45367l7.112745000000001 0.09735a520.08795 520.08795 0 0 0 -2.983335 11.39172Zm3.222285 -12.272295000000002 -7.3074449999999995 -0.10089000000000001 0.09381 -1.6815c3.172725 0.04956 6.424215 0.13097999999999999 7.675605 0.12390000000000001 -0.15753 0.547815 -0.31151999999999996 1.101825 -0.46551000000000003 1.659375Zm16.018500000000003 -1.61778 -13.59006 -3.72585q0.24160500000000001 -0.818625 0.48232500000000006 -1.61247c9.370379999999999 2.57181 12.603285 3.463005 13.766175 3.728505q-0.34603500000000004 0.8504849999999999 -0.657555 1.6107Z" fill="#2e3847" stroke-width="0.885"></path><path d="M10.323525 171.915675s-0.521265 -14.35824 -2.202765 -46.4625 14.16 -40.54008 14.16 -40.54008a20.510759999999998 20.510759999999998 0 0 1 6.64281 0.59472c10.206705 2.661195 22.73565 4.3365 36.285000000000004 21.10548 12.252825000000001 15.163590000000001 16.95483 22.766625 16.95483 22.766625s-2.9753700000000003 14.13699 -12.98295 20.9745l7.3455 5.62683 0.38763000000000003 16.59375Z" fill="#6cd0e6" fill-rule="evenodd" stroke-width="0.885"></path><g opacity=".75"><path d="m72.50008500000001 126.79749 3.46566 3.79665 1.200945 -4.713509999999999 -4.666605 0.91686z" fill="#441668" stroke-width="0.885"></path><path d="m64.938645 152.233275 3.4674300000000002 -3.795765 -4.66749 -0.91686 1.2000600000000001 4.712625z" fill="#441668" stroke-width="0.885"></path><path d="m24.556095 155.898945 3.1107750000000003 -2.907225 -3.1107750000000003 -0.758445 0 3.6656700000000004z" fill="#441668" stroke-width="0.885"></path><path d="m9.066825 144.993975 3.6302700000000003 1.208025 -1.13457 -5.236545 -2.4957 4.028519999999999z" fill="#441668" stroke-width="0.885"></path><path d="m58.517084999999994 103.914045 3.6285 1.208025 -0.5841000000000001 -2.69748q-0.64959 -0.68853 -1.294755 -1.33635Z" fill="#441668" stroke-width="0.885"></path><path d="m29.425365000000003 134.843025 1.353165 -3.6656700000000004 -3.11166 0 1.7584950000000001 3.6656700000000004z" fill="#441668" stroke-width="0.885"></path><path d="m51.037065 167.43315 3.114315 2.58774 -0.287625 -3.9010800000000003 -2.82669 1.31334z" fill="#441668" stroke-width="0.885"></path><path d="m35.859315 144.342615 3.114315 2.588625 -0.287625 -3.9010800000000003 -2.82669 1.3124550000000001z" fill="#441668" stroke-width="0.885"></path><path d="m56.501940000000005 125.81868 1.35228 -3.6656700000000004 -3.1107750000000003 0 1.7584950000000001 3.6656700000000004z" fill="#441668" stroke-width="0.885"></path><path d="m61.012785 133.77040499999998 0.24337500000000004 3.9037349999999997 2.84085 -1.27971 -3.084225 -2.624025z" fill="#441668" stroke-width="0.885"></path><path d="m42.126885 97.687185 -3.44088 3.4072500000000003 4.98963 1.131915 -1.54875 -4.539165z" fill="#441668" stroke-width="0.885"></path><path d="m40.593180000000004 124.68942 1.7177850000000001 4.864845 2.97183 -3.74709 -4.689615000000001 -1.1177549999999998z" fill="#441668" stroke-width="0.885"></path><path d="m66.27765 116.65450499999999 0 3.6656700000000004 3.1107750000000003 -2.907225 -3.1107750000000003 -0.758445z" fill="#441668" stroke-width="0.885"></path><path d="m17.368125 124.68942 3.466545 3.7975350000000003 1.2000600000000001 -4.713509999999999 -4.666605 0.915975z" fill="#441668" stroke-width="0.885"></path><path d="m23.421525 95.857005 -2.4957 4.028519999999999 3.6302700000000003 1.2089100000000002 -1.13457 -5.23743z" fill="#441668" stroke-width="0.885"></path><path d="m12.178485 110.76306000000001 -3.11166 0 1.7584950000000001 3.664785 1.353165 -3.664785z" fill="#441668" stroke-width="0.885"></path><path d="m30.47055 113.6694 3.11166 -2.9063399999999997 -3.11166 -0.75933 0 3.6656700000000004z" fill="#441668" stroke-width="0.885"></path><path d="m46.482855 159.171675 3.466545 -3.795765 -4.666605 -0.91686 1.2000600000000001 4.712625z" fill="#441668" stroke-width="0.885"></path><path d="m21.729405 166.11981 3.1134299999999997 2.588625 -0.28674 -3.9010800000000003 -2.82669 1.3124550000000001z" fill="#441668" stroke-width="0.885"></path><path d="m69.388425 164.807355 3.11166 -2.907225 -3.11166 -0.758445 0 3.6656700000000004z" fill="#441668" stroke-width="0.885"></path><path d="m30.77853 88.24689 3.1134299999999997 2.588625 -0.28674 -3.9010800000000003 -2.82669 1.3124550000000001z" fill="#441668" stroke-width="0.885"></path></g><path d="M63.735045 59.423325c0.49560000000000004 0.050445000000000004 0.800925 1.054035 0.680565 2.241705s-0.6194999999999999 2.11161 -1.11687 2.0602799999999997 -0.800925 -1.0549199999999999 -0.680565 -2.241705 0.620385 -2.11161 1.11687 -2.0602799999999997Z" fill="#2e3847" fill-rule="evenodd" stroke-width="0.885"></path><path d="M58.525935000000004 59.206500000000005a0.4425 0.4425 0 0 1 -0.40887 -0.6115349999999999c0.029205000000000002 -0.0708 2.98068 -7.057875 8.673 -5.2746a0.4425 0.4425 0 1 1 -0.2655 0.84429c-4.920599999999999 -1.547865 -7.56321 4.703775 -7.58799 4.767494999999999a0.4425 0.4425 0 0 1 -0.41064 0.27435Z" fill="#2e3847" stroke-width="0.885"></path><path d="M60.268499999999996 74.88692999999999c-1.83903 -1.002705 -2.17002 -3.8187750000000005 -2.183295 -3.93825a0.4425 0.4425 0 0 1 0.87969 -0.098235c0 0.025665 0.29559 2.4779999999999998 1.728405 3.2603400000000002a2.79306 2.79306 0 0 0 2.625795 -0.22302 0.4425 0.4425 0 0 1 0.39382500000000004 0.7965 3.6568199999999997 3.6568199999999997 0 0 1 -3.44442 0.202665Z" fill="#2e3847" stroke-width="0.885"></path><path d="M47.42892 73.59837c-6.1065000000000005 0 -10.065104999999999 -7.843755 -7.397715 -11.95635a3.549735 3.549735 0 0 1 3.363 -1.740795c3.0975 0.34161 4.5418199999999995 3.346185 4.602 3.4736249999999997a0.4425 0.4425 0 0 1 -0.7965 0.37701c-0.013275 -0.02655 -1.301835 -2.684205 -3.8984250000000005 -2.9709450000000004 -2.40189 -0.27966 -4.72944 3.392205 -2.045235 7.9826999999999995 2.61606 4.472790000000001 6.53838 3.9417899999999997 6.704759999999999 3.919665a0.4425 0.4425 0 0 1 0.13452 0.87438 4.608195 4.608195 0 0 1 -0.666405 0.04071Z" fill="#2e3847" stroke-width="0.885"></path><path d="M47.693535 70.061025c-0.82659 -3.2267099999999997 -2.5355250000000003 -8.636715 -5.514435 -7.153455 -1.579725 0.78588 -1.30626 2.622255 -0.94164 3.48336a0.4425 0.4425 0 0 0 0.8150850000000001 -0.344265c-0.029205000000000002 -0.069915 -0.7080000000000001 -1.7354850000000002 0.52038 -2.34702a1.13457 1.13457 0 0 1 1.0487250000000001 -0.043365c0.549585 0.25134 1.300065 1.03368 2.124 3.13821a3.5152200000000002 3.5152200000000002 0 0 1 -2.4399450000000003 0.81774 0.436305 0.436305 0 0 0 -0.478785 0.402675 0.4425 0.4425 0 0 0 0.400905 0.478785 4.37721 4.37721 0 0 0 2.841735 -0.813315c0.250455 0.73278 0.50622 1.593 0.76464 2.60013a0.4425 0.4425 0 0 0 0.857565 -0.21948Z" fill="#2e3847" stroke-width="0.885"></path><path d="M66.239595 48.390029999999996C63.28989 31.669724999999996 48.401535 29.558999999999997 35.49735 35.374334999999995c-13.346684999999999 6.018 -11.663415 19.837274999999998 -9.950055 26.461499999999997a88.70620500000001 88.70620500000001 0 0 0 -12.55815 10.681065c-6.21447 6.473775000000001 -3.9648000000000003 7.6773750000000005 1.13457 7.33665 4.0887 -0.273465 10.125285 -6.412710000000001 16.59906 -12.39 3.530265 -3.2603400000000002 6.932205000000001 -6.372 7.63401 -7.01805a154.18735500000003 154.18735500000003 0 0 0 27.88281 -12.05547Z" fill="#6cd0e6" fill-rule="evenodd" stroke-width="0.885"></path><path d="M71.09736 64.938645c-2.818725 -4.8675 -4.93476 -4.31172 -3.35061 -8.164125 1.29387 -3.1461750000000004 0.18231 -4.90467 -1.356705 -8.025179999999999 -0.24780000000000002 -0.50268 -0.63366 -0.54693 -0.861105 -0.418605a146.755125 146.755125 0 0 1 -25.943775000000002 11.162505c-3.615225 1.21245 -10.36866 2.93289 -14.12106 2.2009950000000003a0.4425 0.4425 0 0 0 -0.169035 0.86907c2.537295 0.49383000000000005 6.231285000000001 0.073455 11.543054999999999 -1.3275000000000001a3585.66777 3585.66777 0 0 0 -8.788934999999999 8.111025c-5.413545 5.057775 -10.531500000000001 9.835890000000001 -13.954680000000002 10.065104999999999a0.4425 0.4425 0 0 0 0.02832 0.885c3.751515 0 10.569555 -6.61095 13.3635 -9.217274999999999a23.506485 23.506485 0 0 1 -1.438125 6.1445549999999995 45.672195 45.672195 0 0 1 -3.6373500000000005 7.233105 0.80181 0.80181 0 0 0 -0.34515 0.06372c-0.160185 0.08850000000000001 -16.06629 8.9385 -14.390100000000002 40.953375 1.661145 31.734329999999996 2.197455 46.314705 2.20188 46.4625a0.4425 0.4425 0 0 0 0.45843 0.42657 0.4425 0.4425 0 0 0 0.425685 -0.45843c0 -0.144255 -0.5398499999999999 -14.729055 -2.20188 -46.47312C6.977340000000001 95.14812 21.240000000000002 86.03616 22.410855 85.344975c3.6285 -0.28674 6.178185 0.549585 9.371265000000001 1.335465a78.21541500000001 78.21541500000001 0 0 1 12.070515 3.70461 0.4425 0.4425 0 0 0 0.6044550000000001 -0.3186l2.15232 -3.3851250000000004c7.646400000000001 -0.14514000000000002 11.859 3.26565 16.860135 -6.71892 4.11348 -8.21811 0.7434 -8.03226 5.6949749999999995 -9.42348 1.27794 -0.35400000000000004 2.484195 -0.6964950000000001 2.9036850000000003 -1.72752 0.36285 -0.89385 0.06372 -2.0886 -0.970845 -3.8727600000000004Zm0.15045 3.54c-0.37701 0.92925 -2.2656 1.062 -4.002854999999999 1.74345 -3.15237 1.231035 -1.04961 2.32047 -4.5666 9.345600000000001 -4.76307 9.512865000000001 -8.247315 6.00207 -16.32825 6.23571a0.4425 0.4425 0 0 0 -0.360195 0.204435c-0.641625 1.0071299999999999 -1.4160000000000001 2.224005 -2.16648 3.4072500000000003 -5.32062 -2.1788700000000003 -10.17042 -3.132015 -14.791889999999999 -4.3365a21.354165000000002 21.354165000000002 0 0 0 -5.5401 -0.668175 47.148375 47.148375 0 0 0 3.38247 -6.85875 24.804779999999997 24.804779999999997 0 0 0 1.570875 -7.362315000000001c0.06903 -0.06548999999999999 9.735 -8.98629 10.272195 -9.4695a150.8925 150.8925 0 0 0 26.943825 -11.447475c1.443435 2.9204999999999997 2.39481 4.425 1.26732 7.1685 -1.8204449999999999 4.425 0.664635 4.215255 3.4037100000000002 8.94381 0.84783 1.4602499999999998 1.156695 2.501895 0.915975 3.0930750000000002Z" fill="#2e3847" stroke-width="0.885"></path><path d="M112.592355 104.20698a0.4425 0.4425 0 0 1 -0.43719 -0.512415c0.928365 -5.78082 3.363 -19.225740000000002 5.89764 -19.225740000000002 2.648805 0 3.3346799999999996 11.050995 3.48159 14.43789a0.4425 0.4425 0 1 1 -0.885 0.038055c-0.285855 -6.563160000000001 -1.397415 -13.590945 -2.597475 -13.590945 -1.114215 0 -3.41433 8.463255 -5.024145 18.48057a0.4425 0.4425 0 0 1 -0.43542 0.372585Z" fill="#2e3847" stroke-width="0.885"></path><path d="M43.4535 119.87944499999999a0.4425 0.4425 0 0 1 -0.436305 -0.370815c-0.053985 -0.328335 -1.29918 -8.134920000000001 1.8036299999999998 -14.779499999999999 3.186 -6.814500000000001 10.69965 -5.788785000000001 10.77576 -5.777279999999999a0.4425 0.4425 0 0 1 -0.12921 0.875265c-0.282315 -0.04071 -6.94548 -0.931905 -9.84474 5.275485000000001 -2.98422 6.388815 -1.7443350000000002 14.180355 -1.731945 14.258235a0.4425 0.4425 0 0 1 -0.43719 0.51861Z" fill="#2e3847" stroke-width="0.885"></path><path d="M126.97626 90.26469a0.4425 0.4425 0 0 0 -0.87261 0.149565c0.01239 0.075225 1.26378 7.553475000000001 0.130095 13.953795 -0.6000300000000001 3.383355 -2.225775 4.915290000000001 -4.10817 6.6897150000000005 -4.544475 4.28163 -4.751565 5.744535 -8.134920000000001 15.745035 -4.3542 12.868785 -11.640405000000001 34.40526 -16.950405 37.0815 -6.3357149999999995 3.186 -24.184395000000002 -11.0802 -27.155340000000002 -13.514835000000001 8.213685 -5.967555 11.61828 -16.752164999999998 12.4785 -19.968255l9.516405 12.88029c1.12395 1.517775 1.43016 1.693005 2.6550000000000002 3.52761a0.4425 0.4425 0 1 0 0.735435 -0.49117500000000003 31.152000000000005 31.152000000000005 0 0 0 -1.9726650000000001 -2.6426100000000003c1.9018650000000001 -2.70987 15.506085 -22.340055 16.042395 -29.836005 0.54516 -7.595955 -0.27612 -4.44978 0.30532499999999996 -11.587305a0.4425 0.4425 0 0 0 -0.40533 -0.477015 0.45135000000000003 0.45135000000000003 0 0 0 -0.477015 0.40533c-0.59118 7.2693900000000005 0.24160500000000001 3.9612600000000002 -0.30532499999999996 11.5935 -0.50091 6.9915 -13.417485 25.842 -15.729105 29.168715000000002l-10.15095 -13.74582c-0.35400000000000004 -0.4425 -0.78057 -0.24603000000000003 -0.8504849999999999 0.08850000000000001 -0.04956 0.23364000000000001 -5.117955 23.2755 -23.238329999999998 24.220679999999998l-10.02174 -20.210745a0.4425 0.4425 0 1 0 -0.7965 0.39294l10.151835 20.47005a0.4425 0.4425 0 0 0 0.41418000000000005 0.24603000000000003 20.495715 20.495715 0 0 0 10.8855 -3.51345c0.802695 0.666405 3.370965 2.765625 6.707415 5.157780000000001a131.44905 131.44905 0 0 1 0.48940500000000003 16.238865 0.4425 0.4425 0 0 0 0.885 0.04602 128.313495 128.313495 0 0 0 -0.420375 -15.607859999999999c4.641825 3.25857 15.593700000000002 10.48725 20.647935 7.944645 5.634795 -2.8320000000000003 12.709485 -23.745435 17.391135 -37.583295 3.468315 -10.25361 3.6285 -11.357205 7.903935 -15.38484 1.91337 -1.804515 3.717 -3.50814 4.3727849999999995 -7.17912 1.1673149999999999 -6.553425000000001 -0.10974 -14.18124 -0.12301500000000001 -14.258235Z" fill="#2e3847" stroke-width="0.885"></path><path d="M106.42213500000001 99.651a0.4425 0.4425 0 0 0 -0.62481 0.62658c0.74871 0.747825 1.7974350000000001 2.0832900000000003 1.78239 2.7142950000000003 0 0.09735 -0.038055 0.121245 -0.01416 0.133635 -0.41772 0.11151 -2.227545 -0.84429 -3.15591 -1.3275000000000001 -1.5974249999999999 -0.8274750000000001 -2.912535 -1.179705 -5.277255 1.8585 -2.18595 2.8027949999999997 -5.536560000000001 0.953145 -10.92975 4.454205 -4.70289 3.05148 -12.213000000000001 8.21457 -13.916625 9.38631a396.6039 396.6039 0 0 0 -6.814500000000001 -8.769465c4.741829999999999 -1.36467 14.164425 -4.741829999999999 16.23621 -9.21285 2.45499 -5.29938 3.1452899999999997 -5.76666 7.6419749999999995 -8.808404999999999 2.779785 -1.8797400000000002 9.2925 -6.2835 10.031475 -5.6109 0.15399 0.809775 -3.4037100000000002 4.873695 -6.788835000000001 8.174745a0.4425 0.4425 0 0 0 -0.1062 0.46993500000000005c0.01416 0.03717 1.3275000000000001 3.834705 -3.2815800000000004 10.122630000000001a0.4425 0.4425 0 0 0 0.71331 0.5239199999999999c4.22676 -5.76135 3.7338150000000003 -9.614640000000001 3.480705 -10.666905000000002 2.9204999999999997 -2.862975 7.479135 -7.64994 6.776445 -9.01107a0.9177449999999999 0.9177449999999999 0 0 0 -0.6115349999999999 -0.47170500000000004c-1.49742 -0.383205 -5.38434 2.13639 -10.715580000000001 5.74011 -4.56306 3.08688 -5.385225 3.64266 -7.942875 9.165944999999999 -1.9470000000000003 4.19313 -11.5935 7.5817950000000005 -16.038855 8.834955a0.4425 0.4425 0 0 0 -0.648705 0.59826 418.713855 418.713855 0 0 1 7.5225 9.666855c0.25576499999999996 0.34161 0.49648500000000007 0.36285 0.69915 0.223905 0.08850000000000001 -0.061950000000000005 8.95266 -6.18084 14.248500000000002 -9.613755 5.257785 -3.41433 8.66061 -1.466445 11.14569 -4.652445 2.1417 -2.7435 2.963865 -2.2408200000000003 4.445355 -1.4717550000000001 1.99125 1.03368 3.24441 1.622205 3.8400150000000006 1.0823550000000002 1.09032 -0.993855 -0.654015 -3.117855 -1.696545 -4.160385Z" fill="#2e3847" stroke-width="0.885"></path><path d="M82.5705 28.834185c-0.30444 0.646935 1.848765 1.8080550000000002 2.8497000000000003 1.30095s4.1913599999999995 -6.974685 9.1332 -7.946414999999999c3.9409050000000003 -0.7752600000000001 9.904035 -1.696545 12.80949 -8.319 0.70269 -1.602735 -1.992135 -2.82138 -2.878905 -1.56468 -2.82492 4.001085 -4.418805000000001 5.21088 -10.613805000000001 6.75786 -6.21801 1.551405 -9.46419 5.87463 -11.29968 9.771285Z" fill="#f5bf42" fill-rule="evenodd" stroke-width="0.885"></path><path d="M73.374465 28.402305000000002c-0.066375 0.7080000000000001 2.353215 1.071735 3.12228 0.25399499999999997s1.570875 -7.98447 5.887905 -10.578405c3.4417649999999997 -2.068245 8.735835 -4.962195 9.21639 -12.180255 0.11593500000000001 -1.746105 -2.8320000000000003 -1.9762050000000002 -3.2391 -0.492945 -1.2965250000000001 4.7232449999999995 -2.383305 6.4029750000000005 -7.6835700000000005 9.964215000000001 -5.321505 3.5762850000000004 -6.903 8.745569999999999 -7.303905 13.033395Z" fill="#f5bf42" fill-rule="evenodd" stroke-width="0.885"></path><path d="M148.32068999999998 116.34475499999999c1.7974350000000001 0.27258 1.2805950000000001 1.22484 3.3984 2.271795s9.1155 1.76115 15.362715000000001 -8.755305 -3.6285 -20.408985 -16.615875 -13.962645c-13.39536 6.647235 -17.72655 19.622220000000002 -12.77586 21.68781 4.923255 2.054085 9.004875 -1.48857 10.63062 -1.241655Zm-5.65161 -6.372c2.4080850000000003 -1.10271 5.647185 -0.78411 3.71169 1.3425449999999999 -2.4319800000000003 2.67447 -7.538430000000001 3.44442 -7.31541 1.69035 0.128325 -1.0142099999999998 1.71513 -2.17179 3.60372 -3.036435Z" fill="#e3e5ed" fill-rule="evenodd" stroke-width="0.885"></path><path d="M150.27300000000002 95.50212c-13.47147 6.68529 -18.32481 20.166494999999998 -12.749310000000001 22.49316 5.058660000000001 2.11161 9.34737 -1.4160000000000001 10.734164999999999 -1.213335a1.8726600000000002 1.8726600000000002 0 0 1 1.386795 0.78411 5.9472 5.9472 0 0 0 4.8418350000000006 2.0355c3.337335 0 8.417235 -1.83195 12.97941 -9.516405 6.48882 -10.93506 -3.8515200000000003 -21.207255 -17.192895 -14.58303Zm0.39382500000000004 0.792075c6.0587100000000005 -3.009 12.1776 -2.5665 15.59016 1.107135a8.644680000000001 8.644680000000001 0 0 1 2.301 5.9117999999999995c-2.78775 8.963280000000001 -10.57221 13.587405 -12.6732 13.831665 -2.273565 0.2655 -3.3851250000000004 -0.1416 -5.664000000000001 -2.066475 -2.505435 -2.124 -4.82325 -0.060180000000000004 -8.642025 1.094745 -3.2001600000000003 0.9664200000000001 -4.765725 -0.096465 -5.071935 -0.34161a4.55952 4.55952 0 0 1 -0.35400000000000004 -1.7009699999999999c-0.142485 -4.34535 4.264815 -12.751965 14.51046 -17.83629Zm16.03797 13.34049c-5.983485 10.081035 -12.703289999999999 9.615525 -14.786579999999999 8.5845 -1.967355 -0.9735000000000001 -1.56468 -2.01603 -3.528495 -2.312505 -1.7788499999999998 -0.271695 -5.3577900000000005 2.92935 -9.833235 1.523085a8.82522 8.82522 0 0 0 3.2806949999999997 -0.41064c3.9081600000000005 -1.18236 5.78259 -2.98422 7.815435 -1.26555 2.18064 1.84434 3.549735 2.592165 6.333945 2.26914 2.15232 -0.24957 8.142 -3.7506300000000006 11.70147 -10.367775a14.480369999999999 14.480369999999999 0 0 1 -0.986775 1.979745Z" fill="#2e3847" stroke-width="0.885"></path><path d="M156.792795 107.551395c-1.3903349999999999 1.174395 -2.8125299999999998 1.192095 -3.130245 2.694825s1.604505 1.77 3.44265 0.86376 1.16289 0.531 4.03737 -1.0159799999999999 2.983335 -3.5957549999999996 1.310685 -3.836475 -4.303755000000001 0.14691 -5.66046 1.29387Z" fill="#ec6a7a" fill-rule="evenodd" stroke-width="0.885"></path><path d="M143.25849 102.843195c-0.869955 0.831015 -0.207975 1.32219 1.42131 1.27971s0.43542 1.062 2.1930300000000003 0.61242 4.5843 -2.544375 4.5843 -2.544375 3.3099000000000003 -2.2125 0.553125 -2.498355 -1.05315 0.36993 -3.44265 0.7000350000000001 -2.91873 0.16638 -5.309114999999999 2.450565Z" fill="#6cd0e6" fill-rule="evenodd" stroke-width="0.885"></path><path d="M161.3532 97.58629499999999c-1.799205 -0.66021 -4.8675 2.059395 -4.408185 3.241755s2.2850699999999997 -0.9522600000000001 3.032895 0.190275 2.11161 0.995625 3.32937 -0.377895 -0.307095 -1.250505 0.35400000000000004 -2.3346299999999998 -2.156745 -0.664635 -2.30808 -0.719505Z" fill="#f5bf42" fill-rule="evenodd" stroke-width="0.885"></path><path d="M155.095365 112.07285999999999c-1.4160000000000001 0 -2.0930250000000004 -0.84075 -1.86558 -1.917795 0.369045 -1.74699 1.9293000000000002 -1.802745 3.2745 -2.94174 1.431045 -1.20714 4.176315000000001 -1.6567200000000002 6.008265 -1.393875 1.9470000000000003 0.280545 2.333745 2.779785 -1.16289 4.66395 -1.623975 0.875265 -2.225775 0.869955 -2.843505 0.774375a1.6407900000000002 1.6407900000000002 0 0 0 -1.208025 0.24868500000000002 5.109105 5.109105 0 0 1 -2.202765 0.5664Zm1.9832850000000002 -4.183395c-1.402725 1.185015 -2.719605 1.204485 -2.98245 2.448795 -0.084075 0.39382500000000004 0.05487 0.55401 0.16638 0.64074 0.397365 0.30798 1.459365 0.32037 2.6470350000000002 -0.2655a2.50101 2.50101 0 0 1 1.73814 -0.330105c0.3894 0.060180000000000004 0.7965 0.124785 2.2850699999999997 -0.678795 1.6301700000000001 -0.87792 2.26206 -1.9018650000000001 2.1593999999999998 -2.4779999999999998a0.733665 0.733665 0 0 0 -0.70269 -0.531c-1.599195 -0.2301 -4.08516 0.160185 -5.310885000000001 1.193865Z" fill="#2e3847" stroke-width="0.885"></path><path d="M147.20913 109.563c-0.7080000000000001 -0.967305 -3.009 -0.77703 -4.7232449999999995 0.006195 -1.094745 0.501795 -3.663015 1.83372 -3.859485 3.37893a1.138995 1.138995 0 0 0 0.7168500000000001 1.2230699999999999c2.59482 1.192095 9.35445 -2.572695 7.86588 -4.608195Zm-7.704809999999999 3.496635c0.08850000000000001 -0.731895 1.43901 -1.8107099999999998 3.3497250000000003 -2.6850899999999998 1.646985 -0.75402 3.344415 -0.6956100000000001 3.6408899999999997 -0.29028000000000004a0.23718000000000003 0.23718000000000003 0 0 1 0.02478 0.18408 9.190725 9.190725 0 0 0 -6.884415 3.0567900000000003 0.234525 0.234525 0 0 1 -0.13097999999999999 -0.268155Zm1.17351 0.44781a8.470335 8.470335 0 0 1 5.243625 -2.35056 8.548215 8.548215 0 0 1 -5.243625 2.347905Z" fill="#2e3847" stroke-width="0.885"></path><path d="M146.202 105.285795a0.90624 0.90624 0 0 1 -0.87438 -0.51684c-0.071685 -0.126555 -0.12390000000000001 -0.216825 -0.63366 -0.20355 -1.24431 0.02655 -1.9753200000000002 -0.222135 -2.197455 -0.7549049999999999 -0.11505 -0.277005 -0.12921 -0.7257 0.45931500000000003 -1.2876750000000001 2.3399400000000004 -2.2363950000000004 2.951475 -2.2186950000000003 5.55426 -2.5665 0.938985 -0.126555 1.1328 -0.29205000000000003 1.2894450000000002 -0.42302999999999996 0.386745 -0.323025 0.7000350000000001 -0.4425 2.25852 -0.278775 0.31771499999999997 0.03186 1.28502 0.13097999999999999 1.46733 0.866415 0.23541 0.944295 -1.1947500000000002 2.020455 -1.81956 2.43906 -1.192095 0.8867700000000001 -3.999315 2.7258 -5.503815 2.7258Zm-0.1062 -0.956685c0.01593 0.02655 0.036285000000000005 0.06372 0.046905 0.07611a2.41251 2.41251 0 0 0 0.623925 -0.09912c1.6549500000000001 -0.422145 4.4019900000000005 -2.450565 4.425 -2.47092 0.866415 -0.58233 1.5045 -1.292985 1.47087 -1.5045 0 0 -0.108855 -0.138945 -0.69915 -0.199125 -1.3425449999999999 -0.13806 -1.45671 -0.043365 -1.600965 0.07787999999999999a4.454205 4.454205 0 0 1 -2.4319800000000003 0.7080000000000001c-1.79124 0.23098500000000002 -2.331975 0.29559 -4.36836 2.2408200000000003 -0.23187000000000002 0.222135 -0.24780000000000002 0.333645 -0.24780000000000002 0.333645a2.638185 2.638185 0 0 0 1.35228 0.18408 1.37883 1.37883 0 0 1 1.42662 0.65313Z" fill="#2e3847" stroke-width="0.885"></path><path d="M159.60798000000003 101.260815c-0.369045 -0.561975 -1.6567200000000002 0.6920700000000001 -2.55765 0.3009 -0.6876450000000001 -0.3009 -1.025715 -1.4160000000000001 0.420375 -2.8895250000000003 1.020405 -1.038105 2.687745 -1.9470000000000003 3.972765 -1.523085 0.804465 -0.01239 2.22666 -0.220365 2.6550000000000002 0.48498a0.8336699999999999 0.8336699999999999 0 0 1 -0.05929500000000001 0.90093c-0.15753 0.259305 -0.126555 0.314175 -0.009734999999999999 0.5194949999999999 0.252225 0.4425 0.430995 0.9558000000000001 -0.38763000000000003 1.8788550000000002 -1.577955 1.7761950000000002 -3.227595 1.56114 -4.03383 0.32745Zm0.740745 -0.48498c0.6796800000000001 1.04076 1.8151350000000002 0.48763500000000004 2.6275649999999997 -0.42922499999999997 0.46728000000000003 -0.526575 0.400905 -0.6433949999999999 0.280545 -0.85491a1.2239550000000001 1.2239550000000001 0 0 1 0.022125000000000002 -1.4160000000000001 4.602 4.602 0 0 0 -1.54344 -0.055755 1.3053750000000002 1.3053750000000002 0 0 1 -0.535425 -0.018585c-0.871725 -0.3186 -2.248785 0.42657 -3.0975 1.291215 -0.6009150000000001 0.6106499999999999 -0.829245 1.154925 -0.7434 1.37706a0.21151499999999998 0.21151499999999998 0 0 0 0.045134999999999995 0.080535c0.098235 0.052215 0.54516 -0.12744 0.75933 -0.2124 0.855795 -0.34338 1.6602599999999998 -0.56286 2.185065 0.23806500000000003Z" fill="#2e3847" stroke-width="0.885"></path><path d="M136.35903 140.85483c20.20101 26.519025 22.206419999999998 25.156125 1.75053 -1.26732Z" fill="#ec6a7a" fill-rule="evenodd" stroke-width="0.885"></path><path d="M136.35903 140.85483s-2.978025 -4.1851650000000005 -3.3895500000000003 -5.0073300000000005l0.8673 -0.7965s3.41256 3.422295 4.27278 4.54005Z" fill="#e3e5ed" fill-rule="evenodd" stroke-width="0.885"></path><path d="m133.83678 135.051 -0.8673 0.7965a7.8765 7.8765 0 0 1 -4.8028949999999995 -4.85334c-1.21245 -3.751515 -0.965535 -4.275435000000001 0.831015 -3.038205a9.830580000000001 9.830580000000001 0 0 1 4.83918 7.095045Z" fill="#ec6a7a" fill-rule="evenodd" stroke-width="0.885"></path><path d="M152.424435 159.635415c-1.4071500000000001 -0.717735 -10.05006 -11.6289 -15.438825 -18.688545l1.383255 -1.000935c0.330105 -0.23895000000000002 0.161955 -0.54516 -0.019469999999999998 -0.769065 -1.0071299999999999 -1.2389999999999999 -4.0639199999999995 -4.307295 -4.199325 -4.441815a0.4425 0.4425 0 0 0 -0.61242 -0.013275l-0.66906 0.6194999999999999a7.464975000000001 7.464975000000001 0 0 1 -4.28163 -4.480754999999999 0.4425 0.4425 0 1 0 -0.841635 0.27258 8.255279999999999 8.255279999999999 0 0 0 4.91883 5.0799c0.5194949999999999 0.903585 2.3390549999999997 3.494865 3.04971 4.501110000000001 0.86553 1.2239550000000001 14.884815 19.59921 16.624725 19.819575a0.685875 0.685875 0 0 0 0.41506499999999996 -0.108855 0.4425 0.4425 0 0 0 -0.32922 -0.78942Zm-18.60093 -23.973765c0.75402 0.76287 2.7319950000000004 2.77713 3.6453149999999996 3.8426699999999996l-1.008015 0.7301249999999999c-0.841635 -1.190325 -2.38065 -3.3957450000000002 -2.93289 -4.300215Z" fill="#2e3847" stroke-width="0.885"></path><path d="M60.10035 79.307505c0.7080000000000001 -0.13806 0.997395 1.64256 0.997395 1.64256s0.8336699999999999 -1.887705 1.71867 -2.004525 0.570825 3.2638800000000003 0.570825 3.2638800000000003 -1.0089 7.617195 -2.8842149999999998 8.16855c-1.79478 0.531 -3.41256 -1.245195 -4.03029 -4.00905 -0.85668 -3.83028 1.560255 -3.8940000000000006 1.560255 -3.8940000000000006s0.669945 -2.8939500000000002 2.06736 -3.167415Z" fill="#ff8642" fill-rule="evenodd" stroke-width="0.885"></path><path d="M62.75889 78.50658a2.5665 2.5665 0 0 0 -1.53459 1.28148c-0.23718000000000003 -0.553125 -0.6194999999999999 -1.02837 -1.2089100000000002 -0.9150900000000001 -1.3929900000000002 0.27258 -2.11161 2.39481 -2.3390549999999997 3.213435a2.2328550000000003 2.2328550000000003 0 0 0 -1.24431 0.7965c-0.6194999999999999 0.7876500000000001 -0.7469399999999999 1.992135 -0.39117 3.579825a6.17553 6.17553 0 0 0 2.44968 4.057725 2.64615 2.64615 0 0 0 2.13816 0.27966c2.047005 -0.6009150000000001 3.048825 -7.2118649999999995 3.199275 -8.551755 0.144255 -1.27617 0.20355 -3.9214350000000002 -1.06908 -3.74178Zm-2.379765 11.446589999999999c-1.806285 0.531 -3.052365 -1.792125 -3.47451 -3.6816a3.532035 3.532035 0 0 1 0.215055 -2.8320000000000003 1.3275000000000001 1.3275000000000001 0 0 1 0.9239400000000001 -0.521265 0.4425 0.4425 0 0 0 0.420375 -0.34338c0.23364000000000001 -1.004475 0.9018149999999999 -2.6550000000000002 1.705395 -2.8320000000000003a2.64969 2.64969 0 0 1 0.49206000000000005 1.27794 0.4425 0.4425 0 0 0 0.841635 0.1062c0.29205000000000003 -0.659325 0.885 -1.585035 1.3036050000000001 -1.728405 0.8071200000000001 1.392105 -0.8867700000000001 10.102274999999999 -2.427555 10.55451Z" fill="#2e3847" stroke-width="0.885"></path></g></svg>