<svg width="167" height="167" viewBox="0 0 167 167" fill="none" xmlns="http://www.w3.org/2000/svg">
<path d="M37.2468 159.832C38.3239 162.913 35.7271 162.337 29.1556 162.203C26.2832 162.145 21.8911 162.362 21.6406 162.036C21.4123 160.859 21.5016 159.642 21.8993 158.51C22.2969 157.379 22.9887 156.374 23.9035 155.598C26.7675 153.235 35.1927 154.989 35.7939 155.982C36.3951 156.976 36.8627 158.955 37.2468 159.832Z" fill="#D8E9FF"/>
<path d="M71.5335 157.822C75.8755 163.266 73.2536 162.506 70.6985 162.506C56.2029 162.506 55.585 164.535 59.5346 157.571L71.5335 157.822Z" fill="#D8E9FF"/>
<path d="M50.0973 50.1052C50.3395 50.1052 50.4731 49.9632 50.757 50.1553C48.9033 52.6603 48.0599 64.1499 48.0015 64.3503C47.7259 65.1853 48.5108 66.5964 47.3418 66.1038C47.0753 65.9774 46.7951 65.8821 46.5068 65.8199C45.3378 64.3586 47.6007 53.0527 47.8762 52.4599C48.419 51.2157 47.8428 50.4308 50.0973 50.1052Z" fill="white"/>
<path d="M80.3991 71.0802C79.8898 72.5415 77.8941 71.9152 76.3076 71.5395C53.7626 66.4042 51.2576 67.281 49.3204 66.2038C48.4854 65.7362 50.3725 52.8438 51.3745 51.2657C53.0445 48.5352 75.8651 53.946 78.9796 54.7309C82.0942 55.5158 82.9125 55.4991 83.1045 56.6848C83.4636 58.8976 81.2174 68.7422 80.3991 71.0802Z" fill="white"/>
<path d="M96.4224 110.084C96.0383 110.309 95.8128 109.933 95.4872 110.418C95.4204 110.518 89.375 113.29 89.2748 113.282C87.0954 113.106 87.8219 112.597 81.0918 110.501C77.6766 109.449 78.1943 108.781 77.9438 108.915C77.3343 109.24 69.1095 105.274 68.5417 104.623C68.2077 104.239 68.333 104.79 67.7568 104.548C65.5942 103.654 64.4669 102.878 64.6172 103.295C64.6172 103.42 63.7071 106.635 63.6987 106.635C66.4375 107.053 87.1539 113.49 87.2374 113.49C88.5901 113.432 96.9234 115.294 97.3576 115.419C98.6518 115.745 98.1508 115.695 99.6622 108.806C99.3616 108.672 96.5226 110.025 96.4224 110.084Z" fill="#8DE3A7"/>
<path d="M69.0435 126.818C69.2606 126.818 69.8785 126.534 69.653 127.118C69.5361 127.486 69.4276 127.619 69.3023 128.045C69.2896 128.139 69.2583 128.229 69.2103 128.31C69.1623 128.391 69.0985 128.462 69.0227 128.518C68.9469 128.574 68.8607 128.615 68.769 128.637C68.6774 128.659 68.5822 128.663 68.4891 128.648C68.3645 128.629 68.2474 128.576 68.15 128.496C67.315 127.661 64.2673 126.25 64.1504 125.824C65.7393 126.337 67.3805 126.67 69.0435 126.818Z" fill="#C3F6C0"/>
<path d="M70.7128 123.5C70.4456 124.536 71.0301 124.294 67.1807 122.607C64.1246 121.263 64.5839 121.045 64.2415 119.476C64.1831 119.192 64.1497 119.092 64.4419 119.108C71.9152 121.78 71.7064 119.551 70.7128 123.5Z" fill="#C3F6C0"/>
<path d="M83.6315 124.152C81.3937 132.502 81.5189 131.742 81.4521 131.759C81.3853 131.776 74.0039 129.864 73.9371 129.83C73.1773 129.538 72.0166 129.638 71.1482 129.237C70.7474 129.045 70.0961 129.363 70.3132 128.619C72.7264 121.322 71.9832 121.205 72.7681 121.196C83.3058 124.01 83.74 123.768 83.6315 124.152Z" fill="#C3F6C0"/>
<path d="M95.0379 126.683C95.1798 126.683 95.1297 126.808 94.921 127.518C92.8335 134.624 93.251 134.498 92.8836 134.398C88.8756 133.213 82.4043 132.461 82.6298 131.943C84.9427 123.159 84.6421 124.236 85.2183 124.336C87.8986 124.821 92.608 125.931 95.0379 126.683Z" fill="#C3F6C0"/>
<path d="M97.801 116.478C98.3354 116.478 96.4734 122.005 96.3064 122.481C95.3294 125.203 95.7636 125.888 94.9453 125.754C94.8618 125.754 87.3802 123.625 85.1758 123.35C84.917 123.35 87.1297 114.757 87.1381 114.674C87.3051 113.814 96.9326 116.478 97.801 116.478Z" fill="#C3F6C0"/>
<path d="M85.627 113.689C86.5372 114.09 86.103 114.992 85.3849 117.864C84.0238 123.208 84.0155 123.05 83.6397 122.949C79.8739 122.006 79.4647 122.056 76.5005 121.112C71.4905 119.509 72.4507 122.281 74.413 113.823C75.248 110.282 74.9056 110.817 76.275 111.076C76.3669 111.059 84.7586 113.313 85.627 113.689Z" fill="#C3F6C0"/>
<path d="M74.0621 111.06C73.9369 111.319 71.7909 120.02 71.507 120.045C65.9793 118.634 67.3905 118.985 68.334 118.768C69.4112 118.517 69.6199 115.294 62.1383 114.801C62.0047 114.801 61.8878 114.726 61.7459 114.801C61.6039 114.876 61.5789 114.734 61.6123 114.618C63.4159 108.046 63.4075 107.403 63.8 107.579C65.6119 108.397 74.7385 109.658 74.0621 111.06Z" fill="#C3F6C0"/>
<path d="M70.2289 94.9271C70.4042 94.9271 70.3708 95.1692 70.3207 95.3446C68.8762 100.079 68.4002 103.377 68.1163 103.361C67.5652 103.361 60.7266 100.188 60.0085 99.887C58.7643 99.3609 59.4657 99.1689 59.7997 96.3883C59.8749 95.737 60.8435 92.1465 60.9103 91.8376C61.0522 91.1445 61.1942 91.0694 61.4614 91.1779C61.4948 91.1779 69.4022 94.7183 70.2289 94.9271Z" fill="#C3F6C0"/>
<path d="M80.2341 99.228C79.491 101.007 78.0381 107.737 77.821 107.737C76.986 107.737 69.1203 104.472 69.2038 103.846C69.329 102.927 71.2078 95.7878 71.3581 95.4287C71.4416 95.4621 80.3343 98.9691 80.2341 99.228Z" fill="#C3F6C0"/>
<path d="M89.6271 103.337C91.2219 104.039 91.1551 103.88 91.0299 104.273C88.6084 112.272 89.2931 112.489 88.1241 111.946C85.4187 110.677 78.9975 109.324 79.0393 107.888C79.0894 107.663 80.9514 100.173 81.1184 99.7719C81.2854 99.3711 80.6926 99.4212 89.6271 103.337Z" fill="#C3F6C0"/>
<path d="M106.762 97.0085C104.691 105.425 104.841 104.899 104.098 105.409C103.355 105.918 100.9 106.736 101.518 106.327C101.727 106.235 102.929 99.3131 102.996 99.0543C103.347 97.9437 106.812 97.1505 106.762 97.0085Z" fill="#D8E9FF"/>
<path d="M100.356 106.377C99.9468 107.529 100.815 106.936 98.3019 108.097C95.012 109.617 96.3313 110.352 97.7424 101.417C97.7424 101.167 101.433 99.4297 101.617 99.3629C102.402 99.1208 100.581 105.767 100.356 106.377Z" fill="#D8E9FF"/>
<path d="M96.433 102.059C96.792 101.867 95.0385 108.58 94.9049 109.373C94.8465 109.716 94.6294 109.716 91.9657 110.926C89.7196 111.953 89.9283 112.596 91.3979 107.394C92.7172 102.752 90.8218 104.939 96.433 102.059Z" fill="#D8E9FF"/>
<path d="M85.6585 95.8562C86.4935 96.4156 84.5563 96.6912 84.264 96.9166C84.264 96.9166 81.3332 98.4196 81.3165 98.4196C81.2998 98.4196 71.6722 94.754 72.741 94.587C74.9037 94.2613 77.8178 92.2406 78.586 92.6832C79.5045 93.2092 84.5813 95.1965 85.6585 95.8562Z" fill="#FFEB8D"/>
<path d="M90.6886 98.0193C94.4711 100.29 97.903 100.817 94.8636 101.585C93.9028 101.935 92.9973 102.422 92.1749 103.029C91.7407 103.405 82.5724 99.0714 82.4889 99.0129C82.4054 98.9545 87.215 96.6332 87.6993 96.8503C88.1836 97.0674 90.2043 97.702 90.6886 98.0193Z" fill="#FFEB8D"/>
<path d="M104.465 96.8658C102.026 98.0348 103.354 97.7008 101.809 96.7656C97.6344 94.3107 95.1878 94.0017 94.9707 93.6928C95.0542 93.651 98.8618 92.148 99.3712 92.3568C108.848 96.1727 107.212 95.5214 104.465 96.8658Z" fill="#FFEB8D"/>
<path d="M101.841 97.9498C100.279 98.8989 98.6428 99.7199 96.9481 100.405C96.7143 99.7451 89.0824 96.1796 88.7066 96.3466C88.6231 96.2631 93.4828 94.3176 93.5663 94.3009C93.6498 94.2842 101.165 96.7558 101.841 97.9498Z" fill="#FFEB8D"/>
<path d="M97.0427 91.4294C97.7775 91.8135 96.6669 91.8887 94.4625 92.6986C93.6275 92.9992 93.377 93.3165 93.185 93.0326C92.35 91.8469 85.6282 89.7845 86.0541 89.5924C87.0963 89.1239 88.164 88.7141 89.2521 88.365C90.2792 88.365 96.0741 90.9284 97.0427 91.4294Z" fill="#FFEB8D"/>
<path d="M92.1491 93.6434C92.8839 94.0108 89.3101 94.6788 87.4898 95.6558C87.1391 95.8395 87.089 95.3552 86.1538 94.9544C80.7597 92.608 79.24 92.107 79.9831 91.8064C84.7677 89.8859 84.0412 90.0195 86.5045 90.8796C90.9383 92.4243 91.8151 93.4681 92.1491 93.6434Z" fill="#FFEB8D"/>
<path d="M87.5567 87.9393C86.4545 88.1981 84.4255 89.2419 84.2167 88.9329C83.5905 88.1647 76.66 85.7182 76.6099 85.6931C77.2236 85.4334 77.854 85.2155 78.497 85.0418C79.7912 84.7162 79.833 84.5993 80.8517 84.95C81.1105 85.0585 88.6506 87.6804 87.5567 87.9393Z" fill="#FFEB8D"/>
<path d="M78.2211 91.4117C77.8787 91.562 78.171 91.1194 76.9101 90.5767C76.9101 90.5767 71.9001 88.6478 70.3721 87.9297C70.5725 87.7126 75.1065 86.3015 75.5574 86.1846C75.5574 86.1846 79.4151 87.6041 79.5738 87.6375C80.0748 87.721 80.868 88.4725 81.6112 88.6979C84.4168 89.7333 82.3794 89.6164 78.2211 91.4117Z" fill="#FFEB8D"/>
<path d="M76.8006 91.8551C74.8993 92.7209 72.9474 93.471 70.9556 94.1013C69.9953 93.809 62.9646 90.7613 62.2549 90.3855C62.497 90.2185 67.9162 88.1728 68.9349 88.4483C70.3878 88.8742 76.6753 91.7549 76.8006 91.8551Z" fill="#FFEB8D"/>
<path d="M144.26 9.76646C145.036 10.1422 144.677 10.4762 144.527 13.9415C144.527 14.4341 144.201 19.2855 143.959 21.2978C143.7 23.4438 144.193 41.8639 142.03 41.9808C138.323 42.1812 139.183 40.7283 138.69 44.945C138.624 46.1391 136.954 45.6047 135.935 45.613C133.914 45.613 124.93 45.2874 124.846 45.279C122.733 45.1788 121.999 44.9534 121.782 45.5546C121.114 47.4166 115.536 56.109 115.678 56.4096C115.82 56.7102 116.212 56.4597 117.54 56.0171C119.51 55.3575 119.677 54.9901 118.425 56.8521C114.25 63.148 109.24 68.5421 108.948 68.6256C108.948 68.2749 111.236 65.3691 112.538 63.1898C115.928 57.5535 114.617 59.1901 112.004 59.307C111.169 59.307 115.11 53.3952 116.68 47.6671C117.907 43.1915 118.032 45.78 92.5733 44.1017C91.2289 44.0182 91.8719 42.749 91.6798 40.7116C91.6047 39.8766 90.7279 40.1939 90.2687 40.1772C89.5598 40.1705 88.855 40.0694 88.1728 39.8766C87.246 39.1251 87.8054 37.6221 87.6468 37.0543C87.5716 36.7787 88.1394 20.7217 88.2229 19.6863C89.108 8.07976 87.079 9.38236 92.1725 9.24041C93.0075 9.24041 93.0075 8.28851 93.0075 7.87101C93.3999 3.98826 93.4083 5.21571 96.6898 5.00696C100.18 4.79821 135.659 5.23241 135.743 5.23241C141.162 5.23241 140.628 5.38271 140.577 8.73941C140.527 9.90006 143.082 9.19031 144.26 9.76646ZM140.636 30.9003C141.471 29.5142 137.363 28.9882 137.555 28.2951C137.825 27.1704 137.859 26.0022 137.655 24.8633C137.655 24.3289 137.697 24.5877 140.277 23.377C141.621 22.7507 140.82 22.3332 140.051 19.8115C139.45 17.8242 138.44 18.9014 136.761 19.6445C135.835 20.062 136.235 19.6445 134.565 17.9745C133.73 17.1395 133.146 17.1395 133.33 16.7554C135.083 13.2985 135.726 13.8997 133.188 12.5804C130.39 11.0858 130.599 11.378 129.898 12.7725C128.487 15.5614 129.33 14.9017 126.992 14.7514C123.502 14.5343 124.42 15.6449 123.435 13.7494C122.249 11.4782 122.759 11.6118 120.287 12.7224C118.55 13.5073 117.782 13.5574 118.508 14.8015C119.577 16.6051 119.669 16.5383 119.41 16.7554C116.438 19.202 116.705 20.1789 116.12 19.9368C112.379 18.3753 113.373 18.7344 112.722 19.703C112.605 19.87 111.494 22.208 111.578 22.9428C111.528 23.903 114.918 24.1285 114.918 24.6128C114.692 28.0864 115.235 28.2784 114.801 28.4705C111.344 30.0236 111.586 29.3055 113.315 33.589C113.36 33.7019 113.426 33.8047 113.511 33.8916C113.596 33.9784 113.698 34.0475 113.809 34.0949C113.921 34.1423 114.041 34.167 114.163 34.1676C114.284 34.1682 114.405 34.1446 114.517 34.0984C118.433 32.5119 115.486 32.2614 119.644 35.5847C120.212 36.0356 119.11 36.6451 118.892 38.5573C118.801 39.3171 120.036 39.6094 122.633 40.578C123.66 40.9704 123.777 39.8766 124.403 37.6805C124.554 37.1795 124.562 37.8058 128.111 37.4467C128.946 37.3632 128.612 37.2547 129.681 39.8682C130.132 40.9454 130.591 40.4277 133.614 39.4424C135.743 38.741 132.712 36.1024 133.38 35.4678C136.052 32.8375 134.849 34.0566 135.509 33.2634C135.935 32.754 138.273 34.6161 138.907 34.2821C139.701 33.9147 140.602 30.9838 140.602 30.9003H140.636ZM109.791 19.8032C111.403 19.1352 111.344 19.8032 110.434 16.6803C110.192 15.8453 109.307 16.363 109.282 16.2795C107.553 16.8389 108.163 16.9141 107.086 15.3693C106.534 14.6011 106.251 14.7598 106.526 14.2838C107.403 12.6556 108.054 12.8059 106.576 11.7788C105.274 10.8353 104.956 10.5514 104.48 11.2277C102.894 13.4906 104.088 12.4385 100.506 12.4635C100.23 12.4635 100.222 12.5804 99.796 10.71C99.5873 9.79986 98.126 10.6432 97.5081 10.71C94.8862 11.1275 97.2409 12.7975 96.4811 13.4154C94.1097 15.3359 95.0031 15.194 93.1411 14.2504C92.5482 13.9582 90.3605 17.056 91.588 17.5904C93.9844 18.6425 92.9574 17.9495 93.091 20.4545C93.091 21.0724 90.586 20.897 90.8615 22.0243C91.6965 25.0386 91.4544 24.9885 93.1745 24.5293C94.6357 24.1535 93.5085 24.212 95.5542 26.1074C96.4644 26.9424 92.4814 28.5373 97.3745 29.6228C98.4016 29.8482 98.3765 27.7774 99.0445 27.9528C100.172 28.22 101.291 27.9528 101.474 28.4454C102.142 30.3242 102.059 30.5162 104.697 29.7146C106.2 29.2554 104.522 27.2096 104.973 26.9591C107.411 25.7484 105.616 25.5146 108.138 26.6502C108.53 26.8255 108.705 26.7671 108.973 26.4247C109.741 25.3643 110.876 23.9949 109.682 23.3352C108.012 22.5837 108.355 23.1348 108.589 20.5129C108.555 20.0453 108.655 20.2624 109.758 19.8032H109.791Z" fill="white"/>
<path d="M139.825 21.2161C140.485 22.7942 140.602 22.4853 139.115 23.0948C136.176 24.2972 137.178 23.8129 137.07 26.5601C136.961 29.3072 135.784 28.5808 139.575 30.2257C139.7 30.2842 139.959 30.4011 139.909 30.518C139.692 30.9856 139.024 33.7077 138.147 33.3403C135.825 32.3466 135.533 31.8957 135.032 32.6389C133.003 35.6699 131.692 34.1001 132.87 36.6385C133.763 38.559 134.331 38.5006 131.701 39.2855C129.88 39.8199 130.707 40.2958 129.237 36.9558C129.054 36.388 127.893 37.0644 125.062 36.697C123.86 36.5467 124.027 36.5801 123.083 39.4358C122.958 39.8199 122.632 39.7614 122.248 39.6111C119.201 38.4004 119.217 39.0851 119.91 37.4067C121.23 34.217 120.436 36.3296 117.33 32.2548C117.222 32.1128 117.105 32.021 116.696 32.188C113.556 33.524 114.383 34.4759 112.946 30.9021C112.596 30.0671 112.763 30.0671 112.946 29.9919C115.961 28.6977 115.694 28.9315 115.652 28.3219C115.326 23.3704 116.27 24.197 114.166 23.4956C112.061 22.7942 112.153 22.8443 112.278 22.5187C113.339 19.7214 113.481 19.4876 113.706 19.5461C114.817 19.8383 116.328 21.1409 116.971 20.2141C120.52 15.6884 120.812 17.517 119.66 15.4128C118.984 14.1854 118.708 14.0434 119.267 13.9015C120.478 13.5842 121.923 12.5989 122.048 12.7241C123.067 13.7512 123.1 15.6299 124.169 15.5047C129.755 14.845 128.628 16.849 130.014 13.9015C130.849 12.0812 130.849 12.1062 131.425 12.4235C134.114 13.7929 134.456 13.6176 133.713 14.4693C133.256 15.0556 132.893 15.7091 132.636 16.4065C132.394 16.9158 132.636 17.2916 133.103 17.6256C135.283 19.2956 135.5 20.6817 136.276 20.4479C139.416 19.5294 138.548 18.1516 139.825 21.2161ZM126.465 31.2361C133.721 31.4448 132.936 20.1389 126.123 21.1409C119.276 21.5751 120.044 31.0691 126.448 31.2528L126.465 31.2361Z" fill="#D8E9FF"/>
<path d="M129.807 23.1357C134.55 28.6717 123.962 35.2265 121.992 26.2419C122.184 22.5512 125.073 21.4991 126.943 21.7997C128.029 21.8787 129.049 22.3542 129.807 23.1357Z" fill="white"/>
<path d="M109.866 17.048C110.551 19.3025 110.626 18.86 109.499 19.2357C107.579 19.887 108.063 19.9371 107.921 20.9057C107.679 22.5757 107.412 22.9515 108.113 23.3189C109.783 24.1539 109.716 24.1539 109.541 24.4378C108.965 25.3563 108.564 26.2664 108.171 26.041C106.577 25.0974 106.602 24.9555 106.151 25.373C103.871 27.4855 103.88 25.4314 104.614 28.6211C104.664 28.8633 104.74 29.0804 104.13 29.214C102.118 29.6565 102.619 29.8653 101.984 27.9281C101.784 27.3018 101.149 27.544 100.114 27.4271C98.3101 27.2434 98.7944 26.5921 97.6087 28.7464C97.45 29.047 97.4333 29.0887 95.78 28.3957C94.8281 27.9949 97.2496 26.7257 95.9888 25.7905C94.277 24.5296 94.586 23.202 93.751 23.6445C91.8722 24.6215 92.081 23.8115 91.58 22.225C91.4798 21.891 91.3712 21.891 93.1247 21.39C93.7259 21.2147 93.5923 20.9475 93.6925 19.1606C93.776 17.8413 94.1267 18.1669 92.0643 17.1733C91.6635 16.9812 91.58 17.1148 92.6822 15.2194C92.8325 14.9605 92.774 14.852 94.3522 15.7037C94.9033 16.0043 94.8699 15.5617 97.1661 13.7414C97.5168 13.4659 97.4333 13.3239 97.2329 12.8396C96.6401 11.3951 96.6818 11.6456 98.6023 11.0444C99.0031 10.9191 99.1117 10.9108 99.1534 11.0444C100.164 14.2925 99.6795 12.3637 103.078 13.3239C103.746 13.516 103.846 13.1319 104.222 12.5975C105.216 11.203 104.74 11.2531 106.643 12.6476C106.852 12.7979 106.643 12.873 106.051 13.7331C105.357 14.7518 105.7 14.6599 106.693 16.0293C107.445 17.0564 107.528 17.6158 108.572 17.1816C108.781 17.0898 109.783 16.7725 109.866 17.048ZM101.575 23.728C102.473 23.5363 103.266 23.0129 103.796 22.2622C104.325 21.5115 104.552 20.5888 104.431 19.6783C103.153 15.1526 97.425 16.188 97.4417 20.2043C97.4417 22.4755 99.1701 24.2958 101.575 23.7447V23.728Z" fill="#D8E9FF"/>
<path d="M98.1849 19.3753C99.1284 16.1773 103.88 17.1125 103.838 20.0767C103.763 24.5857 96.8405 23.9344 98.1849 19.3753Z" fill="white"/>
<path d="M75.0895 39.5353C78.5213 43.1341 81.3687 48.5032 81.0681 52.77C80.9595 54.2313 81.5106 54.1144 76.2334 52.8953C70.0711 51.4758 56.0348 48.8622 49.7138 49.0543C46.0565 49.1712 46.1066 56.8699 45.806 57.6631C45.806 64.2596 41.8815 67.2573 51.2168 67.8752C55.3918 68.1424 78.2374 72.7933 78.2374 73.3277C78.049 74.964 77.7222 76.5813 77.2605 78.1624C76.7595 79.6737 76.8764 78.6884 75.6907 78.5047L68.017 76.5592C67.6997 76.4673 44.5118 72.6514 44.0776 72.7599C44.0175 72.7766 43.954 72.7766 43.8939 72.7599C43.4513 72.476 43.1424 72.7599 41.3889 72.5011C30.275 70.8311 32.2039 71.4824 30.2166 71.3488C29.0142 71.2653 28.246 72.4844 28.2209 70.2048C28.2168 69.7468 28.2672 69.2899 28.3712 68.8438C28.9808 66.1384 28.1708 68.134 33.9657 67.2489C34.6197 67.2932 35.2743 67.1726 35.8695 66.8982C38.7586 65.5956 40.5789 47.5346 39.9944 45.8646C39.1594 43.3596 32.7967 43.2176 32.8802 42.8586C33.6735 39.3683 41.2302 33.5984 46.5074 33.0139C56.3604 31.9284 68.0421 32.1288 75.0895 39.5353Z" fill="#D8E9FF"/>
<path d="M72.6511 142.867C73.4861 148.278 72.6511 148.754 71.4153 150.616C71.2733 150.825 71.1147 150.616 70.1544 150.182C67.1234 148.812 60.6271 150.182 58.4644 152.47C58.2056 152.779 55.4417 152.553 54.8823 147.535C54.231 141.631 53.8886 129.015 59.8338 128.839C60.6688 128.756 67.1902 132.63 68.4427 130.167C69.5532 128.054 72.3087 140.546 72.6511 142.867Z" fill="#D8E9FF"/>
<path d="M71.9503 85.9346C72.1674 86.4022 71.4326 86.1934 69.4453 87.0117C68.9944 87.1954 69.0278 87.6547 68.4934 87.4877C67.959 87.3207 60.9784 89.5418 60.8198 89.7672C59.6842 91.1867 58.4818 98.1172 58.3148 99.1276C58.1227 100.28 58.6989 100.53 63.5335 102.593C63.8926 102.743 62.5733 107.286 62.4981 107.536C62.0305 109.206 57.3879 95.487 47.0423 99.7956C41.7066 102.008 41.3058 103.695 39.7444 103.336C38.2497 103.336 38.3666 103.954 38.0744 103.336C37.6068 102.417 35.7197 98.1339 36.8052 97.8584C37.8907 97.5828 37.7821 97.5327 37.3145 94.5184C37.0056 92.5561 37.899 84.0308 32.0874 79.8558C33.6405 78.9707 39.7527 77.2506 41.7651 77.6514C41.9822 77.6514 41.7066 77.9854 42.3663 78.8037C45.4474 83.0622 61.9136 83.8805 63.2997 81.3087C63.7089 80.5488 63.6421 80.4737 67.2075 82.2689C72.1257 84.8157 71.466 84.9242 71.9503 85.9346Z" fill="#D8E9FF"/>
<path d="M70.781 151.673C72.0418 152.266 71.8498 154.662 71.616 156.031C71.1901 158.653 65.0195 160.582 59.283 156.157C58.4063 155.489 58.2643 153.894 58.6818 153.919C59.2413 153.961 58.3395 153.293 63.4914 151.289C65.902 150.654 68.4505 150.788 70.781 151.673Z" fill="#D8E9FF"/>
<path d="M69.1945 124.665C69.4283 124.773 69.8374 125.191 69.612 125.45C68.8354 126.285 64.268 124.723 63.5165 124.322C63.2576 124.18 63.3662 124.13 63.9173 122.844C64.3181 121.917 64.101 122.352 69.1945 124.665Z" fill="#BED4FC"/>
<path d="M67.4397 117.266C68.6671 118.786 64.7426 117.333 63.6154 117.792C63.5226 117.828 63.4203 117.832 63.325 117.804C63.2296 117.775 63.1466 117.715 63.0893 117.633C62.6551 117.116 61.5195 116.306 61.5279 116.097C61.5279 115.604 66.4794 116.072 67.4397 117.266Z" fill="#BED4FC"/>
<path d="M66.3953 128.72C69.3679 130.39 65.2179 130.206 61.9113 128.327C60.5837 127.576 60.5252 128.01 62.1535 126.223C62.5376 125.814 62.1034 126.323 66.3953 128.72Z" fill="#BED4FC"/>
<path d="M61.8973 77.0998C62.4818 77.2084 62.7323 77.0998 62.7323 77.6593C62.6154 78.7698 62.6655 79.5297 62.4734 80.6319C62.2229 82.0597 49.8983 82.6943 43.8696 78.7197C42.7006 77.9515 43.1599 77.4422 43.2267 76.8827C43.2267 76.8827 43.377 75.4966 43.377 75.4883C44.0951 73.8183 42.2998 73.9602 47.218 74.5447C50.1989 74.9038 51.2594 75.1543 61.8973 77.0998Z" fill="#BED4FC"/>
<path d="M62.6143 119.036C64.2843 121.867 60.3431 128.655 56.2099 127.971C53.1538 127.461 50.5152 122.551 53.7049 117.951C56.8946 113.35 61.7042 117.291 62.6143 119.036Z" fill="#D8E9FF"/>
<path d="M61.2881 108.465C61.1294 109.96 59.6181 112.582 58.9584 113.801C58.591 114.486 58.5743 114.761 58.0399 114.636C56.1361 114.327 55.5349 114.953 55.2009 114.744C53.915 113.909 53.8983 114.001 54.1154 113.584C56.2781 109.409 48.7213 106.82 43.3356 104.591C42.4171 104.215 42.392 104.491 43.9201 103.213C46.9428 100.708 50.9341 99.0966 54.4327 100.875C57.0296 102.228 60.9374 107.238 61.2881 108.465Z" fill="#D8E9FF"/>
<path d="M55.8582 129.964C55.5659 130.348 55.3572 131.158 55.0232 130.932C55.0025 130.921 54.9854 130.904 54.9736 130.883C54.9619 130.862 54.9559 130.839 54.9564 130.815C54.781 129.78 54.1214 128.486 54.5556 128.636C56.2757 129.246 56.3759 129.087 55.8582 129.964Z" fill="#BED4FC"/>
<path d="M53.5638 114.991C54.7328 115.684 53.8393 115.292 52.9626 116.887C52.3594 117.824 51.8477 118.816 51.4345 119.851C50.7415 122.055 51.3343 122.289 49.9399 121.805C48.8377 121.429 50.182 117.396 52.4449 115.125C52.5813 114.967 52.7716 114.867 52.9785 114.842C53.1854 114.817 53.3941 114.87 53.5638 114.991Z" fill="#BED4FC"/>
<path d="M53.7138 111.997C53.9977 114.368 48.7038 115.136 48.3698 121.574C48.0859 126.584 35.2854 117.95 32.7553 113.717C31.1772 111.062 38.0826 104.081 39.6023 104.532C40.596 104.165 44.6123 106.002 45.5642 106.411C49.7726 108.256 53.3548 109.058 53.7138 111.997Z" fill="#D8E9FF"/>
<path d="M51.1252 123.586C52.1272 127.761 55.4756 127.251 50.0063 129.765C49.0544 130.207 44.32 130.449 43.2178 128.871C41.4058 126.717 39.3684 121.356 39.2432 120.922C40.3537 121.481 43.176 123.602 45.5307 124.178C48.3447 124.863 48.9292 122.692 49.5137 122.867C50.8998 123.318 51.0751 123.243 51.1252 123.586Z" fill="#D8E9FF"/>
<path d="M40.4194 127.408C39.217 128.435 39.5844 128.469 38.7494 127.099C34.9334 120.503 33.4638 120.227 33.8396 119.71C34.1318 119.317 34.2487 118.156 35.0336 117.622C36.9959 119.192 40.9454 127.108 40.4194 127.408Z" fill="#BED4FC"/>
<path d="M40.1431 132.663C40.4687 134.116 42.2055 147.3 37.0703 150.674C36.6862 150.958 33.6134 147.893 29.8225 147.785C23.7687 147.609 24.1528 149.262 23.8355 148.62C22.9504 147.492 22.3826 146.749 22.8669 143.217C23.4598 138.85 25.756 129.022 27.8769 124.196C28.403 123.01 30.6491 119.269 31.8014 120.021C34.7573 121.916 39.6671 130.517 40.1431 132.663Z" fill="#D8E9FF"/>
<path d="M38.2973 45.6383C40.1259 47.3083 37.0531 62.2047 36.3016 64.0083C35.7422 65.3527 34.7235 66.5133 32.3437 66.3296C31.5087 66.2712 27.651 66.6469 26.8578 65.2107C26.7097 64.8165 26.6471 64.3952 26.6741 63.9749C26.6156 63.332 29.8721 64.6763 31.7759 63.4071C32.5191 62.9145 35.2161 48.3771 33.7298 46.8157C32.5525 45.5799 29.3377 45.7719 28.795 45.6216C28.5779 45.6216 28.8618 44.1186 29.989 44.0435C32.2686 43.9099 36.4937 43.9516 38.2973 45.6383Z" fill="#D8E9FF"/>
<path d="M37.4642 104.639C37.6312 104.839 37.1051 104.497 35.6522 105.933C34.9949 106.736 34.379 107.572 33.8069 108.438C32.7464 109.749 32.5627 111.085 32.2538 110.851C30.8498 109.706 29.7584 108.223 29.0808 106.543C28.2245 104.3 27.5761 101.982 27.1436 99.6206C27.1436 98.7105 32.9886 98.46 34.8005 98.7856C35.2681 98.8691 35.2514 99.2449 35.4685 100.03C36.8713 104.898 37.8984 104.439 37.4642 104.639Z" fill="#BED4FC"/>
<path d="M36.3124 151.977C37.9073 152.236 35.3271 156.152 30.1167 156.853C28.2385 157.117 26.3276 156.7 24.731 155.676C23.5703 154.54 23.2864 154.373 23.42 151.501C23.4095 151.136 23.5028 150.776 23.689 150.463C23.8753 150.149 24.1469 149.895 24.4721 149.73C26.4637 148.995 28.618 148.815 30.7039 149.211C32.7898 149.607 34.7286 150.563 36.3124 151.977Z" fill="#D8E9FF"/>
<path d="M36.2271 96.1566C36.3273 96.9916 35.3921 96.3069 32.2191 96.7411C32.1356 96.7411 28.9709 96.9916 28.4699 97.3339C28.4699 97.3339 25.8898 97.9769 25.7061 97.9435C25.155 97.8433 24.2532 89.8774 25.3554 86.003C26.6162 81.5691 30.7161 81.995 31.4759 83.498C31.5344 83.5731 35.0915 86.5207 36.2271 96.1566Z" fill="#D8E9FF"/>
<path d="M31.0834 62.253C30.7912 63.3051 27.5514 62.8291 26.5327 62.6454C25.6476 62.4868 25.9899 61.0339 26.0901 59.773C26.875 49.8449 27.4094 49.2938 27.4929 48.4504C27.6098 47.223 27.8353 46.7303 29.1629 46.7136C31.8015 46.9808 32.6866 46.914 32.8787 47.724C33.5133 50.5296 31.693 60.0569 31.0834 62.253Z" fill="#D8E9FF"/>
<path d="M27.9185 81.8353C27.9185 81.8353 29.6636 79.2385 32.1519 80.4409C34.6402 81.6433 36.7361 87.9559 36.4856 90.6112L35.7257 90.4609C35.7257 90.4609 33.4879 80.6914 27.9185 81.8353Z" fill="#BED4FC"/>
<path d="M145.455 11.5291C143.41 35.8192 145.171 42.7163 142.332 42.7163C138.658 42.7163 139.669 42.0734 139.36 45.0042C139.159 46.9247 137.089 46.4989 136.153 46.4321C136.07 46.4321 122.518 45.7223 122.359 46.1148C120.809 49.1752 119.103 52.1544 117.249 55.0409C117.232 55.0598 117.222 55.0836 117.219 55.1088C117.217 55.134 117.222 55.1593 117.235 55.1812C117.248 55.2027 117.268 55.2194 117.292 55.2287C117.315 55.238 117.341 55.2395 117.366 55.233C120.247 54.3479 119.771 54.0139 120.347 54.3479C120.923 54.6819 119.604 56.3268 119.512 56.4187C119.42 56.5105 117.742 59.3579 117.324 59.7587C117.249 59.8422 107.104 73.3191 106.82 70.4717C106.736 69.6952 107.53 69.7954 112.373 61.9714C113.976 59.3829 113.892 59.8505 111.663 60.3014C111.037 60.4935 110.318 60.3933 110.577 59.7253C110.577 59.6418 117.55 46.1983 115.905 45.714C115.47 45.5637 92.5246 44.879 92.4328 44.879C89.9278 44.7454 91.5059 40.9127 90.6876 40.8877C89.5854 40.8877 86.9218 41.0881 86.9134 39.4431C86.855 32.0033 87.0888 28.1706 87.7484 14.4766C88.0156 8.88213 86.8383 8.56483 91.0884 8.41453C92.6582 8.35608 91.9234 8.80698 92.2741 6.59423C92.6248 4.38148 92.8753 4.22283 95.1966 4.20613C95.1966 4.12263 139.452 4.15603 140.629 5.04113C141.932 6.05983 140.788 8.46463 141.723 8.63998C144.111 9.11593 145.739 8.19743 145.455 11.5291ZM144.228 9.76723C143.084 9.19943 140.52 9.90083 140.529 8.77358C140.571 4.94928 140.721 5.59223 137.231 5.27493C137.147 5.27493 93.7437 4.38148 93.3429 5.73418C92.7 7.95528 93.2761 9.24118 92.1155 9.26623C87.022 9.40818 89.051 8.11393 88.1659 19.7204C88.0908 20.7475 87.5146 36.8129 87.5898 37.0801C87.7568 37.6562 87.189 39.1592 88.1158 39.9024C88.7973 40.0987 89.5025 40.1998 90.2117 40.203C90.6793 40.203 91.5477 39.9024 91.6312 40.7374C91.8149 42.7748 91.1803 44.0774 92.5163 44.1358C118 45.8058 117.842 43.2507 116.631 47.6929C115.145 53.1455 111.128 59.3829 111.947 59.3829C114.569 59.2577 115.871 57.6294 112.489 63.2657C111.179 65.445 108.916 68.3425 108.891 68.6932C109.191 68.618 114.243 63.2156 118.376 56.9197C119.629 55.0075 119.453 55.3833 117.491 56.0847C116.163 56.5356 115.763 56.7193 115.629 56.4771C115.495 56.235 120.915 47.9434 121.733 45.6221C122.1 44.5867 138.541 46.7243 138.642 45.0126C138.792 43.6682 138.483 41.7227 139.669 41.9648C144.445 42.9668 142.8 40.1612 143.668 32.0116C143.668 31.9281 143.894 21.4489 143.911 21.3654C143.952 20.9562 145.096 10.1931 144.261 9.76723H144.228Z" fill="black"/>
<path d="M140.226 29.7398C140.413 29.8597 140.553 30.041 140.622 30.2527C140.69 30.4645 140.683 30.6934 140.601 30.9005C140.167 31.6019 139.875 33.848 138.856 34.2404C138.222 34.5661 135.859 32.7291 135.449 33.2134C134.79 34.0484 136.001 32.8042 133.32 35.4261C132.635 36.0941 135.717 38.6826 133.554 39.3924C130.531 40.386 130.064 40.8954 129.629 39.8266C128.561 37.2131 128.886 37.3216 128.051 37.3967C124.503 37.7641 124.494 37.1295 124.352 37.6389C123.768 39.6763 123.626 40.9288 122.574 40.5364C119.977 39.5761 118.741 39.2755 118.833 38.5073C119.058 36.5868 120.152 36.0023 119.584 35.5431C115.409 32.2031 118.374 32.4619 114.458 34.0567C114.288 34.1268 114.102 34.1445 113.923 34.1076C113.744 34.0707 113.58 33.9808 113.452 33.8497C113.367 33.763 113.3 33.6602 113.255 33.5474C111.535 29.2806 111.301 29.9653 114.758 28.4205C115.192 28.2368 114.65 28.0197 114.875 24.5628C114.875 24.0702 111.46 23.803 111.535 22.8928C111.452 22.1246 112.621 19.7365 112.679 19.653C113.33 18.6844 112.337 18.3254 116.077 19.8868C116.662 20.129 116.386 19.152 119.367 16.7055C119.626 16.4884 119.534 16.5552 118.466 14.7516C117.731 13.5158 118.507 13.4573 120.244 12.6724C122.749 11.5619 122.215 11.445 123.392 13.6995C124.377 15.5949 123.459 14.4844 126.949 14.7015C129.304 14.8518 128.444 15.5365 129.855 12.7225C130.556 11.3281 130.339 11.0525 133.145 12.5305C135.65 13.8832 135.032 13.282 133.287 16.7055C133.103 17.0729 133.729 17.123 134.523 17.9246C136.193 19.5946 135.792 20.0455 136.719 19.5946C138.389 18.8514 139.407 17.7743 140.009 19.7616C140.777 22.2666 141.578 22.7008 140.234 23.327C137.654 24.5294 137.579 24.2789 137.612 24.8133C137.921 29.9569 136.36 27.836 140.226 29.7398ZM139.825 21.2145C138.547 18.1584 139.407 19.5445 136.293 20.4713C135.508 20.7051 135.291 19.2856 133.111 17.649C132.661 17.315 132.418 16.9309 132.644 16.4299C132.901 15.7309 133.267 15.0771 133.729 14.4927C134.472 13.6577 134.113 13.808 131.441 12.447C130.824 12.1297 130.89 12.1046 130.022 13.9249C128.602 16.8892 129.655 14.8768 124.177 15.5281C123.1 15.6617 123.083 13.783 122.064 12.7476C121.939 12.6223 120.486 13.5826 119.284 13.9249C118.724 14.0752 119 14.2088 119.676 15.4363C120.829 17.5405 120.511 15.7118 116.988 20.2375C116.353 21.156 114.833 19.8618 113.723 19.5779C113.489 19.5111 113.347 19.7449 112.287 22.5421C112.17 22.8678 112.019 22.7926 114.174 23.5191C116.328 24.2455 115.334 23.4272 115.668 28.3454C115.668 28.9382 115.969 28.6877 112.955 30.0154C112.754 30.0989 112.621 30.0822 112.955 30.9172C114.399 34.491 113.572 33.5391 116.712 32.2031C117.121 32.0361 117.238 32.1279 117.338 32.2698C120.411 36.3697 121.238 34.2321 119.927 37.4218C119.234 39.0918 119.175 38.4238 122.265 39.6346C123.935 40.2775 122.958 36.4949 124.77 36.6786C127.742 36.9876 129.087 36.4532 129.262 36.9709C130.732 40.3109 129.905 39.8433 131.725 39.3006C134.339 38.5157 133.779 38.5824 132.894 36.6536C132.318 35.4095 132.268 35.2675 132.61 34.9836C136.577 31.7772 134.239 31.6436 138.172 33.3136C139.007 33.681 139.733 30.9422 139.925 30.4913C139.983 30.3661 139.716 30.2575 139.591 30.1991C135.817 28.5291 136.994 29.2806 137.086 26.5334C137.178 23.7863 136.251 24.3457 139.132 23.0682C140.601 22.4503 140.518 22.8761 139.825 21.2145Z" fill="black"/>
<path d="M126.449 31.252C120.061 31.0683 119.276 21.5743 126.107 21.1568C133.212 20.1131 133.546 31.4607 126.449 31.252ZM124.42 30.108C130.223 33.2142 134.398 23.0022 126.925 21.758C126.022 21.6436 125.105 21.8037 124.295 22.2173C120.587 23.428 122.19 30.108 124.42 30.108Z" fill="black"/>
<path d="M129.898 113.382C130.399 115.294 115.778 111.011 110.084 122.926C105.65 132.203 110 140.186 108.171 139.726C107.336 139.518 105.792 131.001 98.8695 129.706C98.4937 129.706 97.7088 128.471 99.3538 128.771C100.833 129.118 102.207 129.814 103.362 130.8C106.794 133.881 106.334 134.207 107.236 135.493C107.462 133.238 106.05 126.308 110.843 119.536C116.112 112.021 128.287 113.324 127.41 112.656C123.277 108.639 122.842 108.673 118.793 103.471C114.476 97.9513 114.092 89.9938 116.212 85.3345C117.791 81.8525 121.181 77.6107 121.273 77.2433C120.83 77.2433 104.222 90.0773 95.7299 73.9033C95.0379 72.1546 94.6183 70.3101 94.4857 68.4341C94.5776 67.382 94.7362 66.2297 94.4022 66.9645C91.4547 73.3355 84.5993 78.9968 82.42 78.5459C82.3287 78.5437 82.2409 78.5104 82.1712 78.4516C82.1014 78.3927 82.0538 78.3118 82.0363 78.2222C82.0187 78.1326 82.0323 78.0397 82.0748 77.9589C82.1172 77.8781 82.186 77.8141 82.2697 77.7777C90.5195 75.6151 94.8865 63.1986 95.6297 63.2237C96.8655 63.2738 94.611 66.5637 95.7633 71.2146C96.4146 75.7153 103.278 81.9611 109.499 81.1428C114.567 80.4831 122.024 76.258 124.529 73.4608C125.489 72.3669 126.199 73.3773 125.581 73.9785C102.226 97.4587 128.562 110.226 129.898 113.382Z" fill="black"/>
<path d="M111.011 18.8351C111.228 19.9457 108.589 19.6701 108.506 20.5051C108.322 23.127 107.954 22.5759 109.599 23.3358C110.802 23.9871 109.649 25.3648 108.89 26.4253C108.639 26.7593 108.464 26.8261 108.055 26.6424C105.55 25.4984 107.328 25.7406 104.89 26.9513C104.439 27.1768 106.109 29.2559 104.614 29.7068C101.976 30.5418 102.059 30.3247 101.391 28.446C101.216 27.945 100.005 28.1955 98.9531 27.9533C98.2851 27.7947 98.3102 29.8488 97.2831 29.6233C92.3483 28.5629 96.4481 26.9847 95.4628 26.108C93.4171 24.2209 94.5443 24.1624 93.0831 24.5382C92.3316 24.7302 91.4131 25.0141 91.363 24.1374C91.1542 21.9163 89.8099 21.766 91.8389 21.0395C92.9411 20.6471 93.0079 20.6554 92.9996 20.4467C92.9077 18.6932 93.2918 18.4677 92.9996 18.3174C91.7471 17.7162 90.8954 17.4824 91.1542 16.7476C92.4485 13.2072 93.1415 14.2426 94.394 14.8939C94.5944 14.9941 94.5026 14.9524 96.4398 13.3659C97.2748 12.6812 94.7698 11.0947 97.4668 10.6605C98.0764 10.5686 99.546 9.72525 99.7547 10.6605C100.181 12.5225 100.181 12.4056 100.464 12.4056C104.047 12.4056 102.853 13.441 104.439 11.1698C104.907 10.5018 105.224 10.7774 106.535 11.7209C108.021 12.7897 107.37 12.6394 106.485 14.2259C106.226 14.7102 106.485 14.5432 107.036 15.3198C108.121 16.8562 107.512 16.7894 109.24 16.2299C109.24 16.3134 110.159 15.7874 110.393 16.6224C110.692 17.3313 110.9 18.0744 111.011 18.8351ZM109.499 19.2359C110.626 18.8602 110.61 19.286 109.867 17.0482C109.861 17.0227 109.85 16.9986 109.835 16.9772C109.803 16.9349 109.755 16.907 109.703 16.8996C109.677 16.8965 109.65 16.8987 109.624 16.9063C107.286 17.4741 107.954 17.6912 106.71 16.0713C105.708 14.7019 105.374 14.7937 106.067 13.775C106.643 12.94 106.902 12.8398 106.66 12.6895C104.756 11.2951 105.232 11.245 104.239 12.6394C103.863 13.1655 103.763 13.5579 103.095 13.3659C99.6963 12.4056 100.181 14.3345 99.1702 11.0863C99.1285 10.9277 99.0199 10.936 98.6191 11.0863C96.6986 11.6875 96.6569 11.437 97.2497 12.8816C97.4501 13.3659 97.5336 13.5078 97.1829 13.7834C94.895 15.6037 94.9201 16.0462 94.369 15.7456C92.7908 14.9106 92.8409 15.0025 92.699 15.2613C91.5968 17.1568 91.6803 17.0232 92.0811 17.2152C94.1435 18.2089 93.7928 17.8832 93.7093 19.2025C93.6091 20.9894 93.7093 21.2566 93.1415 21.432C91.388 21.958 91.4715 21.9497 91.5968 22.267C92.056 23.8618 91.889 24.6634 93.7678 23.6865C94.6028 23.2439 94.2938 24.5716 96.0056 25.8324C97.2497 26.7509 94.8783 28.0452 95.7968 28.4376C97.4668 29.139 97.4668 29.0889 97.6255 28.7883C98.8028 26.6591 98.3269 27.2853 100.13 27.469C101.199 27.5859 101.8 27.3438 102.001 27.97C102.635 29.9072 102.134 29.6985 104.147 29.2559C104.756 29.1223 104.681 28.9136 104.631 28.6631C103.905 25.4734 103.896 27.5358 106.168 25.4149C106.61 24.9974 106.593 25.1394 108.188 26.0829C108.581 26.3084 108.965 25.4233 109.558 24.4797C109.733 24.1958 109.8 24.2376 108.13 23.3608C107.428 22.9934 107.687 22.6344 107.938 20.9477C108.063 19.9373 107.579 19.8872 109.499 19.2109V19.2359Z" fill="black"/>
<path d="M105.925 104.714C105.75 105.984 104.355 106.51 104.063 106.66C99.5957 108.914 101.291 106.418 99.3619 114.734C98.6287 118.119 97.7229 121.463 96.6481 124.754C93.6588 135.852 94.0429 135.935 92.6902 135.493C90.1435 134.658 71.7067 130.549 71.6232 130.483C69.8029 129.973 70.5878 129.706 71.8319 134.424C72.8256 138.206 74.8463 145.037 73.7107 148.786C72.9842 151.207 71.8987 151.199 72.2327 151.625C72.9842 152.602 73.0176 155.09 72.7337 156.201C72.1576 158.488 71.6733 156.493 73.1095 158.847C74.5457 161.202 74.3035 161.135 73.6856 161.461C73.4268 161.603 72.9425 161.069 72.9174 161.002C72.383 159.624 72.7504 160.609 71.8737 159.14C71.2725 158.129 71.9572 159.407 66.5631 160.943C64.4088 161.561 61.6616 159.958 60.8934 159.582C60.4342 159.348 59.7244 158.355 59.5491 158.747C58.2799 161.561 58.7141 161.62 58.0711 161.62C56.0337 161.62 59.0898 157.587 58.7224 157.269C58.3035 156.916 57.9745 156.469 57.7625 155.963C57.5506 155.458 57.4617 154.91 57.5033 154.364C57.6286 152.268 54.9232 155.065 53.9629 148.018C53.577 144.58 53.4987 141.115 53.7291 137.664C53.7291 133.196 55.4576 134.324 53.3033 129.506C53.153 129.155 51.4245 131.176 48.9613 131.176C46.0388 131.176 45.2622 131.86 42.0141 129.506C40.9453 128.737 41.5548 127.836 40.3858 129.063C39.7512 129.748 41.154 130.867 41.3711 132.871C41.5732 136.338 41.5874 139.814 41.4129 143.283C41.1791 146.732 40.9536 150.907 38.0311 151.9C37.789 152 37.9643 152.034 37.7055 153.378C37.3631 155.165 35.8017 155.391 36.3361 155.883C36.6283 156.159 38.0896 159.599 37.789 160.125C37.7208 160.219 37.626 160.291 37.5167 160.331C37.4075 160.371 37.2887 160.378 37.1757 160.35C37.0627 160.322 36.9606 160.261 36.8824 160.175C36.8042 160.089 36.7535 159.981 36.7369 159.866C36.5532 159.616 36.6367 159.265 36.4029 159.031C36.3277 158.948 36.3528 158.772 36.3027 158.647C35.0001 155.157 36.2359 157.344 32.1277 158.706C26.9924 160.426 23.953 156.259 23.2767 157.203C22.7583 158.11 22.3783 159.089 22.1494 160.108C22.0492 160.357 21.9348 160.599 21.8071 160.835C21.8989 161.169 20.9721 161.261 21.0723 160.918C21.0723 160.868 20.7967 160.843 20.8969 160.534C21.1725 159.699 21.1892 157.603 22.8341 155.833C23.1097 155.549 21.089 152.927 22.9343 149.662C23.1347 149.312 23.1347 149.42 22.8842 149.136C20.8134 146.832 21.5983 144.46 21.6401 143.408C21.7904 139.985 27.3932 115.018 32.3698 118.893C32.9042 119.31 32.6454 118.751 33.9563 116.705C34.3404 116.104 33.8895 116.396 32.8458 114.81C31.4096 112.622 32.3364 112.221 31.7436 111.912C28.4036 110.175 26.6584 103.136 25.79 99.504C25.5646 98.5772 24.4874 100.598 24.12 96.807C23.9113 94.7362 22.8508 86.5532 24.955 84.1567C25.0302 84.0732 25.8568 82.303 26.5582 82.0859C30.1821 77.8191 38.8745 76.7837 39.317 76.3161C39.317 75.9821 37.0625 76.3161 28.4119 73.619C25.5813 72.784 27.9026 67.0726 27.1511 66.772C25.3892 66.0623 25.7232 63.4738 25.4811 63.1899C24.4707 62.1628 25.4811 57.8041 25.7483 53.5957C26.2075 45.5881 27.5853 46.0807 27.7022 45.4795C28.0195 43.6676 28.6123 43.3252 30.0235 42.9745C30.4076 42.866 31.3762 43.1248 31.5515 42.6071C36.4029 28.7378 61.1523 28.195 72.4665 35.8186C84.0981 43.6509 82.044 53.6709 82.3863 54.1134C82.7287 54.556 84.3987 54.2888 84.1899 57.5119C84.1231 58.4888 83.2046 63.7744 82.3863 67.6655C81.2758 72.9761 81.1088 72.5502 80.0316 72.8759C79.3553 73.0679 79.4471 74.0616 78.4952 78.3702C77.9024 81.0672 78.1696 80.2072 77.368 80.9587C76.5664 81.7102 67.0307 80.5412 66.7802 80.8167C66.5297 81.0923 72.525 83.0295 73.1262 85.4927C73.2097 85.8601 74.3286 85.0585 75.0884 85.4009C75.2053 85.451 75.2805 85.4426 75.3139 85.309C75.4475 84.6828 79.3302 83.639 80.232 83.7893C81.5764 84.0565 87.8973 86.1941 88.7323 87.2128C89.0079 87.5468 89.2751 87.3047 90.0934 87.4967L97.6084 90.3524C98.7022 90.8618 98.4016 91.1874 98.8191 91.1874C99.7042 91.1874 102.435 92.4149 103.103 92.7489C110.526 96.5398 107.52 93.4336 105.925 104.714ZM106.76 97.0074C106.76 97.1326 103.303 98.0177 102.994 99.0531C102.927 99.312 101.725 106.234 101.516 106.326C101.516 106.685 103.787 105.625 104.096 105.407C104.831 104.915 104.689 105.416 106.76 97.0074ZM104.464 96.832C107.152 95.5461 108.939 96.2058 99.3702 92.323C98.8525 92.1059 95.0533 93.6173 94.9698 93.659C97.3193 94.5199 99.6046 95.5468 101.808 96.7318C103.345 97.6336 102.026 98.001 104.464 96.8654V96.832ZM101.625 99.337C101.441 99.4122 97.7837 101.141 97.7503 101.399C96.4644 110.359 95.0366 109.591 98.3098 108.079C100.815 106.91 99.9798 107.403 100.364 106.359C100.606 105.725 102.41 99.0782 101.625 99.3704V99.337ZM101.625 98.168C103.871 97.8424 93.6505 94.2769 93.567 94.2686C93.4835 94.2602 88.6071 96.2308 88.7073 96.3143C89.1832 96.0972 93.7173 98.5438 94.3352 98.7442C99.3201 100.924 94.5272 101.04 101.675 98.2014L101.625 98.168ZM96.406 110.05C96.0219 110.276 95.7964 109.9 95.4708 110.384C95.3205 110.61 90.7948 112.438 90.2771 112.839C89.5757 112.914 90.0516 113.415 88.4902 113.165C88.0894 113.098 78.9461 109.599 78.8626 109.566C78.0944 109.29 78.1278 108.781 77.9441 108.881C77.3012 109.232 69.352 105.541 68.5504 104.598C68.208 104.205 68.3333 104.756 67.7154 104.522C64.5424 103.203 64.6259 102.744 64.4505 103.687C64.0247 105.984 63.8493 105.357 63.6656 106.602C65.5277 106.602 87.1876 113.666 94.0012 114.668C99.5456 115.503 97.6501 117.615 99.5957 108.773C98.4789 109.05 97.4095 109.492 96.4227 110.083L96.406 110.05ZM97.0489 120.07C97.9758 116.922 98.1094 116.471 97.7837 116.446C97.7837 116.446 87.6969 114.242 87.6719 114.417C87.221 114.417 87.1625 114.317 87.0039 115.027C85.2337 122.75 84.8496 123.285 85.1585 123.318C92.7153 124.262 94.4354 126.308 95.2787 125.581C95.8298 125.164 96.0135 123.636 97.0656 120.103L97.0489 120.07ZM94.4437 92.6654C97.2577 91.63 99.6541 92.0642 92.1224 89.3254C92.1224 89.3254 90.4524 88.5739 89.2918 88.2315C89.2918 88.2315 89.2918 88.3651 89.2333 88.3568C89.1749 88.3484 85.4925 89.5926 86.0269 89.7596C87.6468 90.2522 92.6568 92.2646 93.1662 93.0244C93.3749 93.325 93.6505 92.9994 94.4604 92.6904L94.4437 92.6654ZM94.8863 109.365C95.0199 108.53 96.7734 101.85 96.4143 102.051C91.0787 104.773 92.6067 102.777 91.4043 107.386C89.9848 112.73 89.7761 111.92 91.9721 110.918C92.5817 110.651 95.5793 109.39 94.903 109.39L94.8863 109.365ZM95.9801 101.091C96.9988 100.673 87.7637 96.9155 87.6802 96.8404C87.1876 96.6233 82.2611 98.8527 82.4698 99.003C82.6786 99.1533 91.7216 103.395 92.1558 103.019C93.4668 101.875 96.3726 101.099 95.9968 101.099L95.9801 101.091ZM95.0199 126.675C92.6568 125.94 87.889 124.813 85.2003 124.312C84.6241 124.212 84.9247 123.135 82.6118 131.919C82.3947 132.445 88.7741 133.163 92.8656 134.374C93.2163 134.474 92.8155 134.599 94.903 127.493C94.8362 127.502 95.2787 126.758 95.0366 126.683L95.0199 126.675ZM87.5049 95.6463C91.1121 93.7091 95.6712 94.5608 87.9558 91.4129C87.5299 91.321 87.8973 91.3461 86.5196 90.8701C84.0563 90.0351 84.7744 89.8598 79.9982 91.797C79.3887 92.0475 80.0483 92.2562 86.1689 94.9449C87.0874 95.3624 87.1375 95.8384 87.4798 95.6547L87.5049 95.6463ZM91.0453 104.264C91.1705 103.871 91.2373 104.03 89.6425 103.328C80.708 99.4038 81.2925 99.4122 81.1338 99.7629C80.9752 100.114 79.1048 107.654 79.0547 107.879C79.0046 109.315 85.384 110.643 88.1395 111.937C89.2918 112.488 88.6071 112.271 91.0286 104.272L91.0453 104.264ZM87.7053 87.789C87.2701 87.4283 86.7757 87.1458 86.244 86.954C79.1632 84.4907 80.6328 84.5158 78.4535 85.0669C77.8105 85.2406 77.1801 85.4585 76.5664 85.7182C76.6165 85.7182 83.5553 88.2232 84.1732 88.958C84.4321 89.2419 87.6301 87.7973 87.7136 87.7973L87.7053 87.789ZM86.1021 114.885C86.5446 113.098 84.0062 113.407 79.6141 111.979C78.9628 111.77 77.2678 111.236 76.2741 111.035C74.9047 110.777 75.2304 110.2 74.4121 113.783C72.4498 122.241 71.4979 119.477 76.4996 121.072C79.4471 122.016 79.8396 121.974 83.6388 122.909C84.215 123.068 84.3152 122.133 86.1104 114.893L86.1021 114.885ZM85.9351 96.2225C85.3506 95.2873 80.04 93.5171 78.5704 92.6737C77.9859 92.3397 75.6479 93.6173 75.5644 93.6507C71.9655 95.2288 70.5544 93.6507 76.8252 96.6567C76.9171 96.6567 81.2257 98.4018 81.3092 98.4102C81.3927 98.4185 84.2484 96.9155 84.2567 96.9072C84.8312 96.7136 85.3943 96.4878 85.9434 96.2308L85.9351 96.2225ZM83.6221 124.145C83.7056 123.836 74.6793 121.715 72.7671 121.197C71.9321 121.197 72.7671 121.373 70.3122 128.629C70.0617 129.364 70.713 129.038 71.1472 129.238C71.2307 129.238 81.3843 131.743 81.4678 131.743C81.5513 131.743 81.401 132.545 83.6305 124.153L83.6221 124.145ZM83.0961 56.6936C82.8957 55.5079 82.1692 55.5413 78.9712 54.7313C75.7731 53.9214 53.0862 48.5356 51.3661 51.2661C50.3724 52.8609 48.4853 65.7366 49.312 66.2126C49.6209 66.3879 78.7958 71.9741 79.1382 72.0075C79.4142 71.9948 79.6803 71.9008 79.9032 71.7374C80.126 71.574 80.2956 71.3484 80.3907 71.089C81.1672 68.8846 83.4718 58.8813 83.1044 56.7019L83.0961 56.6936ZM78.2113 91.4045C82.7203 89.5091 84.2233 89.6761 81.6014 88.7409C80.8666 88.482 80.0734 87.7639 79.564 87.6721C79.4054 87.6721 75.556 86.2275 75.5477 86.2275C75.1051 86.3444 70.5377 87.7556 70.3623 87.9727C71.9321 88.6908 76.892 90.6196 76.9087 90.6196C78.1696 91.1206 77.8773 91.5548 78.2197 91.4129L78.2113 91.4045ZM73.4184 38.048C67.7404 32.5621 48.8193 29.3306 38.4403 36.4532C36.2609 37.9478 33.2382 41.1375 32.8458 42.8493C32.7957 43.0831 32.9627 42.9328 35.0502 43.3169C40.7198 44.369 40.2272 46.2895 40.0602 48.7611C39.985 49.9384 38.791 65.5446 35.8184 66.8973C34.1484 67.6488 28.9463 67.3398 28.8628 67.3732C28.3117 67.582 28.1614 69.8281 28.1698 70.2039C28.1698 72.4751 29.0048 71.2643 30.1571 71.3478C45.4835 72.4961 60.6915 74.8865 75.6312 78.4954C76.8252 78.6875 76.7083 79.6728 77.201 78.1614C77.5048 77.2384 77.7311 76.2915 77.8773 75.3308C77.9358 72.1912 79.5473 73.5105 74.5373 72.2663C72.191 72.0409 60.2004 68.7927 48.1179 67.4317C44.97 67.0726 45.0117 65.8619 45.0702 62.8976C45.4711 58.809 46.1914 54.758 47.2245 50.7818C47.9175 48.1849 52.1593 49.3205 52.9025 49.1619C52.986 49.1619 56.0337 49.1619 64.0247 50.5396C82.3362 53.6792 80.9167 54.8649 81.067 52.7607C80.9673 49.8958 80.2297 47.0892 78.908 44.5455C77.5863 42.0017 75.7137 39.7848 73.4268 38.0564L73.4184 38.048ZM80.2237 99.2285C80.3239 98.9863 71.4562 95.4626 71.3727 95.4376C71.214 95.7883 69.3687 102.953 69.2184 103.854C69.1098 104.539 77.0924 107.754 77.8356 107.745C77.9942 107.72 80.232 98.4436 80.232 99.2368L80.2237 99.2285ZM74.5039 92.8908C77.1509 91.6634 77.3179 91.989 76.0236 91.4797C71.7568 89.8097 69.3854 87.956 67.5317 88.5822C67.4482 88.5822 62.5217 90.2522 62.2628 90.4025C62.9642 90.82 70.0033 93.826 70.9635 94.1183C71.0554 94.1517 74.4288 92.9409 74.5123 92.8992L74.5039 92.8908ZM74.053 111.069C74.7795 109.549 65.5026 108.347 63.7909 107.587C63.3984 107.411 63.4068 108.054 61.6032 114.626C61.4445 115.21 63.6239 114.167 67.6903 116.229C69.0514 116.922 69.1599 118.584 68.3249 118.734C67.3396 118.96 66.0203 118.6 71.4979 120.012C71.7818 120.037 73.9361 111.336 74.0614 111.06L74.053 111.069ZM72.9675 146.974C73.2264 143.166 69.6275 127.944 68.4585 130.149C67.1726 132.654 60.7431 128.737 59.8497 128.821C59.524 128.821 59.6994 128.938 59.1149 128.938C57.2528 129.255 57.2612 129.865 56.9773 130.382C55.4654 132.95 54.6562 135.87 54.6309 138.849C54.3888 153.245 57.0357 151.792 58.0377 152.493C58.1023 152.546 58.1848 152.571 58.2675 152.563C58.3503 152.555 58.4267 152.515 58.4803 152.451C60.526 150.163 67.0891 148.802 70.1703 150.163C71.1472 150.598 71.2892 150.806 71.4311 150.598C72.3304 149.589 72.8731 148.313 72.9759 146.965L72.9675 146.974ZM71.9405 85.9186C71.4562 84.9082 72.1158 84.7997 67.1559 82.3531C63.5237 80.5662 63.6573 80.6831 63.2481 81.3929C61.7535 84.0732 45.3123 82.9961 42.3147 78.8879C41.655 78.0529 41.9306 77.7773 41.7135 77.7356C39.7011 77.3348 33.5889 79.0549 32.0358 79.94C37.814 84.115 36.9289 92.465 37.2629 94.6026C37.7305 97.5752 37.7305 97.6503 36.7536 97.9426C35.7766 98.2348 37.5886 102.527 38.0228 103.42C38.3735 104.08 38.6824 103.145 39.6928 103.42C41.2459 103.796 41.655 102.093 46.9907 99.8798C57.4115 95.5378 61.9706 109.29 62.4465 107.62C62.5384 107.32 63.841 102.827 63.4819 102.677C58.4719 100.531 58.0878 100.281 58.2632 99.2118C60.2421 87.4633 60.3924 90.2021 65.7782 88.1814C66.3293 87.981 67.8573 87.3965 68.4168 87.5719C68.9762 87.7472 68.9178 87.2796 69.3687 87.0959C71.4478 86.1858 72.1659 86.4029 71.9488 85.9353L71.9405 85.9186ZM71.6065 156.017C71.8152 154.647 72.0156 152.259 70.7715 151.658C68.4461 150.777 65.9039 150.643 63.4986 151.274C58.3383 153.27 59.2485 153.938 58.689 153.904C58.2715 153.904 58.4135 155.474 59.2902 156.142C65.0768 160.626 71.214 158.589 71.6148 156.034L71.6065 156.017ZM70.7047 123.452C71.69 119.536 71.8987 121.74 64.4422 119.06C64.1416 119.06 64.175 119.152 64.2418 119.435C64.5841 121.005 64.1165 121.222 67.181 122.567C67.3396 122.634 69.9782 123.803 70.4041 124.07C70.6462 124.27 70.713 123.343 70.713 123.502L70.7047 123.452ZM70.3122 95.2956C70.4625 94.7946 70.4709 94.8865 61.4529 91.1206C61.1857 91.0037 61.0521 91.1206 60.9018 91.7803C59.2318 99.5124 58.7558 99.2953 60 99.8297C60.7181 100.13 67.515 103.262 68.1078 103.303C68.3583 103.378 70.3206 94.5942 70.3206 95.3457L70.3122 95.2956ZM69.6442 127.026C69.8279 126.441 69.2518 126.733 69.0347 126.725C67.3742 126.56 65.7348 126.228 64.1416 125.731C64.2585 126.157 67.3396 127.568 68.1412 128.403C68.2133 128.466 68.2972 128.512 68.388 128.541C68.4787 128.569 68.5743 128.579 68.6689 128.569C68.7635 128.559 68.8552 128.53 68.9382 128.484C69.0212 128.437 69.0938 128.375 69.1516 128.299C69.2295 128.199 69.2785 128.079 69.2935 127.952C69.3996 127.669 69.519 127.39 69.6526 127.117L69.6442 127.026ZM69.6442 125.356C70.3289 124.587 66.2625 123.443 65.1102 122.65C63.9579 121.857 64.1082 122.383 63.9495 122.75C63.3984 124.036 63.2899 124.086 63.5487 124.228C64.2668 124.713 68.8343 126.316 69.6108 125.447L69.6442 125.356ZM67.4649 117.181C66.6299 116.204 64.0581 115.937 62.7972 115.845C60.5845 116.037 61.6867 115.845 63.1145 117.515C63.1688 117.6 63.2512 117.663 63.3473 117.694C63.4434 117.724 63.5472 117.72 63.6406 117.682C64.6426 117.373 68.6673 118.801 67.4398 117.273L67.4649 117.181ZM66.4295 128.629C66.2374 128.52 66.0537 128.403 65.87 128.278C62.1626 126.232 62.53 125.715 62.1877 126.132C60.5177 127.944 60.6012 127.477 61.9455 128.236C61.9121 129.172 70.4291 130.958 66.3961 128.721L66.4295 128.629ZM43.8845 74.0282C43.4753 73.928 43.3 76.1073 43.2248 76.792C43.1497 77.4767 42.6988 77.8525 43.8678 78.629C48.1931 81.5098 57.8123 81.8855 58.831 81.6517C63.3901 80.5913 62.3129 81.6517 62.7304 77.5686C62.7137 77.8358 64.3002 76.7252 43.8678 74.12L43.8845 74.0282ZM61.9706 124.061C63.1813 121.94 63.9412 119.987 61.9706 117.991C55.7081 112.563 52.5184 118.342 52.2178 122.166C53.0945 129.08 58.5554 130.115 61.9539 124.153L61.9706 124.061ZM60.8183 113.757C61.6533 110.643 61.0688 112.689 60.1169 114.167C59.5574 115.002 59.5908 114.743 60.3507 114.826C60.7014 114.96 60.8266 113.757 60.8016 113.849L60.8183 113.757ZM61.3026 108.372C60.9519 107.144 57.0441 102.134 54.4472 100.857C50.9319 99.0865 46.9322 100.673 43.9346 103.195C42.4065 104.472 42.4232 104.197 43.3417 104.581C48.5354 106.718 56.3009 109.349 54.1216 113.574C53.9128 113.991 53.9295 113.924 55.2154 114.734C55.5411 114.943 56.1423 114.342 58.0544 114.626C58.856 114.81 61.1606 109.649 61.2859 108.464L61.3026 108.372ZM56.1506 129.247C56.1506 129.038 56.0671 128.996 55.5578 128.888C55.0484 128.779 55.2405 128.737 54.6059 128.504C54.1884 128.353 54.8397 129.648 55.0067 130.683C55.1737 131.718 56.159 129.297 56.1339 129.38L56.1506 129.247ZM54.1216 115.361C54.2385 115.21 53.1279 114.284 52.4516 114.985C49.9466 117.49 48.978 121.331 49.9466 121.665C51.341 122.149 50.7816 121.907 51.4412 119.711C52.0352 118.146 52.9318 116.713 54.0798 115.494L54.1216 115.361ZM51.8754 109.816C49.7629 108.246 42.8908 105.257 40.5445 104.531C37.48 103.579 31.969 111.303 33.3551 113.565C36.311 118.408 42.966 122.341 45.6964 122.892C50.5895 123.878 45.7799 118.868 52.7689 113.315C52.6937 113.682 54.4305 111.895 51.8587 109.95L51.8754 109.816ZM52.986 127.852C53.821 127.151 51.9589 126.917 51.1406 123.494C51.0905 123.16 50.9402 123.21 49.5291 122.784C48.7609 122.55 49.3537 123.21 47.9259 123.911C45.3207 125.197 40.8534 121.623 39.2586 120.838C39.9182 123.143 42.799 130.232 45.2539 129.798C45.316 129.797 45.3769 129.814 45.4292 129.848C45.7549 130.007 46.1306 129.848 46.4479 129.998C47.4833 129.706 49.2869 131.1 52.9693 127.986L52.986 127.852ZM50.7732 50.047C50.3424 49.9533 49.8948 49.9708 49.4726 50.0979C49.0504 50.225 48.6676 50.4575 48.3601 50.7734C47.4082 52.0259 45.8551 63.8412 46.1306 64.9684C46.3811 65.8535 46.5732 65.6531 47.3581 65.9788C48.5104 66.4631 47.7255 65.2774 48.1263 62.739C48.7024 59.09 49.2953 52.1762 50.7398 50.1806L50.7732 50.047ZM40.4359 127.276C40.9703 126.967 37.0959 119.101 35.0836 117.49C34.2987 118.024 34.1734 119.16 33.8895 119.577C33.4887 120.129 34.7245 119.911 38.8077 126.967C39.5842 128.47 39.2168 128.445 40.4192 127.41L40.4359 127.276ZM40.5194 135.309C40.7282 130.591 34.4239 121.531 31.8688 119.87C28.2032 117.49 23.5188 138.415 22.9093 143.074C22.3749 147.316 23.8528 148.844 24.1952 148.544C25.431 147.709 28.3201 147.592 29.8648 147.625C33.9146 147.734 36.6534 150.873 37.1126 150.523C41.5966 147.7 40.5862 135.442 40.5027 135.442L40.5194 135.309ZM32.5953 43.8179C28.3034 43.3503 28.7292 45.4879 28.8127 45.4879C29.0048 45.5463 29.2052 45.5797 29.4056 45.5881C29.9369 45.5468 30.4714 45.5834 30.9921 45.6966C34.1484 45.8553 34.4239 47.2581 34.1484 50.381C33.8182 53.9495 33.2969 57.4978 32.5869 61.0105C32.1527 65.7617 26.6083 62.931 26.6918 63.8412C26.934 66.5716 27.7606 65.8869 32.3698 66.1959C36.7953 66.4965 36.954 62.6304 38.2148 54.7063C39.5592 46.398 40.1854 44.7698 32.5786 43.9515L32.5953 43.8179ZM35.4844 99.8714C35.2589 99.0865 35.2756 98.7108 34.808 98.6273C32.9126 98.2849 27.1678 98.6273 27.1511 99.4623C27.5877 101.823 28.2361 104.14 29.0883 106.384C29.7719 108.064 30.8657 109.545 32.2696 110.693C32.6621 111.002 33.1046 108.188 36.6617 104.848C37.8224 103.904 36.8204 104.773 35.4677 100.005L35.4844 99.8714ZM36.7619 152.393C36.7619 151.9 31.4931 147.057 24.4874 149.612C24.1626 149.778 23.8912 150.032 23.705 150.345C23.5188 150.658 23.4253 151.018 23.4353 151.383C23.3017 154.23 23.5856 154.405 24.7546 155.558C27.46 158.054 35.0251 156.985 36.7452 152.527L36.7619 152.393ZM35.0168 96.4062C35.1921 96.3477 36.3361 96.8237 36.2442 96.0221C34.2736 79.3722 23.4186 75.7316 25.2306 95.8467C25.5813 100.097 25.4811 96.5398 35.0001 96.5398L35.0168 96.4062ZM29.5308 80.9503C29.1551 81.2509 32.3782 80.6748 34.5909 86.1357C36.1774 90.0685 35.7766 89.3504 35.8351 89.0832C36.8037 89.2168 32.9543 78.3201 29.5141 81.0839L29.5308 80.9503ZM32.8708 47.5503C32.6788 46.7153 31.7937 46.8072 29.1551 46.54C27.8525 46.54 27.6187 47.041 27.4851 48.2768C27.4851 48.3603 25.0552 62.2129 26.5248 62.4718C27.6437 62.6906 28.7843 62.7774 29.9233 62.7306C32.3698 63.073 33.2048 49.0199 32.8708 47.7173V47.5503Z" fill="black"/>
<path d="M104.43 19.6971C105.19 22.3608 101.148 25.1914 98.8353 23.1707C98.365 22.8447 97.9886 22.4007 97.7439 21.8834C97.4991 21.3661 97.3946 20.7936 97.4408 20.2232C97.4158 16.2068 103.144 15.1714 104.43 19.6971ZM98.1005 20.8828C98.1005 22.6447 100.956 24.131 102.76 22.486C107.194 18.4697 97.9418 14.136 98.1005 20.8828Z" fill="black"/>
<path d="M75.7151 60.3779C74.5211 60.3779 75.306 57.6057 71.1644 59.1588C69.3691 59.8268 68.9683 59.0837 69.2021 58.6745C69.5445 58.09 70.0371 58.2153 70.5214 57.9982C75.8738 55.2928 77.2432 59.7851 75.7151 60.3779Z" fill="black"/>
<path d="M71.7405 63.8174C71.9325 64.1848 71.682 66.3224 71.1727 66.7316C71.1307 66.7581 71.0939 66.7921 71.0641 66.8318C70.8554 67.3328 69.5528 67.1574 69.4526 66.2723C69.3709 65.3523 69.6228 64.4336 70.1623 63.6838C69.7782 63.5168 71.3313 63.0492 71.7405 63.8174Z" fill="black"/>
<path d="M66.1967 55.2559C66.2719 55.473 66.6226 55.6818 66.5057 56.283C66.3888 56.8842 65.6707 56.7673 65.3701 56.3748C63.4579 54.3875 60.2599 55.7903 59.834 57.3184C59.7171 57.7609 58.8654 57.9196 58.8821 57.0261C58.8153 56.7589 59.1827 56.1327 59.2412 55.9824C60.0428 53.5943 65.3868 52.8762 66.1967 55.2559Z" fill="black"/>
<path d="M62.8629 64.5076C62.6875 65.7017 59.9905 65.8687 60.909 63.013C61.2597 61.9358 61.3515 61.7104 61.8859 61.6519C64.0319 61.4098 62.938 63.9565 62.8629 64.5076Z" fill="black"/>
</svg>
