<svg width="177" height="170" viewBox="0 0 177 170" fill="none" xmlns="http://www.w3.org/2000/svg">
<g clip-path="url(#clip0_1193_4856)">
<path d="M58.1001 118.267L60.9763 126.834L64.7376 124.904L60.8347 116.807C60.8347 116.807 58.2859 118.125 58.1001 118.267Z" fill="#8DE3A7"/>
<path d="M76.7187 93.9651C81.547 92.6024 86.2188 90.7366 90.6575 88.3984L112.623 91.8499C112.623 91.8499 116.641 94.1775 117.128 94.2483C118.503 94.1364 119.879 94.4451 121.075 95.1333C122.694 96.2572 125.934 96.2572 126.774 96.3988C127.988 96.7914 129.148 97.3355 130.226 98.0184C131.067 98.514 134.801 99.7087 135.438 100.134C136.076 100.558 137.545 101.019 137.899 102.789C138.394 104.964 138.69 107.179 138.784 109.408C138.713 111.028 138.297 115.391 137.66 117.081C137.023 118.772 134.279 127.569 134.12 128.586C133.961 129.604 133.633 136.472 133.235 137.888C132.837 139.304 130.916 146.738 130.58 148.092C130.244 149.446 127.695 156.189 127.27 157.384C126.845 158.579 126.208 160.765 126.385 161.676C126.641 162.664 126.713 163.69 126.597 164.703C126.456 165.836 127.376 171.394 127.093 171.783C126.81 172.173 116.951 172.624 113.508 171.571C110.066 170.518 96.3303 171.996 90.7637 171.712C85.197 171.429 70.4883 171.288 68.382 170.827C66.2757 170.367 63.665 170.27 64.9305 168.863C66.1961 167.455 66.3377 165.482 66.4085 163.553C66.5938 161.809 66.9465 160.087 67.4616 158.411L63.0366 128.1L69.5325 114.825L76.7187 93.9651Z" fill="#BED4FC"/>
<path d="M137.828 85.2913C138.934 86.0701 138.792 85.902 137.828 86.0259C136.863 86.1498 136.359 86.1852 136.244 86.8135C136.149 87.3252 136.004 87.8263 135.81 88.3092C135.765 88.2756 135.723 88.237 135.686 88.1941C133.916 85.5922 135.288 86.2648 132.04 85.9993C131.394 85.9993 133.173 85.3975 133.695 84.2293C133.89 83.7957 132.978 82.1761 133.491 82.4593C135.049 83.2824 134.544 82.9815 134.739 83.0965C135.323 83.4594 137.058 82.0345 137.722 81.8398C137.925 83.2735 136.288 84.1585 137.828 85.2913Z" fill="#FFEB8D"/>
<path d="M150.926 57.8568C151.36 58.0161 150.041 58.3967 149.502 58.8038C148.617 59.4587 149.448 60.0074 149.378 60.9278C148.687 60.6357 147.909 59.1578 146.882 59.1578C145.032 59.7773 144.917 60.0428 144.59 60.0428C144.696 59.379 146.254 58.0338 145.369 57.317C145.023 57.0515 144.165 55.7859 144.599 55.8833C146.316 56.2815 146.307 56.3612 146.634 56.1311C148.36 54.9452 148.404 53.1221 148.723 55.6178C148.997 57.8568 148.44 56.9718 150.926 57.8568Z" fill="#FFEB8D"/>
<path d="M148.777 28.7036C148.732 28.7656 148.697 28.8452 148.635 28.8718C146.405 30.0223 146.254 29.8807 146.387 30.6418C146.724 32.7392 146.644 32.4118 146.591 32.7746C144.228 30.6329 145.166 30.9073 144.821 30.8453C144.166 30.748 142.945 31.4825 141.768 31.7303C141.36 31.7303 141.52 31.6418 142.537 29.9603C143.661 28.1284 138.192 25.9601 142.936 27.3053C143.821 27.562 143.661 27.4381 145.272 25.2698C145.785 24.5707 145.458 27.7301 146.653 27.8363C147.069 27.8363 147.644 28.3319 148.591 28.5443C148.66 28.5878 148.723 28.6415 148.777 28.7036Z" fill="#FFEB8D"/>
<path d="M57.2335 67.2382C61.7293 66.2293 57.2335 67.6453 58.2336 69.3268C59.0566 70.7782 59.3929 70.6454 57.7911 70.2914C55.9326 69.8755 56.7733 69.7516 54.844 71.7074C54.6139 71.9464 54.8883 70.9729 54.9591 70.0525C55.0387 68.9551 52.9147 68.6011 52.605 68.0258C52.7554 68.0258 52.4899 68.0258 53.8528 67.8931C55.5343 67.7515 54.7378 66.8045 55.4724 65.3C56.0742 65.8222 56.6937 67.3532 57.2335 67.2382Z" fill="#FFEB8D"/>
<path d="M66.2754 47.3439C66.4966 47.7156 65.3904 47.3439 63.8239 46.7598C62.9389 46.4323 63.1425 45.7686 61.0539 48.6891C60.2485 49.8307 61.4256 46.1757 60.0892 45.6801C57.0625 44.5473 57.0625 44.7951 60.3901 43.5915C61.1158 43.326 60.7707 41.7418 61.2751 40.3789C64.4346 43.3348 61.7707 43.087 66.3904 42.025C65.709 43.8481 64.293 44.3703 65.1072 45.3172C65.5592 45.9547 65.9503 46.6332 66.2754 47.3439Z" fill="#FFEB8D"/>
<path d="M90.4111 99.2845C90.8271 101.249 91.2341 101.479 90.7739 101.408C86.7649 100.78 82.8532 96.8153 82.0478 93.4877C81.8974 92.8594 81.7912 92.9213 82.4638 92.6912C84.4374 91.9921 85.4551 91.2398 85.2073 91.6823C84.7117 92.5673 85.0657 93.709 85.0038 94.1161C84.7737 95.6471 85.8357 96.9392 87.3667 97.7534C87.5703 97.8596 87.4995 97.8419 88.8535 97.9304C89.7385 97.718 89.8536 97.6295 89.9598 97.9304C90.1577 98.3645 90.309 98.8184 90.4111 99.2845Z" fill="#E7BCA5"/>
<path d="M121.95 31.9093C124.375 32.9271 125.057 33.0864 123.419 33.4935C122.393 33.2457 122.269 33.228 121.649 31.9713C121.588 31.812 121.782 31.8385 121.95 31.9093Z" fill="#D8E9FF"/>
<path d="M126.802 31.5194C126.952 31.5194 126.944 31.6256 126.882 31.7052C126.519 32.192 126.103 32.9088 125.421 32.4752C123.651 31.3335 120.2 30.8114 121.147 29.3334C121.536 28.7316 121.218 29.4219 123.235 30.2892C125.421 31.2273 126.209 31.5902 126.802 31.5194Z" fill="#D8E9FF"/>
<path d="M127.529 29.6074C128.069 29.6605 127.405 30.6251 126.546 30.6074C125.122 30.1118 120.829 28.5365 122.015 27.5984C122.157 27.4922 122.086 27.1913 122.29 27.209C122.644 27.209 122.175 27.5807 124.52 28.5188C126.865 29.4569 127.069 29.5366 127.529 29.6074Z" fill="#D8E9FF"/>
<path d="M123.092 25.3156C127.782 28.8556 129.641 27.0325 128.225 28.6786C127.959 28.9883 126.933 28.4662 126.543 28.3246C124.649 27.6254 121.49 26.6165 123.092 25.3156Z" fill="#D8E9FF"/>
<path d="M135.5 19.0242C135.775 19.1038 135.571 19.7499 135.323 19.6171C134.385 19.1392 135.173 18.918 135.5 19.0242Z" fill="#FFEB8D"/>
<path d="M126.147 16.5983C125.661 16.9965 125.439 16.2266 125.758 16.1381C125.864 16.1115 126.05 16.4478 126.147 16.5983Z" fill="#FFEB8D"/>
<path d="M129.483 9.35939C140.448 9.29744 142.811 23.7229 131.413 25.0239C129.926 25.2009 129.643 24.7761 129.182 25.369C128.35 26.5461 128.89 27.0771 128.209 26.9001C126.818 26.5446 125.491 25.9711 124.279 25.2009C123.156 24.5194 125.164 24.3159 124.58 23.0503C123.996 21.7848 123.97 22.7494 123.049 21.2803C118.792 14.4924 124.828 9.10274 129.483 9.35939ZM134.953 20.6343C135.51 22.0149 137.245 18.7492 135.908 18.3156C134.572 17.8819 134.218 18.82 134.006 18.7669C131.952 18.3067 133.227 18.5722 132.041 17.9616C131.492 17.6784 131.059 18.3421 130.616 17.7138C129.917 16.7049 130.421 17.7138 127.138 16.404C126.908 16.3155 126.784 15.9969 126.607 15.7845C126.43 15.5721 126.156 15.5721 125.828 15.4836C124.872 15.2269 124.324 17.1828 125.828 17.4394C125.988 17.4394 126.103 17.4394 126.049 17.7138C125.713 19.1563 127.669 20.3688 127.28 21.0679C126.75 22.0797 126.377 23.1658 126.173 24.2893C126.129 24.5548 126.368 24.4132 126.465 24.4929C126.837 24.8115 127.014 23.1477 127.97 21.3511C128.616 20.1564 126.74 18.9616 126.784 17.935C126.837 16.6164 127.35 17.3686 128.554 17.7492C129.227 17.9616 129.74 17.7492 129.926 18.1917C130.046 18.4281 130.247 18.6136 130.492 18.7143C130.737 18.815 131.011 18.8243 131.262 18.7404C132.076 18.528 131.864 19.1563 132.82 19.3599C133.776 19.5634 133.767 19.5192 133.767 19.8732C133.767 19.9971 133.767 20.1298 133.616 20.1652C133.161 20.3205 132.727 20.5315 132.324 20.7936C131.82 21.0325 132.041 20.6254 131.2 21.1741C129.935 21.9972 130.147 21.475 129.616 21.891C128.731 22.6078 126.793 24.6522 127.412 25.1389C128.032 25.6257 128.103 24.3513 129.359 23.2008C130.616 22.0503 130.421 22.6078 130.846 22.3158C131.731 21.7671 131.855 21.6874 131.988 21.6786C132.749 21.6166 133.333 20.9794 133.908 20.9263C134.687 20.8555 134.484 20.1741 134.652 20.2272C134.82 20.2803 134.891 20.4838 134.953 20.6343Z" fill="#FFEB8D"/>
<path d="M59.0976 17.5453C59.2367 18.0051 59.2328 18.4963 59.0866 18.9539C58.9403 19.4115 58.6586 19.8139 58.2786 20.1079C57.8986 20.4018 57.4384 20.5734 56.9587 20.6C56.479 20.6266 56.0026 20.5069 55.5925 20.2568C55.1823 20.0067 54.8578 19.6379 54.6618 19.1993C54.4659 18.7607 54.4078 18.2729 54.4951 17.8005C54.5825 17.3282 54.8112 16.8934 55.1511 16.5539C55.4909 16.2144 55.9259 15.9861 56.3984 15.8992C56.9718 15.7957 57.5632 15.9061 58.0607 16.2095C58.5582 16.5128 58.9271 16.9881 59.0976 17.5453Z" fill="#BED4FC"/>
<path d="M50.3294 25.1645C50.7188 24.722 51.2144 24.2795 51.4534 24.8724C51.4534 24.8724 43.4087 33.864 43.391 33.8817C42.7361 33.4304 42.4795 34.3508 50.3294 25.1645Z" fill="#BED4FC"/>
<path d="M55.664 32.9875C55.8233 33.368 55.7525 33.2264 50.177 38.7488C49.8938 39.0409 50.0265 39.032 49.7168 34.5982C49.7168 34.1822 53.2568 31.4122 54.3984 30.0493C55.5401 28.6864 55.2392 28.9165 55.664 32.9875Z" fill="#BED4FC"/>
<path d="M45.9656 21.5722C46.647 21.4837 44.7177 23.0501 43.3106 25.1741C42.992 25.6343 41.7884 27.245 41.3193 27.307C41.3193 27.307 36.8943 27.4397 36.8943 27.4132C36.7704 27.245 39.1334 24.9883 41.3193 22.4837C41.5937 22.0678 41.5937 22.1386 45.9656 21.5722Z" fill="#BED4FC"/>
<path d="M67.48 8.73184C67.393 9.98408 67.1186 11.2162 66.6658 12.3869C64.5329 17.5907 64.7188 17.1216 64.1347 16.0773C61.4266 11.2541 57.6742 10.7673 58.3822 10.3337C60.177 9.01204 62.1943 8.02289 64.3382 7.4132C67.6924 6.5282 67.3207 7.4132 67.48 8.73184Z" fill="#8DE3A7"/>
<path d="M121.173 73.5303C120.491 71.2027 122.173 65.3352 122.677 64.0342C123.362 61.6889 123.56 59.2286 123.261 56.8038C122.907 54.0337 120.96 49.3432 119.934 47.0688C118.907 44.7943 114.447 40.5817 113.031 39.4843C111.615 38.3869 104.827 35.5372 102.411 34.4752C99.9948 33.4132 95.6495 33.1743 95.6495 33.1743C95.001 32.3629 94.0961 31.7958 93.0832 31.5659C92.0702 31.336 91.0092 31.4568 90.074 31.9087C87.419 33.0858 86.9765 35.9178 86.7464 35.9797C81.2594 35.9178 80.4894 40.3428 80.4894 40.3428C78.4539 42.4048 79.0203 43.7058 79.8699 45.0598C80.7195 46.4139 83.4719 46.4493 83.4719 46.4493C83.4719 46.4493 100.207 42.8119 105.314 50.7769C110.42 58.7419 108.411 71.7337 108.411 71.7337L108.553 84.637C109.364 85.4066 110.377 85.9294 111.474 86.1441C112.571 86.3588 113.707 86.2566 114.748 85.8495C111.571 83.4246 112.181 82.044 112.181 82.044C116.996 85.0176 119.12 82.044 119.12 82.044C118.302 81.8839 117.535 81.526 116.887 81.0015C116.239 80.477 115.73 79.8018 115.403 79.035C116.821 79.4647 118.286 79.7232 119.766 79.8049C123.722 80.1855 124.607 78.0349 124.607 78.0349C124.607 78.0349 121.845 75.8578 121.173 73.5303Z" fill="#FFEB8D"/>
<path d="M87.2776 79.9814C87.0301 79.7053 86.8932 79.3476 86.8932 78.9769C86.8932 78.6061 87.0301 78.2484 87.2776 77.9724C81.8349 74.6183 83.0031 71.8482 81.8349 72.4058C80.5822 72.9586 79.2443 73.2938 77.8789 73.3969C77.5249 73.5031 78.8613 75.7865 81.8083 76.7688C84.304 77.6007 79.1533 79.9813 78.3657 80.0433C77.0824 80.1407 82.4986 83.3886 85.5696 81.3177C85.6417 81.2592 85.7304 81.2248 85.8232 81.2195C85.9159 81.2142 86.0079 81.2383 86.0863 81.2882C86.1646 81.3381 86.2252 81.4114 86.2596 81.4977C86.2939 81.584 86.3002 81.679 86.2776 81.769C86.0285 83.0059 85.5833 84.195 84.9589 85.2914C86.49 85.5657 88.2423 84.5568 89.5167 83.6895C89.853 83.4683 89.7291 83.0789 89.8618 82.8045C89.9149 82.6806 88.7998 81.8576 87.2776 79.9814Z" fill="#FFEB8D"/>
<path d="M73.339 90.8847C74.9585 94.2477 75.0293 94.0795 74.6311 94.2211L56.639 100.159C56.4266 100.159 56.7187 100.664 52.7185 92.752C52.5149 92.3538 51.4441 92.8936 64.073 88.6633C66.2678 87.9288 68.3564 87.1942 70.7017 86.4243C71.3035 86.2296 70.799 85.6278 73.339 90.8847ZM70.9229 93.7609C70.5424 93.106 70.2415 93.5574 69.7724 93.5751C69.6574 93.5751 58.1966 97.1151 57.3824 97.5045C56.9842 97.6726 56.6213 98.2036 57.1081 98.3275C57.2939 98.3718 70.2415 94.5486 70.9229 93.7609ZM68.144 90.0262C68.4272 89.8846 68.6219 89.389 68.0201 89.2651C67.9139 89.2651 67.2325 89.4687 66.2501 89.7165C62.7544 90.6015 62.2676 91.2564 61.3649 91.2387C60.3206 91.2387 60.3649 91.6635 58.8073 92.0086C55.2673 92.7963 55.8425 93.1326 54.8956 93.1768C54.7805 93.1768 54.5947 93.4512 54.5593 93.5574C54.4796 93.876 55.4443 94.0618 55.9045 93.8052C56.8886 93.2764 57.9634 92.9371 59.0728 92.8051C60.533 92.5485 60.4799 92.0794 61.3384 92.1237C62.9756 91.9024 63.5951 91.2387 65.0819 90.867C66.5687 90.4953 67.0112 90.6015 68.144 90.0262ZM65.8165 93.2565C65.9646 93.2662 66.1113 93.2224 66.2299 93.1331C66.3485 93.0438 66.431 92.9148 66.4625 92.7697C66.4625 91.752 62.9225 93.3715 61.2499 93.6547C59.7277 93.9114 56.2673 94.9203 55.7629 95.469C55.4089 95.8584 55.6036 96.0796 56.0815 96.1062C57.8515 95.5044 57.6125 95.4247 58.2497 95.2212C61.9313 94.1857 59.4002 95.0353 63.3031 93.9114C65.0731 93.4335 65.1881 93.2565 65.8165 93.2565Z" fill="white"/>
<path d="M59.2942 114.771C59.5597 115.31 58.5862 115.611 58.0198 115.718C57.6835 115.496 58.4269 116.726 50.3203 100.398C45.1342 90.0791 45.1342 90.495 45.6652 90.495C48.4264 90.5039 44.1519 84.4062 59.2942 114.771Z" fill="#8DE3A7"/>
<path d="M47.6311 96.9285C57.49 116.93 57.3042 116.009 56.8794 116.16C51.5694 117.983 54.2244 121.47 53.6757 122.664C53.3836 122.248 35.0907 84.7686 34.9668 84.4589C35.1084 84.4058 34.6305 84.1668 42.3831 88.7954C44.8699 90.2822 43.4274 88.3883 47.6311 96.9285Z" fill="#8DE3A7"/>
<path d="M74.8692 87.1227C71.8513 80.8658 72.0548 81.2375 71.8071 81.326C69.1521 82.2729 55.2576 86.8838 52.9123 87.6537C47.1333 89.5653 47.4961 89.1936 47.8501 89.8839C61.3906 116.354 59.3551 114.859 60.9038 114.443C62.7181 114.398 61.5056 117.416 61.5676 117.576C61.6295 117.735 62.072 118.841 62.3198 118.753C62.8544 118.52 63.4009 118.316 63.9571 118.142C65.208 117.957 66.4265 117.596 67.5768 117.071C70.0548 115.806 70.0902 119.779 66.9573 121.31C66.1097 121.826 65.1996 122.23 64.2491 122.514C64.0898 122.514 64.0544 122.638 64.1252 122.779C64.7624 124.125 64.6031 124.018 65.0103 124.018C69.7892 124.018 69.2229 123.248 72.5327 122.549C73.5063 122.337 73.9133 123.532 73.5328 124.319C73.4443 124.496 73.5948 124.479 73.7806 124.425C73.7806 124.425 89.7106 119.708 90.4009 119.487C91.0912 119.266 90.7637 120.062 74.8692 87.1227ZM75.2232 94.9196C75.0816 94.9727 58.6206 100.433 56.6382 101.017C55.9036 100.938 56.0452 101.336 51.9477 92.8133C51.399 91.6805 50.6733 92.2115 70.8424 85.5032C71.6389 85.2377 71.6035 85.5032 72.7098 87.7688C75.7011 93.9107 76.356 94.5302 75.2232 94.9196Z" fill="#8DE3A7"/>
<path d="M122.942 138.781C123.827 140.1 124.03 138.029 116.676 148.41C115.879 149.489 115.016 150.517 114.092 151.49C112.844 152.932 111.844 154.543 109.87 156.056C105.25 159.596 101.79 158.711 97.7634 153.994C97.1538 152.958 96.7202 151.827 96.4801 150.649C95.9049 148.322 94.8783 147.675 94.1614 145.038C92.2852 138.144 94.3296 104.833 94.5154 104.664C95.2765 103.965 94.0906 104.31 92.3826 102.08C90.9931 100.31 91.6392 98.4164 88.8426 93.8675C88.7868 93.7444 88.7035 93.6358 88.5992 93.5499C88.4949 93.4639 88.3723 93.4031 88.2408 93.3719C87.7009 93.2834 88.1434 93.9825 88.3912 94.5312C88.7629 95.3366 88.0018 94.8233 87.8602 94.8144C87.4974 94.7702 87.2496 95.1861 88.4886 95.9118C88.639 96.0003 89.0461 96.0092 89.1523 96.1508C89.2563 96.3483 89.3308 96.56 89.3736 96.7791C89.3736 96.903 89.3736 96.9384 89.2585 96.9473C88.285 97.0623 87.8602 97.2659 87.0549 96.5844C86.5947 96.195 85.7716 95.31 85.7893 94.7082C85.8336 92.9382 85.5327 92.0532 87.0549 91.1682C87.6478 90.8408 87.754 90.2832 87.7894 89.6283C87.8514 88.4247 89.0638 89.0796 89.5594 87.5132C90.2674 85.283 93.5065 87.2477 93.0375 85.9998C91.6038 82.2386 87.108 79.8048 87.7275 78.7251C88.3116 77.7782 90.4444 79.5393 90.9931 80.1765C92.71 82.1147 95.8606 84.752 96.1438 86.5928C96.3208 87.699 97.0908 88.0796 97.8607 90.6638C99.2502 95.3012 100.825 97.2747 101.011 102.399C101.303 110.364 109.525 140.932 109.534 140.958C109.764 141.436 110.313 141.233 110.286 140.737C109.968 134.799 106.658 128.25 107.472 128.205C108.814 128.113 110.157 128.375 111.366 128.967C112.18 129.577 117.207 134.046 117.649 134.462C119.579 136.179 121.623 136.763 122.942 138.781Z" fill="#E7BCA5"/>
<path d="M112.924 63.7074C116.659 60.5479 121.075 63.1144 117.349 69.0793C116.606 70.2564 115.862 71.2741 112.614 72.6193C108.393 74.3893 107.888 63.5835 107.809 83.2393C107.809 88.8148 108.411 90.4875 116.243 94.2841C116.553 94.4346 113.836 96.4612 113.818 96.4701C109.101 99.8508 111.871 98.2401 106.649 100.338C105.764 100.674 102.109 102.187 102.047 101.63C101.339 95.709 99.9234 94.3549 98.9499 90.8857C98.0649 87.8236 97.0737 87.0448 96.9852 86.0182C96.8613 84.5137 93.4452 81.5932 93.0292 81.0622C92.8788 80.8852 92.8965 80.8144 93.1177 80.7348C103.092 77.4868 101.578 75.0177 100.569 75.6106C98.5162 76.8054 89.3211 80.0976 85.0377 75.1858C80.3383 69.7873 80.2321 60.2028 82.1791 60.8046C82.9838 60.9825 83.8218 60.9364 84.602 60.6711C85.3822 60.4058 86.0747 59.9316 86.6041 59.3001C87.1174 58.7868 86.6041 60.7426 89.0821 61.194C89.5954 61.2913 89.7901 60.663 89.4804 60.5125C88.7281 60.132 88.0201 59.955 87.613 58.6894C87.2944 57.7071 90.3565 58.4947 90.268 56.1937C90.268 55.5831 89.6751 55.5654 89.5423 56.1141C89.3034 57.061 89.5423 56.9194 88.1263 57.1849C88.0024 57.1849 87.967 57.1849 88.0113 57.0345C88.7901 54.583 88.5423 53.8839 89.3388 53.2909C89.6838 53.0893 90.0766 52.984 90.4762 52.9861C90.8758 52.9882 91.2674 53.0977 91.6103 53.303C91.9531 53.5083 92.2344 53.802 92.4249 54.1533C92.6153 54.5046 92.7079 54.9006 92.6929 55.2999C92.808 58.1938 95.6134 62.433 98.8879 62.3091C103.525 62.1232 104.862 57.3442 105.702 56.8221C106.26 56.4681 106.844 56.6893 109.198 58.1319C109.888 58.5478 107.88 62.7427 111.154 64.1764C111.499 64.3269 110.747 64.7871 111.588 65.0614C111.685 65.1676 112.163 64.3446 112.924 63.7074ZM117.163 66.4863C117.286 66.239 117.337 65.9624 117.31 65.6877C117.284 65.4131 117.181 65.1513 117.013 64.9321C116.845 64.7129 116.62 64.545 116.362 64.4474C116.103 64.3498 115.823 64.3265 115.552 64.38C114.119 64.6897 112.552 66.5128 113.313 67.9908C113.57 68.4952 113.313 69.5395 112.782 69.6634C111.729 69.8935 111.658 69.3979 111.402 69.8758C111.145 70.3537 111.712 70.7608 112.287 70.7608C114.11 70.7608 114.721 68.6722 114.136 67.5483C114.061 67.4257 114.017 67.2867 114.008 67.1433C113.999 66.9999 114.025 66.8564 114.083 66.7252C114.455 65.8402 116.305 64.1676 116.482 66.5394C116.526 66.7872 116.977 66.8757 117.163 66.4863ZM89.2326 67.4863C89.2326 67.1677 89.0379 66.2385 88.2945 66.2208C87.4095 66.2208 87.2767 67.5394 87.9139 68.1855C88.2945 68.5837 89.0202 68.6722 89.2326 67.4863Z" fill="#E7BCA5"/>
<path d="M74.9305 133.445C77.5147 135.215 77.1165 133.524 75.8686 141.914C75.2641 145.534 74.4155 149.109 73.3287 152.614C73.0809 153.34 73.4526 150.534 73.3287 147.561C73.2048 143.525 69.0453 136.781 68.6028 136.941C67.7178 137.233 69.4878 138.268 71.6472 144.251C73.1251 148.446 72.3463 154.216 71.3109 155.756C69.9657 157.738 68.7975 158.579 65.4079 158.066C63.8875 157.836 62.469 157.162 61.3317 156.127C60.1945 155.092 59.3894 153.743 59.0182 152.251C58.5403 150.286 57.7615 148.021 58.1332 145.64C59.9032 132.896 58.8412 138.799 61.0537 141.843H61.452C61.3281 140.879 61.2396 140.958 60.0537 137.064C59.682 135.825 59.6731 135.648 59.2837 135.401C57.6111 134.356 57.9208 134.188 57.5934 132.418C57.3898 131.347 56.0712 131.631 56.2393 130.126C56.2853 129.702 56.2225 129.273 56.0568 128.88C55.8912 128.486 55.6281 128.142 55.2924 127.878C54.6817 127.303 54.8233 125.604 55.8853 124.497C57.7792 122.533 57.9916 121.657 59.8324 120.294C60.1245 120.072 60.1953 120.152 62.9211 119.515C63.514 119.373 63.1512 119.232 64.399 119.01C67.7355 118.409 68.5762 117.24 68.5408 117.984C68.4644 118.583 68.2227 119.148 67.8429 119.617C67.463 120.086 66.96 120.44 66.3903 120.639C65.6729 121.057 64.9135 121.398 64.1247 121.657C58.8147 122.86 59.0979 126.418 59.9652 125.4C61.098 124.073 60.9298 123.798 61.3546 124.577C61.6732 125.161 61.5139 124.896 60.4696 125.834C59.5846 126.63 56.6287 129.02 58.0624 128.807C58.266 128.807 58.381 128.675 60.2572 127.099C61.5936 125.967 62.1334 124.949 66.4522 124.905C68.9391 124.905 70.8772 123.763 72.5676 123.435C73.2136 123.303 73.0455 125.374 68.5143 126.595C67.5255 126.991 66.4998 127.287 65.4522 127.48C64.6237 127.521 63.8247 127.801 63.1512 128.285C62.5317 128.869 62.0715 129.17 62.3901 129.498C62.5051 129.622 62.6113 129.719 62.7795 129.542C63.8503 128.427 64.9566 128.48 67.2045 128.029C67.8771 127.896 67.7355 127.56 68.8063 127.453C69.9018 127.265 70.9861 127.017 72.0543 126.71C72.9393 126.71 72.2578 128.586 67.6293 130.374C65.3902 131.259 64.3371 131.498 63.5494 132.675C63.337 132.993 63.16 133.471 63.5494 133.648C64.1955 133.94 63.8061 132.586 66.1159 131.746C66.5142 131.604 66.6115 131.569 66.7531 133.339C67.054 137.18 65.638 138.861 65.523 140.419C65.523 140.631 65.7708 140.905 66.0363 140.578C66.4382 139.712 66.7956 138.826 67.1071 137.923C69.0895 131.993 64.4521 130.064 70.6471 131.967C73.4526 132.834 73.842 132.701 74.9305 133.445Z" fill="#E7BCA5"/>
<path d="M60.6026 115.47C61.8062 115.196 60.8062 117.798 58.6025 119.01C56.8325 120.01 56.6555 120.107 56.4077 120.408C56.1599 120.709 56.4077 121.09 56.6378 121.01C58.0892 120.585 60.4964 117.992 55.5581 123.665C54.3899 125.01 54.5669 125.108 54.4076 123.922C54.4182 123.471 54.4596 123.022 54.5315 122.577C54.7528 121.523 53.5934 119.037 54.8324 118.249C56.4358 117.274 58.1388 116.473 59.9123 115.859C60.1256 115.702 60.3574 115.571 60.6026 115.47Z" fill="#E7BCA5"/>
<path d="M82.5869 49.8916C82.5869 49.7677 83.2949 46.3516 84.1622 45.1038C85.0295 43.8559 88.0031 40.6788 88.0031 40.6788C88.0031 40.6788 90.2156 41.8293 90.4192 39.7938C90.4192 39.7938 91.2511 40.5814 92.1892 39.1212C93.1273 37.6609 95.5787 37.8114 96.4637 38.2008C97.3487 38.5902 99.7825 39.0327 101.128 41.2894C102.473 43.5462 107.084 51.4138 107.907 52.5466C108.73 53.6794 111.341 56.9716 109.402 57.5292L105.862 55.5114C105.862 55.5114 104.632 51.9094 101.544 51.3961C98.455 50.8828 94.7822 50.5731 93.2777 53.1661C93.2777 53.1661 90.313 51.3961 88.2509 53.2812C88.2509 53.2812 87.7819 50.5111 85.2065 50.0775C82.6312 49.6438 82.5869 49.8916 82.5869 49.8916Z" fill="#E7BCA5"/>
<path d="M23.3204 66.8666L22.9045 64.3621L24.8957 66.0436L27.4622 64.84L26.5949 67.6985L28.418 70.3535L25.3736 69.8314L24.17 72.5218L23.4001 69.2915L20.7539 68.0348L23.3204 66.8666Z" fill="#FFEB8D"/>
<path d="M150.785 66.114C146.652 69.4062 146.21 75.7163 144.13 74.2029C141.749 72.4329 140.227 70.5832 140.156 67.9282C140.156 67.1937 139.758 66.4768 139.05 66.7423C138.475 66.9932 137.883 67.2061 137.28 67.3796C135.253 67.9106 135.333 66.0697 134.395 66.9282C134.017 67.1894 133.664 67.4857 133.342 67.8132C133.05 68.0787 133.191 67.9282 132.519 67.4238C131.846 66.9193 130.873 67.6096 131.005 67.999C131.07 68.0937 131.164 68.1637 131.274 68.1974C131.383 68.2312 131.501 68.2268 131.607 68.1849C132.129 67.9548 132.209 68.4504 132.74 68.8752C133.625 69.592 134.324 67.2557 135.085 67.7955C136.351 68.6805 136.926 68.3796 138.855 67.7247C140.05 67.3265 137.758 69.9726 142.546 74.0347C145.201 76.3092 145.652 75.5923 147.732 71.4328C148.493 69.9106 149.989 67.4326 151.343 66.6007C151.9 66.2556 152.555 66.0786 153.918 67.0432C157.113 69.3088 155.688 69.8841 155.272 70.8664C155.201 71.0434 155.582 71.362 155.75 71.1319C156.803 69.6894 156.511 70.1407 156.732 69.4416C156.352 67.2468 152.768 64.5387 150.785 66.114Z" fill="black"/>
<path d="M149.459 54.8308C149.388 54.3883 149.246 53.9458 149.158 53.5122C149.147 53.4073 149.105 53.3081 149.038 53.2275C148.97 53.147 148.879 53.0889 148.777 53.0608C148.432 52.9546 148.388 53.1493 147.202 54.5565C146.149 55.8043 146.777 55.5919 144.193 54.9547C144.05 54.98 143.915 55.0369 143.797 55.1211C143.679 55.2053 143.582 55.3147 143.512 55.4415C143.335 55.6981 143.352 55.7955 144.14 57.0699C144.813 58.1584 145.025 57.8929 144.706 58.362C143.034 60.8665 142.281 61.6896 145.361 60.5656C147.131 59.9284 147.06 59.8311 147.317 60.0877C148.512 61.2825 150.158 63.3003 150.255 61.6099C150.297 60.9468 150.195 60.2824 149.954 59.6629C149.831 59.0257 152.264 58.6983 152.406 57.7867C152.418 57.7472 152.422 57.7056 152.417 57.6646C152.412 57.6236 152.399 57.584 152.378 57.5483C152.357 57.5126 152.329 57.4816 152.296 57.4571C152.263 57.4327 152.225 57.4153 152.185 57.4062C148.813 56.2114 149.857 57.3796 149.459 54.8308ZM149.503 58.7868C148.618 59.4417 149.45 59.9904 149.379 60.9108C148.689 60.6187 147.91 59.1408 146.883 59.1408C145.034 59.7603 144.919 60.0258 144.591 60.0258C144.698 59.362 146.255 58.0168 145.37 57.3C145.025 57.0345 144.167 55.7689 144.6 55.8663C146.317 56.2645 146.308 56.3442 146.636 56.1141C148.361 54.9282 148.406 53.1051 148.724 55.6008C148.999 57.8487 148.441 56.9283 150.928 57.831C151.335 57.9991 150.061 58.3797 149.503 58.7868Z" fill="black"/>
<path d="M138.413 40.4409C138.484 43.9809 140.706 45.7509 136.989 45.273C131.289 44.5296 130.147 43.1578 130.687 47.2996C130.758 47.8572 130.785 47.6802 128.032 48.7953C126.652 49.3617 127.28 50.0608 128.032 49.7688C130.546 48.7422 131.652 48.5917 131.572 47.4943C131.395 45.5562 131.148 45.211 131.882 45.3349C136.847 46.1314 137.688 46.3173 138.582 46.2199C142.068 45.8482 137.626 40.2993 140.006 39.1399C141.679 38.308 142.237 39.6355 150.264 42.8304C150.706 43.0074 151.149 43.1844 151.29 42.7684C151.432 42.3525 151.025 42.3259 150.803 42.2374C142.838 38.9718 143.653 38.8125 141.953 38.2549C141.579 38.08 141.168 38.0008 140.756 38.0247C140.344 38.0485 139.944 38.1745 139.593 38.3914C139.241 38.6083 138.95 38.9092 138.744 39.267C138.538 39.6248 138.424 40.0282 138.413 40.4409Z" fill="black"/>
<path d="M141.846 29.5979C141.182 30.6865 139.642 33.0583 141.067 32.7043C141.598 32.5804 142.616 32.3857 142.837 32.2972C144.191 31.837 144.235 31.6511 144.421 31.8458C146.191 33.6158 147.457 35.554 147.368 32.3149C147.315 30.7927 146.979 30.5449 147.412 30.3767C147.988 30.1289 149.129 29.4917 149.448 29.4121C150.536 29.0846 150.59 28.3766 150.12 28.1642C149.651 27.9518 148.35 27.704 147.545 27.3589C146.262 26.7836 146.811 27.5713 145.988 24.3145C145.968 24.2176 145.919 24.1293 145.846 24.0622C145.774 23.9951 145.682 23.9526 145.583 23.9408C145.485 23.9291 145.386 23.9486 145.3 23.9966C145.213 24.0446 145.144 24.1187 145.103 24.2083C144.996 24.3499 144.625 24.8809 143.492 26.5447C143.226 26.9429 140.686 25.6066 140.27 26.1022C139.226 27.3146 142.191 29.0315 141.846 29.5979ZM142.908 27.35C143.793 27.6067 143.633 27.4828 145.244 25.3145C145.757 24.6154 145.43 27.7748 146.625 27.881C147.032 27.881 147.616 28.3766 148.563 28.589C148.639 28.6166 148.711 28.6554 148.775 28.7041C148.731 28.766 148.696 28.8457 148.634 28.8722C146.403 30.0227 146.253 29.8811 146.386 30.6422C146.722 32.7397 146.642 32.4122 146.589 32.7751C144.226 30.6334 145.164 30.9077 144.819 30.8458C144.164 30.7484 142.943 31.483 141.766 31.7308C141.359 31.7308 141.518 31.6423 142.536 29.9608C143.633 28.1465 138.164 25.996 142.908 27.35Z" fill="black"/>
<path d="M120.925 31.625C120.886 31.9705 120.919 32.3205 121.023 32.6525C121.126 32.9845 121.298 33.2912 121.527 33.5529C121.757 33.8145 122.038 34.0254 122.353 34.1719C122.669 34.3185 123.011 34.3975 123.359 34.4039C124.651 34.5189 125.173 33.4127 125.66 33.5189C126.749 33.7313 127.616 32.5277 127.651 31.6692C127.651 31.2179 127.988 30.917 128.165 30.4833C128.342 30.0497 128.112 29.7753 128.342 29.7045C128.68 29.4716 128.953 29.1555 129.135 28.7867C129.316 28.4178 129.399 28.0086 129.377 27.5982C129.377 27.4832 129.678 27.0761 129.377 26.7132C129.315 26.6336 129.616 26.1557 129.687 26.0849C129.758 26.0141 138.183 26.6867 139.661 19.2615C141.82 8.41141 124.395 4.02181 121.147 14.4471C119.377 20.058 123.979 23.0316 123.704 23.6069C122.987 25.0848 122.527 24.4919 122.262 25.1379C121.554 26.7752 122.262 26.5716 121.881 26.7752C120.607 27.4301 121.315 28.2354 120.872 28.5452C120.527 28.7988 120.293 29.176 120.218 29.5981C120.144 30.0201 120.236 30.4545 120.474 30.8108C120.819 31.2179 120.996 31.3064 120.925 31.625ZM123.421 33.4923C122.394 33.2445 122.271 33.2268 121.651 31.9701C121.571 31.8108 121.766 31.8374 121.934 31.9082C124.377 32.9171 125.058 33.0764 123.421 33.4923ZM123.014 21.2793C118.757 14.5268 124.784 9.10171 129.448 9.35836C140.413 9.29641 142.776 23.7219 131.377 25.0229C129.89 25.1999 129.607 24.7751 129.147 25.368C128.315 26.5451 128.855 27.0761 128.173 26.8991C126.782 26.5436 125.456 25.9701 124.244 25.1999C123.12 24.5184 125.129 24.3149 124.545 23.0493C123.961 21.7838 123.97 22.7484 123.014 21.2793ZM123.058 25.3149C127.749 28.8549 129.607 27.0318 128.191 28.6779C127.926 28.9877 126.899 28.4655 126.51 28.3239C124.651 27.6248 121.492 26.6159 123.094 25.3149H123.058ZM121.978 27.5982C122.12 27.492 122.049 27.1911 122.253 27.2088C122.607 27.2088 122.138 27.5805 124.483 28.5186C126.828 29.4567 127.032 29.5629 127.492 29.6072C127.952 29.6514 127.439 30.6249 126.554 30.6072C125.12 30.1116 120.837 28.5363 122.014 27.5982H121.978ZM121.093 29.3682C121.483 28.7664 121.164 29.4567 123.182 30.324C125.368 31.271 126.156 31.625 126.722 31.5542C126.873 31.5542 126.864 31.6604 126.802 31.74C126.439 32.2268 126.023 32.9436 125.341 32.51C123.616 31.3064 120.2 30.8108 121.147 29.3328L121.093 29.3682Z" fill="black"/>
<path d="M138.422 84.7253C137.732 84.2828 137.997 84.2297 138.148 83.5748C138.759 80.9198 138.732 81.1057 138.697 80.9198C138.692 80.8449 138.667 80.7727 138.625 80.711C138.582 80.6494 138.523 80.6008 138.454 80.5706C138.385 80.5404 138.31 80.5297 138.235 80.5398C138.161 80.5499 138.091 80.5804 138.033 80.6278C137.148 81.3269 136.139 81.7429 135.236 82.3978C134.82 82.681 133.422 81.265 133.103 81.3889C132.634 81.5836 132.289 81.8137 132.44 82.3889C133.068 84.6634 132.873 84.4244 132.546 84.6368C131.581 85.2563 130.776 85.5218 130.838 86.3095C130.838 86.9467 132.767 86.9024 133.493 86.9113C134.219 86.9201 134.068 87.2299 134.316 87.637C135.422 89.4601 136.086 90.5132 136.635 88.4423C137.112 86.7254 136.52 86.9113 139.458 86.8139C140.714 86.7166 139.767 85.5838 138.422 84.7253ZM137.794 86.0086C136.758 86.1413 136.325 86.1679 136.21 86.7962C136.115 87.3079 135.97 87.8089 135.776 88.2919C135.731 88.2582 135.689 88.2197 135.652 88.1768C133.882 85.5749 135.254 86.2475 132.006 85.982C131.36 85.982 133.139 85.3802 133.661 84.212C133.856 83.7784 132.944 82.1588 133.457 82.442C135.015 83.2651 134.511 82.9642 134.705 83.0792C135.289 83.4421 137.024 82.0172 137.688 81.8225C137.927 83.2828 136.245 84.1678 137.829 85.2829C138.944 86.0528 138.794 85.8847 137.794 86.0086Z" fill="black"/>
<path d="M128.553 96.6998C126.04 95.3723 124.013 96.3635 120.915 94.6112C120.026 93.988 118.944 93.6996 117.862 93.797C117.11 93.9917 110.579 91.142 109.171 88.0445C108.874 87.2366 108.718 86.3833 108.711 85.5223C108.649 84.8497 111.959 87.7348 115.163 86.1595C115.246 86.1304 115.319 86.0782 115.373 86.009C115.427 85.9398 115.46 85.8565 115.469 85.769C115.477 85.6815 115.46 85.5934 115.42 85.5152C115.38 85.437 115.318 85.3718 115.243 85.3276C114.082 84.8407 113.104 84.0018 112.446 82.9292C112.34 82.7522 112.216 82.3982 112.623 82.6726C116.225 85.124 120.951 82.5044 119.508 81.7876C118.226 81.4624 117.087 80.7218 116.269 79.6813C116.092 79.46 116.269 79.4954 116.375 79.5574C119.03 80.7433 122.765 80.5751 124.871 78.5485C125.969 77.4865 122.446 77.0351 121.676 72.8933C120.907 68.7515 123.446 66.0346 123.889 58.9634C124.119 55.2818 121.376 48.4585 119.641 45.9097C114.924 38.989 108.136 35.6083 99.6665 33.2011C97.6615 32.7396 95.5718 32.7975 93.5954 33.3692C93.2414 33.5108 93.3211 34.0949 93.7459 34.033C96.8024 33.3581 99.998 33.7517 102.799 35.1481C106.251 36.7765 113.074 38.3164 118.252 45.5999C129.615 61.5299 115.597 69.4949 122.615 76.7696C124.093 78.3007 124.305 78.0529 123.606 78.4688C122.352 79.17 120.927 79.5053 119.492 79.4364C118.058 79.3676 116.671 78.8974 115.49 78.0794C114.942 77.7254 114.375 78.0794 114.667 78.7432C115.897 81.7168 118.889 82.1062 118.119 82.3717C114.048 83.7434 112.402 81.2477 111.826 80.9291C110.605 80.2742 110.384 82.9292 113.747 85.4869C114.446 86.0179 108.57 85.5665 108.623 83.6461C109.109 67.4683 107.552 74.566 112.251 73.9111C116.154 73.3535 120.659 67.8223 119.579 63.9194C118.853 61.3264 116.455 61.6273 115.853 61.1936C110.021 57.0076 106.924 55.7155 105.233 53.0605C103.233 49.9276 95.7725 48.8479 93.1441 52.5383C93.0467 52.6799 92.9671 52.7153 92.8343 52.5383C92.5912 52.2467 92.291 52.008 91.952 51.837C91.6131 51.6659 91.2428 51.5661 90.8638 51.5437C90.4848 51.5214 90.1053 51.5769 89.7486 51.7068C89.3919 51.8368 89.0656 52.0384 88.7899 52.2994C88.6748 52.4233 88.6217 52.4233 88.5775 52.2463C88.1173 50.3524 85.5419 49.4585 83.4268 49.3435C83.0993 49.3435 83.0374 49.4585 83.887 47.2549C84.0463 46.8478 84.9667 46.7593 86.3296 47.7328C87.5597 48.4939 86.7013 45.6442 84.7454 45.6884C83.8604 45.6884 87.3296 41.8918 87.8695 41.2634C88.1527 40.9448 88.2323 41.4935 88.9315 41.5555C89.2235 41.5555 89.4094 41.0953 89.0554 40.8209C84.5153 37.2809 89.3297 30.0062 93.6131 32.3515C94.4981 32.8559 94.9318 31.9178 94.0733 31.4665C91.0466 29.9885 87.6217 32.0063 86.6659 35.3162C86.542 35.7233 86.5154 35.2543 84.4534 35.7322C83.5298 35.9502 82.6805 36.4091 81.9918 37.062C81.3032 37.7149 80.7998 38.5385 80.5328 39.4492C80.413 39.867 80.1803 40.2436 79.8602 40.5377C77.8247 42.7325 78.7982 45.5291 81.1169 46.2283C81.2851 46.2814 81.9488 46.361 82.0019 46.0513C82.1435 45.538 81.7276 45.5291 81.4001 45.4318C78.3026 44.5025 80.1169 40.3342 80.462 41.8121C80.8072 43.2901 82.8073 45.1486 83.2409 44.3875C83.6746 43.6264 80.0903 42.706 81.4178 39.3872C82.4621 36.7322 86.4181 35.8472 86.4092 36.8827C86.3561 40.1572 87.8075 40.4227 87.4535 40.7944C85.6835 42.644 84.7985 43.2989 83.71 45.5999C83.6314 45.7985 83.4837 45.9619 83.294 46.0601C81.9577 46.6796 81.4621 48.7151 81.9754 48.4142C83.0728 47.6797 82.7188 47.7239 82.4444 49.0957C82.3117 49.7417 81.4267 49.1488 79.1965 50.3524C75.2228 52.5472 77.1521 57.7598 80.5328 60.0697C81.8161 60.9547 78.0017 62.1848 81.7895 71.2738C81.8073 71.3031 81.8177 71.3362 81.8198 71.3704C81.822 71.4046 81.8158 71.4388 81.8019 71.4701C81.788 71.5013 81.7668 71.5288 81.7399 71.5501C81.7131 71.5714 81.6816 71.5859 81.6479 71.5924C80.256 72.2189 78.7493 72.5504 77.2229 72.5659C76.6919 72.5128 76.7096 73.0969 76.8689 73.5217C78.1876 77.0617 81.8426 77.3891 81.1523 77.7962C78.3646 79.46 78.4265 79.1503 77.6831 79.3273C77.546 79.3407 77.4198 79.4078 77.332 79.5139C77.2441 79.62 77.2017 79.7565 77.2141 79.8937C77.1521 80.6105 77.7097 81.0176 78.4885 81.5752C81.8161 83.947 85.0906 82.4602 85.2587 82.6195C84.9967 83.5117 84.5738 84.3485 84.0109 85.0886C82.7896 86.6374 86.2676 86.8586 89.1616 85.0355C89.2139 85.0224 89.2686 85.0224 89.3209 85.0355C89.2216 85.6785 89.0797 86.3141 88.8961 86.9383C88.4713 88.3454 87.4004 87.8233 86.9933 89.2835C86.6305 90.6376 79.7629 92.5315 78.869 93.0979C78.577 93.2749 78.7894 93.4076 76.1167 87.9472C72.3289 80.2388 72.5767 80.2477 71.6032 80.5751C69.3376 81.3008 70.1252 81.6814 68.7092 78.8051C67.9835 77.3272 51.4252 81.646 46.3453 87.6905C45.2744 89.018 45.9205 89.3455 46.2833 89.018C46.4869 88.841 47.9029 86.0444 55.8679 82.6018C59.6463 80.9642 63.6348 79.862 67.718 79.3273C68.1782 79.2742 67.9924 79.1414 68.9039 81.1592C69.134 81.6725 47.009 88.4959 46.4603 89.195C45.9116 89.8942 44.6903 89.6729 45.062 89.3897C45.1442 89.3338 45.2019 89.2486 45.2233 89.1515C45.2447 89.0544 45.2282 88.9529 45.1771 88.8676C43.4071 84.77 41.3893 84.4426 41.6371 83.5576C41.6371 83.3894 40.8583 81.5575 40.9999 81.292C41.1415 81.0265 45.3187 84.7435 45.1771 87.1949C45.1771 87.8144 46.1683 88.0799 46.009 86.9471C45.5576 83.6284 41.1415 79.1149 39.9733 80.5486C39.7697 80.7875 40.6282 82.531 40.6459 83.0531C40.0795 82.885 36.9731 80.3981 35.9908 81.6283C35.7695 81.8938 35.8757 81.9292 37.2563 84.478C37.6015 85.124 36.6103 84.3983 35.6279 83.8142C32.6809 82.0442 33.8579 83.7523 35.4244 87.071C52.8677 122.993 54.2572 125.126 54.0802 126.117C53.9903 126.647 54.0384 127.19 54.2197 127.695C54.4011 128.201 54.7097 128.651 55.1156 129.002C55.2529 129.144 55.3517 129.318 55.4028 129.509C55.4539 129.699 55.4556 129.9 55.4077 130.091C55.3103 132.277 56.8768 131.923 56.8591 133.144C56.8685 133.974 57.1836 134.771 57.7441 135.383C59.0893 136.366 58.514 134.445 57.3193 145.419C56.983 148.49 57.9388 150.995 58.4609 152.897C59.5672 156.862 63.7709 159.039 66.6914 159.092C66.9923 159.092 67.1162 158.986 66.6914 160.305C65.3374 164.544 67.0543 165.42 65.0188 168.022C64.6588 168.545 64.4505 169.158 64.417 169.792C64.4283 169.877 64.4684 169.955 64.5306 170.013C64.5927 170.072 64.6731 170.107 64.7583 170.113C64.8434 170.12 64.9281 170.096 64.9981 170.047C65.0681 169.999 65.1191 169.927 65.1427 169.845C65.5675 168.261 66.9127 167.571 66.9658 165.358C66.9658 164.969 67.0189 162.526 67.1074 162.154C67.895 158.747 67.7269 159.101 68.1782 159.03C71.0545 158.57 71.6651 156.959 73.2847 154.765C74.4175 153.225 76.8247 142.959 77.5769 135.728C77.5769 135.445 77.5769 135.153 77.8336 134.958C78.0902 134.764 79.3646 126.861 79.3381 126.108C79.3381 125.816 78.8248 125.701 78.7186 125.967C78.4265 126.666 77.984 131.002 77.4265 133.879C77.3645 134.233 77.2229 134.011 75.8954 133.073C74.1254 131.817 73.8688 132.118 71.6651 131.489C68.1251 130.454 69.0101 130.976 70.9837 129.719C73.6387 128.002 73.4617 126.4 73.1608 126.02C72.8599 125.639 71.9041 125.861 73.1608 125.498C84.8693 122.108 89.3563 120.834 90.9581 120.188C92.0644 119.763 91.8431 119.639 91.5776 119.356C91.5776 119.356 89.8961 115.94 79.1876 94.1422C79.0283 93.8059 78.931 93.9298 81.055 93.2572C81.1966 93.2572 81.2408 93.2572 81.2674 93.4076C81.7951 95.722 83.0328 97.8136 84.8074 99.3902C89.5598 103.382 91.3033 101.992 91.6661 102.603C94.684 107.745 93.1441 95.6909 92.5511 132.817C92.5511 146.932 93.799 146.092 95.4805 150.225C95.6132 150.534 96.3655 153.765 96.8876 154.34C102.065 160.473 106.207 160.367 110.756 156.659C114.57 153.552 120.968 143.507 121.464 143.888C121.96 144.269 122.774 144.304 123.553 144.835C124.606 145.552 126.252 146.251 127.464 145.897C128.464 145.605 128.199 146.295 133.394 131.029C133.668 130.215 133.155 137.666 131.42 144.454C129.031 153.782 125.225 159.11 126.11 162.668C126.464 164.048 125.854 164.544 126.11 166.81C126.995 173.359 126.562 172.943 127.27 173.005C127.978 173.066 127.19 167.916 127.128 167.615C126.588 164.863 127.287 164.075 126.925 162.553C125.986 158.668 131.146 152.419 133.438 138.773C134.447 132.799 133.677 130.471 135.721 124.692C138.27 117.542 139.916 112.506 138.722 104.966C137.837 99.4522 136.129 100.7 128.553 96.6998ZM45.6638 90.5048C48.425 90.5048 44.1328 84.3983 59.2663 114.78C59.5318 115.32 58.5583 115.621 57.9919 115.727C57.6556 115.506 58.399 116.736 50.2924 100.408C45.1328 90.08 45.1328 90.496 45.6638 90.496V90.5048ZM36.92 82.2832C38.0971 82.1416 43.115 85.5665 44.3275 88.9826C42.2656 87.9571 40.2861 86.7736 38.4068 85.4426C38.2387 84.7258 37.0705 82.7965 36.92 82.2743V82.2832ZM53.6731 122.675C53.381 122.25 35.0881 84.7789 34.9642 84.4691C35.1058 84.416 34.6279 84.1771 42.3805 88.8056C44.8673 90.2924 43.4248 88.4074 47.6285 96.9388C57.4874 116.94 57.3016 116.019 56.8768 116.17C51.5756 117.984 54.2129 121.462 53.6731 122.666V122.675ZM54.4076 123.949C54.4182 123.498 54.4596 123.049 54.5315 122.604C54.7528 121.551 53.5934 119.064 54.8324 118.276C56.4358 117.301 58.1388 116.5 59.9123 115.887C60.1246 115.723 60.3565 115.586 60.6026 115.48C61.8062 115.214 60.8062 117.807 58.6025 119.02C56.8325 120.02 56.6555 120.117 56.4077 120.418C56.1599 120.719 56.4077 121.099 56.6378 121.02C58.0892 120.595 60.4964 118.002 55.5581 123.675C54.3899 125.029 54.5669 125.117 54.4076 123.94V123.949ZM61.1867 118.639C61.3372 119.011 61.2841 118.949 59.9035 119.223V119.152C60.6734 118.683 60.7885 118.152 60.9389 118.188C61.0894 118.223 61.0628 118.365 61.1867 118.666V118.639ZM68.4791 126.551C67.4904 126.947 66.4646 127.243 65.417 127.436C64.5885 127.477 63.7895 127.757 63.116 128.241C62.4965 128.825 62.0363 129.126 62.3549 129.454C62.47 129.578 62.5762 129.675 62.7443 129.498C63.8152 128.383 64.9214 128.436 67.1693 127.985C67.8419 127.852 67.7003 127.516 68.7712 127.409C69.8666 127.221 70.9509 126.973 72.0191 126.666C72.9041 126.666 72.2227 128.542 67.5941 130.33C65.3462 131.215 64.3019 131.454 63.5143 132.631C63.3019 132.949 63.1249 133.427 63.5143 133.604C64.1603 133.896 63.7709 132.542 66.0808 131.702C66.479 131.56 66.5764 131.525 66.718 133.295C67.0189 137.135 65.6029 138.817 65.4878 140.375C65.4878 140.587 65.7356 140.861 66.0011 140.534C66.2666 140.206 66.9835 138.109 67.072 137.879C69.0544 131.949 64.417 130.02 70.612 131.923C73.4528 132.808 73.8068 132.657 74.8954 133.401C77.4796 135.171 77.0813 133.48 75.8335 141.87C75.2289 145.49 74.3803 149.065 73.2935 152.57C73.0457 153.296 73.4174 150.49 73.2935 147.517C73.1696 143.481 69.0101 136.737 68.5676 136.897C67.6826 137.189 69.4526 138.224 71.612 144.207C73.09 148.402 72.3112 154.172 71.2757 155.712C69.9305 157.694 68.7623 158.535 65.3728 158.021C63.8523 157.792 62.4338 157.118 61.2966 156.083C60.1593 155.048 59.3543 153.699 58.9831 152.207C58.5052 150.242 57.7264 147.977 58.0981 145.596C59.8681 132.852 58.8061 138.755 61.0186 141.799H61.4168C61.2929 140.835 61.2044 140.914 60.0185 137.02C59.6468 135.781 59.638 135.604 59.2486 135.357C57.5759 134.312 57.8857 134.144 57.5582 132.374C57.3547 131.303 56.036 131.587 56.2042 130.082C56.2502 129.658 56.1873 129.229 56.0217 128.835C55.856 128.442 55.5929 128.098 55.2572 127.834C54.6466 127.259 54.7882 125.56 55.8502 124.453C57.7441 122.489 57.9565 121.613 59.7973 120.25C60.0893 120.028 60.1601 120.108 62.8859 119.471C63.4789 119.329 63.116 119.188 64.3639 118.966C67.7003 118.365 68.5411 117.196 68.5057 117.94C68.4293 118.538 68.1876 119.104 67.8077 119.573C67.4279 120.042 66.9249 120.396 66.3551 120.595C65.6377 121.013 64.8783 121.354 64.0895 121.613C58.7795 122.816 59.0627 126.374 59.93 125.356C61.0628 124.029 60.8947 123.754 61.3195 124.533C61.6381 125.117 61.4788 124.852 60.4345 125.79C59.5495 126.586 56.5936 128.976 58.0273 128.763C58.2308 128.763 58.3459 128.631 60.2221 127.055C61.5584 125.923 62.0983 124.905 66.4171 124.861C68.9039 124.861 70.8421 123.719 72.5324 123.391C73.1785 123.285 73.0103 125.356 68.4791 126.577V126.551ZM62.3726 124.586C62.2576 124.48 62.3107 124.648 61.8062 123.622C61.6912 123.374 61.8859 123.303 63.1249 122.922C63.2842 122.869 63.4258 123.161 63.7886 123.967C63.8683 124.179 63.7178 124.232 62.3726 124.613V124.586ZM90.3563 119.489C89.6483 119.71 73.7626 124.418 73.736 124.427C73.5502 124.48 73.3997 124.498 73.4882 124.321C73.8688 123.506 73.4882 122.312 72.4882 122.551C69.1783 123.25 69.7447 124.011 64.9657 124.02C64.6028 124.02 64.7621 124.126 64.0807 122.781C64.0099 122.639 64.0807 122.551 64.2046 122.515C65.155 122.231 66.0651 121.827 66.9127 121.312C70.0456 119.781 70.0102 115.807 67.5322 117.073C66.382 117.598 65.1634 117.958 63.9125 118.143C63.3563 118.318 62.8098 118.522 62.2753 118.754C62.0275 118.843 61.6381 117.869 61.523 117.577C61.408 117.285 62.6735 114.4 60.8593 114.444C59.3105 114.86 61.346 116.356 47.8055 89.8853C47.4515 89.195 47.0887 89.5667 52.8677 87.6551C55.213 86.8852 69.1429 82.2743 71.7625 81.3274C72.0103 81.2389 71.7625 80.8672 74.8246 87.1241C90.7634 120.064 91.0112 119.312 90.3563 119.515V119.489ZM110.03 59.0165C110.03 58.6625 109.853 58.6625 114.189 61.4768C114.756 61.8397 113.437 61.6892 112.092 63.2468C111.835 63.5477 111.826 63.53 111.455 63.353C109.844 62.6362 109.8 60.8839 110.03 59.0431V59.0165ZM94.4096 52.5472C96.1796 51.0958 101.932 51.1312 104.145 53.6357C106.074 55.8305 101.295 63.8575 96.5779 60.5564C94.3123 58.9723 92.206 54.3172 94.4096 52.5472ZM82.9754 56.5651C82.9754 56.1226 82.4798 50.6179 83.1967 50.6533C84.5427 50.6054 85.8728 50.9564 87.0199 51.6622C88.9226 52.91 86.7632 61.5299 82.1258 59.8219C81.6302 59.6272 82.94 58.4678 82.9754 56.5651ZM80.5328 51.0869C80.993 50.9453 81.4178 50.8391 81.9311 50.7152C82.0904 50.7152 82.1701 50.7152 82.1524 50.8922C81.6922 54.8836 82.9843 56.0164 81.4532 59.0785C81.2762 59.4502 81.2408 59.4679 80.9399 59.2289C77.2318 56.2022 76.1963 52.441 80.5328 51.0869ZM82.1701 60.8219C82.9747 60.9999 83.8127 60.9537 84.593 60.6885C85.3732 60.4232 86.0657 59.949 86.5951 59.3174C87.0995 58.8041 86.5951 60.76 89.0731 61.2113C89.5864 61.3087 89.7811 60.6803 89.4713 60.5299C88.7191 60.1493 88.0111 59.9723 87.604 58.7068C87.2854 57.7244 90.3475 58.5121 90.259 56.2111C90.259 55.6004 89.666 55.5827 89.5333 56.1314C89.2943 57.0784 89.5333 56.9368 88.1173 57.2023C87.9934 57.2023 87.958 57.2023 88.0022 57.0518C88.781 54.6004 88.5332 53.9012 89.3297 53.3083C89.6747 53.1066 90.0675 53.0013 90.4671 53.0035C90.8667 53.0056 91.2584 53.115 91.6012 53.3204C91.944 53.5257 92.2253 53.8193 92.4158 54.1706C92.6063 54.5219 92.6989 54.9179 92.6839 55.3172C92.7989 58.2112 95.6044 62.4503 98.8789 62.3264C103.516 62.1406 104.853 57.3616 105.693 56.8394C106.251 56.4854 106.835 56.7067 109.189 58.1492C109.879 58.5652 107.87 62.7601 111.145 64.1938C111.49 64.3442 110.738 64.8044 111.579 65.0788C111.711 65.0788 112.189 64.2911 112.95 63.6539C116.685 60.4945 121.101 63.061 117.375 69.0259C116.632 70.2029 115.889 71.2207 112.641 72.5659C108.419 74.3359 107.915 63.53 107.835 83.1859C107.835 88.7614 108.437 90.434 116.269 94.2307C116.579 94.3811 113.862 96.4078 113.844 96.4166C109.127 99.7973 111.897 98.1866 106.676 100.284C105.791 100.62 102.136 102.134 102.074 101.576C101.366 95.6555 99.9497 94.3015 98.9762 90.8323C98.0912 87.7702 97.1 86.9914 97.0115 85.9648C96.8876 84.4603 93.4715 81.5398 93.0556 81.0088C92.9051 80.8318 92.9228 80.761 93.1441 80.6813C103.118 77.4334 101.605 74.9642 100.596 75.5572C98.5426 76.7519 89.3474 80.0441 85.064 75.1324C80.3116 69.8401 80.2054 60.2555 82.1524 60.8573L82.1701 60.8219ZM84.9578 85.2922C85.5809 84.1898 86.0231 82.9946 86.2676 81.7522C86.2902 81.6621 86.2839 81.5672 86.2496 81.4809C86.2153 81.3946 86.1546 81.3212 86.0763 81.2713C85.998 81.2214 85.9059 81.1974 85.8132 81.2027C85.7205 81.208 85.6318 81.2423 85.5596 81.3008C82.4887 83.3717 77.0725 80.1238 78.3557 80.0264C79.1257 79.9645 84.2941 77.5838 81.7984 76.7519C78.8513 75.7696 77.515 73.4863 77.869 73.3801C79.2514 73.2886 80.6076 72.9592 81.878 72.4066C83.0462 71.849 81.878 74.6191 87.3208 77.9732C87.0732 78.2492 86.9363 78.6069 86.9363 78.9777C86.9363 79.3484 87.0732 79.7062 87.3208 79.9822C88.843 81.8407 89.9758 82.6372 89.8961 82.8142C89.7634 83.0974 89.8961 83.4868 89.551 83.6992C88.2323 84.593 86.48 85.6019 84.9578 85.2922ZM90.7811 101.373C86.7721 100.744 82.8604 96.7795 82.055 93.4519C81.9046 92.8235 81.7984 92.8855 82.471 92.6554C84.4445 91.9562 85.4623 91.204 85.2145 91.6465C84.7189 92.5315 85.0729 93.6731 85.0109 94.0802C84.7808 95.6113 85.8428 96.9034 87.3739 97.7176C87.5774 97.8238 87.5066 97.8061 88.8607 97.8946C89.7457 97.6822 89.8607 97.5937 89.9669 97.8946C90.1609 98.3363 90.3121 98.7957 90.4183 99.2663C90.7723 101.222 91.2325 101.479 90.7723 101.408L90.7811 101.373ZM116.685 148.375C115.888 149.454 115.025 150.482 114.101 151.455C112.853 152.897 111.853 154.508 109.879 156.021C105.26 159.561 101.799 158.676 97.7726 153.959C97.163 152.923 96.7294 151.792 96.4894 150.614C95.9141 148.286 94.8875 147.64 94.1707 145.003C92.2945 138.109 94.3388 104.798 94.5247 104.629C95.2858 103.93 94.0999 104.275 92.3918 102.045C91.0024 100.275 91.6484 98.3813 88.8518 93.8324C88.796 93.7094 88.7128 93.6007 88.6084 93.5148C88.5041 93.4289 88.3815 93.368 88.25 93.3368C87.7102 93.2483 88.1527 93.9475 88.4005 94.4962C88.7722 95.3015 88.0111 94.7882 87.8695 94.7794C87.5066 94.7351 87.2588 95.1511 88.4978 95.8768C88.6483 95.9653 89.0554 95.9741 89.1616 96.1157C89.2655 96.3133 89.3401 96.525 89.3828 96.7441C89.3828 96.868 89.3828 96.9034 89.2678 96.9122C88.2943 97.0273 87.8695 97.2308 87.0641 96.5494C86.6039 96.16 85.7809 95.275 85.7986 94.6732C85.8428 92.9032 85.5419 92.0182 87.0641 91.1332C87.6571 90.8057 87.7633 90.2482 87.7987 89.5933C87.8606 88.3897 89.0731 89.0446 89.5687 87.4781C90.2767 85.2479 93.5158 87.2126 93.0467 85.9648C91.613 82.2035 87.1172 79.7698 87.7367 78.6901C88.3208 77.7431 90.4448 79.5043 91.0024 80.1415C92.7193 82.0796 95.8699 84.7169 96.1531 86.5577C96.3301 87.6551 97.1 88.0445 97.87 90.6287C99.2594 95.2661 100.835 97.2397 101.021 102.364C101.313 110.329 109.534 140.897 109.543 140.923C109.773 141.401 110.322 141.206 110.295 140.702C109.977 134.764 106.667 128.215 107.481 128.17C108.823 128.077 110.167 128.34 111.375 128.932C112.189 129.542 117.216 134.011 117.659 134.427C119.491 136.109 121.535 136.693 122.854 138.711C123.792 140.1 124.039 138.029 116.676 148.41L116.685 148.375ZM90.1351 85.4161C90.5422 83.3275 90.4979 83.4071 90.7457 83.6461C91.1895 84.1331 91.5512 84.6891 91.8166 85.2922C92.0024 85.6373 91.436 85.5134 91.4272 85.478C90.1616 85.7081 90.0112 85.8143 90.082 85.4515L90.1351 85.4161ZM128.119 143.49C128.082 143.564 128.031 143.63 127.969 143.684C127.92 143.635 127.875 143.582 127.836 143.525C125.429 139.985 124.216 139.1 123.65 138.091C122.933 136.826 120.862 135.516 119.614 134.755C118.791 134.25 117.19 132.604 115.924 131.604C113.065 129.347 112.995 127.923 108.915 127.365C108.295 127.277 107.348 127.551 107.198 127.427C107.047 127.303 107.198 127.091 107.915 125.71C108.516 124.463 109.236 123.278 110.065 122.17C113.729 117.002 112.986 117.267 114.234 115.134C116.428 111.347 117.004 111.807 120.517 108.054C125.332 102.904 125.57 102.789 125.889 101.974C126.031 101.594 125.694 101.417 125.517 101.603C114.508 113.232 115.561 110.895 113.304 115.108C108.304 124.453 111.225 117.949 106.959 125.639C106.508 126.445 101.649 104.24 102.118 102.753C102.251 102.328 102.746 103.01 106.543 101.399C112.287 98.9477 109.26 100.939 114.065 97.399C116.499 95.629 117.605 93.6554 120.075 95.1334C123.261 97.045 124.411 96.2573 127.402 97.1423C128.987 97.6114 128.827 98.1335 135.474 100.815C137.421 101.603 137.695 103.32 137.925 105.01C139.067 113.922 138.27 115.002 128.066 143.525L128.119 143.49Z" fill="black"/>
<path d="M125.873 17.4396C126.033 17.4396 126.148 17.4396 126.095 17.714C125.758 19.1565 127.714 20.369 127.325 21.0681C126.796 22.0799 126.423 23.166 126.219 24.2895C126.174 24.555 126.413 24.4134 126.511 24.4931C126.882 24.8117 127.059 23.1479 128.015 21.3513C128.661 20.1566 126.785 18.9618 126.829 17.9352C126.882 16.6166 127.396 17.3688 128.599 17.7494C129.272 17.9618 129.785 17.7494 129.971 18.1919C130.091 18.4283 130.292 18.6138 130.537 18.7145C130.783 18.8152 131.056 18.8244 131.307 18.7406C132.122 18.5282 131.909 19.1565 132.865 19.3601C133.821 19.5636 133.812 19.5194 133.812 19.8734C133.812 19.9973 133.812 20.13 133.662 20.1654C133.206 20.3206 132.772 20.5317 132.369 20.7938C131.865 21.0327 132.086 20.6256 131.245 21.1743C129.98 21.9974 130.192 21.4752 129.661 21.8912C128.776 22.608 126.838 24.6524 127.458 25.1391C128.077 25.6259 128.148 24.3515 129.405 23.201C130.661 22.0505 130.467 22.608 130.891 22.316C131.776 21.7673 131.9 21.6876 132.033 21.6788C132.794 21.6168 133.378 20.9796 133.954 20.9265C134.732 20.8557 134.529 20.1743 134.697 20.2274C134.865 20.2805 134.865 20.4486 134.927 20.5991C135.485 21.9885 137.219 18.714 135.883 18.2804C134.546 17.8467 134.193 18.7848 133.98 18.7317C131.927 18.2715 133.201 18.537 132.015 17.9264C131.467 17.6432 131.033 18.3069 130.591 17.6786C129.891 16.6697 130.396 17.6786 127.113 16.3688C126.882 16.2803 126.759 15.9617 126.582 15.7493C126.405 15.5369 126.13 15.5369 125.803 15.4484C124.873 15.2271 124.325 17.1476 125.873 17.4396ZM135.502 19.0238C135.777 19.1034 135.573 19.7495 135.325 19.6167C134.387 19.1388 135.175 18.9176 135.502 19.0238ZM125.767 16.1387C125.874 16.1387 126.059 16.4484 126.157 16.5989C125.67 16.9971 125.44 16.2626 125.758 16.1387H125.767Z" fill="black"/>
<path d="M132.049 112.78C129.11 114.284 125.19 117.019 116.119 117.577C115.774 117.577 115.428 117.736 115.473 118.09C115.517 118.444 123.039 118.842 132.288 113.506C133.509 112.789 132.854 112.373 132.049 112.78Z" fill="black"/>
<path d="M117.499 115.195C122.233 113.717 128.322 109 127.933 108.487C127.163 107.505 125.216 111.452 117.242 114.567C116.959 114.673 117.083 115.107 117.499 115.195Z" fill="black"/>
<path d="M114.162 54.9635C114.312 55.1228 117.808 58.2911 118.189 57.3087C118.33 56.937 118.1 56.8308 116.879 55.9812C110.516 51.6624 107.816 42.9186 104.79 41.0424C104.586 40.9185 104.418 41.4053 104.498 41.5557C105.193 42.3222 105.824 43.1452 106.383 44.016C110.091 49.9455 109.171 49.5561 114.162 54.9635Z" fill="black"/>
<path d="M114.615 99.8503C112.606 101.045 112.562 101.62 111.518 102.072C110.828 102.373 105.323 104.523 105.792 105.328C106.049 105.744 106.004 105.408 111.987 102.744C112.838 102.215 113.648 101.623 114.412 100.974C117.439 98.7883 117.863 98.8237 117.713 98.3193C117.447 97.5139 115.801 99.1512 114.615 99.8503Z" fill="black"/>
<path d="M112.313 70.7249C114.136 70.7249 114.747 68.6363 114.163 67.5124C114.088 67.3898 114.044 67.2508 114.035 67.1074C114.025 66.964 114.051 66.8205 114.11 66.6893C114.482 65.8043 116.331 64.1317 116.508 66.5035C116.508 66.7867 116.968 66.8752 117.163 66.5035C117.286 66.2562 117.337 65.9796 117.31 65.7049C117.283 65.4303 117.181 65.1685 117.013 64.9493C116.845 64.7301 116.62 64.5622 116.362 64.4646C116.103 64.367 115.823 64.3437 115.552 64.3972C114.119 64.7069 112.552 66.53 113.313 68.008C113.57 68.5124 113.313 69.5567 112.782 69.6806C111.729 69.9107 111.658 69.4151 111.402 69.893C111.145 70.3709 111.712 70.7249 112.313 70.7249Z" fill="black"/>
<path d="M106.2 30.4205C106.253 29.8187 106.076 28.1283 107.572 27.7212C108.775 27.3849 109.439 27.5 109.979 26.5619C110.439 25.7654 109.979 25.5176 110.413 24.6945C111.864 22.0395 111.121 22.4466 113.068 21.597C118.271 19.2872 113.953 16.3401 113.492 17.8269C113.253 18.5438 113.714 18.9509 114.023 18.2606C114.183 17.8977 115.873 19.2075 113.882 20.2961C112.041 21.2961 111.147 21.2873 110.652 22.5528C110.156 23.8184 109.359 24.6237 109.386 25.7919C109.386 26.6238 108.616 26.5973 107.722 26.7743C107.015 26.968 106.396 27.3991 105.969 27.9954C105.542 28.5917 105.333 29.3167 105.377 30.0488C105.395 31.6418 106.085 31.8011 106.2 30.4205Z" fill="black"/>
<path d="M95.0482 37.5636C94.4755 37.5503 93.9064 37.6586 93.3786 37.8814C92.8508 38.1041 92.3762 38.4361 91.9861 38.8557C91.4639 39.4132 91.9861 39.9177 92.5171 39.4663C92.9125 39.0578 93.4039 38.7547 93.9465 38.5846C94.489 38.4146 95.0655 38.383 95.6234 38.4928C102.243 39.3778 102.703 47.5464 109.474 55.6176C110.279 56.5645 110.907 56.2194 110.598 55.6618C109.348 54.119 108.193 52.5025 107.137 50.8209C101.553 40.8027 101.013 38.4486 95.0482 37.5636Z" fill="black"/>
<path d="M95.578 45.776C95.2682 46.1034 95.0381 46.8114 95.4983 46.661C96.1355 46.4043 96.7373 45.6521 98.3392 45.6698C100.561 45.6698 101.366 48.9266 101.516 47.2716C101.33 44.6432 98.1091 43.059 95.578 45.776Z" fill="black"/>
<path d="M97.109 56.1929C97.5869 56.1929 97.6135 55.8743 97.7374 55.3876C97.5958 54.4495 96.8524 54.5026 96.6754 55.0424C96.4984 55.5823 96.5869 56.1664 97.109 56.1929Z" fill="black"/>
<path d="M89.9412 38.7406C89.9412 39.3336 89.9412 40.4133 90.5519 40.3159C91.3572 40.192 90.0297 38.6875 91.2599 36.7759C91.3967 36.511 91.5908 36.2798 91.828 36.0991C92.0653 35.9185 92.3398 35.793 92.6316 35.7316C92.7339 35.6899 92.8236 35.6222 92.8919 35.5353C92.9602 35.4485 93.0047 35.3453 93.021 35.236C92.9768 34.0678 89.9058 35.3511 89.9412 38.7406Z" fill="black"/>
<path d="M84.0728 5.96024C84.3383 6.03104 84.7188 5.65049 85.1436 5.57969C85.7808 5.47349 87.4712 5.42039 87.7986 6.06644C88.8518 8.09309 85.2852 10.6242 84.8516 13.4208C84.5772 15.1908 86.4357 15.651 89.2766 16.4386C91.728 17.1112 87.1614 20.2353 88.5597 22.1203C88.7898 22.4212 89.4447 23.0053 89.9757 23.5629C91.3121 24.9612 89.5775 26.8285 90.4536 27.0144C91.3298 27.2002 91.9758 24.2797 90.4536 22.8018C88.7633 21.1026 88.5863 21.6955 90.3828 18.5538C90.8519 17.7307 91.1085 16.2882 90.0819 15.8457C89.0553 15.4032 89.1969 15.7306 86.7366 14.7748C82.9842 13.3323 90.1173 9.04889 88.427 5.71244C88.0376 4.75664 87.2145 4.86284 86.0906 4.75664C83.825 4.70354 83.7453 5.87174 84.0728 5.96024Z" fill="black"/>
<path d="M89.233 67.486C89.233 67.1674 89.0383 66.2382 88.2949 66.2205C87.4099 66.2205 87.2771 67.5391 87.9143 68.1852C88.2949 68.5834 89.0206 68.6719 89.233 67.486Z" fill="black"/>
<path d="M86.0029 54.6967C85.9321 53.8117 85.233 53.8117 85.1179 54.148C84.5604 55.1481 85.7197 56.0862 86.0029 54.6967Z" fill="black"/>
<path d="M70.8003 85.5035C50.6312 92.2206 51.3303 91.6985 51.9056 92.8136C56.0031 101.336 55.8615 100.938 56.5961 101.018C58.6139 100.433 75.0749 94.973 75.1811 94.9199C76.3139 94.5305 75.659 93.911 72.6323 87.7691C71.5703 85.5389 71.6057 85.238 70.8003 85.5035ZM74.6235 94.2207L56.6403 100.159C56.4279 100.159 56.72 100.664 52.7198 92.7516C52.5162 92.3534 51.4454 92.8932 64.0743 88.6629C66.2691 87.9284 68.3577 87.1938 70.703 86.4239C71.3136 86.2292 70.8269 85.6274 73.358 90.8489C74.9598 94.2473 75.0306 94.088 74.6324 94.2207H74.6235Z" fill="black"/>
<path d="M69.7703 93.5762C69.6552 93.5762 58.1945 97.1162 57.3803 97.5056C56.982 97.6738 56.6192 98.2048 57.1059 98.3287C57.2652 98.3287 70.2128 94.5497 70.8942 93.762C70.5402 93.1071 70.2393 93.5585 69.7703 93.5762Z" fill="black"/>
<path d="M59.0913 92.8059C60.5516 92.5493 60.4985 92.0802 61.3569 92.1245C62.9942 91.9032 63.6137 91.2395 65.1005 90.8678C66.5873 90.4961 67.0121 90.6023 68.1714 89.9828C68.4546 89.8412 68.6493 89.3456 68.0475 89.2217C67.9413 89.2217 67.2599 89.4252 66.2775 89.673C62.7818 90.558 62.295 91.2129 61.3923 91.1952C60.348 91.1952 60.3923 91.62 58.8347 91.9652C55.2947 92.7528 55.8699 93.0891 54.923 93.1334C54.8079 93.1334 54.6221 93.4077 54.5867 93.5139C54.507 93.8325 55.4717 94.0184 55.9319 93.7617C56.9164 93.2494 57.9879 92.9252 59.0913 92.8059Z" fill="black"/>
<path d="M62.0799 48.6437C63.372 46.9268 62.6109 47.1746 66.8678 48.6437C66.9563 48.6848 67.0557 48.6966 67.1514 48.6775C67.2471 48.6584 67.3343 48.6093 67.4003 48.5374C67.4663 48.4654 67.5077 48.3744 67.5186 48.2774C67.5295 48.1804 67.5092 48.0824 67.4607 47.9977C66.9948 46.9867 66.4565 46.0107 65.85 45.0772C65.4872 44.617 67.3545 42.6257 67.3899 41.5372C67.443 39.9353 64.1597 42.5992 63.4428 41.6611C62.8676 40.9088 61.9914 40.0769 61.4162 39.1654C61.1595 38.7494 60.6639 38.599 60.5843 39.0946C59.9028 43.6169 61.0002 42.5018 58.478 43.4753C57.0708 44.024 57.0266 44.0152 56.9469 44.4665C56.6991 45.8914 59.9913 46.0949 60.0002 46.741C60.0533 49.6526 59.9382 49.4756 60.0002 50.0863C60.0126 50.1682 60.047 50.2452 60.0996 50.3092C60.1522 50.3733 60.2211 50.4219 60.2991 50.45C60.377 50.4781 60.4611 50.4846 60.5425 50.4689C60.6238 50.4532 60.6994 50.4158 60.7613 50.3606C61.2481 49.8262 61.6892 49.2519 62.0799 48.6437ZM60.0887 45.679C57.062 44.5462 57.062 44.794 60.3896 43.5904C61.1153 43.3249 60.7701 41.7407 61.2746 40.3778C64.434 43.3337 61.7702 43.0859 66.3899 42.0239C65.7084 43.847 64.2924 44.3692 65.1066 45.3161C65.5617 45.9532 65.9558 46.6318 66.2837 47.3428C66.5049 47.7145 65.3987 47.3428 63.8322 46.7587C62.9472 46.4312 63.1508 45.7675 61.0622 48.688C60.248 49.8296 61.425 46.1746 60.0887 45.679Z" fill="black"/>
<path d="M45.0444 33.1742C45.4692 32.714 45.478 32.714 45.8674 33.1742C46.2638 33.6455 46.5644 34.1896 46.7524 34.776C46.9117 35.3424 46.3099 35.0415 46.1241 35.0504C45.2391 35.0504 45.6019 35.7141 45.8232 35.8203C48.0003 36.8735 48.9384 34.3689 49.0003 35.192C49.0977 36.3071 49.0888 37.5195 49.1419 38.9798C49.1419 39.6435 49.6818 40.148 50.1331 39.7409C50.5845 39.3338 51.7881 38.1125 53.4961 36.4487C56.2927 33.714 56.4078 33.7937 56.3724 33.2538C55.9653 27.3243 55.4874 28.8288 57.4344 26.7137C59.7885 24.1737 64.5144 19.0053 66.0454 15.9078C68.4084 11.2262 69.3465 6.29674 67.1428 6.04894C64.1958 5.72149 59.0716 8.29684 56.5228 10.5359C54.695 12.1012 52.988 13.8022 51.4164 15.6246C46.1064 21.4568 47.6109 20.5098 45.2214 20.8284C40.4158 21.4479 42.0973 20.4125 36.1236 26.9261C35.389 27.7314 35.9112 28.2801 36.3891 28.2801C37.8235 28.1303 39.2667 28.083 40.7079 28.1385C40.4578 28.3973 40.274 28.7128 40.1723 29.058C40.0706 29.4032 40.054 29.7679 40.1238 30.1209C40.3084 30.8224 40.6783 31.4612 41.1946 31.9706C41.4867 32.1564 41.6991 31.829 41.584 31.4838C41.5309 31.3068 40.6194 29.9616 40.8849 29.6342C41.1504 29.3067 41.823 29.6342 43.7788 31.121C44.3187 31.5281 43.2832 31.9175 42.4071 33.2096C41.9026 33.9707 42.7965 34.3601 43.0354 34.5371C43.2744 34.7141 43.4956 34.7495 43.7346 34.5813L45.0444 33.1742ZM40.7079 39.1302C34.5129 48.8652 33.1323 59.0604 37.9113 71.7336C37.9998 71.9549 38.3007 72.9549 38.6016 72.7514C39.5574 72.123 34.504 64.158 36.1678 52.4406C37.6989 41.6613 44.8143 35.4398 45.0178 34.5017C45.124 34.0415 44.9559 33.8468 44.4072 34.0592C43.0513 35.6565 41.8149 37.3514 40.7079 39.1302ZM43.4691 29.882C41.7433 28.581 41.0619 29.1563 41.3893 28.5987C41.5486 28.3244 41.7079 28.0146 41.9646 28.1297C43.1947 28.2359 43.6195 28.7049 45.1063 29.7138C45.363 29.8908 45.1594 30.0855 44.7523 30.4838C44.5134 30.7493 44.5665 30.6962 43.5045 29.882H43.4691ZM43.3629 33.8822C42.708 33.4308 42.4159 34.3512 50.3013 25.1649C50.6907 24.7224 51.1863 24.2799 51.4252 24.8729C51.4518 24.8994 43.4071 33.8645 43.3629 33.8822ZM48.0976 34.7672C47.3188 35.4309 48.018 34.7672 46.6728 32.9972C46.0533 32.183 45.9736 32.183 46.0887 32.0502C46.8055 31.2095 46.6551 30.8112 48.372 34.1654C48.549 34.4043 48.372 34.5371 48.1242 34.7495L48.0976 34.7672ZM50.1508 38.7674C49.8676 39.0594 50.0004 39.0506 49.6906 34.6167C49.6906 34.2008 53.2306 31.4307 54.3723 30.0678C55.5139 28.7049 55.2573 28.935 55.6378 33.006C55.8237 33.3689 55.7529 33.2273 50.1774 38.7497L50.1508 38.7674ZM58.4079 10.3323C60.1947 9.01351 62.2027 8.02448 64.3374 7.41184C67.6915 6.52684 67.3198 7.41184 67.4791 8.73049C67.3931 9.98286 67.1186 11.2151 66.6649 12.3855C64.5321 17.5893 64.7179 17.1203 64.1338 16.076C61.4257 11.2527 57.6822 10.7837 58.4079 10.3323ZM57.2662 11.2173C58.399 10.1465 64.833 16.7574 63.9037 17.9964C61.1868 21.6426 51.735 32.2626 49.2393 33.7937C48.7195 32.7821 48.128 31.8091 47.4693 30.882C47.248 30.5546 47.2215 30.7758 50.3455 27.2978C52.1155 25.28 52.62 25.0499 52.0005 24.2888C51.735 23.9613 51.027 23.4834 50.5756 23.9436C50.1243 24.4038 49.8765 24.7136 47.6551 27.2624C45.6108 29.5988 46.0356 29.3333 45.3099 28.7846C42.3894 26.5809 41.8672 28.3155 43.7346 25.9349C47.9225 20.7445 52.4331 15.823 57.2397 11.1996L57.2662 11.2173ZM41.2566 22.4568C41.6194 22.032 41.6194 22.1028 45.9648 21.5718C46.6462 21.4833 44.7169 23.0498 43.3098 25.1738C42.9912 25.634 41.7876 27.2447 41.3185 27.3066C41.3185 27.3066 36.8935 27.4394 36.8935 27.4128C36.7077 27.2535 39.0706 24.9968 41.2566 22.4568Z" fill="black"/>
<path d="M63.3007 93.9466C65.0707 93.4333 65.1858 93.274 65.8142 93.2652C65.9623 93.2749 66.109 93.2312 66.2276 93.1418C66.3462 93.0525 66.4287 92.9235 66.4602 92.7784C66.4602 91.7607 62.9202 93.3802 61.2475 93.6634C59.7253 93.9201 56.265 94.929 55.7605 95.4777C55.4065 95.8671 55.6012 96.0883 56.0791 96.1149C57.8491 95.5131 57.6102 95.4334 58.2474 95.2299C61.9467 94.221 59.3979 95.0706 63.3007 93.9466Z" fill="black"/>
<path d="M60.1777 65.8219C59.629 65.8927 57.8059 66.291 57.5227 66.3706C57.0006 66.5034 55.3633 62.8837 54.9474 64.2289C53.9296 67.5388 55.3279 66.999 52.7349 67.2202C51.6729 67.3087 51.6552 67.5919 51.6817 68.1052C51.6817 68.4504 51.8056 68.5212 52.4428 68.9106C55.3191 70.6806 54.0624 69.3973 53.8234 72.6718C53.8234 73.1231 54.0535 73.3356 54.4164 73.2205C55.2394 72.9462 56.5404 70.5655 57.1422 70.8753C58.0129 71.1764 58.8991 71.4305 59.7972 71.6364C60.3016 71.778 60.514 71.5124 60.4521 71.123C60.3547 70.5035 59.6733 70.2381 58.9918 68.9814C58.8414 68.6893 58.8768 68.8221 60.5671 66.7954C60.8592 66.4237 60.9919 65.7246 60.1777 65.8219ZM58.2307 69.3619C59.0538 70.8133 59.3901 70.6805 57.7882 70.3265C55.9297 69.9106 56.7705 69.7867 54.8412 71.7426C54.6111 71.9815 54.8854 71.008 54.9562 70.0876C55.0359 68.9902 52.9119 68.6362 52.6021 68.061C52.7526 68.061 52.4871 68.0609 53.85 67.9282C55.5315 67.7866 54.735 66.8396 55.4695 65.3351C56.0713 65.8484 56.6908 67.3884 57.2395 67.2733C61.7265 66.229 57.2572 67.645 58.2307 69.3619Z" fill="black"/>
<path d="M56.8687 21.4132C61.1432 21.192 60.8423 14.935 56.7359 15.0324C52.2136 15.5811 53.0366 21.5725 56.8687 21.4132ZM56.3996 15.8997C56.7442 15.8385 57.0981 15.8544 57.4358 15.9462C57.7735 16.0379 58.0868 16.2033 58.3531 16.4304C58.6193 16.6575 58.8321 16.9407 58.976 17.2597C59.1199 17.5787 59.1914 17.9256 59.1854 18.2756C59.1794 18.6255 59.0961 18.9698 58.9414 19.2837C58.7866 19.5976 58.5643 19.8734 58.2904 20.0912C58.0165 20.3091 57.6978 20.4636 57.3571 20.5438C57.0164 20.6239 56.6623 20.6277 56.32 20.5548C55.7818 20.4402 55.3003 20.142 54.9578 19.7114C54.6153 19.2808 54.4331 18.7445 54.4425 18.1944C54.4519 17.6443 54.6523 17.1146 55.0094 16.6959C55.3664 16.2773 55.8579 15.9958 56.3996 15.8997Z" fill="black"/>
<path d="M47.1066 80.2833C46.5225 80.3895 46.4075 81.1683 47.1597 81.1683C51.0006 81.1064 51.1953 74.1503 47.496 74.2034C47.0939 74.1886 46.6923 74.2455 46.3101 74.3715C46.257 73.8671 47.1951 71.6634 46.2039 69.9465C45.1065 68.0526 41.9294 68.1765 40.8939 70.7873C40.4964 71.9166 40.3262 73.1133 40.3931 74.3086C40.4599 75.5039 40.7624 76.6743 41.2833 77.7522C41.4869 78.1505 42.0002 77.9204 41.8763 77.3894C39.2213 69.8403 44.4162 67.8933 45.5844 70.6191C46.5579 72.8936 44.4516 75.407 45.3632 75.9291C46.0092 76.292 46.3367 74.8671 47.5845 75.0441C49.2041 75.3273 49.4961 77.0885 49.2306 78.2655C48.7793 80.2037 47.558 80.1948 47.1066 80.2833Z" fill="black"/>
<path d="M37.9457 73.5568C32.9986 65.4325 31.7507 51.2282 37.8661 39.6524C39.2727 37.1861 40.8489 34.8204 42.5831 32.5724C43.4062 31.7671 42.5831 31.3423 42.1318 31.8556C37.0076 37.9178 32.9897 46.697 32.9897 54.6089C32.9897 66.2024 35.8925 71.8487 37.3439 73.5833C38.0519 74.3975 38.4148 74.3267 37.9457 73.5568Z" fill="black"/>
<path d="M33.8397 80.5486C29.4147 81.938 29.9192 76.805 34.2999 78.5839C34.3539 78.6166 34.4145 78.6372 34.4773 78.644C34.5401 78.6509 34.6036 78.644 34.6635 78.6238C34.7233 78.6036 34.778 78.5705 34.8238 78.5269C34.8695 78.4833 34.9052 78.4303 34.9283 78.3715C35.1672 77.8316 34.6982 77.6989 34.2468 77.5484C31.8308 76.7431 34.5212 72.1322 37.8665 77.7608C38.1408 78.221 38.6099 77.9024 38.5037 77.5484C37.7957 75.0262 34.9637 73.1234 33.1937 74.6722C32.8173 74.9903 32.5655 75.4313 32.4829 75.9172C32.4003 76.4031 32.4922 76.9025 32.7423 77.3272C30.6537 77.3803 30.0873 78.2122 29.8484 79.3007C29.3705 81.8672 33.5034 82.1681 34.5566 81.1592C34.9637 80.7521 34.6274 80.3008 33.8397 80.5486Z" fill="black"/>
<path d="M27.8319 64.8219C27.6991 64.5564 27.6106 64.0431 27 64.4148C24.5131 65.9282 25.0176 65.6892 24.345 64.9724C23.3361 63.9192 23.0794 63.5121 22.575 63.636C22.3537 63.698 22.4068 64.1493 22.4599 64.3883C23.0706 67.2203 23.2653 66.468 22.1148 66.8928C21.8493 66.999 21.6192 67.1229 20.5395 67.5743C20.4378 67.6209 20.3517 67.6957 20.2912 67.7898C20.2308 67.8839 20.1987 67.9934 20.1987 68.1053C20.1987 68.2171 20.2308 68.3266 20.2912 68.4207C20.3517 68.5149 20.4378 68.5897 20.5395 68.6363C23.8317 69.8664 23.0883 69.6363 23.3095 71.0258C23.5662 72.6188 23.6104 73.017 23.9467 73.0524C24.0838 73.0709 24.2232 73.0436 24.3432 72.9748C24.4632 72.906 24.5572 72.7995 24.6105 72.6719C25.9911 69.3177 25.0884 70.2027 26.3805 70.4328C28.6018 70.8311 28.7169 71.0523 29.0355 70.6629C29.3541 70.2735 28.708 69.6983 28.3894 69.3354C26.3008 66.9282 26.9203 68.5212 27.8319 64.8219ZM27.177 69.6629C26.7042 69.6275 26.2449 69.4885 25.8318 69.2558C24.7167 68.8929 24.7167 71.1231 24.2742 71.5037C24.1671 71.0359 24.1078 70.5585 24.0972 70.0788C24.0972 69.1053 23.5662 69.0345 21.9555 68.1495C21.6015 67.946 22.4068 67.8663 23.3184 67.4061C24.2299 66.9459 23.5042 66.0609 23.4865 65.4414C23.4865 65.0697 24.106 65.9636 24.4954 66.4503C25.0972 67.2026 25.168 66.0078 26.8584 65.5034C26.5752 66.9636 25.5928 67.3442 26.5398 68.3531C27.9204 69.831 27.5487 69.6983 27.177 69.6629Z" fill="black"/>
</g>
<defs>
<clipPath id="clip0_1193_4856">
<rect width="177" height="169.669" fill="white" transform="translate(0 0.331055)"/>
</clipPath>
</defs>
</svg>
