<svg width="362" height="338" viewBox="0 0 362 338" fill="none" xmlns="http://www.w3.org/2000/svg">
<g clip-path="url(#clip0_1230_4222)">
<path fill-rule="evenodd" clip-rule="evenodd" d="M280.066 243.59L304.657 208.477L352.47 249.602L325 290.358L276.79 300.285L234.733 248.121L280.066 243.59Z" fill="#E2F9FE"/>
<path fill-rule="evenodd" clip-rule="evenodd" d="M284.926 243.589L305.196 213.238L346.673 251.114L324.997 281.716L284.926 243.589Z" fill="white"/>
<path d="M325.003 282.62C324.442 282.62 327.189 285.013 284.311 244.244C284.157 244.098 284.059 243.901 284.035 243.69C284.012 243.479 284.063 243.266 284.181 243.089L304.451 212.738C304.524 212.63 304.618 212.538 304.729 212.47C304.84 212.402 304.964 212.359 305.093 212.343C305.222 212.328 305.353 212.34 305.477 212.38C305.601 212.42 305.715 212.486 305.811 212.573L347.288 250.448C347.45 250.596 347.553 250.799 347.576 251.017C347.6 251.236 347.543 251.456 347.416 251.635L325.74 282.239C325.656 282.357 325.546 282.453 325.418 282.519C325.289 282.585 325.147 282.62 325.003 282.62ZM286.105 243.452L324.87 280.337L345.481 251.236L305.365 214.615L286.105 243.452Z" fill="black"/>
<path d="M298.537 291.188C298.408 291.188 298.279 291.16 298.161 291.106C298.043 291.051 297.938 290.972 297.853 290.874L262.678 250.011C262.571 249.886 262.499 249.735 262.472 249.573C262.444 249.412 262.461 249.246 262.521 249.093C262.581 248.94 262.681 248.806 262.811 248.706C262.941 248.606 263.096 248.544 263.259 248.525L279.964 246.581C280.104 246.565 280.246 246.581 280.378 246.63C280.51 246.678 280.629 246.756 280.726 246.859L318.024 286.607C318.136 286.726 318.214 286.874 318.249 287.034C318.283 287.194 318.274 287.36 318.221 287.515C318.169 287.67 318.075 287.808 317.95 287.914C317.825 288.02 317.673 288.09 317.512 288.116C298.083 291.28 298.718 291.188 298.537 291.188ZM265.156 250.121L298.891 289.313L315.548 286.605L279.729 248.426L265.156 250.121Z" fill="black"/>
<path d="M325.886 290.175C325.807 289.794 328.882 293.148 280.719 242.929C280.595 242.8 280.436 242.71 280.26 242.672C280.085 242.634 279.902 242.648 279.736 242.714C233.436 247.353 234.569 247.202 234.342 247.317C234.179 247.397 234.044 247.524 233.954 247.682C233.865 247.84 233.825 248.021 233.84 248.202C234.381 254.956 234.261 254.649 234.501 254.951L275.474 306.723C275.559 306.83 275.666 306.917 275.789 306.976C275.911 307.035 276.045 307.066 276.182 307.066C276.362 307.066 274.211 307.577 325.205 295.736C325.404 295.69 325.581 295.578 325.708 295.419C325.835 295.259 325.904 295.061 325.904 294.857C325.902 290.303 325.924 290.359 325.886 290.175ZM279.752 244.527L323.216 289.805L277.149 299.299L236.49 248.857L279.752 244.527ZM276.534 305.155L236.087 254.048L235.856 250.949L276.09 300.861C276.174 300.966 276.281 301.05 276.403 301.108C276.524 301.166 276.657 301.196 276.792 301.196C276.972 301.196 274.934 301.599 324.097 291.466V294.141L276.534 305.155Z" fill="black"/>
<path d="M276.183 307.068C276.056 307.069 275.93 307.043 275.814 306.991C275.698 306.94 275.594 306.865 275.509 306.771C275.424 306.677 275.359 306.566 275.32 306.446C275.281 306.325 275.267 306.198 275.28 306.072L275.892 300.204C275.903 300.085 275.937 299.97 275.993 299.865C276.049 299.759 276.125 299.667 276.217 299.592C276.31 299.516 276.416 299.461 276.531 299.428C276.645 299.394 276.765 299.385 276.883 299.399C277.121 299.424 277.339 299.542 277.49 299.728C277.64 299.914 277.711 300.152 277.686 300.389L277.074 306.259C277.051 306.48 276.948 306.685 276.783 306.834C276.619 306.983 276.405 307.066 276.183 307.068Z" fill="black"/>
<path d="M269.124 284.347C268.984 284.347 268.846 284.315 268.721 284.252C268.596 284.189 268.487 284.098 268.402 283.986L254.282 264.644C254.189 264.517 254.131 264.369 254.114 264.213C254.096 264.057 254.119 263.9 254.181 263.756C254.243 263.611 254.341 263.486 254.466 263.391C254.591 263.297 254.738 263.236 254.894 263.216L268.901 261.411C269.045 261.393 269.192 261.409 269.329 261.46C269.466 261.511 269.588 261.594 269.686 261.702L285.601 279.344C285.706 279.461 285.779 279.604 285.812 279.759C285.846 279.913 285.838 280.073 285.789 280.224C285.741 280.374 285.654 280.509 285.538 280.615C285.421 280.722 285.278 280.795 285.124 280.829C268.401 284.539 269.307 284.347 269.124 284.347ZM256.641 264.812L269.507 282.438L283.225 279.407L268.666 263.267L256.641 264.812Z" fill="black"/>
<path fill-rule="evenodd" clip-rule="evenodd" d="M295.371 300.979L295.12 299.355C296.728 298.853 298.379 298.504 300.053 298.311C301.924 298.221 304.385 303.589 301.961 304.107C299.536 304.625 295.371 300.979 295.371 300.979Z" fill="white"/>
<path fill-rule="evenodd" clip-rule="evenodd" d="M278.207 134.872C278.207 134.872 283.678 126.692 281.292 123.532C278.925 120.398 277.501 129.669 273.871 131.62C270.241 133.571 264.741 136.621 262.574 143.917C260.406 151.213 260.613 155.383 255.027 165.805C249.44 176.227 242.813 185.815 241.489 190.067L230.15 182.062C230.15 182.062 220.894 184.481 218.561 200.073C218.561 200.073 238.235 219.698 246.867 215.581C255.531 211.446 263.583 189.858 265.543 182.145C267.503 174.433 269.875 158.155 274.929 157.216C279.983 156.278 285.559 156.007 285.1 151.26C285.1 151.26 286.892 151.384 287.1 148.049C287.659 147.703 288.118 147.217 288.433 146.64C288.747 146.063 288.906 145.414 288.894 144.757C288.894 144.757 290.555 144.634 289.894 140.424C287.575 125.623 294.103 122.207 289.726 121.499C289.726 121.499 285.809 120.373 285.142 136.506L278.207 134.872Z" fill="#FCE0D1"/>
<path d="M291.87 121.658C291.643 121.358 291.356 121.11 291.026 120.93C290.697 120.75 290.333 120.643 289.958 120.615C289.622 120.545 289.274 120.552 288.941 120.635C288.607 120.718 288.297 120.874 288.032 121.093C285.745 122.745 284.408 127.9 284.061 136.414C284.056 136.532 284.075 136.651 284.116 136.762C284.157 136.873 284.219 136.976 284.299 137.063C284.38 137.15 284.476 137.221 284.584 137.271C284.692 137.32 284.808 137.349 284.927 137.353C285.045 137.358 285.163 137.34 285.275 137.299C285.386 137.258 285.488 137.196 285.576 137.115C285.663 137.035 285.733 136.938 285.783 136.83C285.833 136.723 285.861 136.606 285.866 136.488C286.296 126.116 288.164 123.375 288.947 122.676C289.308 122.353 289.538 122.367 289.572 122.375C290.236 122.483 290.35 122.62 290.35 122.62C290.852 123.575 287.159 128.725 288.992 140.551C289.436 143.351 288.742 143.845 288.812 143.847C288.589 143.865 288.381 143.966 288.228 144.129C288.075 144.292 287.988 144.506 287.983 144.73C287.997 145.225 287.883 145.716 287.654 146.155C287.425 146.594 287.087 146.968 286.673 147.24C286.535 147.312 286.419 147.419 286.334 147.549C286.25 147.679 286.201 147.829 286.191 147.984C286.077 149.823 285.435 150.33 285.153 150.349C285.022 150.34 284.891 150.359 284.769 150.406C284.646 150.453 284.536 150.526 284.444 150.62C284.353 150.714 284.283 150.826 284.24 150.95C284.196 151.074 284.18 151.205 284.193 151.336C284.502 154.536 281.485 155.2 276.54 156.02C275.946 156.117 275.348 156.217 274.751 156.325C268.998 157.417 266.943 172.931 264.666 181.918C262.874 188.97 254.919 210.74 246.474 214.769C239.996 217.868 225.139 205.278 219.52 199.757C221.576 186.983 228.305 183.692 229.998 183.062L240.452 190.445C240.172 192.654 240.206 194.893 240.553 197.093C240.573 197.21 240.614 197.322 240.677 197.422C240.739 197.523 240.821 197.611 240.917 197.68C241.013 197.749 241.122 197.799 241.238 197.826C241.353 197.853 241.473 197.857 241.59 197.838C241.707 197.819 241.819 197.777 241.919 197.715C242.02 197.652 242.108 197.571 242.177 197.474C242.246 197.378 242.296 197.269 242.323 197.154C242.35 197.039 242.354 196.919 242.335 196.802C242.001 194.711 241.983 192.581 242.283 190.485C242.891 189.322 241.561 190.513 248.636 178.709C256.981 164.767 259.589 160.036 262.038 149.628C262.441 147.921 262.856 146.154 263.446 144.172C265.533 137.147 270.812 134.297 274.307 132.41C276.19 131.394 277.431 128.92 278.527 126.737C278.968 125.673 279.561 124.679 280.289 123.786C280.405 123.858 280.503 123.955 280.576 124.07C282.02 126.003 279.435 131.41 277.462 134.358C277.34 134.557 277.299 134.795 277.349 135.024C277.399 135.252 277.535 135.452 277.73 135.581C277.924 135.711 278.161 135.76 278.39 135.719C278.62 135.678 278.825 135.549 278.962 135.36C279.559 134.47 284.704 126.555 282.016 122.972C281.825 122.66 281.554 122.404 281.232 122.231C280.909 122.057 280.546 121.972 280.18 121.985C277.57 122.227 276.316 129.264 273.45 130.813C269.921 132.717 264.017 135.905 261.717 143.648C259.551 150.96 259.757 155.076 254.241 165.364C249.221 174.732 243.005 183.956 241.052 188.649L230.669 181.319C230.562 181.243 230.439 181.192 230.31 181.168C230.18 181.145 230.047 181.15 229.92 181.183C229.519 181.288 220.061 183.936 217.666 199.932C217.645 200.072 217.658 200.215 217.702 200.349C217.747 200.483 217.822 200.605 217.922 200.704C223.913 206.681 239.517 220.085 247.254 216.39C256.383 212.043 264.495 189.927 266.415 182.362C268.04 175.947 270.767 158.92 275.079 158.099C279.877 157.233 285.909 156.836 286.018 151.946C286.606 151.594 287.094 151.096 287.433 150.5C287.772 149.905 287.951 149.231 287.953 148.545C288.45 148.158 288.866 147.675 289.174 147.125C289.482 146.575 289.677 145.968 289.747 145.341C291.157 144.374 291.045 141.964 290.776 140.273C288.796 127.55 293.337 123.988 291.87 121.658Z" fill="black"/>
<path fill-rule="evenodd" clip-rule="evenodd" d="M187.46 71.7523C171.624 67.9022 165.677 75.1818 165.677 75.1818C150.181 76.9525 143.4 84.3024 140.407 97.1179C137.414 109.973 146.961 119.016 146.961 119.016L199.811 110.782C219.737 103.968 203.257 75.5626 187.46 71.7523Z" fill="#FFA87D"/>
<path d="M303.255 304.374C305.127 302.372 302.324 297.255 300.019 297.412C298.264 297.596 296.533 297.959 294.853 298.495C294.646 298.56 294.47 298.696 294.356 298.88C294.241 299.063 294.197 299.282 294.23 299.495C294.495 301.208 294.461 301.378 294.772 301.661C295.192 302.031 298.692 305.029 301.45 305.06C303.084 306.925 310.957 316.581 308.464 326.798C305.963 336.974 302.508 339.252 292.698 341.36C283.705 343.285 271.715 337.209 263.538 326.572C255.802 316.507 247.901 282.546 210.798 282.546C173.995 282.546 149.635 321.285 108.127 317.509C71.7945 314.166 58.3798 287.907 57.4069 268.025C77.2131 261.226 89.7561 235.833 81.0036 230.021C79.7157 229.165 78.2168 228.68 76.6715 228.62C75.1262 228.561 73.5943 228.928 72.244 229.682C64.1323 233.653 56.6939 248.262 55.6614 262.245C55.5549 263.689 55.5152 265.182 55.5495 266.72C50.6846 268.163 45.5393 268.385 40.568 267.368C12.2476 261.69 10.605 230.12 28.2399 208.262C28.3143 208.169 28.3698 208.063 28.4033 207.949C28.4367 207.836 28.4474 207.716 28.4347 207.598C28.4221 207.481 28.3863 207.366 28.3295 207.262C28.2727 207.158 28.1959 207.066 28.1036 206.992C28.0113 206.917 27.9052 206.862 27.7914 206.828C27.6776 206.795 27.5584 206.784 27.4405 206.797C27.3226 206.81 27.2083 206.845 27.1042 206.902C27.0001 206.959 26.9082 207.036 26.8338 207.128C8.38127 230.023 10.4281 263.17 40.2215 269.137C45.3272 270.183 50.6093 269.991 55.6253 268.576C56.8275 289.097 70.7494 315.881 107.97 319.296C150.177 323.152 174.69 284.341 210.805 284.341C246.632 284.341 254.249 317.426 262.114 327.661C269.247 336.936 281.647 345.568 293.084 343.113C303.392 340.904 307.524 338.171 310.231 327.216C312.766 316.778 305.701 307.271 303.255 304.374ZM296.136 300.002C297.431 299.61 298.761 299.347 300.107 299.216C300.67 299.197 301.824 300.71 302.042 302.273C302.38 304.703 298.113 302.093 296.217 300.512L296.136 300.002ZM76.4911 230.425C77.7458 230.431 78.9697 230.814 80.0037 231.524C86.628 235.923 76.3034 259.287 57.3455 266.132C57.1776 249.708 67.1665 230.425 76.4911 230.425Z" fill="black"/>
<path fill-rule="evenodd" clip-rule="evenodd" d="M131.178 281.615C131.178 281.615 126.51 321.971 128.637 341.396L167.072 339.353C167.072 339.353 169.116 318.801 170.825 311.964C170.825 311.964 173.866 334.934 176.24 341.062L208.883 340.479C208.883 340.479 207.965 300.125 205.048 285.201C202.131 270.277 200.212 250.099 200.212 250.099L132.505 253.476L131.178 281.615Z" fill="white"/>
<path fill-rule="evenodd" clip-rule="evenodd" d="M160.671 147.5L185.087 147.009C185.087 147.009 205.29 176.3 201.292 244.352L160.68 247.473L160.671 147.5Z" fill="white"/>
<path fill-rule="evenodd" clip-rule="evenodd" d="M165.43 259.183C165.43 259.183 188.112 261.991 200.931 255.618V244.135C189.78 247.145 178.15 247.952 166.69 246.51L165.43 259.183Z" fill="#E2F9FE"/>
<path fill-rule="evenodd" clip-rule="evenodd" d="M160.438 133.75C158.201 135.128 156.395 137.107 155.227 139.461C152.632 143.957 152.976 146.714 144.43 149.591C135.883 152.468 129.934 151.684 121.669 160.805C113.404 169.926 91.0271 201.365 103.158 206.367C110.226 209.31 117.499 211.735 124.92 213.621C124.92 213.621 128.169 235.799 100.24 278.488C108.908 280.364 117.372 283.085 125.51 286.61C138.056 292.197 143.267 292.489 162.068 285.984C162.068 285.984 172.158 219.116 167.122 191.436C162.086 163.756 162.021 149.129 162.021 149.129L163.399 137.082L160.438 133.75Z" fill="#FAD353"/>
<path fill-rule="evenodd" clip-rule="evenodd" d="M187.449 142.414C187.449 142.414 193.172 149.199 196.835 153.502C200.497 157.805 205.703 152.803 214.011 162.59C222.319 172.377 227.52 178.683 232.855 184.019C232.855 184.019 226.458 181.526 222.224 191.896C219.664 198.154 216.42 204.111 212.553 209.657C212.553 209.657 212.944 234.577 219.592 247.51C226.24 260.443 235.18 278.435 220.343 284.653C205.542 290.857 205.751 289.03 205.751 289.03C205.751 289.03 200.25 261.683 199.708 240.59C199.167 219.536 199.289 175.721 185.7 148.715L184.907 143.587L187.449 142.414Z" fill="#FAD353"/>
<path d="M138.996 151.129C137.48 151.51 136.02 151.867 134.583 152.307L137.8 155.822L138.996 151.129Z" fill="black"/>
<path d="M136.742 164.298L147.187 166.344L139.426 174.828L136.742 164.298Z" fill="black"/>
<path d="M136.742 238.674V230.498L143.705 232.191L136.742 238.674Z" fill="black"/>
<path d="M197.364 187.968L202.949 178.971L205.489 190.666L197.364 187.968Z" fill="black"/>
<path d="M202.946 220.163L208.532 211.167L211.07 222.863L202.946 220.163Z" fill="black"/>
<path d="M213.765 164.298L217.703 172.485L219.126 168.637L215.451 164.305L213.765 164.298Z" fill="black"/>
<path d="M114.034 178.971L113.464 171.244C112.381 172.768 111.327 174.311 110.301 175.874L114.034 178.971Z" fill="black"/>
<path d="M120.999 261.209L114.026 255.433L120.354 252.501L120.999 261.209Z" fill="black"/>
<path d="M162.228 241.493L166.164 249.681L166.525 248.726C166.747 246.354 166.958 243.937 167.157 241.493H162.228Z" fill="black"/>
<path d="M217.158 258.657L224.064 264.518L217.705 267.375L217.158 258.657Z" fill="black"/>
<path d="M147.181 249.68L150.648 259.817L139.481 257.288L147.181 249.68Z" fill="black"/>
<path d="M153.835 275.554L147.182 283.926L143.337 273.061L153.835 275.554Z" fill="black"/>
<path d="M201.58 247.985V239.8L208.545 241.493L201.58 247.985Z" fill="black"/>
<path fill-rule="evenodd" clip-rule="evenodd" d="M145.926 239.72C146.742 244.438 146.221 249.289 144.424 253.727L147.716 253.936C149.647 249.24 150.169 244.083 149.218 239.095L145.926 239.72Z" fill="#FCE0D1"/>
<path fill-rule="evenodd" clip-rule="evenodd" d="M145.926 239.72C146.742 244.438 146.221 249.289 144.424 253.727L147.716 253.936C149.647 249.24 150.169 244.083 149.218 239.095L145.926 239.72Z" fill="#FCE0D1"/>
<path fill-rule="evenodd" clip-rule="evenodd" d="M266.761 155.18L270.111 148.884C270.668 148.63 271.275 148.501 271.888 148.508C272.501 148.514 273.105 148.656 273.657 148.922C275.228 149.881 275.085 149.902 275.085 149.902L271.463 158.216C271.463 158.216 270.634 159.44 268.376 158.194C265.472 156.588 266.761 155.18 266.761 155.18Z" fill="#FAD353"/>
<path fill-rule="evenodd" clip-rule="evenodd" d="M286.596 123.358C285.68 123.024 286.721 120.109 286.721 120.109C286.721 120.109 284.97 122.609 284.387 122.36C283.553 122.026 284.595 119.652 284.595 119.652L277.133 134.91L281.885 135.285L288.925 120.652C288.925 120.652 287.221 123.567 286.596 123.358Z" fill="#FAD353"/>
<path d="M274.136 148.15C273.457 147.806 272.709 147.619 271.948 147.604C271.186 147.589 270.431 147.746 269.739 148.063C269.357 148.244 269.588 147.962 266.01 154.686C265.836 154.922 265.711 155.19 265.642 155.476C265.573 155.761 265.562 156.057 265.609 156.346C265.9 158.139 268.618 159.653 270.189 159.653C270.701 159.659 271.203 159.514 271.633 159.234C271.751 159.194 271.86 159.131 271.953 159.047C272.046 158.964 272.121 158.862 272.174 158.749C272.22 158.692 272.262 158.632 272.299 158.568C275.947 150.193 275.945 150.249 275.981 150.065C276.122 149.363 275.652 149.081 274.136 148.15ZM267.402 156.106C268.394 155.745 270.615 157.11 270.615 157.771C269.754 158.186 267.595 156.854 267.393 156.106H267.402ZM271.506 155.881C270.607 155.045 269.486 154.486 268.277 154.269L270.761 149.603C271.151 149.449 271.568 149.377 271.987 149.392C272.406 149.407 272.818 149.508 273.196 149.69C273.546 149.906 273.802 150.065 273.986 150.186L271.506 155.881Z" fill="black"/>
<path d="M285.1 135.534C280.226 132.913 272.826 134.099 270.66 135.736C269.906 136.159 269.306 136.811 268.947 137.598C268.588 138.385 268.489 139.265 268.664 140.112C267.039 141.348 265.66 143.133 266.564 144.947C264.093 148.131 266.135 151.806 271.057 149.442C271.37 149.279 271.714 149.185 272.066 149.164C272.418 149.144 272.77 149.198 273.1 149.323C274.928 150.382 276.36 152.011 277.176 153.96C277.274 154.178 277.454 154.349 277.678 154.434C277.901 154.52 278.15 154.513 278.368 154.415C278.587 154.318 278.757 154.137 278.843 153.914C278.928 153.69 278.922 153.442 278.824 153.223C278.743 153.043 276.797 148.749 273.721 147.628C273.165 147.418 272.57 147.326 271.976 147.359C271.383 147.391 270.802 147.548 270.272 147.817C268.725 148.561 267.745 148.525 267.456 148.157C267.167 147.788 267.326 146.839 268.108 145.911C268.958 145.227 269.942 144.73 270.997 144.453C272.052 144.175 273.154 144.123 274.23 144.299C277.118 144.568 281.203 146.086 284.338 151.776C284.454 151.985 284.648 152.14 284.878 152.207C285.108 152.274 285.355 152.246 285.565 152.13C285.774 152.015 285.929 151.821 285.996 151.591C286.062 151.36 286.035 151.113 285.919 150.904C282.217 144.187 277.113 142.758 274.4 142.502C272.232 142.256 270.039 142.659 268.1 143.66C268.194 142.758 269.423 141.734 270.18 141.249C270.262 141.213 270.34 141.166 270.409 141.108C272.711 139.893 275.394 139.613 277.898 140.327C280.425 141.009 283.925 142.973 286.302 148.449C286.398 148.668 286.577 148.841 286.8 148.928C287.023 149.016 287.271 149.011 287.491 148.916C287.71 148.82 287.883 148.641 287.97 148.418C288.058 148.195 288.053 147.947 287.957 147.727C285.295 141.59 281.279 139.368 278.371 138.583C275.705 137.851 272.871 138.042 270.328 139.124C270.389 138.222 271.445 137.401 271.748 137.17C273.709 136.27 275.839 135.801 277.995 135.792C280.152 135.783 282.286 136.236 284.253 137.119C285.585 137.847 286.658 138.97 287.325 140.333C287.992 141.696 288.221 143.233 287.979 144.731C287.963 144.97 288.044 145.206 288.202 145.386C288.361 145.566 288.584 145.676 288.824 145.691C289.063 145.706 289.299 145.626 289.479 145.467C289.659 145.309 289.768 145.086 289.784 144.846C290.058 143.001 289.755 141.115 288.916 139.449C288.078 137.782 286.745 136.415 285.1 135.534Z" fill="black"/>
<path d="M290.889 112.868C290.774 112.774 290.643 112.7 290.503 112.648C290.115 112.482 289.671 112.318 288.057 113.984C286.543 115.606 285.137 117.325 283.848 119.13C283.712 119.31 283.642 119.531 276.321 134.512C276.269 134.619 276.238 134.735 276.231 134.853C276.224 134.972 276.24 135.09 276.279 135.203C276.317 135.315 276.378 135.418 276.456 135.507C276.535 135.596 276.63 135.669 276.737 135.721C276.844 135.773 276.96 135.803 277.078 135.81C277.196 135.818 277.315 135.801 277.427 135.763C277.54 135.724 277.643 135.664 277.732 135.585C277.821 135.507 277.893 135.411 277.945 135.305L283.902 123.128C284.131 123.259 284.395 123.315 284.658 123.286C284.92 123.258 285.166 123.148 285.362 122.971C285.387 123.232 285.481 123.481 285.633 123.694C285.786 123.907 285.992 124.076 286.23 124.184L281.075 134.893C281.018 135 280.983 135.118 280.973 135.239C280.962 135.36 280.976 135.482 281.014 135.598C281.052 135.714 281.112 135.82 281.192 135.912C281.272 136.003 281.37 136.078 281.48 136.131C281.589 136.183 281.708 136.214 281.83 136.219C281.951 136.225 282.073 136.206 282.187 136.163C282.3 136.121 282.405 136.056 282.493 135.972C282.581 135.889 282.651 135.788 282.7 135.676C290.238 120.032 289.788 120.998 289.821 120.805C292.095 113.895 291.279 113.202 290.889 112.868ZM288.081 120.309C287.808 120.765 287.508 121.211 287.236 121.594C287.322 121.192 287.433 120.797 287.57 120.41C287.644 120.204 287.641 119.978 287.561 119.774C287.481 119.57 287.33 119.402 287.135 119.301C286.94 119.201 286.716 119.174 286.503 119.227C286.291 119.28 286.104 119.408 285.98 119.588C285.73 119.949 285.452 120.31 285.191 120.614C285.252 120.433 285.323 120.242 285.397 120.072C285.989 119.258 286.768 118.238 287.55 117.283C287.923 117.572 288.372 117.748 288.842 117.791C288.613 118.617 288.349 119.491 288.081 120.309Z" fill="black"/>
<path fill-rule="evenodd" clip-rule="evenodd" d="M163.486 136.952C161.388 134.951 159.604 132.645 158.194 130.111C158.194 130.111 153.903 135.551 147.501 126.501C142.447 119.377 151.425 113.792 153.658 117.61C153.658 117.61 168.527 102.235 166.762 85.8904C166.762 85.8904 170.914 92.5057 181.202 93.3071C188.547 93.8775 193.227 94.2782 196.431 95.863C197.865 97.7062 198.65 99.9715 198.664 102.307C198.934 106.736 198.873 110.592 201.913 116.025C206.01 123.373 196.561 136.744 189.852 141.011C188.356 141.998 186.778 142.853 185.135 143.567L184.74 152.497C184.74 152.497 183.801 158.092 175.451 157.895C164.432 157.634 161.984 149.221 161.984 149.221C163.486 135.916 163.277 137.313 163.486 136.952Z" fill="#FCE0D1"/>
<path d="M181.882 124.935C181.161 124.991 180.443 124.788 179.857 124.363C179.272 123.937 178.858 123.316 178.689 122.613C178.52 121.909 178.609 121.168 178.937 120.523C179.266 119.878 179.814 119.372 180.483 119.096C180.693 118.988 180.936 118.967 181.161 119.037C181.386 119.106 181.575 119.261 181.687 119.467C181.8 119.674 181.827 119.917 181.763 120.143C181.7 120.37 181.55 120.563 181.346 120.68C180.92 120.912 180.584 121.278 180.389 121.722C180.365 121.834 180.365 121.949 180.39 122.061C180.415 122.173 180.464 122.278 180.534 122.368C180.711 122.604 180.94 122.795 181.204 122.927C181.467 123.059 181.758 123.127 182.053 123.127C182.347 123.127 182.638 123.059 182.902 122.927C183.165 122.795 183.395 122.604 183.572 122.368C183.694 122.232 183.855 122.136 184.033 122.094C184.211 122.051 184.397 122.064 184.568 122.13C186.113 122.724 189.918 123.682 190.297 122.059C190.873 119.583 188.084 117.518 188.055 117.496C187.872 117.352 187.752 117.143 187.719 116.912C187.687 116.682 187.745 116.447 187.882 116.259C188.018 116.07 188.222 115.941 188.451 115.899C188.68 115.857 188.917 115.906 189.111 116.034C189.266 116.146 192.902 118.814 192.053 122.469C191.357 125.465 187.36 124.98 184.458 124.007C183.729 124.6 182.821 124.927 181.882 124.935Z" fill="black"/>
<path d="M183.394 131.659C180.36 131.41 177.5 130.137 175.284 128.049C175.112 127.884 175.012 127.656 175.007 127.417C175.001 127.178 175.092 126.946 175.257 126.773C175.423 126.6 175.65 126.5 175.89 126.495C176.129 126.49 176.361 126.58 176.533 126.746C176.57 126.779 180.158 130.136 183.865 129.842C184.795 129.736 185.69 129.43 186.489 128.944C187.288 128.458 187.971 127.803 188.492 127.026C188.563 126.931 188.653 126.851 188.756 126.791C188.858 126.731 188.972 126.692 189.09 126.676C189.208 126.659 189.327 126.666 189.443 126.696C189.558 126.727 189.666 126.779 189.76 126.851C189.855 126.923 189.935 127.012 189.995 127.115C190.055 127.218 190.095 127.331 190.111 127.449C190.127 127.567 190.12 127.687 190.09 127.802C190.06 127.917 190.007 128.025 189.936 128.12C189.209 129.191 188.235 130.072 187.097 130.688C185.959 131.304 184.689 131.637 183.394 131.659Z" fill="black"/>
<path d="M183.488 136.14C181.954 136.079 180.483 135.516 179.3 134.537C179.116 134.384 178.999 134.165 178.977 133.926C178.954 133.688 179.027 133.45 179.179 133.266C179.332 133.081 179.551 132.965 179.79 132.942C180.028 132.92 180.266 132.993 180.45 133.145C180.575 133.246 183.506 135.605 185.589 133.374C185.754 133.206 185.978 133.108 186.214 133.102C186.449 133.097 186.678 133.184 186.85 133.345C187.023 133.506 187.125 133.728 187.136 133.963C187.147 134.199 187.065 134.429 186.908 134.605C186.48 135.089 185.954 135.477 185.364 135.741C184.774 136.006 184.134 136.142 183.488 136.14Z" fill="black"/>
<path d="M203.381 104.098C203.342 103.875 203.221 103.674 203.041 103.536C202.861 103.398 202.636 103.332 202.41 103.353L187.029 104.777C186.825 104.796 186.633 104.884 186.486 105.026C186.338 105.168 186.243 105.357 186.217 105.56C186.089 106.691 186.038 107.829 186.066 108.966C185.152 108.448 184.113 108.19 183.062 108.222C182.012 108.254 180.99 108.574 180.109 109.147C180.033 108.456 179.922 107.769 179.777 107.089C179.73 106.882 179.611 106.697 179.441 106.569C179.272 106.44 179.062 106.376 178.849 106.387L161.689 107.271C161.469 107.283 161.261 107.374 161.104 107.529C160.946 107.683 160.851 107.889 160.835 108.109C160.753 109.596 160.789 111.088 160.944 112.569C160.269 112.93 157.173 114.578 153.635 116.374C153.422 116.483 153.26 116.672 153.186 116.9C153.112 117.127 153.131 117.375 153.24 117.589C153.349 117.802 153.538 117.964 153.765 118.038C153.993 118.112 154.241 118.093 154.455 117.984C156.716 116.834 158.967 115.664 161.209 114.475C162.166 119.854 164.86 124.148 170.281 124.148C176.25 124.148 180.609 120.076 180.27 111.196C180.668 110.803 181.141 110.495 181.662 110.291C182.183 110.087 182.74 109.992 183.299 110.011C183.858 110.03 184.407 110.163 184.913 110.401C185.418 110.64 185.87 110.979 186.241 111.398C186.925 116.968 189.661 120.854 195.199 120.309C196.374 120.233 197.519 119.905 198.557 119.349C199.595 118.792 200.501 118.02 201.215 117.083C204.769 112.409 203.437 104.436 203.381 104.098ZM176.615 119.387C175.993 120.23 175.194 120.927 174.273 121.429C173.353 121.93 172.334 122.224 171.288 122.289C170.329 122.454 169.344 122.394 168.412 122.115C167.479 121.835 166.625 121.343 165.915 120.677C162.745 117.627 162.559 111.268 162.599 109.035L178.143 108.235C178.472 110.248 179.106 115.881 176.611 119.387H176.615ZM199.773 115.993C199.211 116.734 198.495 117.344 197.674 117.78C196.853 118.216 195.947 118.469 195.018 118.52C190.506 118.953 188.589 115.742 188.035 111.242C188.071 111.06 188.05 110.871 187.975 110.701C187.849 109.307 187.838 107.904 187.941 106.508L201.713 105.232C201.937 107.291 202.253 112.737 199.773 115.993Z" fill="black"/>
<path d="M165.229 102.524C165.063 102.524 164.901 102.478 164.759 102.391C164.618 102.305 164.503 102.181 164.427 102.034C164.352 101.886 164.318 101.721 164.33 101.555C164.342 101.39 164.4 101.231 164.496 101.096C165.587 99.6828 167.174 98.7374 168.937 98.4519C169.98 98.3656 171.03 98.5002 172.017 98.847C173.005 99.1938 173.909 99.7449 174.669 100.464C174.761 100.54 174.836 100.633 174.892 100.738C174.947 100.843 174.981 100.957 174.993 101.075C175.004 101.193 174.992 101.313 174.957 101.426C174.922 101.539 174.865 101.645 174.789 101.736C174.714 101.827 174.621 101.903 174.516 101.959C174.411 102.014 174.296 102.048 174.178 102.059C174.06 102.071 173.941 102.058 173.828 102.023C173.714 101.989 173.609 101.932 173.518 101.856C172.947 101.301 172.267 100.871 171.521 100.593C170.776 100.315 169.98 100.195 169.186 100.241C167.911 100.459 166.763 101.14 165.96 102.154C165.876 102.269 165.766 102.362 165.639 102.427C165.512 102.491 165.371 102.524 165.229 102.524Z" fill="black"/>
<path d="M198.403 101.723C198.273 101.723 198.144 101.694 198.026 101.64C197.908 101.586 197.803 101.507 197.719 101.409C195.764 99.1396 191.024 99.3111 189.36 99.5656C189.241 99.5865 189.12 99.5836 189.003 99.557C188.886 99.5304 188.775 99.4807 188.678 99.4108C188.58 99.3409 188.497 99.2521 188.434 99.1498C188.371 99.0475 188.329 98.9337 188.311 98.815C188.293 98.6963 188.298 98.5751 188.327 98.4585C188.356 98.342 188.408 98.2324 188.48 98.1362C188.552 98.04 188.643 97.9592 188.746 97.8984C188.85 97.8376 188.964 97.7982 189.084 97.7823C189.367 97.7372 196.082 96.7444 199.085 100.232C199.198 100.362 199.27 100.523 199.294 100.694C199.319 100.865 199.293 101.039 199.221 101.196C199.15 101.353 199.034 101.486 198.889 101.579C198.744 101.672 198.575 101.722 198.403 101.723Z" fill="black"/>
<path d="M157.61 128.011C155.083 118.721 149.058 119.241 148.803 119.269C148.685 119.281 148.57 119.316 148.465 119.373C148.36 119.429 148.267 119.505 148.191 119.598C148.116 119.69 148.059 119.796 148.025 119.91C147.991 120.024 147.979 120.144 147.991 120.262C148.015 120.502 148.133 120.722 148.319 120.874C148.411 120.949 148.517 121.006 148.631 121.04C148.745 121.075 148.865 121.086 148.984 121.074C149.807 121.085 150.618 121.281 151.357 121.647C152.095 122.014 152.741 122.541 153.249 123.19C153.006 123.72 152.623 124.173 152.141 124.501C151.659 124.829 151.096 125.018 150.514 125.049C150.275 125.055 150.048 125.157 149.883 125.331C149.719 125.504 149.63 125.737 149.636 125.976C149.643 126.215 149.744 126.442 149.918 126.607C150.091 126.772 150.324 126.86 150.563 126.854C151.312 126.817 152.045 126.617 152.709 126.269C153.374 125.92 153.954 125.431 154.411 124.836C155.05 125.989 155.539 127.218 155.868 128.495C155.933 128.723 156.085 128.917 156.292 129.034C156.499 129.151 156.743 129.182 156.973 129.119C157.202 129.057 157.397 128.907 157.517 128.701C157.636 128.496 157.669 128.252 157.61 128.022V128.011Z" fill="black"/>
<path d="M192.08 113.31C192.706 113.31 193.215 112.353 193.215 111.173C193.215 109.992 192.706 109.034 192.08 109.034C191.453 109.034 190.944 109.992 190.944 111.173C190.944 112.353 191.453 113.31 192.08 113.31Z" fill="black"/>
<path d="M168.179 115.458C168.805 115.458 169.314 114.501 169.314 113.321C169.314 112.141 168.809 111.188 168.179 111.188C167.549 111.188 167.045 112.144 167.045 113.326C167.045 114.509 167.556 115.458 168.179 115.458Z" fill="black"/>
<path fill-rule="evenodd" clip-rule="evenodd" d="M172.165 249.067C172.168 248.484 172.394 247.925 172.797 247.503C173.2 247.081 173.748 246.83 174.331 246.8C178.182 246.578 186.244 246.123 190.171 245.897C190.765 245.866 191.349 246.066 191.799 246.455C192.249 246.845 192.53 247.393 192.585 247.986C192.765 250.253 192.989 253.747 193.16 255.978C193.202 256.579 193.007 257.171 192.617 257.629C192.226 258.087 191.671 258.373 191.072 258.426C187.074 258.776 178.798 259.419 174.619 259.83C174.305 259.862 173.988 259.827 173.689 259.727C173.389 259.626 173.115 259.464 172.883 259.249C172.651 259.035 172.468 258.774 172.345 258.483C172.222 258.192 172.162 257.879 172.17 257.563L172.165 249.067ZM175.693 249.823C175.693 249.686 175.745 249.554 175.838 249.453C175.932 249.353 176.06 249.291 176.197 249.282C178.321 249.174 186.485 248.688 188.651 248.634C188.72 248.631 188.789 248.641 188.854 248.665C188.918 248.689 188.977 248.725 189.028 248.772C189.078 248.819 189.119 248.875 189.147 248.938C189.176 249.001 189.191 249.069 189.193 249.137L189.697 255.545C189.697 255.906 189.482 256.121 189.229 256.121C187.032 256.302 178.536 256.949 176.267 257.13C176.195 257.134 176.123 257.123 176.055 257.099C175.987 257.074 175.925 257.036 175.872 256.987C175.608 256.724 175.693 257.076 175.693 249.823Z" fill="white"/>
<path d="M219.951 283.826C210.368 287.847 207.363 288.36 206.5 288.389C203.342 272.618 201.359 256.635 200.567 240.571C199.987 217.66 199.242 191.946 193.471 168.621C196.383 166.155 200.058 164.772 203.874 164.706C204.032 164.706 204.187 164.664 204.324 164.585C204.461 164.506 204.575 164.393 204.654 164.256C204.733 164.119 204.775 163.963 204.775 163.805C204.775 163.647 204.734 163.492 204.655 163.354C202.384 159.437 199.783 155.721 196.881 152.245C196.722 152.07 196.5 151.966 196.264 151.953C196.028 151.94 195.797 152.02 195.619 152.176C195.442 152.332 195.333 152.551 195.315 152.787C195.298 153.022 195.373 153.255 195.526 153.436C198.039 156.431 200.312 159.62 202.325 162.972C198.925 163.32 195.69 164.607 192.98 166.69C191.285 159.915 188.891 153.335 185.836 147.055C185.64 146.665 185.688 147.44 185.719 144.238C194.119 140.808 207.242 123.59 202.756 115.538C199.993 110.587 199.906 107.271 199.61 102.223C199.642 99.556 198.662 96.9763 196.868 95.0027C193.439 93.3385 188.704 92.9198 181.279 92.3764C178.614 92.2897 176.001 91.6168 173.626 90.4057C171.251 89.1947 169.172 87.4751 167.537 85.3694C167.428 85.1973 167.265 85.067 167.072 84.9997C166.88 84.9324 166.671 84.9321 166.479 84.9988C166.286 85.0655 166.122 85.1953 166.013 85.3671C165.903 85.539 165.855 85.7427 165.877 85.9452C167.342 99.6813 156.509 112.99 153.68 116.202C151.354 114.289 147.327 116.085 145.767 119.231C145.18 120.483 144.961 121.875 145.136 123.247C145.311 124.618 145.873 125.911 146.756 126.975C149.361 130.632 152 132.52 154.601 132.583C155.799 132.611 156.973 132.241 157.938 131.529C158.185 131.991 158.51 132.568 158.898 133.193C157.194 134.852 155.721 136.735 154.52 138.788C152.361 142.506 150.76 146.52 149.769 150.703C146.973 161.876 146.007 162.046 146.637 162.858C146.727 162.977 146.846 163.071 146.982 163.132C147.119 163.192 147.268 163.216 147.417 163.203C152.063 162.853 150.323 161.965 155.039 162.08C157.574 162.148 160.042 162.905 162.178 164.27C162.9 171.156 164.124 180.318 166.182 191.606C170.902 217.513 162.149 278.905 161.211 285.318C142.552 291.731 137.775 291.111 125.833 285.793C118.039 282.422 109.951 279.775 101.673 277.885C107.272 269.336 112.226 260.381 116.494 251.096C116.583 250.879 116.584 250.636 116.497 250.419C116.411 250.202 116.243 250.026 116.03 249.93C115.817 249.834 115.574 249.824 115.354 249.903C115.134 249.982 114.953 250.144 114.849 250.354C110.432 259.949 105.283 269.189 99.4472 277.994C99.366 278.117 99.3164 278.259 99.3027 278.406C99.289 278.553 99.3117 278.701 99.3687 278.838C99.4258 278.974 99.5154 279.094 99.6298 279.188C99.7442 279.281 99.8798 279.346 100.025 279.374C108.624 281.246 117.021 283.948 125.098 287.441C126.542 288.084 127.889 288.652 129.174 289.152C128.681 293.304 127.058 324.088 127.73 341.432C127.739 341.665 127.838 341.886 128.006 342.047C128.175 342.209 128.399 342.299 128.632 342.299L166.555 340.255C166.771 340.244 166.975 340.155 167.131 340.006C167.287 339.857 167.385 339.656 167.405 339.441C167.42 339.279 168.709 326.202 170.07 317.556C171.113 324.776 173.05 337.05 174.703 341.382C174.764 341.559 174.881 341.711 175.036 341.816C175.192 341.921 175.377 341.972 175.564 341.961L207.821 341.378C208.057 341.373 208.282 341.276 208.448 341.107C208.613 340.939 208.706 340.712 208.706 340.476C208.706 340.127 209.049 308.661 206.706 290.168C208.374 290.049 212.043 289.085 220.646 285.475C220.864 285.381 221.035 285.204 221.124 284.984C221.212 284.764 221.21 284.517 221.119 284.298C221.027 284.079 220.852 283.905 220.633 283.814C220.414 283.723 220.167 283.722 219.947 283.811L219.951 283.826ZM193.45 247.875C193.401 247.346 193.219 246.837 192.921 246.397C194.959 246.146 196.974 245.738 198.95 245.177C199.13 248.458 199.404 251.834 199.742 255.184C197.852 256.021 195.888 256.681 193.876 257.157C194.156 256.31 194.211 256.576 193.45 247.875ZM161.122 149.026C160.958 150.568 161.758 160.08 161.949 162.044C159.822 160.944 157.473 160.339 155.079 160.275C150.706 160.163 151.164 160.889 148.63 161.259C149.69 157.915 150.653 154.54 151.518 151.14C152.458 147.277 153.911 143.558 155.839 140.081C156.982 138.13 158.351 136.321 159.916 134.691C160.639 135.717 161.488 136.648 162.443 137.462L161.122 149.026ZM159.032 129.679C158.967 129.539 158.868 129.418 158.743 129.328C158.618 129.238 158.473 129.181 158.32 129.163C158.167 129.145 158.012 129.166 157.87 129.225C157.727 129.283 157.603 129.378 157.507 129.498C157.153 129.915 156.71 130.247 156.209 130.468C155.709 130.688 155.165 130.793 154.619 130.772C152.65 130.711 150.44 129.032 148.226 125.924C147.533 125.126 147.086 124.145 146.937 123.099C146.787 122.052 146.943 120.986 147.384 120.025C147.744 119.266 148.291 118.61 148.974 118.12C149.657 117.63 150.454 117.322 151.289 117.224C151.602 117.191 151.919 117.247 152.201 117.386C152.484 117.526 152.721 117.742 152.886 118.011C152.957 118.131 153.054 118.233 153.17 118.309C153.287 118.386 153.42 118.434 153.558 118.45C153.696 118.467 153.836 118.451 153.967 118.404C154.099 118.357 154.217 118.281 154.314 118.181C154.899 117.576 167.88 103.921 167.819 88.4704C171.439 91.8953 176.163 93.9164 181.14 94.1706C188.257 94.6923 192.84 95.1164 195.917 96.546C197.126 98.231 197.786 100.248 197.807 102.322C198.108 107.486 198.217 111.105 201.179 116.401C202.543 118.856 201.821 122.513 199.982 126.339C195.257 136.177 186.369 142.445 182.968 143.193C176.091 144.703 169.44 140.254 163.925 136.317C161.86 134.46 160.195 132.201 159.032 129.679ZM164.119 138.684C170.014 142.88 176.809 146.703 183.878 144.842V152.277C183.878 152.324 183.02 157.077 175.506 156.9C165.994 156.647 163.333 150.18 162.938 149.039L164.119 138.684ZM163.054 152.864C164.588 154.783 166.553 156.313 168.791 157.329C171.028 158.345 173.474 158.817 175.929 158.708C184.52 158.708 185.618 152.629 185.641 152.431L185.656 150.886C197.197 176.674 198.161 216.104 198.688 237.67C198.688 237.67 198.816 242.403 198.856 243.311C191.829 245.668 175.088 245.749 167.629 245.594C169.335 226.158 170.322 204.321 167.945 191.281C165.516 178.59 163.882 165.759 163.054 152.864ZM190.973 257.492C173.201 258.974 175.972 258.897 174.017 258.846C173.736 258.771 173.487 258.605 173.307 258.375C173.128 258.145 173.029 257.863 173.024 257.572C173.066 255.108 173.066 251.392 173.066 249.052C173.063 248.708 173.193 248.376 173.428 248.125C173.663 247.874 173.986 247.723 174.329 247.704C176.021 247.612 190.24 246.782 190.269 246.782C190.611 246.788 190.939 246.919 191.191 247.15C191.444 247.38 191.604 247.694 191.641 248.034L192.224 256.032C192.239 256.211 192.219 256.39 192.164 256.56C192.109 256.731 192.021 256.889 191.905 257.024C191.788 257.16 191.646 257.272 191.486 257.352C191.326 257.432 191.152 257.48 190.973 257.492ZM171.467 258.756C169.771 258.675 168.077 258.551 166.387 258.386C166.761 254.89 167.131 251.2 167.47 247.406C168.335 247.424 169.817 247.451 171.696 247.46C171.409 247.944 171.258 248.497 171.257 249.059C171.261 258.509 171.1 257.881 171.467 258.749V258.756ZM206.913 339.598L176.183 340.156C173.981 333.555 171.243 312.919 171.107 311.893C172.885 305.352 175.401 299.034 178.609 293.062C178.669 292.958 178.708 292.843 178.723 292.723C178.737 292.604 178.728 292.483 178.696 292.367C178.663 292.252 178.608 292.144 178.533 292.05C178.459 291.956 178.366 291.877 178.26 291.82C178.155 291.762 178.039 291.726 177.919 291.714C177.8 291.701 177.679 291.713 177.564 291.748C177.449 291.783 177.342 291.841 177.25 291.917C177.158 291.994 177.081 292.089 177.026 292.195C176.772 292.659 170.768 303.684 169.01 313.099C167.599 320.861 166.532 330.135 165.689 338.501L129.493 340.454C128.831 321.032 130.65 293.802 130.937 289.811C134.247 291.054 137.75 291.709 141.285 291.746C146.747 291.746 152.837 290.121 162.315 286.845C162.471 286.791 162.61 286.695 162.715 286.568C162.82 286.441 162.889 286.287 162.913 286.123C162.953 285.854 164.584 274.932 166.196 260.175C175.932 261.187 190.491 261.115 199.937 257.068C203.755 292.755 207.301 283.957 206.913 339.591V339.598Z" fill="black"/>
<path d="M233.135 183.183C233.063 183.152 225.834 180.486 221.343 191.56C219.14 196.856 216.471 201.947 213.367 206.771C213.251 196.789 212.078 186.847 209.865 177.113C209.8 176.884 209.648 176.69 209.441 176.573C209.234 176.456 208.99 176.426 208.76 176.488C208.531 176.55 208.336 176.7 208.216 176.906C208.097 177.111 208.064 177.356 208.123 177.586C210.479 188.06 211.651 198.767 211.618 209.503C211.595 209.635 211.601 209.771 211.636 209.9C211.671 210.03 211.733 210.15 211.819 210.253C211.905 210.356 212.012 210.439 212.133 210.497C212.254 210.554 212.386 210.585 212.52 210.586C212.7 210.585 212.875 210.531 213.024 210.431C213.172 210.331 213.289 210.189 213.358 210.023C217.188 204.452 220.424 198.494 223.011 192.248C226.801 182.885 232.254 184.786 232.483 184.872C232.707 184.958 232.955 184.952 233.174 184.855C233.393 184.758 233.564 184.578 233.65 184.355C233.737 184.132 233.73 183.883 233.633 183.665C233.536 183.446 233.357 183.274 233.133 183.188L233.135 183.183Z" fill="black"/>
<path d="M190.11 249.044C190.08 248.673 189.905 248.327 189.624 248.082C189.343 247.836 188.977 247.71 188.605 247.73C186.473 247.898 178.262 248.328 176.195 248.377C175.821 248.383 175.465 248.536 175.203 248.803C174.941 249.07 174.793 249.428 174.793 249.803C174.793 251.201 174.793 255.124 174.82 256.553C174.817 256.75 174.855 256.945 174.932 257.126C175.008 257.307 175.121 257.471 175.263 257.606C175.405 257.742 175.574 257.846 175.759 257.914C175.943 257.981 176.14 258.009 176.336 257.997L189.24 257.001C189.435 256.995 189.627 256.951 189.805 256.869C189.982 256.787 190.141 256.671 190.272 256.526C190.403 256.381 190.503 256.211 190.566 256.027C190.63 255.842 190.655 255.647 190.641 255.452L190.11 249.044ZM176.62 256.176C176.6 254.665 176.598 251.647 176.598 250.163C179.011 250.046 185.849 249.692 188.341 249.553L188.812 255.234L176.62 256.176Z" fill="black"/>
<path fill-rule="evenodd" clip-rule="evenodd" d="M11.2975 188.513C11.2975 188.513 60.0055 154.399 65.2291 155.893C70.4528 157.388 90.2879 186.094 90.2518 189.089C90.2158 192.083 44.4915 224.55 37.2913 225.308C30.1273 226.063 10.8409 198.627 9.78494 194.984C9.5004 193.863 9.48928 192.69 9.75251 191.564C10.0157 190.438 10.5456 189.392 11.2975 188.513Z" fill="#E2F9FE"/>
<path d="M91.1576 189.099C91.1649 188.853 91.0776 188.614 90.9137 188.431C90.7497 188.248 90.5217 188.135 90.2768 188.115C90.1629 188.107 90.0486 188.122 89.9407 188.159C89.8328 188.196 89.7336 188.255 89.6491 188.332C89.5647 188.409 89.4968 188.502 89.4495 188.606C89.4023 188.71 89.3767 188.822 89.3743 188.936C88.4538 191.25 67.4201 206.743 52.1245 216.477L23.7824 179.861C23.7099 179.767 23.6196 179.688 23.5167 179.63C23.4138 179.571 23.3003 179.533 23.1828 179.518C23.0652 179.503 22.9458 179.511 22.8314 179.542C22.7171 179.573 22.6099 179.627 22.5162 179.699C22.4225 179.772 22.3439 179.862 22.2851 179.965C22.2262 180.068 22.1882 180.181 22.1732 180.299C22.1582 180.416 22.1665 180.536 22.1976 180.65C22.2288 180.765 22.2821 180.872 22.3547 180.965L50.5867 217.446C47.1821 219.652 43.6509 221.656 40.0112 223.448C36.7008 224.051 32.5601 219.237 25.6831 211.253C24.2529 209.59 22.8155 207.932 21.3709 206.281C11.864 195.402 12.1889 188.68 12.1943 188.592C12.2098 188.399 12.163 188.206 12.0606 188.042C11.9583 187.878 11.8058 187.751 11.6258 187.68C11.4458 187.609 11.2478 187.597 11.0609 187.647C10.874 187.698 10.7082 187.806 10.5879 187.958C9.73752 188.946 9.14076 190.127 8.84922 191.397C8.55767 192.668 8.58012 193.99 8.91463 195.25C10.0734 199.283 29.7172 227.06 37.3831 226.213C38.3968 226.025 39.3792 225.697 40.3018 225.237H40.3325C40.4892 225.208 40.6356 225.138 40.7566 225.034C53.5884 219.069 91.1089 192.792 91.1576 189.099ZM10.6546 194.739C10.3299 193.629 10.3545 192.446 10.725 191.35C11.4272 194.507 13.5733 200.091 20.0208 207.47C27.4213 215.921 32.1684 222.02 36.1015 224.298C29.0638 222.343 11.7936 198.712 10.651 194.739H10.6546Z" fill="black"/>
<path d="M19.5031 197.301C19.3835 197.301 19.2651 197.277 19.1548 197.231C19.0445 197.185 18.9445 197.117 18.8605 197.032L16.2324 194.368C16.1408 194.274 16.0705 194.162 16.0266 194.039C15.9826 193.916 15.966 193.784 15.9778 193.654C15.9897 193.524 16.0297 193.398 16.0952 193.284C16.1607 193.171 16.25 193.073 16.357 192.998L24.4939 187.272C24.6658 187.151 24.8746 187.094 25.0842 187.111C25.2938 187.127 25.491 187.216 25.6419 187.363L28.27 189.919C28.3647 190.011 28.4381 190.122 28.4849 190.246C28.5318 190.369 28.551 190.501 28.5412 190.633C28.5314 190.765 28.4928 190.893 28.4282 191.008C28.3635 191.123 28.2744 191.222 28.1671 191.299C19.3389 197.608 19.9146 197.301 19.5031 197.301ZM18.2667 193.857L19.6042 195.213L26.2394 190.458L24.9199 189.175L18.2667 193.857Z" fill="black"/>
<path d="M23.9644 203.697C23.8448 203.697 23.7264 203.673 23.6161 203.627C23.5058 203.581 23.4058 203.513 23.3218 203.428L20.6919 200.764C20.6003 200.67 20.53 200.558 20.4861 200.435C20.4421 200.311 20.4255 200.18 20.4373 200.05C20.4491 199.92 20.4892 199.793 20.5547 199.68C20.6201 199.567 20.7095 199.469 20.8165 199.394L28.9534 193.668C29.1253 193.547 29.3341 193.49 29.5437 193.506C29.7532 193.523 29.9505 193.612 30.1014 193.758L32.7295 196.314C32.8242 196.406 32.8976 196.518 32.9444 196.641C32.9913 196.765 33.0105 196.897 33.0007 197.029C32.9909 197.16 32.9523 197.288 32.8876 197.403C32.823 197.519 32.7339 197.618 32.6266 197.695C23.8074 204.011 24.3759 203.697 23.9644 203.697ZM22.7262 200.255L24.0655 201.612L30.6988 196.856L29.3794 195.574L22.7262 200.255Z" fill="black"/>
<path d="M29.1979 209.785C29.0751 209.785 28.9537 209.76 28.841 209.711C28.7284 209.662 28.6268 209.591 28.5426 209.502L25.9452 206.753C25.8519 206.654 25.7821 206.536 25.741 206.406C25.6999 206.277 25.6886 206.14 25.7078 206.005C25.7271 205.871 25.7765 205.742 25.8523 205.63C25.9281 205.517 26.0283 205.423 26.1456 205.354L34.5316 200.448C34.705 200.347 34.907 200.307 35.1057 200.334C35.3044 200.361 35.4886 200.453 35.6291 200.596L38.2229 203.242C38.3187 203.34 38.3912 203.458 38.4349 203.587C38.4785 203.717 38.4922 203.854 38.4748 203.99C38.4574 204.126 38.4095 204.256 38.3345 204.37C38.2596 204.484 38.1597 204.58 38.0424 204.65C29.0462 210.016 29.5589 209.785 29.1979 209.785ZM28.0354 206.338L29.3567 207.737L36.1399 203.688L34.8349 202.363L28.0354 206.338Z" fill="black"/>
<path d="M38.2379 219.373C37.3872 219.459 36.5281 219.365 35.7159 219.098C34.9038 218.831 34.1566 218.397 33.5225 217.823C32.8885 217.25 32.3817 216.55 32.0348 215.769C31.688 214.987 31.5088 214.142 31.5088 213.287C31.5088 212.432 31.688 211.586 32.0348 210.805C32.3817 210.024 32.8885 209.324 33.5225 208.75C34.1566 208.177 34.9038 207.742 35.7159 207.476C36.5281 207.209 37.3872 207.115 38.2379 207.2C39.0885 207.115 39.9476 207.209 40.7598 207.476C41.572 207.742 42.3192 208.177 42.9532 208.75C43.5873 209.324 44.0941 210.024 44.4409 210.805C44.7878 211.586 44.967 212.432 44.967 213.287C44.967 214.142 44.7878 214.987 44.4409 215.769C44.0941 216.55 43.5873 217.25 42.9532 217.823C42.3192 218.397 41.572 218.831 40.7598 219.098C39.9476 219.365 39.0885 219.459 38.2379 219.373ZM38.2379 209.005C37.6256 208.92 37.0021 208.967 36.4095 209.143C35.8169 209.319 35.2689 209.62 34.8026 210.026C34.3362 210.431 33.9623 210.932 33.706 211.495C33.4498 212.058 33.3172 212.669 33.3172 213.287C33.3172 213.905 33.4498 214.516 33.706 215.079C33.9623 215.641 34.3362 216.142 34.8026 216.548C35.2689 216.954 35.8169 217.255 36.4095 217.431C37.0021 217.607 37.6256 217.654 38.2379 217.568C38.8501 217.654 39.4736 217.607 40.0662 217.431C40.6588 217.255 41.2068 216.954 41.6732 216.548C42.1396 216.142 42.5135 215.641 42.7697 215.079C43.0259 214.516 43.1585 213.905 43.1585 213.287C43.1585 212.669 43.0259 212.058 42.7697 211.495C42.5135 210.932 42.1396 210.431 41.6732 210.026C41.2068 209.62 40.6588 209.319 40.0662 209.143C39.4736 208.967 38.8501 208.92 38.2379 209.005Z" fill="black"/>
<path fill-rule="evenodd" clip-rule="evenodd" d="M74.313 172.762L74.7805 166.858C74.7805 166.858 88.17 139.447 88.7061 139.061C89.2421 138.675 92.9821 140.072 93.6102 142.913C94.2384 145.754 80.1522 169.232 80.1522 169.232L75.9772 173.912L74.313 172.762Z" fill="#E2F9FE"/>
<path d="M89.7217 138.985C89.7217 138.985 90.5971 136.03 91.5267 135.779C92.3425 135.56 94.9706 137.147 94.7378 138.264C94.3669 139.416 93.8358 140.51 93.1602 141.513L89.7217 138.985Z" fill="#E2F9FE"/>
<path d="M80.9577 168.827C80.7782 168.197 80.4639 167.613 80.0365 167.116C79.6091 166.619 79.0789 166.22 78.4825 165.948C77.8861 165.676 77.2377 165.536 76.5821 165.539C75.9265 165.542 75.2793 165.687 74.6854 165.965C74.4754 165.985 74.2793 166.079 74.1312 166.23C73.9832 166.38 73.8925 166.577 73.8749 166.788C73.3623 173.152 73.3334 172.88 73.5338 173.224C72.7035 175.463 73.0879 175.984 73.2612 176.219C73.366 176.343 73.4953 176.443 73.641 176.515C73.7868 176.586 73.9457 176.626 74.1078 176.632C74.9796 176.632 75.7792 175.246 76.0445 174.813C76.2751 174.794 76.4896 174.687 76.6438 174.515L80.6671 170.002C80.8453 169.871 80.9719 169.682 81.025 169.468C81.0781 169.253 81.0543 169.026 80.9577 168.827ZM75.837 172.717L75.2539 172.317L75.6312 167.568C75.9563 167.432 76.3052 167.363 76.6575 167.364C77.0097 167.365 77.3582 167.436 77.6825 167.574C78.0068 167.711 78.3004 167.912 78.5461 168.165C78.7917 168.417 78.9845 168.716 79.113 169.044L75.837 172.717Z" fill="black"/>
<path d="M93.7452 141.005C92.8843 139.822 91.6959 138.916 90.3265 138.4C90.1022 138.316 89.8537 138.324 89.6355 138.423C89.4173 138.522 89.2474 138.704 89.1632 138.928C89.0789 139.152 89.0872 139.401 89.1862 139.619C89.2852 139.837 89.4669 140.007 89.6911 140.092C90.7123 140.469 91.6007 141.138 92.247 142.014C92.3808 142.213 92.5881 142.35 92.8231 142.396C93.0582 142.442 93.3019 142.392 93.5006 142.258C93.6993 142.125 93.8366 141.917 93.8825 141.682C93.9284 141.447 93.879 141.204 93.7452 141.005Z" fill="black"/>
<path d="M27.1112 88.6257C27.0726 88.5112 27.0114 88.4056 26.9313 88.3152C26.8511 88.2248 26.7536 88.1514 26.6445 88.0994C26.5355 88.0474 26.4171 88.0178 26.2963 88.0124C26.1756 88.007 26.0551 88.0259 25.9418 88.0679C25.8285 88.11 25.7249 88.1744 25.6369 88.2573C25.549 88.3402 25.4786 88.4399 25.43 88.5505C25.3813 88.6611 25.3553 88.7803 25.3536 88.9011C25.3519 89.0219 25.3744 89.1419 25.4199 89.2538L27.9469 96.0911C27.9855 96.2056 28.0467 96.3112 28.1269 96.4016C28.2071 96.492 28.3046 96.5654 28.4136 96.6174C28.5227 96.6694 28.6411 96.699 28.7618 96.7044C28.8825 96.7098 29.0031 96.6909 29.1164 96.6489C29.2296 96.6068 29.3333 96.5424 29.4212 96.4595C29.5091 96.3766 29.5795 96.2769 29.6282 96.1664C29.6769 96.0558 29.7028 95.9365 29.7046 95.8157C29.7063 95.6949 29.6837 95.5749 29.6382 95.463L27.1112 88.6257Z" fill="black"/>
<path d="M53.818 53.9563C54.0059 53.8371 54.1431 53.6527 54.2033 53.4385C54.2636 53.2243 54.2425 52.9954 54.1443 52.7957C54.046 52.5961 53.8775 52.4398 53.671 52.3568C53.4645 52.2739 53.2347 52.2701 53.0256 52.3463L46.4825 55.5646C46.2992 55.6544 46.1518 55.8036 46.0643 55.988C45.9767 56.1724 45.9543 56.381 46.0006 56.5797C46.0469 56.7785 46.1591 56.9557 46.3191 57.0824C46.4791 57.2092 46.6773 57.2779 46.8814 57.2775C47.1738 57.2685 46.6846 57.4707 53.818 53.9563Z" fill="black"/>
<path d="M40.8222 107.604L34.2791 110.827C34.0968 110.918 33.9504 111.067 33.8636 111.251C33.7768 111.435 33.7547 111.643 33.8009 111.841C33.8471 112.039 33.9589 112.216 34.1181 112.342C34.2773 112.469 34.4746 112.538 34.678 112.539C34.974 112.539 34.4867 112.741 41.6182 109.228C41.8336 109.123 41.9983 108.936 42.076 108.709C42.1537 108.482 42.138 108.233 42.0325 108.018C41.9269 107.803 41.7401 107.638 41.5131 107.56C41.2862 107.483 41.0376 107.498 40.8222 107.604Z" fill="black"/>
<path d="M33.7874 63.7046C34.0834 63.7046 33.5942 63.9068 40.7276 60.3943C40.943 60.2887 41.1077 60.1019 41.1854 59.8749C41.263 59.648 41.2474 59.3994 41.1418 59.184C41.0363 58.9686 40.8495 58.8039 40.6225 58.7262C40.3955 58.6485 40.147 58.6642 39.9316 58.7698L33.3884 61.9881C33.2031 62.0768 33.0536 62.226 32.9646 62.4112C32.8756 62.5964 32.8524 62.8063 32.8989 63.0065C32.9454 63.2066 33.0588 63.3849 33.2204 63.5118C33.3819 63.6387 33.5819 63.7068 33.7874 63.7046Z" fill="black"/>
<path d="M53.9069 101.166L47.3638 104.385C47.1805 104.475 47.0331 104.624 46.9456 104.808C46.8581 104.993 46.8356 105.201 46.8819 105.4C46.9282 105.599 47.0405 105.776 47.2005 105.903C47.3604 106.029 47.5586 106.098 47.7627 106.098C48.0587 106.098 47.5714 106.298 54.7047 102.786C54.9202 102.68 55.0847 102.493 55.1623 102.266C55.2398 102.038 55.2239 101.79 55.1181 101.574C55.0123 101.359 54.8252 101.194 54.5981 101.117C54.371 101.039 54.1224 101.055 53.9069 101.161V101.166Z" fill="black"/>
<path d="M103.339 58.0726C103.422 58.2972 103.591 58.4794 103.809 58.5793C104.026 58.6791 104.275 58.6884 104.499 58.6051C104.724 58.5218 104.906 58.3528 105.006 58.1351C105.106 57.9174 105.115 57.669 105.032 57.4445L102.496 50.6072C102.454 50.496 102.392 50.394 102.311 50.3071C102.23 50.2202 102.133 50.15 102.026 50.1006C101.918 50.0511 101.801 50.0234 101.683 50.0189C101.564 50.0145 101.446 50.0335 101.335 50.0747C101.224 50.1159 101.122 50.1787 101.035 50.2593C100.948 50.34 100.878 50.4369 100.828 50.5447C100.779 50.6525 100.751 50.769 100.747 50.8874C100.742 51.0059 100.761 51.1241 100.802 51.2353L103.339 58.0726Z" fill="black"/>
<path d="M22.0375 74.9482C21.9989 74.8337 21.9377 74.7281 21.8575 74.6377C21.7774 74.5473 21.6798 74.4739 21.5708 74.4219C21.4617 74.3699 21.3433 74.3403 21.2226 74.3349C21.1019 74.3295 20.9813 74.3484 20.8681 74.3905C20.7548 74.4325 20.6511 74.4969 20.5632 74.5798C20.4753 74.6627 20.4049 74.7624 20.3562 74.873C20.3076 74.9836 20.2816 75.1028 20.2799 75.2236C20.2782 75.3444 20.3007 75.4644 20.3462 75.5763L22.8732 82.4118C22.9108 82.5275 22.9714 82.6343 23.0513 82.7259C23.1312 82.8176 23.2288 82.8921 23.3382 82.9451C23.4476 82.9981 23.5666 83.0284 23.6881 83.0342C23.8095 83.0401 23.9309 83.0213 24.0449 82.9791C24.1589 82.9369 24.2632 82.872 24.3515 82.7885C24.4399 82.705 24.5104 82.6045 24.559 82.493C24.6075 82.3815 24.633 82.2614 24.6339 82.1398C24.6349 82.0182 24.6113 81.8977 24.5645 81.7855L22.0375 74.9482Z" fill="black"/>
<path d="M27.6398 66.8319C27.8552 66.7261 28.0198 66.5391 28.0973 66.3119C28.1748 66.0848 28.1589 65.8362 28.0531 65.6208C27.9473 65.4053 27.7603 65.2408 27.5332 65.1632C27.306 65.0857 27.0574 65.1016 26.842 65.2074L20.2989 68.4257C20.1156 68.5155 19.9682 68.6648 19.8807 68.8491C19.7931 69.0335 19.7707 69.2421 19.817 69.4409C19.8633 69.6396 19.9756 69.8168 20.1355 69.9436C20.2955 70.0703 20.4937 70.1391 20.6978 70.1387C20.9938 70.1423 20.5064 70.3444 27.6398 66.8319Z" fill="black"/>
<path d="M34.7129 109.135L32.1859 102.298C32.1473 102.183 32.0861 102.078 32.006 101.987C31.9258 101.897 31.8283 101.824 31.7192 101.771C31.6102 101.719 31.4918 101.69 31.3711 101.684C31.2503 101.679 31.1298 101.698 31.0165 101.74C30.9032 101.782 30.7996 101.847 30.7116 101.929C30.6237 102.012 30.5533 102.112 30.5047 102.223C30.456 102.333 30.43 102.452 30.4283 102.573C30.4266 102.694 30.4491 102.814 30.4946 102.926L33.0216 109.763C33.0602 109.878 33.1214 109.983 33.2016 110.074C33.2818 110.164 33.3793 110.238 33.4884 110.29C33.5974 110.342 33.7158 110.371 33.8365 110.377C33.9572 110.382 34.0778 110.363 34.1911 110.321C34.3043 110.279 34.408 110.215 34.4959 110.132C34.5839 110.049 34.6542 109.949 34.7029 109.838C34.7516 109.728 34.7775 109.609 34.7793 109.488C34.781 109.367 34.7584 109.247 34.7129 109.135Z" fill="black"/>
<path d="M99.9513 43.7702L97.4243 36.9347C97.3867 36.8191 97.3262 36.7122 97.2463 36.6206C97.1664 36.529 97.0688 36.4544 96.9593 36.4015C96.8499 36.3485 96.7309 36.3182 96.6095 36.3123C96.488 36.3065 96.3667 36.3252 96.2527 36.3674C96.1386 36.4097 96.0343 36.4745 95.946 36.558C95.8577 36.6416 95.7871 36.7421 95.7386 36.8535C95.6901 36.965 95.6646 37.0852 95.6636 37.2067C95.6627 37.3283 95.6863 37.4488 95.7331 37.561L98.2601 44.3984C98.2987 44.5129 98.3599 44.6185 98.44 44.7089C98.5202 44.7993 98.6177 44.8726 98.7268 44.9247C98.8358 44.9767 98.9542 45.0063 99.0749 45.0117C99.1956 45.0171 99.3162 44.9982 99.4295 44.9561C99.5428 44.914 99.6464 44.8496 99.7343 44.7668C99.8223 44.6839 99.8926 44.5842 99.9413 44.4736C99.99 44.363 100.016 44.2437 100.018 44.1229C100.019 44.0021 99.9968 43.8822 99.9513 43.7702Z" fill="black"/>
<path d="M93.1716 81.8533L86.6285 85.0716C86.4452 85.1614 86.2978 85.3107 86.2102 85.495C86.1227 85.6794 86.1003 85.888 86.1466 86.0868C86.1929 86.2855 86.3051 86.4627 86.4651 86.5895C86.6251 86.7162 86.8233 86.785 87.0274 86.7846C87.3234 86.7846 86.8342 86.9867 93.9676 83.4724C94.0743 83.4201 94.1696 83.3474 94.2481 83.2583C94.3267 83.1691 94.3869 83.0654 94.4254 82.953C94.4638 82.8407 94.4798 82.7218 94.4723 82.6033C94.4648 82.4847 94.4341 82.3688 94.3818 82.2621C94.3296 82.1555 94.2568 82.0601 94.1677 81.9816C94.0786 81.9031 93.9749 81.8428 93.8625 81.8044C93.7501 81.7659 93.6313 81.7499 93.5127 81.7574C93.3942 81.7649 93.2782 81.7956 93.1716 81.8479V81.8533Z" fill="black"/>
<path d="M66.9036 47.5173C67.0103 47.465 67.1056 47.3923 67.1842 47.3032C67.2627 47.2141 67.3229 47.1104 67.3614 46.998C67.3999 46.8856 67.4158 46.7667 67.4083 46.6482C67.4009 46.5296 67.3701 46.4137 67.3179 46.3071C67.2656 46.2004 67.1928 46.1051 67.1037 46.0265C67.0146 45.948 66.9109 45.8877 66.7985 45.8493C66.6862 45.8108 66.5673 45.7949 66.4487 45.8023C66.3302 45.8098 66.2143 45.8405 66.1076 45.8928L59.5645 49.1111C59.3812 49.2009 59.2338 49.3502 59.1463 49.5345C59.0588 49.7189 59.0363 49.9275 59.0826 50.1263C59.1289 50.325 59.2412 50.5022 59.4011 50.629C59.5611 50.7557 59.7593 50.8245 59.9634 50.8241C60.2594 50.8295 59.7721 51.0298 66.9036 47.5173Z" fill="black"/>
<path d="M110.097 71.1179L107.57 64.2806C107.487 64.0561 107.319 63.8738 107.101 63.7737C106.884 63.6737 106.635 63.6642 106.411 63.7472C106.186 63.8303 106.004 63.9991 105.904 64.2166C105.804 64.4341 105.794 64.6824 105.877 64.9069L108.413 71.7443C108.496 71.9688 108.665 72.1511 108.883 72.2512C108.99 72.3007 109.107 72.3285 109.225 72.3331C109.344 72.3376 109.462 72.3188 109.573 72.2777C109.684 72.2365 109.786 72.1739 109.873 72.0934C109.96 72.0128 110.03 71.916 110.08 71.8083C110.129 71.7006 110.157 71.5842 110.162 71.4657C110.166 71.3473 110.148 71.2291 110.106 71.1179H110.097Z" fill="black"/>
<path d="M106.252 75.4138L99.7085 78.6322C99.5253 78.722 99.3778 78.8712 99.2903 79.0556C99.2028 79.24 99.1804 79.4485 99.2266 79.6473C99.2729 79.8461 99.3852 80.0233 99.5452 80.15C99.7052 80.2767 99.9034 80.3455 100.107 80.3451C100.403 80.3451 99.9143 80.5473 107.048 77.0329C107.154 76.9807 107.25 76.9079 107.328 76.8188C107.407 76.7297 107.467 76.626 107.505 76.5136C107.544 76.4012 107.56 76.2824 107.552 76.1638C107.545 76.0453 107.514 75.9293 107.462 75.8227C107.41 75.716 107.337 75.6207 107.248 75.5421C107.159 75.4636 107.055 75.4034 106.943 75.3649C106.83 75.3264 106.711 75.3105 106.593 75.318C106.474 75.3254 106.358 75.3562 106.252 75.4084V75.4138Z" fill="black"/>
<path d="M66.9953 94.7291L60.4522 97.9474C60.2689 98.0372 60.1215 98.1865 60.034 98.3708C59.9465 98.5552 59.924 98.7638 59.9703 98.9625C60.0166 99.1613 60.1289 99.3385 60.2888 99.4652C60.4488 99.592 60.647 99.6608 60.8511 99.6604C61.1471 99.6604 60.6598 99.8625 67.7931 96.35C68.0085 96.2442 68.1731 96.0571 68.2506 95.83C68.3281 95.6029 68.3123 95.3542 68.2065 95.1388C68.1541 95.0322 68.0812 94.9369 67.992 94.8584C67.9028 94.7799 67.799 94.7197 67.6865 94.6813C67.4594 94.6038 67.2107 94.6197 66.9953 94.7255V94.7291Z" fill="black"/>
<path d="M93.0721 34.6423C93.2875 34.5367 93.4522 34.3499 93.5299 34.123C93.6075 33.896 93.5919 33.6475 93.4863 33.4321C93.3808 33.2166 93.194 33.052 92.967 32.9743C92.74 32.8966 92.4915 32.9123 92.2761 33.0178L85.7329 36.2361C85.5497 36.3259 85.4023 36.4752 85.3147 36.6595C85.2272 36.8439 85.2048 37.0525 85.2511 37.2513C85.2973 37.45 85.4096 37.6272 85.5696 37.754C85.7296 37.8807 85.9278 37.9495 86.1319 37.9491C86.4279 37.9545 85.9405 38.1548 93.0721 34.6423Z" fill="black"/>
<path d="M79.9864 41.0798C80.2018 40.9743 80.3665 40.7874 80.4442 40.5605C80.5218 40.3335 80.5062 40.085 80.4006 39.8696C80.2951 39.6541 80.1083 39.4895 79.8813 39.4118C79.6543 39.3341 79.4058 39.3498 79.1904 39.4553L72.6473 42.6736C72.465 42.764 72.3186 42.9132 72.2318 43.0972C72.145 43.2812 72.1229 43.4891 72.1691 43.6872C72.2153 43.8853 72.327 44.062 72.4862 44.1886C72.6454 44.3152 72.8427 44.3843 73.0462 44.3848C73.3422 44.3902 72.8548 44.5923 79.9864 41.0798Z" fill="black"/>
<path d="M80.0837 88.2901L73.5406 91.5138C73.3573 91.6036 73.2099 91.7529 73.1224 91.9372C73.0348 92.1216 73.0124 92.3302 73.0587 92.529C73.105 92.7277 73.2173 92.9049 73.3772 93.0317C73.5372 93.1584 73.7354 93.2272 73.9395 93.2268C74.2355 93.2268 73.7481 93.4289 80.8815 89.9164C81.0969 89.8106 81.2615 89.6236 81.339 89.3964C81.4165 89.1693 81.4006 88.9207 81.2948 88.7052C81.2425 88.5986 81.1696 88.5033 81.0804 88.4248C80.9911 88.3463 80.8873 88.2861 80.7749 88.2477C80.5477 88.1702 80.2991 88.1843 80.0837 88.2901Z" fill="black"/>
<path d="M19.0346 64.2963C22.3955 62.3938 24.1012 58.6502 22.8449 55.9355C21.5886 53.2208 17.8451 52.5583 14.4841 54.4608C11.1232 56.3633 9.41751 60.1069 10.6738 62.8144C11.9301 65.5219 15.6736 66.1969 19.0346 64.2963Z" fill="white"/>
<path d="M43.1976 123.224C46.5586 121.321 48.2643 117.579 47.008 114.863C45.7517 112.146 42.0081 111.486 38.6472 113.388C35.2863 115.291 33.5806 119.032 34.8369 121.749C36.0932 124.465 39.844 125.124 43.1976 123.224Z" fill="white"/>
<path d="M34.0201 122.128C31.5184 116.713 38.6535 109.795 44.6227 111.714C49.9817 113.441 49.3481 120.784 43.6443 124.009C39.5542 126.325 35.4009 125.112 34.0201 122.128ZM42.5379 113.201C38.1914 113.201 34.0833 117.966 35.6572 121.37C36.789 123.814 40.1697 123.897 42.7563 122.439C47.8374 119.562 47.7886 113.201 42.5379 113.201Z" fill="black"/>
<path d="M114.669 88.0383C118.031 86.1359 119.737 82.3923 118.481 79.6758C117.224 76.9592 113.481 76.3004 110.118 78.2029C106.755 80.1053 105.052 83.8471 106.308 86.5636C107.564 89.2802 111.308 89.939 114.669 88.0383Z" fill="white"/>
<path d="M9.85869 63.2013C8.41469 60.0733 10.2901 55.8008 14.0445 53.6764C14.9961 53.0964 16.0567 52.7182 17.1605 52.5652C18.2643 52.4121 19.3878 52.4874 20.4613 52.7865C25.8203 54.5121 25.1868 61.8584 19.483 65.0822C15.4506 67.3637 11.2648 66.2446 9.85869 63.2013ZM18.3693 54.2738C14.0282 54.2738 9.91284 59.0372 11.4904 62.4432C12.6294 64.9053 16.0426 64.9522 18.5877 63.5118C23.6724 60.6382 23.6146 54.2738 18.3693 54.2738Z" fill="black"/>
<path d="M81.9979 28.2012C80.5539 25.0732 82.4292 20.8007 86.1836 18.6762C87.1353 18.0965 88.196 17.7186 89.2998 17.5658C90.4036 17.413 91.5271 17.4887 92.6004 17.7882C97.9577 19.512 97.3241 26.8583 91.6221 30.082C87.5897 32.3654 83.4039 31.2426 81.9979 28.2012ZM90.5156 19.2737C86.1746 19.2737 82.0592 24.0371 83.635 27.4431C84.7902 29.9376 88.2323 29.9268 90.7341 28.5117C95.8097 25.6309 95.7538 19.2737 90.5156 19.2737Z" fill="black"/>
<path d="M105.493 86.9434C104.049 83.8154 105.923 79.5429 109.677 77.4166C110.629 76.8375 111.69 76.4599 112.794 76.3071C113.898 76.1544 115.022 76.2297 116.096 76.5286C121.449 78.2524 120.827 85.5933 115.116 88.8242C111.024 91.1401 106.874 89.9325 105.493 86.9434ZM114.031 78.0213C109.614 78.0213 105.565 82.8046 107.13 86.1853C108.284 88.6726 111.722 88.6708 114.228 87.2539C119.327 84.3695 119.222 78.0213 114.034 78.0213H114.031Z" fill="black"/>
<path fill-rule="evenodd" clip-rule="evenodd" d="M310.162 71.2774L313.028 69.9363C313.028 69.9363 332.681 120.888 329.304 122.424C325.926 123.96 310.162 71.2774 310.162 71.2774Z" fill="#FFA698"/>
<path fill-rule="evenodd" clip-rule="evenodd" d="M310.158 71.2774L313.025 69.9363L308.817 60.2742L306.989 60.8536L310.158 71.2774Z" fill="white"/>
<path fill-rule="evenodd" clip-rule="evenodd" d="M319.855 148.868C319.348 148.548 318.916 148.122 318.589 147.62C318.262 147.117 318.048 146.55 317.962 145.957L319.855 143.186C320.95 142.595 322.187 142.315 323.43 142.376C324.673 142.438 325.876 142.839 326.907 143.536C330.698 145.944 330.239 148.343 330.239 148.343L327.503 151.953L325.117 151.772C326.06 153.03 326.588 154.551 326.626 156.122C326.626 156.122 322.654 166.602 319.68 169.698C316.705 172.793 316.469 175.21 315.541 178.293C314.613 181.376 314.332 185.641 311.332 188.36C308.332 191.078 307.341 191.035 304.314 193.973C301.287 196.912 293.37 190.851 290.39 188.08L292.737 184.853C296.172 181.317 298.847 177.114 300.594 172.505C302.348 167.631 303.471 167.698 306.55 166.05C309.63 164.402 309.112 161.49 310.269 157.245C311.131 154.098 313.165 151.4 315.953 149.704C317.172 149.128 318.507 148.842 319.855 148.868Z" fill="white"/>
<path fill-rule="evenodd" clip-rule="evenodd" d="M238.368 52.6344C238.846 52.2372 239.236 51.7435 239.511 51.1855C239.786 50.6275 239.94 50.0178 239.963 49.3962L237.503 47.5912C236.123 47.4623 234.731 47.6408 233.427 48.1139C232.124 48.587 230.942 49.3431 229.965 50.3276C226.245 53.7715 227.108 55.7426 227.108 55.7426L230.604 58.0115L233.144 57.035C232.358 58.3536 232.021 59.8911 232.182 61.4175C232.182 61.4175 238.052 69.3595 241.727 71.0869C245.373 72.8017 246.039 74.8684 247.49 77.2961C248.941 79.7238 250.118 84.9692 253.744 86.3735C257.371 87.7777 258.45 87.377 262.152 88.9456C265.854 90.5141 273.461 82.4061 276.249 78.9188L273.233 76.8575C270.152 75.6084 265.311 70.7403 262.705 67.0112C260.098 63.2821 259.658 64.3362 256.082 63.9427C252.506 63.5492 251.846 60.136 249.945 56.7642C249.167 55.479 248.11 54.3854 246.852 53.5642C245.594 52.7431 244.168 52.2156 242.678 52.0207C241.216 51.9613 239.755 52.1693 238.368 52.6344Z" fill="white"/>
<path fill-rule="evenodd" clip-rule="evenodd" d="M307.535 60.6704C308.531 60.6781 309.498 60.343 310.275 59.7214C311.052 59.0998 311.591 58.2296 311.802 57.2572C313.021 53.5677 307.84 41.9562 305.341 41.4381C302.841 40.9201 304.304 44.485 304.304 44.485C304.304 44.485 299.702 38.9382 298.056 40.514C296.409 42.0897 301.104 46.3044 301.104 46.3044C301.104 46.3044 298.528 44.0193 298.451 46.9759C298.373 49.9325 300.205 50.4794 300.436 54.7482C300.666 59.0531 302.079 61.0675 307.535 60.6704Z" fill="#E2F9FE"/>
<path d="M323.282 95.3134C320.268 86.698 317.127 78.1276 313.86 69.6048L310.069 60.9119C311.322 60.1516 312.243 58.9481 312.65 57.5402C313.657 54.497 311.103 47.8419 309.06 44.3041C307.084 40.8746 305.903 40.6346 305.515 40.5533C305.27 40.4656 305.009 40.4296 304.749 40.4476C304.489 40.4656 304.236 40.5373 304.005 40.658C303.775 40.7787 303.571 40.946 303.408 41.1491C303.245 41.3523 303.126 41.587 303.059 41.8385C301.968 40.6017 300.524 39.7292 298.921 39.3386C298.64 39.3184 298.358 39.3584 298.093 39.4558C297.829 39.5532 297.588 39.7059 297.387 39.9037C297.186 40.1014 297.029 40.3397 296.928 40.6027C296.826 40.8656 296.781 41.1472 296.797 41.4288C296.988 42.7054 297.563 43.8935 298.447 44.8348C298.131 45.0848 297.882 45.4102 297.725 45.781C297.567 46.1519 297.505 46.5564 297.544 46.9575C297.447 50.1776 299.268 50.7769 299.53 54.7966C299.725 59.3344 301.448 61.6213 306.271 61.6213C307.86 66.8396 323.735 121.049 328.554 123.23C328.728 123.313 328.917 123.357 329.11 123.36C329.302 123.364 329.493 123.325 329.67 123.248C330.809 122.74 332.536 121.955 323.282 95.3134ZM311.843 69.4929L310.717 70.02L308.143 61.5509C308.217 61.5509 308.295 61.5329 308.372 61.5202L311.843 69.4929ZM301.333 54.6919C301.055 50.3599 299.273 49.582 299.347 46.9972C299.347 46.5911 299.42 46.4088 299.409 46.3673C299.816 46.4864 300.19 46.6976 300.503 46.9846C300.683 47.1348 300.914 47.2089 301.148 47.1912C301.382 47.1735 301.6 47.0655 301.756 46.8899C301.911 46.7143 301.993 46.4851 301.982 46.2507C301.971 46.0164 301.87 45.7953 301.699 45.6344C300.425 44.4919 298.62 42.4197 298.602 41.3891C298.602 41.2392 298.644 41.1959 298.822 41.1346C299.925 41.1959 302.282 43.463 303.604 45.055C303.742 45.2204 303.934 45.3311 304.146 45.3669C304.359 45.4028 304.577 45.3615 304.762 45.2506C304.946 45.1397 305.085 44.9664 305.153 44.762C305.221 44.5576 305.214 44.3357 305.132 44.1363C304.871 43.5575 304.748 42.9261 304.771 42.2916C306.531 41.6941 312.089 53.4826 310.936 56.9662C309.771 60.4914 304.313 60.3235 302.647 58.838C302.164 58.2684 301.799 57.6086 301.574 56.8968C301.348 56.1851 301.266 55.4356 301.333 54.6919ZM328.829 121.116C325.897 117.385 317.84 93.7359 311.244 71.7492L312.528 71.1481C320.807 92.7034 328.91 116.394 328.823 121.132L328.829 121.116Z" fill="black"/>
<path d="M309.305 58.1586C309.165 58.1586 309.027 58.126 308.902 58.0634C308.777 58.0007 308.668 57.9097 308.583 57.7976C308.499 57.6855 308.443 57.5554 308.418 57.4176C308.392 57.2797 308.4 57.1379 308.439 57.0034C308.947 54.2401 308.491 51.386 307.147 48.9188C307.036 48.7106 307.011 48.4672 307.078 48.2409C307.144 48.0146 307.296 47.8232 307.502 47.7079C307.708 47.5925 307.951 47.5622 308.178 47.6236C308.406 47.685 308.601 47.8331 308.721 48.0362C310.312 50.922 310.824 54.28 310.165 57.5088C310.11 57.6951 309.997 57.8589 309.843 57.976C309.688 58.093 309.5 58.1571 309.305 58.1586Z" fill="black"/>
<path d="M306.015 59.621C305.825 59.6233 305.639 59.5654 305.483 59.4555C305.328 59.3456 305.211 59.1894 305.15 59.0091C305.089 58.8289 305.086 58.6339 305.142 58.452C305.199 58.2702 305.311 58.1107 305.463 57.9965C306.325 56.5709 306.864 54.9741 307.044 53.318C307.084 53.082 307.216 52.8715 307.412 52.7329C307.607 52.5943 307.849 52.5389 308.085 52.5788C308.321 52.6188 308.531 52.7509 308.67 52.946C308.809 53.1412 308.864 53.3834 308.824 53.6194C308.566 55.1645 307.586 59.621 306.015 59.621Z" fill="black"/>
<path d="M254.226 82.0051C254.079 82.0053 253.934 81.9695 253.804 81.9008C253.674 81.8322 253.562 81.7328 253.479 81.6112C253.396 81.4897 253.344 81.3497 253.328 81.2034C253.311 81.0572 253.331 80.9092 253.385 80.7722L257.175 71.1642C257.217 71.0517 257.281 70.9486 257.363 70.861C257.445 70.7735 257.544 70.7032 257.654 70.6542C257.763 70.6053 257.882 70.5788 258.002 70.5761C258.122 70.5735 258.241 70.5949 258.353 70.6389C258.464 70.683 258.566 70.7489 258.652 70.8328C258.738 70.9167 258.806 71.0169 258.853 71.1275C258.9 71.2381 258.924 71.3569 258.924 71.477C258.924 71.597 258.9 71.7159 258.854 71.8267L255.064 81.4329C254.997 81.6012 254.882 81.7457 254.733 81.8478C254.583 81.9498 254.407 82.0046 254.226 82.0051Z" fill="black"/>
<path d="M310.336 183.709C310.196 183.709 310.058 183.677 309.933 183.614C309.807 183.552 309.698 183.461 309.614 183.348L304.116 175.872C303.999 175.68 303.958 175.451 304.002 175.23C304.045 175.009 304.169 174.812 304.35 174.678C304.531 174.544 304.755 174.483 304.979 174.505C305.203 174.528 305.41 174.634 305.56 174.802L311.06 182.28C311.157 182.414 311.215 182.572 311.227 182.737C311.24 182.902 311.207 183.067 311.133 183.215C311.058 183.362 310.944 183.486 310.804 183.574C310.663 183.661 310.502 183.708 310.336 183.709Z" fill="black"/>
<path d="M260.391 83.2114C260.178 83.2106 259.972 83.1345 259.81 82.9967C259.648 82.8588 259.539 82.6681 259.504 82.4582C259.469 82.2482 259.509 82.0326 259.617 81.8494C259.726 81.6662 259.895 81.5272 260.096 81.4569L266.955 79.096C267.068 79.0537 267.189 79.0344 267.309 79.0393C267.429 79.0442 267.548 79.0732 267.657 79.1245C267.766 79.1759 267.863 79.2485 267.944 79.3382C268.024 79.4279 268.086 79.5328 268.125 79.6468C268.165 79.7607 268.181 79.8814 268.173 80.0016C268.165 80.1219 268.133 80.2393 268.078 80.3469C268.024 80.4546 267.949 80.5503 267.857 80.6284C267.765 80.7065 267.659 80.7654 267.544 80.8017C265.205 81.7343 262.817 82.5388 260.391 83.2114Z" fill="black"/>
<path d="M297.866 185.777C297.749 185.778 297.632 185.757 297.523 185.714C297.414 185.67 297.314 185.606 297.23 185.523C297.147 185.441 297.08 185.344 297.034 185.235C296.988 185.127 296.964 185.011 296.963 184.894C296.962 184.652 297.057 184.42 297.225 184.248C297.394 184.075 297.624 183.976 297.866 183.972H304.849C304.967 183.97 305.083 183.991 305.192 184.034C305.302 184.078 305.401 184.143 305.485 184.225C305.569 184.307 305.636 184.405 305.681 184.513C305.727 184.621 305.751 184.737 305.752 184.854C305.754 185.096 305.66 185.329 305.491 185.502C305.322 185.674 305.091 185.773 304.849 185.777H297.866Z" fill="black"/>
<path fill-rule="evenodd" clip-rule="evenodd" d="M241.328 69.5924C241.328 69.5924 243.787 59.3039 251.29 60.0494C251.521 60.8803 251.919 61.6556 252.458 62.3285C252.998 63.0014 253.668 63.558 254.429 63.9644C256.757 64.9012 256.92 64.7081 256.92 64.7081C256.92 64.7081 247.895 68.6791 247.797 76.7745C246.063 72.5616 243.386 71.6591 241.328 69.5924Z" fill="#8DE3A7"/>
<path fill-rule="evenodd" clip-rule="evenodd" d="M321.278 167.468C321.278 167.468 317.446 159.409 309.845 162.293C309.511 164.014 308.541 165.545 307.126 166.58C304.857 168.08 304.668 167.963 304.668 167.963C304.668 167.963 314.429 168.661 315.561 175.544C316.796 171.435 319.438 169.851 321.278 167.468Z" fill="#FAD353"/>
<path d="M276.845 82.4889C273.569 79.4926 273.713 79.5611 273.392 79.4907C269.385 76.7319 265.972 73.1979 263.354 69.0976C261.089 65.3829 259.782 64.6518 257.448 63.9822C257.274 63.8586 257.062 63.7998 256.849 63.8161C256.138 63.6493 255.442 63.421 254.77 63.1338C252.564 62.2458 252.281 59.4047 250.416 55.764C248.851 52.6752 246.199 50.2745 242.971 49.0242C242.837 48.9338 242.682 48.8808 242.521 48.8707C241.691 48.6394 240.829 48.5485 239.969 48.6018C240.215 48.2217 240.362 47.7863 240.397 47.335C240.432 46.8837 240.355 46.4307 240.171 46.017C240.064 45.8365 239.947 45.7481 237.839 43.5225C237.724 43.3305 237.541 43.1891 237.326 43.1272C235.946 42.6846 234.47 42.6372 233.064 42.9903C231.659 43.3434 230.38 44.083 229.373 45.1254C225.522 48.6307 226.653 51.8742 226.812 52.2695C226.937 52.5836 226.984 52.5565 230.061 55.1575C230.351 55.3264 230.674 55.4331 231.007 55.4707C231.341 55.5083 231.679 55.476 232 55.3759C231.709 56.5081 231.719 57.6967 232.03 58.8235C234.563 62.8874 237.463 66.7102 240.694 70.2437C241.527 71.0758 242.904 72.0217 244.461 73.3935C245.866 75.0867 247.038 76.96 247.947 78.9637C249.543 81.904 250.781 86.292 254.651 88.5916C258.342 90.7864 259.284 90.4633 262.91 92.7864C267.194 95.4939 274.033 87.7432 276.966 83.6874C277.097 83.5078 277.157 83.2861 277.135 83.065C277.112 82.8438 277.009 82.6387 276.845 82.4889ZM245.828 72.2004C244.754 71.138 243.593 70.1666 242.359 69.2961C242.945 67.3792 245.364 60.9281 250.638 60.9317C250.948 61.8527 251.454 62.6952 252.122 63.4009C252.79 64.1065 253.604 64.6584 254.506 65.0183C251.076 66.9958 248.503 70.1767 247.286 73.944C246.868 73.3034 246.377 72.7129 245.824 72.1841L245.828 72.2004ZM228.37 51.1559C227.91 48.1794 232.076 43.768 236.205 44.6831C235.998 47.3166 231.689 51.3815 228.366 51.1396L228.37 51.1559ZM232.944 53.0583C232.407 53.4109 231.801 53.6436 231.166 53.7406L230.058 52.8038C231.767 52.3378 233.349 51.4897 234.683 50.3234C236.017 49.1571 237.069 47.7032 237.759 46.0712L238.579 46.9304C238.606 47.4069 238.13 48.8256 235.556 51.0999C234.752 51.8349 233.876 52.4857 232.94 53.0421L232.944 53.0583ZM233.978 54.968C234.418 55.2695 234.575 55.4229 234.918 55.4229C235.111 55.4228 235.298 55.3611 235.453 55.2468C235.608 55.1326 235.723 54.9717 235.78 54.7878C235.837 54.604 235.834 54.4066 235.771 54.2247C235.708 54.0428 235.588 53.8858 235.429 53.7767C235.155 53.5962 235.133 53.8922 236.752 52.4609C237.3 51.9804 237.823 51.4713 238.317 50.9356L239.054 51.2696C239.194 51.3329 239.349 51.3592 239.502 51.346C239.656 51.3327 239.803 51.2803 239.931 51.1938C240.059 51.1073 240.162 50.9895 240.231 50.8518C240.3 50.714 240.333 50.5608 240.326 50.4068C240.726 50.3992 241.125 50.4282 241.519 50.4934C241.009 55.4734 235.698 57.0239 233.594 57.4463C233.565 56.5984 233.695 55.7526 233.974 54.9518L233.978 54.968ZM243.259 51.1125C245.645 52.3048 247.589 54.2254 248.81 56.5961C249.268 57.4986 249.633 58.3578 249.954 59.1484C245.081 59.5094 242.158 64.2764 240.915 67.8449C238.542 65.0909 236.354 62.1827 234.366 59.1394C237.769 58.3614 242.494 56.0474 243.256 51.0963L243.259 51.1125ZM259.336 88.8948C254.138 86.7089 253.035 85.505 250.618 80.312C249.47 77.8446 249.611 78.3121 248.707 76.545C248.94 70.1643 255.355 66.5092 256.934 65.7042C258.887 66.2457 259.811 66.7529 261.807 70.0362C264.391 74.0911 267.711 77.6266 271.596 80.46C268.941 82.4964 266.42 84.7031 264.051 87.0663C260.36 91.0482 266.109 91.7431 259.336 88.8948ZM266.259 91.2666C266.244 91.0658 266.163 90.8756 266.029 90.7262C265.894 90.5767 265.713 90.4766 265.515 90.4417C265.215 90.3875 264.612 90.1655 264.517 89.8731C264.091 88.5898 272.049 82.3914 273.141 81.5412L275.022 83.2632C272.65 86.3949 269.009 90.2215 266.259 91.2666Z" fill="black"/>
<path d="M327.652 142.703C323.63 141.002 318.988 142.952 318.856 144.002C317.257 146.15 317.096 146.327 317.013 146.511C316.879 146.974 316.885 147.465 317.03 147.924C317.174 148.384 317.451 148.79 317.825 149.092C317.318 149.358 316.831 149.66 316.367 149.995C316.225 149.88 316.052 149.811 315.87 149.797C315.688 149.783 315.506 149.824 315.348 149.916C315.19 150.007 315.064 150.144 314.985 150.309C314.907 150.473 314.88 150.658 314.908 150.838C314.923 150.928 314.939 151.018 314.957 151.103C312.985 152.782 311.443 154.909 310.459 157.305C308.835 161.388 309.223 163.635 306.212 165.321C302.643 167.321 301.373 167.464 299.032 172.321C296.728 176.784 293.658 180.807 289.962 184.207C289.858 184.297 289.777 184.409 289.723 184.536C289.67 184.662 289.646 184.799 289.653 184.936C289.66 185.073 289.699 185.206 289.765 185.326C289.832 185.446 289.925 185.549 290.037 185.627L287.546 188.58C287.467 188.675 287.407 188.785 287.372 188.904C287.337 189.023 287.326 189.147 287.341 189.27C287.356 189.393 287.396 189.512 287.459 189.618C287.521 189.725 287.605 189.818 287.705 189.891C291.74 192.835 299.234 196.806 302.97 193.501C306.362 190.472 307.382 190.445 310.813 187.544C314.423 184.494 315.121 180.406 316.345 177.532C317.679 174.463 318.058 172.509 321.253 169.5C324.527 166.406 329.886 156.275 329.975 155.782C330.06 154.995 329.985 154.199 329.755 153.441C329.525 152.684 329.144 151.981 328.636 151.374C331.289 148.43 331.215 148.56 331.298 148.305C331.704 147.064 331.466 144.295 327.652 142.703ZM319.486 146.179C320.523 147.352 321.819 148.267 323.27 148.853C324.722 149.44 326.29 149.681 327.85 149.558L327.179 150.305C327.179 150.305 325.997 151.105 322.125 149.56C319.39 148.477 318.733 147.502 318.667 147.286L319.486 146.179ZM299.387 192.939C296.479 192.952 292.458 190.954 289.561 188.988L291.268 186.967C292.191 187.265 301.015 190.201 300.981 191.142C300.976 191.329 299.344 192.559 299.387 192.939ZM309.647 186.164C306.578 188.759 305.606 188.913 302.788 191.279C302.88 190.133 301.92 189.317 300.905 188.777C297.892 187.353 294.781 186.147 291.595 185.167C295.282 181.688 298.348 177.605 300.663 173.095C301.321 171.291 302.496 169.721 304.042 168.583C304.132 168.677 304.241 168.75 304.361 168.797C304.482 168.845 304.612 168.865 304.741 168.857C305.835 168.967 313.742 169.96 314.683 175.675C314.715 175.871 314.811 176.051 314.955 176.187C313.289 180.193 312.742 183.543 309.647 186.164ZM315.654 172.962C313.896 169.574 310.013 168.112 307.382 167.494C308.999 166.461 310.157 164.845 310.616 162.982C316.094 161.204 319.291 165.792 320.201 167.363C318.438 169.014 316.909 170.898 315.654 172.962ZM328.215 155.347C326.288 159.146 324.096 162.804 321.654 166.294C320.473 164.381 316.948 159.733 311.145 160.969C311.788 157.897 313.351 155.092 315.627 152.93C317.598 156.388 322.982 156.823 326.818 156.074C327.046 156.022 327.245 155.883 327.372 155.686C327.5 155.49 327.546 155.252 327.501 155.022C327.456 154.792 327.324 154.589 327.132 154.455C326.941 154.321 326.704 154.267 326.473 154.303C326.419 154.312 321.221 155.3 318.381 153.318C317.798 152.921 317.334 152.372 317.04 151.73C317.784 151.126 318.626 150.654 319.529 150.334C320.829 151.033 322.206 151.579 323.632 151.959L323.495 152.081C323.316 152.24 323.207 152.464 323.193 152.703C323.179 152.942 323.26 153.177 323.419 153.356C323.578 153.535 323.802 153.643 324.041 153.658C324.28 153.672 324.514 153.591 324.693 153.432C325.126 153.083 325.536 152.708 325.923 152.309C326.299 152.32 326.676 152.292 327.047 152.226C327.799 153.092 328.213 154.2 328.215 155.347ZM320.715 144.667C321.667 144.156 322.721 143.865 323.8 143.813C324.879 143.761 325.956 143.95 326.953 144.367C329.287 145.34 329.634 146.63 329.634 147.311C326.302 148.787 321.383 146.583 320.715 144.667Z" fill="black"/>
<path d="M74.9616 73.0719C74.7327 72.2557 74.3154 71.5047 73.7433 70.8793C73.1711 70.2538 72.4601 69.7714 71.6675 69.4709C69.4095 68.6388 66.4096 69.22 62.9494 71.155L59.4386 61.9278C59.3949 61.8125 59.328 61.7074 59.2421 61.619C59.1561 61.5305 59.053 61.4607 58.939 61.4136C58.825 61.3666 58.7025 61.3435 58.5792 61.3456C58.4559 61.3477 58.3344 61.3751 58.2221 61.426L55.3341 62.7383C55.1253 62.8334 54.9605 63.0044 54.8733 63.2167C54.7862 63.4289 54.7831 63.6664 54.8648 63.8808L62.6696 84.2557C62.7529 84.4734 62.9173 84.6505 63.1283 84.7497C63.3392 84.849 63.5804 84.8628 63.8013 84.7881C64.3573 84.6022 77.2702 80.1421 74.9616 73.0719ZM64.0414 82.7828L56.8593 64.0288L58.0939 63.4675L61.6407 72.7939C61.6878 72.9181 61.7617 73.0304 61.8572 73.1227C61.9526 73.2151 62.0673 73.2852 62.193 73.3281C62.3186 73.3711 62.4522 73.3857 62.5842 73.3711C62.7162 73.3564 62.8434 73.3128 62.9566 73.2434C66.8409 70.8572 71.8516 69.3229 73.2451 73.6296C74.5952 77.7613 67.6839 81.3821 64.0414 82.7828Z" fill="black"/>
<path d="M63.0752 73.8262C62.8901 73.9295 62.7472 74.0946 62.6716 74.2926C62.5961 74.4906 62.5926 74.7089 62.6618 74.9092L64.7556 80.8134C64.7972 80.9302 64.8624 81.0371 64.9472 81.1275C65.0319 81.218 65.1344 81.29 65.2482 81.3391C65.362 81.3882 65.4847 81.4134 65.6086 81.413C65.7326 81.4126 65.8551 81.3867 65.9686 81.3368C67.1689 80.808 73.1037 78.0012 72.0117 74.6583C70.8403 71.1079 66.2881 72.0429 63.0752 73.8262ZM66.1184 79.2665L64.6311 75.0663C66.0772 74.2636 67.7477 73.9603 69.3836 74.2035C69.604 74.2915 69.8006 74.4302 69.9574 74.6083C70.1142 74.7864 70.2268 74.999 70.2861 75.2287C70.6742 76.3911 68.2663 78.1582 66.1184 79.2647V79.2665Z" fill="black"/>
<path d="M84.3601 73.4897C83.1994 73.5875 82.041 73.2766 81.0852 72.6108C80.1294 71.9451 79.4363 70.9663 79.1256 69.8436C76.568 61.7103 88.3672 57.8115 88.8726 57.649C89.097 57.5765 89.3408 57.5946 89.552 57.6995C89.7632 57.8044 89.9249 57.9878 90.0026 58.2104L91.0134 61.1147C91.0587 61.2443 91.0738 61.3827 91.0576 61.5191C91.0413 61.6555 90.9941 61.7864 90.9196 61.9018C90.8451 62.0173 90.7452 62.1142 90.6276 62.1851C90.51 62.2561 90.3777 62.2993 90.2408 62.3114C89.1165 62.4351 88.0389 62.8296 87.1005 63.4612C86.1621 64.0928 85.3908 64.9425 84.8529 65.9376C84.6255 66.4466 84.3222 67.3672 84.8348 67.804C85.528 68.3888 87.999 68.4231 91.6758 65.999C91.785 65.9271 91.9085 65.8799 92.0377 65.8605C92.1669 65.841 92.2989 65.8499 92.4243 65.8865C92.5498 65.923 92.6658 65.9864 92.7644 66.0722C92.863 66.158 92.9417 66.2642 92.9953 66.3834L94.2335 69.1487C94.323 69.3501 94.3357 69.5774 94.2692 69.7875C94.2027 69.9977 94.0616 70.1762 93.8725 70.2895C90.9848 72.0625 87.7323 73.1568 84.3601 73.4897ZM88.5947 59.6743C86.1399 60.6544 79.1653 63.9557 80.8476 69.3039C80.9642 69.7809 81.1943 70.2226 81.5183 70.5916C81.8423 70.9605 82.2507 71.2458 82.7086 71.423C85.3475 72.4212 89.9827 70.3887 92.2462 69.1487L91.7642 68.0657C88.3528 70.0656 85.2392 70.5115 83.6616 69.1722C83.1333 68.6683 82.7977 67.9956 82.713 67.2704C82.6283 66.5452 82.7998 65.8133 83.1977 65.2012C83.7496 64.0612 84.556 63.0633 85.5546 62.2843C86.5532 61.5054 87.7175 60.9663 88.9575 60.7085L88.5947 59.6743Z" fill="black"/>
<path d="M49.3785 84.8342C47.7784 85.2573 46.3176 86.0932 45.1421 87.2583C44.8454 87.6454 44.7029 88.1289 44.7423 88.6151C44.7816 89.1013 45 89.5556 45.3551 89.89C46.1078 90.3394 47.0699 89.8106 47.8659 89.4171C48.8672 88.998 49.8376 88.5088 50.7701 87.9532C51.5625 87.3756 50.8532 86.4208 50.6023 85.4389C50.5697 85.3135 50.5105 85.1967 50.4288 85.0963C50.3471 84.9958 50.2447 84.9142 50.1286 84.8568C50.0125 84.7994 49.8854 84.7677 49.756 84.7638C49.6266 84.7599 49.4978 84.7839 49.3785 84.8342Z" fill="black"/>
<path d="M54.9244 88.1233C54.6492 86.5461 54.2558 84.9919 53.7475 83.4736C53.0255 81.3076 51.7711 78.2554 49.5762 77.6579C48.6152 77.4392 47.6173 77.4392 46.6563 77.6579C45.6953 77.8766 44.7957 78.3084 44.024 78.9214C43.1133 79.4742 42.3295 80.2131 41.7239 81.0896C41.1183 81.9661 40.7046 82.9605 40.5097 84.0079C40.4672 84.2721 40.4984 84.543 40.5999 84.7906C40.7014 85.0382 40.8692 85.2531 41.0849 85.4115C41.3006 85.5699 41.5558 85.6658 41.8224 85.6885C42.0891 85.7112 42.3568 85.66 42.5962 85.5404C45.2731 84.1956 40.5855 86.0819 41.4537 90.163C41.5603 91.0107 41.978 91.7886 42.6256 92.3459C43.2733 92.9032 44.1048 93.2001 44.959 93.1791C46.9819 92.9408 48.9091 92.1848 50.5545 90.9842C50.7488 91.0521 50.9552 91.078 51.1603 91.0603C51.3653 91.0425 51.5642 90.9816 51.744 90.8814C52.6716 90.4511 53.559 89.9389 54.3955 89.3507C54.5797 89.2071 54.7247 89.0193 54.8172 88.8048C54.9096 88.5902 54.9465 88.3559 54.9244 88.1233ZM51.1086 89.1666C50.9605 89.0582 50.7828 88.9975 50.5993 88.9927C50.4158 88.9878 50.2352 89.0391 50.0816 89.1395C47.4679 90.8507 43.8616 92.8235 43.2226 89.7821C42.6125 86.9068 46.4463 84.9754 49.2098 84.0765C49.3279 84.0368 49.4365 83.973 49.5288 83.8891C49.621 83.8053 49.6949 83.7033 49.7458 83.5895C49.7966 83.4757 49.8234 83.3527 49.8243 83.228C49.8253 83.1034 49.8004 82.9799 49.7513 82.8654C49.0076 81.1091 47.8127 79.5315 46.1106 80.3907C44.9987 80.9521 43.9897 81.4105 43.9572 82.8275L42.4464 83.5855C42.9329 82.2439 43.8643 81.1094 45.0853 80.3708C45.6409 79.9201 46.2901 79.5991 46.9855 79.4311C47.6809 79.2631 48.405 79.2524 49.1051 79.3998C51.1501 79.9593 52.6916 85.9772 53.0761 88.0638L51.1086 89.1666ZM45.7676 82.8491C45.7875 82.5964 45.7676 82.5856 47.0311 81.9574C47.2315 82.0206 47.5726 82.5242 47.6737 82.7083C44.8038 83.7985 45.8615 83.9754 45.7676 82.8491Z" fill="black"/>
<path fill-rule="evenodd" clip-rule="evenodd" d="M126.795 179.777L162.104 172.197L167.941 171.738L180.818 231.964L176.401 233.839L139.088 241.059C138.231 241.295 137.326 241.295 136.469 241.061C135.611 240.826 134.833 240.365 134.215 239.725C132.298 237.516 129.462 223.258 129.462 223.258L122.542 185.947C122.329 184.57 122.651 183.164 123.442 182.017C124.233 180.87 125.432 180.069 126.795 179.777Z" fill="#E2F9FE"/>
<path d="M181.701 231.776L168.821 171.536C168.775 171.322 168.653 171.132 168.478 171.001C168.303 170.87 168.086 170.808 167.868 170.825L161.911 171.301L126.577 178.893C125.007 179.208 123.619 180.115 122.699 181.425C121.779 182.736 121.399 184.349 121.636 185.933C121.636 186.113 121.115 184.559 128.575 223.422C128.86 224.908 131.515 237.982 133.531 240.305C134.049 240.895 134.691 241.365 135.41 241.68C136.13 241.995 136.91 242.148 137.695 242.128C138.417 242.128 137.853 242.207 145.195 240.787C145.731 245.055 145.178 249.39 143.589 253.387C143.536 253.52 143.515 253.662 143.529 253.804C143.542 253.946 143.588 254.083 143.664 254.203C143.74 254.324 143.844 254.424 143.966 254.497C144.089 254.57 144.226 254.613 144.369 254.622L147.719 254.831C147.89 254.831 148.058 254.783 148.203 254.691C148.348 254.599 148.463 254.468 148.536 254.313C150.442 249.73 151.041 244.709 150.266 239.806L176.573 234.722C176.754 234.687 176.644 234.722 181.173 232.792C181.365 232.71 181.522 232.564 181.619 232.379C181.715 232.193 181.744 231.98 181.701 231.776ZM147.132 252.992L145.688 252.902C147.083 248.907 147.52 244.641 146.964 240.447L148.484 240.153C149.128 244.478 148.662 248.896 147.132 252.992ZM176.25 232.922C176.333 232.819 176.391 232.7 176.422 232.572C176.454 232.444 176.456 232.311 176.431 232.182L164.908 175.115C164.884 174.999 164.838 174.889 164.771 174.791C164.705 174.692 164.62 174.608 164.521 174.543C164.422 174.477 164.311 174.432 164.195 174.41C164.079 174.387 163.959 174.388 163.843 174.411C163.727 174.435 163.616 174.481 163.518 174.548C163.42 174.614 163.336 174.699 163.27 174.798C163.205 174.897 163.16 175.008 163.137 175.124C163.114 175.24 163.115 175.36 163.139 175.476L174.66 232.541C174.686 232.675 174.743 232.801 174.826 232.909C174.908 233.017 175.015 233.105 175.137 233.166L138.836 240.187C138.145 240.38 137.414 240.384 136.72 240.197C136.027 240.011 135.396 239.641 134.894 239.128C133.613 237.651 131.389 228.505 130.347 223.087C123.032 185.023 123.45 185.963 123.434 185.77C123.242 184.621 123.507 183.442 124.173 182.486C124.838 181.529 125.851 180.871 126.995 180.651L162.173 173.085L167.227 172.688L179.786 231.428L176.25 232.922Z" fill="black"/>
<path fill-rule="evenodd" clip-rule="evenodd" d="M108.787 198.321C108.787 198.321 92.6578 226.037 103.159 233.091C107.997 236.34 122.691 228.521 128.79 223.752C133.944 219.729 147.342 208.409 152.678 207.243C154.848 208 157.209 208.015 159.389 207.285C163.141 206.076 165.175 204.758 170.603 207.66C176.031 210.563 175.98 210.036 175.565 207.577C176.083 206.747 176.421 205.817 176.558 204.847C176.694 203.878 176.626 202.891 176.357 201.949C176.357 201.949 177.038 196.312 174.773 192.778C173.651 190.821 171.948 189.262 169.899 188.318C169.899 188.318 171.403 186.641 176.11 188.859C180.783 191.06 184.281 191.776 182.946 188.692C181.61 185.607 173.74 180.52 165.939 182.481C158.138 184.441 157.851 184.939 157.851 184.939C157.851 184.939 163.686 176.894 162.019 175.011C160.351 173.129 159.921 173.918 157.475 176.928C155.03 179.939 145.261 184.724 145.593 192.562C145.593 192.562 129.258 204.218 124.836 205.151C122.867 205.642 120.857 205.949 118.832 206.068C116.259 202.612 112.784 199.931 108.787 198.321Z" fill="#FCE0D1"/>
<path d="M183.777 188.334C182.236 184.765 173.754 179.585 165.727 181.605C163.879 182.06 162.041 182.556 160.215 183.094C162.31 179.845 164.707 175.358 163.204 173.627C162.961 173.296 162.648 173.024 162.287 172.831C161.926 172.637 161.526 172.527 161.117 172.508C159.839 172.542 158.924 173.686 157.408 175.587L156.78 176.37C154.489 179.211 144.739 184.014 144.686 192.108C139.894 195.498 128.026 203.543 124.651 204.276C122.873 204.668 121.074 204.959 119.263 205.147C117.805 203.285 116.101 201.629 114.198 200.225C111.863 198.261 108.957 197.104 105.911 196.926C104.62 196.901 103.336 197.137 102.137 197.618C100.939 198.1 99.8489 198.818 98.933 199.729C98.7739 199.908 98.6922 200.142 98.7061 200.381C98.72 200.62 98.8282 200.844 99.007 201.003C99.1858 201.162 99.4205 201.244 99.6595 201.23C99.8985 201.216 100.122 201.108 100.281 200.929C101.019 200.195 101.901 199.622 102.87 199.243C103.84 198.865 104.877 198.691 105.917 198.731C106.422 198.743 106.926 198.798 107.422 198.895C104.534 204.119 92.6336 227.127 102.648 233.843C108.258 237.614 124.035 228.648 129.342 224.47C134.109 220.779 147.345 209.604 152.626 208.189C154.919 208.913 157.382 208.898 159.666 208.147C163.772 206.824 165.261 205.801 170.18 208.461C173.857 210.414 175.146 210.916 176.044 210.266C176.996 209.58 176.494 208.247 176.544 207.701C177.527 205.898 177.789 203.789 177.279 201.799C177.638 198.527 177.03 195.221 175.53 192.29C174.641 190.883 173.51 189.644 172.189 188.63C173.421 188.755 174.619 189.111 175.72 189.679C181.366 192.35 182.927 191.776 183.611 191.123C184.248 190.496 184.31 189.561 183.777 188.334ZM176.496 188.041C171.33 185.619 169.431 187.5 169.231 187.713C169.131 187.823 169.061 187.955 169.025 188.098C168.989 188.242 168.989 188.392 169.024 188.535C169.06 188.679 169.13 188.812 169.229 188.921C169.328 189.031 169.453 189.115 169.592 189.166C171.439 190.063 172.978 191.488 174.014 193.261C174.962 194.972 175.478 196.888 175.516 198.843C173.825 196.812 171.841 195.045 169.629 193.599C169.529 193.53 169.417 193.482 169.298 193.458C169.179 193.434 169.056 193.434 168.937 193.458C168.818 193.482 168.705 193.53 168.605 193.599C168.505 193.668 168.42 193.757 168.355 193.859C168.29 193.962 168.247 194.076 168.227 194.196C168.207 194.316 168.212 194.438 168.241 194.556C168.27 194.674 168.322 194.785 168.395 194.882C168.467 194.98 168.559 195.061 168.664 195.122C168.714 195.155 173.718 198.371 175.479 202.138L175.492 202.196C175.798 203.256 175.808 204.38 175.523 205.445C173.921 203.126 171.944 201.091 169.673 199.422C169.577 199.349 169.467 199.296 169.35 199.266C169.233 199.236 169.112 199.23 168.992 199.248C168.873 199.266 168.759 199.307 168.656 199.37C168.553 199.433 168.464 199.516 168.393 199.614C168.323 199.712 168.273 199.823 168.246 199.941C168.219 200.058 168.217 200.18 168.238 200.299C168.259 200.417 168.304 200.531 168.37 200.632C168.435 200.733 168.521 200.82 168.62 200.888C171.087 202.681 173.148 204.974 174.667 207.618C174.667 207.642 174.792 208.413 174.817 208.656C173.515 208.143 172.249 207.545 171.027 206.864C165.375 203.821 163.15 205.129 159.114 206.424C157.137 207.081 155 207.076 153.027 206.409C152.856 206.338 152.667 206.321 152.486 206.36C146.872 207.588 133.52 218.95 128.232 223.04C122.158 227.824 107.859 235.159 103.655 232.338C94.8303 226.419 106.861 203.638 109.187 199.44C112.351 200.843 115.135 202.98 117.31 205.673C114.694 206.983 112.331 208.746 110.332 210.882C110.25 210.969 110.186 211.071 110.144 211.183C110.102 211.294 110.083 211.413 110.087 211.532C110.091 211.651 110.119 211.768 110.169 211.877C110.219 211.985 110.29 212.083 110.377 212.163C110.465 212.244 110.568 212.307 110.68 212.348C110.792 212.389 110.911 212.407 111.03 212.402C111.149 212.396 111.266 212.367 111.374 212.317C111.482 212.266 111.578 212.194 111.658 212.106C113.706 209.895 116.2 208.146 118.976 206.972C121.013 206.811 123.036 206.499 125.028 206.039C129.575 205.052 145.448 193.781 146.121 193.301C146.243 193.214 146.342 193.098 146.408 192.963C146.474 192.828 146.505 192.679 146.498 192.529C146.188 185.244 155.68 180.616 158.179 177.502C159.973 175.271 160.724 174.322 161.16 174.311C161.195 174.298 161.413 174.334 161.843 174.816C162.384 175.45 160.469 179.746 157.164 184.352C157.015 184.524 156.936 184.745 156.943 184.972C156.95 185.2 157.043 185.416 157.203 185.578C157.362 185.74 157.577 185.835 157.804 185.846C158.031 185.856 158.254 185.78 158.428 185.634C160.934 184.65 163.521 183.887 166.16 183.354C173.606 181.48 180.996 186.449 182.12 189.049C182.227 189.293 182.307 189.549 182.358 189.81C182.059 189.967 180.485 189.929 176.496 188.041Z" fill="black"/>
</g>
<defs>
<clipPath id="clip0_1230_4222">
<rect width="361" height="338" fill="white" transform="translate(0.5)"/>
</clipPath>
</defs>
</svg>
